<?xml version="1.0" encoding="UTF-8" standalone="no"?><svg xmlns="http://www.w3.org/2000/svg" xmlns:xlink="http://www.w3.org/1999/xlink" contentScriptType="application/ecmascript" contentStyleType="text/css" height="2439.5833px" preserveAspectRatio="none" style="width:1860px;height:2439px;" version="1.1" viewBox="0 0 1860 2439" width="1860.4167px" zoomAndPan="magnify"><defs><filter height="300%" id="f8vf1buvbbkup" width="300%" x="-1" y="-1"><feGaussianBlur result="blurOut" stdDeviation="4.166666666666667"/><feColorMatrix in="blurOut" result="blurOut2" type="matrix" values="0 0 0 0 0 0 0 0 0 0 0 0 0 0 0 0 0 0 .4 0"/><feOffset dx="8.333333333333334" dy="8.333333333333334" in="blurOut2" result="blurOut3"/><feBlend in="SourceGraphic" in2="blurOut3" mode="normal"/></filter></defs><g><!--MD5=[262529f79808a7a2b3cde4b59841dda3]
cluster company.setup--><polygon fill="#FFFFFF" filter="url(#f8vf1buvbbkup)" points="756.25,12.5,989.5833,12.5,1004.1667,61.6862,1463.5417,61.6862,1463.5417,350,756.25,350,756.25,12.5" style="stroke:#000000;stroke-width:3.125;"/><line style="stroke:#000000;stroke-width:3.125;" x1="756.25" x2="1004.1667" y1="61.6862" y2="61.6862"/><text fill="#000000" font-family="sans-serif" font-size="29.1667" font-weight="bold" lengthAdjust="spacing" textLength="220.8333" x="764.5833" y="46.9442">company.setup</text><!--MD5=[d5f4e6d8cf96d2a703f5441ca47bcc9a]
cluster buss.operation--><polygon fill="#FFFFFF" filter="url(#f8vf1buvbbkup)" points="387.5,462.5,620.8333,462.5,635.4167,511.6862,1057.2917,511.6862,1057.2917,825,387.5,825,387.5,462.5" style="stroke:#000000;stroke-width:3.125;"/><line style="stroke:#000000;stroke-width:3.125;" x1="387.5" x2="635.4167" y1="511.6862" y2="511.6862"/><text fill="#000000" font-family="sans-serif" font-size="29.1667" font-weight="bold" lengthAdjust="spacing" textLength="220.8333" x="395.8333" y="496.9442">buss.operation</text><!--MD5=[cf1fbdae7178867bf325271920da9f58]
cluster buss.config--><polygon fill="#FFFFFF" filter="url(#f8vf1buvbbkup)" points="796.875,1156.25,980.2083,1156.25,994.7917,1205.4362,1469.7917,1205.4362,1469.7917,1464.5833,796.875,1464.5833,796.875,1156.25" style="stroke:#000000;stroke-width:3.125;"/><line style="stroke:#000000;stroke-width:3.125;" x1="796.875" x2="994.7917" y1="1205.4362" y2="1205.4362"/><text fill="#000000" font-family="sans-serif" font-size="29.1667" font-weight="bold" lengthAdjust="spacing" textLength="170.8333" x="805.2083" y="1190.6942">buss.config</text><!--MD5=[a2eef0b84d3b6c891bdcb3ede2b90dab]
cluster position--><polygon fill="#FFFFFF" filter="url(#f8vf1buvbbkup)" points="1156.25,1964.5833,1287.5,1964.5833,1302.0833,2013.7695,1825,2013.7695,1825,2272.9167,1156.25,2272.9167,1156.25,1964.5833" style="stroke:#000000;stroke-width:3.125;"/><line style="stroke:#000000;stroke-width:3.125;" x1="1156.25" x2="1302.0833" y1="2013.7695" y2="2013.7695"/><text fill="#000000" font-family="sans-serif" font-size="29.1667" font-weight="bold" lengthAdjust="spacing" textLength="118.75" x="1164.5833" y="1999.0275">position</text><!--MD5=[894b0a6cb7600d8ddf792fcb3ef4183f]
cluster trip.setup--><polygon fill="#FFFFFF" filter="url(#f8vf1buvbbkup)" points="33.3333,875,187.5,875,202.0833,924.1862,697.9167,924.1862,697.9167,1500,33.3333,1500,33.3333,875" style="stroke:#000000;stroke-width:3.125;"/><line style="stroke:#000000;stroke-width:3.125;" x1="33.3333" x2="202.0833" y1="924.1862" y2="924.1862"/><text fill="#000000" font-family="sans-serif" font-size="29.1667" font-weight="bold" lengthAdjust="spacing" textLength="141.6667" x="41.6667" y="909.4442">trip.setup</text><!--MD5=[192a915b922b1e704c103eda9a2e500f]
cluster trip.operation--><polygon fill="#FFFFFF" filter="url(#f8vf1buvbbkup)" points="392.7083,1550,605.2083,1550,619.7917,1599.1862,1057.2917,1599.1862,1057.2917,2216.6667,392.7083,2216.6667,392.7083,1550" style="stroke:#000000;stroke-width:3.125;"/><line style="stroke:#000000;stroke-width:3.125;" x1="392.7083" x2="619.7917" y1="1599.1862" y2="1599.1862"/><text fill="#000000" font-family="sans-serif" font-size="29.1667" font-weight="bold" lengthAdjust="spacing" textLength="200" x="401.0417" y="1584.4442">trip.operation</text><!--MD5=[02e4b9b7573f1156f41e60aa5b4e25a4]
class Company--><rect codeLine="15" fill="#FEFECE" filter="url(#f8vf1buvbbkup)" height="215.2995" id="Company" style="stroke:#A80036;stroke-width:3.125;" width="183.3333" x="1230.2083" y="95.8333"/><ellipse cx="1264.2708" cy="129.1667" fill="#ADD1B2" rx="22.9167" ry="22.9167" style="stroke:#A80036;stroke-width:2.0833333333333335;"/><path d="M1270.0326,120.5729 Q1270.3581,120.1172 1270.7487,119.8893 Q1271.1393,119.6615 1271.5951,119.6615 Q1272.3763,119.6615 1272.8646,120.2148 Q1273.3529,120.7357 1273.3529,122.0052 L1273.3529,125.0326 Q1273.3529,126.3021 1272.8646,126.8555 Q1272.3763,127.4089 1271.5951,127.4089 Q1270.8789,127.4089 1270.4557,126.9857 Q1270.0326,126.5951 1269.8047,125.5208 Q1269.707,124.7721 1269.3164,124.3815 Q1268.6328,123.6003 1267.3633,123.1445 Q1266.0938,122.6888 1264.7917,122.6888 Q1263.1966,122.6888 1261.862,123.3724 Q1260.5599,124.056 1259.5182,125.6185 Q1258.5091,127.181 1258.5091,129.3294 L1258.5091,131.6081 Q1258.5091,134.1797 1260.3646,135.9049 Q1262.2201,137.5977 1265.5404,137.5977 Q1267.4935,137.5977 1268.8607,137.0768 Q1269.6745,136.7513 1270.5534,135.8398 Q1271.1068,135.2865 1271.3997,135.1237 Q1271.7253,134.9609 1272.1484,134.9609 Q1272.832,134.9609 1273.3529,135.5143 Q1273.9063,136.0352 1273.9063,136.7513 Q1273.9063,137.4674 1273.1901,138.3138 Q1272.1484,139.5182 1270.4883,140.2018 Q1268.2422,141.1458 1265.5404,141.1458 Q1262.3828,141.1458 1259.8763,139.8438 Q1257.8255,138.8021 1256.3932,136.5885 Q1254.9609,134.3424 1254.9609,131.6732 L1254.9609,129.2643 Q1254.9609,126.4974 1256.2305,124.1211 Q1257.5326,121.7122 1259.8112,120.4427 Q1262.0898,119.1406 1264.6615,119.1406 Q1266.1914,119.1406 1267.526,119.4987 Q1268.8932,119.8242 1270.0326,120.5729 Z " fill="#000000"/><text fill="#000000" font-family="sans-serif" font-size="25" lengthAdjust="spacing" textLength="110.4167" x="1294.0625" y="139.3962">Company</text><line style="stroke:#A80036;stroke-width:3.125;" x1="1232.2917" x2="1411.4583" y1="162.5" y2="162.5"/><text fill="#000000" font-family="sans-serif" font-size="22.9167" lengthAdjust="spacing" textLength="120.8333" x="1242.7083" y="194.6228">company_id</text><text fill="#000000" font-family="sans-serif" font-size="22.9167" lengthAdjust="spacing" textLength="158.3333" x="1242.7083" y="223.4477">company_name</text><text fill="#000000" font-family="sans-serif" font-size="22.9167" lengthAdjust="spacing" textLength="154.1667" x="1242.7083" y="252.2725">company_desc</text><text fill="#000000" font-family="sans-serif" font-size="22.9167" lengthAdjust="spacing" textLength="68.75" x="1242.7083" y="281.0974">is_lock</text><line style="stroke:#A80036;stroke-width:3.125;" x1="1232.2917" x2="1411.4583" y1="294.4661" y2="294.4661"/><!--MD5=[414c8bf8eef4635e4831f4cb57e4f2cd]
class Company_Staff--><rect codeLine="23" fill="#FEFECE" filter="url(#f8vf1buvbbkup)" height="215.2995" id="Company_Staff" style="stroke:#A80036;stroke-width:3.125;" width="241.6667" x="806.25" y="96.875"/><ellipse cx="837.5" cy="130.2083" fill="#ADD1B2" rx="22.9167" ry="22.9167" style="stroke:#A80036;stroke-width:2.0833333333333335;"/><path d="M843.2617,121.6146 Q843.5872,121.1589 843.9779,120.931 Q844.3685,120.7031 844.8242,120.7031 Q845.6055,120.7031 846.0938,121.2565 Q846.582,121.7773 846.582,123.0469 L846.582,126.0742 Q846.582,127.3438 846.0938,127.8971 Q845.6055,128.4505 844.8242,128.4505 Q844.1081,128.4505 843.6849,128.0273 Q843.2617,127.6367 843.0339,126.5625 Q842.9362,125.8138 842.5456,125.4232 Q841.862,124.6419 840.5924,124.1862 Q839.3229,123.7305 838.0208,123.7305 Q836.4258,123.7305 835.0911,124.4141 Q833.7891,125.0977 832.7474,126.6602 Q831.7383,128.2227 831.7383,130.3711 L831.7383,132.6497 Q831.7383,135.2214 833.5938,136.9466 Q835.4492,138.6393 838.7695,138.6393 Q840.7227,138.6393 842.0898,138.1185 Q842.9036,137.793 843.7826,136.8815 Q844.3359,136.3281 844.6289,136.1654 Q844.9544,136.0026 845.3776,136.0026 Q846.0612,136.0026 846.582,136.556 Q847.1354,137.0768 847.1354,137.793 Q847.1354,138.5091 846.4193,139.3555 Q845.3776,140.5599 843.7174,141.2435 Q841.4714,142.1875 838.7695,142.1875 Q835.612,142.1875 833.1055,140.8854 Q831.0547,139.8438 829.6224,137.6302 Q828.1901,135.3841 828.1901,132.7148 L828.1901,130.306 Q828.1901,127.5391 829.4596,125.1628 Q830.7617,122.7539 833.0404,121.4844 Q835.319,120.1823 837.8906,120.1823 Q839.4206,120.1823 840.7552,120.5404 Q842.1224,120.8659 843.2617,121.6146 Z " fill="#000000"/><text fill="#000000" font-family="sans-serif" font-size="25" lengthAdjust="spacing" textLength="175" x="866.6667" y="140.4378">Company_Staff</text><line style="stroke:#A80036;stroke-width:3.125;" x1="808.3333" x2="1045.8333" y1="163.5417" y2="163.5417"/><text fill="#000000" font-family="sans-serif" font-size="22.9167" lengthAdjust="spacing" textLength="120.8333" x="818.75" y="195.6645">company_id</text><text fill="#000000" font-family="sans-serif" font-size="22.9167" lengthAdjust="spacing" textLength="75" x="818.75" y="224.4893">user_id</text><text fill="#000000" font-family="sans-serif" font-size="22.9167" lengthAdjust="spacing" textLength="97.9167" x="818.75" y="253.3142">staff_role</text><text fill="#000000" font-family="sans-serif" font-size="22.9167" lengthAdjust="spacing" textLength="68.75" x="818.75" y="282.1391">is_lock</text><line style="stroke:#A80036;stroke-width:3.125;" x1="808.3333" x2="1045.8333" y1="295.5078" y2="295.5078"/><!--MD5=[4cd522064e69dab9be6e26bc661fa866]
class Buss--><rect codeLine="32" fill="#FEFECE" filter="url(#f8vf1buvbbkup)" height="244.1243" id="Buss" style="stroke:#A80036;stroke-width:3.125;" width="160.4167" x="846.875" y="545.8333"/><ellipse cx="893.125" cy="579.1667" fill="#ADD1B2" rx="22.9167" ry="22.9167" style="stroke:#A80036;stroke-width:2.0833333333333335;"/><path d="M898.8867,570.5729 Q899.2122,570.1172 899.6029,569.8893 Q899.9935,569.6615 900.4492,569.6615 Q901.2305,569.6615 901.7188,570.2148 Q902.207,570.7357 902.207,572.0052 L902.207,575.0326 Q902.207,576.3021 901.7188,576.8555 Q901.2305,577.4089 900.4492,577.4089 Q899.7331,577.4089 899.3099,576.9857 Q898.8867,576.5951 898.6589,575.5208 Q898.5612,574.7721 898.1706,574.3815 Q897.487,573.6003 896.2174,573.1445 Q894.9479,572.6888 893.6458,572.6888 Q892.0508,572.6888 890.7161,573.3724 Q889.4141,574.056 888.3724,575.6185 Q887.3633,577.181 887.3633,579.3294 L887.3633,581.6081 Q887.3633,584.1797 889.2188,585.9049 Q891.0742,587.5977 894.3945,587.5977 Q896.3477,587.5977 897.7148,587.0768 Q898.5286,586.7513 899.4076,585.8398 Q899.9609,585.2865 900.2539,585.1237 Q900.5794,584.9609 901.0026,584.9609 Q901.6862,584.9609 902.207,585.5143 Q902.7604,586.0352 902.7604,586.7513 Q902.7604,587.4674 902.0443,588.3138 Q901.0026,589.5182 899.3424,590.2018 Q897.0964,591.1458 894.3945,591.1458 Q891.237,591.1458 888.7305,589.8438 Q886.6797,588.8021 885.2474,586.5885 Q883.8151,584.3424 883.8151,581.6732 L883.8151,579.2643 Q883.8151,576.4974 885.0846,574.1211 Q886.3867,571.7122 888.6654,570.4427 Q890.944,569.1406 893.5156,569.1406 Q895.0456,569.1406 896.3802,569.4987 Q897.7474,569.8242 898.8867,570.5729 Z " fill="#000000"/><text fill="#000000" font-family="sans-serif" font-size="25" lengthAdjust="spacing" textLength="60.4167" x="925.625" y="589.3962">Buss</text><line style="stroke:#A80036;stroke-width:3.125;" x1="848.9583" x2="1005.2083" y1="612.5" y2="612.5"/><text fill="#000000" font-family="sans-serif" font-size="22.9167" lengthAdjust="spacing" textLength="79.1667" x="859.375" y="644.6228">buss_id</text><text fill="#000000" font-family="sans-serif" font-size="22.9167" lengthAdjust="spacing" textLength="120.8333" x="859.375" y="673.4477">company_id</text><text fill="#000000" font-family="sans-serif" font-size="22.9167" lengthAdjust="spacing" textLength="135.4167" x="859.375" y="702.2725">buss_type_id</text><text fill="#000000" font-family="sans-serif" font-size="22.9167" lengthAdjust="spacing" textLength="116.6667" x="859.375" y="731.0974">buss_name</text><text fill="#000000" font-family="sans-serif" font-size="22.9167" lengthAdjust="spacing" textLength="68.75" x="859.375" y="759.9223">is_lock</text><line style="stroke:#A80036;stroke-width:3.125;" x1="848.9583" x2="1005.2083" y1="773.291" y2="773.291"/><!--MD5=[97f6a1272a5734ba8f9761d3d2504602]
class Buss_Staff--><rect codeLine="40" fill="#FEFECE" filter="url(#f8vf1buvbbkup)" height="186.4746" id="Buss_Staff" style="stroke:#A80036;stroke-width:3.125;" width="191.6667" x="437.5" y="546.875"/><ellipse cx="468.75" cy="580.2083" fill="#ADD1B2" rx="22.9167" ry="22.9167" style="stroke:#A80036;stroke-width:2.0833333333333335;"/><path d="M474.5117,571.6146 Q474.8372,571.1589 475.2279,570.931 Q475.6185,570.7031 476.0742,570.7031 Q476.8555,570.7031 477.3438,571.2565 Q477.832,571.7773 477.832,573.0469 L477.832,576.0742 Q477.832,577.3438 477.3438,577.8971 Q476.8555,578.4505 476.0742,578.4505 Q475.3581,578.4505 474.9349,578.0273 Q474.5117,577.6367 474.2839,576.5625 Q474.1862,575.8138 473.7956,575.4232 Q473.112,574.6419 471.8424,574.1862 Q470.5729,573.7305 469.2708,573.7305 Q467.6758,573.7305 466.3411,574.4141 Q465.0391,575.0977 463.9974,576.6602 Q462.9883,578.2227 462.9883,580.3711 L462.9883,582.6497 Q462.9883,585.2214 464.8438,586.9466 Q466.6992,588.6393 470.0195,588.6393 Q471.9727,588.6393 473.3398,588.1185 Q474.1536,587.793 475.0326,586.8815 Q475.5859,586.3281 475.8789,586.1654 Q476.2044,586.0026 476.6276,586.0026 Q477.3112,586.0026 477.832,586.556 Q478.3854,587.0768 478.3854,587.793 Q478.3854,588.5091 477.6693,589.3555 Q476.6276,590.5599 474.9674,591.2435 Q472.7214,592.1875 470.0195,592.1875 Q466.862,592.1875 464.3555,590.8854 Q462.3047,589.8438 460.8724,587.6302 Q459.4401,585.3841 459.4401,582.7148 L459.4401,580.306 Q459.4401,577.5391 460.7096,575.1628 Q462.0117,572.7539 464.2904,571.4844 Q466.569,570.1823 469.1406,570.1823 Q470.6706,570.1823 472.0052,570.5404 Q473.3724,570.8659 474.5117,571.6146 Z " fill="#000000"/><text fill="#000000" font-family="sans-serif" font-size="25" lengthAdjust="spacing" textLength="125" x="497.9167" y="590.4378">Buss_Staff</text><line style="stroke:#A80036;stroke-width:3.125;" x1="439.5833" x2="627.0833" y1="613.5417" y2="613.5417"/><text fill="#000000" font-family="sans-serif" font-size="22.9167" lengthAdjust="spacing" textLength="75" x="450" y="645.6645">user_id</text><text fill="#000000" font-family="sans-serif" font-size="22.9167" lengthAdjust="spacing" textLength="79.1667" x="450" y="674.4893">buss_id</text><text fill="#000000" font-family="sans-serif" font-size="22.9167" lengthAdjust="spacing" textLength="68.75" x="450" y="703.3142">is_lock</text><line style="stroke:#A80036;stroke-width:3.125;" x1="439.5833" x2="627.0833" y1="716.6829" y2="716.6829"/><!--MD5=[e46f6fb3658d084a7b45996280a3c05a]
class Buss_Type--><rect codeLine="49" fill="#FEFECE" filter="url(#f8vf1buvbbkup)" height="186.4746" id="Buss_Type" style="stroke:#A80036;stroke-width:3.125;" width="195.8333" x="1223.9583" y="1239.5833"/><ellipse cx="1255.2083" cy="1272.9167" fill="#ADD1B2" rx="22.9167" ry="22.9167" style="stroke:#A80036;stroke-width:2.0833333333333335;"/><path d="M1260.9701,1264.3229 Q1261.2956,1263.8672 1261.6862,1263.6393 Q1262.0768,1263.4115 1262.5326,1263.4115 Q1263.3138,1263.4115 1263.8021,1263.9648 Q1264.2904,1264.4857 1264.2904,1265.7552 L1264.2904,1268.7826 Q1264.2904,1270.0521 1263.8021,1270.6055 Q1263.3138,1271.1589 1262.5326,1271.1589 Q1261.8164,1271.1589 1261.3932,1270.7357 Q1260.9701,1270.3451 1260.7422,1269.2708 Q1260.6445,1268.5221 1260.2539,1268.1315 Q1259.5703,1267.3503 1258.3008,1266.8945 Q1257.0313,1266.4388 1255.7292,1266.4388 Q1254.1341,1266.4388 1252.7995,1267.1224 Q1251.4974,1267.806 1250.4557,1269.3685 Q1249.4466,1270.931 1249.4466,1273.0794 L1249.4466,1275.3581 Q1249.4466,1277.9297 1251.3021,1279.6549 Q1253.1576,1281.3477 1256.4779,1281.3477 Q1258.431,1281.3477 1259.7982,1280.8268 Q1260.612,1280.5013 1261.4909,1279.5898 Q1262.0443,1279.0365 1262.3372,1278.8737 Q1262.6628,1278.7109 1263.0859,1278.7109 Q1263.7695,1278.7109 1264.2904,1279.2643 Q1264.8438,1279.7852 1264.8438,1280.5013 Q1264.8438,1281.2174 1264.1276,1282.0638 Q1263.0859,1283.2682 1261.4258,1283.9518 Q1259.1797,1284.8958 1256.4779,1284.8958 Q1253.3203,1284.8958 1250.8138,1283.5938 Q1248.763,1282.5521 1247.3307,1280.3385 Q1245.8984,1278.0924 1245.8984,1275.4232 L1245.8984,1273.0143 Q1245.8984,1270.2474 1247.168,1267.8711 Q1248.4701,1265.4622 1250.7487,1264.1927 Q1253.0273,1262.8906 1255.599,1262.8906 Q1257.1289,1262.8906 1258.4635,1263.2487 Q1259.8307,1263.5742 1260.9701,1264.3229 Z " fill="#000000"/><text fill="#000000" font-family="sans-serif" font-size="25" lengthAdjust="spacing" textLength="129.1667" x="1284.375" y="1283.1462">Buss_Type</text><line style="stroke:#A80036;stroke-width:3.125;" x1="1226.0417" x2="1417.7083" y1="1306.25" y2="1306.25"/><text fill="#000000" font-family="sans-serif" font-size="22.9167" lengthAdjust="spacing" textLength="135.4167" x="1236.4583" y="1338.3728">buss_type_id</text><text fill="#000000" font-family="sans-serif" font-size="22.9167" lengthAdjust="spacing" textLength="54.1667" x="1236.4583" y="1367.1977">name</text><text fill="#000000" font-family="sans-serif" font-size="22.9167" lengthAdjust="spacing" textLength="110.4167" x="1236.4583" y="1396.0225">description</text><line style="stroke:#A80036;stroke-width:3.125;" x1="1226.0417" x2="1417.7083" y1="1409.3913" y2="1409.3913"/><!--MD5=[3640288bb00e105a19a150bd568b9756]
class Seat--><rect codeLine="55" fill="#FEFECE" filter="url(#f8vf1buvbbkup)" height="186.4746" id="Seat" style="stroke:#A80036;stroke-width:3.125;" width="160.4167" x="846.875" y="1240.625"/><ellipse cx="896.875" cy="1273.9583" fill="#ADD1B2" rx="22.9167" ry="22.9167" style="stroke:#A80036;stroke-width:2.0833333333333335;"/><path d="M902.6367,1265.3646 Q902.9622,1264.9089 903.3529,1264.681 Q903.7435,1264.4531 904.1992,1264.4531 Q904.9805,1264.4531 905.4688,1265.0065 Q905.957,1265.5273 905.957,1266.7969 L905.957,1269.8242 Q905.957,1271.0938 905.4688,1271.6471 Q904.9805,1272.2005 904.1992,1272.2005 Q903.4831,1272.2005 903.0599,1271.7773 Q902.6367,1271.3867 902.4089,1270.3125 Q902.3112,1269.5638 901.9206,1269.1732 Q901.237,1268.3919 899.9674,1267.9362 Q898.6979,1267.4805 897.3958,1267.4805 Q895.8008,1267.4805 894.4661,1268.1641 Q893.1641,1268.8477 892.1224,1270.4102 Q891.1133,1271.9727 891.1133,1274.1211 L891.1133,1276.3997 Q891.1133,1278.9714 892.9688,1280.6966 Q894.8242,1282.3893 898.1445,1282.3893 Q900.0977,1282.3893 901.4648,1281.8685 Q902.2786,1281.543 903.1576,1280.6315 Q903.7109,1280.0781 904.0039,1279.9154 Q904.3294,1279.7526 904.7526,1279.7526 Q905.4362,1279.7526 905.957,1280.306 Q906.5104,1280.8268 906.5104,1281.543 Q906.5104,1282.2591 905.7943,1283.1055 Q904.7526,1284.3099 903.0924,1284.9935 Q900.8464,1285.9375 898.1445,1285.9375 Q894.987,1285.9375 892.4805,1284.6354 Q890.4297,1283.5938 888.9974,1281.3802 Q887.5651,1279.1341 887.5651,1276.4648 L887.5651,1274.056 Q887.5651,1271.2891 888.8346,1268.9128 Q890.1367,1266.5039 892.4154,1265.2344 Q894.694,1263.9323 897.2656,1263.9323 Q898.7956,1263.9323 900.1302,1264.2904 Q901.4974,1264.6159 902.6367,1265.3646 Z " fill="#000000"/><text fill="#000000" font-family="sans-serif" font-size="25" lengthAdjust="spacing" textLength="52.0833" x="930.2083" y="1284.1878">Seat</text><line style="stroke:#A80036;stroke-width:3.125;" x1="848.9583" x2="1005.2083" y1="1307.2917" y2="1307.2917"/><text fill="#000000" font-family="sans-serif" font-size="22.9167" lengthAdjust="spacing" textLength="72.9167" x="859.375" y="1339.4145">seat_id</text><text fill="#000000" font-family="sans-serif" font-size="22.9167" lengthAdjust="spacing" textLength="135.4167" x="859.375" y="1368.2393">buss_type_id</text><text fill="#000000" font-family="sans-serif" font-size="22.9167" lengthAdjust="spacing" textLength="54.1667" x="859.375" y="1397.0642">name</text><line style="stroke:#A80036;stroke-width:3.125;" x1="848.9583" x2="1005.2083" y1="1410.4329" y2="1410.4329"/><!--MD5=[a62e99a02c267d00cbbb17692b012204]
class Stop_Location--><rect codeLine="63" fill="#FEFECE" filter="url(#f8vf1buvbbkup)" height="186.4746" id="Stop_Location" style="stroke:#A80036;stroke-width:3.125;" width="231.25" x="1206.25" y="2048.9583"/><ellipse cx="1237.5" cy="2082.2917" fill="#ADD1B2" rx="22.9167" ry="22.9167" style="stroke:#A80036;stroke-width:2.0833333333333335;"/><path d="M1243.2617,2073.6979 Q1243.5872,2073.2422 1243.9779,2073.0143 Q1244.3685,2072.7865 1244.8242,2072.7865 Q1245.6055,2072.7865 1246.0938,2073.3398 Q1246.582,2073.8607 1246.582,2075.1302 L1246.582,2078.1576 Q1246.582,2079.4271 1246.0938,2079.9805 Q1245.6055,2080.5339 1244.8242,2080.5339 Q1244.1081,2080.5339 1243.6849,2080.1107 Q1243.2617,2079.7201 1243.0339,2078.6458 Q1242.9362,2077.8971 1242.5456,2077.5065 Q1241.862,2076.7253 1240.5924,2076.2695 Q1239.3229,2075.8138 1238.0208,2075.8138 Q1236.4258,2075.8138 1235.0911,2076.4974 Q1233.7891,2077.181 1232.7474,2078.7435 Q1231.7383,2080.306 1231.7383,2082.4544 L1231.7383,2084.7331 Q1231.7383,2087.3047 1233.5938,2089.0299 Q1235.4492,2090.7227 1238.7695,2090.7227 Q1240.7227,2090.7227 1242.0898,2090.2018 Q1242.9036,2089.8763 1243.7826,2088.9648 Q1244.3359,2088.4115 1244.6289,2088.2487 Q1244.9544,2088.0859 1245.3776,2088.0859 Q1246.0612,2088.0859 1246.582,2088.6393 Q1247.1354,2089.1602 1247.1354,2089.8763 Q1247.1354,2090.5924 1246.4193,2091.4388 Q1245.3776,2092.6432 1243.7174,2093.3268 Q1241.4714,2094.2708 1238.7695,2094.2708 Q1235.612,2094.2708 1233.1055,2092.9688 Q1231.0547,2091.9271 1229.6224,2089.7135 Q1228.1901,2087.4674 1228.1901,2084.7982 L1228.1901,2082.3893 Q1228.1901,2079.6224 1229.4596,2077.2461 Q1230.7617,2074.8372 1233.0404,2073.5677 Q1235.319,2072.2656 1237.8906,2072.2656 Q1239.4206,2072.2656 1240.7552,2072.6237 Q1242.1224,2072.9492 1243.2617,2073.6979 Z " fill="#000000"/><text fill="#000000" font-family="sans-serif" font-size="25" lengthAdjust="spacing" textLength="164.5833" x="1266.6667" y="2092.5212">Stop_Location</text><line style="stroke:#A80036;stroke-width:3.125;" x1="1208.3333" x2="1435.4167" y1="2115.625" y2="2115.625"/><text fill="#000000" font-family="sans-serif" font-size="22.9167" lengthAdjust="spacing" textLength="72.9167" x="1218.75" y="2147.7478">stop_id</text><text fill="#000000" font-family="sans-serif" font-size="22.9167" lengthAdjust="spacing" textLength="106.25" x="1218.75" y="2176.5727">location_id</text><text fill="#000000" font-family="sans-serif" font-size="22.9167" lengthAdjust="spacing" textLength="168.75" x="1218.75" y="2205.3975">buss_stop_desc</text><line style="stroke:#A80036;stroke-width:3.125;" x1="1208.3333" x2="1435.4167" y1="2218.7663" y2="2218.7663"/><!--MD5=[4f1f3706c1a355a8488e154afcaed5df]
class Location--><rect codeLine="69" fill="#FFC0CB" filter="url(#f8vf1buvbbkup)" height="186.4746" id="Location" style="stroke:#A80036;stroke-width:3.125;" width="179.1667" x="1595.8333" y="2047.9167"/><ellipse cx="1633.6458" cy="2081.25" fill="#ADD1B2" rx="22.9167" ry="22.9167" style="stroke:#A80036;stroke-width:2.0833333333333335;"/><path d="M1639.4076,2072.6563 Q1639.7331,2072.2005 1640.1237,2071.9727 Q1640.5143,2071.7448 1640.9701,2071.7448 Q1641.7513,2071.7448 1642.2396,2072.2982 Q1642.7279,2072.819 1642.7279,2074.0885 L1642.7279,2077.1159 Q1642.7279,2078.3854 1642.2396,2078.9388 Q1641.7513,2079.4922 1640.9701,2079.4922 Q1640.2539,2079.4922 1639.8307,2079.069 Q1639.4076,2078.6784 1639.1797,2077.6042 Q1639.082,2076.8555 1638.6914,2076.4648 Q1638.0078,2075.6836 1636.7383,2075.2279 Q1635.4688,2074.7721 1634.1667,2074.7721 Q1632.5716,2074.7721 1631.237,2075.4557 Q1629.9349,2076.1393 1628.8932,2077.7018 Q1627.8841,2079.2643 1627.8841,2081.4128 L1627.8841,2083.6914 Q1627.8841,2086.263 1629.7396,2087.9883 Q1631.5951,2089.681 1634.9154,2089.681 Q1636.8685,2089.681 1638.2357,2089.1602 Q1639.0495,2088.8346 1639.9284,2087.9232 Q1640.4818,2087.3698 1640.7747,2087.207 Q1641.1003,2087.0443 1641.5234,2087.0443 Q1642.207,2087.0443 1642.7279,2087.5977 Q1643.2813,2088.1185 1643.2813,2088.8346 Q1643.2813,2089.5508 1642.5651,2090.3971 Q1641.5234,2091.6016 1639.8633,2092.2852 Q1637.6172,2093.2292 1634.9154,2093.2292 Q1631.7578,2093.2292 1629.2513,2091.9271 Q1627.2005,2090.8854 1625.7682,2088.6719 Q1624.3359,2086.4258 1624.3359,2083.7565 L1624.3359,2081.3477 Q1624.3359,2078.5807 1625.6055,2076.2044 Q1626.9076,2073.7956 1629.1862,2072.526 Q1631.4648,2071.224 1634.0365,2071.224 Q1635.5664,2071.224 1636.901,2071.582 Q1638.2682,2071.9076 1639.4076,2072.6563 Z " fill="#000000"/><text fill="#000000" font-family="sans-serif" font-size="25" lengthAdjust="spacing" textLength="97.9167" x="1664.2708" y="2091.4795">Location</text><line style="stroke:#A80036;stroke-width:3.125;" x1="1597.9167" x2="1772.9167" y1="2114.5833" y2="2114.5833"/><text fill="#000000" font-family="sans-serif" font-size="22.9167" lengthAdjust="spacing" textLength="106.25" x="1608.3333" y="2146.7061">location_id</text><text fill="#000000" font-family="sans-serif" font-size="22.9167" lengthAdjust="spacing" textLength="143.75" x="1608.3333" y="2175.531">location_name</text><text fill="#000000" font-family="sans-serif" font-size="22.9167" lengthAdjust="spacing" textLength="154.1667" x="1608.3333" y="2204.3559">location_parent</text><line style="stroke:#A80036;stroke-width:3.125;" x1="1597.9167" x2="1772.9167" y1="2217.7246" y2="2217.7246"/><!--MD5=[4e04385ca60fdcaf0b13904797e72777]
class Trip_Buss--><rect codeLine="77" fill="#FEFECE" filter="url(#f8vf1buvbbkup)" height="503.5482" id="Trip_Buss" style="stroke:#A80036;stroke-width:3.125;" width="229.1667" x="418.75" y="958.3333"/><ellipse cx="469.6875" cy="991.6667" fill="#ADD1B2" rx="22.9167" ry="22.9167" style="stroke:#A80036;stroke-width:2.0833333333333335;"/><path d="M475.4492,983.0729 Q475.7747,982.6172 476.1654,982.3893 Q476.556,982.1615 477.0117,982.1615 Q477.793,982.1615 478.2813,982.7148 Q478.7695,983.2357 478.7695,984.5052 L478.7695,987.5326 Q478.7695,988.8021 478.2813,989.3555 Q477.793,989.9089 477.0117,989.9089 Q476.2956,989.9089 475.8724,989.4857 Q475.4492,989.0951 475.2214,988.0208 Q475.1237,987.2721 474.7331,986.8815 Q474.0495,986.1003 472.7799,985.6445 Q471.5104,985.1888 470.2083,985.1888 Q468.6133,985.1888 467.2786,985.8724 Q465.9766,986.556 464.9349,988.1185 Q463.9258,989.681 463.9258,991.8294 L463.9258,994.1081 Q463.9258,996.6797 465.7813,998.4049 Q467.6367,1000.0977 470.957,1000.0977 Q472.9102,1000.0977 474.2773,999.5768 Q475.0911,999.2513 475.9701,998.3398 Q476.5234,997.7865 476.8164,997.6237 Q477.1419,997.4609 477.5651,997.4609 Q478.2487,997.4609 478.7695,998.0143 Q479.3229,998.5352 479.3229,999.2513 Q479.3229,999.9674 478.6068,1000.8138 Q477.5651,1002.0182 475.9049,1002.7018 Q473.6589,1003.6458 470.957,1003.6458 Q467.7995,1003.6458 465.293,1002.3438 Q463.2422,1001.3021 461.8099,999.0885 Q460.3776,996.8424 460.3776,994.1732 L460.3776,991.7643 Q460.3776,988.9974 461.6471,986.6211 Q462.9492,984.2122 465.2279,982.9427 Q467.5065,981.6406 470.0781,981.6406 Q471.6081,981.6406 472.9427,981.9987 Q474.3099,982.3242 475.4492,983.0729 Z " fill="#000000"/><text fill="#000000" font-family="sans-serif" font-size="25" lengthAdjust="spacing" textLength="118.75" x="503.2292" y="1001.8962">Trip_Buss</text><line style="stroke:#A80036;stroke-width:3.125;" x1="420.8333" x2="645.8333" y1="1025" y2="1025"/><text fill="#000000" font-family="sans-serif" font-size="22.9167" lengthAdjust="spacing" textLength="122.9167" x="431.25" y="1057.1228">trip_buss_id</text><text fill="#000000" font-family="sans-serif" font-size="22.9167" lengthAdjust="spacing" textLength="79.1667" x="431.25" y="1085.9477">buss_id</text><text fill="#000000" font-family="sans-serif" font-size="22.9167" lengthAdjust="spacing" textLength="118.75" x="431.25" y="1114.7725">launch_time</text><text fill="#000000" font-family="sans-serif" font-size="22.9167" lengthAdjust="spacing" textLength="135.4167" x="431.25" y="1143.5974">start_location</text><text fill="#000000" font-family="sans-serif" font-size="22.9167" lengthAdjust="spacing" textLength="127.0833" x="431.25" y="1172.4223">end_location</text><text fill="#000000" font-family="sans-serif" font-size="22.9167" lengthAdjust="spacing" textLength="204.1667" x="431.25" y="1201.2472">effective_date_from</text><text fill="#000000" font-family="sans-serif" font-size="22.9167" lengthAdjust="spacing" textLength="50" x="431.25" y="1230.072">price</text><text fill="#000000" font-family="sans-serif" font-size="22.9167" lengthAdjust="spacing" textLength="75" x="431.25" y="1258.8969">sunday</text><text fill="#000000" font-family="sans-serif" font-size="22.9167" lengthAdjust="spacing" textLength="79.1667" x="431.25" y="1287.7218">monday</text><text fill="#000000" font-family="sans-serif" font-size="22.9167" lengthAdjust="spacing" textLength="81.25" x="431.25" y="1316.5466">tuesday</text><text fill="#000000" font-family="sans-serif" font-size="22.9167" lengthAdjust="spacing" textLength="120.8333" x="431.25" y="1345.3715">wednesday</text><text fill="#000000" font-family="sans-serif" font-size="22.9167" lengthAdjust="spacing" textLength="89.5833" x="431.25" y="1374.1964">thursday</text><text fill="#000000" font-family="sans-serif" font-size="22.9167" lengthAdjust="spacing" textLength="58.3333" x="431.25" y="1403.0212">friday</text><text fill="#000000" font-family="sans-serif" font-size="22.9167" lengthAdjust="spacing" textLength="89.5833" x="431.25" y="1431.8461">saturday</text><line style="stroke:#A80036;stroke-width:3.125;" x1="420.8333" x2="645.8333" y1="1445.2148" y2="1445.2148"/><!--MD5=[b6257e7b5ccb2d54ddc5393ce6fa1cd4]
class Trip_Stop--><rect codeLine="94" fill="#FEFECE" filter="url(#f8vf1buvbbkup)" height="157.6497" id="Trip_Stop" style="stroke:#A80036;stroke-width:3.125;" width="177.0833" x="83.3333" y="1131.25"/><ellipse cx="114.5833" cy="1164.5833" fill="#ADD1B2" rx="22.9167" ry="22.9167" style="stroke:#A80036;stroke-width:2.0833333333333335;"/><path d="M120.3451,1155.9896 Q120.6706,1155.5339 121.0612,1155.306 Q121.4518,1155.0781 121.9076,1155.0781 Q122.6888,1155.0781 123.1771,1155.6315 Q123.6654,1156.1523 123.6654,1157.4219 L123.6654,1160.4492 Q123.6654,1161.7188 123.1771,1162.2721 Q122.6888,1162.8255 121.9076,1162.8255 Q121.1914,1162.8255 120.7682,1162.4023 Q120.3451,1162.0117 120.1172,1160.9375 Q120.0195,1160.1888 119.6289,1159.7982 Q118.9453,1159.0169 117.6758,1158.5612 Q116.4063,1158.1055 115.1042,1158.1055 Q113.5091,1158.1055 112.1745,1158.7891 Q110.8724,1159.4727 109.8307,1161.0352 Q108.8216,1162.5977 108.8216,1164.7461 L108.8216,1167.0247 Q108.8216,1169.5964 110.6771,1171.3216 Q112.5326,1173.0143 115.8529,1173.0143 Q117.806,1173.0143 119.1732,1172.4935 Q119.987,1172.168 120.8659,1171.2565 Q121.4193,1170.7031 121.7122,1170.5404 Q122.0378,1170.3776 122.4609,1170.3776 Q123.1445,1170.3776 123.6654,1170.931 Q124.2188,1171.4518 124.2188,1172.168 Q124.2188,1172.8841 123.5026,1173.7305 Q122.4609,1174.9349 120.8008,1175.6185 Q118.5547,1176.5625 115.8529,1176.5625 Q112.6953,1176.5625 110.1888,1175.2604 Q108.138,1174.2188 106.7057,1172.0052 Q105.2734,1169.7591 105.2734,1167.0898 L105.2734,1164.681 Q105.2734,1161.9141 106.543,1159.5378 Q107.8451,1157.1289 110.1237,1155.8594 Q112.4023,1154.5573 114.974,1154.5573 Q116.5039,1154.5573 117.8385,1154.9154 Q119.2057,1155.2409 120.3451,1155.9896 Z " fill="#000000"/><text fill="#000000" font-family="sans-serif" font-size="25" lengthAdjust="spacing" textLength="110.4167" x="143.75" y="1174.8128">Trip_Stop</text><line style="stroke:#A80036;stroke-width:3.125;" x1="85.4167" x2="258.3333" y1="1197.9167" y2="1197.9167"/><text fill="#000000" font-family="sans-serif" font-size="22.9167" lengthAdjust="spacing" textLength="122.9167" x="95.8333" y="1230.0395">trip_buss_id</text><text fill="#000000" font-family="sans-serif" font-size="22.9167" lengthAdjust="spacing" textLength="72.9167" x="95.8333" y="1258.8643">stop_id</text><line style="stroke:#A80036;stroke-width:3.125;" x1="85.4167" x2="258.3333" y1="1272.2331" y2="1272.2331"/><!--MD5=[18f5b4ccae6e62f3670d3aa352beb4cd]
class Trip--><rect codeLine="101" fill="#FEFECE" filter="url(#f8vf1buvbbkup)" height="301.7741" id="Trip" style="stroke:#A80036;stroke-width:3.125;" width="160.4167" x="846.875" y="1879.1667"/><ellipse cx="900.625" cy="1912.5" fill="#ADD1B2" rx="22.9167" ry="22.9167" style="stroke:#A80036;stroke-width:2.0833333333333335;"/><path d="M906.3867,1903.9063 Q906.7122,1903.4505 907.1029,1903.2227 Q907.4935,1902.9948 907.9492,1902.9948 Q908.7305,1902.9948 909.2188,1903.5482 Q909.707,1904.069 909.707,1905.3385 L909.707,1908.3659 Q909.707,1909.6354 909.2188,1910.1888 Q908.7305,1910.7422 907.9492,1910.7422 Q907.2331,1910.7422 906.8099,1910.319 Q906.3867,1909.9284 906.1589,1908.8542 Q906.0612,1908.1055 905.6706,1907.7148 Q904.987,1906.9336 903.7174,1906.4779 Q902.4479,1906.0221 901.1458,1906.0221 Q899.5508,1906.0221 898.2161,1906.7057 Q896.9141,1907.3893 895.8724,1908.9518 Q894.8633,1910.5143 894.8633,1912.6628 L894.8633,1914.9414 Q894.8633,1917.513 896.7188,1919.2383 Q898.5742,1920.931 901.8945,1920.931 Q903.8477,1920.931 905.2148,1920.4102 Q906.0286,1920.0846 906.9076,1919.1732 Q907.4609,1918.6198 907.7539,1918.457 Q908.0794,1918.2943 908.5026,1918.2943 Q909.1862,1918.2943 909.707,1918.8477 Q910.2604,1919.3685 910.2604,1920.0846 Q910.2604,1920.8008 909.5443,1921.6471 Q908.5026,1922.8516 906.8424,1923.5352 Q904.5964,1924.4792 901.8945,1924.4792 Q898.737,1924.4792 896.2305,1923.1771 Q894.1797,1922.1354 892.7474,1919.9219 Q891.3151,1917.6758 891.3151,1915.0065 L891.3151,1912.5977 Q891.3151,1909.8307 892.5846,1907.4544 Q893.8867,1905.0456 896.1654,1903.776 Q898.444,1902.474 901.0156,1902.474 Q902.5456,1902.474 903.8802,1902.832 Q905.2474,1903.1576 906.3867,1903.9063 Z " fill="#000000"/><text fill="#000000" font-family="sans-serif" font-size="25" lengthAdjust="spacing" textLength="43.75" x="934.7917" y="1922.7295">Trip</text><line style="stroke:#A80036;stroke-width:3.125;" x1="848.9583" x2="1005.2083" y1="1945.8333" y2="1945.8333"/><text fill="#000000" font-family="sans-serif" font-size="22.9167" lengthAdjust="spacing" textLength="60.4167" x="859.375" y="1977.9561">trip_id</text><text fill="#000000" font-family="sans-serif" font-size="22.9167" lengthAdjust="spacing" textLength="122.9167" x="859.375" y="2006.781">trip_buss_id</text><text fill="#000000" font-family="sans-serif" font-size="22.9167" lengthAdjust="spacing" textLength="50" x="859.375" y="2035.6059">price</text><text fill="#000000" font-family="sans-serif" font-size="22.9167" lengthAdjust="spacing" textLength="62.5" x="859.375" y="2064.4307">status</text><text fill="#000000" font-family="sans-serif" font-size="22.9167" lengthAdjust="spacing" textLength="97.9167" x="859.375" y="2093.2556">start_time</text><text fill="#000000" font-family="sans-serif" font-size="22.9167" lengthAdjust="spacing" textLength="135.4167" x="859.375" y="2122.0805">start_location</text><text fill="#000000" font-family="sans-serif" font-size="22.9167" lengthAdjust="spacing" textLength="127.0833" x="859.375" y="2150.9054">end_location</text><line style="stroke:#A80036;stroke-width:3.125;" x1="848.9583" x2="1005.2083" y1="2164.2741" y2="2164.2741"/><!--MD5=[37c49a705dfa55f8f3c61f2ecda23642]
class Trip_User--><rect codeLine="111" fill="#FEFECE" filter="url(#f8vf1buvbbkup)" height="272.9492" id="Trip_User" style="stroke:#A80036;stroke-width:3.125;" width="181.25" x="442.7083" y="1634.375"/><ellipse cx="473.9583" cy="1667.7083" fill="#ADD1B2" rx="22.9167" ry="22.9167" style="stroke:#A80036;stroke-width:2.0833333333333335;"/><path d="M479.7201,1659.1146 Q480.0456,1658.6589 480.4362,1658.431 Q480.8268,1658.2031 481.2826,1658.2031 Q482.0638,1658.2031 482.5521,1658.7565 Q483.0404,1659.2773 483.0404,1660.5469 L483.0404,1663.5742 Q483.0404,1664.8438 482.5521,1665.3971 Q482.0638,1665.9505 481.2826,1665.9505 Q480.5664,1665.9505 480.1432,1665.5273 Q479.7201,1665.1367 479.4922,1664.0625 Q479.3945,1663.3138 479.0039,1662.9232 Q478.3203,1662.1419 477.0508,1661.6862 Q475.7813,1661.2305 474.4792,1661.2305 Q472.8841,1661.2305 471.5495,1661.9141 Q470.2474,1662.5977 469.2057,1664.1602 Q468.1966,1665.7227 468.1966,1667.8711 L468.1966,1670.1497 Q468.1966,1672.7214 470.0521,1674.4466 Q471.9076,1676.1393 475.2279,1676.1393 Q477.181,1676.1393 478.5482,1675.6185 Q479.362,1675.293 480.2409,1674.3815 Q480.7943,1673.8281 481.0872,1673.6654 Q481.4128,1673.5026 481.8359,1673.5026 Q482.5195,1673.5026 483.0404,1674.056 Q483.5938,1674.5768 483.5938,1675.293 Q483.5938,1676.0091 482.8776,1676.8555 Q481.8359,1678.0599 480.1758,1678.7435 Q477.9297,1679.6875 475.2279,1679.6875 Q472.0703,1679.6875 469.5638,1678.3854 Q467.513,1677.3438 466.0807,1675.1302 Q464.6484,1672.8841 464.6484,1670.2148 L464.6484,1667.806 Q464.6484,1665.0391 465.918,1662.6628 Q467.2201,1660.2539 469.4987,1658.9844 Q471.7773,1657.6823 474.349,1657.6823 Q475.8789,1657.6823 477.2135,1658.0404 Q478.5807,1658.3659 479.7201,1659.1146 Z " fill="#000000"/><text fill="#000000" font-family="sans-serif" font-size="25" lengthAdjust="spacing" textLength="114.5833" x="503.125" y="1677.9378">Trip_User</text><line style="stroke:#A80036;stroke-width:3.125;" x1="444.7917" x2="621.875" y1="1701.0417" y2="1701.0417"/><text fill="#000000" font-family="sans-serif" font-size="22.9167" lengthAdjust="spacing" textLength="60.4167" x="455.2083" y="1733.1645">trip_id</text><text fill="#000000" font-family="sans-serif" font-size="22.9167" lengthAdjust="spacing" textLength="75" x="455.2083" y="1761.9893">user_id</text><text fill="#000000" font-family="sans-serif" font-size="22.9167" lengthAdjust="spacing" textLength="104.1667" x="455.2083" y="1790.8142">total_price</text><text fill="#000000" font-family="sans-serif" font-size="22.9167" lengthAdjust="spacing" textLength="62.5" x="455.2083" y="1819.6391">status</text><text fill="#000000" font-family="sans-serif" font-size="22.9167" lengthAdjust="spacing" textLength="137.5" x="455.2083" y="1848.4639">confirmed_by</text><text fill="#000000" font-family="sans-serif" font-size="22.9167" lengthAdjust="spacing" textLength="156.25" x="455.2083" y="1877.2888">confirmed_date</text><line style="stroke:#A80036;stroke-width:3.125;" x1="444.7917" x2="621.875" y1="1890.6576" y2="1890.6576"/><!--MD5=[8cf833b87ba994e5b062b58507e97799]
class Trip_Seat--><rect codeLine="120" fill="#FEFECE" filter="url(#f8vf1buvbbkup)" height="186.4746" id="Trip_Seat" style="stroke:#A80036;stroke-width:3.125;" width="177.0833" x="444.7917" y="1992.7083"/><ellipse cx="476.0417" cy="2026.0417" fill="#ADD1B2" rx="22.9167" ry="22.9167" style="stroke:#A80036;stroke-width:2.0833333333333335;"/><path d="M481.8034,2017.4479 Q482.1289,2016.9922 482.5195,2016.7643 Q482.9102,2016.5365 483.3659,2016.5365 Q484.1471,2016.5365 484.6354,2017.0898 Q485.1237,2017.6107 485.1237,2018.8802 L485.1237,2021.9076 Q485.1237,2023.1771 484.6354,2023.7305 Q484.1471,2024.2839 483.3659,2024.2839 Q482.6497,2024.2839 482.2266,2023.8607 Q481.8034,2023.4701 481.5755,2022.3958 Q481.4779,2021.6471 481.0872,2021.2565 Q480.4036,2020.4753 479.1341,2020.0195 Q477.8646,2019.5638 476.5625,2019.5638 Q474.9674,2019.5638 473.6328,2020.2474 Q472.3307,2020.931 471.2891,2022.4935 Q470.2799,2024.056 470.2799,2026.2044 L470.2799,2028.4831 Q470.2799,2031.0547 472.1354,2032.7799 Q473.9909,2034.4727 477.3112,2034.4727 Q479.2643,2034.4727 480.6315,2033.9518 Q481.4453,2033.6263 482.3242,2032.7148 Q482.8776,2032.1615 483.1706,2031.9987 Q483.4961,2031.8359 483.9193,2031.8359 Q484.6029,2031.8359 485.1237,2032.3893 Q485.6771,2032.9102 485.6771,2033.6263 Q485.6771,2034.3424 484.9609,2035.1888 Q483.9193,2036.3932 482.2591,2037.0768 Q480.013,2038.0208 477.3112,2038.0208 Q474.1536,2038.0208 471.6471,2036.7188 Q469.5964,2035.6771 468.1641,2033.4635 Q466.7318,2031.2174 466.7318,2028.5482 L466.7318,2026.1393 Q466.7318,2023.3724 468.0013,2020.9961 Q469.3034,2018.5872 471.582,2017.3177 Q473.8607,2016.0156 476.4323,2016.0156 Q477.9622,2016.0156 479.2969,2016.3737 Q480.6641,2016.6992 481.8034,2017.4479 Z " fill="#000000"/><text fill="#000000" font-family="sans-serif" font-size="25" lengthAdjust="spacing" textLength="110.4167" x="505.2083" y="2036.2712">Trip_Seat</text><line style="stroke:#A80036;stroke-width:3.125;" x1="446.875" x2="619.7917" y1="2059.375" y2="2059.375"/><text fill="#000000" font-family="sans-serif" font-size="22.9167" lengthAdjust="spacing" textLength="60.4167" x="457.2917" y="2091.4978">trip_id</text><text fill="#000000" font-family="sans-serif" font-size="22.9167" lengthAdjust="spacing" textLength="75" x="457.2917" y="2120.3227">user_id</text><text fill="#000000" font-family="sans-serif" font-size="22.9167" lengthAdjust="spacing" textLength="72.9167" x="457.2917" y="2149.1475">seat_id</text><line style="stroke:#A80036;stroke-width:3.125;" x1="446.875" x2="619.7917" y1="2162.5163" y2="2162.5163"/><!--MD5=[3fd616f346a44cd59a91eb10b19e157c]
class User--><rect codeLine="5" fill="#FEFECE" filter="url(#f8vf1buvbbkup)" height="244.1243" id="User" style="stroke:#A80036;stroke-width:3.125;" width="129.1667" x="1257.2917" y="612.5"/><ellipse cx="1291.3542" cy="645.8333" fill="#ADD1B2" rx="22.9167" ry="22.9167" style="stroke:#A80036;stroke-width:2.0833333333333335;"/><path d="M1297.1159,637.2396 Q1297.4414,636.7839 1297.832,636.556 Q1298.2227,636.3281 1298.6784,636.3281 Q1299.4596,636.3281 1299.9479,636.8815 Q1300.4362,637.4023 1300.4362,638.6719 L1300.4362,641.6992 Q1300.4362,642.9688 1299.9479,643.5221 Q1299.4596,644.0755 1298.6784,644.0755 Q1297.9622,644.0755 1297.5391,643.6523 Q1297.1159,643.2617 1296.888,642.1875 Q1296.7904,641.4388 1296.3997,641.0482 Q1295.7161,640.2669 1294.4466,639.8112 Q1293.1771,639.3555 1291.875,639.3555 Q1290.2799,639.3555 1288.9453,640.0391 Q1287.6432,640.7227 1286.6016,642.2852 Q1285.5924,643.8477 1285.5924,645.9961 L1285.5924,648.2747 Q1285.5924,650.8464 1287.4479,652.5716 Q1289.3034,654.2643 1292.6237,654.2643 Q1294.5768,654.2643 1295.944,653.7435 Q1296.7578,653.418 1297.6367,652.5065 Q1298.1901,651.9531 1298.4831,651.7904 Q1298.8086,651.6276 1299.2318,651.6276 Q1299.9154,651.6276 1300.4362,652.181 Q1300.9896,652.7018 1300.9896,653.418 Q1300.9896,654.1341 1300.2734,654.9805 Q1299.2318,656.1849 1297.5716,656.8685 Q1295.3255,657.8125 1292.6237,657.8125 Q1289.4661,657.8125 1286.9596,656.5104 Q1284.9089,655.4688 1283.4766,653.2552 Q1282.0443,651.0091 1282.0443,648.3398 L1282.0443,645.931 Q1282.0443,643.1641 1283.3138,640.7878 Q1284.6159,638.3789 1286.8945,637.1094 Q1289.1732,635.8073 1291.7448,635.8073 Q1293.2747,635.8073 1294.6094,636.1654 Q1295.9766,636.4909 1297.1159,637.2396 Z " fill="#000000"/><text fill="#000000" font-family="sans-serif" font-size="25" lengthAdjust="spacing" textLength="56.25" x="1321.1458" y="656.0628">User</text><line style="stroke:#A80036;stroke-width:3.125;" x1="1259.375" x2="1384.375" y1="679.1667" y2="679.1667"/><text fill="#000000" font-family="sans-serif" font-size="22.9167" lengthAdjust="spacing" textLength="75" x="1269.7917" y="711.2895">user_id</text><text fill="#000000" font-family="sans-serif" font-size="22.9167" lengthAdjust="spacing" textLength="95.8333" x="1269.7917" y="740.1143">full_name</text><text fill="#000000" font-family="sans-serif" font-size="22.9167" lengthAdjust="spacing" textLength="50" x="1269.7917" y="768.9392">email</text><text fill="#000000" font-family="sans-serif" font-size="22.9167" lengthAdjust="spacing" textLength="62.5" x="1269.7917" y="797.7641">phone</text><text fill="#000000" font-family="sans-serif" font-size="22.9167" lengthAdjust="spacing" textLength="104.1667" x="1269.7917" y="826.5889">password</text><line style="stroke:#A80036;stroke-width:3.125;" x1="1259.375" x2="1384.375" y1="839.9577" y2="839.9577"/><!--MD5=[dfc32ab5f24f9443ab23d25a63af4d89]
link Trip_Seat to Trip--><path codeLine="129" d="M625,2081.25 C731.8958,2081.25 735.1667,1974.1458 835.1875,1967.0208 " fill="none" id="Trip_Seat-to-Trip" style="stroke:#A80036;stroke-width:2.0833333333333335;"/><polygon fill="#A80036" points="845.8333,1966.6667,826.8088,1958.9807,835.4228,1967.0236,827.3799,1975.6376,845.8333,1966.6667" style="stroke:#A80036;stroke-width:2.0833333333333335;"/><!--MD5=[91df5c6fe41a1a42b6806ec0711eca3c]
link Trip_Seat to User--><path codeLine="130" d="M625,2110.4167 C707.4792,2110.4167 692.7083,2027.4167 714.5833,1947.9167 C736.7083,1867.5208 695.2292,1268.5 739.5833,1197.9167 C828.8125,1055.875 953.625,1139.7708 1073.9583,1022.9167 C1189.25,910.9375 1095.25,709.7083 1244.0625,700.3333 " fill="none" id="Trip_Seat-to-User" style="stroke:#A80036;stroke-width:2.0833333333333335;"/><polygon fill="#A80036" points="1255.2083,700,1236.2058,692.2598,1244.7968,700.3272,1236.7294,708.9182,1255.2083,700" style="stroke:#A80036;stroke-width:2.0833333333333335;"/><!--MD5=[b05f2d331e59ef26c5d8b77bc3d1666b]
link Trip_Seat to Seat--><path codeLine="131" d="M625,2137.5 C718.1875,2137.5 691,2038.0625 714.5833,1947.9167 C754.7292,1794.3542 703.8125,1746.2917 739.5833,1591.6667 C767.125,1472.625 722.7083,1337.3333 835.2083,1329.5208 " fill="none" id="Trip_Seat-to-Seat" style="stroke:#A80036;stroke-width:2.0833333333333335;"/><polygon fill="#A80036" points="845.8333,1329.1667,826.8088,1321.4807,835.4228,1329.5236,827.3799,1338.1376,845.8333,1329.1667" style="stroke:#A80036;stroke-width:2.0833333333333335;"/><!--MD5=[15456066c1e42ba062d2654fec077d0c]
link Trip_User to User--><path codeLine="133" d="M627.0833,1750 C744.8125,1750 691.875,1615.5 714.5833,1500 C725,1447 711.2083,1060.5208 739.5833,1014.5833 C829.3542,869.2292 929.1875,915.7083 1073.9583,825 C1153.7917,774.9583 1157.2083,705.375 1244.7083,700.2917 " fill="none" id="Trip_User-to-User" style="stroke:#A80036;stroke-width:2.0833333333333335;"/><polygon fill="#A80036" points="1255.2083,700,1236.228,692.2056,1244.7959,700.2975,1236.704,708.8654,1255.2083,700" style="stroke:#A80036;stroke-width:2.0833333333333335;"/><!--MD5=[7b227110d3ed0b6a4dc3b4cfecaa7ee0]
link Trip_User to Trip--><path codeLine="134" d="M627.0833,1722.9167 C768.9583,1722.9167 703.8125,1954.4375 835.1667,1966.1875 " fill="none" id="Trip_User-to-Trip" style="stroke:#A80036;stroke-width:2.0833333333333335;"/><polygon fill="#A80036" points="845.8333,1966.6667,827.4573,1957.5381,835.4262,1966.2206,826.7437,1974.1895,845.8333,1966.6667" style="stroke:#A80036;stroke-width:2.0833333333333335;"/><!--MD5=[4191e34edfecdc41c38cb8381ec17982]
link Seat to Buss_Type--><path codeLine="136" d="M1010.4167,1358.3333 C1101.7083,1358.3333 1125.0833,1329.4583 1211.0625,1327.2083 " fill="none" id="Seat-to-Buss_Type" style="stroke:#A80036;stroke-width:2.0833333333333335;"/><polygon fill="#A80036" points="1221.875,1327.0833,1203.031,1318.9648,1211.459,1327.2024,1203.2215,1335.6304,1221.875,1327.0833" style="stroke:#A80036;stroke-width:2.0833333333333335;"/><!--MD5=[8346e8eef9aa07bed8d418cb278bb768]
link Trip to Stop_Location--><path codeLine="138" d="M1010.4167,2110.4167 C1094.0625,2110.4167 1115.9583,2135.2083 1194.3125,2137.3542 " fill="none" id="Trip-to-Stop_Location" style="stroke:#A80036;stroke-width:2.0833333333333335;"/><polygon fill="#A80036" points="1205.2083,2137.5,1186.5548,2128.9529,1194.7923,2137.381,1186.3643,2145.6185,1205.2083,2137.5" style="stroke:#A80036;stroke-width:2.0833333333333335;"/><!--MD5=[8346e8eef9aa07bed8d418cb278bb768]
link Trip to Stop_Location--><path codeLine="139" d="M1010.4167,2137.5 C1093.2708,2137.5 1116.6458,2137.5 1194.3958,2137.5 " fill="none" id="Trip-to-Stop_Location-1" style="stroke:#A80036;stroke-width:2.0833333333333335;"/><polygon fill="#A80036" points="1205.2083,2137.5,1186.4583,2129.1667,1194.7917,2137.5,1186.4583,2145.8333,1205.2083,2137.5" style="stroke:#A80036;stroke-width:2.0833333333333335;"/><!--MD5=[a7f6da2bb957d465bd72a80ad47c51d4]
link Company_Staff to User--><path codeLine="141" d="M1050,214.5833 C1163.4583,214.5833 1139.7708,670.125 1244.6458,698.6042 " fill="none" id="Company_Staff-to-User" style="stroke:#A80036;stroke-width:2.0833333333333335;"/><polygon fill="#A80036" points="1255.2083,700,1237.7161,689.2749,1244.882,698.6311,1235.5258,705.797,1255.2083,700" style="stroke:#A80036;stroke-width:2.0833333333333335;"/><!--MD5=[448087a97bae971630ca2a942f9031a0]
link Company_Staff to Company--><path codeLine="142" d="M1050,185.4167 C1125.4583,185.4167 1146.9583,183.5208 1217.375,183.3333 " fill="none" id="Company_Staff-to-Company" style="stroke:#A80036;stroke-width:2.0833333333333335;"/><polygon fill="#A80036" points="1228.125,183.3333,1209.375,175,1217.7083,183.3333,1209.375,191.6667,1228.125,183.3333" style="stroke:#A80036;stroke-width:2.0833333333333335;"/><!--MD5=[8dffb39089c92fc54350cc17a39357c2]
link Buss to Company--><path codeLine="144" d="M1010.4167,660.4167 C1239.8542,660.4167 1002.7083,198.125 1217.5417,183.6667 " fill="none" id="Buss-to-Company" style="stroke:#A80036;stroke-width:2.0833333333333335;"/><polygon fill="#A80036" points="1228.125,183.3333,1209.1225,175.5931,1217.7135,183.6606,1209.646,192.2515,1228.125,183.3333" style="stroke:#A80036;stroke-width:2.0833333333333335;"/><!--MD5=[aa22914cd653d550a779d1056d0c8b17]
link Buss to Buss_Type--><path codeLine="145" d="M1010.4167,689.5833 C1305.1458,689.5833 933.0417,1311 1210.8333,1326.7708 " fill="none" id="Buss-to-Buss_Type" style="stroke:#A80036;stroke-width:2.0833333333333335;"/><polygon fill="#A80036" points="1221.875,1327.0833,1203.3706,1318.2179,1211.4626,1326.7858,1202.8947,1334.8778,1221.875,1327.0833" style="stroke:#A80036;stroke-width:2.0833333333333335;"/><!--MD5=[86faa3ef32e8df3b520bbc649aca2749]
link Buss_Staff to User--><path codeLine="147" d="M631.25,635.4167 C708.3333,635.4167 670.125,533.375 739.5833,500 C873.5208,435.6042 938.1042,439.7708 1073.9583,500 C1180.2083,547.0833 1138.125,690.625 1244.4375,699.5625 " fill="none" id="Buss_Staff-to-User" style="stroke:#A80036;stroke-width:2.0833333333333335;"/><polygon fill="#A80036" points="1255.2083,700,1236.8064,690.9239,1244.8,699.5837,1236.1402,707.5773,1255.2083,700" style="stroke:#A80036;stroke-width:2.0833333333333335;"/><!--MD5=[9f0558db788571a3158bbca0944bc2fe]
link Buss_Staff to Buss--><path codeLine="148" d="M631.25,664.5833 C724.0417,664.5833 747.7292,635.6042 835.3958,633.4583 " fill="none" id="Buss_Staff-to-Buss" style="stroke:#A80036;stroke-width:2.0833333333333335;"/><polygon fill="#A80036" points="845.8333,633.3333,826.9893,625.2148,835.4173,633.4524,827.1798,641.8804,845.8333,633.3333" style="stroke:#A80036;stroke-width:2.0833333333333335;"/><!--MD5=[4dc64d7f5cc746211e3354aef1317bdf]
link Trip_Buss to Buss--><path codeLine="150" d="M650,1072.9167 C753.3542,1072.9167 697.6042,952.75 739.5833,858.3333 C783.0208,760.625 738.4167,641.5208 835.3333,633.7292 " fill="none" id="Trip_Buss-to-Buss" style="stroke:#A80036;stroke-width:2.0833333333333335;"/><polygon fill="#A80036" points="845.8333,633.3333,826.7869,625.7017,835.4238,633.72,827.4056,642.3569,845.8333,633.3333" style="stroke:#A80036;stroke-width:2.0833333333333335;"/><!--MD5=[3a9b51847be05c552e2f8801c3dbcbbd]
link Stop_Location to Location--><path codeLine="151" d="M1440.625,2166.6667 C1506.2917,2166.6667 1522.5625,2138.7292 1582.8333,2135.6667 " fill="none" id="Stop_Location-to-Location" style="stroke:#A80036;stroke-width:2.0833333333333335;"/><polygon fill="#A80036" points="1593.75,2135.4167,1574.8145,2127.514,1583.3361,2135.6547,1575.1953,2144.1763,1593.75,2135.4167" style="stroke:#A80036;stroke-width:2.0833333333333335;"/><!--MD5=[29df13330de47d67c0104314f3a8797c]
link Trip_Stop to Trip_Buss--><path codeLine="153" d="M263.5417,1220.8333 C363.0625,1220.8333 317.0833,1058.5625 405.7917,1046.5208 " fill="none" id="Trip_Stop-to-Trip_Buss" style="stroke:#A80036;stroke-width:2.0833333333333335;"/><polygon fill="#A80036" points="416.6667,1045.8333,397.4308,1038.6927,406.2705,1046.4868,398.4764,1055.3265,416.6667,1045.8333" style="stroke:#A80036;stroke-width:2.0833333333333335;"/><!--MD5=[2a5aafebb87021d75c36b99a53d999a5]
link Trip_Stop to Stop_Location--><path codeLine="154" d="M263.5417,1247.9167 C480.1458,1247.9167 209.4583,2072.1667 370.8333,2216.6667 C603.6458,2425.1042 772.8958,2300.4167 1073.9583,2216.6667 C1136,2199.3958 1137.1458,2144.0208 1194.6458,2138.0208 " fill="none" id="Trip_Stop-to-Stop_Location" style="stroke:#A80036;stroke-width:2.0833333333333335;"/><polygon fill="#A80036" points="1205.2083,2137.5,1186.0751,2130.0888,1194.804,2138.0068,1186.886,2146.7357,1205.2083,2137.5" style="stroke:#A80036;stroke-width:2.0833333333333335;"/><!--MD5=[4d636618baba5e3330b2c0cae40132ef]
@startuml
skinparam dpi 200

left to right direction

class User {
	user_id
	full_name
	email
	phone
	password
}


package company.setup {
	class Company {
		company_id
		company_name
		company_desc
		is_lock
	}


	class Company_Staff {
		company_id
		user_id
		staff_role
		is_lock
	}
}

package buss.operation {
	class Buss {
		buss_id
		company_id
		buss_type_id
		buss_name
		is_lock
	}

	class Buss_Staff {
		user_id
		buss_id
		is_lock
	}
}


package buss.config {
	class Buss_Type {
		buss_type_id
		name
		description
	}

	class Seat {
		seat_id
		buss_type_id
		name
	}
}

package position {
	class Stop_Location {
		stop_id
		location_id
		buss_stop_desc
	}

	class Location #pink {
		location_id
		location_name
		location_parent
	}
}

package trip.setup {
	class Trip_Buss {
		trip_buss_id
		buss_id
		launch_time
		start_location
		end_location
		effective_date_from
		price
		sunday
		monday
		tuesday
		wednesday
		thursday
		friday
		saturday
	}

	class Trip_Stop {
		trip_buss_id
		stop_id
	}
}

package trip.operation {
	class Trip {
		trip_id
		trip_buss_id
		price
		status
		start_time
		start_location
		end_location
	}

	class Trip_User {
		trip_id
		user_id
		total_price
		status
		confirmed_by
		confirmed_date
	}

	class Trip_Seat {
		trip_id
		user_id
		seat_id
	}
}



Trip_Seat::trip_id - -> Trip::trip_id
Trip_Seat::user_id - -> User::user_id
Trip_Seat::seat_id - -> Seat::seat_id

Trip_User::user_id - -> User::user_id
Trip_User::trip_id - -> Trip::trip_id

Seat::buss_type_id - -> Buss_Type::buss_type_id

Trip::start_location - -> Stop_Location::stop_id
Trip::end_location - -> Stop_Location::stop_id

Company_Staff::user_id - -> User::user_id
Company_Staff::company_id - -> Company::company_id

Buss::company_id - -> Company::company_id
Buss::buss_type_id - -> Buss_Type::buss_type_id

Buss_Staff::user_id - -> User::user_id
Buss_Staff::buss_id - -> Buss::buss_id

Trip_Buss::buss_id - -> Buss::buss_id
Stop_Location::location_id - -> Location::location_id

Trip_Stop::trip_buss_id - -> Trip_Buss::trip_buss_id
Trip_Stop::stop_id - -> Stop_Location::stop_id



@enduml

PlantUML version 1.2021.2(Sun Mar 07 18:10:27 ICT 2021)
(GPL source distribution)
Java Runtime: OpenJDK Runtime Environment
JVM: Eclipse OpenJ9 VM
Default Encoding: UTF-8
Language: en
Country: US
--></g></svg>