<?xml version="1.0" encoding="UTF-8" standalone="no"?><svg xmlns="http://www.w3.org/2000/svg" xmlns:xlink="http://www.w3.org/1999/xlink" contentScriptType="application/ecmascript" contentStyleType="text/css" height="1702.0833px" preserveAspectRatio="none" style="width:1293px;height:1702px;" version="1.1" viewBox="0 0 1293 1702" width="1293.75px" zoomAndPan="magnify"><defs><filter height="300%" id="fs3er7hb419c2" width="300%" x="-1" y="-1"><feGaussianBlur result="blurOut" stdDeviation="4.166666666666667"/><feColorMatrix in="blurOut" result="blurOut2" type="matrix" values="0 0 0 0 0 0 0 0 0 0 0 0 0 0 0 0 0 0 .4 0"/><feOffset dx="8.333333333333334" dy="8.333333333333334" in="blurOut2" result="blurOut3"/><feBlend in="SourceGraphic" in2="blurOut3" mode="normal"/></filter></defs><g><polygon fill="#90EE90" filter="url(#fs3er7hb419c2)" points="62.5,83.5327,431.25,83.5327,452.0833,120.0887,431.25,156.6447,62.5,156.6447" style="stroke:#A80036;stroke-width:3.125;"/><text fill="#000000" font-family="sans-serif" font-size="25" lengthAdjust="spacing" textLength="52.0833" x="83.3333" y="130.3182">from</text><text fill="#000000" font-family="sans-serif" font-size="25" font-weight="bold" lengthAdjust="spacing" textLength="216.6667" x="141.6667" y="130.3182">List of Buss Types</text><text fill="#000000" font-family="sans-serif" font-size="25" lengthAdjust="spacing" textLength="45.8333" x="364.5833" y="130.3182">flow</text><rect fill="#FEFECE" filter="url(#fs3er7hb419c2)" height="73.112" rx="26.0417" ry="26.0417" style="stroke:#A80036;stroke-width:3.125;" width="314.5833" x="89.5833" y="198.3114"/><text fill="#000000" font-family="sans-serif" font-size="25" lengthAdjust="spacing" textLength="85.4167" x="110.4167" y="245.0968">click on</text><text fill="#FF0000" font-family="sans-serif" font-size="25" font-weight="bold" lengthAdjust="spacing" textLength="104.1667" x="202.0833" y="245.0968">Add New</text><text fill="#000000" font-family="sans-serif" font-size="25" lengthAdjust="spacing" textLength="70.8333" x="312.5" y="245.0968">button</text><rect fill="#FEFECE" filter="url(#fs3er7hb419c2)" height="198.8932" rx="26.0417" ry="26.0417" style="stroke:#A80036;stroke-width:3.125;" width="320.8333" x="86.4583" y="427.8687"/><text fill="#000000" font-family="sans-serif" font-size="25" lengthAdjust="spacing" textLength="135.4167" x="107.2917" y="474.6541">input name,</text><text fill="#000000" font-family="sans-serif" font-size="25" lengthAdjust="spacing" textLength="133.3333" x="107.2917" y="506.0994">description,</text><text fill="#000000" font-family="sans-serif" font-size="25" lengthAdjust="spacing" textLength="193.75" x="107.2917" y="537.5448">number of seats,</text><text fill="#000000" font-family="sans-serif" font-size="25" lengthAdjust="spacing" textLength="279.1667" x="107.2917" y="568.9901">buss type template path,</text><text fill="#000000" font-family="sans-serif" font-size="25" lengthAdjust="spacing" textLength="189.5833" x="107.2917" y="600.4354">buss type image</text><rect fill="#FEFECE" filter="url(#fs3er7hb419c2)" height="73.112" rx="26.0417" ry="26.0417" style="stroke:#A80036;stroke-width:3.125;" width="235.4167" x="129.1667" y="668.4285"/><text fill="#000000" font-family="sans-serif" font-size="25" lengthAdjust="spacing" textLength="56.25" x="150" y="715.214">Click</text><text fill="#FF0000" font-family="sans-serif" font-size="25" font-weight="bold" lengthAdjust="spacing" textLength="54.1667" x="212.5" y="715.214">Next</text><text fill="#000000" font-family="sans-serif" font-size="25" lengthAdjust="spacing" textLength="70.8333" x="272.9167" y="715.214">button</text><rect fill="#FEFECE" filter="url(#fs3er7hb419c2)" height="73.112" rx="26.0417" ry="26.0417" style="stroke:#A80036;stroke-width:3.125;" width="325" x="84.375" y="1012.7645"/><text fill="#000000" font-family="sans-serif" font-size="25" lengthAdjust="spacing" textLength="283.3333" x="105.2083" y="1059.55">input name for each seat</text><rect fill="#FEFECE" filter="url(#fs3er7hb419c2)" height="73.112" rx="26.0417" ry="26.0417" style="stroke:#A80036;stroke-width:3.125;" width="218.75" x="137.5" y="1127.5431"/><text fill="#000000" font-family="sans-serif" font-size="25" lengthAdjust="spacing" textLength="50" x="158.3333" y="1174.3286">click</text><text fill="#FF0000" font-family="sans-serif" font-size="25" font-weight="bold" lengthAdjust="spacing" textLength="43.75" x="214.5833" y="1174.3286">add</text><text fill="#000000" font-family="sans-serif" font-size="25" lengthAdjust="spacing" textLength="70.8333" x="264.5833" y="1174.3286">button</text><line style="stroke:#000000;stroke-width:4.166666666666667;" x1="31.25" x2="31.25" y1="25.9481" y2="1667.7124"/><rect fill="#FEFECE" filter="url(#fs3er7hb419c2)" height="73.112" rx="26.0417" ry="26.0417" style="stroke:#A80036;stroke-width:3.125;" width="402.0833" x="696.875" y="313.09"/><text fill="#000000" font-family="sans-serif" font-size="25" lengthAdjust="spacing" textLength="122.9167" x="717.7083" y="359.8755">navigate to</text><text fill="#FF0000" font-family="sans-serif" font-size="25" font-weight="bold" lengthAdjust="spacing" textLength="175" x="846.875" y="359.8755">Add Buss Type</text><text fill="#000000" font-family="sans-serif" font-size="25" lengthAdjust="spacing" textLength="50" x="1028.125" y="359.8755">view</text><rect fill="#FEFECE" filter="url(#fs3er7hb419c2)" height="73.112" rx="26.0417" ry="26.0417" style="stroke:#A80036;stroke-width:3.125;" width="477.0833" x="659.375" y="783.2072"/><text fill="#000000" font-family="sans-serif" font-size="25" lengthAdjust="spacing" textLength="122.9167" x="680.2083" y="829.9927">navigate to</text><text fill="#FF0000" font-family="sans-serif" font-size="25" font-weight="bold" lengthAdjust="spacing" textLength="250" x="809.375" y="829.9927">Update Seat Process</text><text fill="#000000" font-family="sans-serif" font-size="25" lengthAdjust="spacing" textLength="50" x="1065.625" y="829.9927">view</text><rect fill="#FEFECE" filter="url(#fs3er7hb419c2)" height="73.112" rx="26.0417" ry="26.0417" style="stroke:#A80036;stroke-width:3.125;" width="408.3333" x="693.75" y="897.9858"/><text fill="#000000" font-family="sans-serif" font-size="25" lengthAdjust="spacing" textLength="366.6667" x="714.5833" y="944.7713">create placeholder for each seat</text><polygon fill="#FEFECE" filter="url(#fs3er7hb419c2)" points="835.4167,1242.3218,960.4167,1242.3218,985.4167,1267.3218,960.4167,1292.3218,835.4167,1292.3218,810.4167,1267.3218,835.4167,1242.3218" style="stroke:#A80036;stroke-width:3.125;"/><text fill="#000000" font-family="sans-serif" font-size="22.9167" lengthAdjust="spacing" textLength="125" x="835.4167" y="1276.6988">is valid info?</text><text fill="#000000" font-family="sans-serif" font-size="22.9167" lengthAdjust="spacing" textLength="37.5" x="772.9167" y="1262.2864">yes</text><text fill="#000000" font-family="sans-serif" font-size="22.9167" lengthAdjust="spacing" textLength="25" x="985.4167" y="1262.2864">no</text><rect fill="#FEFECE" filter="url(#fs3er7hb419c2)" height="73.112" rx="26.0417" ry="26.0417" style="stroke:#A80036;stroke-width:3.125;" width="414.5833" x="495.8333" y="1313.1551"/><text fill="#000000" font-family="sans-serif" font-size="25" lengthAdjust="spacing" textLength="179.1667" x="516.6667" y="1359.9406">add that Type to</text><text fill="#000000" font-family="sans-serif" font-size="25" font-weight="bold" lengthAdjust="spacing" textLength="187.5" x="702.0833" y="1359.9406">Buss Types List</text><rect fill="#FEFECE" filter="url(#fs3er7hb419c2)" height="73.112" rx="26.0417" ry="26.0417" style="stroke:#A80036;stroke-width:3.125;" width="281.25" x="952.0833" y="1313.1551"/><text fill="#000000" font-family="sans-serif" font-size="25" lengthAdjust="spacing" textLength="239.5833" x="972.9167" y="1359.9406">show error message</text><ellipse cx="1092.7083" cy="1448.7671" fill="#FFFFFF" filter="url(#fs3er7hb419c2)" rx="20.8333" ry="20.8333" style="stroke:#000000;stroke-width:3.125;"/><line style="stroke:#000000;stroke-width:5.208333333333334;" x1="1079.8184" x2="1105.5983" y1="1435.8771" y2="1461.6571"/><line style="stroke:#000000;stroke-width:5.208333333333334;" x1="1105.5983" x2="1079.8184" y1="1435.8771" y2="1461.6571"/><rect fill="#FEFECE" filter="url(#fs3er7hb419c2)" height="73.112" rx="26.0417" ry="26.0417" style="stroke:#A80036;stroke-width:3.125;" width="443.75" x="676.0417" y="1511.2671"/><text fill="#000000" font-family="sans-serif" font-size="25" lengthAdjust="spacing" textLength="122.9167" x="696.875" y="1558.0526">navigate to</text><text fill="#FF0000" font-family="sans-serif" font-size="25" font-weight="bold" lengthAdjust="spacing" textLength="216.6667" x="826.0417" y="1558.0526">List of Buss Types</text><text fill="#000000" font-family="sans-serif" font-size="25" lengthAdjust="spacing" textLength="50" x="1048.9583" y="1558.0526">view</text><ellipse cx="897.9167" cy="1646.8791" fill="#FFFFFF" filter="url(#fs3er7hb419c2)" rx="20.8333" ry="20.8333" style="stroke:#000000;stroke-width:3.125;"/><line style="stroke:#000000;stroke-width:5.208333333333334;" x1="885.0267" x2="910.8066" y1="1633.9891" y2="1659.769"/><line style="stroke:#000000;stroke-width:5.208333333333334;" x1="910.8066" x2="885.0267" y1="1633.9891" y2="1659.769"/><line style="stroke:#000000;stroke-width:4.166666666666667;" x1="483.3333" x2="483.3333" y1="25.9481" y2="1667.7124"/><line style="stroke:#000000;stroke-width:4.166666666666667;" x1="1254.1667" x2="1254.1667" y1="25.9481" y2="1667.7124"/><line style="stroke:#A80036;stroke-width:3.125;" x1="246.875" x2="246.875" y1="156.6447" y2="198.3114"/><polygon fill="#A80036" points="238.5417,177.478,246.875,198.3114,255.2083,177.478,246.875,185.8114" style="stroke:#A80036;stroke-width:2.0833333333333335;"/><line style="stroke:#A80036;stroke-width:3.125;" x1="246.875" x2="246.875" y1="626.7619" y2="668.4285"/><polygon fill="#A80036" points="238.5417,647.5952,246.875,668.4285,255.2083,647.5952,246.875,655.9285" style="stroke:#A80036;stroke-width:2.0833333333333335;"/><line style="stroke:#A80036;stroke-width:3.125;" x1="246.875" x2="246.875" y1="1085.8765" y2="1127.5431"/><polygon fill="#A80036" points="238.5417,1106.7098,246.875,1127.5431,255.2083,1106.7098,246.875,1115.0431" style="stroke:#A80036;stroke-width:2.0833333333333335;"/><line style="stroke:#A80036;stroke-width:3.125;" x1="897.9167" x2="897.9167" y1="856.3192" y2="897.9858"/><polygon fill="#A80036" points="889.5833,877.1525,897.9167,897.9858,906.25,877.1525,897.9167,885.4858" style="stroke:#A80036;stroke-width:2.0833333333333335;"/><line style="stroke:#A80036;stroke-width:3.125;" x1="1092.7083" x2="1092.7083" y1="1386.2671" y2="1427.9338"/><polygon fill="#A80036" points="1084.375,1407.1004,1092.7083,1427.9338,1101.0417,1407.1004,1092.7083,1415.4338" style="stroke:#A80036;stroke-width:2.0833333333333335;"/><line style="stroke:#A80036;stroke-width:3.125;" x1="810.4167" x2="703.125" y1="1267.3218" y2="1267.3218"/><line style="stroke:#A80036;stroke-width:3.125;" x1="703.125" x2="703.125" y1="1267.3218" y2="1313.1551"/><polygon fill="#A80036" points="694.7917,1292.3218,703.125,1313.1551,711.4583,1292.3218,703.125,1300.6551" style="stroke:#A80036;stroke-width:2.0833333333333335;"/><line style="stroke:#A80036;stroke-width:3.125;" x1="985.4167" x2="1092.7083" y1="1267.3218" y2="1267.3218"/><line style="stroke:#A80036;stroke-width:3.125;" x1="1092.7083" x2="1092.7083" y1="1267.3218" y2="1313.1551"/><polygon fill="#A80036" points="1084.375,1292.3218,1092.7083,1313.1551,1101.0417,1292.3218,1092.7083,1300.6551" style="stroke:#A80036;stroke-width:2.0833333333333335;"/><line style="stroke:#A80036;stroke-width:3.125;" x1="703.125" x2="703.125" y1="1386.2671" y2="1480.0171"/><line style="stroke:#A80036;stroke-width:3.125;" x1="703.125" x2="897.9167" y1="1480.0171" y2="1480.0171"/><line style="stroke:#A80036;stroke-width:3.125;" x1="897.9167" x2="897.9167" y1="1480.0171" y2="1511.2671"/><polygon fill="#A80036" points="889.5833,1490.4338,897.9167,1511.2671,906.25,1490.4338,897.9167,1498.7671" style="stroke:#A80036;stroke-width:2.0833333333333335;"/><line style="stroke:#A80036;stroke-width:3.125;" x1="897.9167" x2="897.9167" y1="1584.3791" y2="1626.0457"/><polygon fill="#A80036" points="889.5833,1605.2124,897.9167,1626.0457,906.25,1605.2124,897.9167,1613.5457" style="stroke:#A80036;stroke-width:2.0833333333333335;"/><line style="stroke:#A80036;stroke-width:3.125;" x1="246.875" x2="246.875" y1="271.4233" y2="281.84"/><line style="stroke:#A80036;stroke-width:3.125;" x1="246.875" x2="897.9167" y1="281.84" y2="281.84"/><line style="stroke:#A80036;stroke-width:3.125;" x1="897.9167" x2="897.9167" y1="281.84" y2="313.09"/><polygon fill="#A80036" points="889.5833,292.2567,897.9167,313.09,906.25,292.2567,897.9167,300.59" style="stroke:#A80036;stroke-width:2.0833333333333335;"/><line style="stroke:#A80036;stroke-width:3.125;" x1="897.9167" x2="897.9167" y1="386.202" y2="396.6187"/><line style="stroke:#A80036;stroke-width:3.125;" x1="897.9167" x2="246.875" y1="396.6187" y2="396.6187"/><line style="stroke:#A80036;stroke-width:3.125;" x1="246.875" x2="246.875" y1="396.6187" y2="427.8687"/><polygon fill="#A80036" points="238.5417,407.0353,246.875,427.8687,255.2083,407.0353,246.875,415.3687" style="stroke:#A80036;stroke-width:2.0833333333333335;"/><line style="stroke:#A80036;stroke-width:3.125;" x1="246.875" x2="246.875" y1="741.5405" y2="751.9572"/><line style="stroke:#A80036;stroke-width:3.125;" x1="246.875" x2="897.9167" y1="751.9572" y2="751.9572"/><line style="stroke:#A80036;stroke-width:3.125;" x1="897.9167" x2="897.9167" y1="751.9572" y2="783.2072"/><polygon fill="#A80036" points="889.5833,762.3739,897.9167,783.2072,906.25,762.3739,897.9167,770.7072" style="stroke:#A80036;stroke-width:2.0833333333333335;"/><line style="stroke:#A80036;stroke-width:3.125;" x1="897.9167" x2="897.9167" y1="971.0978" y2="981.5145"/><line style="stroke:#A80036;stroke-width:3.125;" x1="897.9167" x2="246.875" y1="981.5145" y2="981.5145"/><line style="stroke:#A80036;stroke-width:3.125;" x1="246.875" x2="246.875" y1="981.5145" y2="1012.7645"/><polygon fill="#A80036" points="238.5417,991.9312,246.875,1012.7645,255.2083,991.9312,246.875,1000.2645" style="stroke:#A80036;stroke-width:2.0833333333333335;"/><line style="stroke:#A80036;stroke-width:3.125;" x1="246.875" x2="246.875" y1="1200.6551" y2="1211.0718"/><line style="stroke:#A80036;stroke-width:3.125;" x1="246.875" x2="897.9167" y1="1211.0718" y2="1211.0718"/><line style="stroke:#A80036;stroke-width:3.125;" x1="897.9167" x2="897.9167" y1="1211.0718" y2="1242.3218"/><polygon fill="#A80036" points="889.5833,1221.4884,897.9167,1242.3218,906.25,1221.4884,897.9167,1229.8218" style="stroke:#A80036;stroke-width:2.0833333333333335;"/><text fill="#000000" font-family="sans-serif" font-size="37.5" lengthAdjust="spacing" textLength="175" x="169.7917" y="64.8763">Sys Admin</text><text fill="#000000" font-family="sans-serif" font-size="37.5" lengthAdjust="spacing" textLength="122.9167" x="807.2917" y="64.8763">System</text><!--MD5=[6b178cc6a2b8ed70f9eba33a71bf567d]
@startuml
skinparam dpi 200

|Sys Admin|
#lightgreen:from <b>List of Buss Types</b> flow>
:click on <b><color:red>Add New</color></b> button;

|System|
:navigate to <b><color:red>Add Buss Type</color></b> view;

|Sys Admin|
:input name,
description,
number of seats,
buss type template path,
buss type image;

:Click <b><color:red>Next</color></b> button;

|System|
:navigate to <b><color:red>Update Seat Process</color></b> view;
:create placeholder for each seat;

|Sys Admin|
:input name for each seat;
:click <b><color:red>add</color></b> button;


|System|

if (is valid info?) then (yes)
	:add that Type to <b>Buss Types List</b>;
else (no)
	:show error message;
	end
endif
:navigate to <b><color:red>List of Buss Types</color></b> view;
end
@enduml

PlantUML version 1.2021.2(Sun Mar 07 18:10:27 ICT 2021)
(GPL source distribution)
Java Runtime: OpenJDK Runtime Environment
JVM: Eclipse OpenJ9 VM
Default Encoding: UTF-8
Language: en
Country: US
--></g></svg>