<?xml version="1.0" encoding="UTF-8" standalone="no"?><svg xmlns="http://www.w3.org/2000/svg" xmlns:xlink="http://www.w3.org/1999/xlink" contentScriptType="application/ecmascript" contentStyleType="text/css" height="1333.3333px" preserveAspectRatio="none" style="width:868px;height:1333px;" version="1.1" viewBox="0 0 868 1333" width="868.75px" zoomAndPan="magnify"><defs><filter height="300%" id="f1tat1inqgy2rt" width="300%" x="-1" y="-1"><feGaussianBlur result="blurOut" stdDeviation="4.166666666666667"/><feColorMatrix in="blurOut" result="blurOut2" type="matrix" values="0 0 0 0 0 0 0 0 0 0 0 0 0 0 0 0 0 0 .4 0"/><feOffset dx="8.333333333333334" dy="8.333333333333334" in="blurOut2" result="blurOut3"/><feBlend in="SourceGraphic" in2="blurOut3" mode="normal"/></filter></defs><g><polygon fill="#90EE90" filter="url(#f1tat1inqgy2rt)" points="190.625,83.5327,401.0417,83.5327,421.875,135.8114,401.0417,188.09,190.625,188.09" style="stroke:#A80036;stroke-width:3.125;"/><text fill="#000000" font-family="sans-serif" font-size="25" lengthAdjust="spacing" textLength="83.3333" x="211.4583" y="130.3182">Từ flow</text><text fill="#000000" font-family="sans-serif" font-size="25" font-weight="bold" lengthAdjust="spacing" textLength="162.5" x="211.4583" y="161.7635">Danh sách Vé</text><text fill="#000000" font-family="sans-serif" font-size="25" lengthAdjust="spacing" textLength="0" x="380.2083" y="161.7635"/><rect fill="#FEFECE" filter="url(#f1tat1inqgy2rt)" height="104.5573" rx="26.0417" ry="26.0417" style="stroke:#A80036;stroke-width:3.125;" width="204.1667" x="193.75" y="229.7567"/><text fill="#000000" font-family="sans-serif" font-size="25" lengthAdjust="spacing" textLength="112.5" x="214.5833" y="276.5422">Chọn ghế</text><text fill="#000000" font-family="sans-serif" font-size="25" lengthAdjust="spacing" textLength="162.5" x="214.5833" y="307.9875">muốn thêm vé</text><rect fill="#FEFECE" filter="url(#f1tat1inqgy2rt)" height="104.5573" rx="26.0417" ry="26.0417" style="stroke:#A80036;stroke-width:3.125;" width="145.8333" x="222.9167" y="375.9806"/><text fill="#000000" font-family="sans-serif" font-size="25" lengthAdjust="spacing" textLength="97.9167" x="243.75" y="422.7661">Click nút</text><text fill="#000000" font-family="sans-serif" font-size="25" font-weight="bold" lengthAdjust="spacing" textLength="104.1667" x="243.75" y="454.2114">Thêm Vé</text><rect fill="#FEFECE" filter="url(#f1tat1inqgy2rt)" height="104.5573" rx="26.0417" ry="26.0417" style="stroke:#A80036;stroke-width:3.125;" width="504.1667" x="43.75" y="668.4285"/><text fill="#000000" font-family="sans-serif" font-size="25" lengthAdjust="spacing" textLength="62.5" x="64.5833" y="715.214">Nhập</text><text fill="#000000" font-family="sans-serif" font-size="25" font-weight="bold" lengthAdjust="spacing" textLength="152.0833" x="133.3333" y="715.214">Số điện thoại</text><text fill="#000000" font-family="sans-serif" font-size="25" lengthAdjust="spacing" textLength="56.25" x="64.5833" y="746.6593">hoặc</text><text fill="#000000" font-family="sans-serif" font-size="25" font-weight="bold" lengthAdjust="spacing" textLength="400" x="127.0833" y="746.6593">chọn 1 người dùng trong hệ thống</text><rect fill="#FEFECE" filter="url(#f1tat1inqgy2rt)" height="104.5573" rx="26.0417" ry="26.0417" style="stroke:#A80036;stroke-width:3.125;" width="139.5833" x="226.0417" y="814.6525"/><text fill="#000000" font-family="sans-serif" font-size="25" lengthAdjust="spacing" textLength="97.9167" x="246.875" y="861.438">Click nút</text><text fill="#000000" font-family="sans-serif" font-size="25" font-weight="bold" lengthAdjust="spacing" textLength="81.25" x="246.875" y="892.8833">Đồng ý</text><line style="stroke:#000000;stroke-width:4.166666666666667;" x1="31.25" x2="31.25" y1="25.9481" y2="1299.1577"/><rect fill="#FEFECE" filter="url(#f1tat1inqgy2rt)" height="104.5573" rx="26.0417" ry="26.0417" style="stroke:#A80036;stroke-width:3.125;" width="191.6667" x="598.9583" y="522.2046"/><text fill="#000000" font-family="sans-serif" font-size="25" lengthAdjust="spacing" textLength="150" x="619.7917" y="568.9901">Mở màn hình</text><text fill="#000000" font-family="sans-serif" font-size="25" font-weight="bold" lengthAdjust="spacing" textLength="100" x="619.7917" y="600.4354">Thêm vé</text><rect fill="#FEFECE" filter="url(#f1tat1inqgy2rt)" height="104.5573" rx="26.0417" ry="26.0417" style="stroke:#A80036;stroke-width:3.125;" width="193.75" x="597.9167" y="960.8765"/><text fill="#000000" font-family="sans-serif" font-size="25" lengthAdjust="spacing" textLength="143.75" x="618.75" y="1007.6619">Thêm vé vào</text><text fill="#000000" font-family="sans-serif" font-size="25" lengthAdjust="spacing" textLength="152.0833" x="618.75" y="1039.1073">cơ sở dữ liệu</text><rect fill="#FEFECE" filter="url(#f1tat1inqgy2rt)" height="104.5573" rx="26.0417" ry="26.0417" style="stroke:#A80036;stroke-width:3.125;" width="227.0833" x="581.25" y="1107.1004"/><text fill="#000000" font-family="sans-serif" font-size="25" lengthAdjust="spacing" textLength="185.4167" x="602.0833" y="1153.8859">Trở về màn hình</text><text fill="#000000" font-family="sans-serif" font-size="25" font-weight="bold" lengthAdjust="spacing" textLength="162.5" x="602.0833" y="1185.3312">Danh sách Vé</text><ellipse cx="694.7917" cy="1276.241" fill="#FFFFFF" filter="url(#f1tat1inqgy2rt)" rx="22.9167" ry="22.9167" style="stroke:#000000;stroke-width:2.0833333333333335;"/><ellipse cx="694.7917" cy="1276.241" fill="#000000" rx="12.5" ry="12.5" style="stroke:#7F7F7F;stroke-width:2.0833333333333335;"/><line style="stroke:#000000;stroke-width:4.166666666666667;" x1="568.75" x2="568.75" y1="25.9481" y2="1299.1577"/><line style="stroke:#000000;stroke-width:4.166666666666667;" x1="829.1667" x2="829.1667" y1="25.9481" y2="1299.1577"/><line style="stroke:#A80036;stroke-width:3.125;" x1="295.8333" x2="295.8333" y1="188.09" y2="229.7567"/><polygon fill="#A80036" points="287.5,208.9233,295.8333,229.7567,304.1667,208.9233,295.8333,217.2567" style="stroke:#A80036;stroke-width:2.0833333333333335;"/><line style="stroke:#A80036;stroke-width:3.125;" x1="295.8333" x2="295.8333" y1="334.314" y2="375.9806"/><polygon fill="#A80036" points="287.5,355.1473,295.8333,375.9806,304.1667,355.1473,295.8333,363.4806" style="stroke:#A80036;stroke-width:2.0833333333333335;"/><line style="stroke:#A80036;stroke-width:3.125;" x1="295.8333" x2="295.8333" y1="772.9858" y2="814.6525"/><polygon fill="#A80036" points="287.5,793.8192,295.8333,814.6525,304.1667,793.8192,295.8333,802.1525" style="stroke:#A80036;stroke-width:2.0833333333333335;"/><line style="stroke:#A80036;stroke-width:3.125;" x1="694.7917" x2="694.7917" y1="1065.4338" y2="1107.1004"/><polygon fill="#A80036" points="686.4583,1086.2671,694.7917,1107.1004,703.125,1086.2671,694.7917,1094.6004" style="stroke:#A80036;stroke-width:2.0833333333333335;"/><line style="stroke:#A80036;stroke-width:3.125;" x1="694.7917" x2="694.7917" y1="1211.6577" y2="1253.3244"/><polygon fill="#A80036" points="686.4583,1232.491,694.7917,1253.3244,703.125,1232.491,694.7917,1240.8244" style="stroke:#A80036;stroke-width:2.0833333333333335;"/><line style="stroke:#A80036;stroke-width:3.125;" x1="295.8333" x2="295.8333" y1="480.5379" y2="490.9546"/><line style="stroke:#A80036;stroke-width:3.125;" x1="295.8333" x2="694.7917" y1="490.9546" y2="490.9546"/><line style="stroke:#A80036;stroke-width:3.125;" x1="694.7917" x2="694.7917" y1="490.9546" y2="522.2046"/><polygon fill="#A80036" points="686.4583,501.3713,694.7917,522.2046,703.125,501.3713,694.7917,509.7046" style="stroke:#A80036;stroke-width:2.0833333333333335;"/><line style="stroke:#A80036;stroke-width:3.125;" x1="694.7917" x2="694.7917" y1="626.7619" y2="637.1785"/><line style="stroke:#A80036;stroke-width:3.125;" x1="694.7917" x2="295.8333" y1="637.1785" y2="637.1785"/><line style="stroke:#A80036;stroke-width:3.125;" x1="295.8333" x2="295.8333" y1="637.1785" y2="668.4285"/><polygon fill="#A80036" points="287.5,647.5952,295.8333,668.4285,304.1667,647.5952,295.8333,655.9285" style="stroke:#A80036;stroke-width:2.0833333333333335;"/><line style="stroke:#A80036;stroke-width:3.125;" x1="295.8333" x2="295.8333" y1="919.2098" y2="929.6265"/><line style="stroke:#A80036;stroke-width:3.125;" x1="295.8333" x2="694.7917" y1="929.6265" y2="929.6265"/><line style="stroke:#A80036;stroke-width:3.125;" x1="694.7917" x2="694.7917" y1="929.6265" y2="960.8765"/><polygon fill="#A80036" points="686.4583,940.0431,694.7917,960.8765,703.125,940.0431,694.7917,948.3765" style="stroke:#A80036;stroke-width:2.0833333333333335;"/><text fill="#000000" font-family="sans-serif" font-size="37.5" lengthAdjust="spacing" textLength="172.9167" x="218.75" y="64.8763">Nhân Viên</text><text fill="#000000" font-family="sans-serif" font-size="37.5" lengthAdjust="spacing" textLength="166.6667" x="620.8333" y="64.8763">Hệ Thống</text><!--MD5=[9c52073a3acc1249e0f299d75976c6f2]
@startuml
skinparam dpi 200

|Staff| Nhân Viên
	#lightgreen:Từ flow
	<b>Danh sách Vé</b> >

	:Chọn ghế
	muốn thêm vé;


	:Click nút
	<b>Thêm Vé</b>;

|System| Hệ Thống

	:Mở màn hình
	<b>Thêm vé</b>;

|Staff|

	:Nhập <b>Số điện thoại</b>
	hoặc <b>chọn 1 người dùng trong hệ thống</b>;


	:Click nút
	<b>Đồng ý</b>;

|System|

	:Thêm vé vào
	cơ sở dữ liệu;

	:Trở về màn hình
	<b>Danh sách Vé</b>;

	stop
@enduml

PlantUML version 1.2021.2(Sun Mar 07 18:10:27 ICT 2021)
(GPL source distribution)
Java Runtime: OpenJDK Runtime Environment
JVM: Eclipse OpenJ9 VM
Default Encoding: UTF-8
Language: en
Country: US
--></g></svg>