<?xml version="1.0" encoding="UTF-8" standalone="no"?><svg xmlns="http://www.w3.org/2000/svg" xmlns:xlink="http://www.w3.org/1999/xlink" contentScriptType="application/ecmascript" contentStyleType="text/css" height="1402.0833px" preserveAspectRatio="none" style="width:835px;height:1402px;" version="1.1" viewBox="0 0 835 1402" width="835.4167px" zoomAndPan="magnify"><defs><filter height="300%" id="f12qqyxgea3f2v" width="300%" x="-1" y="-1"><feGaussianBlur result="blurOut" stdDeviation="4.166666666666667"/><feColorMatrix in="blurOut" result="blurOut2" type="matrix" values="0 0 0 0 0 0 0 0 0 0 0 0 0 0 0 0 0 0 .4 0"/><feOffset dx="8.333333333333334" dy="8.333333333333334" in="blurOut2" result="blurOut3"/><feBlend in="SourceGraphic" in2="blurOut3" mode="normal"/></filter></defs><g><polygon fill="#90EE90" filter="url(#f12qqyxgea3f2v)" points="71.875,83.5327,282.2917,83.5327,303.125,135.8114,282.2917,188.09,71.875,188.09" style="stroke:#A80036;stroke-width:3.125;"/><text fill="#000000" font-family="sans-serif" font-size="25" lengthAdjust="spacing" textLength="145.8333" x="92.7083" y="130.3182">Từ màn hình</text><text fill="#000000" font-family="sans-serif" font-size="25" font-weight="bold" lengthAdjust="spacing" textLength="162.5" x="92.7083" y="161.7635">Danh sách Xe</text><text fill="#000000" font-family="sans-serif" font-size="25" lengthAdjust="spacing" textLength="0" x="261.4583" y="161.7635"/><rect fill="#FEFECE" filter="url(#f12qqyxgea3f2v)" height="104.5573" rx="26.0417" ry="26.0417" style="stroke:#A80036;stroke-width:3.125;" width="145.8333" x="104.1667" y="229.7567"/><text fill="#000000" font-family="sans-serif" font-size="25" lengthAdjust="spacing" textLength="97.9167" x="125" y="276.5422">Click nút</text><text fill="#000000" font-family="sans-serif" font-size="25" font-weight="bold" lengthAdjust="spacing" textLength="104.1667" x="125" y="307.9875">Thêm Xe</text><rect fill="#FEFECE" filter="url(#f12qqyxgea3f2v)" height="104.5573" rx="26.0417" ry="26.0417" style="stroke:#A80036;stroke-width:3.125;" width="139.5833" x="107.2917" y="762.7645"/><text fill="#000000" font-family="sans-serif" font-size="25" lengthAdjust="spacing" textLength="97.9167" x="128.125" y="809.55">Click nút</text><text fill="#000000" font-family="sans-serif" font-size="25" font-weight="bold" lengthAdjust="spacing" textLength="83.3333" x="128.125" y="840.9953">Đồng Ý</text><rect fill="#FEFECE" filter="url(#f12qqyxgea3f2v)" height="198.8932" rx="26.0417" ry="26.0417" style="stroke:#A80036;stroke-width:3.125;" width="200" x="77.0833" y="522.2046"/><text fill="#000000" font-family="sans-serif" font-size="25" lengthAdjust="spacing" textLength="62.5" x="97.9167" y="568.9901">Nhập</text><text fill="#000000" font-family="sans-serif" font-size="25" lengthAdjust="spacing" textLength="8.3333" x="97.9167" y="600.4354">-</text><text fill="#000000" font-family="sans-serif" font-size="25" font-weight="bold" lengthAdjust="spacing" textLength="81.25" x="112.5" y="600.4354">Tên Xe</text><text fill="#FF0000" font-family="sans-serif" font-size="25" font-weight="bold" lengthAdjust="spacing" textLength="10.4167" x="200" y="600.4354">*</text><text fill="#000000" font-family="sans-serif" font-size="25" lengthAdjust="spacing" textLength="8.3333" x="97.9167" y="631.8807">-</text><text fill="#000000" font-family="sans-serif" font-size="25" font-weight="bold" lengthAdjust="spacing" textLength="64.5833" x="112.5" y="631.8807">Mô tả</text><text fill="#000000" font-family="sans-serif" font-size="25" lengthAdjust="spacing" textLength="8.3333" x="97.9167" y="663.326">-</text><text fill="#000000" font-family="sans-serif" font-size="25" font-weight="bold" lengthAdjust="spacing" textLength="143.75" x="112.5" y="663.326">Ảnh đại diện</text><text fill="#000000" font-family="sans-serif" font-size="25" lengthAdjust="spacing" textLength="8.3333" x="97.9167" y="694.7713">-</text><text fill="#000000" font-family="sans-serif" font-size="25" font-weight="bold" lengthAdjust="spacing" textLength="89.5833" x="112.5" y="694.7713">Kiểu Xe</text><text fill="#FF0000" font-family="sans-serif" font-size="25" font-weight="bold" lengthAdjust="spacing" textLength="10.4167" x="208.3333" y="694.7713">*</text><line style="stroke:#000000;stroke-width:4.166666666666667;" x1="31.25" x2="31.25" y1="25.9481" y2="1367.5781"/><rect fill="#FEFECE" filter="url(#f12qqyxgea3f2v)" height="104.5573" rx="26.0417" ry="26.0417" style="stroke:#A80036;stroke-width:3.125;" width="279.1667" x="356.25" y="375.9806"/><text fill="#000000" font-family="sans-serif" font-size="25" lengthAdjust="spacing" textLength="237.5" x="377.0833" y="422.7661">Chuyển tới màn hình</text><text fill="#000000" font-family="sans-serif" font-size="25" font-weight="bold" lengthAdjust="spacing" textLength="104.1667" x="377.0833" y="454.2114">Thêm Xe</text><polygon fill="#FEFECE" filter="url(#f12qqyxgea3f2v)" points="409.375,922.7153,582.2917,922.7153,607.2917,947.7153,582.2917,972.7153,409.375,972.7153,384.375,947.7153,409.375,922.7153" style="stroke:#A80036;stroke-width:3.125;"/><text fill="#000000" font-family="sans-serif" font-size="22.9167" lengthAdjust="spacing" textLength="172.9167" x="409.375" y="957.0923">Thông tin hợp lệ?</text><text fill="#000000" font-family="sans-serif" font-size="22.9167" font-weight="bold" lengthAdjust="spacing" textLength="72.9167" x="607.2917" y="913.855">Không</text><text fill="#000000" font-family="sans-serif" font-size="22.9167" lengthAdjust="spacing" textLength="177.0833" x="607.2917" y="942.6799">Hiện thông báo lỗi</text><rect fill="#FEFECE" filter="url(#f12qqyxgea3f2v)" height="73.112" rx="26.0417" ry="26.0417" style="stroke:#A80036;stroke-width:3.125;" width="260.4167" x="365.625" y="1060.7422"/><text fill="#000000" font-family="sans-serif" font-size="25" lengthAdjust="spacing" textLength="218.75" x="386.4583" y="1107.5277">Thêm xe vào CSDL</text><rect fill="#FEFECE" filter="url(#f12qqyxgea3f2v)" height="104.5573" rx="26.0417" ry="26.0417" style="stroke:#A80036;stroke-width:3.125;" width="279.1667" x="356.25" y="1175.5208"/><text fill="#000000" font-family="sans-serif" font-size="25" lengthAdjust="spacing" textLength="237.5" x="377.0833" y="1222.3063">Chuyển tới màn hình</text><text fill="#000000" font-family="sans-serif" font-size="25" font-weight="bold" lengthAdjust="spacing" textLength="162.5" x="377.0833" y="1253.7516">Danh sách Xe</text><ellipse cx="495.8333" cy="1344.6615" fill="#FFFFFF" filter="url(#f12qqyxgea3f2v)" rx="22.9167" ry="22.9167" style="stroke:#000000;stroke-width:2.0833333333333335;"/><ellipse cx="495.8333" cy="1344.6615" fill="#000000" rx="12.5" ry="12.5" style="stroke:#7F7F7F;stroke-width:2.0833333333333335;"/><line style="stroke:#000000;stroke-width:4.166666666666667;" x1="343.75" x2="343.75" y1="25.9481" y2="1367.5781"/><line style="stroke:#000000;stroke-width:4.166666666666667;" x1="794.7917" x2="794.7917" y1="25.9481" y2="1367.5781"/><line style="stroke:#A80036;stroke-width:3.125;" x1="177.0833" x2="177.0833" y1="188.09" y2="229.7567"/><polygon fill="#A80036" points="168.75,208.9233,177.0833,229.7567,185.4167,208.9233,177.0833,217.2567" style="stroke:#A80036;stroke-width:2.0833333333333335;"/><line style="stroke:#A80036;stroke-width:3.125;" x1="177.0833" x2="177.0833" y1="721.0978" y2="762.7645"/><polygon fill="#A80036" points="168.75,741.9312,177.0833,762.7645,185.4167,741.9312,177.0833,750.2645" style="stroke:#A80036;stroke-width:2.0833333333333335;"/><line style="stroke:#A80036;stroke-width:3.125;" x1="495.8333" x2="495.8333" y1="972.7153" y2="1060.7422"/><polygon fill="#A80036" points="487.5,1039.9089,495.8333,1060.7422,504.1667,1039.9089,495.8333,1048.2422" style="stroke:#A80036;stroke-width:2.0833333333333335;"/><text fill="#000000" font-family="sans-serif" font-size="22.9167" lengthAdjust="spacing" textLength="27.0833" x="504.1667" y="1019.2485">Có</text><line style="stroke:#A80036;stroke-width:3.125;" x1="495.8333" x2="495.8333" y1="1133.8542" y2="1175.5208"/><polygon fill="#A80036" points="487.5,1154.6875,495.8333,1175.5208,504.1667,1154.6875,495.8333,1163.0208" style="stroke:#A80036;stroke-width:2.0833333333333335;"/><line style="stroke:#A80036;stroke-width:3.125;" x1="495.8333" x2="495.8333" y1="1280.0781" y2="1321.7448"/><polygon fill="#A80036" points="487.5,1300.9115,495.8333,1321.7448,504.1667,1300.9115,495.8333,1309.2448" style="stroke:#A80036;stroke-width:2.0833333333333335;"/><line style="stroke:#A80036;stroke-width:3.125;" x1="177.0833" x2="177.0833" y1="334.314" y2="344.7306"/><line style="stroke:#A80036;stroke-width:3.125;" x1="177.0833" x2="495.8333" y1="344.7306" y2="344.7306"/><line style="stroke:#A80036;stroke-width:3.125;" x1="495.8333" x2="495.8333" y1="344.7306" y2="375.9806"/><polygon fill="#A80036" points="487.5,355.1473,495.8333,375.9806,504.1667,355.1473,495.8333,363.4806" style="stroke:#A80036;stroke-width:2.0833333333333335;"/><line style="stroke:#A80036;stroke-width:3.125;" x1="607.2917" x2="628.125" y1="947.7153" y2="947.7153"/><polygon fill="#A80036" points="619.7917,798.6532,628.125,777.8198,636.4583,798.6532,628.125,790.3198" style="stroke:#A80036;stroke-width:3.125;"/><line style="stroke:#A80036;stroke-width:3.125;" x1="628.125" x2="628.125" y1="621.6512" y2="947.7153"/><line style="stroke:#A80036;stroke-width:3.125;" x1="628.125" x2="277.0833" y1="621.6512" y2="621.6512"/><polygon fill="#A80036" points="297.9167,613.3179,277.0833,621.6512,297.9167,629.9845,289.5833,621.6512" style="stroke:#A80036;stroke-width:2.0833333333333335;"/><line style="stroke:#A80036;stroke-width:3.125;" x1="177.0833" x2="177.0833" y1="867.3218" y2="877.7384"/><line style="stroke:#A80036;stroke-width:3.125;" x1="177.0833" x2="495.8333" y1="877.7384" y2="877.7384"/><line style="stroke:#A80036;stroke-width:3.125;" x1="495.8333" x2="495.8333" y1="877.7384" y2="922.7153"/><polygon fill="#A80036" points="487.5,901.8819,495.8333,922.7153,504.1667,901.8819,495.8333,910.2153" style="stroke:#A80036;stroke-width:2.0833333333333335;"/><line style="stroke:#A80036;stroke-width:3.125;" x1="495.8333" x2="495.8333" y1="480.5379" y2="490.9546"/><line style="stroke:#A80036;stroke-width:3.125;" x1="495.8333" x2="177.0833" y1="490.9546" y2="490.9546"/><line style="stroke:#A80036;stroke-width:3.125;" x1="177.0833" x2="177.0833" y1="490.9546" y2="522.2046"/><polygon fill="#A80036" points="168.75,501.3713,177.0833,522.2046,185.4167,501.3713,177.0833,509.7046" style="stroke:#A80036;stroke-width:2.0833333333333335;"/><text fill="#000000" font-family="sans-serif" font-size="37.5" lengthAdjust="spacing" textLength="281.25" x="52.0833" y="64.8763">Quản Trị Nhà Xe</text><text fill="#000000" font-family="sans-serif" font-size="37.5" lengthAdjust="spacing" textLength="152.0833" x="498.4375" y="64.8763">Hệ thống</text><!--MD5=[a1ce23a38d4740329939b72a2a1dd0c5]
@startuml
skinparam dpi 200

|Buss Admin| Quản Trị Nhà Xe

	#lightgreen:Từ màn hình
	<b>Danh sách Xe</b> >

	:Click nút
	<b>Thêm Xe</b>;

|System| Hệ thống

	:Chuyển tới màn hình\n<b>Thêm Xe</b>;
|Buss Admin|
	repeat :Nhập\n- <b>Tên Xe <color:red>*</color></b>\n- <b>Mô tả</b>\n- <b>Ảnh đại diện</b>\n- <b>Kiểu Xe <color:red>*</color></b>;



		:Click nút
		<b>Đồng Ý</b>;

|System|
		repeat while (Thông tin hợp lệ?) is (<b>Không</b>\nHiện thông báo lỗi)
	->Có;
	:Thêm xe vào CSDL;

	:Chuyển tới màn hình
	<b>Danh sách Xe</b>;

	stop
@enduml

PlantUML version 1.2021.2(Sun Mar 07 18:10:27 ICT 2021)
(GPL source distribution)
Java Runtime: OpenJDK Runtime Environment
JVM: Eclipse OpenJ9 VM
Default Encoding: UTF-8
Language: en
Country: US
--></g></svg>