<?xml version="1.0" encoding="UTF-8" standalone="no"?><svg xmlns="http://www.w3.org/2000/svg" xmlns:xlink="http://www.w3.org/1999/xlink" contentScriptType="application/ecmascript" contentStyleType="text/css" height="1272.9167px" preserveAspectRatio="none" style="width:1750px;height:1272px;" version="1.1" viewBox="0 0 1750 1272" width="1750px" zoomAndPan="magnify"><defs><filter height="300%" id="f5psgb43byefd" width="300%" x="-1" y="-1"><feGaussianBlur result="blurOut" stdDeviation="4.166666666666667"/><feColorMatrix in="blurOut" result="blurOut2" type="matrix" values="0 0 0 0 0 0 0 0 0 0 0 0 0 0 0 0 0 0 .4 0"/><feOffset dx="8.333333333333334" dy="8.333333333333334" in="blurOut2" result="blurOut3"/><feBlend in="SourceGraphic" in2="blurOut3" mode="normal"/></filter></defs><g><polygon fill="#90EE90" filter="url(#f5psgb43byefd)" points="337.5,83.5327,658.3333,83.5327,679.1667,120.0887,658.3333,156.6447,337.5,156.6447" style="stroke:#A80036;stroke-width:3.125;"/><text fill="#000000" font-family="sans-serif" font-size="25" lengthAdjust="spacing" textLength="52.0833" x="358.3333" y="130.3182">from</text><text fill="#000000" font-family="sans-serif" font-size="25" font-weight="bold" lengthAdjust="spacing" textLength="168.75" x="416.6667" y="130.3182">List of Busses</text><text fill="#000000" font-family="sans-serif" font-size="25" lengthAdjust="spacing" textLength="45.8333" x="591.6667" y="130.3182">flow</text><rect fill="#FEFECE" filter="url(#f5psgb43byefd)" height="73.112" rx="26.0417" ry="26.0417" style="stroke:#A80036;stroke-width:3.125;" width="314.5833" x="340.625" y="198.3114"/><text fill="#000000" font-family="sans-serif" font-size="25" lengthAdjust="spacing" textLength="85.4167" x="361.4583" y="245.0968">click on</text><text fill="#FF0000" font-family="sans-serif" font-size="25" font-weight="bold" lengthAdjust="spacing" textLength="104.1667" x="453.125" y="245.0968">Add New</text><text fill="#000000" font-family="sans-serif" font-size="25" lengthAdjust="spacing" textLength="70.8333" x="563.5417" y="245.0968">button</text><rect fill="#000000" filter="url(#f5psgb43byefd)" height="12.5" rx="5.2083" ry="5.2083" style="stroke:#000000;stroke-width:2.0833333333333335;" width="945.8333" x="43.75" y="427.8687"/><rect fill="#FEFECE" filter="url(#f5psgb43byefd)" height="104.5573" rx="26.0417" ry="26.0417" style="stroke:#A80036;stroke-width:3.125;" width="177.0833" x="68.75" y="482.0353"/><text fill="#000000" font-family="sans-serif" font-size="25" lengthAdjust="spacing" textLength="135.4167" x="89.5833" y="528.8208">input name,</text><text fill="#000000" font-family="sans-serif" font-size="25" lengthAdjust="spacing" textLength="127.0833" x="89.5833" y="560.2661">description</text><rect fill="#FEFECE" filter="url(#f5psgb43byefd)" height="73.112" rx="26.0417" ry="26.0417" style="stroke:#A80036;stroke-width:3.125;" width="325" x="266.6667" y="497.758"/><text fill="#000000" font-family="sans-serif" font-size="25" lengthAdjust="spacing" textLength="283.3333" x="287.5" y="544.5435">select buss type from list</text><rect fill="#FEFECE" filter="url(#f5psgb43byefd)" height="73.112" rx="26.0417" ry="26.0417" style="stroke:#A80036;stroke-width:3.125;" width="314.5833" x="650" y="497.758"/><text fill="#000000" font-family="sans-serif" font-size="25" lengthAdjust="spacing" textLength="272.9167" x="670.8333" y="544.5435">upload image (optional)</text><polygon fill="#FEFECE" filter="url(#f5psgb43byefd)" points="497.9167,607.4259,522.9167,632.4259,497.9167,657.4259,472.9167,632.4259,497.9167,607.4259" style="stroke:#A80036;stroke-width:3.125;"/><rect fill="#FEFECE" filter="url(#f5psgb43byefd)" height="73.112" rx="26.0417" ry="26.0417" style="stroke:#A80036;stroke-width:3.125;" width="227.0833" x="384.375" y="699.0926"/><text fill="#000000" font-family="sans-serif" font-size="25" lengthAdjust="spacing" textLength="56.25" x="405.2083" y="745.8781">Click</text><text fill="#FF0000" font-family="sans-serif" font-size="25" font-weight="bold" lengthAdjust="spacing" textLength="45.8333" x="467.7083" y="745.8781">Add</text><text fill="#000000" font-family="sans-serif" font-size="25" lengthAdjust="spacing" textLength="70.8333" x="519.7917" y="745.8781">button</text><line style="stroke:#000000;stroke-width:4.166666666666667;" x1="31.25" x2="31.25" y1="25.9481" y2="1239.2619"/><rect fill="#FEFECE" filter="url(#f5psgb43byefd)" height="73.112" rx="26.0417" ry="26.0417" style="stroke:#A80036;stroke-width:3.125;" width="339.5833" x="1202.0833" y="313.09"/><text fill="#000000" font-family="sans-serif" font-size="25" lengthAdjust="spacing" textLength="122.9167" x="1222.9167" y="359.8755">navigate to</text><text fill="#FF0000" font-family="sans-serif" font-size="25" font-weight="bold" lengthAdjust="spacing" textLength="112.5" x="1352.0833" y="359.8755">Add Buss</text><text fill="#000000" font-family="sans-serif" font-size="25" lengthAdjust="spacing" textLength="50" x="1470.8333" y="359.8755">view</text><polygon fill="#FEFECE" filter="url(#f5psgb43byefd)" points="1309.375,813.8713,1434.375,813.8713,1459.375,838.8713,1434.375,863.8713,1309.375,863.8713,1284.375,838.8713,1309.375,813.8713" style="stroke:#A80036;stroke-width:3.125;"/><text fill="#000000" font-family="sans-serif" font-size="22.9167" lengthAdjust="spacing" textLength="125" x="1309.375" y="848.2483">is valid info?</text><text fill="#000000" font-family="sans-serif" font-size="22.9167" lengthAdjust="spacing" textLength="37.5" x="1246.875" y="833.8359">yes</text><text fill="#000000" font-family="sans-serif" font-size="22.9167" lengthAdjust="spacing" textLength="25" x="1459.375" y="833.8359">no</text><rect fill="#FEFECE" filter="url(#f5psgb43byefd)" height="73.112" rx="26.0417" ry="26.0417" style="stroke:#A80036;stroke-width:3.125;" width="343.75" x="1022.9167" y="884.7046"/><text fill="#000000" font-family="sans-serif" font-size="25" lengthAdjust="spacing" textLength="185.4167" x="1043.75" y="931.4901">add that Buss to</text><text fill="#000000" font-family="sans-serif" font-size="25" font-weight="bold" lengthAdjust="spacing" textLength="110.4167" x="1235.4167" y="931.4901">Buss List</text><rect fill="#FEFECE" filter="url(#f5psgb43byefd)" height="73.112" rx="26.0417" ry="26.0417" style="stroke:#A80036;stroke-width:3.125;" width="281.25" x="1408.3333" y="884.7046"/><text fill="#000000" font-family="sans-serif" font-size="25" lengthAdjust="spacing" textLength="239.5833" x="1429.1667" y="931.4901">show error message</text><ellipse cx="1548.9583" cy="1020.3166" fill="#FFFFFF" filter="url(#f5psgb43byefd)" rx="20.8333" ry="20.8333" style="stroke:#000000;stroke-width:3.125;"/><line style="stroke:#000000;stroke-width:5.208333333333334;" x1="1536.0684" x2="1561.8483" y1="1007.4266" y2="1033.2065"/><line style="stroke:#000000;stroke-width:5.208333333333334;" x1="1561.8483" x2="1536.0684" y1="1007.4266" y2="1033.2065"/><rect fill="#FEFECE" filter="url(#f5psgb43byefd)" height="73.112" rx="26.0417" ry="26.0417" style="stroke:#A80036;stroke-width:3.125;" width="395.8333" x="1173.9583" y="1082.8166"/><text fill="#000000" font-family="sans-serif" font-size="25" lengthAdjust="spacing" textLength="122.9167" x="1194.7917" y="1129.6021">navigate to</text><text fill="#FF0000" font-family="sans-serif" font-size="25" font-weight="bold" lengthAdjust="spacing" textLength="168.75" x="1323.9583" y="1129.6021">List of Busses</text><text fill="#000000" font-family="sans-serif" font-size="25" lengthAdjust="spacing" textLength="50" x="1498.9583" y="1129.6021">view</text><ellipse cx="1371.875" cy="1218.4285" fill="#FFFFFF" filter="url(#f5psgb43byefd)" rx="20.8333" ry="20.8333" style="stroke:#000000;stroke-width:3.125;"/><line style="stroke:#000000;stroke-width:5.208333333333334;" x1="1358.985" x2="1384.765" y1="1205.5386" y2="1231.3185"/><line style="stroke:#000000;stroke-width:5.208333333333334;" x1="1384.765" x2="1358.985" y1="1205.5386" y2="1231.3185"/><line style="stroke:#000000;stroke-width:4.166666666666667;" x1="1010.4167" x2="1010.4167" y1="25.9481" y2="1239.2619"/><line style="stroke:#000000;stroke-width:4.166666666666667;" x1="1710.4167" x2="1710.4167" y1="25.9481" y2="1239.2619"/><line style="stroke:#A80036;stroke-width:3.125;" x1="497.9167" x2="497.9167" y1="156.6447" y2="198.3114"/><polygon fill="#A80036" points="489.5833,177.478,497.9167,198.3114,506.25,177.478,497.9167,185.8114" style="stroke:#A80036;stroke-width:2.0833333333333335;"/><line style="stroke:#A80036;stroke-width:3.125;" x1="157.2917" x2="157.2917" y1="440.3687" y2="482.0353"/><polygon fill="#A80036" points="148.9583,461.202,157.2917,482.0353,165.625,461.202,157.2917,469.5353" style="stroke:#A80036;stroke-width:2.0833333333333335;"/><line style="stroke:#A80036;stroke-width:3.125;" x1="429.1667" x2="429.1667" y1="440.3687" y2="497.758"/><polygon fill="#A80036" points="420.8333,476.9246,429.1667,497.758,437.5,476.9246,429.1667,485.258" style="stroke:#A80036;stroke-width:2.0833333333333335;"/><line style="stroke:#A80036;stroke-width:3.125;" x1="807.2917" x2="807.2917" y1="440.3687" y2="497.758"/><polygon fill="#A80036" points="798.9583,476.9246,807.2917,497.758,815.625,476.9246,807.2917,485.258" style="stroke:#A80036;stroke-width:2.0833333333333335;"/><line style="stroke:#A80036;stroke-width:3.125;" x1="157.2917" x2="157.2917" y1="586.5926" y2="632.4259"/><line style="stroke:#A80036;stroke-width:3.125;" x1="157.2917" x2="472.9167" y1="632.4259" y2="632.4259"/><polygon fill="#A80036" points="452.0833,624.0926,472.9167,632.4259,452.0833,640.7593,460.4167,632.4259" style="stroke:#A80036;stroke-width:2.0833333333333335;"/><line style="stroke:#A80036;stroke-width:3.125;" x1="429.1667" x2="429.1667" y1="570.87" y2="632.4259"/><line style="stroke:#A80036;stroke-width:3.125;" x1="429.1667" x2="522.9167" y1="632.4259" y2="632.4259"/><polygon fill="#A80036" points="543.75,624.0926,522.9167,632.4259,543.75,640.7593,535.4167,632.4259" style="stroke:#A80036;stroke-width:2.0833333333333335;"/><line style="stroke:#A80036;stroke-width:3.125;" x1="807.2917" x2="807.2917" y1="570.87" y2="657.4259"/><line style="stroke:#A80036;stroke-width:3.125;" x1="807.2917" x2="497.9167" y1="657.4259" y2="657.4259"/><line style="stroke:#A80036;stroke-width:3.125;" x1="497.9167" x2="497.9167" y1="657.4259" y2="699.0926"/><polygon fill="#A80036" points="489.5833,678.2593,497.9167,699.0926,506.25,678.2593,497.9167,686.5926" style="stroke:#A80036;stroke-width:2.0833333333333335;"/><line style="stroke:#A80036;stroke-width:3.125;" x1="1548.9583" x2="1548.9583" y1="957.8166" y2="999.4832"/><polygon fill="#A80036" points="1540.625,978.6499,1548.9583,999.4832,1557.2917,978.6499,1548.9583,986.9832" style="stroke:#A80036;stroke-width:2.0833333333333335;"/><line style="stroke:#A80036;stroke-width:3.125;" x1="1284.375" x2="1194.7917" y1="838.8713" y2="838.8713"/><line style="stroke:#A80036;stroke-width:3.125;" x1="1194.7917" x2="1194.7917" y1="838.8713" y2="884.7046"/><polygon fill="#A80036" points="1186.4583,863.8713,1194.7917,884.7046,1203.125,863.8713,1194.7917,872.2046" style="stroke:#A80036;stroke-width:2.0833333333333335;"/><line style="stroke:#A80036;stroke-width:3.125;" x1="1459.375" x2="1548.9583" y1="838.8713" y2="838.8713"/><line style="stroke:#A80036;stroke-width:3.125;" x1="1548.9583" x2="1548.9583" y1="838.8713" y2="884.7046"/><polygon fill="#A80036" points="1540.625,863.8713,1548.9583,884.7046,1557.2917,863.8713,1548.9583,872.2046" style="stroke:#A80036;stroke-width:2.0833333333333335;"/><line style="stroke:#A80036;stroke-width:3.125;" x1="1194.7917" x2="1194.7917" y1="957.8166" y2="1051.5666"/><line style="stroke:#A80036;stroke-width:3.125;" x1="1194.7917" x2="1371.875" y1="1051.5666" y2="1051.5666"/><line style="stroke:#A80036;stroke-width:3.125;" x1="1371.875" x2="1371.875" y1="1051.5666" y2="1082.8166"/><polygon fill="#A80036" points="1363.5417,1061.9832,1371.875,1082.8166,1380.2083,1061.9832,1371.875,1070.3166" style="stroke:#A80036;stroke-width:2.0833333333333335;"/><line style="stroke:#A80036;stroke-width:3.125;" x1="1371.875" x2="1371.875" y1="1155.9285" y2="1197.5952"/><polygon fill="#A80036" points="1363.5417,1176.7619,1371.875,1197.5952,1380.2083,1176.7619,1371.875,1185.0952" style="stroke:#A80036;stroke-width:2.0833333333333335;"/><line style="stroke:#A80036;stroke-width:3.125;" x1="497.9167" x2="497.9167" y1="271.4233" y2="281.84"/><line style="stroke:#A80036;stroke-width:3.125;" x1="497.9167" x2="1371.875" y1="281.84" y2="281.84"/><line style="stroke:#A80036;stroke-width:3.125;" x1="1371.875" x2="1371.875" y1="281.84" y2="313.09"/><polygon fill="#A80036" points="1363.5417,292.2567,1371.875,313.09,1380.2083,292.2567,1371.875,300.59" style="stroke:#A80036;stroke-width:2.0833333333333335;"/><line style="stroke:#A80036;stroke-width:3.125;" x1="1371.875" x2="1371.875" y1="386.202" y2="396.6187"/><line style="stroke:#A80036;stroke-width:3.125;" x1="1371.875" x2="497.9167" y1="396.6187" y2="396.6187"/><line style="stroke:#A80036;stroke-width:3.125;" x1="497.9167" x2="497.9167" y1="396.6187" y2="427.8687"/><polygon fill="#A80036" points="489.5833,407.0353,497.9167,427.8687,506.25,407.0353,497.9167,415.3687" style="stroke:#A80036;stroke-width:2.0833333333333335;"/><line style="stroke:#A80036;stroke-width:3.125;" x1="497.9167" x2="497.9167" y1="772.2046" y2="782.6213"/><line style="stroke:#A80036;stroke-width:3.125;" x1="497.9167" x2="1371.875" y1="782.6213" y2="782.6213"/><line style="stroke:#A80036;stroke-width:3.125;" x1="1371.875" x2="1371.875" y1="782.6213" y2="813.8713"/><polygon fill="#A80036" points="1363.5417,793.0379,1371.875,813.8713,1380.2083,793.0379,1371.875,801.3713" style="stroke:#A80036;stroke-width:2.0833333333333335;"/><text fill="#000000" font-family="sans-serif" font-size="37.5" lengthAdjust="spacing" textLength="195.8333" x="422.9167" y="64.8763">Buss Admin</text><text fill="#000000" font-family="sans-serif" font-size="37.5" lengthAdjust="spacing" textLength="122.9167" x="1298.9583" y="64.8763">System</text><!--MD5=[a7a1a9d82072c0bdcbce032bc282a6c0]
@startuml
skinparam dpi 200

|Buss Admin|
#lightgreen:from <b>List of Busses</b> flow>
:click on <b><color:red>Add New</color></b> button;

|System|
:navigate to <b><color:red>Add Buss</color></b> view;

|Buss Admin|
fork
	:input name,
	description;
fork again
	:select buss type from list;
fork again
	:upload image (optional);
end merge

:Click <b><color:red>Add</color></b> button;

|System|

if (is valid info?) then (yes)
	:add that Buss to <b>Buss List</b>;
else (no)
	:show error message;
	end
endif
:navigate to <b><color:red>List of Busses</color></b> view;
end
@enduml

PlantUML version 1.2021.2(Sun Mar 07 18:10:27 ICT 2021)
(GPL source distribution)
Java Runtime: OpenJDK Runtime Environment
JVM: Eclipse OpenJ9 VM
Default Encoding: UTF-8
Language: en
Country: US
--></g></svg>