<?xml version="1.0" encoding="UTF-8" standalone="no"?><svg xmlns="http://www.w3.org/2000/svg" xmlns:xlink="http://www.w3.org/1999/xlink" contentScriptType="application/ecmascript" contentStyleType="text/css" height="1662.5px" preserveAspectRatio="none" style="width:1585px;height:1662px;" version="1.1" viewBox="0 0 1585 1662" width="1585.4167px" zoomAndPan="magnify"><defs><filter height="300%" id="f1rfet41tgcrmp" width="300%" x="-1" y="-1"><feGaussianBlur result="blurOut" stdDeviation="4.166666666666667"/><feColorMatrix in="blurOut" result="blurOut2" type="matrix" values="0 0 0 0 0 0 0 0 0 0 0 0 0 0 0 0 0 0 .4 0"/><feOffset dx="8.333333333333334" dy="8.333333333333334" in="blurOut2" result="blurOut3"/><feBlend in="SourceGraphic" in2="blurOut3" mode="normal"/></filter></defs><g><polygon fill="#90EE90" filter="url(#f1rfet41tgcrmp)" points="218.75,83.5327,681.25,83.5327,702.0833,120.0887,681.25,156.6447,218.75,156.6447" style="stroke:#A80036;stroke-width:3.125;"/><text fill="#000000" font-family="sans-serif" font-size="25" lengthAdjust="spacing" textLength="52.0833" x="239.5833" y="130.3182">from</text><text fill="#000000" font-family="sans-serif" font-size="25" font-weight="bold" lengthAdjust="spacing" textLength="310.4167" x="297.9167" y="130.3182">List of Buss Organizations</text><text fill="#000000" font-family="sans-serif" font-size="25" lengthAdjust="spacing" textLength="45.8333" x="614.5833" y="130.3182">flow</text><rect fill="#FEFECE" filter="url(#f1rfet41tgcrmp)" height="73.112" rx="26.0417" ry="26.0417" style="stroke:#A80036;stroke-width:3.125;" width="372.9167" x="263.5417" y="198.3114"/><text fill="#000000" font-family="sans-serif" font-size="25" lengthAdjust="spacing" textLength="85.4167" x="284.375" y="245.0968">click on</text><text fill="#FF0000" font-family="sans-serif" font-size="25" font-weight="bold" lengthAdjust="spacing" textLength="162.5" x="376.0417" y="245.0968">Add Buss Org</text><text fill="#000000" font-family="sans-serif" font-size="25" lengthAdjust="spacing" textLength="70.8333" x="544.7917" y="245.0968">button</text><rect fill="#000000" filter="url(#f1rfet41tgcrmp)" height="12.5" rx="5.2083" ry="5.2083" style="stroke:#000000;stroke-width:2.0833333333333335;" width="812.5" x="43.75" y="427.8687"/><rect fill="#FEFECE" filter="url(#f1rfet41tgcrmp)" height="104.5573" rx="26.0417" ry="26.0417" style="stroke:#A80036;stroke-width:3.125;" width="437.5" x="68.75" y="513.4806"/><text fill="#000000" font-family="sans-serif" font-size="25" lengthAdjust="spacing" textLength="222.9167" x="89.5833" y="560.2661">choose 1 user from</text><text fill="#000000" font-family="sans-serif" font-size="25" font-weight="bold" lengthAdjust="spacing" textLength="166.6667" x="318.75" y="560.2661">select 1 menu</text><text fill="#000000" font-family="sans-serif" font-size="25" lengthAdjust="spacing" textLength="208.3333" x="89.5833" y="591.7114">to set Buss Admin</text><rect fill="#FEFECE" filter="url(#f1rfet41tgcrmp)" height="167.4479" rx="26.0417" ry="26.0417" style="stroke:#A80036;stroke-width:3.125;" width="266.6667" x="564.5833" y="482.0353"/><text fill="#000000" font-family="sans-serif" font-size="25" lengthAdjust="spacing" textLength="56.25" x="585.4167" y="528.8208">input</text><text fill="#000000" font-family="sans-serif" font-size="25" font-weight="bold" lengthAdjust="spacing" textLength="218.75" x="585.4167" y="560.2661">organization name</text><text fill="#000000" font-family="sans-serif" font-size="25" lengthAdjust="spacing" textLength="6.25" x="804.1667" y="560.2661">,</text><text fill="#000000" font-family="sans-serif" font-size="25" font-weight="bold" lengthAdjust="spacing" textLength="133.3333" x="585.4167" y="591.7114">description</text><text fill="#000000" font-family="sans-serif" font-size="25" lengthAdjust="spacing" textLength="6.25" x="718.75" y="591.7114">,</text><text fill="#000000" font-family="sans-serif" font-size="25" font-weight="bold" lengthAdjust="spacing" textLength="72.9167" x="585.4167" y="623.1567">image</text><polygon fill="#FEFECE" filter="url(#f1rfet41tgcrmp)" points="450,670.3166,475,695.3166,450,720.3166,425,695.3166,450,670.3166" style="stroke:#A80036;stroke-width:3.125;"/><rect fill="#FEFECE" filter="url(#f1rfet41tgcrmp)" height="73.112" rx="26.0417" ry="26.0417" style="stroke:#A80036;stroke-width:3.125;" width="279.1667" x="310.4167" y="761.9832"/><text fill="#000000" font-family="sans-serif" font-size="25" lengthAdjust="spacing" textLength="50" x="331.25" y="808.7687">click</text><text fill="#FF0000" font-family="sans-serif" font-size="25" font-weight="bold" lengthAdjust="spacing" textLength="104.1667" x="387.5" y="808.7687">Add Now</text><text fill="#000000" font-family="sans-serif" font-size="25" lengthAdjust="spacing" textLength="70.8333" x="497.9167" y="808.7687">button</text><line style="stroke:#000000;stroke-width:4.166666666666667;" x1="31.25" x2="31.25" y1="25.9481" y2="1628.8452"/><rect fill="#FEFECE" filter="url(#f1rfet41tgcrmp)" height="73.112" rx="26.0417" ry="26.0417" style="stroke:#A80036;stroke-width:3.125;" width="529.1667" x="942.7083" y="313.09"/><text fill="#000000" font-family="sans-serif" font-size="25" lengthAdjust="spacing" textLength="122.9167" x="963.5417" y="359.8755">navigate to</text><text fill="#000000" font-family="sans-serif" font-size="25" font-weight="bold" lengthAdjust="spacing" textLength="302.0833" x="1092.7083" y="359.8755">Create Buss Organization</text><text fill="#000000" font-family="sans-serif" font-size="25" lengthAdjust="spacing" textLength="50" x="1401.0417" y="359.8755">view</text><rect fill="#FEFECE" filter="url(#f1rfet41tgcrmp)" height="73.112" rx="26.0417" ry="26.0417" style="stroke:#A80036;stroke-width:3.125;" width="300" x="1057.2917" y="986.3241"/><text fill="#000000" font-family="sans-serif" font-size="25" lengthAdjust="spacing" textLength="258.3333" x="1078.125" y="1033.1095">display error message</text><ellipse cx="1207.2917" cy="1134.5093" fill="#FFFFFF" filter="url(#f1rfet41tgcrmp)" rx="20.8333" ry="20.8333" style="stroke:#000000;stroke-width:3.125;"/><line style="stroke:#000000;stroke-width:5.208333333333334;" x1="1194.4017" x2="1220.1816" y1="1121.6193" y2="1147.3992"/><line style="stroke:#000000;stroke-width:5.208333333333334;" x1="1220.1816" x2="1194.4017" y1="1121.6193" y2="1147.3992"/><polygon fill="#FEFECE" filter="url(#f1rfet41tgcrmp)" points="977.0833,876.7619,1437.5,876.7619,1462.5,905.5868,1437.5,934.4116,977.0833,934.4116,952.0833,905.5868,977.0833,876.7619" style="stroke:#A80036;stroke-width:3.125;"/><text fill="#000000" font-family="sans-serif" font-size="22.9167" lengthAdjust="spacing" textLength="25" x="1215.625" y="958.2011">no</text><text fill="#000000" font-family="sans-serif" font-size="22.9167" font-weight="bold" lengthAdjust="spacing" textLength="177.0833" x="977.0833" y="900.5514">Buss Org name</text><text fill="#000000" font-family="sans-serif" font-size="22.9167" lengthAdjust="spacing" textLength="189.5833" x="1160.4167" y="900.5514">valid and available,</text><text fill="#000000" font-family="sans-serif" font-size="22.9167" lengthAdjust="spacing" textLength="37.5" x="1027.0833" y="929.3762">and</text><text fill="#000000" font-family="sans-serif" font-size="22.9167" font-weight="bold" lengthAdjust="spacing" textLength="160.4167" x="1070.8333" y="929.3762">selected user</text><text fill="#000000" font-family="sans-serif" font-size="22.9167" lengthAdjust="spacing" textLength="200" x="1237.5" y="929.3762">is not a Buss Admin</text><text fill="#000000" font-family="sans-serif" font-size="22.9167" lengthAdjust="spacing" textLength="37.5" x="1462.5" y="900.5514">yes</text><rect fill="#FEFECE" filter="url(#f1rfet41tgcrmp)" height="73.112" rx="26.0417" ry="26.0417" style="stroke:#A80036;stroke-width:3.125;" width="450" x="982.2917" y="1242.8426"/><text fill="#000000" font-family="sans-serif" font-size="25" lengthAdjust="spacing" textLength="43.75" x="1003.125" y="1289.6281">add</text><text fill="#000000" font-family="sans-serif" font-size="25" font-weight="bold" lengthAdjust="spacing" textLength="216.6667" x="1053.125" y="1289.6281">Buss Organization</text><text fill="#000000" font-family="sans-serif" font-size="25" lengthAdjust="spacing" textLength="135.4167" x="1276.0417" y="1289.6281">to database</text><rect fill="#FEFECE" filter="url(#f1rfet41tgcrmp)" height="73.112" rx="26.0417" ry="26.0417" style="stroke:#A80036;stroke-width:3.125;" width="412.5" x="1001.0417" y="1357.6213"/><text fill="#000000" font-family="sans-serif" font-size="25" lengthAdjust="spacing" textLength="370.8333" x="1021.875" y="1404.4067">add that user to Buss Admin List</text><rect fill="#FEFECE" filter="url(#f1rfet41tgcrmp)" height="73.112" rx="26.0417" ry="26.0417" style="stroke:#A80036;stroke-width:3.125;" width="635.4167" x="889.5833" y="1472.3999"/><text fill="#000000" font-family="sans-serif" font-size="25" lengthAdjust="spacing" textLength="593.75" x="910.4167" y="1519.1854">turn off modal and show new Buss Organization List</text><ellipse cx="1207.2917" cy="1608.0119" fill="#FFFFFF" filter="url(#f1rfet41tgcrmp)" rx="20.8333" ry="20.8333" style="stroke:#000000;stroke-width:3.125;"/><line style="stroke:#000000;stroke-width:5.208333333333334;" x1="1194.4017" x2="1220.1816" y1="1595.1219" y2="1620.9018"/><line style="stroke:#000000;stroke-width:5.208333333333334;" x1="1220.1816" x2="1194.4017" y1="1595.1219" y2="1620.9018"/><line style="stroke:#000000;stroke-width:4.166666666666667;" x1="877.0833" x2="877.0833" y1="25.9481" y2="1628.8452"/><line style="stroke:#000000;stroke-width:4.166666666666667;" x1="1545.8333" x2="1545.8333" y1="25.9481" y2="1628.8452"/><line style="stroke:#A80036;stroke-width:3.125;" x1="450" x2="450" y1="156.6447" y2="198.3114"/><polygon fill="#A80036" points="441.6667,177.478,450,198.3114,458.3333,177.478,450,185.8114" style="stroke:#A80036;stroke-width:2.0833333333333335;"/><line style="stroke:#A80036;stroke-width:3.125;" x1="287.5" x2="287.5" y1="440.3687" y2="513.4806"/><polygon fill="#A80036" points="279.1667,492.6473,287.5,513.4806,295.8333,492.6473,287.5,500.9806" style="stroke:#A80036;stroke-width:2.0833333333333335;"/><line style="stroke:#A80036;stroke-width:3.125;" x1="697.9167" x2="697.9167" y1="440.3687" y2="482.0353"/><polygon fill="#A80036" points="689.5833,461.202,697.9167,482.0353,706.25,461.202,697.9167,469.5353" style="stroke:#A80036;stroke-width:2.0833333333333335;"/><line style="stroke:#A80036;stroke-width:3.125;" x1="287.5" x2="287.5" y1="618.0379" y2="695.3166"/><line style="stroke:#A80036;stroke-width:3.125;" x1="287.5" x2="425" y1="695.3166" y2="695.3166"/><polygon fill="#A80036" points="404.1667,686.9832,425,695.3166,404.1667,703.6499,412.5,695.3166" style="stroke:#A80036;stroke-width:2.0833333333333335;"/><line style="stroke:#A80036;stroke-width:3.125;" x1="697.9167" x2="697.9167" y1="649.4832" y2="695.3166"/><line style="stroke:#A80036;stroke-width:3.125;" x1="697.9167" x2="475" y1="695.3166" y2="695.3166"/><polygon fill="#A80036" points="495.8333,686.9832,475,695.3166,495.8333,703.6499,487.5,695.3166" style="stroke:#A80036;stroke-width:2.0833333333333335;"/><line style="stroke:#A80036;stroke-width:3.125;" x1="450" x2="450" y1="720.3166" y2="761.9832"/><polygon fill="#A80036" points="441.6667,741.1499,450,761.9832,458.3333,741.1499,450,749.4832" style="stroke:#A80036;stroke-width:2.0833333333333335;"/><line style="stroke:#A80036;stroke-width:3.125;" x1="1207.2917" x2="1207.2917" y1="1059.436" y2="1113.6759"/><polygon fill="#A80036" points="1198.9583,1092.8426,1207.2917,1113.6759,1215.625,1092.8426,1207.2917,1101.1759" style="stroke:#A80036;stroke-width:2.0833333333333335;"/><line style="stroke:#A80036;stroke-width:3.125;" x1="1207.2917" x2="1207.2917" y1="934.4116" y2="986.3241"/><polygon fill="#A80036" points="1198.9583,965.4907,1207.2917,986.3241,1215.625,965.4907,1207.2917,973.8241" style="stroke:#A80036;stroke-width:2.0833333333333335;"/><line style="stroke:#A80036;stroke-width:3.125;" x1="1462.5" x2="1487.5" y1="905.5868" y2="905.5868"/><polygon fill="#A80036" points="1479.1667,1051.1759,1487.5,1072.0093,1495.8333,1051.1759,1487.5,1059.5093" style="stroke:#A80036;stroke-width:3.125;"/><line style="stroke:#A80036;stroke-width:3.125;" x1="1487.5" x2="1487.5" y1="905.5868" y2="1201.1759"/><line style="stroke:#A80036;stroke-width:3.125;" x1="1487.5" x2="1207.2917" y1="1201.1759" y2="1201.1759"/><line style="stroke:#A80036;stroke-width:3.125;" x1="1207.2917" x2="1207.2917" y1="1201.1759" y2="1242.8426"/><polygon fill="#A80036" points="1198.9583,1222.0093,1207.2917,1242.8426,1215.625,1222.0093,1207.2917,1230.3426" style="stroke:#A80036;stroke-width:2.0833333333333335;"/><line style="stroke:#A80036;stroke-width:3.125;" x1="1207.2917" x2="1207.2917" y1="1315.9546" y2="1357.6213"/><polygon fill="#A80036" points="1198.9583,1336.7879,1207.2917,1357.6213,1215.625,1336.7879,1207.2917,1345.1213" style="stroke:#A80036;stroke-width:2.0833333333333335;"/><line style="stroke:#A80036;stroke-width:3.125;" x1="1207.2917" x2="1207.2917" y1="1430.7332" y2="1472.3999"/><polygon fill="#A80036" points="1198.9583,1451.5666,1207.2917,1472.3999,1215.625,1451.5666,1207.2917,1459.8999" style="stroke:#A80036;stroke-width:2.0833333333333335;"/><line style="stroke:#A80036;stroke-width:3.125;" x1="1207.2917" x2="1207.2917" y1="1545.5119" y2="1587.1785"/><polygon fill="#A80036" points="1198.9583,1566.3452,1207.2917,1587.1785,1215.625,1566.3452,1207.2917,1574.6785" style="stroke:#A80036;stroke-width:2.0833333333333335;"/><line style="stroke:#A80036;stroke-width:3.125;" x1="450" x2="450" y1="271.4233" y2="281.84"/><line style="stroke:#A80036;stroke-width:3.125;" x1="450" x2="1207.2917" y1="281.84" y2="281.84"/><line style="stroke:#A80036;stroke-width:3.125;" x1="1207.2917" x2="1207.2917" y1="281.84" y2="313.09"/><polygon fill="#A80036" points="1198.9583,292.2567,1207.2917,313.09,1215.625,292.2567,1207.2917,300.59" style="stroke:#A80036;stroke-width:2.0833333333333335;"/><line style="stroke:#A80036;stroke-width:3.125;" x1="1207.2917" x2="1207.2917" y1="386.202" y2="396.6187"/><line style="stroke:#A80036;stroke-width:3.125;" x1="1207.2917" x2="450" y1="396.6187" y2="396.6187"/><line style="stroke:#A80036;stroke-width:3.125;" x1="450" x2="450" y1="396.6187" y2="427.8687"/><polygon fill="#A80036" points="441.6667,407.0353,450,427.8687,458.3333,407.0353,450,415.3687" style="stroke:#A80036;stroke-width:2.0833333333333335;"/><line style="stroke:#A80036;stroke-width:3.125;" x1="450" x2="450" y1="835.0952" y2="845.5119"/><line style="stroke:#A80036;stroke-width:3.125;" x1="450" x2="1207.2917" y1="845.5119" y2="845.5119"/><line style="stroke:#A80036;stroke-width:3.125;" x1="1207.2917" x2="1207.2917" y1="845.5119" y2="876.7619"/><polygon fill="#A80036" points="1198.9583,855.9285,1207.2917,876.7619,1215.625,855.9285,1207.2917,864.2619" style="stroke:#A80036;stroke-width:2.0833333333333335;"/><text fill="#000000" font-family="sans-serif" font-size="37.5" lengthAdjust="spacing" textLength="175" x="366.6667" y="64.8763">Sys Admin</text><text fill="#000000" font-family="sans-serif" font-size="37.5" lengthAdjust="spacing" textLength="122.9167" x="1150" y="64.8763">System</text><!--MD5=[2552554ce7c3e11c8f440dfb9c9ecbe7]
@startuml
skinparam dpi 200

|Sys Admin|
#lightgreen:from <b>List of Buss Organizations</b> flow>
:click on <b><color:red>Add Buss Org</color></b> button;

|System|
:navigate to <b>Create Buss Organization</b> view;

|Sys Admin|
fork
:choose 1 user from <b>select 1 menu</b>
to set Buss Admin;
fork again
:input
<b>organization name</b>,
<b>description</b>,
<b>image</b>;
end merge
:click <b><color:red>Add Now</color></b> button;

|System|

if (<b>Buss Org name</b> valid and available,
	and <b>selected user</b> is not a Buss Admin) then (no)
	:display error message;
	end
else (yes)
endif

:add <b>Buss Organization</b> to database;
:add that user to Buss Admin List;
:turn off modal and show new Buss Organization List;
end
@enduml

PlantUML version 1.2021.2(Sun Mar 07 18:10:27 ICT 2021)
(GPL source distribution)
Java Runtime: OpenJDK Runtime Environment
JVM: Eclipse OpenJ9 VM
Default Encoding: UTF-8
Language: en
Country: US
--></g></svg>