<?xml version="1.0" encoding="UTF-8" standalone="no"?><svg xmlns="http://www.w3.org/2000/svg" xmlns:xlink="http://www.w3.org/1999/xlink" contentScriptType="application/ecmascript" contentStyleType="text/css" height="1443.75px" preserveAspectRatio="none" style="width:1437px;height:1443px;" version="1.1" viewBox="0 0 1437 1443" width="1437.5px" zoomAndPan="magnify"><defs><filter height="300%" id="f1d45xgeqo2l6z" width="300%" x="-1" y="-1"><feGaussianBlur result="blurOut" stdDeviation="4.166666666666667"/><feColorMatrix in="blurOut" result="blurOut2" type="matrix" values="0 0 0 0 0 0 0 0 0 0 0 0 0 0 0 0 0 0 .4 0"/><feOffset dx="8.333333333333334" dy="8.333333333333334" in="blurOut2" result="blurOut3"/><feBlend in="SourceGraphic" in2="blurOut3" mode="normal"/></filter></defs><g><polygon fill="#90EE90" filter="url(#f1d45xgeqo2l6z)" points="62.5,83.5327,470.8333,83.5327,491.6667,135.8114,470.8333,188.09,62.5,188.09" style="stroke:#A80036;stroke-width:3.125;"/><text fill="#000000" font-family="sans-serif" font-size="25" lengthAdjust="spacing" textLength="145.8333" x="83.3333" y="130.3182">Từ màn hình</text><text fill="#000000" font-family="sans-serif" font-size="25" font-weight="bold" lengthAdjust="spacing" textLength="360.4167" x="83.3333" y="161.7635">Danh sách Nhân Viên Tổng Đài</text><text fill="#000000" font-family="sans-serif" font-size="25" lengthAdjust="spacing" textLength="0" x="450" y="161.7635"/><rect fill="#FEFECE" filter="url(#f1d45xgeqo2l6z)" height="104.5573" rx="26.0417" ry="26.0417" style="stroke:#A80036;stroke-width:3.125;" width="233.3333" x="150" y="229.7567"/><text fill="#000000" font-family="sans-serif" font-size="25" lengthAdjust="spacing" textLength="97.9167" x="170.8333" y="276.5422">Click nút</text><text fill="#000000" font-family="sans-serif" font-size="25" font-weight="bold" lengthAdjust="spacing" textLength="191.6667" x="170.8333" y="307.9875">Thêm Nhân Viên</text><rect fill="#FEFECE" filter="url(#f1d45xgeqo2l6z)" height="104.5573" rx="26.0417" ry="26.0417" style="stroke:#A80036;stroke-width:3.125;" width="281.25" x="126.0417" y="522.2046"/><text fill="#000000" font-family="sans-serif" font-size="25" lengthAdjust="spacing" textLength="222.9167" x="146.875" y="568.9901">Chọn 1 người dùng</text><text fill="#000000" font-family="sans-serif" font-size="25" lengthAdjust="spacing" textLength="239.5833" x="146.875" y="600.4354">từ danh sách hiển thị</text><rect fill="#FEFECE" filter="url(#f1d45xgeqo2l6z)" height="104.5573" rx="26.0417" ry="26.0417" style="stroke:#A80036;stroke-width:3.125;" width="139.5833" x="196.875" y="668.4285"/><text fill="#000000" font-family="sans-serif" font-size="25" lengthAdjust="spacing" textLength="97.9167" x="217.7083" y="715.214">Click nút</text><text fill="#000000" font-family="sans-serif" font-size="25" font-weight="bold" lengthAdjust="spacing" textLength="81.25" x="217.7083" y="746.6593">Đồng ý</text><line style="stroke:#000000;stroke-width:4.166666666666667;" x1="31.25" x2="31.25" y1="25.9481" y2="1408.8908"/><rect fill="#FEFECE" filter="url(#f1d45xgeqo2l6z)" height="104.5573" rx="26.0417" ry="26.0417" style="stroke:#A80036;stroke-width:3.125;" width="343.75" x="767.7083" y="375.9806"/><text fill="#000000" font-family="sans-serif" font-size="25" lengthAdjust="spacing" textLength="237.5" x="788.5417" y="422.7661">Chuyển tới màn hình</text><text fill="#000000" font-family="sans-serif" font-size="25" font-weight="bold" lengthAdjust="spacing" textLength="302.0833" x="788.5417" y="454.2114">Thêm Nhân Viên Tổng Đài</text><polygon fill="#FEFECE" filter="url(#f1d45xgeqo2l6z)" points="752.0833,814.6525,1127.0833,814.6525,1152.0833,843.4774,1127.0833,872.3022,752.0833,872.3022,727.0833,843.4774,752.0833,814.6525" style="stroke:#A80036;stroke-width:3.125;"/><text fill="#000000" font-family="sans-serif" font-size="22.9167" lengthAdjust="spacing" textLength="185.4167" x="752.0833" y="838.442">Người này chưa là</text><text fill="#000000" font-family="sans-serif" font-size="22.9167" lengthAdjust="spacing" textLength="375" x="752.0833" y="867.2668">Nhân Viên Tổng Đài của nhà xe này?</text><text fill="#000000" font-family="sans-serif" font-size="22.9167" lengthAdjust="spacing" textLength="54.1667" x="672.9167" y="838.442">Đúng</text><text fill="#000000" font-family="sans-serif" font-size="22.9167" lengthAdjust="spacing" textLength="31.25" x="1152.0833" y="838.442">Sai</text><rect fill="#FEFECE" filter="url(#f1d45xgeqo2l6z)" height="104.5573" rx="26.0417" ry="26.0417" style="stroke:#A80036;stroke-width:3.125;" width="341.6667" x="535.4167" y="893.1356"/><text fill="#000000" font-family="sans-serif" font-size="25" lengthAdjust="spacing" textLength="252.0833" x="556.25" y="939.9211">Thêm người dùng này</text><text fill="#000000" font-family="sans-serif" font-size="25" lengthAdjust="spacing" textLength="300" x="556.25" y="971.3664">thành Nhân Viên Tổng Đài</text><rect fill="#FEFECE" filter="url(#f1d45xgeqo2l6z)" height="104.5573" rx="26.0417" ry="26.0417" style="stroke:#A80036;stroke-width:3.125;" width="252.0833" x="580.2083" y="1070.6095"/><text fill="#000000" font-family="sans-serif" font-size="25" lengthAdjust="spacing" textLength="137.5" x="601.0417" y="1117.395">Cập nhật lại</text><text fill="#000000" font-family="sans-serif" font-size="25" lengthAdjust="spacing" textLength="210.4167" x="601.0417" y="1148.8403">danh sách hiển thị</text><rect fill="#FEFECE" filter="url(#f1d45xgeqo2l6z)" height="136.0026" rx="26.0417" ry="26.0417" style="stroke:#A80036;stroke-width:3.125;" width="406.25" x="969.7917" y="893.1356"/><text fill="#000000" font-family="sans-serif" font-size="25" lengthAdjust="spacing" textLength="185.4167" x="990.625" y="939.9211">Hiển thị tin nhắn</text><text fill="#000000" font-family="sans-serif" font-size="25" font-weight="bold" lengthAdjust="spacing" textLength="189.5833" x="990.625" y="971.3664">Người bạn chọn</text><text fill="#000000" font-family="sans-serif" font-size="25" font-weight="bold" lengthAdjust="spacing" textLength="364.5833" x="990.625" y="1002.8117">đang là Nhân Viên Tổng Đài rồi!</text><ellipse cx="1172.9167" cy="1122.8882" fill="#FFFFFF" filter="url(#f1d45xgeqo2l6z)" rx="20.8333" ry="20.8333" style="stroke:#000000;stroke-width:3.125;"/><line style="stroke:#000000;stroke-width:5.208333333333334;" x1="1160.0267" x2="1185.8066" y1="1109.9982" y2="1135.7782"/><line style="stroke:#000000;stroke-width:5.208333333333334;" x1="1185.8066" x2="1160.0267" y1="1109.9982" y2="1135.7782"/><rect fill="#FEFECE" filter="url(#f1d45xgeqo2l6z)" height="104.5573" rx="26.0417" ry="26.0417" style="stroke:#A80036;stroke-width:3.125;" width="402.0833" x="738.5417" y="1216.8335"/><text fill="#000000" font-family="sans-serif" font-size="25" lengthAdjust="spacing" textLength="237.5" x="759.375" y="1263.619">Chuyển tới màn hình</text><text fill="#000000" font-family="sans-serif" font-size="25" font-weight="bold" lengthAdjust="spacing" textLength="360.4167" x="759.375" y="1295.0643">Danh sách Nhân Viên Tổng Đài</text><ellipse cx="939.5833" cy="1385.9741" fill="#FFFFFF" filter="url(#f1d45xgeqo2l6z)" rx="22.9167" ry="22.9167" style="stroke:#000000;stroke-width:2.0833333333333335;"/><ellipse cx="939.5833" cy="1385.9741" fill="#000000" rx="12.5" ry="12.5" style="stroke:#7F7F7F;stroke-width:2.0833333333333335;"/><line style="stroke:#000000;stroke-width:4.166666666666667;" x1="522.9167" x2="522.9167" y1="25.9481" y2="1408.8908"/><line style="stroke:#000000;stroke-width:4.166666666666667;" x1="1396.875" x2="1396.875" y1="25.9481" y2="1408.8908"/><line style="stroke:#A80036;stroke-width:3.125;" x1="266.6667" x2="266.6667" y1="188.09" y2="229.7567"/><polygon fill="#A80036" points="258.3333,208.9233,266.6667,229.7567,275,208.9233,266.6667,217.2567" style="stroke:#A80036;stroke-width:2.0833333333333335;"/><line style="stroke:#A80036;stroke-width:3.125;" x1="266.6667" x2="266.6667" y1="626.7619" y2="668.4285"/><polygon fill="#A80036" points="258.3333,647.5952,266.6667,668.4285,275,647.5952,266.6667,655.9285" style="stroke:#A80036;stroke-width:2.0833333333333335;"/><line style="stroke:#A80036;stroke-width:3.125;" x1="706.25" x2="706.25" y1="997.6929" y2="1070.6095"/><polygon fill="#A80036" points="697.9167,1049.7762,706.25,1070.6095,714.5833,1049.7762,706.25,1058.1095" style="stroke:#A80036;stroke-width:2.0833333333333335;"/><line style="stroke:#A80036;stroke-width:3.125;" x1="1172.9167" x2="1172.9167" y1="1029.1382" y2="1102.0549"/><polygon fill="#A80036" points="1164.5833,1081.2215,1172.9167,1102.0549,1181.25,1081.2215,1172.9167,1089.5549" style="stroke:#A80036;stroke-width:2.0833333333333335;"/><line style="stroke:#A80036;stroke-width:3.125;" x1="727.0833" x2="706.25" y1="843.4774" y2="843.4774"/><line style="stroke:#A80036;stroke-width:3.125;" x1="706.25" x2="706.25" y1="843.4774" y2="893.1356"/><polygon fill="#A80036" points="697.9167,872.3022,706.25,893.1356,714.5833,872.3022,706.25,880.6356" style="stroke:#A80036;stroke-width:2.0833333333333335;"/><line style="stroke:#A80036;stroke-width:3.125;" x1="1152.0833" x2="1172.9167" y1="843.4774" y2="843.4774"/><line style="stroke:#A80036;stroke-width:3.125;" x1="1172.9167" x2="1172.9167" y1="843.4774" y2="893.1356"/><polygon fill="#A80036" points="1164.5833,872.3022,1172.9167,893.1356,1181.25,872.3022,1172.9167,880.6356" style="stroke:#A80036;stroke-width:2.0833333333333335;"/><line style="stroke:#A80036;stroke-width:3.125;" x1="706.25" x2="706.25" y1="1175.1668" y2="1185.5835"/><line style="stroke:#A80036;stroke-width:3.125;" x1="706.25" x2="939.5833" y1="1185.5835" y2="1185.5835"/><line style="stroke:#A80036;stroke-width:3.125;" x1="939.5833" x2="939.5833" y1="1185.5835" y2="1216.8335"/><polygon fill="#A80036" points="931.25,1196.0002,939.5833,1216.8335,947.9167,1196.0002,939.5833,1204.3335" style="stroke:#A80036;stroke-width:2.0833333333333335;"/><line style="stroke:#A80036;stroke-width:3.125;" x1="939.5833" x2="939.5833" y1="1321.3908" y2="1363.0575"/><polygon fill="#A80036" points="931.25,1342.2241,939.5833,1363.0575,947.9167,1342.2241,939.5833,1350.5575" style="stroke:#A80036;stroke-width:2.0833333333333335;"/><line style="stroke:#A80036;stroke-width:3.125;" x1="266.6667" x2="266.6667" y1="334.314" y2="344.7306"/><line style="stroke:#A80036;stroke-width:3.125;" x1="266.6667" x2="939.5833" y1="344.7306" y2="344.7306"/><line style="stroke:#A80036;stroke-width:3.125;" x1="939.5833" x2="939.5833" y1="344.7306" y2="375.9806"/><polygon fill="#A80036" points="931.25,355.1473,939.5833,375.9806,947.9167,355.1473,939.5833,363.4806" style="stroke:#A80036;stroke-width:2.0833333333333335;"/><line style="stroke:#A80036;stroke-width:3.125;" x1="939.5833" x2="939.5833" y1="480.5379" y2="490.9546"/><line style="stroke:#A80036;stroke-width:3.125;" x1="939.5833" x2="266.6667" y1="490.9546" y2="490.9546"/><line style="stroke:#A80036;stroke-width:3.125;" x1="266.6667" x2="266.6667" y1="490.9546" y2="522.2046"/><polygon fill="#A80036" points="258.3333,501.3713,266.6667,522.2046,275,501.3713,266.6667,509.7046" style="stroke:#A80036;stroke-width:2.0833333333333335;"/><line style="stroke:#A80036;stroke-width:3.125;" x1="266.6667" x2="266.6667" y1="772.9858" y2="783.4025"/><line style="stroke:#A80036;stroke-width:3.125;" x1="266.6667" x2="939.5833" y1="783.4025" y2="783.4025"/><line style="stroke:#A80036;stroke-width:3.125;" x1="939.5833" x2="939.5833" y1="783.4025" y2="814.6525"/><polygon fill="#A80036" points="931.25,793.8192,939.5833,814.6525,947.9167,793.8192,939.5833,802.1525" style="stroke:#A80036;stroke-width:2.0833333333333335;"/><text fill="#000000" font-family="sans-serif" font-size="37.5" lengthAdjust="spacing" textLength="281.25" x="141.6667" y="64.8763">Quản Trị Nhà Xe</text><text fill="#000000" font-family="sans-serif" font-size="37.5" lengthAdjust="spacing" textLength="152.0833" x="889.0625" y="64.8763">Hệ thống</text><!--MD5=[e90b31645494859ac34b4df32482e28f]
@startuml
skinparam dpi 200

|Buss Admin| Quản Trị Nhà Xe
	#lightgreen:Từ màn hình
	<b>Danh sách Nhân Viên Tổng Đài</b> >

	:Click nút
	<b>Thêm Nhân Viên</b>;

|System| Hệ thống
	:Chuyển tới màn hình
	<b>Thêm Nhân Viên Tổng Đài</b>;


|Buss Admin|
	:Chọn 1 người dùng
	từ danh sách hiển thị;

	:Click nút
	<b>Đồng ý</b>;

|System|

	if (Người này chưa là\nNhân Viên Tổng Đài của nhà xe này?) then (Đúng)

		:Thêm người dùng này
		thành Nhân Viên Tổng Đài;

		:Cập nhật lại
		danh sách hiển thị;

	else (Sai)
		:Hiển thị tin nhắn
		<b>Người bạn chọn</b>
		<b>đang là Nhân Viên Tổng Đài rồi!</b>;
		end
	endif

	:Chuyển tới màn hình
	<b>Danh sách Nhân Viên Tổng Đài</b>;

	stop
@enduml

PlantUML version 1.2021.2(Sun Mar 07 18:10:27 ICT 2021)
(GPL source distribution)
Java Runtime: OpenJDK Runtime Environment
JVM: Eclipse OpenJ9 VM
Default Encoding: UTF-8
Language: en
Country: US
--></g></svg>