<?xml version="1.0" encoding="UTF-8" standalone="no"?><svg xmlns="http://www.w3.org/2000/svg" xmlns:xlink="http://www.w3.org/1999/xlink" contentScriptType="application/ecmascript" contentStyleType="text/css" height="1589.5833px" preserveAspectRatio="none" style="width:1400px;height:1589px;" version="1.1" viewBox="0 0 1400 1589" width="1400px" zoomAndPan="magnify"><defs><filter height="300%" id="f54y2egwwrvus" width="300%" x="-1" y="-1"><feGaussianBlur result="blurOut" stdDeviation="4.166666666666667"/><feColorMatrix in="blurOut" result="blurOut2" type="matrix" values="0 0 0 0 0 0 0 0 0 0 0 0 0 0 0 0 0 0 .4 0"/><feOffset dx="8.333333333333334" dy="8.333333333333334" in="blurOut2" result="blurOut3"/><feBlend in="SourceGraphic" in2="blurOut3" mode="normal"/></filter></defs><g><polygon fill="#90EE90" filter="url(#f54y2egwwrvus)" points="62.5,83.5327,470.8333,83.5327,491.6667,135.8114,470.8333,188.09,62.5,188.09" style="stroke:#A80036;stroke-width:3.125;"/><text fill="#000000" font-family="sans-serif" font-size="25" lengthAdjust="spacing" textLength="145.8333" x="83.3333" y="130.3182">Từ màn hình</text><text fill="#000000" font-family="sans-serif" font-size="25" font-weight="bold" lengthAdjust="spacing" textLength="360.4167" x="83.3333" y="161.7635">Danh sách Nhân Viên Tổng Đài</text><text fill="#000000" font-family="sans-serif" font-size="25" lengthAdjust="spacing" textLength="0" x="450" y="161.7635"/><rect fill="#FEFECE" filter="url(#f54y2egwwrvus)" height="104.5573" rx="26.0417" ry="26.0417" style="stroke:#A80036;stroke-width:3.125;" width="270.8333" x="131.25" y="229.7567"/><text fill="#000000" font-family="sans-serif" font-size="25" lengthAdjust="spacing" textLength="97.9167" x="152.0833" y="276.5422">Click nút</text><text fill="#000000" font-family="sans-serif" font-size="25" font-weight="bold" lengthAdjust="spacing" textLength="229.1667" x="152.0833" y="307.9875">Thêm Nhân Viên Xe</text><rect fill="#FEFECE" filter="url(#f54y2egwwrvus)" height="104.5573" rx="26.0417" ry="26.0417" style="stroke:#A80036;stroke-width:3.125;" width="281.25" x="126.0417" y="522.2046"/><text fill="#000000" font-family="sans-serif" font-size="25" lengthAdjust="spacing" textLength="222.9167" x="146.875" y="568.9901">Chọn 1 người dùng</text><text fill="#000000" font-family="sans-serif" font-size="25" lengthAdjust="spacing" textLength="239.5833" x="146.875" y="600.4354">từ danh sách hiển thị</text><rect fill="#FEFECE" filter="url(#f54y2egwwrvus)" height="104.5573" rx="26.0417" ry="26.0417" style="stroke:#A80036;stroke-width:3.125;" width="164.5833" x="184.375" y="668.4285"/><text fill="#000000" font-family="sans-serif" font-size="25" lengthAdjust="spacing" textLength="97.9167" x="205.2083" y="715.214">Chọn Xe</text><text fill="#000000" font-family="sans-serif" font-size="25" lengthAdjust="spacing" textLength="122.9167" x="205.2083" y="746.6593">của nhà xe</text><rect fill="#FEFECE" filter="url(#f54y2egwwrvus)" height="104.5573" rx="26.0417" ry="26.0417" style="stroke:#A80036;stroke-width:3.125;" width="139.5833" x="196.875" y="814.6525"/><text fill="#000000" font-family="sans-serif" font-size="25" lengthAdjust="spacing" textLength="97.9167" x="217.7083" y="861.438">Click nút</text><text fill="#000000" font-family="sans-serif" font-size="25" font-weight="bold" lengthAdjust="spacing" textLength="81.25" x="217.7083" y="892.8833">Đồng ý</text><line style="stroke:#000000;stroke-width:4.166666666666667;" x1="31.25" x2="31.25" y1="25.9481" y2="1555.3101"/><rect fill="#FEFECE" filter="url(#f54y2egwwrvus)" height="104.5573" rx="26.0417" ry="26.0417" style="stroke:#A80036;stroke-width:3.125;" width="279.1667" x="754.1667" y="375.9806"/><text fill="#000000" font-family="sans-serif" font-size="25" lengthAdjust="spacing" textLength="237.5" x="775" y="422.7661">Chuyển tới màn hình</text><text fill="#000000" font-family="sans-serif" font-size="25" font-weight="bold" lengthAdjust="spacing" textLength="229.1667" x="775" y="454.2114">Thêm Nhân Viên Xe</text><polygon fill="#FEFECE" filter="url(#f54y2egwwrvus)" points="758.3333,960.8765,1029.1667,960.8765,1054.1667,989.7013,1029.1667,1018.5262,758.3333,1018.5262,733.3333,989.7013,758.3333,960.8765" style="stroke:#A80036;stroke-width:3.125;"/><text fill="#000000" font-family="sans-serif" font-size="22.9167" lengthAdjust="spacing" textLength="185.4167" x="758.3333" y="984.6659">Người này chưa là</text><text fill="#000000" font-family="sans-serif" font-size="22.9167" lengthAdjust="spacing" textLength="270.8333" x="758.3333" y="1013.4908">Nhân Viên Xe của Xe này?</text><text fill="#000000" font-family="sans-serif" font-size="22.9167" lengthAdjust="spacing" textLength="54.1667" x="679.1667" y="984.6659">Đúng</text><text fill="#000000" font-family="sans-serif" font-size="22.9167" lengthAdjust="spacing" textLength="31.25" x="1054.1667" y="984.6659">Sai</text><rect fill="#FEFECE" filter="url(#f54y2egwwrvus)" height="136.0026" rx="26.0417" ry="26.0417" style="stroke:#A80036;stroke-width:3.125;" width="293.75" x="535.4167" y="1039.3595"/><text fill="#000000" font-family="sans-serif" font-size="25" lengthAdjust="spacing" textLength="252.0833" x="556.25" y="1086.145">Thêm người dùng này</text><text fill="#000000" font-family="sans-serif" font-size="25" lengthAdjust="spacing" textLength="225" x="556.25" y="1117.5903">thành Nhân Viên Xe</text><text fill="#000000" font-family="sans-serif" font-size="25" lengthAdjust="spacing" textLength="206.25" x="556.25" y="1149.0356">của Xe được chọn</text><rect fill="#FEFECE" filter="url(#f54y2egwwrvus)" height="104.5573" rx="26.0417" ry="26.0417" style="stroke:#A80036;stroke-width:3.125;" width="252.0833" x="556.25" y="1217.0288"/><text fill="#000000" font-family="sans-serif" font-size="25" lengthAdjust="spacing" textLength="137.5" x="577.0833" y="1263.8143">Cập nhật lại</text><text fill="#000000" font-family="sans-serif" font-size="25" lengthAdjust="spacing" textLength="210.4167" x="577.0833" y="1295.2596">danh sách hiển thị</text><rect fill="#FEFECE" filter="url(#f54y2egwwrvus)" height="136.0026" rx="26.0417" ry="26.0417" style="stroke:#A80036;stroke-width:3.125;" width="468.75" x="870.8333" y="1039.3595"/><text fill="#000000" font-family="sans-serif" font-size="25" lengthAdjust="spacing" textLength="185.4167" x="891.6667" y="1086.145">Hiển thị tin nhắn</text><text fill="#000000" font-family="sans-serif" font-size="25" font-weight="bold" lengthAdjust="spacing" textLength="189.5833" x="891.6667" y="1117.5903">Người bạn chọn</text><text fill="#000000" font-family="sans-serif" font-size="25" font-weight="bold" lengthAdjust="spacing" textLength="427.0833" x="891.6667" y="1149.0356">đang là Nhân Viên Xe của Xe này rồi!</text><ellipse cx="1105.2083" cy="1237.8621" fill="#FFFFFF" filter="url(#f54y2egwwrvus)" rx="20.8333" ry="20.8333" style="stroke:#000000;stroke-width:3.125;"/><line style="stroke:#000000;stroke-width:5.208333333333334;" x1="1092.3184" x2="1118.0983" y1="1224.9722" y2="1250.7521"/><line style="stroke:#000000;stroke-width:5.208333333333334;" x1="1118.0983" x2="1092.3184" y1="1224.9722" y2="1250.7521"/><rect fill="#FEFECE" filter="url(#f54y2egwwrvus)" height="104.5573" rx="26.0417" ry="26.0417" style="stroke:#A80036;stroke-width:3.125;" width="329.1667" x="729.1667" y="1363.2528"/><text fill="#000000" font-family="sans-serif" font-size="25" lengthAdjust="spacing" textLength="237.5" x="750" y="1410.0382">Chuyển tới màn hình</text><text fill="#000000" font-family="sans-serif" font-size="25" font-weight="bold" lengthAdjust="spacing" textLength="287.5" x="750" y="1441.4836">Danh sách Nhân Viên Xe</text><ellipse cx="893.75" cy="1532.3934" fill="#FFFFFF" filter="url(#f54y2egwwrvus)" rx="22.9167" ry="22.9167" style="stroke:#000000;stroke-width:2.0833333333333335;"/><ellipse cx="893.75" cy="1532.3934" fill="#000000" rx="12.5" ry="12.5" style="stroke:#7F7F7F;stroke-width:2.0833333333333335;"/><line style="stroke:#000000;stroke-width:4.166666666666667;" x1="522.9167" x2="522.9167" y1="25.9481" y2="1555.3101"/><line style="stroke:#000000;stroke-width:4.166666666666667;" x1="1360.4167" x2="1360.4167" y1="25.9481" y2="1555.3101"/><line style="stroke:#A80036;stroke-width:3.125;" x1="266.6667" x2="266.6667" y1="188.09" y2="229.7567"/><polygon fill="#A80036" points="258.3333,208.9233,266.6667,229.7567,275,208.9233,266.6667,217.2567" style="stroke:#A80036;stroke-width:2.0833333333333335;"/><line style="stroke:#A80036;stroke-width:3.125;" x1="266.6667" x2="266.6667" y1="626.7619" y2="668.4285"/><polygon fill="#A80036" points="258.3333,647.5952,266.6667,668.4285,275,647.5952,266.6667,655.9285" style="stroke:#A80036;stroke-width:2.0833333333333335;"/><line style="stroke:#A80036;stroke-width:3.125;" x1="266.6667" x2="266.6667" y1="772.9858" y2="814.6525"/><polygon fill="#A80036" points="258.3333,793.8192,266.6667,814.6525,275,793.8192,266.6667,802.1525" style="stroke:#A80036;stroke-width:2.0833333333333335;"/><line style="stroke:#A80036;stroke-width:3.125;" x1="682.2917" x2="682.2917" y1="1175.3621" y2="1217.0288"/><polygon fill="#A80036" points="673.9583,1196.1955,682.2917,1217.0288,690.625,1196.1955,682.2917,1204.5288" style="stroke:#A80036;stroke-width:2.0833333333333335;"/><line style="stroke:#A80036;stroke-width:3.125;" x1="1105.2083" x2="1105.2083" y1="1175.3621" y2="1217.0288"/><polygon fill="#A80036" points="1096.875,1196.1955,1105.2083,1217.0288,1113.5417,1196.1955,1105.2083,1204.5288" style="stroke:#A80036;stroke-width:2.0833333333333335;"/><line style="stroke:#A80036;stroke-width:3.125;" x1="733.3333" x2="682.2917" y1="989.7013" y2="989.7013"/><line style="stroke:#A80036;stroke-width:3.125;" x1="682.2917" x2="682.2917" y1="989.7013" y2="1039.3595"/><polygon fill="#A80036" points="673.9583,1018.5262,682.2917,1039.3595,690.625,1018.5262,682.2917,1026.8595" style="stroke:#A80036;stroke-width:2.0833333333333335;"/><line style="stroke:#A80036;stroke-width:3.125;" x1="1054.1667" x2="1105.2083" y1="989.7013" y2="989.7013"/><line style="stroke:#A80036;stroke-width:3.125;" x1="1105.2083" x2="1105.2083" y1="989.7013" y2="1039.3595"/><polygon fill="#A80036" points="1096.875,1018.5262,1105.2083,1039.3595,1113.5417,1018.5262,1105.2083,1026.8595" style="stroke:#A80036;stroke-width:2.0833333333333335;"/><line style="stroke:#A80036;stroke-width:3.125;" x1="682.2917" x2="682.2917" y1="1321.5861" y2="1332.0028"/><line style="stroke:#A80036;stroke-width:3.125;" x1="682.2917" x2="893.75" y1="1332.0028" y2="1332.0028"/><line style="stroke:#A80036;stroke-width:3.125;" x1="893.75" x2="893.75" y1="1332.0028" y2="1363.2528"/><polygon fill="#A80036" points="885.4167,1342.4194,893.75,1363.2528,902.0833,1342.4194,893.75,1350.7528" style="stroke:#A80036;stroke-width:2.0833333333333335;"/><line style="stroke:#A80036;stroke-width:3.125;" x1="893.75" x2="893.75" y1="1467.8101" y2="1509.4767"/><polygon fill="#A80036" points="885.4167,1488.6434,893.75,1509.4767,902.0833,1488.6434,893.75,1496.9767" style="stroke:#A80036;stroke-width:2.0833333333333335;"/><line style="stroke:#A80036;stroke-width:3.125;" x1="266.6667" x2="266.6667" y1="334.314" y2="344.7306"/><line style="stroke:#A80036;stroke-width:3.125;" x1="266.6667" x2="893.75" y1="344.7306" y2="344.7306"/><line style="stroke:#A80036;stroke-width:3.125;" x1="893.75" x2="893.75" y1="344.7306" y2="375.9806"/><polygon fill="#A80036" points="885.4167,355.1473,893.75,375.9806,902.0833,355.1473,893.75,363.4806" style="stroke:#A80036;stroke-width:2.0833333333333335;"/><line style="stroke:#A80036;stroke-width:3.125;" x1="893.75" x2="893.75" y1="480.5379" y2="490.9546"/><line style="stroke:#A80036;stroke-width:3.125;" x1="893.75" x2="266.6667" y1="490.9546" y2="490.9546"/><line style="stroke:#A80036;stroke-width:3.125;" x1="266.6667" x2="266.6667" y1="490.9546" y2="522.2046"/><polygon fill="#A80036" points="258.3333,501.3713,266.6667,522.2046,275,501.3713,266.6667,509.7046" style="stroke:#A80036;stroke-width:2.0833333333333335;"/><line style="stroke:#A80036;stroke-width:3.125;" x1="266.6667" x2="266.6667" y1="919.2098" y2="929.6265"/><line style="stroke:#A80036;stroke-width:3.125;" x1="266.6667" x2="893.75" y1="929.6265" y2="929.6265"/><line style="stroke:#A80036;stroke-width:3.125;" x1="893.75" x2="893.75" y1="929.6265" y2="960.8765"/><polygon fill="#A80036" points="885.4167,940.0431,893.75,960.8765,902.0833,940.0431,893.75,948.3765" style="stroke:#A80036;stroke-width:2.0833333333333335;"/><text fill="#000000" font-family="sans-serif" font-size="37.5" lengthAdjust="spacing" textLength="281.25" x="141.6667" y="64.8763">Quản Trị Nhà Xe</text><text fill="#000000" font-family="sans-serif" font-size="37.5" lengthAdjust="spacing" textLength="152.0833" x="870.8333" y="64.8763">Hệ thống</text><!--MD5=[e3e40f54a064ff1041bac2890935eabd]
@startuml
skinparam dpi 200

|Buss Admin| Quản Trị Nhà Xe
	#lightgreen:Từ màn hình
	<b>Danh sách Nhân Viên Tổng Đài</b> >

	:Click nút
	<b>Thêm Nhân Viên Xe</b>;

|System| Hệ thống
	:Chuyển tới màn hình
	<b>Thêm Nhân Viên Xe</b>;


|Buss Admin|
	:Chọn 1 người dùng
	từ danh sách hiển thị;

	:Chọn Xe
	của nhà xe;

	:Click nút
	<b>Đồng ý</b>;

|System|

	if (Người này chưa là\nNhân Viên Xe của Xe này?) then (Đúng)

		:Thêm người dùng này
		thành Nhân Viên Xe
		của Xe được chọn;

		:Cập nhật lại
		danh sách hiển thị;

	else (Sai)
		:Hiển thị tin nhắn
		<b>Người bạn chọn</b>
		<b>đang là Nhân Viên Xe của Xe này rồi!</b>;
		end
	endif

	:Chuyển tới màn hình
	<b>Danh sách Nhân Viên Xe</b>;

	stop
@enduml

PlantUML version 1.2021.2(Sun Mar 07 18:10:27 ICT 2021)
(GPL source distribution)
Java Runtime: OpenJDK Runtime Environment
JVM: Eclipse OpenJ9 VM
Default Encoding: UTF-8
Language: en
Country: US
--></g></svg>