<?xml version="1.0" encoding="UTF-8" standalone="no"?><svg xmlns="http://www.w3.org/2000/svg" xmlns:xlink="http://www.w3.org/1999/xlink" contentScriptType="application/ecmascript" contentStyleType="text/css" height="1645.8333px" preserveAspectRatio="none" style="width:1850px;height:1645px;" version="1.1" viewBox="0 0 1850 1645" width="1850px" zoomAndPan="magnify"><defs><filter height="300%" id="f3x5amyjfruqt" width="300%" x="-1" y="-1"><feGaussianBlur result="blurOut" stdDeviation="4.166666666666667"/><feColorMatrix in="blurOut" result="blurOut2" type="matrix" values="0 0 0 0 0 0 0 0 0 0 0 0 0 0 0 0 0 0 .4 0"/><feOffset dx="8.333333333333334" dy="8.333333333333334" in="blurOut2" result="blurOut3"/><feBlend in="SourceGraphic" in2="blurOut3" mode="normal"/></filter></defs><g><polygon fill="#90EE90" filter="url(#f3x5amyjfruqt)" points="307.2917,83.5327,611.4583,83.5327,632.2917,135.8114,611.4583,188.09,307.2917,188.09" style="stroke:#A80036;stroke-width:3.125;"/><text fill="#000000" font-family="sans-serif" font-size="25" lengthAdjust="spacing" textLength="145.8333" x="328.125" y="130.3182">Từ màn hình</text><text fill="#000000" font-family="sans-serif" font-size="25" font-weight="bold" lengthAdjust="spacing" textLength="256.25" x="328.125" y="161.7635">Danh sách Chuyến Xe</text><text fill="#000000" font-family="sans-serif" font-size="25" lengthAdjust="spacing" textLength="0" x="590.625" y="161.7635"/><rect fill="#FEFECE" filter="url(#f3x5amyjfruqt)" height="104.5573" rx="26.0417" ry="26.0417" style="stroke:#A80036;stroke-width:3.125;" width="293.75" x="312.5" y="229.7567"/><text fill="#000000" font-family="sans-serif" font-size="25" lengthAdjust="spacing" textLength="97.9167" x="333.3333" y="276.5422">Click nút</text><text fill="#000000" font-family="sans-serif" font-size="25" font-weight="bold" lengthAdjust="spacing" textLength="252.0833" x="333.3333" y="307.9875">Thêm Chuyến Xe mới</text><rect fill="#000000" filter="url(#f3x5amyjfruqt)" height="12.5" rx="5.2083" ry="5.2083" style="stroke:#000000;stroke-width:2.0833333333333335;" width="868.75" x="43.75" y="522.2046"/><rect fill="#FEFECE" filter="url(#f3x5amyjfruqt)" height="73.112" rx="26.0417" ry="26.0417" style="stroke:#A80036;stroke-width:3.125;" width="139.5833" x="68.75" y="639.2619"/><text fill="#000000" font-family="sans-serif" font-size="25" lengthAdjust="spacing" textLength="97.9167" x="89.5833" y="686.0474">Chọn Xe</text><rect fill="#FEFECE" filter="url(#f3x5amyjfruqt)" height="198.8932" rx="26.0417" ry="26.0417" style="stroke:#A80036;stroke-width:3.125;" width="243.75" x="229.1667" y="576.3713"/><text fill="#000000" font-family="sans-serif" font-size="25" lengthAdjust="spacing" textLength="62.5" x="250" y="623.1567">Nhập</text><text fill="#000000" font-family="sans-serif" font-size="25" lengthAdjust="spacing" textLength="8.3333" x="250" y="654.6021">-</text><text fill="#000000" font-family="sans-serif" font-size="25" font-weight="bold" lengthAdjust="spacing" textLength="166.6667" x="264.5833" y="654.6021">Giờ khởi hành</text><text fill="#000000" font-family="sans-serif" font-size="25" lengthAdjust="spacing" textLength="8.3333" x="250" y="686.0474">-</text><text fill="#000000" font-family="sans-serif" font-size="25" font-weight="bold" lengthAdjust="spacing" textLength="187.5" x="264.5833" y="686.0474">Điểm khởi hành</text><text fill="#000000" font-family="sans-serif" font-size="25" lengthAdjust="spacing" textLength="8.3333" x="250" y="717.4927">-</text><text fill="#000000" font-family="sans-serif" font-size="25" font-weight="bold" lengthAdjust="spacing" textLength="112.5" x="264.5833" y="717.4927">Điểm đến</text><text fill="#000000" font-family="sans-serif" font-size="25" lengthAdjust="spacing" textLength="8.3333" x="250" y="748.938">-</text><text fill="#000000" font-family="sans-serif" font-size="25" font-weight="bold" lengthAdjust="spacing" textLength="152.0833" x="264.5833" y="748.938">Ngày bắt đầu</text><rect fill="#FEFECE" filter="url(#f3x5amyjfruqt)" height="104.5573" rx="26.0417" ry="26.0417" style="stroke:#A80036;stroke-width:3.125;" width="356.25" x="531.25" y="623.5392"/><text fill="#000000" font-family="sans-serif" font-size="25" lengthAdjust="spacing" textLength="181.25" x="552.0833" y="670.3247">Chọn ngày chạy</text><text fill="#000000" font-family="sans-serif" font-size="25" lengthAdjust="spacing" textLength="114.5833" x="752.0833" y="670.3247">trong tuần</text><text fill="#000000" font-family="sans-serif" font-size="25" lengthAdjust="spacing" textLength="247.9167" x="552.0833" y="701.77">(Thứ 2 đến Chủ Nhật)</text><rect fill="#000000" filter="url(#f3x5amyjfruqt)" height="12.5" rx="5.2083" ry="5.2083" style="stroke:#000000;stroke-width:2.0833333333333335;" width="868.75" x="43.75" y="816.9312"/><rect fill="#FEFECE" filter="url(#f3x5amyjfruqt)" height="104.5573" rx="26.0417" ry="26.0417" style="stroke:#A80036;stroke-width:3.125;" width="139.5833" x="389.5833" y="871.0978"/><text fill="#000000" font-family="sans-serif" font-size="25" lengthAdjust="spacing" textLength="97.9167" x="410.4167" y="917.8833">Click nút</text><text fill="#000000" font-family="sans-serif" font-size="25" font-weight="bold" lengthAdjust="spacing" textLength="81.25" x="410.4167" y="949.3286">Đồng ý</text><line style="stroke:#000000;stroke-width:4.166666666666667;" x1="31.25" x2="31.25" y1="25.9481" y2="1611.7554"/><rect fill="#FEFECE" filter="url(#f3x5amyjfruqt)" height="104.5573" rx="26.0417" ry="26.0417" style="stroke:#A80036;stroke-width:3.125;" width="279.1667" x="1197.3958" y="375.9806"/><text fill="#000000" font-family="sans-serif" font-size="25" lengthAdjust="spacing" textLength="237.5" x="1218.2292" y="422.7661">Chuyển tới màn hình</text><text fill="#000000" font-family="sans-serif" font-size="25" font-weight="bold" lengthAdjust="spacing" textLength="197.9167" x="1218.2292" y="454.2114">Thêm Chuyến Xe</text><polygon fill="#FEFECE" filter="url(#f3x5amyjfruqt)" points="1176.5625,1017.3218,1497.3958,1017.3218,1522.3958,1046.1466,1497.3958,1074.9715,1176.5625,1074.9715,1151.5625,1046.1466,1176.5625,1017.3218" style="stroke:#A80036;stroke-width:3.125;"/><text fill="#000000" font-family="sans-serif" font-size="22.9167" lengthAdjust="spacing" textLength="70.8333" x="1176.5625" y="1041.1112">Xe này</text><text fill="#000000" font-family="sans-serif" font-size="22.9167" lengthAdjust="spacing" textLength="320.8333" x="1176.5625" y="1069.9361">Không bị chồng chéo lịch chạy?</text><text fill="#000000" font-family="sans-serif" font-size="22.9167" lengthAdjust="spacing" textLength="54.1667" x="1097.3958" y="1041.1112">Đúng</text><text fill="#000000" font-family="sans-serif" font-size="22.9167" lengthAdjust="spacing" textLength="31.25" x="1522.3958" y="1041.1112">Sai</text><rect fill="#FEFECE" filter="url(#f3x5amyjfruqt)" height="136.0026" rx="26.0417" ry="26.0417" style="stroke:#A80036;stroke-width:3.125;" width="339.5833" x="945.8333" y="1095.8049"/><text fill="#000000" font-family="sans-serif" font-size="25" lengthAdjust="spacing" textLength="241.6667" x="966.6667" y="1142.5903">Thêm Chuyến Xe này</text><text fill="#000000" font-family="sans-serif" font-size="25" lengthAdjust="spacing" textLength="297.9167" x="966.6667" y="1174.0356">vào hệ thống với trạng thái</text><text fill="#000000" font-family="sans-serif" font-size="25" font-weight="bold" lengthAdjust="spacing" textLength="185.4167" x="966.6667" y="1205.481">Đang hoạt động</text><rect fill="#FEFECE" filter="url(#f3x5amyjfruqt)" height="104.5573" rx="26.0417" ry="26.0417" style="stroke:#A80036;stroke-width:3.125;" width="256.25" x="987.5" y="1273.4741"/><text fill="#000000" font-family="sans-serif" font-size="25" lengthAdjust="spacing" textLength="137.5" x="1008.3333" y="1320.2596">Cập nhật lại</text><text fill="#000000" font-family="sans-serif" font-size="25" lengthAdjust="spacing" textLength="214.5833" x="1008.3333" y="1351.7049">Danh sách hiển thị</text><rect fill="#FEFECE" filter="url(#f3x5amyjfruqt)" height="136.0026" rx="26.0417" ry="26.0417" style="stroke:#A80036;stroke-width:3.125;" width="462.5" x="1327.0833" y="1095.8049"/><text fill="#000000" font-family="sans-serif" font-size="25" lengthAdjust="spacing" textLength="185.4167" x="1347.9167" y="1142.5903">Hiển thị tin nhắn</text><text fill="#000000" font-family="sans-serif" font-size="25" font-weight="bold" lengthAdjust="spacing" textLength="420.8333" x="1347.9167" y="1174.0356">Xe này bị trùng với lịch chạy đã xếp,</text><text fill="#000000" font-family="sans-serif" font-size="25" font-weight="bold" lengthAdjust="spacing" textLength="233.3333" x="1347.9167" y="1205.481">vui lòng kiểm tra lại!</text><ellipse cx="1558.3333" cy="1294.3075" fill="#FFFFFF" filter="url(#f3x5amyjfruqt)" rx="20.8333" ry="20.8333" style="stroke:#000000;stroke-width:3.125;"/><line style="stroke:#000000;stroke-width:5.208333333333334;" x1="1545.4434" x2="1571.2233" y1="1281.4175" y2="1307.1974"/><line style="stroke:#000000;stroke-width:5.208333333333334;" x1="1571.2233" x2="1545.4434" y1="1281.4175" y2="1307.1974"/><rect fill="#FEFECE" filter="url(#f3x5amyjfruqt)" height="104.5573" rx="26.0417" ry="26.0417" style="stroke:#A80036;stroke-width:3.125;" width="297.9167" x="1188.0208" y="1419.6981"/><text fill="#000000" font-family="sans-serif" font-size="25" lengthAdjust="spacing" textLength="237.5" x="1208.8542" y="1466.4836">Chuyển tới màn hình</text><text fill="#000000" font-family="sans-serif" font-size="25" font-weight="bold" lengthAdjust="spacing" textLength="256.25" x="1208.8542" y="1497.9289">Danh sách Chuyến Xe</text><ellipse cx="1336.9792" cy="1588.8387" fill="#FFFFFF" filter="url(#f3x5amyjfruqt)" rx="22.9167" ry="22.9167" style="stroke:#000000;stroke-width:2.0833333333333335;"/><ellipse cx="1336.9792" cy="1588.8387" fill="#000000" rx="12.5" ry="12.5" style="stroke:#7F7F7F;stroke-width:2.0833333333333335;"/><line style="stroke:#000000;stroke-width:4.166666666666667;" x1="933.3333" x2="933.3333" y1="25.9481" y2="1611.7554"/><line style="stroke:#000000;stroke-width:4.166666666666667;" x1="1810.4167" x2="1810.4167" y1="25.9481" y2="1611.7554"/><line style="stroke:#A80036;stroke-width:3.125;" x1="459.375" x2="459.375" y1="188.09" y2="229.7567"/><polygon fill="#A80036" points="451.0417,208.9233,459.375,229.7567,467.7083,208.9233,459.375,217.2567" style="stroke:#A80036;stroke-width:2.0833333333333335;"/><line style="stroke:#A80036;stroke-width:3.125;" x1="138.5417" x2="138.5417" y1="534.7046" y2="639.2619"/><polygon fill="#A80036" points="130.2083,618.4285,138.5417,639.2619,146.875,618.4285,138.5417,626.7619" style="stroke:#A80036;stroke-width:2.0833333333333335;"/><line style="stroke:#A80036;stroke-width:3.125;" x1="351.0417" x2="351.0417" y1="534.7046" y2="576.3713"/><polygon fill="#A80036" points="342.7083,555.5379,351.0417,576.3713,359.375,555.5379,351.0417,563.8713" style="stroke:#A80036;stroke-width:2.0833333333333335;"/><line style="stroke:#A80036;stroke-width:3.125;" x1="709.375" x2="709.375" y1="534.7046" y2="623.5392"/><polygon fill="#A80036" points="701.0417,602.7059,709.375,623.5392,717.7083,602.7059,709.375,611.0392" style="stroke:#A80036;stroke-width:2.0833333333333335;"/><line style="stroke:#A80036;stroke-width:3.125;" x1="138.5417" x2="138.5417" y1="712.3739" y2="816.9312"/><polygon fill="#A80036" points="130.2083,796.0978,138.5417,816.9312,146.875,796.0978,138.5417,804.4312" style="stroke:#A80036;stroke-width:2.0833333333333335;"/><line style="stroke:#A80036;stroke-width:3.125;" x1="351.0417" x2="351.0417" y1="775.2645" y2="816.9312"/><polygon fill="#A80036" points="342.7083,796.0978,351.0417,816.9312,359.375,796.0978,351.0417,804.4312" style="stroke:#A80036;stroke-width:2.0833333333333335;"/><line style="stroke:#A80036;stroke-width:3.125;" x1="709.375" x2="709.375" y1="728.0965" y2="816.9312"/><polygon fill="#A80036" points="701.0417,796.0978,709.375,816.9312,717.7083,796.0978,709.375,804.4312" style="stroke:#A80036;stroke-width:2.0833333333333335;"/><line style="stroke:#A80036;stroke-width:3.125;" x1="459.375" x2="459.375" y1="829.4312" y2="871.0978"/><polygon fill="#A80036" points="451.0417,850.2645,459.375,871.0978,467.7083,850.2645,459.375,858.5978" style="stroke:#A80036;stroke-width:2.0833333333333335;"/><line style="stroke:#A80036;stroke-width:3.125;" x1="1115.625" x2="1115.625" y1="1231.8075" y2="1273.4741"/><polygon fill="#A80036" points="1107.2917,1252.6408,1115.625,1273.4741,1123.9583,1252.6408,1115.625,1260.9741" style="stroke:#A80036;stroke-width:2.0833333333333335;"/><line style="stroke:#A80036;stroke-width:3.125;" x1="1558.3333" x2="1558.3333" y1="1231.8075" y2="1273.4741"/><polygon fill="#A80036" points="1550,1252.6408,1558.3333,1273.4741,1566.6667,1252.6408,1558.3333,1260.9741" style="stroke:#A80036;stroke-width:2.0833333333333335;"/><line style="stroke:#A80036;stroke-width:3.125;" x1="1151.5625" x2="1115.625" y1="1046.1466" y2="1046.1466"/><line style="stroke:#A80036;stroke-width:3.125;" x1="1115.625" x2="1115.625" y1="1046.1466" y2="1095.8049"/><polygon fill="#A80036" points="1107.2917,1074.9715,1115.625,1095.8049,1123.9583,1074.9715,1115.625,1083.3049" style="stroke:#A80036;stroke-width:2.0833333333333335;"/><line style="stroke:#A80036;stroke-width:3.125;" x1="1522.3958" x2="1558.3333" y1="1046.1466" y2="1046.1466"/><line style="stroke:#A80036;stroke-width:3.125;" x1="1558.3333" x2="1558.3333" y1="1046.1466" y2="1095.8049"/><polygon fill="#A80036" points="1550,1074.9715,1558.3333,1095.8049,1566.6667,1074.9715,1558.3333,1083.3049" style="stroke:#A80036;stroke-width:2.0833333333333335;"/><line style="stroke:#A80036;stroke-width:3.125;" x1="1115.625" x2="1115.625" y1="1378.0314" y2="1388.4481"/><line style="stroke:#A80036;stroke-width:3.125;" x1="1115.625" x2="1336.9792" y1="1388.4481" y2="1388.4481"/><line style="stroke:#A80036;stroke-width:3.125;" x1="1336.9792" x2="1336.9792" y1="1388.4481" y2="1419.6981"/><polygon fill="#A80036" points="1328.6458,1398.8647,1336.9792,1419.6981,1345.3125,1398.8647,1336.9792,1407.1981" style="stroke:#A80036;stroke-width:2.0833333333333335;"/><line style="stroke:#A80036;stroke-width:3.125;" x1="1336.9792" x2="1336.9792" y1="1524.2554" y2="1565.922"/><polygon fill="#A80036" points="1328.6458,1545.0887,1336.9792,1565.922,1345.3125,1545.0887,1336.9792,1553.422" style="stroke:#A80036;stroke-width:2.0833333333333335;"/><line style="stroke:#A80036;stroke-width:3.125;" x1="459.375" x2="459.375" y1="334.314" y2="344.7306"/><line style="stroke:#A80036;stroke-width:3.125;" x1="459.375" x2="1336.9792" y1="344.7306" y2="344.7306"/><line style="stroke:#A80036;stroke-width:3.125;" x1="1336.9792" x2="1336.9792" y1="344.7306" y2="375.9806"/><polygon fill="#A80036" points="1328.6458,355.1473,1336.9792,375.9806,1345.3125,355.1473,1336.9792,363.4806" style="stroke:#A80036;stroke-width:2.0833333333333335;"/><line style="stroke:#A80036;stroke-width:3.125;" x1="1336.9792" x2="1336.9792" y1="480.5379" y2="490.9546"/><line style="stroke:#A80036;stroke-width:3.125;" x1="1336.9792" x2="459.375" y1="490.9546" y2="490.9546"/><line style="stroke:#A80036;stroke-width:3.125;" x1="459.375" x2="459.375" y1="490.9546" y2="522.2046"/><polygon fill="#A80036" points="451.0417,501.3713,459.375,522.2046,467.7083,501.3713,459.375,509.7046" style="stroke:#A80036;stroke-width:2.0833333333333335;"/><line style="stroke:#A80036;stroke-width:3.125;" x1="459.375" x2="459.375" y1="975.6551" y2="986.0718"/><line style="stroke:#A80036;stroke-width:3.125;" x1="459.375" x2="1336.9792" y1="986.0718" y2="986.0718"/><line style="stroke:#A80036;stroke-width:3.125;" x1="1336.9792" x2="1336.9792" y1="986.0718" y2="1017.3218"/><polygon fill="#A80036" points="1328.6458,996.4884,1336.9792,1017.3218,1345.3125,996.4884,1336.9792,1004.8218" style="stroke:#A80036;stroke-width:2.0833333333333335;"/><text fill="#000000" font-family="sans-serif" font-size="37.5" lengthAdjust="spacing" textLength="281.25" x="346.875" y="64.8763">Quản Trị Nhà Xe</text><text fill="#000000" font-family="sans-serif" font-size="37.5" lengthAdjust="spacing" textLength="152.0833" x="1301.0417" y="64.8763">Hệ thống</text><!--MD5=[4c9219ba84fb0736c2fc872ca656ec4c]
@startuml
skinparam dpi 200

|Buss Admin| Quản Trị Nhà Xe
	#lightgreen:Từ màn hình
	<b>Danh sách Chuyến Xe</b> >

	:Click nút
	<b>Thêm Chuyến Xe mới</b>;

|System| Hệ thống
	:Chuyển tới màn hình
	<b>Thêm Chuyến Xe</b>;

|Buss Admin|
	fork
		:Chọn Xe;

	fork again
		:Nhập
		- <b>Giờ khởi hành</b>
		- <b>Điểm khởi hành</b>
		- <b>Điểm đến</b>
		- <b>Ngày bắt đầu</b>;
	fork again

		:Chọn ngày chạy	trong tuần
		(Thứ 2 đến Chủ Nhật);

	end fork

	:Click nút
	<b>Đồng ý</b>;

|System|

	if (Xe này\nKhông bị chồng chéo lịch chạy?) then (Đúng)

		:Thêm Chuyến Xe này
		vào hệ thống với trạng thái
		<b>Đang hoạt động</b>;

		:Cập nhật lại
		Danh sách hiển thị;

	else (Sai)
		:Hiển thị tin nhắn
		<b>Xe này bị trùng với lịch chạy đã xếp,</b>
		<b>vui lòng kiểm tra lại!</b>;
		end
	endif

	:Chuyển tới màn hình
	<b>Danh sách Chuyến Xe</b>;

	stop

@enduml

PlantUML version 1.2021.2(Sun Mar 07 18:10:27 ICT 2021)
(GPL source distribution)
Java Runtime: OpenJDK Runtime Environment
JVM: Eclipse OpenJ9 VM
Default Encoding: UTF-8
Language: en
Country: US
--></g></svg>