<?xml version="1.0" encoding="UTF-8" standalone="no"?><svg xmlns="http://www.w3.org/2000/svg" xmlns:xlink="http://www.w3.org/1999/xlink" contentScriptType="application/ecmascript" contentStyleType="text/css" height="2210.4167px" preserveAspectRatio="none" style="width:1010px;height:2210px;" version="1.1" viewBox="0 0 1010 2210" width="1010.4167px" zoomAndPan="magnify"><defs><filter height="300%" id="f182rp0puy3o3j" width="300%" x="-1" y="-1"><feGaussianBlur result="blurOut" stdDeviation="4.166666666666667"/><feColorMatrix in="blurOut" result="blurOut2" type="matrix" values="0 0 0 0 0 0 0 0 0 0 0 0 0 0 0 0 0 0 .4 0"/><feOffset dx="8.333333333333334" dy="8.333333333333334" in="blurOut2" result="blurOut3"/><feBlend in="SourceGraphic" in2="blurOut3" mode="normal"/></filter></defs><g><polygon fill="#90EE90" filter="url(#f182rp0puy3o3j)" points="73.9583,83.5327,340.625,83.5327,361.4583,135.8114,340.625,188.09,73.9583,188.09" style="stroke:#A80036;stroke-width:3.125;"/><text fill="#000000" font-family="sans-serif" font-size="25" lengthAdjust="spacing" textLength="145.8333" x="94.7917" y="130.3182">Từ màn hình</text><text fill="#000000" font-family="sans-serif" font-size="25" font-weight="bold" lengthAdjust="spacing" textLength="218.75" x="94.7917" y="161.7635">Danh sách Loại Xe</text><text fill="#000000" font-family="sans-serif" font-size="25" lengthAdjust="spacing" textLength="0" x="319.7917" y="161.7635"/><rect fill="#FEFECE" filter="url(#f182rp0puy3o3j)" height="104.5573" rx="26.0417" ry="26.0417" style="stroke:#A80036;stroke-width:3.125;" width="191.6667" x="111.4583" y="229.7567"/><text fill="#000000" font-family="sans-serif" font-size="25" lengthAdjust="spacing" textLength="97.9167" x="132.2917" y="276.5422">Click nút</text><text fill="#000000" font-family="sans-serif" font-size="25" font-weight="bold" lengthAdjust="spacing" textLength="150" x="132.2917" y="307.9875">Thêm loại xe</text><rect fill="#FEFECE" filter="url(#f182rp0puy3o3j)" height="230.3385" rx="26.0417" ry="26.0417" style="stroke:#A80036;stroke-width:3.125;" width="216.6667" x="98.9583" y="522.2046"/><text fill="#000000" font-family="sans-serif" font-size="25" lengthAdjust="spacing" textLength="62.5" x="119.7917" y="568.9901">Nhập</text><text fill="#000000" font-family="sans-serif" font-size="25" font-weight="bold" lengthAdjust="spacing" textLength="152.0833" x="119.7917" y="600.4354">- Tên Loại Xe</text><text fill="#000000" font-family="sans-serif" font-size="25" font-weight="bold" lengthAdjust="spacing" textLength="79.1667" x="119.7917" y="631.8807">- Mô tả</text><text fill="#000000" font-family="sans-serif" font-size="25" font-weight="bold" lengthAdjust="spacing" textLength="175" x="119.7917" y="663.326">- Số lượng ghế</text><text fill="#000000" font-family="sans-serif" font-size="25" font-weight="bold" lengthAdjust="spacing" textLength="164.5833" x="119.7917" y="694.7713">- File sơ đồ xe</text><text fill="#000000" font-family="sans-serif" font-size="25" font-weight="bold" lengthAdjust="spacing" textLength="158.3333" x="119.7917" y="726.2166">- Ảnh đại diện</text><rect fill="#FEFECE" filter="url(#f182rp0puy3o3j)" height="104.5573" rx="26.0417" ry="26.0417" style="stroke:#A80036;stroke-width:3.125;" width="150" x="132.2917" y="794.2098"/><text fill="#000000" font-family="sans-serif" font-size="25" lengthAdjust="spacing" textLength="97.9167" x="153.125" y="840.9953">Click nút</text><text fill="#000000" font-family="sans-serif" font-size="25" font-weight="bold" lengthAdjust="spacing" textLength="108.3333" x="153.125" y="872.4406">Tiếp theo</text><rect fill="#FEFECE" filter="url(#f182rp0puy3o3j)" height="167.4479" rx="26.0417" ry="26.0417" style="stroke:#A80036;stroke-width:3.125;" width="327.0833" x="43.75" y="1327.2176"/><text fill="#000000" font-family="sans-serif" font-size="25" lengthAdjust="spacing" textLength="62.5" x="64.5833" y="1374.0031">Nhập</text><text fill="#000000" font-family="sans-serif" font-size="25" font-weight="bold" lengthAdjust="spacing" textLength="110.4167" x="64.5833" y="1405.4484">- Tên Ghế</text><text fill="#000000" font-family="sans-serif" font-size="25" font-weight="bold" lengthAdjust="spacing" textLength="79.1667" x="64.5833" y="1436.8937">- Mô tả</text><text fill="#000000" font-family="sans-serif" font-size="25" lengthAdjust="spacing" textLength="0" x="150" y="1436.8937"/><text fill="#000000" font-family="sans-serif" font-size="25" font-style="italic" lengthAdjust="spacing" textLength="200" x="150" y="1436.8937">(Không bắt buộc)</text><text fill="#000000" font-family="sans-serif" font-size="25" lengthAdjust="spacing" textLength="141.6667" x="64.5833" y="1468.339">cho mỗi ghế</text><rect fill="#FEFECE" filter="url(#f182rp0puy3o3j)" height="104.5573" rx="26.0417" ry="26.0417" style="stroke:#A80036;stroke-width:3.125;" width="139.5833" x="137.5" y="1536.3322"/><text fill="#000000" font-family="sans-serif" font-size="25" lengthAdjust="spacing" textLength="97.9167" x="158.3333" y="1583.1177">Click nút</text><text fill="#000000" font-family="sans-serif" font-size="25" font-weight="bold" lengthAdjust="spacing" textLength="81.25" x="158.3333" y="1614.563">Đồng ý</text><line style="stroke:#000000;stroke-width:4.166666666666667;" x1="31.25" x2="31.25" y1="25.9481" y2="2175.0041"/><rect fill="#FEFECE" filter="url(#f182rp0puy3o3j)" height="104.5573" rx="26.0417" ry="26.0417" style="stroke:#A80036;stroke-width:3.125;" width="279.1667" x="521.3542" y="375.9806"/><text fill="#000000" font-family="sans-serif" font-size="25" lengthAdjust="spacing" textLength="237.5" x="542.1875" y="422.7661">Chuyển tới màn hình</text><text fill="#000000" font-family="sans-serif" font-size="25" font-weight="bold" lengthAdjust="spacing" textLength="160.4167" x="542.1875" y="454.2114">Thêm Loại Xe</text><rect fill="#FEFECE" filter="url(#f182rp0puy3o3j)" height="104.5573" rx="26.0417" ry="26.0417" style="stroke:#A80036;stroke-width:3.125;" width="279.1667" x="521.3542" y="940.4338"/><text fill="#000000" font-family="sans-serif" font-size="25" lengthAdjust="spacing" textLength="237.5" x="542.1875" y="987.2192">Chuyển tới màn hình</text><text fill="#000000" font-family="sans-serif" font-size="25" font-weight="bold" lengthAdjust="spacing" textLength="150" x="542.1875" y="1018.6646">Thiết lập ghế</text><rect fill="#FEFECE" filter="url(#f182rp0puy3o3j)" height="198.8932" rx="26.0417" ry="26.0417" style="stroke:#A80036;stroke-width:3.125;" width="268.75" x="526.5625" y="1086.6577"/><text fill="#000000" font-family="sans-serif" font-size="25" lengthAdjust="spacing" textLength="106.25" x="547.3958" y="1133.4432">Tạo input</text><text fill="#000000" font-family="sans-serif" font-size="25" lengthAdjust="spacing" textLength="118.75" x="547.3958" y="1164.8885">- Nhập tên</text><text fill="#000000" font-family="sans-serif" font-size="25" lengthAdjust="spacing" textLength="147.9167" x="547.3958" y="1196.3338">- Nhập mô tả</text><text fill="#000000" font-family="sans-serif" font-size="25" lengthAdjust="spacing" textLength="41.6667" x="547.3958" y="1227.7791">cho</text><text fill="#000000" font-family="sans-serif" font-size="25" font-weight="bold" lengthAdjust="spacing" textLength="158.3333" x="597.3958" y="1227.7791">số lượng ghế</text><text fill="#000000" font-family="sans-serif" font-size="25" lengthAdjust="spacing" textLength="227.0833" x="547.3958" y="1259.2244">đã nhập bước trước</text><polygon fill="#FEFECE" filter="url(#f182rp0puy3o3j)" points="574.4792,1682.5562,747.3958,1682.5562,772.3958,1707.5562,747.3958,1732.5562,574.4792,1732.5562,549.4792,1707.5562,574.4792,1682.5562" style="stroke:#A80036;stroke-width:3.125;"/><text fill="#000000" font-family="sans-serif" font-size="22.9167" lengthAdjust="spacing" textLength="172.9167" x="574.4792" y="1716.9332">Thông tin hợp lệ?</text><text fill="#000000" font-family="sans-serif" font-size="22.9167" lengthAdjust="spacing" textLength="54.1667" x="495.3125" y="1702.5208">Đúng</text><text fill="#000000" font-family="sans-serif" font-size="22.9167" lengthAdjust="spacing" textLength="31.25" x="772.3958" y="1702.5208">Sai</text><rect fill="#FEFECE" filter="url(#f182rp0puy3o3j)" height="104.5573" rx="26.0417" ry="26.0417" style="stroke:#A80036;stroke-width:3.125;" width="218.75" x="405.2083" y="1753.3895"/><text fill="#000000" font-family="sans-serif" font-size="25" lengthAdjust="spacing" textLength="177.0833" x="426.0417" y="1800.175">Lưu loại xe mới</text><text fill="#000000" font-family="sans-serif" font-size="25" lengthAdjust="spacing" textLength="114.5833" x="426.0417" y="1831.6203">vào CSDL</text><rect fill="#FEFECE" filter="url(#f182rp0puy3o3j)" height="104.5573" rx="26.0417" ry="26.0417" style="stroke:#A80036;stroke-width:3.125;" width="283.3333" x="665.625" y="1753.3895"/><text fill="#000000" font-family="sans-serif" font-size="25" lengthAdjust="spacing" textLength="241.6667" x="686.4583" y="1800.175">Hiển thị thông báo lỗi</text><text fill="#000000" font-family="sans-serif" font-size="25" lengthAdjust="spacing" textLength="120.8333" x="686.4583" y="1831.6203">tương ứng</text><ellipse cx="807.2917" cy="1920.4468" fill="#FFFFFF" filter="url(#f182rp0puy3o3j)" rx="20.8333" ry="20.8333" style="stroke:#000000;stroke-width:3.125;"/><line style="stroke:#000000;stroke-width:5.208333333333334;" x1="794.4017" x2="820.1816" y1="1907.5568" y2="1933.3367"/><line style="stroke:#000000;stroke-width:5.208333333333334;" x1="820.1816" x2="794.4017" y1="1907.5568" y2="1933.3367"/><rect fill="#FEFECE" filter="url(#f182rp0puy3o3j)" height="104.5573" rx="26.0417" ry="26.0417" style="stroke:#A80036;stroke-width:3.125;" width="279.1667" x="521.3542" y="1982.9468"/><text fill="#000000" font-family="sans-serif" font-size="25" lengthAdjust="spacing" textLength="237.5" x="542.1875" y="2029.7323">Chuyển tới màn hình</text><text fill="#000000" font-family="sans-serif" font-size="25" font-weight="bold" lengthAdjust="spacing" textLength="218.75" x="542.1875" y="2061.1776">Danh sách Loại Xe</text><ellipse cx="660.9375" cy="2152.0874" fill="#FFFFFF" filter="url(#f182rp0puy3o3j)" rx="22.9167" ry="22.9167" style="stroke:#000000;stroke-width:2.0833333333333335;"/><ellipse cx="660.9375" cy="2152.0874" fill="#000000" rx="12.5" ry="12.5" style="stroke:#7F7F7F;stroke-width:2.0833333333333335;"/><line style="stroke:#000000;stroke-width:4.166666666666667;" x1="392.7083" x2="392.7083" y1="25.9481" y2="2175.0041"/><line style="stroke:#000000;stroke-width:4.166666666666667;" x1="969.7917" x2="969.7917" y1="25.9481" y2="2175.0041"/><line style="stroke:#A80036;stroke-width:3.125;" x1="207.2917" x2="207.2917" y1="188.09" y2="229.7567"/><polygon fill="#A80036" points="198.9583,208.9233,207.2917,229.7567,215.625,208.9233,207.2917,217.2567" style="stroke:#A80036;stroke-width:2.0833333333333335;"/><line style="stroke:#A80036;stroke-width:3.125;" x1="207.2917" x2="207.2917" y1="752.5431" y2="794.2098"/><polygon fill="#A80036" points="198.9583,773.3765,207.2917,794.2098,215.625,773.3765,207.2917,781.7098" style="stroke:#A80036;stroke-width:2.0833333333333335;"/><line style="stroke:#A80036;stroke-width:3.125;" x1="207.2917" x2="207.2917" y1="1494.6655" y2="1536.3322"/><polygon fill="#A80036" points="198.9583,1515.4989,207.2917,1536.3322,215.625,1515.4989,207.2917,1523.8322" style="stroke:#A80036;stroke-width:2.0833333333333335;"/><line style="stroke:#A80036;stroke-width:3.125;" x1="660.9375" x2="660.9375" y1="1044.991" y2="1086.6577"/><polygon fill="#A80036" points="652.6042,1065.8244,660.9375,1086.6577,669.2708,1065.8244,660.9375,1074.1577" style="stroke:#A80036;stroke-width:2.0833333333333335;"/><line style="stroke:#A80036;stroke-width:3.125;" x1="807.2917" x2="807.2917" y1="1857.9468" y2="1899.6134"/><polygon fill="#A80036" points="798.9583,1878.7801,807.2917,1899.6134,815.625,1878.7801,807.2917,1887.1134" style="stroke:#A80036;stroke-width:2.0833333333333335;"/><line style="stroke:#A80036;stroke-width:3.125;" x1="549.4792" x2="514.5833" y1="1707.5562" y2="1707.5562"/><line style="stroke:#A80036;stroke-width:3.125;" x1="514.5833" x2="514.5833" y1="1707.5562" y2="1753.3895"/><polygon fill="#A80036" points="506.25,1732.5562,514.5833,1753.3895,522.9167,1732.5562,514.5833,1740.8895" style="stroke:#A80036;stroke-width:2.0833333333333335;"/><line style="stroke:#A80036;stroke-width:3.125;" x1="772.3958" x2="807.2917" y1="1707.5562" y2="1707.5562"/><line style="stroke:#A80036;stroke-width:3.125;" x1="807.2917" x2="807.2917" y1="1707.5562" y2="1753.3895"/><polygon fill="#A80036" points="798.9583,1732.5562,807.2917,1753.3895,815.625,1732.5562,807.2917,1740.8895" style="stroke:#A80036;stroke-width:2.0833333333333335;"/><line style="stroke:#A80036;stroke-width:3.125;" x1="514.5833" x2="514.5833" y1="1857.9468" y2="1951.6968"/><line style="stroke:#A80036;stroke-width:3.125;" x1="514.5833" x2="660.9375" y1="1951.6968" y2="1951.6968"/><line style="stroke:#A80036;stroke-width:3.125;" x1="660.9375" x2="660.9375" y1="1951.6968" y2="1982.9468"/><polygon fill="#A80036" points="652.6042,1962.1134,660.9375,1982.9468,669.2708,1962.1134,660.9375,1970.4468" style="stroke:#A80036;stroke-width:2.0833333333333335;"/><line style="stroke:#A80036;stroke-width:3.125;" x1="660.9375" x2="660.9375" y1="2087.5041" y2="2129.1707"/><polygon fill="#A80036" points="652.6042,2108.3374,660.9375,2129.1707,669.2708,2108.3374,660.9375,2116.6707" style="stroke:#A80036;stroke-width:2.0833333333333335;"/><line style="stroke:#A80036;stroke-width:3.125;" x1="207.2917" x2="207.2917" y1="334.314" y2="344.7306"/><line style="stroke:#A80036;stroke-width:3.125;" x1="207.2917" x2="660.9375" y1="344.7306" y2="344.7306"/><line style="stroke:#A80036;stroke-width:3.125;" x1="660.9375" x2="660.9375" y1="344.7306" y2="375.9806"/><polygon fill="#A80036" points="652.6042,355.1473,660.9375,375.9806,669.2708,355.1473,660.9375,363.4806" style="stroke:#A80036;stroke-width:2.0833333333333335;"/><line style="stroke:#A80036;stroke-width:3.125;" x1="660.9375" x2="660.9375" y1="480.5379" y2="490.9546"/><line style="stroke:#A80036;stroke-width:3.125;" x1="660.9375" x2="207.2917" y1="490.9546" y2="490.9546"/><line style="stroke:#A80036;stroke-width:3.125;" x1="207.2917" x2="207.2917" y1="490.9546" y2="522.2046"/><polygon fill="#A80036" points="198.9583,501.3713,207.2917,522.2046,215.625,501.3713,207.2917,509.7046" style="stroke:#A80036;stroke-width:2.0833333333333335;"/><line style="stroke:#A80036;stroke-width:3.125;" x1="207.2917" x2="207.2917" y1="898.7671" y2="909.1838"/><line style="stroke:#A80036;stroke-width:3.125;" x1="207.2917" x2="660.9375" y1="909.1838" y2="909.1838"/><line style="stroke:#A80036;stroke-width:3.125;" x1="660.9375" x2="660.9375" y1="909.1838" y2="940.4338"/><polygon fill="#A80036" points="652.6042,919.6004,660.9375,940.4338,669.2708,919.6004,660.9375,927.9338" style="stroke:#A80036;stroke-width:2.0833333333333335;"/><line style="stroke:#A80036;stroke-width:3.125;" x1="660.9375" x2="660.9375" y1="1285.5509" y2="1295.9676"/><line style="stroke:#A80036;stroke-width:3.125;" x1="660.9375" x2="207.2917" y1="1295.9676" y2="1295.9676"/><line style="stroke:#A80036;stroke-width:3.125;" x1="207.2917" x2="207.2917" y1="1295.9676" y2="1327.2176"/><polygon fill="#A80036" points="198.9583,1306.3843,207.2917,1327.2176,215.625,1306.3843,207.2917,1314.7176" style="stroke:#A80036;stroke-width:2.0833333333333335;"/><line style="stroke:#A80036;stroke-width:3.125;" x1="207.2917" x2="207.2917" y1="1640.8895" y2="1651.3062"/><line style="stroke:#A80036;stroke-width:3.125;" x1="207.2917" x2="660.9375" y1="1651.3062" y2="1651.3062"/><line style="stroke:#A80036;stroke-width:3.125;" x1="660.9375" x2="660.9375" y1="1651.3062" y2="1682.5562"/><polygon fill="#A80036" points="652.6042,1661.7228,660.9375,1682.5562,669.2708,1661.7228,660.9375,1670.0562" style="stroke:#A80036;stroke-width:2.0833333333333335;"/><text fill="#000000" font-family="sans-serif" font-size="37.5" lengthAdjust="spacing" textLength="325" x="54.6875" y="64.8763">Quản Trị Hệ Thống</text><text fill="#000000" font-family="sans-serif" font-size="37.5" lengthAdjust="spacing" textLength="152.0833" x="610.4167" y="64.8763">Hệ thống</text><!--MD5=[1d94daf740ddc60987e23e84214b6bcf]
@startuml
skinparam dpi 200

|Sys Admin| Quản Trị Hệ Thống
	#lightgreen:Từ màn hình
	<b>Danh sách Loại Xe</b> >

	:Click nút
	<b>Thêm loại xe</b>;

|System| Hệ thống
	:Chuyển tới màn hình
	<b>Thêm Loại Xe</b>;

|Sys Admin|
	:Nhập
	<b>- Tên Loại Xe</b>
	<b>- Mô tả</b>
	<b>- Số lượng ghế</b>
	<b>- File sơ đồ xe</b>
	<b>- Ảnh đại diện</b>;

	:Click nút
	<b>Tiếp theo</b>;

|System|
	:Chuyển tới màn hình
	<b>Thiết lập ghế</b>;

	:Tạo input
	- Nhập tên
	- Nhập mô tả
	cho	<b>số lượng ghế</b>
	đã nhập bước trước;

|Sys Admin|

	:Nhập
	<b>- Tên Ghế</b>
	<b>- Mô tả</b> <i>(Không bắt buộc)</i>
	cho mỗi ghế;

	:Click nút
	<b>Đồng ý</b>;


|System|

	if (Thông tin hợp lệ?) then (Đúng)

		:Lưu loại xe mới
		vào CSDL;

	else (Sai)
		:Hiển thị thông báo lỗi
		tương ứng;
		end
	endif

	:Chuyển tới màn hình
	<b>Danh sách Loại Xe</b>;

	stop
@enduml

PlantUML version 1.2021.2(Sun Mar 07 18:10:27 ICT 2021)
(GPL source distribution)
Java Runtime: OpenJDK Runtime Environment
JVM: Eclipse OpenJ9 VM
Default Encoding: UTF-8
Language: en
Country: US
--></g></svg>