<?xml version="1.0" encoding="UTF-8" standalone="no"?><svg xmlns="http://www.w3.org/2000/svg" xmlns:xlink="http://www.w3.org/1999/xlink" contentScriptType="application/ecmascript" contentStyleType="text/css" height="1364.5833px" preserveAspectRatio="none" style="width:935px;height:1364px;" version="1.1" viewBox="0 0 935 1364" width="935.4167px" zoomAndPan="magnify"><defs><filter height="300%" id="flucvmlrshmj5" width="300%" x="-1" y="-1"><feGaussianBlur result="blurOut" stdDeviation="4.166666666666667"/><feColorMatrix in="blurOut" result="blurOut2" type="matrix" values="0 0 0 0 0 0 0 0 0 0 0 0 0 0 0 0 0 0 .4 0"/><feOffset dx="8.333333333333334" dy="8.333333333333334" in="blurOut2" result="blurOut3"/><feBlend in="SourceGraphic" in2="blurOut3" mode="normal"/></filter></defs><g><polygon fill="#90EE90" filter="url(#flucvmlrshmj5)" points="62.5,83.5327,375,83.5327,395.8333,135.8114,375,188.09,62.5,188.09" style="stroke:#A80036;stroke-width:3.125;"/><text fill="#000000" font-family="sans-serif" font-size="25" lengthAdjust="spacing" textLength="145.8333" x="83.3333" y="130.3182">Từ màn hình</text><text fill="#000000" font-family="sans-serif" font-size="25" font-weight="bold" lengthAdjust="spacing" textLength="264.5833" x="83.3333" y="161.7635">Danh sách Điểm Dừng</text><text fill="#000000" font-family="sans-serif" font-size="25" lengthAdjust="spacing" textLength="0" x="354.1667" y="161.7635"/><rect fill="#FEFECE" filter="url(#flucvmlrshmj5)" height="104.5573" rx="26.0417" ry="26.0417" style="stroke:#A80036;stroke-width:3.125;" width="279.1667" x="79.1667" y="229.7567"/><text fill="#000000" font-family="sans-serif" font-size="25" lengthAdjust="spacing" textLength="237.5" x="100" y="276.5422">Duyệt tìm điểm dừng</text><text fill="#000000" font-family="sans-serif" font-size="25" lengthAdjust="spacing" textLength="104.1667" x="100" y="307.9875">muốn gỡ</text><rect fill="#FEFECE" filter="url(#flucvmlrshmj5)" height="136.0026" rx="26.0417" ry="26.0417" style="stroke:#A80036;stroke-width:3.125;" width="327.0833" x="55.2083" y="375.9806"/><text fill="#000000" font-family="sans-serif" font-size="25" lengthAdjust="spacing" textLength="97.9167" x="76.0417" y="422.7661">Click nút</text><text fill="#000000" font-family="sans-serif" font-size="25" font-weight="bold" lengthAdjust="spacing" textLength="222.9167" x="76.0417" y="454.2114">Gỡ khỏi Chuyến Xe</text><text fill="#000000" font-family="sans-serif" font-size="25" lengthAdjust="spacing" textLength="285.4167" x="76.0417" y="485.6567">tại điểm dừng tương ứng</text><rect fill="#FEFECE" filter="url(#flucvmlrshmj5)" height="104.5573" rx="26.0417" ry="26.0417" style="stroke:#A80036;stroke-width:3.125;" width="279.1667" x="79.1667" y="699.8739"/><text fill="#000000" font-family="sans-serif" font-size="25" lengthAdjust="spacing" textLength="237.5" x="100" y="746.6593">Chọn các Chuyến Xe</text><text fill="#000000" font-family="sans-serif" font-size="25" lengthAdjust="spacing" textLength="139.5833" x="100" y="778.1047">muốn gỡ bỏ</text><rect fill="#FEFECE" filter="url(#flucvmlrshmj5)" height="104.5573" rx="26.0417" ry="26.0417" style="stroke:#A80036;stroke-width:3.125;" width="139.5833" x="148.9583" y="846.0978"/><text fill="#000000" font-family="sans-serif" font-size="25" lengthAdjust="spacing" textLength="97.9167" x="169.7917" y="892.8833">Click nút</text><text fill="#000000" font-family="sans-serif" font-size="25" font-weight="bold" lengthAdjust="spacing" textLength="83.3333" x="169.7917" y="924.3286">Đồng Ý</text><line style="stroke:#000000;stroke-width:4.166666666666667;" x1="31.25" x2="31.25" y1="25.9481" y2="1330.603"/><rect fill="#FEFECE" filter="url(#flucvmlrshmj5)" height="104.5573" rx="26.0417" ry="26.0417" style="stroke:#A80036;stroke-width:3.125;" width="435.4167" x="439.5833" y="553.6499"/><text fill="#000000" font-family="sans-serif" font-size="25" lengthAdjust="spacing" textLength="181.25" x="460.4167" y="600.4354">Hiện danh sách</text><text fill="#000000" font-family="sans-serif" font-size="25" font-weight="bold" lengthAdjust="spacing" textLength="393.75" x="460.4167" y="631.8807">Các Chuyến Xe có điểm dừng này</text><rect fill="#FEFECE" filter="url(#flucvmlrshmj5)" height="104.5573" rx="26.0417" ry="26.0417" style="stroke:#A80036;stroke-width:3.125;" width="393.75" x="460.4167" y="992.3218"/><text fill="#000000" font-family="sans-serif" font-size="25" lengthAdjust="spacing" textLength="166.6667" x="481.25" y="1039.1073">Gỡ điểm dừng</text><text fill="#000000" font-family="sans-serif" font-size="25" lengthAdjust="spacing" textLength="352.0833" x="481.25" y="1070.5526">khỏi các Chuyến Xe được chọn</text><rect fill="#FEFECE" filter="url(#flucvmlrshmj5)" height="104.5573" rx="26.0417" ry="26.0417" style="stroke:#A80036;stroke-width:3.125;" width="306.25" x="504.1667" y="1138.5457"/><text fill="#000000" font-family="sans-serif" font-size="25" lengthAdjust="spacing" textLength="185.4167" x="525" y="1185.3312">Trở về màn hình</text><text fill="#000000" font-family="sans-serif" font-size="25" font-weight="bold" lengthAdjust="spacing" textLength="264.5833" x="525" y="1216.7765">Danh sách Điểm Dừng</text><ellipse cx="657.2917" cy="1307.6864" fill="#FFFFFF" filter="url(#flucvmlrshmj5)" rx="22.9167" ry="22.9167" style="stroke:#000000;stroke-width:2.0833333333333335;"/><ellipse cx="657.2917" cy="1307.6864" fill="#000000" rx="12.5" ry="12.5" style="stroke:#7F7F7F;stroke-width:2.0833333333333335;"/><line style="stroke:#000000;stroke-width:4.166666666666667;" x1="427.0833" x2="427.0833" y1="25.9481" y2="1330.603"/><line style="stroke:#000000;stroke-width:4.166666666666667;" x1="895.8333" x2="895.8333" y1="25.9481" y2="1330.603"/><line style="stroke:#A80036;stroke-width:3.125;" x1="218.75" x2="218.75" y1="188.09" y2="229.7567"/><polygon fill="#A80036" points="210.4167,208.9233,218.75,229.7567,227.0833,208.9233,218.75,217.2567" style="stroke:#A80036;stroke-width:2.0833333333333335;"/><line style="stroke:#A80036;stroke-width:3.125;" x1="218.75" x2="218.75" y1="334.314" y2="375.9806"/><polygon fill="#A80036" points="210.4167,355.1473,218.75,375.9806,227.0833,355.1473,218.75,363.4806" style="stroke:#A80036;stroke-width:2.0833333333333335;"/><line style="stroke:#A80036;stroke-width:3.125;" x1="218.75" x2="218.75" y1="804.4312" y2="846.0978"/><polygon fill="#A80036" points="210.4167,825.2645,218.75,846.0978,227.0833,825.2645,218.75,833.5978" style="stroke:#A80036;stroke-width:2.0833333333333335;"/><line style="stroke:#A80036;stroke-width:3.125;" x1="657.2917" x2="657.2917" y1="1096.8791" y2="1138.5457"/><polygon fill="#A80036" points="648.9583,1117.7124,657.2917,1138.5457,665.625,1117.7124,657.2917,1126.0457" style="stroke:#A80036;stroke-width:2.0833333333333335;"/><line style="stroke:#A80036;stroke-width:3.125;" x1="657.2917" x2="657.2917" y1="1243.103" y2="1284.7697"/><polygon fill="#A80036" points="648.9583,1263.9364,657.2917,1284.7697,665.625,1263.9364,657.2917,1272.2697" style="stroke:#A80036;stroke-width:2.0833333333333335;"/><line style="stroke:#A80036;stroke-width:3.125;" x1="218.75" x2="218.75" y1="511.9832" y2="522.3999"/><line style="stroke:#A80036;stroke-width:3.125;" x1="218.75" x2="657.2917" y1="522.3999" y2="522.3999"/><line style="stroke:#A80036;stroke-width:3.125;" x1="657.2917" x2="657.2917" y1="522.3999" y2="553.6499"/><polygon fill="#A80036" points="648.9583,532.8166,657.2917,553.6499,665.625,532.8166,657.2917,541.1499" style="stroke:#A80036;stroke-width:2.0833333333333335;"/><line style="stroke:#A80036;stroke-width:3.125;" x1="657.2917" x2="657.2917" y1="658.2072" y2="668.6239"/><line style="stroke:#A80036;stroke-width:3.125;" x1="657.2917" x2="218.75" y1="668.6239" y2="668.6239"/><line style="stroke:#A80036;stroke-width:3.125;" x1="218.75" x2="218.75" y1="668.6239" y2="699.8739"/><polygon fill="#A80036" points="210.4167,679.0405,218.75,699.8739,227.0833,679.0405,218.75,687.3739" style="stroke:#A80036;stroke-width:2.0833333333333335;"/><line style="stroke:#A80036;stroke-width:3.125;" x1="218.75" x2="218.75" y1="950.6551" y2="961.0718"/><line style="stroke:#A80036;stroke-width:3.125;" x1="218.75" x2="657.2917" y1="961.0718" y2="961.0718"/><line style="stroke:#A80036;stroke-width:3.125;" x1="657.2917" x2="657.2917" y1="961.0718" y2="992.3218"/><polygon fill="#A80036" points="648.9583,971.4884,657.2917,992.3218,665.625,971.4884,657.2917,979.8218" style="stroke:#A80036;stroke-width:2.0833333333333335;"/><text fill="#000000" font-family="sans-serif" font-size="37.5" lengthAdjust="spacing" textLength="281.25" x="93.75" y="64.8763">Quản Trị Nhà Xe</text><text fill="#000000" font-family="sans-serif" font-size="37.5" lengthAdjust="spacing" textLength="166.6667" x="583.3333" y="64.8763">Hệ Thống</text><!--MD5=[c0454975f33e9c24efb4870137af05f6]
@startuml
skinparam dpi 200

|Buss Admin| Quản Trị Nhà Xe

	#lightgreen:Từ màn hình
	<b>Danh sách Điểm Dừng</b> >

	:Duyệt tìm điểm dừng
	muốn gỡ;

	:Click nút
	<b>Gỡ khỏi Chuyến Xe</b>
	tại điểm dừng tương ứng;

|System| Hệ Thống
	:Hiện danh sách
	<b>Các Chuyến Xe có điểm dừng này</b>;

|Buss Admin|
	:Chọn các Chuyến Xe
	muốn gỡ bỏ;

	:Click nút
	<b>Đồng Ý</b>;

|System|

	:Gỡ điểm dừng
	khỏi các Chuyến Xe được chọn;

	:Trở về màn hình
	<b>Danh sách Điểm Dừng</b>;

	stop
@enduml

PlantUML version 1.2021.2(Sun Mar 07 18:10:27 ICT 2021)
(GPL source distribution)
Java Runtime: OpenJDK Runtime Environment
JVM: Eclipse OpenJ9 VM
Default Encoding: UTF-8
Language: en
Country: US
--></g></svg>