<?xml version="1.0" encoding="UTF-8" standalone="no"?><svg xmlns="http://www.w3.org/2000/svg" xmlns:xlink="http://www.w3.org/1999/xlink" contentScriptType="application/ecmascript" contentStyleType="text/css" height="2577.0833px" preserveAspectRatio="none" style="width:1450px;height:2577px;" version="1.1" viewBox="0 0 1450 2577" width="1450px" zoomAndPan="magnify"><defs><filter height="300%" id="fu0l6fp3r608l" width="300%" x="-1" y="-1"><feGaussianBlur result="blurOut" stdDeviation="4.166666666666667"/><feColorMatrix in="blurOut" result="blurOut2" type="matrix" values="0 0 0 0 0 0 0 0 0 0 0 0 0 0 0 0 0 0 .4 0"/><feOffset dx="8.333333333333334" dy="8.333333333333334" in="blurOut2" result="blurOut3"/><feBlend in="SourceGraphic" in2="blurOut3" mode="normal"/></filter></defs><g><ellipse cx="457.8125" cy="151.534" fill="#000000" filter="url(#fu0l6fp3r608l)" rx="20.8333" ry="20.8333" style="stroke:none;stroke-width:2.0833333333333335;"/><rect fill="#FEFECE" filter="url(#fu0l6fp3r608l)" height="73.112" rx="26.0417" ry="26.0417" style="stroke:#A80036;stroke-width:3.125;" width="372.9167" x="43.75" y="420.4793"/><text fill="#000000" font-family="sans-serif" font-size="25" lengthAdjust="spacing" textLength="331.25" x="64.5833" y="467.2648">Click vào chuyến đi muốn đặt</text><rect fill="#FEFECE" filter="url(#fu0l6fp3r608l)" height="73.112" rx="26.0417" ry="26.0417" style="stroke:#A80036;stroke-width:3.125;" width="360.4167" x="67.1875" y="787.5366"/><text fill="#000000" font-family="sans-serif" font-size="25" lengthAdjust="spacing" textLength="318.75" x="88.0208" y="834.3221">Click vào ghế muốn đặt, hủy</text><polygon fill="#FEFECE" filter="url(#fu0l6fp3r608l)" points="163.0208,1058.7606,331.7708,1058.7606,356.7708,1083.7606,331.7708,1108.7606,163.0208,1108.7606,138.0208,1083.7606,163.0208,1058.7606" style="stroke:#A80036;stroke-width:3.125;"/><text fill="#000000" font-family="sans-serif" font-size="22.9167" lengthAdjust="spacing" textLength="168.75" x="163.0208" y="1093.1376">Hài lòng rồi chứ?</text><text fill="#000000" font-family="sans-serif" font-size="22.9167" lengthAdjust="spacing" textLength="64.5833" x="356.7708" y="1078.7252">Không</text><rect fill="#FEFECE" filter="url(#fu0l6fp3r608l)" height="73.112" rx="26.0417" ry="26.0417" style="stroke:#A80036;stroke-width:3.125;" width="243.75" x="335.9375" y="1502.3641"/><text fill="#000000" font-family="sans-serif" font-size="25" lengthAdjust="spacing" textLength="91.6667" x="356.7708" y="1549.1496">click nút</text><text fill="#000000" font-family="sans-serif" font-size="25" font-weight="bold" lengthAdjust="spacing" textLength="104.1667" x="454.6875" y="1549.1496">Đặt ngay</text><line style="stroke:#000000;stroke-width:4.166666666666667;" x1="31.25" x2="31.25" y1="25.9481" y2="2542.5822"/><polygon fill="#90EE90" filter="url(#fu0l6fp3r608l)" points="741.6667,214.034,1127.0833,214.034,1147.9167,250.59,1127.0833,287.146,741.6667,287.146" style="stroke:#A80036;stroke-width:3.125;"/><text fill="#000000" font-family="sans-serif" font-size="25" lengthAdjust="spacing" textLength="168.75" x="762.5" y="260.8195">Từ kết quả của</text><text fill="#FF0000" font-family="sans-serif" font-size="25" font-weight="bold" lengthAdjust="spacing" textLength="162.5" x="937.5" y="260.8195">Tìm chuyến đi</text><text fill="#000000" font-family="sans-serif" font-size="25" lengthAdjust="spacing" textLength="0" x="1106.25" y="260.8195"/><polygon fill="#FEFECE" filter="url(#fu0l6fp3r608l)" points="790.625,328.8127,1078.125,328.8127,1103.125,353.8127,1078.125,378.8127,790.625,378.8127,765.625,353.8127,790.625,328.8127" style="stroke:#A80036;stroke-width:3.125;"/><text fill="#000000" font-family="sans-serif" font-size="22.9167" lengthAdjust="spacing" textLength="287.5" x="790.625" y="363.1897">Tìm thấy chuyến nào không?</text><text fill="#000000" font-family="sans-serif" font-size="22.9167" lengthAdjust="spacing" textLength="25" x="740.625" y="348.7773">có</text><text fill="#000000" font-family="sans-serif" font-size="22.9167" lengthAdjust="spacing" textLength="60.4167" x="1103.125" y="348.7773">không</text><rect fill="#FEFECE" filter="url(#fu0l6fp3r608l)" height="73.112" rx="26.0417" ry="26.0417" style="stroke:#A80036;stroke-width:3.125;" width="454.1667" x="934.8958" y="420.4793"/><text fill="#000000" font-family="sans-serif" font-size="25" lengthAdjust="spacing" textLength="83.3333" x="955.7292" y="467.2648">hiển thị</text><text fill="#000000" font-family="sans-serif" font-size="25" font-weight="bold" lengthAdjust="spacing" textLength="322.9167" x="1045.3125" y="467.2648">Không tìm thấy chuyến nào!</text><ellipse cx="1161.9792" cy="556.0913" fill="#FFFFFF" filter="url(#fu0l6fp3r608l)" rx="20.8333" ry="20.8333" style="stroke:#000000;stroke-width:3.125;"/><line style="stroke:#000000;stroke-width:5.208333333333334;" x1="1149.0892" x2="1174.8691" y1="543.2013" y2="568.9813"/><line style="stroke:#000000;stroke-width:5.208333333333334;" x1="1174.8691" x2="1149.0892" y1="543.2013" y2="568.9813"/><rect fill="#FEFECE" filter="url(#fu0l6fp3r608l)" height="73.112" rx="26.0417" ry="26.0417" style="stroke:#A80036;stroke-width:3.125;" width="372.9167" x="747.9167" y="618.5913"/><text fill="#000000" font-family="sans-serif" font-size="25" lengthAdjust="spacing" textLength="233.3333" x="768.75" y="665.3768">điều hướng tới bảng</text><text fill="#000000" font-family="sans-serif" font-size="25" font-weight="bold" lengthAdjust="spacing" textLength="91.6667" x="1008.3333" y="665.3768">Đặt chỗ</text><rect fill="#000000" filter="url(#fu0l6fp3r608l)" height="12.5" rx="5.2083" ry="5.2083" style="stroke:#000000;stroke-width:2.0833333333333335;" width="741.1458" x="613.0208" y="733.37"/><rect fill="#FEFECE" filter="url(#fu0l6fp3r608l)" height="136.0026" rx="26.0417" ry="26.0417" style="stroke:#A80036;stroke-width:3.125;" width="312.5" x="1012.5" y="881.0913"/><text fill="#000000" font-family="sans-serif" font-size="25" lengthAdjust="spacing" textLength="193.75" x="1033.3333" y="927.8768">hiển thị tổng tiền,</text><text fill="#000000" font-family="sans-serif" font-size="25" lengthAdjust="spacing" textLength="270.8333" x="1033.3333" y="959.3221">ghế trống, ghế đang đặt</text><text fill="#000000" font-family="sans-serif" font-size="25" lengthAdjust="spacing" textLength="156.25" x="1033.3333" y="990.7674">thời gian thực</text><rect fill="#000000" filter="url(#fu0l6fp3r608l)" height="12.5" rx="5.2083" ry="5.2083" style="stroke:#000000;stroke-width:2.0833333333333335;" width="741.1458" x="613.0208" y="1179.2521"/><polygon fill="#FEFECE" filter="url(#fu0l6fp3r608l)" points="850,1233.4188,1018.75,1233.4188,1043.75,1258.4188,1018.75,1283.4188,850,1283.4188,825,1258.4188,850,1233.4188" style="stroke:#A80036;stroke-width:3.125;"/><text fill="#000000" font-family="sans-serif" font-size="22.9167" lengthAdjust="spacing" textLength="168.75" x="850" y="1267.7958">lựa chọn hợp lệ?</text><text fill="#000000" font-family="sans-serif" font-size="22.9167" lengthAdjust="spacing" textLength="25" x="800" y="1253.3834">có</text><text fill="#000000" font-family="sans-serif" font-size="22.9167" lengthAdjust="spacing" textLength="60.4167" x="1043.75" y="1253.3834">không</text><rect fill="#FEFECE" filter="url(#fu0l6fp3r608l)" height="73.112" rx="26.0417" ry="26.0417" style="stroke:#A80036;stroke-width:3.125;" width="235.4167" x="638.0208" y="1304.2521"/><text fill="#000000" font-family="sans-serif" font-size="25" lengthAdjust="spacing" textLength="77.0833" x="658.8542" y="1351.0376">Mở nút</text><text fill="#000000" font-family="sans-serif" font-size="25" font-weight="bold" lengthAdjust="spacing" textLength="110.4167" x="742.1875" y="1351.0376">Đặt ngay!</text><rect fill="#FEFECE" filter="url(#fu0l6fp3r608l)" height="73.112" rx="26.0417" ry="26.0417" style="stroke:#A80036;stroke-width:3.125;" width="395.8333" x="915.1042" y="1304.2521"/><text fill="#000000" font-family="sans-serif" font-size="25" lengthAdjust="spacing" textLength="237.5" x="935.9375" y="1351.0376">Khóa và Làm mờ nút</text><text fill="#000000" font-family="sans-serif" font-size="25" font-weight="bold" lengthAdjust="spacing" textLength="110.4167" x="1179.6875" y="1351.0376">Đặt ngay!</text><ellipse cx="1113.0208" cy="1439.8641" fill="#FFFFFF" filter="url(#fu0l6fp3r608l)" rx="20.8333" ry="20.8333" style="stroke:#000000;stroke-width:3.125;"/><line style="stroke:#000000;stroke-width:5.208333333333334;" x1="1100.1309" x2="1125.9108" y1="1426.9741" y2="1452.7541"/><line style="stroke:#000000;stroke-width:5.208333333333334;" x1="1125.9108" x2="1100.1309" y1="1426.9741" y2="1452.7541"/><polygon fill="#90EE90" filter="url(#fu0l6fp3r608l)" points="692.7083,1719.0552,1176.0417,1719.0552,1196.875,1755.6112,1176.0417,1792.1672,692.7083,1792.1672" style="stroke:#A80036;stroke-width:3.125;"/><text fill="#000000" font-family="sans-serif" font-size="25" lengthAdjust="spacing" textLength="302.0833" x="713.5417" y="1765.8407">Điều hướng đến màn hình</text><text fill="#FF0000" font-family="sans-serif" font-size="25" font-weight="bold" lengthAdjust="spacing" textLength="127.0833" x="1021.875" y="1765.8407">Đăng nhập</text><text fill="#000000" font-family="sans-serif" font-size="25" lengthAdjust="spacing" textLength="0" x="1155.2083" y="1765.8407"/><ellipse cx="934.375" cy="1956.5796" fill="#FFFFFF" filter="url(#fu0l6fp3r608l)" rx="20.8333" ry="20.8333" style="stroke:#000000;stroke-width:3.125;"/><line style="stroke:#000000;stroke-width:5.208333333333334;" x1="921.485" x2="947.265" y1="1943.6896" y2="1969.4696"/><line style="stroke:#000000;stroke-width:5.208333333333334;" x1="947.265" x2="921.485" y1="1943.6896" y2="1969.4696"/><polygon fill="#FEFECE" filter="url(#fu0l6fp3r608l)" points="813.5417,1833.8338,1055.2083,1833.8338,1080.2083,1858.8338,1055.2083,1883.8338,813.5417,1883.8338,788.5417,1858.8338,813.5417,1833.8338" style="stroke:#A80036;stroke-width:3.125;"/><text fill="#000000" font-family="sans-serif" font-size="22.9167" lengthAdjust="spacing" textLength="31.25" x="942.7083" y="1907.6233">Sai</text><text fill="#000000" font-family="sans-serif" font-size="22.9167" lengthAdjust="spacing" textLength="241.6667" x="813.5417" y="1868.2109">Đăng nhập thành công?</text><text fill="#000000" font-family="sans-serif" font-size="22.9167" lengthAdjust="spacing" textLength="54.1667" x="1080.2083" y="1853.7984">Đúng</text><polygon fill="#FEFECE" filter="url(#fu0l6fp3r608l)" points="857.2917,1617.1427,1011.4583,1617.1427,1036.4583,1642.1427,1011.4583,1667.1427,857.2917,1667.1427,832.2917,1642.1427,857.2917,1617.1427" style="stroke:#A80036;stroke-width:3.125;"/><text fill="#000000" font-family="sans-serif" font-size="22.9167" lengthAdjust="spacing" textLength="29.1667" x="942.7083" y="1690.9322">sai</text><text fill="#000000" font-family="sans-serif" font-size="22.9167" lengthAdjust="spacing" textLength="154.1667" x="857.2917" y="1651.5198">Đã đăng nhập?</text><text fill="#000000" font-family="sans-serif" font-size="22.9167" lengthAdjust="spacing" textLength="54.1667" x="1036.4583" y="1637.1073">Đúng</text><polygon fill="#FEFECE" filter="url(#fu0l6fp3r608l)" points="934.375,2064.9129,959.375,2089.9129,934.375,2114.9129,909.375,2089.9129,934.375,2064.9129" style="stroke:#A80036;stroke-width:3.125;"/><rect fill="#FEFECE" filter="url(#fu0l6fp3r608l)" height="73.112" rx="26.0417" ry="26.0417" style="stroke:#A80036;stroke-width:3.125;" width="312.5" x="778.125" y="2156.5796"/><text fill="#000000" font-family="sans-serif" font-size="25" lengthAdjust="spacing" textLength="270.8333" x="798.9583" y="2203.3651">Lưu thông tin vào CSDL</text><rect fill="#FEFECE" filter="url(#fu0l6fp3r608l)" height="73.112" rx="26.0417" ry="26.0417" style="stroke:#A80036;stroke-width:3.125;" width="552.0833" x="658.3333" y="2271.3582"/><text fill="#000000" font-family="sans-serif" font-size="25" lengthAdjust="spacing" textLength="510.4167" x="679.1667" y="2318.1437">Gửi tin thành công cho khách qua email/sms</text><rect fill="#FEFECE" filter="url(#fu0l6fp3r608l)" height="73.112" rx="26.0417" ry="26.0417" style="stroke:#A80036;stroke-width:3.125;" width="479.1667" x="694.7917" y="2386.1369"/><text fill="#000000" font-family="sans-serif" font-size="25" lengthAdjust="spacing" textLength="437.5" x="715.625" y="2432.9224">Hiển thị thông báo đặt chỗ thành công!</text><ellipse cx="934.375" cy="2521.7489" fill="#FFFFFF" filter="url(#fu0l6fp3r608l)" rx="20.8333" ry="20.8333" style="stroke:#000000;stroke-width:3.125;"/><line style="stroke:#000000;stroke-width:5.208333333333334;" x1="921.485" x2="947.265" y1="2508.8589" y2="2534.6388"/><line style="stroke:#000000;stroke-width:5.208333333333334;" x1="947.265" x2="921.485" y1="2508.8589" y2="2534.6388"/><line style="stroke:#000000;stroke-width:4.166666666666667;" x1="600.5208" x2="600.5208" y1="25.9481" y2="2542.5822"/><line style="stroke:#000000;stroke-width:4.166666666666667;" x1="1409.8958" x2="1409.8958" y1="25.9481" y2="2542.5822"/><line style="stroke:#A80036;stroke-width:3.125;" x1="247.3958" x2="247.3958" y1="860.6486" y2="1058.7606"/><polygon fill="#A80036" points="239.0625,1037.9272,247.3958,1058.7606,255.7292,1037.9272,247.3958,1046.2606" style="stroke:#A80036;stroke-width:2.0833333333333335;"/><line style="stroke:#A80036;stroke-width:3.125;" x1="356.7708" x2="452.6042" y1="1083.7606" y2="1083.7606"/><polygon fill="#A80036" points="444.2708,975.7039,452.6042,954.8706,460.9375,975.7039,452.6042,967.3706" style="stroke:#A80036;stroke-width:3.125;"/><line style="stroke:#A80036;stroke-width:3.125;" x1="452.6042" x2="452.6042" y1="824.0926" y2="1083.7606"/><line style="stroke:#A80036;stroke-width:3.125;" x1="452.6042" x2="427.6042" y1="824.0926" y2="824.0926"/><polygon fill="#A80036" points="448.4375,815.7593,427.6042,824.0926,448.4375,832.4259,440.1042,824.0926" style="stroke:#A80036;stroke-width:2.0833333333333335;"/><line style="stroke:#A80036;stroke-width:3.125;" x1="1161.9792" x2="1161.9792" y1="493.5913" y2="535.258"/><polygon fill="#A80036" points="1153.6458,514.4246,1161.9792,535.258,1170.3125,514.4246,1161.9792,522.758" style="stroke:#A80036;stroke-width:2.0833333333333335;"/><line style="stroke:#A80036;stroke-width:3.125;" x1="1103.125" x2="1161.9792" y1="353.8127" y2="353.8127"/><line style="stroke:#A80036;stroke-width:3.125;" x1="1161.9792" x2="1161.9792" y1="353.8127" y2="420.4793"/><polygon fill="#A80036" points="1153.6458,399.646,1161.9792,420.4793,1170.3125,399.646,1161.9792,407.9793" style="stroke:#A80036;stroke-width:2.0833333333333335;"/><line style="stroke:#A80036;stroke-width:3.125;" x1="934.375" x2="934.375" y1="287.146" y2="328.8127"/><polygon fill="#A80036" points="926.0417,307.9793,934.375,328.8127,942.7083,307.9793,934.375,316.3127" style="stroke:#A80036;stroke-width:2.0833333333333335;"/><line style="stroke:#A80036;stroke-width:3.125;" x1="230.2083" x2="230.2083" y1="493.5913" y2="585.258"/><line style="stroke:#A80036;stroke-width:3.125;" x1="230.2083" x2="934.375" y1="585.258" y2="585.258"/><line style="stroke:#A80036;stroke-width:3.125;" x1="934.375" x2="934.375" y1="585.258" y2="618.5913"/><polygon fill="#A80036" points="926.0417,597.758,934.375,618.5913,942.7083,597.758,934.375,606.0913" style="stroke:#A80036;stroke-width:2.0833333333333335;"/><line style="stroke:#A80036;stroke-width:3.125;" x1="1168.75" x2="1168.75" y1="745.87" y2="881.0913"/><polygon fill="#A80036" points="1160.4167,860.258,1168.75,881.0913,1177.0833,860.258,1168.75,868.5913" style="stroke:#A80036;stroke-width:2.0833333333333335;"/><line style="stroke:#A80036;stroke-width:3.125;" x1="1168.75" x2="1168.75" y1="1017.0939" y2="1179.2521"/><polygon fill="#A80036" points="1160.4167,1158.4188,1168.75,1179.2521,1177.0833,1158.4188,1168.75,1166.7521" style="stroke:#A80036;stroke-width:2.0833333333333335;"/><line style="stroke:#A80036;stroke-width:3.125;" x1="934.375" x2="934.375" y1="691.7033" y2="733.37"/><polygon fill="#A80036" points="926.0417,712.5366,934.375,733.37,942.7083,712.5366,934.375,720.87" style="stroke:#A80036;stroke-width:2.0833333333333335;"/><line style="stroke:#A80036;stroke-width:3.125;" x1="1113.0208" x2="1113.0208" y1="1377.3641" y2="1419.0308"/><polygon fill="#A80036" points="1104.6875,1398.1974,1113.0208,1419.0308,1121.3542,1398.1974,1113.0208,1406.5308" style="stroke:#A80036;stroke-width:2.0833333333333335;"/><line style="stroke:#A80036;stroke-width:3.125;" x1="825" x2="755.7292" y1="1258.4188" y2="1258.4188"/><line style="stroke:#A80036;stroke-width:3.125;" x1="755.7292" x2="755.7292" y1="1258.4188" y2="1304.2521"/><polygon fill="#A80036" points="747.3958,1283.4188,755.7292,1304.2521,764.0625,1283.4188,755.7292,1291.7521" style="stroke:#A80036;stroke-width:2.0833333333333335;"/><line style="stroke:#A80036;stroke-width:3.125;" x1="1043.75" x2="1113.0208" y1="1258.4188" y2="1258.4188"/><line style="stroke:#A80036;stroke-width:3.125;" x1="1113.0208" x2="1113.0208" y1="1258.4188" y2="1304.2521"/><polygon fill="#A80036" points="1104.6875,1283.4188,1113.0208,1304.2521,1121.3542,1283.4188,1113.0208,1291.7521" style="stroke:#A80036;stroke-width:2.0833333333333335;"/><line style="stroke:#A80036;stroke-width:3.125;" x1="755.7292" x2="755.7292" y1="1377.3641" y2="1471.1141"/><line style="stroke:#A80036;stroke-width:3.125;" x1="755.7292" x2="457.8125" y1="1471.1141" y2="1471.1141"/><line style="stroke:#A80036;stroke-width:3.125;" x1="457.8125" x2="457.8125" y1="1471.1141" y2="1502.3641"/><polygon fill="#A80036" points="449.4792,1481.5308,457.8125,1502.3641,466.1458,1481.5308,457.8125,1489.8641" style="stroke:#A80036;stroke-width:2.0833333333333335;"/><line style="stroke:#A80036;stroke-width:3.125;" x1="934.375" x2="934.375" y1="1191.7521" y2="1233.4188"/><polygon fill="#A80036" points="926.0417,1212.5854,934.375,1233.4188,942.7083,1212.5854,934.375,1220.9188" style="stroke:#A80036;stroke-width:2.0833333333333335;"/><line style="stroke:#A80036;stroke-width:3.125;" x1="934.375" x2="934.375" y1="1883.8338" y2="1935.7463"/><polygon fill="#A80036" points="926.0417,1914.9129,934.375,1935.7463,942.7083,1914.9129,934.375,1923.2463" style="stroke:#A80036;stroke-width:2.0833333333333335;"/><line style="stroke:#A80036;stroke-width:3.125;" x1="1080.2083" x2="1105.2083" y1="1858.8338" y2="1858.8338"/><polygon fill="#A80036" points="1096.875,1929.4963,1105.2083,1950.3296,1113.5417,1929.4963,1105.2083,1937.8296" style="stroke:#A80036;stroke-width:3.125;"/><line style="stroke:#A80036;stroke-width:3.125;" x1="1105.2083" x2="1105.2083" y1="1858.8338" y2="2023.2463"/><line style="stroke:#A80036;stroke-width:3.125;" x1="1105.2083" x2="934.375" y1="2023.2463" y2="2023.2463"/><line style="stroke:#A80036;stroke-width:3.125;" x1="934.375" x2="934.375" y1="2023.2463" y2="2064.9129"/><polygon fill="#A80036" points="926.0417,2044.0796,934.375,2064.9129,942.7083,2044.0796,934.375,2052.4129" style="stroke:#A80036;stroke-width:2.0833333333333335;"/><line style="stroke:#A80036;stroke-width:3.125;" x1="934.375" x2="934.375" y1="1792.1672" y2="1833.8338"/><polygon fill="#A80036" points="926.0417,1813.0005,934.375,1833.8338,942.7083,1813.0005,934.375,1821.3338" style="stroke:#A80036;stroke-width:2.0833333333333335;"/><line style="stroke:#A80036;stroke-width:3.125;" x1="934.375" x2="934.375" y1="1667.1427" y2="1719.0552"/><polygon fill="#A80036" points="926.0417,1698.2218,934.375,1719.0552,942.7083,1698.2218,934.375,1706.5552" style="stroke:#A80036;stroke-width:2.0833333333333335;"/><line style="stroke:#A80036;stroke-width:3.125;" x1="1036.4583" x2="1217.7083" y1="1642.1427" y2="1642.1427"/><polygon fill="#A80036" points="1209.375,1843.9819,1217.7083,1864.8153,1226.0417,1843.9819,1217.7083,1852.3153" style="stroke:#A80036;stroke-width:3.125;"/><line style="stroke:#A80036;stroke-width:3.125;" x1="1217.7083" x2="1217.7083" y1="1642.1427" y2="2089.9129"/><line style="stroke:#A80036;stroke-width:3.125;" x1="1217.7083" x2="959.375" y1="2089.9129" y2="2089.9129"/><polygon fill="#A80036" points="980.2083,2081.5796,959.375,2089.9129,980.2083,2098.2463,971.875,2089.9129" style="stroke:#A80036;stroke-width:2.0833333333333335;"/><line style="stroke:#A80036;stroke-width:3.125;" x1="934.375" x2="934.375" y1="2114.9129" y2="2156.5796"/><polygon fill="#A80036" points="926.0417,2135.7463,934.375,2156.5796,942.7083,2135.7463,934.375,2144.0796" style="stroke:#A80036;stroke-width:2.0833333333333335;"/><line style="stroke:#A80036;stroke-width:3.125;" x1="934.375" x2="934.375" y1="2229.6916" y2="2271.3582"/><polygon fill="#A80036" points="926.0417,2250.5249,934.375,2271.3582,942.7083,2250.5249,934.375,2258.8582" style="stroke:#A80036;stroke-width:2.0833333333333335;"/><line style="stroke:#A80036;stroke-width:3.125;" x1="934.375" x2="934.375" y1="2344.4702" y2="2386.1369"/><polygon fill="#A80036" points="926.0417,2365.3035,934.375,2386.1369,942.7083,2365.3035,934.375,2373.6369" style="stroke:#A80036;stroke-width:2.0833333333333335;"/><line style="stroke:#A80036;stroke-width:3.125;" x1="934.375" x2="934.375" y1="2459.2489" y2="2500.9155"/><polygon fill="#A80036" points="926.0417,2480.0822,934.375,2500.9155,942.7083,2480.0822,934.375,2488.4155" style="stroke:#A80036;stroke-width:2.0833333333333335;"/><line style="stroke:#A80036;stroke-width:3.125;" x1="457.8125" x2="457.8125" y1="172.3674" y2="182.784"/><line style="stroke:#A80036;stroke-width:3.125;" x1="457.8125" x2="934.375" y1="182.784" y2="182.784"/><line style="stroke:#A80036;stroke-width:3.125;" x1="934.375" x2="934.375" y1="182.784" y2="214.034"/><polygon fill="#A80036" points="926.0417,193.2007,934.375,214.034,942.7083,193.2007,934.375,201.534" style="stroke:#A80036;stroke-width:2.0833333333333335;"/><line style="stroke:#A80036;stroke-width:3.125;" x1="765.625" x2="230.2083" y1="353.8127" y2="353.8127"/><line style="stroke:#A80036;stroke-width:3.125;" x1="230.2083" x2="230.2083" y1="353.8127" y2="420.4793"/><polygon fill="#A80036" points="221.875,399.646,230.2083,420.4793,238.5417,399.646,230.2083,407.9793" style="stroke:#A80036;stroke-width:2.0833333333333335;"/><line style="stroke:#A80036;stroke-width:3.125;" x1="723.9583" x2="723.9583" y1="745.87" y2="754.2033"/><line style="stroke:#A80036;stroke-width:3.125;" x1="723.9583" x2="247.3958" y1="754.2033" y2="754.2033"/><line style="stroke:#A80036;stroke-width:3.125;" x1="247.3958" x2="247.3958" y1="754.2033" y2="787.5366"/><polygon fill="#A80036" points="239.0625,766.7033,247.3958,787.5366,255.7292,766.7033,247.3958,775.0366" style="stroke:#A80036;stroke-width:2.0833333333333335;"/><line style="stroke:#A80036;stroke-width:3.125;" x1="247.3958" x2="247.3958" y1="1108.7606" y2="1150.0854"/><line style="stroke:#A80036;stroke-width:3.125;" x1="247.3958" x2="723.9583" y1="1150.0854" y2="1150.0854"/><line style="stroke:#A80036;stroke-width:3.125;" x1="723.9583" x2="723.9583" y1="1150.0854" y2="1179.2521"/><polygon fill="#A80036" points="715.625,1158.4188,723.9583,1179.2521,732.2917,1158.4188,723.9583,1166.7521" style="stroke:#A80036;stroke-width:2.0833333333333335;"/><text fill="#000000" font-family="sans-serif" font-size="22.9167" lengthAdjust="spacing" textLength="27.0833" x="255.7292" y="1138.8">Ok</text><line style="stroke:#A80036;stroke-width:3.125;" x1="457.8125" x2="457.8125" y1="1575.4761" y2="1585.8927"/><line style="stroke:#A80036;stroke-width:3.125;" x1="457.8125" x2="934.375" y1="1585.8927" y2="1585.8927"/><line style="stroke:#A80036;stroke-width:3.125;" x1="934.375" x2="934.375" y1="1585.8927" y2="1617.1427"/><polygon fill="#A80036" points="926.0417,1596.3094,934.375,1617.1427,942.7083,1596.3094,934.375,1604.6427" style="stroke:#A80036;stroke-width:2.0833333333333335;"/><text fill="#000000" font-family="sans-serif" font-size="37.5" lengthAdjust="spacing" textLength="279.1667" x="181.5104" y="64.8763">Thành viên hoặc</text><text fill="#000000" font-family="sans-serif" font-size="37.5" lengthAdjust="spacing" textLength="262.5" x="181.5104" y="112.0443">Khách Vãng Lai</text><text fill="#000000" font-family="sans-serif" font-size="37.5" lengthAdjust="spacing" textLength="152.0833" x="934.375" y="64.8763">Hệ thống</text><!--MD5=[592d86a67a3d1bd88b2a815062070bea]
@startuml
skinparam dpi 200


|user| Thành viên hoặc\n Khách Vãng Lai
start
|system| Hệ thống
#lightgreen:Từ kết quả của <b><color:red>Tìm chuyến đi</color></b> >
if (Tìm thấy chuyến nào không?) then (có)
	|user|
	:Click vào chuyến đi muốn đặt;
else (không)
	|system|
	:hiển thị <b>Không tìm thấy chuyến nào!</b>;
	end
endif

|system|
	:điều hướng tới bảng <b>Đặt chỗ</b>;
	fork
|user|
	repeat :Click vào ghế muốn đặt, hủy;
	repeat while (Hài lòng rồi chứ?) is (Không)
	->Ok;
|system|
	fork again
	:hiển thị tổng tiền,
	ghế trống, ghế đang đặt
	thời gian thực;
end fork
if (lựa chọn hợp lệ?) then (có)
	:Mở nút <b>Đặt ngay!</b>;
else (không)
	:Khóa và Làm mờ nút <b>Đặt ngay!</b>;
	end
endif
|user|
:click nút <b>Đặt ngay</b>;
|system|
if (Đã đăng nhập?) then (Đúng)

else (sai)
	#lightgreen:Điều hướng đến màn hình <b><color:red>Đăng nhập</color></b> >
	if (Đăng nhập thành công?) then (Sai)
		end
	else (Đúng)
	endif

endif

:Lưu thông tin vào CSDL;
:Gửi tin thành công cho khách qua email/sms;
:Hiển thị thông báo đặt chỗ thành công!;
end
@enduml

PlantUML version 1.2021.2(Sun Mar 07 18:10:27 ICT 2021)
(GPL source distribution)
Java Runtime: OpenJDK Runtime Environment
JVM: Eclipse OpenJ9 VM
Default Encoding: UTF-8
Language: en
Country: US
--></g></svg>