<?xml version="1.0" encoding="UTF-8" standalone="no"?><svg xmlns="http://www.w3.org/2000/svg" xmlns:xlink="http://www.w3.org/1999/xlink" contentScriptType="application/ecmascript" contentStyleType="text/css" height="2820.8333px" preserveAspectRatio="none" style="width:1258px;height:2820px;" version="1.1" viewBox="0 0 1258 2820" width="1258.3333px" zoomAndPan="magnify"><defs><filter height="300%" id="favob0a1ul3tq" width="300%" x="-1" y="-1"><feGaussianBlur result="blurOut" stdDeviation="4.166666666666667"/><feColorMatrix in="blurOut" result="blurOut2" type="matrix" values="0 0 0 0 0 0 0 0 0 0 0 0 0 0 0 0 0 0 .4 0"/><feOffset dx="8.333333333333334" dy="8.333333333333334" in="blurOut2" result="blurOut3"/><feBlend in="SourceGraphic" in2="blurOut3" mode="normal"/></filter></defs><g><ellipse cx="368.75" cy="104.366" fill="#000000" filter="url(#favob0a1ul3tq)" rx="20.8333" ry="20.8333" style="stroke:none;stroke-width:2.0833333333333335;"/><rect fill="#FEFECE" filter="url(#favob0a1ul3tq)" height="104.5573" rx="26.0417" ry="26.0417" style="stroke:#A80036;stroke-width:3.125;" width="270.8333" x="43.75" y="404.7567"/><text fill="#000000" font-family="sans-serif" font-size="25" lengthAdjust="spacing" textLength="102.0833" x="64.5833" y="451.5422">Click vào</text><text fill="#000000" font-family="sans-serif" font-size="25" font-weight="bold" lengthAdjust="spacing" textLength="229.1667" x="64.5833" y="482.9875">chuyến đi muốn đặt</text><rect fill="#000000" filter="url(#favob0a1ul3tq)" height="12.5" rx="5.2083" ry="5.2083" style="stroke:#000000;stroke-width:2.0833333333333335;" width="414.5833" x="55.2083" y="780.5379"/><rect fill="#FEFECE" filter="url(#favob0a1ul3tq)" height="104.5573" rx="26.0417" ry="26.0417" style="stroke:#A80036;stroke-width:3.125;" width="250" x="84.375" y="834.7046"/><text fill="#000000" font-family="sans-serif" font-size="25" lengthAdjust="spacing" textLength="102.0833" x="105.2083" y="881.4901">Click vào</text><text fill="#000000" font-family="sans-serif" font-size="25" font-weight="bold" lengthAdjust="spacing" textLength="208.3333" x="105.2083" y="912.9354">ghế muốn đặt/hủy</text><polygon fill="#FEFECE" filter="url(#favob0a1ul3tq)" points="125,1139.2619,293.75,1139.2619,318.75,1164.2619,293.75,1189.2619,125,1189.2619,100,1164.2619,125,1139.2619" style="stroke:#A80036;stroke-width:3.125;"/><text fill="#000000" font-family="sans-serif" font-size="22.9167" lengthAdjust="spacing" textLength="168.75" x="125" y="1173.6389">Hài lòng rồi chứ?</text><text fill="#000000" font-family="sans-serif" font-size="22.9167" lengthAdjust="spacing" textLength="64.5833" x="318.75" y="1159.2265">Không</text><rect fill="#FEFECE" filter="url(#favob0a1ul3tq)" height="104.5573" rx="26.0417" ry="26.0417" style="stroke:#A80036;stroke-width:3.125;" width="152.0833" x="292.7083" y="1614.3107"/><text fill="#000000" font-family="sans-serif" font-size="25" lengthAdjust="spacing" textLength="97.9167" x="313.5417" y="1661.0962">Click nút</text><text fill="#000000" font-family="sans-serif" font-size="25" font-weight="bold" lengthAdjust="spacing" textLength="110.4167" x="313.5417" y="1692.5415">Đặt ngay!</text><line style="stroke:#000000;stroke-width:4.166666666666667;" x1="31.25" x2="31.25" y1="25.9481" y2="2785.6812"/><polygon fill="#90EE90" filter="url(#favob0a1ul3tq)" points="719.7917,166.866,930.2083,166.866,951.0417,219.1447,930.2083,271.4233,719.7917,271.4233" style="stroke:#A80036;stroke-width:3.125;"/><text fill="#000000" font-family="sans-serif" font-size="25" lengthAdjust="spacing" textLength="143.75" x="740.625" y="213.6515">Từ kết quả ở</text><text fill="#000000" font-family="sans-serif" font-size="25" font-weight="bold" lengthAdjust="spacing" textLength="162.5" x="740.625" y="245.0968">Tìm chuyến đi</text><text fill="#000000" font-family="sans-serif" font-size="25" lengthAdjust="spacing" textLength="0" x="909.375" y="245.0968"/><polygon fill="#FEFECE" filter="url(#favob0a1ul3tq)" points="681.25,313.09,968.75,313.09,993.75,338.09,968.75,363.09,681.25,363.09,656.25,338.09,681.25,313.09" style="stroke:#A80036;stroke-width:3.125;"/><text fill="#000000" font-family="sans-serif" font-size="22.9167" lengthAdjust="spacing" textLength="287.5" x="681.25" y="347.467">Tìm thấy chuyến nào không?</text><text fill="#000000" font-family="sans-serif" font-size="22.9167" lengthAdjust="spacing" textLength="25" x="631.25" y="333.0546">có</text><text fill="#000000" font-family="sans-serif" font-size="22.9167" lengthAdjust="spacing" textLength="60.4167" x="993.75" y="333.0546">không</text><rect fill="#FEFECE" filter="url(#favob0a1ul3tq)" height="104.5573" rx="26.0417" ry="26.0417" style="stroke:#A80036;stroke-width:3.125;" width="364.5833" x="832.2917" y="404.7567"/><text fill="#000000" font-family="sans-serif" font-size="25" lengthAdjust="spacing" textLength="87.5" x="853.125" y="451.5422">Hiển thị</text><text fill="#000000" font-family="sans-serif" font-size="25" font-weight="bold" lengthAdjust="spacing" textLength="322.9167" x="853.125" y="482.9875">Không tìm thấy chuyến nào!</text><ellipse cx="1014.5833" cy="571.814" fill="#FFFFFF" filter="url(#favob0a1ul3tq)" rx="20.8333" ry="20.8333" style="stroke:#000000;stroke-width:3.125;"/><line style="stroke:#000000;stroke-width:5.208333333333334;" x1="1001.6934" x2="1027.4733" y1="558.924" y2="584.7039"/><line style="stroke:#000000;stroke-width:5.208333333333334;" x1="1027.4733" x2="1001.6934" y1="558.924" y2="584.7039"/><rect fill="#FEFECE" filter="url(#favob0a1ul3tq)" height="104.5573" rx="26.0417" ry="26.0417" style="stroke:#A80036;stroke-width:3.125;" width="279.1667" x="685.4167" y="634.314"/><text fill="#000000" font-family="sans-serif" font-size="25" lengthAdjust="spacing" textLength="237.5" x="706.25" y="681.0994">Chuyển tới màn hình</text><text fill="#000000" font-family="sans-serif" font-size="25" font-weight="bold" lengthAdjust="spacing" textLength="91.6667" x="706.25" y="712.5448">Đặt chỗ</text><rect fill="#FEFECE" filter="url(#favob0a1ul3tq)" height="230.3385" rx="26.0417" ry="26.0417" style="stroke:#A80036;stroke-width:3.125;" width="210.4167" x="898.9583" y="896.814"/><text fill="#000000" font-family="sans-serif" font-size="25" lengthAdjust="spacing" textLength="87.5" x="919.7917" y="943.5994">Hiển thị</text><text fill="#000000" font-family="sans-serif" font-size="25" lengthAdjust="spacing" textLength="8.3333" x="919.7917" y="975.0448">-</text><text fill="#000000" font-family="sans-serif" font-size="25" font-weight="bold" lengthAdjust="spacing" textLength="108.3333" x="934.375" y="975.0448">Tổng tiền</text><text fill="#000000" font-family="sans-serif" font-size="25" lengthAdjust="spacing" textLength="8.3333" x="919.7917" y="1006.4901">-</text><text fill="#000000" font-family="sans-serif" font-size="25" font-weight="bold" lengthAdjust="spacing" textLength="114.5833" x="934.375" y="1006.4901">Ghế trống</text><text fill="#000000" font-family="sans-serif" font-size="25" lengthAdjust="spacing" textLength="8.3333" x="919.7917" y="1037.9354">-</text><text fill="#000000" font-family="sans-serif" font-size="25" font-weight="bold" lengthAdjust="spacing" textLength="154.1667" x="934.375" y="1037.9354">Ghế đang đặt</text><text fill="#000000" font-family="sans-serif" font-size="25" lengthAdjust="spacing" textLength="8.3333" x="919.7917" y="1069.3807">-</text><text fill="#000000" font-family="sans-serif" font-size="25" font-weight="bold" lengthAdjust="spacing" textLength="137.5" x="934.375" y="1069.3807">Ghế bị khóa</text><text fill="#000000" font-family="sans-serif" font-size="25" lengthAdjust="spacing" textLength="156.25" x="919.7917" y="1100.826">thời gian thực</text><rect fill="#000000" filter="url(#favob0a1ul3tq)" height="12.5" rx="5.2083" ry="5.2083" style="stroke:#000000;stroke-width:2.0833333333333335;" width="627.0833" x="511.4583" y="1259.7534"/><polygon fill="#FEFECE" filter="url(#favob0a1ul3tq)" points="740.625,1313.9201,909.375,1313.9201,934.375,1338.9201,909.375,1363.9201,740.625,1363.9201,715.625,1338.9201,740.625,1313.9201" style="stroke:#A80036;stroke-width:3.125;"/><text fill="#000000" font-family="sans-serif" font-size="22.9167" lengthAdjust="spacing" textLength="168.75" x="740.625" y="1348.2971">lựa chọn hợp lệ?</text><text fill="#000000" font-family="sans-serif" font-size="22.9167" lengthAdjust="spacing" textLength="25" x="690.625" y="1333.8847">có</text><text fill="#000000" font-family="sans-serif" font-size="22.9167" lengthAdjust="spacing" textLength="60.4167" x="934.375" y="1333.8847">không</text><rect fill="#FEFECE" filter="url(#favob0a1ul3tq)" height="104.5573" rx="26.0417" ry="26.0417" style="stroke:#A80036;stroke-width:3.125;" width="152.0833" x="618.75" y="1384.7534"/><text fill="#000000" font-family="sans-serif" font-size="25" lengthAdjust="spacing" textLength="77.0833" x="639.5833" y="1431.5389">Mở nút</text><text fill="#000000" font-family="sans-serif" font-size="25" font-weight="bold" lengthAdjust="spacing" textLength="110.4167" x="639.5833" y="1462.9842">Đặt ngay!</text><rect fill="#FEFECE" filter="url(#favob0a1ul3tq)" height="104.5573" rx="26.0417" ry="26.0417" style="stroke:#A80036;stroke-width:3.125;" width="279.1667" x="815.625" y="1384.7534"/><text fill="#000000" font-family="sans-serif" font-size="25" lengthAdjust="spacing" textLength="237.5" x="836.4583" y="1431.5389">Khóa và Làm mờ nút</text><text fill="#000000" font-family="sans-serif" font-size="25" font-weight="bold" lengthAdjust="spacing" textLength="110.4167" x="836.4583" y="1462.9842">Đặt ngay!</text><ellipse cx="955.2083" cy="1551.8107" fill="#FFFFFF" filter="url(#favob0a1ul3tq)" rx="20.8333" ry="20.8333" style="stroke:#000000;stroke-width:3.125;"/><line style="stroke:#000000;stroke-width:5.208333333333334;" x1="942.3184" x2="968.0983" y1="1538.9207" y2="1564.7007"/><line style="stroke:#000000;stroke-width:5.208333333333334;" x1="968.0983" x2="942.3184" y1="1538.9207" y2="1564.7007"/><polygon fill="#90EE90" filter="url(#favob0a1ul3tq)" points="685.4167,1862.4471,964.5833,1862.4471,985.4167,1914.7257,964.5833,1967.0044,685.4167,1967.0044" style="stroke:#A80036;stroke-width:3.125;"/><text fill="#000000" font-family="sans-serif" font-size="25" lengthAdjust="spacing" textLength="237.5" x="706.25" y="1909.2326">Chuyển tới màn hình</text><text fill="#000000" font-family="sans-serif" font-size="25" font-weight="bold" lengthAdjust="spacing" textLength="127.0833" x="706.25" y="1940.6779">Đăng nhập</text><text fill="#000000" font-family="sans-serif" font-size="25" lengthAdjust="spacing" textLength="0" x="839.5833" y="1940.6779"/><ellipse cx="825" cy="2139.0666" fill="#FFFFFF" filter="url(#favob0a1ul3tq)" rx="20.8333" ry="20.8333" style="stroke:#000000;stroke-width:3.125;"/><line style="stroke:#000000;stroke-width:5.208333333333334;" x1="812.11" x2="837.89" y1="2126.1766" y2="2151.9565"/><line style="stroke:#000000;stroke-width:5.208333333333334;" x1="837.89" x2="812.11" y1="2126.1766" y2="2151.9565"/><polygon fill="#FEFECE" filter="url(#favob0a1ul3tq)" points="755.2083,2008.6711,894.7917,2008.6711,919.7917,2037.4959,894.7917,2066.3208,755.2083,2066.3208,730.2083,2037.4959,755.2083,2008.6711" style="stroke:#A80036;stroke-width:3.125;"/><text fill="#000000" font-family="sans-serif" font-size="22.9167" lengthAdjust="spacing" textLength="31.25" x="833.3333" y="2090.1103">Sai</text><text fill="#000000" font-family="sans-serif" font-size="22.9167" lengthAdjust="spacing" textLength="110.4167" x="755.2083" y="2032.4605">Đăng nhập</text><text fill="#000000" font-family="sans-serif" font-size="22.9167" font-weight="bold" lengthAdjust="spacing" textLength="127.0833" x="755.2083" y="2061.2854">thành công</text><text fill="#000000" font-family="sans-serif" font-size="22.9167" lengthAdjust="spacing" textLength="12.5" x="882.2917" y="2061.2854">?</text><text fill="#000000" font-family="sans-serif" font-size="22.9167" lengthAdjust="spacing" textLength="54.1667" x="919.7917" y="2032.4605">Đúng</text><polygon fill="#FEFECE" filter="url(#favob0a1ul3tq)" points="747.9167,1760.5347,902.0833,1760.5347,927.0833,1785.5347,902.0833,1810.5347,747.9167,1810.5347,722.9167,1785.5347,747.9167,1760.5347" style="stroke:#A80036;stroke-width:3.125;"/><text fill="#000000" font-family="sans-serif" font-size="22.9167" lengthAdjust="spacing" textLength="29.1667" x="833.3333" y="1834.3241">sai</text><text fill="#000000" font-family="sans-serif" font-size="22.9167" lengthAdjust="spacing" textLength="154.1667" x="747.9167" y="1794.9117">Đã đăng nhập?</text><text fill="#000000" font-family="sans-serif" font-size="22.9167" lengthAdjust="spacing" textLength="54.1667" x="927.0833" y="1780.4993">Đúng</text><polygon fill="#FEFECE" filter="url(#favob0a1ul3tq)" points="825,2247.3999,850,2272.3999,825,2297.3999,800,2272.3999,825,2247.3999" style="stroke:#A80036;stroke-width:3.125;"/><rect fill="#FEFECE" filter="url(#favob0a1ul3tq)" height="104.5573" rx="26.0417" ry="26.0417" style="stroke:#A80036;stroke-width:3.125;" width="191.6667" x="729.1667" y="2339.0666"/><text fill="#000000" font-family="sans-serif" font-size="25" lengthAdjust="spacing" textLength="150" x="750" y="2385.8521">Lưu thông tin</text><text fill="#000000" font-family="sans-serif" font-size="25" font-weight="bold" lengthAdjust="spacing" textLength="112.5" x="750" y="2417.2974">vào CSDL</text><rect fill="#000000" filter="url(#favob0a1ul3tq)" height="12.5" rx="5.2083" ry="5.2083" style="stroke:#000000;stroke-width:2.0833333333333335;" width="643.75" x="503.125" y="2485.2905"/><rect fill="#FEFECE" filter="url(#favob0a1ul3tq)" height="104.5573" rx="26.0417" ry="26.0417" style="stroke:#A80036;stroke-width:3.125;" width="250" x="532.2917" y="2539.4572"/><text fill="#000000" font-family="sans-serif" font-size="25" lengthAdjust="spacing" textLength="208.3333" x="553.125" y="2586.2427">Gửi tin thành công</text><text fill="#000000" font-family="sans-serif" font-size="25" font-weight="bold" lengthAdjust="spacing" textLength="114.5833" x="553.125" y="2617.688">qua Email</text><rect fill="#FEFECE" filter="url(#favob0a1ul3tq)" height="104.5573" rx="26.0417" ry="26.0417" style="stroke:#A80036;stroke-width:3.125;" width="277.0833" x="840.625" y="2539.4572"/><text fill="#000000" font-family="sans-serif" font-size="25" lengthAdjust="spacing" textLength="208.3333" x="861.4583" y="2586.2427">Hiển thị thông báo</text><text fill="#000000" font-family="sans-serif" font-size="25" font-weight="bold" lengthAdjust="spacing" textLength="235.4167" x="861.4583" y="2617.688">Đặt chỗ thành công!</text><rect fill="#000000" filter="url(#favob0a1ul3tq)" height="12.5" rx="5.2083" ry="5.2083" style="stroke:#000000;stroke-width:2.0833333333333335;" width="643.75" x="503.125" y="2685.6812"/><ellipse cx="825" cy="2762.7645" fill="#FFFFFF" filter="url(#favob0a1ul3tq)" rx="22.9167" ry="22.9167" style="stroke:#000000;stroke-width:2.0833333333333335;"/><ellipse cx="825" cy="2762.7645" fill="#000000" rx="12.5" ry="12.5" style="stroke:#7F7F7F;stroke-width:2.0833333333333335;"/><line style="stroke:#000000;stroke-width:4.166666666666667;" x1="490.625" x2="490.625" y1="25.9481" y2="2785.6812"/><line style="stroke:#000000;stroke-width:4.166666666666667;" x1="1217.7083" x2="1217.7083" y1="25.9481" y2="2785.6812"/><line style="stroke:#A80036;stroke-width:3.125;" x1="209.375" x2="209.375" y1="939.2619" y2="1139.2619"/><polygon fill="#A80036" points="201.0417,1118.4285,209.375,1139.2619,217.7083,1118.4285,209.375,1126.7619" style="stroke:#A80036;stroke-width:2.0833333333333335;"/><line style="stroke:#A80036;stroke-width:3.125;" x1="318.75" x2="359.375" y1="1164.2619" y2="1164.2619"/><polygon fill="#A80036" points="351.0417,1046.4559,359.375,1025.6226,367.7083,1046.4559,359.375,1038.1226" style="stroke:#A80036;stroke-width:3.125;"/><line style="stroke:#A80036;stroke-width:3.125;" x1="359.375" x2="359.375" y1="886.9832" y2="1164.2619"/><line style="stroke:#A80036;stroke-width:3.125;" x1="359.375" x2="334.375" y1="886.9832" y2="886.9832"/><polygon fill="#A80036" points="355.2083,878.6499,334.375,886.9832,355.2083,895.3166,346.875,886.9832" style="stroke:#A80036;stroke-width:2.0833333333333335;"/><line style="stroke:#A80036;stroke-width:3.125;" x1="209.375" x2="209.375" y1="793.0379" y2="834.7046"/><polygon fill="#A80036" points="201.0417,813.8713,209.375,834.7046,217.7083,813.8713,209.375,822.2046" style="stroke:#A80036;stroke-width:2.0833333333333335;"/><line style="stroke:#A80036;stroke-width:3.125;" x1="1014.5833" x2="1014.5833" y1="509.314" y2="550.9806"/><polygon fill="#A80036" points="1006.25,530.1473,1014.5833,550.9806,1022.9167,530.1473,1014.5833,538.4806" style="stroke:#A80036;stroke-width:2.0833333333333335;"/><line style="stroke:#A80036;stroke-width:3.125;" x1="993.75" x2="1014.5833" y1="338.09" y2="338.09"/><line style="stroke:#A80036;stroke-width:3.125;" x1="1014.5833" x2="1014.5833" y1="338.09" y2="404.7567"/><polygon fill="#A80036" points="1006.25,383.9233,1014.5833,404.7567,1022.9167,383.9233,1014.5833,392.2567" style="stroke:#A80036;stroke-width:2.0833333333333335;"/><line style="stroke:#A80036;stroke-width:3.125;" x1="825" x2="825" y1="271.4233" y2="313.09"/><polygon fill="#A80036" points="816.6667,292.2567,825,313.09,833.3333,292.2567,825,300.59" style="stroke:#A80036;stroke-width:2.0833333333333335;"/><line style="stroke:#A80036;stroke-width:3.125;" x1="179.1667" x2="179.1667" y1="509.314" y2="600.9806"/><line style="stroke:#A80036;stroke-width:3.125;" x1="179.1667" x2="825" y1="600.9806" y2="600.9806"/><line style="stroke:#A80036;stroke-width:3.125;" x1="825" x2="825" y1="600.9806" y2="634.314"/><polygon fill="#A80036" points="816.6667,613.4806,825,634.314,833.3333,613.4806,825,621.814" style="stroke:#A80036;stroke-width:2.0833333333333335;"/><line style="stroke:#A80036;stroke-width:3.125;" x1="1004.1667" x2="1004.1667" y1="1127.1525" y2="1259.7534"/><polygon fill="#A80036" points="995.8333,1238.9201,1004.1667,1259.7534,1012.5,1238.9201,1004.1667,1247.2534" style="stroke:#A80036;stroke-width:2.0833333333333335;"/><line style="stroke:#A80036;stroke-width:3.125;" x1="955.2083" x2="955.2083" y1="1489.3107" y2="1530.9774"/><polygon fill="#A80036" points="946.875,1510.144,955.2083,1530.9774,963.5417,1510.144,955.2083,1518.4774" style="stroke:#A80036;stroke-width:2.0833333333333335;"/><line style="stroke:#A80036;stroke-width:3.125;" x1="715.625" x2="694.7917" y1="1338.9201" y2="1338.9201"/><line style="stroke:#A80036;stroke-width:3.125;" x1="694.7917" x2="694.7917" y1="1338.9201" y2="1384.7534"/><polygon fill="#A80036" points="686.4583,1363.9201,694.7917,1384.7534,703.125,1363.9201,694.7917,1372.2534" style="stroke:#A80036;stroke-width:2.0833333333333335;"/><line style="stroke:#A80036;stroke-width:3.125;" x1="934.375" x2="955.2083" y1="1338.9201" y2="1338.9201"/><line style="stroke:#A80036;stroke-width:3.125;" x1="955.2083" x2="955.2083" y1="1338.9201" y2="1384.7534"/><polygon fill="#A80036" points="946.875,1363.9201,955.2083,1384.7534,963.5417,1363.9201,955.2083,1372.2534" style="stroke:#A80036;stroke-width:2.0833333333333335;"/><line style="stroke:#A80036;stroke-width:3.125;" x1="694.7917" x2="694.7917" y1="1489.3107" y2="1583.0607"/><line style="stroke:#A80036;stroke-width:3.125;" x1="694.7917" x2="368.75" y1="1583.0607" y2="1583.0607"/><line style="stroke:#A80036;stroke-width:3.125;" x1="368.75" x2="368.75" y1="1583.0607" y2="1614.3107"/><polygon fill="#A80036" points="360.4167,1593.4774,368.75,1614.3107,377.0833,1593.4774,368.75,1601.8107" style="stroke:#A80036;stroke-width:2.0833333333333335;"/><line style="stroke:#A80036;stroke-width:3.125;" x1="825" x2="825" y1="1272.2534" y2="1313.9201"/><polygon fill="#A80036" points="816.6667,1293.0868,825,1313.9201,833.3333,1293.0868,825,1301.4201" style="stroke:#A80036;stroke-width:2.0833333333333335;"/><line style="stroke:#A80036;stroke-width:3.125;" x1="825" x2="825" y1="2066.3208" y2="2118.2332"/><polygon fill="#A80036" points="816.6667,2097.3999,825,2118.2332,833.3333,2097.3999,825,2105.7332" style="stroke:#A80036;stroke-width:2.0833333333333335;"/><line style="stroke:#A80036;stroke-width:3.125;" x1="919.7917" x2="944.7917" y1="2037.4959" y2="2037.4959"/><polygon fill="#A80036" points="936.4583,2110.0708,944.7917,2130.9041,953.125,2110.0708,944.7917,2118.4041" style="stroke:#A80036;stroke-width:3.125;"/><line style="stroke:#A80036;stroke-width:3.125;" x1="944.7917" x2="944.7917" y1="2037.4959" y2="2205.7332"/><line style="stroke:#A80036;stroke-width:3.125;" x1="944.7917" x2="825" y1="2205.7332" y2="2205.7332"/><line style="stroke:#A80036;stroke-width:3.125;" x1="825" x2="825" y1="2205.7332" y2="2247.3999"/><polygon fill="#A80036" points="816.6667,2226.5666,825,2247.3999,833.3333,2226.5666,825,2234.8999" style="stroke:#A80036;stroke-width:2.0833333333333335;"/><line style="stroke:#A80036;stroke-width:3.125;" x1="825" x2="825" y1="1967.0044" y2="2008.6711"/><polygon fill="#A80036" points="816.6667,1987.8377,825,2008.6711,833.3333,1987.8377,825,1996.1711" style="stroke:#A80036;stroke-width:2.0833333333333335;"/><line style="stroke:#A80036;stroke-width:3.125;" x1="825" x2="825" y1="1810.5347" y2="1862.4471"/><polygon fill="#A80036" points="816.6667,1841.6138,825,1862.4471,833.3333,1841.6138,825,1849.9471" style="stroke:#A80036;stroke-width:2.0833333333333335;"/><line style="stroke:#A80036;stroke-width:3.125;" x1="927.0833" x2="1006.25" y1="1785.5347" y2="1785.5347"/><polygon fill="#A80036" points="997.9167,2006.9214,1006.25,2027.7547,1014.5833,2006.9214,1006.25,2015.2547" style="stroke:#A80036;stroke-width:3.125;"/><line style="stroke:#A80036;stroke-width:3.125;" x1="1006.25" x2="1006.25" y1="1785.5347" y2="2272.3999"/><line style="stroke:#A80036;stroke-width:3.125;" x1="1006.25" x2="850" y1="2272.3999" y2="2272.3999"/><polygon fill="#A80036" points="870.8333,2264.0666,850,2272.3999,870.8333,2280.7332,862.5,2272.3999" style="stroke:#A80036;stroke-width:2.0833333333333335;"/><line style="stroke:#A80036;stroke-width:3.125;" x1="825" x2="825" y1="2297.3999" y2="2339.0666"/><polygon fill="#A80036" points="816.6667,2318.2332,825,2339.0666,833.3333,2318.2332,825,2326.5666" style="stroke:#A80036;stroke-width:2.0833333333333335;"/><line style="stroke:#A80036;stroke-width:3.125;" x1="657.2917" x2="657.2917" y1="2497.7905" y2="2539.4572"/><polygon fill="#A80036" points="648.9583,2518.6239,657.2917,2539.4572,665.625,2518.6239,657.2917,2526.9572" style="stroke:#A80036;stroke-width:2.0833333333333335;"/><line style="stroke:#A80036;stroke-width:3.125;" x1="979.1667" x2="979.1667" y1="2497.7905" y2="2539.4572"/><polygon fill="#A80036" points="970.8333,2518.6239,979.1667,2539.4572,987.5,2518.6239,979.1667,2526.9572" style="stroke:#A80036;stroke-width:2.0833333333333335;"/><line style="stroke:#A80036;stroke-width:3.125;" x1="657.2917" x2="657.2917" y1="2644.0145" y2="2685.6812"/><polygon fill="#A80036" points="648.9583,2664.8478,657.2917,2685.6812,665.625,2664.8478,657.2917,2673.1812" style="stroke:#A80036;stroke-width:2.0833333333333335;"/><line style="stroke:#A80036;stroke-width:3.125;" x1="979.1667" x2="979.1667" y1="2644.0145" y2="2685.6812"/><polygon fill="#A80036" points="970.8333,2664.8478,979.1667,2685.6812,987.5,2664.8478,979.1667,2673.1812" style="stroke:#A80036;stroke-width:2.0833333333333335;"/><line style="stroke:#A80036;stroke-width:3.125;" x1="825" x2="825" y1="2443.6239" y2="2485.2905"/><polygon fill="#A80036" points="816.6667,2464.4572,825,2485.2905,833.3333,2464.4572,825,2472.7905" style="stroke:#A80036;stroke-width:2.0833333333333335;"/><line style="stroke:#A80036;stroke-width:3.125;" x1="825" x2="825" y1="2698.1812" y2="2739.8478"/><polygon fill="#A80036" points="816.6667,2719.0145,825,2739.8478,833.3333,2719.0145,825,2727.3478" style="stroke:#A80036;stroke-width:2.0833333333333335;"/><line style="stroke:#A80036;stroke-width:3.125;" x1="368.75" x2="368.75" y1="125.1994" y2="135.616"/><line style="stroke:#A80036;stroke-width:3.125;" x1="368.75" x2="825" y1="135.616" y2="135.616"/><line style="stroke:#A80036;stroke-width:3.125;" x1="825" x2="825" y1="135.616" y2="166.866"/><polygon fill="#A80036" points="816.6667,146.0327,825,166.866,833.3333,146.0327,825,154.366" style="stroke:#A80036;stroke-width:2.0833333333333335;"/><line style="stroke:#A80036;stroke-width:3.125;" x1="656.25" x2="179.1667" y1="338.09" y2="338.09"/><line style="stroke:#A80036;stroke-width:3.125;" x1="179.1667" x2="179.1667" y1="338.09" y2="404.7567"/><polygon fill="#A80036" points="170.8333,383.9233,179.1667,404.7567,187.5,383.9233,179.1667,392.2567" style="stroke:#A80036;stroke-width:2.0833333333333335;"/><line style="stroke:#A80036;stroke-width:3.125;" x1="455.2083" x2="455.2083" y1="793.0379" y2="801.3713"/><line style="stroke:#A80036;stroke-width:3.125;" x1="455.2083" x2="1004.1667" y1="801.3713" y2="801.3713"/><line style="stroke:#A80036;stroke-width:3.125;" x1="1004.1667" x2="1004.1667" y1="801.3713" y2="896.814"/><polygon fill="#A80036" points="995.8333,875.9806,1004.1667,896.814,1012.5,875.9806,1004.1667,884.314" style="stroke:#A80036;stroke-width:2.0833333333333335;"/><line style="stroke:#A80036;stroke-width:3.125;" x1="209.375" x2="209.375" y1="1189.2619" y2="1230.5868"/><line style="stroke:#A80036;stroke-width:3.125;" x1="209.375" x2="665.625" y1="1230.5868" y2="1230.5868"/><line style="stroke:#A80036;stroke-width:3.125;" x1="665.625" x2="665.625" y1="1230.5868" y2="1259.7534"/><polygon fill="#A80036" points="657.2917,1238.9201,665.625,1259.7534,673.9583,1238.9201,665.625,1247.2534" style="stroke:#A80036;stroke-width:2.0833333333333335;"/><text fill="#000000" font-family="sans-serif" font-size="22.9167" lengthAdjust="spacing" textLength="27.0833" x="217.7083" y="1219.3014">Ok</text><line style="stroke:#A80036;stroke-width:3.125;" x1="825" x2="825" y1="738.8713" y2="749.2879"/><line style="stroke:#A80036;stroke-width:3.125;" x1="825" x2="368.75" y1="749.2879" y2="749.2879"/><line style="stroke:#A80036;stroke-width:3.125;" x1="368.75" x2="368.75" y1="749.2879" y2="780.5379"/><polygon fill="#A80036" points="360.4167,759.7046,368.75,780.5379,377.0833,759.7046,368.75,768.0379" style="stroke:#A80036;stroke-width:2.0833333333333335;"/><line style="stroke:#A80036;stroke-width:3.125;" x1="368.75" x2="368.75" y1="1718.868" y2="1729.2847"/><line style="stroke:#A80036;stroke-width:3.125;" x1="368.75" x2="825" y1="1729.2847" y2="1729.2847"/><line style="stroke:#A80036;stroke-width:3.125;" x1="825" x2="825" y1="1729.2847" y2="1760.5347"/><polygon fill="#A80036" points="816.6667,1739.7013,825,1760.5347,833.3333,1739.7013,825,1748.0347" style="stroke:#A80036;stroke-width:2.0833333333333335;"/><text fill="#000000" font-family="sans-serif" font-size="37.5" lengthAdjust="spacing" textLength="262.5" x="134.8958" y="64.8763">Khách Vãng Lai</text><text fill="#000000" font-family="sans-serif" font-size="37.5" lengthAdjust="spacing" textLength="166.6667" x="776.0417" y="64.8763">Hệ Thống</text><!--MD5=[208ac4a407c9e213bfcae7cd1264e9df]
@startuml
skinparam dpi 200


|User| Khách Vãng Lai
	start

|System| Hệ Thống

	#lightgreen:Từ kết quả ở
	<b>Tìm chuyến đi</b> >

	if (Tìm thấy chuyến nào không?) then (có)
		|User|
			:Click vào
			<b>chuyến đi muốn đặt</b>;
	else (không)

		|System|
			:Hiển thị
			<b>Không tìm thấy chuyến nào!</b>;

			end
	endif

|System|
	:Chuyển tới màn hình
	<b>Đặt chỗ</b>;

|User|
	fork
		repeat :Click vào\n<b>ghế muốn đặt/hủy</b>;
			repeat while (Hài lòng rồi chứ?) is (Không)
		->Ok;
|System|
	fork again
		:Hiển thị
		- <b>Tổng tiền</b>
		- <b>Ghế trống</b>
		- <b>Ghế đang đặt</b>
		- <b>Ghế bị khóa</b>
		thời gian thực;

	end fork

	if (lựa chọn hợp lệ?) then (có)

		:Mở nút
		<b>Đặt ngay!</b>;

	else (không)

		:Khóa và Làm mờ nút
		<b>Đặt ngay!</b>;
		end
	endif

|User|
	:Click nút
	<b>Đặt ngay!</b>;

|System|

	if (Đã đăng nhập?) then (Đúng)

	else (sai)

		#lightgreen:Chuyển tới màn hình
		<b>Đăng nhập</b> >

		if (Đăng nhập\n<b>thành công</b>?) then (Sai)
			end
		else (Đúng)

		endif

	endif

	:Lưu thông tin
	<b>vào CSDL</b>;

	fork
		:Gửi tin thành công
		<b>qua Email</b>;
	fork again
		:Hiển thị thông báo
		<b>Đặt chỗ thành công!</b>;
	end fork

	stop
@enduml

PlantUML version 1.2021.2(Sun Mar 07 18:10:27 ICT 2021)
(GPL source distribution)
Java Runtime: OpenJDK Runtime Environment
JVM: Eclipse OpenJ9 VM
Default Encoding: UTF-8
Language: en
Country: US
--></g></svg>