<?xml version="1.0" encoding="UTF-8" standalone="no"?><svg xmlns="http://www.w3.org/2000/svg" xmlns:xlink="http://www.w3.org/1999/xlink" contentScriptType="application/ecmascript" contentStyleType="text/css" height="372px" preserveAspectRatio="none" style="width:400px;height:372px;" version="1.1" viewBox="0 0 400 372" width="400px" zoomAndPan="magnify"><defs><filter height="300%" id="frpmrf0anqwia" width="300%" x="-1" y="-1"><feGaussianBlur result="blurOut" stdDeviation="2.0"/><feColorMatrix in="blurOut" result="blurOut2" type="matrix" values="0 0 0 0 0 0 0 0 0 0 0 0 0 0 0 0 0 0 .4 0"/><feOffset dx="4.0" dy="4.0" in="blurOut2" result="blurOut3"/><feBlend in="SourceGraphic" in2="blurOut3" mode="normal"/></filter></defs><g><!--MD5=[34d386ac8b242ebf01dd0974988dab39]
cluster Quản lý Vé--><polygon fill="#FFFFFF" filter="url(#frpmrf0anqwia)" points="177,6,257,6,264,29.6094,383,29.6094,383,365,177,365,177,6" style="stroke:#000000;stroke-width:1.5;"/><line style="stroke:#000000;stroke-width:1.5;" x1="177" x2="264" y1="29.6094" y2="29.6094"/><text fill="#000000" font-family="sans-serif" font-size="14" font-weight="bold" lengthAdjust="spacing" textLength="74" x="181" y="22.5332">Quản lý Vé</text><ellipse cx="280.0039" cy="59.0008" fill="#FEFECE" filter="url(#frpmrf0anqwia)" rx="70.5039" ry="16.5008" style="stroke:#A80036;stroke-width:1.5;"/><text fill="#000000" font-family="sans-serif" font-size="14" lengthAdjust="spacing" textLength="89" x="232.5039" y="63.5174">Danh sách Vé</text><ellipse cx="280.0419" cy="126.0159" fill="#FEFECE" filter="url(#frpmrf0anqwia)" rx="52.0419" ry="15.5159" style="stroke:#A80036;stroke-width:1.5;"/><text fill="#000000" font-family="sans-serif" font-size="14" lengthAdjust="spacing" textLength="57" x="248.5419" y="130.5325">Thêm Vé</text><ellipse cx="280.241" cy="191.9582" fill="#FEFECE" filter="url(#frpmrf0anqwia)" rx="44.741" ry="15.4582" style="stroke:#A80036;stroke-width:1.5;"/><text fill="#000000" font-family="sans-serif" font-size="14" lengthAdjust="spacing" textLength="47" x="255.7896" y="195.9706">Sửa Vé</text><ellipse cx="279.811" cy="257.9535" fill="#FEFECE" filter="url(#frpmrf0anqwia)" rx="43.311" ry="15.4535" style="stroke:#A80036;stroke-width:1.5;"/><text fill="#000000" font-family="sans-serif" font-size="14" lengthAdjust="spacing" textLength="45" x="256.8228" y="261.8329">Hủy Vé</text><ellipse cx="279.9661" cy="328.7932" fill="#FEFECE" filter="url(#frpmrf0anqwia)" rx="86.9661" ry="19.7932" style="stroke:#A80036;stroke-width:1.5;"/><text fill="#000000" font-family="sans-serif" font-size="14" lengthAdjust="spacing" textLength="131" x="214.4661" y="332.5217">Xác nhận thanh toán</text><!--MD5=[8e9b2d9d80e066cced8e5d90e9bdea61]
entity c--><ellipse cx="69.5" cy="169" fill="#FEFECE" filter="url(#frpmrf0anqwia)" rx="16" ry="16" style="stroke:#A80036;stroke-width:1.5;"/><path d="M69.5,189 C73.5,189 76.5,189 80.5,185 C88.5,185 96.5,193 96.5,201 L96.5,205 C96.5,209 92.5,213 88.5,213 L50.5,213 C46.5,213 42.5,209 42.5,205 L42.5,201 C42.5,193 50.5,185 58.5,185 C62.5,189 65.5,189 69.5,189 " fill="#FEFECE" filter="url(#frpmrf0anqwia)" style="stroke:#A80036;stroke-width:1.5;"/><text fill="#000000" font-family="sans-serif" font-size="14" lengthAdjust="spacing" textLength="127" x="6" y="229.0332">Nhân Viên Tổng Đài</text><!--MD5=[5d12e840fb55afd9ed7b3559a638e8f7]
entity b--><ellipse cx="69.5" cy="295" fill="#FEFECE" filter="url(#frpmrf0anqwia)" rx="16" ry="16" style="stroke:#A80036;stroke-width:1.5;"/><path d="M69.5,315 C73.5,315 76.5,315 80.5,311 C88.5,311 96.5,319 96.5,327 L96.5,331 C96.5,335 92.5,339 88.5,339 L50.5,339 C46.5,339 42.5,335 42.5,331 L42.5,327 C42.5,319 50.5,311 58.5,311 C62.5,315 65.5,315 69.5,315 " fill="#FEFECE" filter="url(#frpmrf0anqwia)" style="stroke:#A80036;stroke-width:1.5;"/><text fill="#000000" font-family="sans-serif" font-size="14" lengthAdjust="spacing" textLength="85" x="27" y="355.0332">Nhân Viên Xe</text><!--MD5=[a8cdd2d08b469f8942f7bfb22c0b211d]
link c to Danh sách Vé--><path d="M102.84,151.11 C120.52,131.13 143.9,108.18 169,93 C184.87,83.4 203.68,76.3 221.22,71.14 " fill="none" id="c-to-Danh sách Vé" style="stroke:#A80036;stroke-width:1.0;"/><polygon fill="#A80036" points="226.13,69.73,216.3774,68.3564,221.3224,71.1036,218.5752,76.0486,226.13,69.73" style="stroke:#A80036;stroke-width:1.0;"/><!--MD5=[0a47b405a6c81841716fef0ef52eb99e]
link c to Thêm Vé--><path d="M133.19,170.66 C145.06,166.72 157.4,162.68 169,159 C191.52,151.85 216.76,144.25 237.38,138.15 " fill="none" id="c-to-Thêm Vé" style="stroke:#A80036;stroke-width:1.0;"/><polygon fill="#A80036" points="242.24,136.71,232.4754,135.4247,237.445,138.127,234.7426,143.0967,242.24,136.71" style="stroke:#A80036;stroke-width:1.0;"/><!--MD5=[fd2f7cbebf40beff71d326092e464bcf]
link c to Sửa Vé--><path d="M133.06,192 C164.11,192 201.07,192 230.03,192 " fill="none" id="c-to-Sửa Vé" style="stroke:#A80036;stroke-width:1.0;"/><polygon fill="#A80036" points="235.34,192,226.34,188,230.34,192,226.34,196,235.34,192" style="stroke:#A80036;stroke-width:1.0;"/><!--MD5=[57a1aa1710aee89e03a691863dd59809]
link c to Hủy Vé--><path d="M133.19,213.34 C145.06,217.28 157.4,221.32 169,225 C192.75,232.54 219.53,240.58 240.72,246.84 " fill="none" id="c-to-Hủy Vé" style="stroke:#A80036;stroke-width:1.0;"/><polygon fill="#A80036" points="245.7,248.31,238.2026,241.9233,240.905,246.893,235.9354,249.5953,245.7,248.31" style="stroke:#A80036;stroke-width:1.0;"/><!--MD5=[7a5c8bd578dcdc0d883d50c6d28ab962]
link b to Xác nhận thanh toán--><path d="M112.19,320.2 C134.57,321.38 163.04,322.88 190.11,324.31 " fill="none" id="b-to-Xác nhận thanh toán" style="stroke:#A80036;stroke-width:1.0;"/><polygon fill="#A80036" points="195.14,324.58,186.3573,320.123,190.1466,324.3232,185.9464,328.1125,195.14,324.58" style="stroke:#A80036;stroke-width:1.0;"/><!--MD5=[5cfd5ce9a506cfb0d5c9cbe770b357be]
reverse link c to b--><path d="M69.5,252.77 C69.5,260.9 69.5,269.02 69.5,277.15 " fill="none" id="c-backto-b" style="stroke:#A80036;stroke-width:1.0;"/><polygon fill="none" points="62.5,252.58,69.5,232.58,76.5,252.58,62.5,252.58" style="stroke:#A80036;stroke-width:1.0;"/><!--MD5=[873298c907949fb1a141a2d424eadfbb]
@startuml

left to right direction
skinparam actorStyle awesome
:Nhân Viên Tổng Đài: as c
:Nhân Viên Xe: as b

package "Quản lý Vé" {
	c - -> (Danh sách Vé)
	c - -> (Thêm Vé)
	c - -> (Sửa Vé)
	c - -> (Hủy Vé)
	b - -> (Xác nhận thanh toán)
}

b -left-|> c

@enduml

PlantUML version 1.2021.2(Sun Mar 07 18:10:27 ICT 2021)
(GPL source distribution)
Java Runtime: OpenJDK Runtime Environment
JVM: Eclipse OpenJ9 VM
Default Encoding: UTF-8
Language: en
Country: US
--></g></svg>