<?xml version="1.0" encoding="UTF-8" standalone="no"?><svg xmlns="http://www.w3.org/2000/svg" xmlns:xlink="http://www.w3.org/1999/xlink" contentScriptType="application/ecmascript" contentStyleType="text/css" height="263px" preserveAspectRatio="none" style="width:387px;height:263px;" version="1.1" viewBox="0 0 387 263" width="387px" zoomAndPan="magnify"><defs><filter height="300%" id="f1rl1zvhicazy3" width="300%" x="-1" y="-1"><feGaussianBlur result="blurOut" stdDeviation="2.0"/><feColorMatrix in="blurOut" result="blurOut2" type="matrix" values="0 0 0 0 0 0 0 0 0 0 0 0 0 0 0 0 0 0 .4 0"/><feOffset dx="4.0" dy="4.0" in="blurOut2" result="blurOut3"/><feBlend in="SourceGraphic" in2="blurOut3" mode="normal"/></filter></defs><g><!--MD5=[8e9b2d9d80e066cced8e5d90e9bdea61]
entity c--><ellipse cx="69.5" cy="79" fill="#FEFECE" filter="url(#f1rl1zvhicazy3)" rx="16" ry="16" style="stroke:#A80036;stroke-width:1.5;"/><path d="M69.5,99 C73.5,99 76.5,99 80.5,95 C88.5,95 96.5,103 96.5,111 L96.5,115 C96.5,119 92.5,123 88.5,123 L50.5,123 C46.5,123 42.5,119 42.5,115 L42.5,111 C42.5,103 50.5,95 58.5,95 C62.5,99 65.5,99 69.5,99 " fill="#FEFECE" filter="url(#f1rl1zvhicazy3)" style="stroke:#A80036;stroke-width:1.5;"/><text fill="#000000" font-family="sans-serif" font-size="14" lengthAdjust="spacing" textLength="127" x="6" y="139.0332">Nhân Viên Tổng Đài</text><!--MD5=[5d12e840fb55afd9ed7b3559a638e8f7]
entity b--><ellipse cx="69.5" cy="195" fill="#FEFECE" filter="url(#f1rl1zvhicazy3)" rx="16" ry="16" style="stroke:#A80036;stroke-width:1.5;"/><path d="M69.5,215 C73.5,215 76.5,215 80.5,211 C88.5,211 96.5,219 96.5,227 L96.5,231 C96.5,235 92.5,239 88.5,239 L50.5,239 C46.5,239 42.5,235 42.5,231 L42.5,227 C42.5,219 50.5,211 58.5,211 C62.5,215 65.5,215 69.5,215 " fill="#FEFECE" filter="url(#f1rl1zvhicazy3)" style="stroke:#A80036;stroke-width:1.5;"/><text fill="#000000" font-family="sans-serif" font-size="14" lengthAdjust="spacing" textLength="85" x="27" y="255.0332">Nhân Viên Xe</text><ellipse cx="284.2904" cy="217.9034" fill="#FEFECE" filter="url(#f1rl1zvhicazy3)" rx="51.7904" ry="27.9034" style="stroke:#A80036;stroke-width:1.5;"/><text fill="#000000" font-family="sans-serif" font-size="14" lengthAdjust="spacing" textLength="57" x="255.7904" y="212.8272">Khóa/mở</text><text fill="#000000" font-family="sans-serif" font-size="14" lengthAdjust="spacing" textLength="26" x="271.2904" y="230.4366">Chỗ</text><ellipse cx="284.4325" cy="33.9034" fill="#FEFECE" filter="url(#f1rl1zvhicazy3)" rx="65.9325" ry="27.9034" style="stroke:#A80036;stroke-width:1.5;"/><text fill="#000000" font-family="sans-serif" font-size="14" lengthAdjust="spacing" textLength="77" x="245.9325" y="28.8272">hủy-tạo-sửa</text><text fill="#000000" font-family="sans-serif" font-size="14" lengthAdjust="spacing" textLength="52" x="258.4325" y="46.4366">Đặt Chỗ</text><ellipse cx="284.2628" cy="118.1526" fill="#FEFECE" filter="url(#f1rl1zvhicazy3)" rx="91.2628" ry="20.6526" style="stroke:#A80036;stroke-width:1.5;"/><text fill="#000000" font-family="sans-serif" font-size="14" lengthAdjust="spacing" textLength="141" x="213.7628" y="121.8811">Xác nhận Thanh Toán</text><!--MD5=[e59047798e7883395807b82794a479ab]
link b to Khóa/mở\nChỗ--><path d="M112.07,218 C144.85,218 190.88,218 226.99,218 " fill="none" id="b-to-Khóa/mở\nChỗ" style="stroke:#A80036;stroke-width:1.0;"/><polygon fill="#A80036" points="232.25,218,223.25,214,227.25,218,223.25,222,232.25,218" style="stroke:#A80036;stroke-width:1.0;"/><!--MD5=[a92d1cc94e3e7ae2a45f0892b0c4d4f9]
link c to hủy-tạo-sửa\nĐặt Chỗ--><path d="M133.25,81.97 C162.72,72.56 197.59,61.43 226.32,52.25 " fill="none" id="c-to-hủy-tạo-sửa\nĐặt Chỗ" style="stroke:#A80036;stroke-width:1.0;"/><polygon fill="#A80036" points="231.24,50.68,221.4507,49.5983,226.4756,52.1966,223.8773,57.2214,231.24,50.68" style="stroke:#A80036;stroke-width:1.0;"/><!--MD5=[946674cc8ecb813c69fc2bd0c71673d8]
link c to Xác nhận Thanh Toán--><path d="M133.25,106.71 C151.81,108.11 172.5,109.66 192.46,111.16 " fill="none" id="c-to-Xác nhận Thanh Toán" style="stroke:#A80036;stroke-width:1.0;"/><polygon fill="#A80036" points="197.52,111.54,188.842,106.8824,192.5338,111.1685,188.2477,114.8603,197.52,111.54" style="stroke:#A80036;stroke-width:1.0;"/><!--MD5=[5cfd5ce9a506cfb0d5c9cbe770b357be]
reverse link c to b--><path d="M69.5,162.59 C69.5,167.47 69.5,172.34 69.5,177.22 " fill="none" id="c-backto-b" style="stroke:#A80036;stroke-width:1.0;"/><polygon fill="none" points="62.5,162.55,69.5,142.55,76.5,162.55,62.5,162.55" style="stroke:#A80036;stroke-width:1.0;"/><!--MD5=[3f66e0e080d1293dd645e20e97486544]
@startuml

left to right direction
skinparam actorStyle awesome
:Nhân Viên Tổng Đài: as c
:Nhân Viên Xe: as b

b - -> (Khóa/mở\nChỗ)
c - -> (hủy-tạo-sửa\nĐặt Chỗ)
c - -> (Xác nhận Thanh Toán)
b -left-|> c

@enduml

PlantUML version 1.2021.2(Sun Mar 07 18:10:27 ICT 2021)
(GPL source distribution)
Java Runtime: OpenJDK Runtime Environment
JVM: Eclipse OpenJ9 VM
Default Encoding: UTF-8
Language: en
Country: US
--></g></svg>