<?xml version="1.0" encoding="UTF-8" standalone="no"?><svg xmlns="http://www.w3.org/2000/svg" xmlns:xlink="http://www.w3.org/1999/xlink" contentScriptType="application/ecmascript" contentStyleType="text/css" height="1627.0833px" preserveAspectRatio="none" style="width:822px;height:1627px;" version="1.1" viewBox="0 0 822 1627" width="822.9167px" zoomAndPan="magnify"><defs><filter height="300%" id="f1sg8lcx9vjugb" width="300%" x="-1" y="-1"><feGaussianBlur result="blurOut" stdDeviation="4.166666666666667"/><feColorMatrix in="blurOut" result="blurOut2" type="matrix" values="0 0 0 0 0 0 0 0 0 0 0 0 0 0 0 0 0 0 .4 0"/><feOffset dx="8.333333333333334" dy="8.333333333333334" in="blurOut2" result="blurOut3"/><feBlend in="SourceGraphic" in2="blurOut3" mode="normal"/></filter></defs><g><polygon fill="#90EE90" filter="url(#f1sg8lcx9vjugb)" points="95.8333,83.5327,306.25,83.5327,327.0833,135.8114,306.25,188.09,95.8333,188.09" style="stroke:#A80036;stroke-width:3.125;"/><text fill="#000000" font-family="sans-serif" font-size="25" lengthAdjust="spacing" textLength="83.3333" x="116.6667" y="130.3182">Từ flow</text><text fill="#000000" font-family="sans-serif" font-size="25" font-weight="bold" lengthAdjust="spacing" textLength="162.5" x="116.6667" y="161.7635">Danh sách Vé</text><text fill="#000000" font-family="sans-serif" font-size="25" lengthAdjust="spacing" textLength="0" x="285.4167" y="161.7635"/><rect fill="#FEFECE" filter="url(#f1sg8lcx9vjugb)" height="167.4479" rx="26.0417" ry="26.0417" style="stroke:#A80036;stroke-width:3.125;" width="314.5833" x="43.75" y="229.7567"/><text fill="#000000" font-family="sans-serif" font-size="25" lengthAdjust="spacing" textLength="62.5" x="64.5833" y="276.5422">Nhập</text><text fill="#000000" font-family="sans-serif" font-size="25" lengthAdjust="spacing" textLength="8.3333" x="64.5833" y="307.9875">-</text><text fill="#000000" font-family="sans-serif" font-size="25" font-weight="bold" lengthAdjust="spacing" textLength="152.0833" x="79.1667" y="307.9875">Số điện thoại</text><text fill="#000000" font-family="sans-serif" font-size="25" lengthAdjust="spacing" textLength="56.25" x="64.5833" y="339.4328">hoặc</text><text fill="#000000" font-family="sans-serif" font-size="25" font-weight="bold" lengthAdjust="spacing" textLength="64.5833" x="127.0833" y="339.4328">Email</text><text fill="#000000" font-family="sans-serif" font-size="25" lengthAdjust="spacing" textLength="272.9167" x="64.5833" y="370.8781">của khách muốn sửa vé</text><rect fill="#FEFECE" filter="url(#f1sg8lcx9vjugb)" height="104.5573" rx="26.0417" ry="26.0417" style="stroke:#A80036;stroke-width:3.125;" width="139.5833" x="131.25" y="438.8713"/><text fill="#000000" font-family="sans-serif" font-size="25" lengthAdjust="spacing" textLength="97.9167" x="152.0833" y="485.6567">Click nút</text><text fill="#000000" font-family="sans-serif" font-size="25" font-weight="bold" lengthAdjust="spacing" textLength="43.75" x="152.0833" y="517.1021">Tìm</text><rect fill="#FEFECE" filter="url(#f1sg8lcx9vjugb)" height="104.5573" rx="26.0417" ry="26.0417" style="stroke:#A80036;stroke-width:3.125;" width="139.5833" x="131.25" y="1108.6222"/><text fill="#000000" font-family="sans-serif" font-size="25" lengthAdjust="spacing" textLength="97.9167" x="152.0833" y="1155.4077">Click nút</text><text fill="#000000" font-family="sans-serif" font-size="25" font-weight="bold" lengthAdjust="spacing" textLength="81.25" x="152.0833" y="1186.853">Hủy Vé</text><line style="stroke:#000000;stroke-width:4.166666666666667;" x1="31.25" x2="31.25" y1="25.9481" y2="1593.1274"/><rect fill="#FEFECE" filter="url(#f1sg8lcx9vjugb)" height="104.5573" rx="26.0417" ry="26.0417" style="stroke:#A80036;stroke-width:3.125;" width="310.4167" x="412.5" y="687.0076"/><text fill="#000000" font-family="sans-serif" font-size="25" lengthAdjust="spacing" textLength="175" x="433.3333" y="733.7931">Hiện thông báo</text><text fill="#000000" font-family="sans-serif" font-size="25" font-weight="bold" lengthAdjust="spacing" textLength="268.75" x="433.3333" y="765.2384">Không tìm thấy Vé nào!</text><ellipse cx="567.7083" cy="854.0649" fill="#FFFFFF" filter="url(#f1sg8lcx9vjugb)" rx="20.8333" ry="20.8333" style="stroke:#000000;stroke-width:3.125;"/><line style="stroke:#000000;stroke-width:5.208333333333334;" x1="554.8184" x2="580.5983" y1="841.175" y2="866.9549"/><line style="stroke:#000000;stroke-width:5.208333333333334;" x1="580.5983" x2="554.8184" y1="841.175" y2="866.9549"/><polygon fill="#FEFECE" filter="url(#f1sg8lcx9vjugb)" points="508.3333,585.0952,627.0833,585.0952,652.0833,610.0952,627.0833,635.0952,508.3333,635.0952,483.3333,610.0952,508.3333,585.0952" style="stroke:#A80036;stroke-width:3.125;"/><text fill="#000000" font-family="sans-serif" font-size="22.9167" lengthAdjust="spacing" textLength="64.5833" x="576.0417" y="658.8847">Không</text><text fill="#000000" font-family="sans-serif" font-size="22.9167" lengthAdjust="spacing" textLength="118.75" x="508.3333" y="619.4722">Tìm thấy Vé</text><text fill="#000000" font-family="sans-serif" font-size="22.9167" lengthAdjust="spacing" textLength="27.0833" x="652.0833" y="605.0598">Có</text><rect fill="#FEFECE" filter="url(#f1sg8lcx9vjugb)" height="104.5573" rx="26.0417" ry="26.0417" style="stroke:#A80036;stroke-width:3.125;" width="352.0833" x="391.6667" y="962.3983"/><text fill="#000000" font-family="sans-serif" font-size="25" lengthAdjust="spacing" textLength="225" x="412.5" y="1009.1838">Hiện thông tin Vé và</text><text fill="#000000" font-family="sans-serif" font-size="25" lengthAdjust="spacing" textLength="310.4167" x="412.5" y="1040.6291">làm nổi bật các Ghế của Vé</text><rect fill="#FEFECE" filter="url(#f1sg8lcx9vjugb)" height="104.5573" rx="26.0417" ry="26.0417" style="stroke:#A80036;stroke-width:3.125;" width="275" x="430.2083" y="1254.8462"/><text fill="#000000" font-family="sans-serif" font-size="25" lengthAdjust="spacing" textLength="106.25" x="451.0417" y="1301.6317">Hủy vé và</text><text fill="#000000" font-family="sans-serif" font-size="25" lengthAdjust="spacing" textLength="233.3333" x="451.0417" y="1333.077">cập nhật các hiển thị</text><rect fill="#FEFECE" filter="url(#f1sg8lcx9vjugb)" height="104.5573" rx="26.0417" ry="26.0417" style="stroke:#A80036;stroke-width:3.125;" width="262.5" x="436.4583" y="1401.0701"/><text fill="#000000" font-family="sans-serif" font-size="25" lengthAdjust="spacing" textLength="175" x="457.2917" y="1447.8556">Hiện thông báo</text><text fill="#000000" font-family="sans-serif" font-size="25" font-weight="bold" lengthAdjust="spacing" textLength="220.8333" x="457.2917" y="1479.3009">Hủy vé thành công!</text><ellipse cx="567.7083" cy="1570.2108" fill="#FFFFFF" filter="url(#f1sg8lcx9vjugb)" rx="22.9167" ry="22.9167" style="stroke:#000000;stroke-width:2.0833333333333335;"/><ellipse cx="567.7083" cy="1570.2108" fill="#000000" rx="12.5" ry="12.5" style="stroke:#7F7F7F;stroke-width:2.0833333333333335;"/><line style="stroke:#000000;stroke-width:4.166666666666667;" x1="379.1667" x2="379.1667" y1="25.9481" y2="1593.1274"/><line style="stroke:#000000;stroke-width:4.166666666666667;" x1="783.3333" x2="783.3333" y1="25.9481" y2="1593.1274"/><line style="stroke:#A80036;stroke-width:3.125;" x1="201.0417" x2="201.0417" y1="188.09" y2="229.7567"/><polygon fill="#A80036" points="192.7083,208.9233,201.0417,229.7567,209.375,208.9233,201.0417,217.2567" style="stroke:#A80036;stroke-width:2.0833333333333335;"/><line style="stroke:#A80036;stroke-width:3.125;" x1="201.0417" x2="201.0417" y1="397.2046" y2="438.8713"/><polygon fill="#A80036" points="192.7083,418.0379,201.0417,438.8713,209.375,418.0379,201.0417,426.3713" style="stroke:#A80036;stroke-width:2.0833333333333335;"/><line style="stroke:#A80036;stroke-width:3.125;" x1="567.7083" x2="567.7083" y1="791.5649" y2="833.2316"/><polygon fill="#A80036" points="559.375,812.3983,567.7083,833.2316,576.0417,812.3983,567.7083,820.7316" style="stroke:#A80036;stroke-width:2.0833333333333335;"/><line style="stroke:#A80036;stroke-width:3.125;" x1="567.7083" x2="567.7083" y1="635.0952" y2="687.0076"/><polygon fill="#A80036" points="559.375,666.1743,567.7083,687.0076,576.0417,666.1743,567.7083,674.5076" style="stroke:#A80036;stroke-width:2.0833333333333335;"/><line style="stroke:#A80036;stroke-width:3.125;" x1="652.0833" x2="743.75" y1="610.0952" y2="610.0952"/><polygon fill="#A80036" points="735.4167,769.4946,743.75,790.328,752.0833,769.4946,743.75,777.828" style="stroke:#A80036;stroke-width:3.125;"/><line style="stroke:#A80036;stroke-width:3.125;" x1="743.75" x2="743.75" y1="610.0952" y2="920.7316"/><line style="stroke:#A80036;stroke-width:3.125;" x1="743.75" x2="567.7083" y1="920.7316" y2="920.7316"/><line style="stroke:#A80036;stroke-width:3.125;" x1="567.7083" x2="567.7083" y1="920.7316" y2="962.3983"/><polygon fill="#A80036" points="559.375,941.5649,567.7083,962.3983,576.0417,941.5649,567.7083,949.8983" style="stroke:#A80036;stroke-width:2.0833333333333335;"/><line style="stroke:#A80036;stroke-width:3.125;" x1="567.7083" x2="567.7083" y1="1359.4035" y2="1401.0701"/><polygon fill="#A80036" points="559.375,1380.2368,567.7083,1401.0701,576.0417,1380.2368,567.7083,1388.5701" style="stroke:#A80036;stroke-width:2.0833333333333335;"/><line style="stroke:#A80036;stroke-width:3.125;" x1="567.7083" x2="567.7083" y1="1505.6274" y2="1547.2941"/><polygon fill="#A80036" points="559.375,1526.4608,567.7083,1547.2941,576.0417,1526.4608,567.7083,1534.7941" style="stroke:#A80036;stroke-width:2.0833333333333335;"/><line style="stroke:#A80036;stroke-width:3.125;" x1="201.0417" x2="201.0417" y1="543.4285" y2="553.8452"/><line style="stroke:#A80036;stroke-width:3.125;" x1="201.0417" x2="567.7083" y1="553.8452" y2="553.8452"/><line style="stroke:#A80036;stroke-width:3.125;" x1="567.7083" x2="567.7083" y1="553.8452" y2="585.0952"/><polygon fill="#A80036" points="559.375,564.2619,567.7083,585.0952,576.0417,564.2619,567.7083,572.5952" style="stroke:#A80036;stroke-width:2.0833333333333335;"/><line style="stroke:#A80036;stroke-width:3.125;" x1="567.7083" x2="567.7083" y1="1066.9556" y2="1077.3722"/><line style="stroke:#A80036;stroke-width:3.125;" x1="567.7083" x2="201.0417" y1="1077.3722" y2="1077.3722"/><line style="stroke:#A80036;stroke-width:3.125;" x1="201.0417" x2="201.0417" y1="1077.3722" y2="1108.6222"/><polygon fill="#A80036" points="192.7083,1087.7889,201.0417,1108.6222,209.375,1087.7889,201.0417,1096.1222" style="stroke:#A80036;stroke-width:2.0833333333333335;"/><line style="stroke:#A80036;stroke-width:3.125;" x1="201.0417" x2="201.0417" y1="1213.1795" y2="1223.5962"/><line style="stroke:#A80036;stroke-width:3.125;" x1="201.0417" x2="567.7083" y1="1223.5962" y2="1223.5962"/><line style="stroke:#A80036;stroke-width:3.125;" x1="567.7083" x2="567.7083" y1="1223.5962" y2="1254.8462"/><polygon fill="#A80036" points="559.375,1234.0129,567.7083,1254.8462,576.0417,1234.0129,567.7083,1242.3462" style="stroke:#A80036;stroke-width:2.0833333333333335;"/><text fill="#000000" font-family="sans-serif" font-size="37.5" lengthAdjust="spacing" textLength="172.9167" x="123.9583" y="64.8763">Nhân Viên</text><text fill="#000000" font-family="sans-serif" font-size="37.5" lengthAdjust="spacing" textLength="166.6667" x="503.125" y="64.8763">Hệ Thống</text><!--MD5=[34134d05c364907cdb03e843b0e293a7]
@startuml
skinparam dpi 200

|Staff| Nhân Viên

	#lightgreen:Từ flow
	<b>Danh sách Vé</b> >

	:Nhập
	- <b>Số điện thoại</b>
	hoặc <b>Email</b>
	của khách muốn sửa vé;

	:Click nút
	<b>Tìm</b>;

|System| Hệ Thống

	if (Tìm thấy Vé) is (Không) then
		:Hiện thông báo
		<b>Không tìm thấy Vé nào!</b>;

		end;
	else (Có)
	endif

	:Hiện thông tin Vé và
	làm nổi bật các Ghế của Vé;

|Staff|

	:Click nút
	<b>Hủy Vé</b>;

|System|

	:Hủy vé và
	cập nhật các hiển thị;

	:Hiện thông báo
	<b>Hủy vé thành công!</b>;

	stop
@enduml

PlantUML version 1.2021.2(Sun Mar 07 18:10:27 ICT 2021)
(GPL source distribution)
Java Runtime: OpenJDK Runtime Environment
JVM: Eclipse OpenJ9 VM
Default Encoding: UTF-8
Language: en
Country: US
--></g></svg>