<?xml version="1.0" encoding="UTF-8" standalone="no"?><svg xmlns="http://www.w3.org/2000/svg" xmlns:xlink="http://www.w3.org/1999/xlink" contentScriptType="application/ecmascript" contentStyleType="text/css" height="1216.6667px" preserveAspectRatio="none" style="width:1022px;height:1216px;" version="1.1" viewBox="0 0 1022 1216" width="1022.9167px" zoomAndPan="magnify"><defs><filter height="300%" id="f1pn8x1o9wmmxj" width="300%" x="-1" y="-1"><feGaussianBlur result="blurOut" stdDeviation="4.166666666666667"/><feColorMatrix in="blurOut" result="blurOut2" type="matrix" values="0 0 0 0 0 0 0 0 0 0 0 0 0 0 0 0 0 0 .4 0"/><feOffset dx="8.333333333333334" dy="8.333333333333334" in="blurOut2" result="blurOut3"/><feBlend in="SourceGraphic" in2="blurOut3" mode="normal"/></filter></defs><g><ellipse cx="197.9167" cy="104.366" fill="#000000" filter="url(#f1pn8x1o9wmmxj)" rx="20.8333" ry="20.8333" style="stroke:none;stroke-width:2.0833333333333335;"/><rect fill="#FEFECE" filter="url(#f1pn8x1o9wmmxj)" height="104.5573" rx="26.0417" ry="26.0417" style="stroke:#A80036;stroke-width:3.125;" width="237.5" x="79.1667" y="313.09"/><text fill="#000000" font-family="sans-serif" font-size="25" lengthAdjust="spacing" textLength="195.8333" x="100" y="359.8755">Chọn các chuyến</text><text fill="#000000" font-family="sans-serif" font-size="25" lengthAdjust="spacing" textLength="147.9167" x="100" y="391.3208">muốn hủy bỏ</text><rect fill="#FEFECE" filter="url(#f1pn8x1o9wmmxj)" height="104.5573" rx="26.0417" ry="26.0417" style="stroke:#A80036;stroke-width:3.125;" width="139.5833" x="128.125" y="459.314"/><text fill="#000000" font-family="sans-serif" font-size="25" lengthAdjust="spacing" textLength="97.9167" x="148.9583" y="506.0994">Click nút</text><text fill="#000000" font-family="sans-serif" font-size="25" font-weight="bold" lengthAdjust="spacing" textLength="43.75" x="148.9583" y="537.5448">Hủy</text><polygon fill="#FEFECE" filter="url(#f1pn8x1o9wmmxj)" points="118.75,720.3166,277.0833,720.3166,302.0833,745.3166,277.0833,770.3166,118.75,770.3166,93.75,745.3166,118.75,720.3166" style="stroke:#A80036;stroke-width:3.125;"/><text fill="#000000" font-family="sans-serif" font-size="22.9167" lengthAdjust="spacing" textLength="158.3333" x="118.75" y="754.6936">Click hoặc chọn</text><text fill="#000000" font-family="sans-serif" font-size="22.9167" lengthAdjust="spacing" textLength="52.0833" x="41.6667" y="740.2812">Khác</text><text fill="#000000" font-family="sans-serif" font-size="22.9167" lengthAdjust="spacing" textLength="31.25" x="302.0833" y="740.2812">nút</text><text fill="#000000" font-family="sans-serif" font-size="22.9167" font-weight="bold" lengthAdjust="spacing" textLength="79.1667" x="339.5833" y="740.2812">Đồng ý</text><line style="stroke:#000000;stroke-width:4.166666666666667;" x1="31.25" x2="31.25" y1="25.9481" y2="1181.5145"/><polygon fill="#90EE90" filter="url(#f1pn8x1o9wmmxj)" points="528.125,166.866,801.0417,166.866,821.875,219.1447,801.0417,271.4233,528.125,271.4233" style="stroke:#A80036;stroke-width:3.125;"/><text fill="#000000" font-family="sans-serif" font-size="25" lengthAdjust="spacing" textLength="145.8333" x="548.9583" y="213.6515">Từ màn hình</text><text fill="#000000" font-family="sans-serif" font-size="25" font-weight="bold" lengthAdjust="spacing" textLength="225" x="548.9583" y="245.0968">Lịch sử đặt chuyến</text><text fill="#000000" font-family="sans-serif" font-size="25" lengthAdjust="spacing" textLength="0" x="780.2083" y="245.0968"/><rect fill="#FEFECE" filter="url(#f1pn8x1o9wmmxj)" height="73.112" rx="26.0417" ry="26.0417" style="stroke:#A80036;stroke-width:3.125;" width="275" x="527.0833" y="605.5379"/><text fill="#000000" font-family="sans-serif" font-size="25" lengthAdjust="spacing" textLength="233.3333" x="547.9167" y="652.3234">Bật pop-up xác nhận</text><rect fill="#FEFECE" filter="url(#f1pn8x1o9wmmxj)" height="73.112" rx="26.0417" ry="26.0417" style="stroke:#A80036;stroke-width:3.125;" width="164.5833" x="441.6667" y="811.9832"/><text fill="#000000" font-family="sans-serif" font-size="25" lengthAdjust="spacing" textLength="122.9167" x="462.5" y="858.7687">Tắt pop-up</text><ellipse cx="523.9583" cy="978.8452" fill="#FFFFFF" filter="url(#f1pn8x1o9wmmxj)" rx="20.8333" ry="20.8333" style="stroke:#000000;stroke-width:3.125;"/><line style="stroke:#000000;stroke-width:5.208333333333334;" x1="511.0684" x2="536.8483" y1="965.9552" y2="991.7352"/><line style="stroke:#000000;stroke-width:5.208333333333334;" x1="536.8483" x2="511.0684" y1="965.9552" y2="991.7352"/><rect fill="#FEFECE" filter="url(#f1pn8x1o9wmmxj)" height="104.5573" rx="26.0417" ry="26.0417" style="stroke:#A80036;stroke-width:3.125;" width="264.5833" x="672.9167" y="811.9832"/><text fill="#000000" font-family="sans-serif" font-size="25" lengthAdjust="spacing" textLength="89.5833" x="693.75" y="858.7687">Hủy các</text><text fill="#000000" font-family="sans-serif" font-size="25" font-weight="bold" lengthAdjust="spacing" textLength="222.9167" x="693.75" y="890.214">chuyến được chọn</text><rect fill="#FEFECE" filter="url(#f1pn8x1o9wmmxj)" height="104.5573" rx="26.0417" ry="26.0417" style="stroke:#A80036;stroke-width:3.125;" width="314.5833" x="647.9167" y="989.4572"/><text fill="#000000" font-family="sans-serif" font-size="25" lengthAdjust="spacing" textLength="185.4167" x="668.75" y="1036.2427">Hiển thị tin nhắn</text><text fill="#000000" font-family="sans-serif" font-size="25" font-weight="bold" lengthAdjust="spacing" textLength="272.9167" x="668.75" y="1067.688">Hủy chuyến thành công</text><ellipse cx="664.5833" cy="1158.5978" fill="#FFFFFF" filter="url(#f1pn8x1o9wmmxj)" rx="22.9167" ry="22.9167" style="stroke:#000000;stroke-width:2.0833333333333335;"/><ellipse cx="664.5833" cy="1158.5978" fill="#000000" rx="12.5" ry="12.5" style="stroke:#7F7F7F;stroke-width:2.0833333333333335;"/><line style="stroke:#000000;stroke-width:4.166666666666667;" x1="429.1667" x2="429.1667" y1="25.9481" y2="1181.5145"/><line style="stroke:#000000;stroke-width:4.166666666666667;" x1="983.3333" x2="983.3333" y1="25.9481" y2="1181.5145"/><line style="stroke:#A80036;stroke-width:3.125;" x1="197.9167" x2="197.9167" y1="417.6473" y2="459.314"/><polygon fill="#A80036" points="189.5833,438.4806,197.9167,459.314,206.25,438.4806,197.9167,446.814" style="stroke:#A80036;stroke-width:2.0833333333333335;"/><line style="stroke:#A80036;stroke-width:3.125;" x1="523.9583" x2="523.9583" y1="885.0952" y2="958.0119"/><polygon fill="#A80036" points="515.625,937.1785,523.9583,958.0119,532.2917,937.1785,523.9583,945.5119" style="stroke:#A80036;stroke-width:2.0833333333333335;"/><line style="stroke:#A80036;stroke-width:3.125;" x1="805.2083" x2="805.2083" y1="916.5405" y2="989.4572"/><polygon fill="#A80036" points="796.875,968.6239,805.2083,989.4572,813.5417,968.6239,805.2083,976.9572" style="stroke:#A80036;stroke-width:2.0833333333333335;"/><line style="stroke:#A80036;stroke-width:3.125;" x1="197.9167" x2="197.9167" y1="125.1994" y2="135.616"/><line style="stroke:#A80036;stroke-width:3.125;" x1="197.9167" x2="664.5833" y1="135.616" y2="135.616"/><line style="stroke:#A80036;stroke-width:3.125;" x1="664.5833" x2="664.5833" y1="135.616" y2="166.866"/><polygon fill="#A80036" points="656.25,146.0327,664.5833,166.866,672.9167,146.0327,664.5833,154.366" style="stroke:#A80036;stroke-width:2.0833333333333335;"/><line style="stroke:#A80036;stroke-width:3.125;" x1="664.5833" x2="664.5833" y1="271.4233" y2="281.84"/><line style="stroke:#A80036;stroke-width:3.125;" x1="664.5833" x2="197.9167" y1="281.84" y2="281.84"/><line style="stroke:#A80036;stroke-width:3.125;" x1="197.9167" x2="197.9167" y1="281.84" y2="313.09"/><polygon fill="#A80036" points="189.5833,292.2567,197.9167,313.09,206.25,292.2567,197.9167,300.59" style="stroke:#A80036;stroke-width:2.0833333333333335;"/><line style="stroke:#A80036;stroke-width:3.125;" x1="197.9167" x2="197.9167" y1="563.8713" y2="574.2879"/><line style="stroke:#A80036;stroke-width:3.125;" x1="197.9167" x2="664.5833" y1="574.2879" y2="574.2879"/><line style="stroke:#A80036;stroke-width:3.125;" x1="664.5833" x2="664.5833" y1="574.2879" y2="605.5379"/><polygon fill="#A80036" points="656.25,584.7046,664.5833,605.5379,672.9167,584.7046,664.5833,593.0379" style="stroke:#A80036;stroke-width:2.0833333333333335;"/><line style="stroke:#A80036;stroke-width:3.125;" x1="93.75" x2="68.75" y1="745.3166" y2="745.3166"/><line style="stroke:#A80036;stroke-width:3.125;" x1="68.75" x2="68.75" y1="745.3166" y2="782.8166"/><line style="stroke:#A80036;stroke-width:3.125;" x1="68.75" x2="523.9583" y1="782.8166" y2="782.8166"/><line style="stroke:#A80036;stroke-width:3.125;" x1="523.9583" x2="523.9583" y1="782.8166" y2="811.9832"/><polygon fill="#A80036" points="515.625,791.1499,523.9583,811.9832,532.2917,791.1499,523.9583,799.4832" style="stroke:#A80036;stroke-width:2.0833333333333335;"/><line style="stroke:#A80036;stroke-width:3.125;" x1="302.0833" x2="805.2083" y1="745.3166" y2="745.3166"/><line style="stroke:#A80036;stroke-width:3.125;" x1="805.2083" x2="805.2083" y1="745.3166" y2="811.9832"/><polygon fill="#A80036" points="796.875,791.1499,805.2083,811.9832,813.5417,791.1499,805.2083,799.4832" style="stroke:#A80036;stroke-width:2.0833333333333335;"/><line style="stroke:#A80036;stroke-width:3.125;" x1="805.2083" x2="805.2083" y1="1094.0145" y2="1104.4312"/><line style="stroke:#A80036;stroke-width:3.125;" x1="805.2083" x2="664.5833" y1="1104.4312" y2="1104.4312"/><line style="stroke:#A80036;stroke-width:3.125;" x1="664.5833" x2="664.5833" y1="1104.4312" y2="1135.6812"/><polygon fill="#A80036" points="656.25,1114.8478,664.5833,1135.6812,672.9167,1114.8478,664.5833,1123.1812" style="stroke:#A80036;stroke-width:2.0833333333333335;"/><line style="stroke:#A80036;stroke-width:3.125;" x1="664.5833" x2="664.5833" y1="678.6499" y2="689.0666"/><line style="stroke:#A80036;stroke-width:3.125;" x1="664.5833" x2="197.9167" y1="689.0666" y2="689.0666"/><line style="stroke:#A80036;stroke-width:3.125;" x1="197.9167" x2="197.9167" y1="689.0666" y2="720.3166"/><polygon fill="#A80036" points="189.5833,699.4832,197.9167,720.3166,206.25,699.4832,197.9167,707.8166" style="stroke:#A80036;stroke-width:2.0833333333333335;"/><text fill="#000000" font-family="sans-serif" font-size="37.5" lengthAdjust="spacing" textLength="191.6667" x="139.5833" y="64.8763">Thành Viên</text><text fill="#000000" font-family="sans-serif" font-size="37.5" lengthAdjust="spacing" textLength="166.6667" x="628.125" y="64.8763">Hệ Thống</text><!--MD5=[1f69301e1112ca2ed4239a889f08f0a7]
@startuml
skinparam dpi 200


|User| Thành Viên
	start
|System| Hệ Thống

	#lightgreen:Từ màn hình
	<b>Lịch sử đặt chuyến</b> >

|User| Thành Viên

	:Chọn các chuyến
	muốn hủy bỏ;

	:Click nút
	<b>Hủy</b>;

|System|
	:Bật pop-up xác nhận;
|User|

	if (Click hoặc chọn) is (Khác) then
		|System|
		:Tắt pop-up;
		end
	else (nút <b>Đồng ý</b>)
		|System|
			:Hủy các
			<b>chuyến được chọn</b>;

		 	:Hiển thị tin nhắn
		 	<b>Hủy chuyến thành công</b>;
	endif

	stop
@enduml

PlantUML version 1.2021.2(Sun Mar 07 18:10:27 ICT 2021)
(GPL source distribution)
Java Runtime: OpenJDK Runtime Environment
JVM: Eclipse OpenJ9 VM
Default Encoding: UTF-8
Language: en
Country: US
--></g></svg>