<?xml version="1.0" encoding="UTF-8" standalone="no"?><svg xmlns="http://www.w3.org/2000/svg" xmlns:xlink="http://www.w3.org/1999/xlink" contentScriptType="application/ecmascript" contentStyleType="text/css" height="1022.9167px" preserveAspectRatio="none" style="width:1058px;height:1022px;" version="1.1" viewBox="0 0 1058 1022" width="1058.3333px" zoomAndPan="magnify"><defs><filter height="300%" id="f1jpvop4wsp8yx" width="300%" x="-1" y="-1"><feGaussianBlur result="blurOut" stdDeviation="4.166666666666667"/><feColorMatrix in="blurOut" result="blurOut2" type="matrix" values="0 0 0 0 0 0 0 0 0 0 0 0 0 0 0 0 0 0 .4 0"/><feOffset dx="8.333333333333334" dy="8.333333333333334" in="blurOut2" result="blurOut3"/><feBlend in="SourceGraphic" in2="blurOut3" mode="normal"/></filter></defs><g><ellipse cx="213.5417" cy="104.366" fill="#000000" filter="url(#f1jpvop4wsp8yx)" rx="20.8333" ry="20.8333" style="stroke:none;stroke-width:2.0833333333333335;"/><rect fill="#FEFECE" filter="url(#f1jpvop4wsp8yx)" height="73.112" rx="26.0417" ry="26.0417" style="stroke:#A80036;stroke-width:3.125;" width="335.4167" x="45.8333" y="281.6447"/><text fill="#000000" font-family="sans-serif" font-size="25" lengthAdjust="spacing" textLength="293.75" x="66.6667" y="328.4302">select trips want to cancel</text><rect fill="#FEFECE" filter="url(#f1jpvop4wsp8yx)" height="73.112" rx="26.0417" ry="26.0417" style="stroke:#A80036;stroke-width:3.125;" width="250" x="88.5417" y="396.4233"/><text fill="#000000" font-family="sans-serif" font-size="25" lengthAdjust="spacing" textLength="208.3333" x="109.375" y="443.2088">click cancel button</text><polygon fill="#FEFECE" filter="url(#f1jpvop4wsp8yx)" points="127.0833,625.9806,300,625.9806,325,650.9806,300,675.9806,127.0833,675.9806,102.0833,650.9806,127.0833,625.9806" style="stroke:#A80036;stroke-width:3.125;"/><text fill="#000000" font-family="sans-serif" font-size="22.9167" lengthAdjust="spacing" textLength="172.9167" x="127.0833" y="660.3577">is click OK button</text><text fill="#000000" font-family="sans-serif" font-size="22.9167" lengthAdjust="spacing" textLength="25" x="77.0833" y="645.9452">no</text><text fill="#000000" font-family="sans-serif" font-size="22.9167" lengthAdjust="spacing" textLength="37.5" x="325" y="645.9452">yes</text><ellipse cx="70.8333" cy="738.4806" fill="#FFFFFF" filter="url(#f1jpvop4wsp8yx)" rx="20.8333" ry="20.8333" style="stroke:#000000;stroke-width:3.125;"/><line style="stroke:#000000;stroke-width:5.208333333333334;" x1="57.9434" x2="83.7233" y1="725.5907" y2="751.3706"/><line style="stroke:#000000;stroke-width:5.208333333333334;" x1="83.7233" x2="57.9434" y1="725.5907" y2="751.3706"/><line style="stroke:#000000;stroke-width:4.166666666666667;" x1="31.25" x2="31.25" y1="25.9481" y2="988.8713"/><polygon fill="#90EE90" filter="url(#f1jpvop4wsp8yx)" points="433.3333,166.866,850,166.866,870.8333,203.422,850,239.978,433.3333,239.978" style="stroke:#A80036;stroke-width:3.125;"/><text fill="#000000" font-family="sans-serif" font-size="25" lengthAdjust="spacing" textLength="52.0833" x="454.1667" y="213.6515">from</text><text fill="#FF0000" font-family="sans-serif" font-size="25" font-weight="bold" lengthAdjust="spacing" textLength="264.5833" x="512.5" y="213.6515">Show Scheduled Trips</text><text fill="#000000" font-family="sans-serif" font-size="25" lengthAdjust="spacing" textLength="45.8333" x="783.3333" y="213.6515">flow</text><rect fill="#FEFECE" filter="url(#f1jpvop4wsp8yx)" height="73.112" rx="26.0417" ry="26.0417" style="stroke:#A80036;stroke-width:3.125;" width="400" x="441.6667" y="511.202"/><text fill="#000000" font-family="sans-serif" font-size="25" lengthAdjust="spacing" textLength="358.3333" x="462.5" y="557.9875">show confirm message pop-up</text><rect fill="#FEFECE" filter="url(#f1jpvop4wsp8yx)" height="73.112" rx="26.0417" ry="26.0417" style="stroke:#A80036;stroke-width:3.125;" width="422.9167" x="572.9167" y="717.6473"/><text fill="#000000" font-family="sans-serif" font-size="25" lengthAdjust="spacing" textLength="381.25" x="593.75" y="764.4328">cancel those trips for current user</text><rect fill="#FEFECE" filter="url(#f1jpvop4wsp8yx)" height="73.112" rx="26.0417" ry="26.0417" style="stroke:#A80036;stroke-width:3.125;" width="425" x="571.875" y="832.4259"/><text fill="#000000" font-family="sans-serif" font-size="25" lengthAdjust="spacing" textLength="383.3333" x="592.7083" y="879.2114">display cancel success message</text><ellipse cx="641.6667" cy="968.0379" fill="#FFFFFF" filter="url(#f1jpvop4wsp8yx)" rx="20.8333" ry="20.8333" style="stroke:#000000;stroke-width:3.125;"/><line style="stroke:#000000;stroke-width:5.208333333333334;" x1="628.7767" x2="654.5566" y1="955.148" y2="980.9279"/><line style="stroke:#000000;stroke-width:5.208333333333334;" x1="654.5566" x2="628.7767" y1="955.148" y2="980.9279"/><line style="stroke:#000000;stroke-width:4.166666666666667;" x1="402.0833" x2="402.0833" y1="25.9481" y2="988.8713"/><line style="stroke:#000000;stroke-width:4.166666666666667;" x1="1017.7083" x2="1017.7083" y1="25.9481" y2="988.8713"/><line style="stroke:#A80036;stroke-width:3.125;" x1="213.5417" x2="213.5417" y1="354.7567" y2="396.4233"/><polygon fill="#A80036" points="205.2083,375.59,213.5417,396.4233,221.875,375.59,213.5417,383.9233" style="stroke:#A80036;stroke-width:2.0833333333333335;"/><line style="stroke:#A80036;stroke-width:3.125;" x1="102.0833" x2="70.8333" y1="650.9806" y2="650.9806"/><line style="stroke:#A80036;stroke-width:3.125;" x1="70.8333" x2="70.8333" y1="650.9806" y2="717.6473"/><polygon fill="#A80036" points="62.5,696.814,70.8333,717.6473,79.1667,696.814,70.8333,705.1473" style="stroke:#A80036;stroke-width:2.0833333333333335;"/><line style="stroke:#A80036;stroke-width:3.125;" x1="784.375" x2="784.375" y1="790.7593" y2="832.4259"/><polygon fill="#A80036" points="776.0417,811.5926,784.375,832.4259,792.7083,811.5926,784.375,819.9259" style="stroke:#A80036;stroke-width:2.0833333333333335;"/><line style="stroke:#A80036;stroke-width:3.125;" x1="213.5417" x2="213.5417" y1="125.1994" y2="135.616"/><line style="stroke:#A80036;stroke-width:3.125;" x1="213.5417" x2="641.6667" y1="135.616" y2="135.616"/><line style="stroke:#A80036;stroke-width:3.125;" x1="641.6667" x2="641.6667" y1="135.616" y2="166.866"/><polygon fill="#A80036" points="633.3333,146.0327,641.6667,166.866,650,146.0327,641.6667,154.366" style="stroke:#A80036;stroke-width:2.0833333333333335;"/><line style="stroke:#A80036;stroke-width:3.125;" x1="641.6667" x2="641.6667" y1="239.978" y2="250.3947"/><line style="stroke:#A80036;stroke-width:3.125;" x1="641.6667" x2="213.5417" y1="250.3947" y2="250.3947"/><line style="stroke:#A80036;stroke-width:3.125;" x1="213.5417" x2="213.5417" y1="250.3947" y2="281.6447"/><polygon fill="#A80036" points="205.2083,260.8114,213.5417,281.6447,221.875,260.8114,213.5417,269.1447" style="stroke:#A80036;stroke-width:2.0833333333333335;"/><line style="stroke:#A80036;stroke-width:3.125;" x1="213.5417" x2="213.5417" y1="469.5353" y2="479.952"/><line style="stroke:#A80036;stroke-width:3.125;" x1="213.5417" x2="641.6667" y1="479.952" y2="479.952"/><line style="stroke:#A80036;stroke-width:3.125;" x1="641.6667" x2="641.6667" y1="479.952" y2="511.202"/><polygon fill="#A80036" points="633.3333,490.3687,641.6667,511.202,650,490.3687,641.6667,498.702" style="stroke:#A80036;stroke-width:2.0833333333333335;"/><line style="stroke:#A80036;stroke-width:3.125;" x1="325" x2="784.375" y1="650.9806" y2="650.9806"/><line style="stroke:#A80036;stroke-width:3.125;" x1="784.375" x2="784.375" y1="650.9806" y2="717.6473"/><polygon fill="#A80036" points="776.0417,696.814,784.375,717.6473,792.7083,696.814,784.375,705.1473" style="stroke:#A80036;stroke-width:2.0833333333333335;"/><line style="stroke:#A80036;stroke-width:3.125;" x1="784.375" x2="784.375" y1="905.5379" y2="915.9546"/><line style="stroke:#A80036;stroke-width:3.125;" x1="784.375" x2="641.6667" y1="915.9546" y2="915.9546"/><line style="stroke:#A80036;stroke-width:3.125;" x1="641.6667" x2="641.6667" y1="915.9546" y2="947.2046"/><polygon fill="#A80036" points="633.3333,926.3713,641.6667,947.2046,650,926.3713,641.6667,934.7046" style="stroke:#A80036;stroke-width:2.0833333333333335;"/><line style="stroke:#A80036;stroke-width:3.125;" x1="641.6667" x2="641.6667" y1="584.314" y2="594.7306"/><line style="stroke:#A80036;stroke-width:3.125;" x1="641.6667" x2="213.5417" y1="594.7306" y2="594.7306"/><line style="stroke:#A80036;stroke-width:3.125;" x1="213.5417" x2="213.5417" y1="594.7306" y2="625.9806"/><polygon fill="#A80036" points="205.2083,605.1473,213.5417,625.9806,221.875,605.1473,213.5417,613.4806" style="stroke:#A80036;stroke-width:2.0833333333333335;"/><text fill="#000000" font-family="sans-serif" font-size="37.5" lengthAdjust="spacing" textLength="79.1667" x="177.0833" y="64.8763">User</text><text fill="#000000" font-family="sans-serif" font-size="37.5" lengthAdjust="spacing" textLength="122.9167" x="648.4375" y="64.8763">System</text><!--MD5=[1ecbd192f4c627072aafff3e3d10643a]
@startuml
skinparam dpi 200


|User|
start
|System|
#lightgreen:from <b><color:red>Show Scheduled Trips</color></b> flow>
|User|
:select trips want to cancel;
:click cancel button;
|System|
:show confirm message pop-up;
|User|
if (is click OK button) is (no) then
	|User|
	end
else (yes)
	 |System|
	:cancel those trips for current user;
 	:display cancel success message;
endif
end
@enduml

PlantUML version 1.2021.2(Sun Mar 07 18:10:27 ICT 2021)
(GPL source distribution)
Java Runtime: OpenJDK Runtime Environment
JVM: Eclipse OpenJ9 VM
Default Encoding: UTF-8
Language: en
Country: US
--></g></svg>