<?xml version="1.0" encoding="UTF-8" standalone="no"?><svg xmlns="http://www.w3.org/2000/svg" xmlns:xlink="http://www.w3.org/1999/xlink" contentScriptType="application/ecmascript" contentStyleType="text/css" height="1002.0833px" preserveAspectRatio="none" style="width:760px;height:1002px;" version="1.1" viewBox="0 0 760 1002" width="760.4167px" zoomAndPan="magnify"><defs><filter height="300%" id="fjwwvnway0h8r" width="300%" x="-1" y="-1"><feGaussianBlur result="blurOut" stdDeviation="4.166666666666667"/><feColorMatrix in="blurOut" result="blurOut2" type="matrix" values="0 0 0 0 0 0 0 0 0 0 0 0 0 0 0 0 0 0 .4 0"/><feOffset dx="8.333333333333334" dy="8.333333333333334" in="blurOut2" result="blurOut3"/><feBlend in="SourceGraphic" in2="blurOut3" mode="normal"/></filter></defs><g><ellipse cx="184.375" cy="104.366" fill="#000000" filter="url(#fjwwvnway0h8r)" rx="20.8333" ry="20.8333" style="stroke:none;stroke-width:2.0833333333333335;"/><rect fill="#FEFECE" filter="url(#fjwwvnway0h8r)" height="104.5573" rx="26.0417" ry="26.0417" style="stroke:#A80036;stroke-width:3.125;" width="197.9167" x="85.4167" y="166.866"/><text fill="#000000" font-family="sans-serif" font-size="25" lengthAdjust="spacing" textLength="150" x="106.25" y="213.6515">Mở màn hình</text><text fill="#000000" font-family="sans-serif" font-size="25" font-weight="bold" lengthAdjust="spacing" textLength="156.25" x="106.25" y="245.0968">Đổi mật khẩu</text><rect fill="#FEFECE" filter="url(#fjwwvnway0h8r)" height="104.5573" rx="26.0417" ry="26.0417" style="stroke:#A80036;stroke-width:3.125;" width="139.5833" x="114.5833" y="490.7593"/><text fill="#000000" font-family="sans-serif" font-size="25" lengthAdjust="spacing" textLength="97.9167" x="135.4167" y="537.5448">Click nút</text><text fill="#000000" font-family="sans-serif" font-size="25" font-weight="bold" lengthAdjust="spacing" textLength="81.25" x="135.4167" y="568.9901">Đồng ý</text><rect fill="#FEFECE" filter="url(#fjwwvnway0h8r)" height="136.0026" rx="26.0417" ry="26.0417" style="stroke:#A80036;stroke-width:3.125;" width="281.25" x="43.75" y="313.09"/><text fill="#000000" font-family="sans-serif" font-size="25" lengthAdjust="spacing" textLength="62.5" x="64.5833" y="359.8755">Nhập</text><text fill="#000000" font-family="sans-serif" font-size="25" lengthAdjust="spacing" textLength="8.3333" x="64.5833" y="391.3208">-</text><text fill="#000000" font-family="sans-serif" font-size="25" font-weight="bold" lengthAdjust="spacing" textLength="143.75" x="79.1667" y="391.3208">Mật khẩu cũ</text><text fill="#000000" font-family="sans-serif" font-size="25" lengthAdjust="spacing" textLength="6.25" x="222.9167" y="391.3208">,</text><text fill="#000000" font-family="sans-serif" font-size="25" lengthAdjust="spacing" textLength="70.8333" x="64.5833" y="422.7661">- 2 lần</text><text fill="#000000" font-family="sans-serif" font-size="25" font-weight="bold" lengthAdjust="spacing" textLength="162.5" x="141.6667" y="422.7661">Mật khẩu mới</text><line style="stroke:#000000;stroke-width:4.166666666666667;" x1="31.25" x2="31.25" y1="25.9481" y2="967.0675"/><polygon fill="#FEFECE" filter="url(#fjwwvnway0h8r)" points="490.625,636.9832,567.7083,636.9832,592.7083,661.9832,567.7083,686.9832,490.625,686.9832,465.625,661.9832,490.625,636.9832" style="stroke:#A80036;stroke-width:3.125;"/><text fill="#000000" font-family="sans-serif" font-size="22.9167" lengthAdjust="spacing" textLength="77.0833" x="490.625" y="671.3603">Hợp lệ?</text><text fill="#000000" font-family="sans-serif" font-size="22.9167" lengthAdjust="spacing" textLength="64.5833" x="592.7083" y="656.9478">Không</text><rect fill="#FEFECE" filter="url(#fjwwvnway0h8r)" height="104.5573" rx="26.0417" ry="26.0417" style="stroke:#A80036;stroke-width:3.125;" width="341.6667" x="358.3333" y="775.0102"/><text fill="#000000" font-family="sans-serif" font-size="25" lengthAdjust="spacing" textLength="87.5" x="379.1667" y="821.7957">Hiển thị</text><text fill="#000000" font-family="sans-serif" font-size="25" font-weight="bold" lengthAdjust="spacing" textLength="300" x="379.1667" y="853.241">Đổi mật khẩu thành công!</text><ellipse cx="529.1667" cy="944.1508" fill="#FFFFFF" filter="url(#fjwwvnway0h8r)" rx="22.9167" ry="22.9167" style="stroke:#000000;stroke-width:2.0833333333333335;"/><ellipse cx="529.1667" cy="944.1508" fill="#000000" rx="12.5" ry="12.5" style="stroke:#7F7F7F;stroke-width:2.0833333333333335;"/><line style="stroke:#000000;stroke-width:4.166666666666667;" x1="345.8333" x2="345.8333" y1="25.9481" y2="967.0675"/><line style="stroke:#000000;stroke-width:4.166666666666667;" x1="720.8333" x2="720.8333" y1="25.9481" y2="967.0675"/><line style="stroke:#A80036;stroke-width:3.125;" x1="184.375" x2="184.375" y1="125.1994" y2="166.866"/><polygon fill="#A80036" points="176.0417,146.0327,184.375,166.866,192.7083,146.0327,184.375,154.366" style="stroke:#A80036;stroke-width:2.0833333333333335;"/><line style="stroke:#A80036;stroke-width:3.125;" x1="184.375" x2="184.375" y1="449.0926" y2="490.7593"/><polygon fill="#A80036" points="176.0417,469.9259,184.375,490.7593,192.7083,469.9259,184.375,478.2593" style="stroke:#A80036;stroke-width:2.0833333333333335;"/><line style="stroke:#A80036;stroke-width:3.125;" x1="184.375" x2="184.375" y1="271.4233" y2="313.09"/><polygon fill="#A80036" points="176.0417,292.2567,184.375,313.09,192.7083,292.2567,184.375,300.59" style="stroke:#A80036;stroke-width:2.0833333333333335;"/><line style="stroke:#A80036;stroke-width:3.125;" x1="529.1667" x2="529.1667" y1="686.9832" y2="775.0102"/><polygon fill="#A80036" points="520.8333,754.1768,529.1667,775.0102,537.5,754.1768,529.1667,762.5102" style="stroke:#A80036;stroke-width:2.0833333333333335;"/><text fill="#000000" font-family="sans-serif" font-size="22.9167" lengthAdjust="spacing" textLength="27.0833" x="537.5" y="733.5164">Có</text><line style="stroke:#A80036;stroke-width:3.125;" x1="529.1667" x2="529.1667" y1="879.5675" y2="921.2341"/><polygon fill="#A80036" points="520.8333,900.4008,529.1667,921.2341,537.5,900.4008,529.1667,908.7341" style="stroke:#A80036;stroke-width:2.0833333333333335;"/><line style="stroke:#A80036;stroke-width:3.125;" x1="592.7083" x2="623.9583" y1="661.9832" y2="661.9832"/><polygon fill="#A80036" points="615.625,542.3706,623.9583,521.5373,632.2917,542.3706,623.9583,534.0373" style="stroke:#A80036;stroke-width:3.125;"/><line style="stroke:#A80036;stroke-width:3.125;" x1="623.9583" x2="623.9583" y1="381.0913" y2="661.9832"/><line style="stroke:#A80036;stroke-width:3.125;" x1="623.9583" x2="325" y1="381.0913" y2="381.0913"/><polygon fill="#A80036" points="345.8333,372.758,325,381.0913,345.8333,389.4246,337.5,381.0913" style="stroke:#A80036;stroke-width:2.0833333333333335;"/><line style="stroke:#A80036;stroke-width:3.125;" x1="184.375" x2="184.375" y1="595.3166" y2="605.7332"/><line style="stroke:#A80036;stroke-width:3.125;" x1="184.375" x2="529.1667" y1="605.7332" y2="605.7332"/><line style="stroke:#A80036;stroke-width:3.125;" x1="529.1667" x2="529.1667" y1="605.7332" y2="636.9832"/><polygon fill="#A80036" points="520.8333,616.1499,529.1667,636.9832,537.5,616.1499,529.1667,624.4832" style="stroke:#A80036;stroke-width:2.0833333333333335;"/><text fill="#000000" font-family="sans-serif" font-size="37.5" lengthAdjust="spacing" textLength="191.6667" x="97.9167" y="64.8763">Thành Viên</text><text fill="#000000" font-family="sans-serif" font-size="37.5" lengthAdjust="spacing" textLength="166.6667" x="455.2083" y="64.8763">Hệ Thống</text><!--MD5=[33c5704599fc222de4c60ad70348e1c2]
@startuml
skinparam dpi 200

|User| Thành Viên

	start

	:Mở màn hình
	<b>Đổi mật khẩu</b>;

	repeat :Nhập\n- <b>Mật khẩu cũ</b>,\n- 2 lần <b>Mật khẩu mới</b>;

		:Click nút
		<b>Đồng ý</b>;

|System| Hệ Thống
		repeat while (Hợp lệ?) is (Không)
	->Có;

	:Hiển thị
	<b>Đổi mật khẩu thành công!</b>;

	stop
@enduml

PlantUML version 1.2021.2(Sun Mar 07 18:10:27 ICT 2021)
(GPL source distribution)
Java Runtime: OpenJDK Runtime Environment
JVM: Eclipse OpenJ9 VM
Default Encoding: UTF-8
Language: en
Country: US
--></g></svg>