<?xml version="1.0" encoding="UTF-8" standalone="no"?><svg xmlns="http://www.w3.org/2000/svg" xmlns:xlink="http://www.w3.org/1999/xlink" contentScriptType="application/ecmascript" contentStyleType="text/css" height="1129.1667px" preserveAspectRatio="none" style="width:1131px;height:1129px;" version="1.1" viewBox="0 0 1131 1129" width="1131.25px" zoomAndPan="magnify"><defs><filter height="300%" id="ffwec0xlcvbiu" width="300%" x="-1" y="-1"><feGaussianBlur result="blurOut" stdDeviation="4.166666666666667"/><feColorMatrix in="blurOut" result="blurOut2" type="matrix" values="0 0 0 0 0 0 0 0 0 0 0 0 0 0 0 0 0 0 .4 0"/><feOffset dx="8.333333333333334" dy="8.333333333333334" in="blurOut2" result="blurOut3"/><feBlend in="SourceGraphic" in2="blurOut3" mode="normal"/></filter></defs><g><polygon fill="#90EE90" filter="url(#ffwec0xlcvbiu)" points="87.5,83.5327,350,83.5327,370.8333,135.8114,350,188.09,87.5,188.09" style="stroke:#A80036;stroke-width:3.125;"/><text fill="#000000" font-family="sans-serif" font-size="25" lengthAdjust="spacing" textLength="145.8333" x="108.3333" y="130.3182">Từ màn hình</text><text fill="#000000" font-family="sans-serif" font-size="25" font-weight="bold" lengthAdjust="spacing" textLength="214.5833" x="108.3333" y="161.7635">Danh sách Nhà Xe</text><text fill="#000000" font-family="sans-serif" font-size="25" lengthAdjust="spacing" textLength="0" x="329.1667" y="161.7635"/><rect fill="#FEFECE" filter="url(#ffwec0xlcvbiu)" height="136.0026" rx="26.0417" ry="26.0417" style="stroke:#A80036;stroke-width:3.125;" width="350" x="43.75" y="229.7567"/><text fill="#000000" font-family="sans-serif" font-size="25" lengthAdjust="spacing" textLength="308.3333" x="64.5833" y="276.5422">Chọn các nhà xe muốn xóa</text><text fill="#000000" font-family="sans-serif" font-size="25" lengthAdjust="spacing" textLength="56.25" x="64.5833" y="307.9875">ở cột</text><text fill="#000000" font-family="sans-serif" font-size="25" font-weight="bold" lengthAdjust="spacing" textLength="118.75" x="127.0833" y="307.9875">Checkbox</text><text fill="#000000" font-family="sans-serif" font-size="25" lengthAdjust="spacing" textLength="166.6667" x="64.5833" y="339.4328">phía cuối cùng</text><rect fill="#FEFECE" filter="url(#ffwec0xlcvbiu)" height="104.5573" rx="26.0417" ry="26.0417" style="stroke:#A80036;stroke-width:3.125;" width="139.5833" x="148.9583" y="407.4259"/><text fill="#000000" font-family="sans-serif" font-size="25" lengthAdjust="spacing" textLength="97.9167" x="169.7917" y="454.2114">Click nút</text><text fill="#000000" font-family="sans-serif" font-size="25" font-weight="bold" lengthAdjust="spacing" textLength="45.8333" x="169.7917" y="485.6567">Xóa</text><line style="stroke:#000000;stroke-width:4.166666666666667;" x1="31.25" x2="31.25" y1="25.9481" y2="1095.6095"/><polygon fill="#FEFECE" filter="url(#ffwec0xlcvbiu)" points="614.5833,553.6499,879.1667,553.6499,904.1667,582.4748,879.1667,611.2996,614.5833,611.2996,589.5833,582.4748,614.5833,553.6499" style="stroke:#A80036;stroke-width:3.125;"/><text fill="#000000" font-family="sans-serif" font-size="22.9167" lengthAdjust="spacing" textLength="158.3333" x="614.5833" y="577.4394">Các nhà xe đều</text><text fill="#000000" font-family="sans-serif" font-size="22.9167" font-weight="bold" lengthAdjust="spacing" textLength="252.0833" x="614.5833" y="606.2642">chưa chạy chuyến nào</text><text fill="#000000" font-family="sans-serif" font-size="22.9167" lengthAdjust="spacing" textLength="12.5" x="866.6667" y="606.2642">?</text><text fill="#000000" font-family="sans-serif" font-size="22.9167" lengthAdjust="spacing" textLength="54.1667" x="535.4167" y="577.4394">Đúng</text><text fill="#000000" font-family="sans-serif" font-size="22.9167" lengthAdjust="spacing" textLength="31.25" x="904.1667" y="577.4394">Sai</text><rect fill="#FEFECE" filter="url(#ffwec0xlcvbiu)" height="136.0026" rx="26.0417" ry="26.0417" style="stroke:#A80036;stroke-width:3.125;" width="283.3333" x="427.0833" y="632.133"/><text fill="#000000" font-family="sans-serif" font-size="25" lengthAdjust="spacing" textLength="110.4167" x="447.9167" y="678.9185">Xóa tất cả</text><text fill="#000000" font-family="sans-serif" font-size="25" lengthAdjust="spacing" textLength="204.1667" x="447.9167" y="710.3638">nhà xe được chọn</text><text fill="#000000" font-family="sans-serif" font-size="25" lengthAdjust="spacing" textLength="241.6667" x="447.9167" y="741.8091">và thông tin liên quan</text><rect fill="#FEFECE" filter="url(#ffwec0xlcvbiu)" height="104.5573" rx="26.0417" ry="26.0417" style="stroke:#A80036;stroke-width:3.125;" width="231.25" x="453.125" y="841.0522"/><text fill="#000000" font-family="sans-serif" font-size="25" lengthAdjust="spacing" textLength="120.8333" x="473.9583" y="887.8377">Hiển thị tin</text><text fill="#000000" font-family="sans-serif" font-size="25" font-weight="bold" lengthAdjust="spacing" textLength="189.5833" x="473.9583" y="919.283">Xóa thành công!</text><rect fill="#FEFECE" filter="url(#ffwec0xlcvbiu)" height="167.4479" rx="26.0417" ry="26.0417" style="stroke:#A80036;stroke-width:3.125;" width="289.5833" x="780.2083" y="632.133"/><text fill="#000000" font-family="sans-serif" font-size="25" lengthAdjust="spacing" textLength="247.9167" x="801.0417" y="678.9185">Hiển thị thông báo lỗi,</text><text fill="#000000" font-family="sans-serif" font-size="25" lengthAdjust="spacing" textLength="66.6667" x="801.0417" y="710.3638">liệt kê</text><text fill="#000000" font-family="sans-serif" font-size="25" lengthAdjust="spacing" textLength="8.3333" x="801.0417" y="741.8091">-</text><text fill="#000000" font-family="sans-serif" font-size="25" font-weight="bold" lengthAdjust="spacing" textLength="122.9167" x="815.625" y="741.8091">tên nhà xe</text><text fill="#000000" font-family="sans-serif" font-size="25" lengthAdjust="spacing" textLength="8.3333" x="801.0417" y="773.2544">-</text><text fill="#000000" font-family="sans-serif" font-size="25" font-weight="bold" lengthAdjust="spacing" textLength="233.3333" x="815.625" y="773.2544">các chuyến đã chạy</text><polygon fill="#FEFECE" filter="url(#ffwec0xlcvbiu)" points="746.875,958.1095,771.875,983.1095,746.875,1008.1095,721.875,983.1095,746.875,958.1095" style="stroke:#A80036;stroke-width:3.125;"/><ellipse cx="746.875" cy="1072.6929" fill="#FFFFFF" filter="url(#ffwec0xlcvbiu)" rx="22.9167" ry="22.9167" style="stroke:#000000;stroke-width:2.0833333333333335;"/><ellipse cx="746.875" cy="1072.6929" fill="#000000" rx="12.5" ry="12.5" style="stroke:#7F7F7F;stroke-width:2.0833333333333335;"/><line style="stroke:#000000;stroke-width:4.166666666666667;" x1="414.5833" x2="414.5833" y1="25.9481" y2="1095.6095"/><line style="stroke:#000000;stroke-width:4.166666666666667;" x1="1090.625" x2="1090.625" y1="25.9481" y2="1095.6095"/><line style="stroke:#A80036;stroke-width:3.125;" x1="218.75" x2="218.75" y1="188.09" y2="229.7567"/><polygon fill="#A80036" points="210.4167,208.9233,218.75,229.7567,227.0833,208.9233,218.75,217.2567" style="stroke:#A80036;stroke-width:2.0833333333333335;"/><line style="stroke:#A80036;stroke-width:3.125;" x1="218.75" x2="218.75" y1="365.7593" y2="407.4259"/><polygon fill="#A80036" points="210.4167,386.5926,218.75,407.4259,227.0833,386.5926,218.75,394.9259" style="stroke:#A80036;stroke-width:2.0833333333333335;"/><line style="stroke:#A80036;stroke-width:3.125;" x1="568.75" x2="568.75" y1="768.1356" y2="841.0522"/><polygon fill="#A80036" points="560.4167,820.2189,568.75,841.0522,577.0833,820.2189,568.75,828.5522" style="stroke:#A80036;stroke-width:2.0833333333333335;"/><line style="stroke:#A80036;stroke-width:3.125;" x1="589.5833" x2="568.75" y1="582.4748" y2="582.4748"/><line style="stroke:#A80036;stroke-width:3.125;" x1="568.75" x2="568.75" y1="582.4748" y2="632.133"/><polygon fill="#A80036" points="560.4167,611.2996,568.75,632.133,577.0833,611.2996,568.75,619.633" style="stroke:#A80036;stroke-width:2.0833333333333335;"/><line style="stroke:#A80036;stroke-width:3.125;" x1="904.1667" x2="925" y1="582.4748" y2="582.4748"/><line style="stroke:#A80036;stroke-width:3.125;" x1="925" x2="925" y1="582.4748" y2="632.133"/><polygon fill="#A80036" points="916.6667,611.2996,925,632.133,933.3333,611.2996,925,619.633" style="stroke:#A80036;stroke-width:2.0833333333333335;"/><line style="stroke:#A80036;stroke-width:3.125;" x1="568.75" x2="568.75" y1="945.6095" y2="983.1095"/><line style="stroke:#A80036;stroke-width:3.125;" x1="568.75" x2="721.875" y1="983.1095" y2="983.1095"/><polygon fill="#A80036" points="701.0417,974.7762,721.875,983.1095,701.0417,991.4429,709.375,983.1095" style="stroke:#A80036;stroke-width:2.0833333333333335;"/><line style="stroke:#A80036;stroke-width:3.125;" x1="925" x2="925" y1="799.5809" y2="983.1095"/><line style="stroke:#A80036;stroke-width:3.125;" x1="925" x2="771.875" y1="983.1095" y2="983.1095"/><polygon fill="#A80036" points="792.7083,974.7762,771.875,983.1095,792.7083,991.4429,784.375,983.1095" style="stroke:#A80036;stroke-width:2.0833333333333335;"/><line style="stroke:#A80036;stroke-width:3.125;" x1="746.875" x2="746.875" y1="1008.1095" y2="1049.7762"/><polygon fill="#A80036" points="738.5417,1028.9429,746.875,1049.7762,755.2083,1028.9429,746.875,1037.2762" style="stroke:#A80036;stroke-width:2.0833333333333335;"/><line style="stroke:#A80036;stroke-width:3.125;" x1="218.75" x2="218.75" y1="511.9832" y2="522.3999"/><line style="stroke:#A80036;stroke-width:3.125;" x1="218.75" x2="746.875" y1="522.3999" y2="522.3999"/><line style="stroke:#A80036;stroke-width:3.125;" x1="746.875" x2="746.875" y1="522.3999" y2="553.6499"/><polygon fill="#A80036" points="738.5417,532.8166,746.875,553.6499,755.2083,532.8166,746.875,541.1499" style="stroke:#A80036;stroke-width:2.0833333333333335;"/><text fill="#000000" font-family="sans-serif" font-size="37.5" lengthAdjust="spacing" textLength="325" x="65.625" y="64.8763">Quản Trị Hệ Thống</text><text fill="#000000" font-family="sans-serif" font-size="37.5" lengthAdjust="spacing" textLength="166.6667" x="674.4792" y="64.8763">Hệ Thống</text><!--MD5=[a25cb4d2b198500b9ecf729877f0d13f]
@startuml
skinparam dpi 200

|Sys Admin| Quản Trị Hệ Thống

	#lightgreen:Từ màn hình
	<b>Danh sách Nhà Xe</b> >

	:Chọn các nhà xe muốn xóa
	ở cột <b>Checkbox</b>
	phía cuối cùng;

	:Click nút
	<b>Xóa</b>;

|System| Hệ Thống
	if (Các nhà xe đều \n<b>chưa chạy chuyến nào</b>?) then (Đúng)
		:Xóa tất cả
		nhà xe được chọn
		và thông tin liên quan;

		:Hiển thị tin
		<b>Xóa thành công!</b>;

	else (Sai)
		:Hiển thị thông báo lỗi,
		liệt kê
		- <b>tên nhà xe</b>
		- <b>các chuyến đã chạy</b>;

	endif

	stop
@enduml

PlantUML version 1.2021.2(Sun Mar 07 18:10:27 ICT 2021)
(GPL source distribution)
Java Runtime: OpenJDK Runtime Environment
JVM: Eclipse OpenJ9 VM
Default Encoding: UTF-8
Language: en
Country: US
--></g></svg>