<?xml version="1.0" encoding="UTF-8" standalone="no"?><svg xmlns="http://www.w3.org/2000/svg" xmlns:xlink="http://www.w3.org/1999/xlink" contentScriptType="application/ecmascript" contentStyleType="text/css" height="929.1667px" preserveAspectRatio="none" style="width:1597px;height:929px;" version="1.1" viewBox="0 0 1597 929" width="1597.9167px" zoomAndPan="magnify"><defs><filter height="300%" id="fvpql747xmnd1" width="300%" x="-1" y="-1"><feGaussianBlur result="blurOut" stdDeviation="4.166666666666667"/><feColorMatrix in="blurOut" result="blurOut2" type="matrix" values="0 0 0 0 0 0 0 0 0 0 0 0 0 0 0 0 0 0 .4 0"/><feOffset dx="8.333333333333334" dy="8.333333333333334" in="blurOut2" result="blurOut3"/><feBlend in="SourceGraphic" in2="blurOut3" mode="normal"/></filter></defs><g><polygon fill="#90EE90" filter="url(#fvpql747xmnd1)" points="62.5,83.5327,525,83.5327,545.8333,120.0887,525,156.6447,62.5,156.6447" style="stroke:#A80036;stroke-width:3.125;"/><text fill="#000000" font-family="sans-serif" font-size="25" lengthAdjust="spacing" textLength="52.0833" x="83.3333" y="130.3182">from</text><text fill="#000000" font-family="sans-serif" font-size="25" font-weight="bold" lengthAdjust="spacing" textLength="310.4167" x="141.6667" y="130.3182">List of Buss Organizations</text><text fill="#000000" font-family="sans-serif" font-size="25" lengthAdjust="spacing" textLength="45.8333" x="458.3333" y="130.3182">flow</text><rect fill="#FEFECE" filter="url(#fvpql747xmnd1)" height="104.5573" rx="26.0417" ry="26.0417" style="stroke:#A80036;stroke-width:3.125;" width="368.75" x="109.375" y="198.3114"/><text fill="#000000" font-family="sans-serif" font-size="25" lengthAdjust="spacing" textLength="327.0833" x="130.2083" y="245.0968">select admins want to delete</text><text fill="#000000" font-family="sans-serif" font-size="25" lengthAdjust="spacing" textLength="29.1667" x="130.2083" y="276.5422">on</text><text fill="#FF0000" font-family="sans-serif" font-size="25" font-weight="bold" lengthAdjust="spacing" textLength="152.0833" x="165.625" y="276.5422">check boxes</text><text fill="#000000" font-family="sans-serif" font-size="25" lengthAdjust="spacing" textLength="85.4167" x="323.9583" y="276.5422">column</text><rect fill="#FEFECE" filter="url(#fvpql747xmnd1)" height="73.112" rx="26.0417" ry="26.0417" style="stroke:#A80036;stroke-width:3.125;" width="250" x="168.75" y="344.5353"/><text fill="#000000" font-family="sans-serif" font-size="25" lengthAdjust="spacing" textLength="50" x="189.5833" y="391.3208">click</text><text fill="#FF0000" font-family="sans-serif" font-size="25" font-weight="bold" lengthAdjust="spacing" textLength="75" x="245.8333" y="391.3208">Delete</text><text fill="#000000" font-family="sans-serif" font-size="25" lengthAdjust="spacing" textLength="70.8333" x="327.0833" y="391.3208">button</text><line style="stroke:#000000;stroke-width:4.166666666666667;" x1="31.25" x2="31.25" y1="25.9481" y2="895.3166"/><polygon fill="#FEFECE" filter="url(#fvpql747xmnd1)" points="875,459.314,1341.6667,459.314,1366.6667,484.314,1341.6667,509.314,875,509.314,850,484.314,875,459.314" style="stroke:#A80036;stroke-width:3.125;"/><text fill="#000000" font-family="sans-serif" font-size="22.9167" lengthAdjust="spacing" textLength="466.6667" x="875" y="493.691">Nhà xe này chưa có bất cứ khách đặt xe nào?</text><text fill="#000000" font-family="sans-serif" font-size="22.9167" lengthAdjust="spacing" textLength="37.5" x="812.5" y="479.2786">yes</text><text fill="#000000" font-family="sans-serif" font-size="22.9167" lengthAdjust="spacing" textLength="25" x="1366.6667" y="479.2786">no</text><rect fill="#FEFECE" filter="url(#fvpql747xmnd1)" height="104.5573" rx="26.0417" ry="26.0417" style="stroke:#A80036;stroke-width:3.125;" width="443.75" x="607.2917" y="530.1473"/><text fill="#000000" font-family="sans-serif" font-size="25" lengthAdjust="spacing" textLength="208.3333" x="628.125" y="576.9328">delete all selected</text><text fill="#000000" font-family="sans-serif" font-size="25" font-weight="bold" lengthAdjust="spacing" textLength="89.5833" x="842.7083" y="576.9328">Admins</text><text fill="#000000" font-family="sans-serif" font-size="25" lengthAdjust="spacing" textLength="129.1667" x="678.125" y="608.3781">and related</text><text fill="#000000" font-family="sans-serif" font-size="25" font-weight="bold" lengthAdjust="spacing" textLength="216.6667" x="813.5417" y="608.3781">Buss Organization</text><rect fill="#FEFECE" filter="url(#fvpql747xmnd1)" height="73.112" rx="26.0417" ry="26.0417" style="stroke:#A80036;stroke-width:3.125;" width="479.1667" x="589.5833" y="676.3713"/><text fill="#000000" font-family="sans-serif" font-size="25" lengthAdjust="spacing" textLength="437.5" x="610.4167" y="723.1567">display deleted successfully message</text><rect fill="#FEFECE" filter="url(#fvpql747xmnd1)" height="73.112" rx="26.0417" ry="26.0417" style="stroke:#A80036;stroke-width:3.125;" width="300" x="1237.5" y="530.1473"/><text fill="#000000" font-family="sans-serif" font-size="25" lengthAdjust="spacing" textLength="258.3333" x="1258.3333" y="576.9328">display error message</text><polygon fill="#FEFECE" filter="url(#fvpql747xmnd1)" points="1108.3333,761.9832,1133.3333,786.9832,1108.3333,811.9832,1083.3333,786.9832,1108.3333,761.9832" style="stroke:#A80036;stroke-width:3.125;"/><ellipse cx="1108.3333" cy="874.4832" fill="#FFFFFF" filter="url(#fvpql747xmnd1)" rx="20.8333" ry="20.8333" style="stroke:#000000;stroke-width:3.125;"/><line style="stroke:#000000;stroke-width:5.208333333333334;" x1="1095.4434" x2="1121.2233" y1="861.5933" y2="887.3732"/><line style="stroke:#000000;stroke-width:5.208333333333334;" x1="1121.2233" x2="1095.4434" y1="861.5933" y2="887.3732"/><line style="stroke:#000000;stroke-width:4.166666666666667;" x1="577.0833" x2="577.0833" y1="25.9481" y2="895.3166"/><line style="stroke:#000000;stroke-width:4.166666666666667;" x1="1558.3333" x2="1558.3333" y1="25.9481" y2="895.3166"/><line style="stroke:#A80036;stroke-width:3.125;" x1="293.75" x2="293.75" y1="156.6447" y2="198.3114"/><polygon fill="#A80036" points="285.4167,177.478,293.75,198.3114,302.0833,177.478,293.75,185.8114" style="stroke:#A80036;stroke-width:2.0833333333333335;"/><line style="stroke:#A80036;stroke-width:3.125;" x1="293.75" x2="293.75" y1="302.8687" y2="344.5353"/><polygon fill="#A80036" points="285.4167,323.702,293.75,344.5353,302.0833,323.702,293.75,332.0353" style="stroke:#A80036;stroke-width:2.0833333333333335;"/><line style="stroke:#A80036;stroke-width:3.125;" x1="829.1667" x2="829.1667" y1="634.7046" y2="676.3713"/><polygon fill="#A80036" points="820.8333,655.5379,829.1667,676.3713,837.5,655.5379,829.1667,663.8713" style="stroke:#A80036;stroke-width:2.0833333333333335;"/><line style="stroke:#A80036;stroke-width:3.125;" x1="850" x2="829.1667" y1="484.314" y2="484.314"/><line style="stroke:#A80036;stroke-width:3.125;" x1="829.1667" x2="829.1667" y1="484.314" y2="530.1473"/><polygon fill="#A80036" points="820.8333,509.314,829.1667,530.1473,837.5,509.314,829.1667,517.6473" style="stroke:#A80036;stroke-width:2.0833333333333335;"/><line style="stroke:#A80036;stroke-width:3.125;" x1="1366.6667" x2="1387.5" y1="484.314" y2="484.314"/><line style="stroke:#A80036;stroke-width:3.125;" x1="1387.5" x2="1387.5" y1="484.314" y2="530.1473"/><polygon fill="#A80036" points="1379.1667,509.314,1387.5,530.1473,1395.8333,509.314,1387.5,517.6473" style="stroke:#A80036;stroke-width:2.0833333333333335;"/><line style="stroke:#A80036;stroke-width:3.125;" x1="829.1667" x2="829.1667" y1="749.4832" y2="786.9832"/><line style="stroke:#A80036;stroke-width:3.125;" x1="829.1667" x2="1083.3333" y1="786.9832" y2="786.9832"/><polygon fill="#A80036" points="1062.5,778.6499,1083.3333,786.9832,1062.5,795.3166,1070.8333,786.9832" style="stroke:#A80036;stroke-width:2.0833333333333335;"/><line style="stroke:#A80036;stroke-width:3.125;" x1="1387.5" x2="1387.5" y1="603.2593" y2="786.9832"/><line style="stroke:#A80036;stroke-width:3.125;" x1="1387.5" x2="1133.3333" y1="786.9832" y2="786.9832"/><polygon fill="#A80036" points="1154.1667,778.6499,1133.3333,786.9832,1154.1667,795.3166,1145.8333,786.9832" style="stroke:#A80036;stroke-width:2.0833333333333335;"/><line style="stroke:#A80036;stroke-width:3.125;" x1="1108.3333" x2="1108.3333" y1="811.9832" y2="853.6499"/><polygon fill="#A80036" points="1100,832.8166,1108.3333,853.6499,1116.6667,832.8166,1108.3333,841.1499" style="stroke:#A80036;stroke-width:2.0833333333333335;"/><line style="stroke:#A80036;stroke-width:3.125;" x1="293.75" x2="293.75" y1="417.6473" y2="428.064"/><line style="stroke:#A80036;stroke-width:3.125;" x1="293.75" x2="1108.3333" y1="428.064" y2="428.064"/><line style="stroke:#A80036;stroke-width:3.125;" x1="1108.3333" x2="1108.3333" y1="428.064" y2="459.314"/><polygon fill="#A80036" points="1100,438.4806,1108.3333,459.314,1116.6667,438.4806,1108.3333,446.814" style="stroke:#A80036;stroke-width:2.0833333333333335;"/><text fill="#000000" font-family="sans-serif" font-size="37.5" lengthAdjust="spacing" textLength="175" x="216.6667" y="64.8763">Sys Admin</text><text fill="#000000" font-family="sans-serif" font-size="37.5" lengthAdjust="spacing" textLength="122.9167" x="1006.25" y="64.8763">System</text><!--MD5=[e06513124dabcd4d307350602067ce5e]
@startuml
skinparam dpi 200

|Sys Admin|
#lightgreen:from <b>List of Buss Organizations</b> flow>
:select admins want to delete
on <b><color:red>check boxes</color></b> column;
:click <b><color:red>Delete</color></b> button;
|System|
if (Nhà xe này chưa có bất cứ khách đặt xe nào?) then (yes)
	:delete all selected <b>Admins</b>
		and related <b>Buss Organization</b>;
	:display deleted successfully message;
else (no)
	:display error message;
endif
end
@enduml

PlantUML version 1.2021.2(Sun Mar 07 18:10:27 ICT 2021)
(GPL source distribution)
Java Runtime: OpenJDK Runtime Environment
JVM: Eclipse OpenJ9 VM
Default Encoding: UTF-8
Language: en
Country: US
--></g></svg>