<?xml version="1.0" encoding="UTF-8" standalone="no"?><svg xmlns="http://www.w3.org/2000/svg" xmlns:xlink="http://www.w3.org/1999/xlink" contentScriptType="application/ecmascript" contentStyleType="text/css" height="897.9167px" preserveAspectRatio="none" style="width:1320px;height:897px;" version="1.1" viewBox="0 0 1320 897" width="1320.8333px" zoomAndPan="magnify"><defs><filter height="300%" id="f1dkobfe0byaws" width="300%" x="-1" y="-1"><feGaussianBlur result="blurOut" stdDeviation="4.166666666666667"/><feColorMatrix in="blurOut" result="blurOut2" type="matrix" values="0 0 0 0 0 0 0 0 0 0 0 0 0 0 0 0 0 0 .4 0"/><feOffset dx="8.333333333333334" dy="8.333333333333334" in="blurOut2" result="blurOut3"/><feBlend in="SourceGraphic" in2="blurOut3" mode="normal"/></filter></defs><g><polygon fill="#90EE90" filter="url(#f1dkobfe0byaws)" points="67.7083,83.5327,388.5417,83.5327,409.375,120.0887,388.5417,156.6447,67.7083,156.6447" style="stroke:#A80036;stroke-width:3.125;"/><text fill="#000000" font-family="sans-serif" font-size="25" lengthAdjust="spacing" textLength="52.0833" x="88.5417" y="130.3182">from</text><text fill="#000000" font-family="sans-serif" font-size="25" font-weight="bold" lengthAdjust="spacing" textLength="168.75" x="146.875" y="130.3182">List of Busses</text><text fill="#000000" font-family="sans-serif" font-size="25" lengthAdjust="spacing" textLength="45.8333" x="321.875" y="130.3182">flow</text><rect fill="#FEFECE" filter="url(#f1dkobfe0byaws)" height="104.5573" rx="26.0417" ry="26.0417" style="stroke:#A80036;stroke-width:3.125;" width="368.75" x="43.75" y="198.3114"/><text fill="#000000" font-family="sans-serif" font-size="25" lengthAdjust="spacing" textLength="68.75" x="64.5833" y="245.0968">select</text><text fill="#000000" font-family="sans-serif" font-size="25" font-weight="bold" lengthAdjust="spacing" textLength="87.5" x="139.5833" y="245.0968">busses</text><text fill="#000000" font-family="sans-serif" font-size="25" lengthAdjust="spacing" textLength="158.3333" x="233.3333" y="245.0968">want to delete</text><text fill="#000000" font-family="sans-serif" font-size="25" lengthAdjust="spacing" textLength="29.1667" x="64.5833" y="276.5422">on</text><text fill="#FF0000" font-family="sans-serif" font-size="25" font-weight="bold" lengthAdjust="spacing" textLength="152.0833" x="100" y="276.5422">check boxes</text><text fill="#000000" font-family="sans-serif" font-size="25" lengthAdjust="spacing" textLength="85.4167" x="258.3333" y="276.5422">column</text><rect fill="#FEFECE" filter="url(#f1dkobfe0byaws)" height="73.112" rx="26.0417" ry="26.0417" style="stroke:#A80036;stroke-width:3.125;" width="250" x="103.125" y="344.5353"/><text fill="#000000" font-family="sans-serif" font-size="25" lengthAdjust="spacing" textLength="50" x="123.9583" y="391.3208">click</text><text fill="#FF0000" font-family="sans-serif" font-size="25" font-weight="bold" lengthAdjust="spacing" textLength="75" x="180.2083" y="391.3208">Delete</text><text fill="#000000" font-family="sans-serif" font-size="25" lengthAdjust="spacing" textLength="70.8333" x="261.4583" y="391.3208">button</text><line style="stroke:#000000;stroke-width:4.166666666666667;" x1="31.25" x2="31.25" y1="25.9481" y2="863.8713"/><polygon fill="#FEFECE" filter="url(#f1dkobfe0byaws)" points="863.0208,459.314,931.7708,459.314,956.7708,484.314,931.7708,509.314,863.0208,509.314,838.0208,484.314,863.0208,459.314" style="stroke:#A80036;stroke-width:3.125;"/><text fill="#000000" font-family="sans-serif" font-size="22.9167" lengthAdjust="spacing" textLength="68.75" x="863.0208" y="493.691">is valid</text><text fill="#000000" font-family="sans-serif" font-size="22.9167" lengthAdjust="spacing" textLength="37.5" x="800.5208" y="479.2786">yes</text><text fill="#000000" font-family="sans-serif" font-size="22.9167" lengthAdjust="spacing" textLength="25" x="956.7708" y="479.2786">no</text><rect fill="#FEFECE" filter="url(#f1dkobfe0byaws)" height="73.112" rx="26.0417" ry="26.0417" style="stroke:#A80036;stroke-width:3.125;" width="343.75" x="513.5417" y="530.1473"/><text fill="#000000" font-family="sans-serif" font-size="25" lengthAdjust="spacing" textLength="302.0833" x="534.375" y="576.9328">delete all selected busses</text><rect fill="#FEFECE" filter="url(#f1dkobfe0byaws)" height="73.112" rx="26.0417" ry="26.0417" style="stroke:#A80036;stroke-width:3.125;" width="464.5833" x="453.125" y="644.9259"/><text fill="#000000" font-family="sans-serif" font-size="25" lengthAdjust="spacing" textLength="422.9167" x="473.9583" y="691.7114">display delete successfully message</text><rect fill="#FEFECE" filter="url(#f1dkobfe0byaws)" height="73.112" rx="26.0417" ry="26.0417" style="stroke:#A80036;stroke-width:3.125;" width="300" x="959.375" y="530.1473"/><text fill="#000000" font-family="sans-serif" font-size="25" lengthAdjust="spacing" textLength="258.3333" x="980.2083" y="576.9328">display error message</text><polygon fill="#FEFECE" filter="url(#f1dkobfe0byaws)" points="897.3958,730.5379,922.3958,755.5379,897.3958,780.5379,872.3958,755.5379,897.3958,730.5379" style="stroke:#A80036;stroke-width:3.125;"/><ellipse cx="897.3958" cy="843.0379" fill="#FFFFFF" filter="url(#f1dkobfe0byaws)" rx="20.8333" ry="20.8333" style="stroke:#000000;stroke-width:3.125;"/><line style="stroke:#000000;stroke-width:5.208333333333334;" x1="884.5059" x2="910.2858" y1="830.148" y2="855.9279"/><line style="stroke:#000000;stroke-width:5.208333333333334;" x1="910.2858" x2="884.5059" y1="830.148" y2="855.9279"/><line style="stroke:#000000;stroke-width:4.166666666666667;" x1="440.625" x2="440.625" y1="25.9481" y2="863.8713"/><line style="stroke:#000000;stroke-width:4.166666666666667;" x1="1280.2083" x2="1280.2083" y1="25.9481" y2="863.8713"/><line style="stroke:#A80036;stroke-width:3.125;" x1="228.125" x2="228.125" y1="156.6447" y2="198.3114"/><polygon fill="#A80036" points="219.7917,177.478,228.125,198.3114,236.4583,177.478,228.125,185.8114" style="stroke:#A80036;stroke-width:2.0833333333333335;"/><line style="stroke:#A80036;stroke-width:3.125;" x1="228.125" x2="228.125" y1="302.8687" y2="344.5353"/><polygon fill="#A80036" points="219.7917,323.702,228.125,344.5353,236.4583,323.702,228.125,332.0353" style="stroke:#A80036;stroke-width:2.0833333333333335;"/><line style="stroke:#A80036;stroke-width:3.125;" x1="685.4167" x2="685.4167" y1="603.2593" y2="644.9259"/><polygon fill="#A80036" points="677.0833,624.0926,685.4167,644.9259,693.75,624.0926,685.4167,632.4259" style="stroke:#A80036;stroke-width:2.0833333333333335;"/><line style="stroke:#A80036;stroke-width:3.125;" x1="838.0208" x2="685.4167" y1="484.314" y2="484.314"/><line style="stroke:#A80036;stroke-width:3.125;" x1="685.4167" x2="685.4167" y1="484.314" y2="530.1473"/><polygon fill="#A80036" points="677.0833,509.314,685.4167,530.1473,693.75,509.314,685.4167,517.6473" style="stroke:#A80036;stroke-width:2.0833333333333335;"/><line style="stroke:#A80036;stroke-width:3.125;" x1="956.7708" x2="1109.375" y1="484.314" y2="484.314"/><line style="stroke:#A80036;stroke-width:3.125;" x1="1109.375" x2="1109.375" y1="484.314" y2="530.1473"/><polygon fill="#A80036" points="1101.0417,509.314,1109.375,530.1473,1117.7083,509.314,1109.375,517.6473" style="stroke:#A80036;stroke-width:2.0833333333333335;"/><line style="stroke:#A80036;stroke-width:3.125;" x1="685.4167" x2="685.4167" y1="718.0379" y2="755.5379"/><line style="stroke:#A80036;stroke-width:3.125;" x1="685.4167" x2="872.3958" y1="755.5379" y2="755.5379"/><polygon fill="#A80036" points="851.5625,747.2046,872.3958,755.5379,851.5625,763.8713,859.8958,755.5379" style="stroke:#A80036;stroke-width:2.0833333333333335;"/><line style="stroke:#A80036;stroke-width:3.125;" x1="1109.375" x2="1109.375" y1="603.2593" y2="755.5379"/><line style="stroke:#A80036;stroke-width:3.125;" x1="1109.375" x2="922.3958" y1="755.5379" y2="755.5379"/><polygon fill="#A80036" points="943.2292,747.2046,922.3958,755.5379,943.2292,763.8713,934.8958,755.5379" style="stroke:#A80036;stroke-width:2.0833333333333335;"/><line style="stroke:#A80036;stroke-width:3.125;" x1="897.3958" x2="897.3958" y1="780.5379" y2="822.2046"/><polygon fill="#A80036" points="889.0625,801.3713,897.3958,822.2046,905.7292,801.3713,897.3958,809.7046" style="stroke:#A80036;stroke-width:2.0833333333333335;"/><line style="stroke:#A80036;stroke-width:3.125;" x1="228.125" x2="228.125" y1="417.6473" y2="428.064"/><line style="stroke:#A80036;stroke-width:3.125;" x1="228.125" x2="897.3958" y1="428.064" y2="428.064"/><line style="stroke:#A80036;stroke-width:3.125;" x1="897.3958" x2="897.3958" y1="428.064" y2="459.314"/><polygon fill="#A80036" points="889.0625,438.4806,897.3958,459.314,905.7292,438.4806,897.3958,446.814" style="stroke:#A80036;stroke-width:2.0833333333333335;"/><text fill="#000000" font-family="sans-serif" font-size="37.5" lengthAdjust="spacing" textLength="195.8333" x="138.0208" y="64.8763">Buss Admin</text><text fill="#000000" font-family="sans-serif" font-size="37.5" lengthAdjust="spacing" textLength="122.9167" x="798.9583" y="64.8763">System</text><!--MD5=[af698206dbf80fbc364c46068ac2246c]
@startuml
skinparam dpi 200

|Buss Admin|
#lightgreen:from <b>List of Busses</b> flow>
:select <b>busses</b> want to delete
on <b><color:red>check boxes</color></b> column;
:click <b><color:red>Delete</color></b> button;
|System|
if (is valid) then (yes)
	:delete all selected busses;
	:display delete successfully message;
else (no)
	:display error message;
endif
end
@enduml

PlantUML version 1.2021.2(Sun Mar 07 18:10:27 ICT 2021)
(GPL source distribution)
Java Runtime: OpenJDK Runtime Environment
JVM: Eclipse OpenJ9 VM
Default Encoding: UTF-8
Language: en
Country: US
--></g></svg>