<?xml version="1.0" encoding="UTF-8" standalone="no"?><svg xmlns="http://www.w3.org/2000/svg" xmlns:xlink="http://www.w3.org/1999/xlink" contentScriptType="application/ecmascript" contentStyleType="text/css" height="897.9167px" preserveAspectRatio="none" style="width:1362px;height:897px;" version="1.1" viewBox="0 0 1362 897" width="1362.5px" zoomAndPan="magnify"><defs><filter height="300%" id="fjuwd6hi3irc8" width="300%" x="-1" y="-1"><feGaussianBlur result="blurOut" stdDeviation="4.166666666666667"/><feColorMatrix in="blurOut" result="blurOut2" type="matrix" values="0 0 0 0 0 0 0 0 0 0 0 0 0 0 0 0 0 0 .4 0"/><feOffset dx="8.333333333333334" dy="8.333333333333334" in="blurOut2" result="blurOut3"/><feBlend in="SourceGraphic" in2="blurOut3" mode="normal"/></filter></defs><g><polygon fill="#90EE90" filter="url(#fjuwd6hi3irc8)" points="62.5,83.5327,431.25,83.5327,452.0833,120.0887,431.25,156.6447,62.5,156.6447" style="stroke:#A80036;stroke-width:3.125;"/><text fill="#000000" font-family="sans-serif" font-size="25" lengthAdjust="spacing" textLength="52.0833" x="83.3333" y="130.3182">from</text><text fill="#000000" font-family="sans-serif" font-size="25" font-weight="bold" lengthAdjust="spacing" textLength="216.6667" x="141.6667" y="130.3182">List of Buss Types</text><text fill="#000000" font-family="sans-serif" font-size="25" lengthAdjust="spacing" textLength="45.8333" x="364.5833" y="130.3182">flow</text><rect fill="#FEFECE" filter="url(#fjuwd6hi3irc8)" height="104.5573" rx="26.0417" ry="26.0417" style="stroke:#A80036;stroke-width:3.125;" width="341.6667" x="76.0417" y="198.3114"/><text fill="#000000" font-family="sans-serif" font-size="25" lengthAdjust="spacing" textLength="300" x="96.875" y="245.0968">select types want to delete</text><text fill="#000000" font-family="sans-serif" font-size="25" lengthAdjust="spacing" textLength="29.1667" x="96.875" y="276.5422">on</text><text fill="#FF0000" font-family="sans-serif" font-size="25" font-weight="bold" lengthAdjust="spacing" textLength="152.0833" x="132.2917" y="276.5422">check boxes</text><text fill="#000000" font-family="sans-serif" font-size="25" lengthAdjust="spacing" textLength="85.4167" x="290.625" y="276.5422">column</text><rect fill="#FEFECE" filter="url(#fjuwd6hi3irc8)" height="73.112" rx="26.0417" ry="26.0417" style="stroke:#A80036;stroke-width:3.125;" width="250" x="121.875" y="344.5353"/><text fill="#000000" font-family="sans-serif" font-size="25" lengthAdjust="spacing" textLength="50" x="142.7083" y="391.3208">click</text><text fill="#FF0000" font-family="sans-serif" font-size="25" font-weight="bold" lengthAdjust="spacing" textLength="75" x="198.9583" y="391.3208">Delete</text><text fill="#000000" font-family="sans-serif" font-size="25" lengthAdjust="spacing" textLength="70.8333" x="280.2083" y="391.3208">button</text><line style="stroke:#000000;stroke-width:4.166666666666667;" x1="31.25" x2="31.25" y1="25.9481" y2="863.8713"/><polygon fill="#FEFECE" filter="url(#fjuwd6hi3irc8)" points="905.7292,459.314,974.4792,459.314,999.4792,484.314,974.4792,509.314,905.7292,509.314,880.7292,484.314,905.7292,459.314" style="stroke:#A80036;stroke-width:3.125;"/><text fill="#000000" font-family="sans-serif" font-size="22.9167" lengthAdjust="spacing" textLength="68.75" x="905.7292" y="493.691">is valid</text><text fill="#000000" font-family="sans-serif" font-size="22.9167" lengthAdjust="spacing" textLength="37.5" x="843.2292" y="479.2786">yes</text><text fill="#000000" font-family="sans-serif" font-size="22.9167" lengthAdjust="spacing" textLength="25" x="999.4792" y="479.2786">no</text><rect fill="#FEFECE" filter="url(#fjuwd6hi3irc8)" height="73.112" rx="26.0417" ry="26.0417" style="stroke:#A80036;stroke-width:3.125;" width="329.1667" x="563.5417" y="530.1473"/><text fill="#000000" font-family="sans-serif" font-size="25" lengthAdjust="spacing" textLength="287.5" x="584.375" y="576.9328">delete all selected admin</text><rect fill="#FEFECE" filter="url(#fjuwd6hi3irc8)" height="73.112" rx="26.0417" ry="26.0417" style="stroke:#A80036;stroke-width:3.125;" width="464.5833" x="495.8333" y="644.9259"/><text fill="#000000" font-family="sans-serif" font-size="25" lengthAdjust="spacing" textLength="422.9167" x="516.6667" y="691.7114">display delete successfully message</text><rect fill="#FEFECE" filter="url(#fjuwd6hi3irc8)" height="73.112" rx="26.0417" ry="26.0417" style="stroke:#A80036;stroke-width:3.125;" width="300" x="1002.0833" y="530.1473"/><text fill="#000000" font-family="sans-serif" font-size="25" lengthAdjust="spacing" textLength="258.3333" x="1022.9167" y="576.9328">display error message</text><polygon fill="#FEFECE" filter="url(#fjuwd6hi3irc8)" points="940.1042,730.5379,965.1042,755.5379,940.1042,780.5379,915.1042,755.5379,940.1042,730.5379" style="stroke:#A80036;stroke-width:3.125;"/><ellipse cx="940.1042" cy="843.0379" fill="#FFFFFF" filter="url(#fjuwd6hi3irc8)" rx="20.8333" ry="20.8333" style="stroke:#000000;stroke-width:3.125;"/><line style="stroke:#000000;stroke-width:5.208333333333334;" x1="927.2142" x2="952.9941" y1="830.148" y2="855.9279"/><line style="stroke:#000000;stroke-width:5.208333333333334;" x1="952.9941" x2="927.2142" y1="830.148" y2="855.9279"/><line style="stroke:#000000;stroke-width:4.166666666666667;" x1="483.3333" x2="483.3333" y1="25.9481" y2="863.8713"/><line style="stroke:#000000;stroke-width:4.166666666666667;" x1="1322.9167" x2="1322.9167" y1="25.9481" y2="863.8713"/><line style="stroke:#A80036;stroke-width:3.125;" x1="246.875" x2="246.875" y1="156.6447" y2="198.3114"/><polygon fill="#A80036" points="238.5417,177.478,246.875,198.3114,255.2083,177.478,246.875,185.8114" style="stroke:#A80036;stroke-width:2.0833333333333335;"/><line style="stroke:#A80036;stroke-width:3.125;" x1="246.875" x2="246.875" y1="302.8687" y2="344.5353"/><polygon fill="#A80036" points="238.5417,323.702,246.875,344.5353,255.2083,323.702,246.875,332.0353" style="stroke:#A80036;stroke-width:2.0833333333333335;"/><line style="stroke:#A80036;stroke-width:3.125;" x1="728.125" x2="728.125" y1="603.2593" y2="644.9259"/><polygon fill="#A80036" points="719.7917,624.0926,728.125,644.9259,736.4583,624.0926,728.125,632.4259" style="stroke:#A80036;stroke-width:2.0833333333333335;"/><line style="stroke:#A80036;stroke-width:3.125;" x1="880.7292" x2="728.125" y1="484.314" y2="484.314"/><line style="stroke:#A80036;stroke-width:3.125;" x1="728.125" x2="728.125" y1="484.314" y2="530.1473"/><polygon fill="#A80036" points="719.7917,509.314,728.125,530.1473,736.4583,509.314,728.125,517.6473" style="stroke:#A80036;stroke-width:2.0833333333333335;"/><line style="stroke:#A80036;stroke-width:3.125;" x1="999.4792" x2="1152.0833" y1="484.314" y2="484.314"/><line style="stroke:#A80036;stroke-width:3.125;" x1="1152.0833" x2="1152.0833" y1="484.314" y2="530.1473"/><polygon fill="#A80036" points="1143.75,509.314,1152.0833,530.1473,1160.4167,509.314,1152.0833,517.6473" style="stroke:#A80036;stroke-width:2.0833333333333335;"/><line style="stroke:#A80036;stroke-width:3.125;" x1="728.125" x2="728.125" y1="718.0379" y2="755.5379"/><line style="stroke:#A80036;stroke-width:3.125;" x1="728.125" x2="915.1042" y1="755.5379" y2="755.5379"/><polygon fill="#A80036" points="894.2708,747.2046,915.1042,755.5379,894.2708,763.8713,902.6042,755.5379" style="stroke:#A80036;stroke-width:2.0833333333333335;"/><line style="stroke:#A80036;stroke-width:3.125;" x1="1152.0833" x2="1152.0833" y1="603.2593" y2="755.5379"/><line style="stroke:#A80036;stroke-width:3.125;" x1="1152.0833" x2="965.1042" y1="755.5379" y2="755.5379"/><polygon fill="#A80036" points="985.9375,747.2046,965.1042,755.5379,985.9375,763.8713,977.6042,755.5379" style="stroke:#A80036;stroke-width:2.0833333333333335;"/><line style="stroke:#A80036;stroke-width:3.125;" x1="940.1042" x2="940.1042" y1="780.5379" y2="822.2046"/><polygon fill="#A80036" points="931.7708,801.3713,940.1042,822.2046,948.4375,801.3713,940.1042,809.7046" style="stroke:#A80036;stroke-width:2.0833333333333335;"/><line style="stroke:#A80036;stroke-width:3.125;" x1="246.875" x2="246.875" y1="417.6473" y2="428.064"/><line style="stroke:#A80036;stroke-width:3.125;" x1="246.875" x2="940.1042" y1="428.064" y2="428.064"/><line style="stroke:#A80036;stroke-width:3.125;" x1="940.1042" x2="940.1042" y1="428.064" y2="459.314"/><polygon fill="#A80036" points="931.7708,438.4806,940.1042,459.314,948.4375,438.4806,940.1042,446.814" style="stroke:#A80036;stroke-width:2.0833333333333335;"/><text fill="#000000" font-family="sans-serif" font-size="37.5" lengthAdjust="spacing" textLength="175" x="169.7917" y="64.8763">Sys Admin</text><text fill="#000000" font-family="sans-serif" font-size="37.5" lengthAdjust="spacing" textLength="122.9167" x="841.6667" y="64.8763">System</text><!--MD5=[cde87aa7ce4d18ecf9ef2f985655f73c]
@startuml
skinparam dpi 200

|Sys Admin|
#lightgreen:from <b>List of Buss Types</b> flow>
:select types want to delete
on <b><color:red>check boxes</color></b> column;
:click <b><color:red>Delete</color></b> button;
|System|
if (is valid) then (yes)
	:delete all selected admin;
	:display delete successfully message;
else (no)
	:display error message;
endif
end
@enduml

PlantUML version 1.2021.2(Sun Mar 07 18:10:27 ICT 2021)
(GPL source distribution)
Java Runtime: OpenJDK Runtime Environment
JVM: Eclipse OpenJ9 VM
Default Encoding: UTF-8
Language: en
Country: US
--></g></svg>