<?xml version="1.0" encoding="UTF-8" standalone="no"?><svg xmlns="http://www.w3.org/2000/svg" xmlns:xlink="http://www.w3.org/1999/xlink" contentScriptType="application/ecmascript" contentStyleType="text/css" height="1066.6667px" preserveAspectRatio="none" style="width:1072px;height:1066px;" version="1.1" viewBox="0 0 1072 1066" width="1072.9167px" zoomAndPan="magnify"><defs><filter height="300%" id="fbszgyedwq6jq" width="300%" x="-1" y="-1"><feGaussianBlur result="blurOut" stdDeviation="4.166666666666667"/><feColorMatrix in="blurOut" result="blurOut2" type="matrix" values="0 0 0 0 0 0 0 0 0 0 0 0 0 0 0 0 0 0 .4 0"/><feOffset dx="8.333333333333334" dy="8.333333333333334" in="blurOut2" result="blurOut3"/><feBlend in="SourceGraphic" in2="blurOut3" mode="normal"/></filter></defs><g><polygon fill="#90EE90" filter="url(#fbszgyedwq6jq)" points="68.2292,83.5327,334.8958,83.5327,355.7292,135.8114,334.8958,188.09,68.2292,188.09" style="stroke:#A80036;stroke-width:3.125;"/><text fill="#000000" font-family="sans-serif" font-size="25" lengthAdjust="spacing" textLength="145.8333" x="89.0625" y="130.3182">Từ màn hình</text><text fill="#000000" font-family="sans-serif" font-size="25" font-weight="bold" lengthAdjust="spacing" textLength="218.75" x="89.0625" y="161.7635">Danh sách Loại Xe</text><text fill="#000000" font-family="sans-serif" font-size="25" lengthAdjust="spacing" textLength="0" x="314.0625" y="161.7635"/><rect fill="#FEFECE" filter="url(#fbszgyedwq6jq)" height="136.0026" rx="26.0417" ry="26.0417" style="stroke:#A80036;stroke-width:3.125;" width="314.5833" x="44.2708" y="229.7567"/><text fill="#000000" font-family="sans-serif" font-size="25" lengthAdjust="spacing" textLength="272.9167" x="65.1042" y="276.5422">Chọn Loại Xe muốn xóa</text><text fill="#000000" font-family="sans-serif" font-size="25" lengthAdjust="spacing" textLength="56.25" x="65.1042" y="307.9875">ở cột</text><text fill="#000000" font-family="sans-serif" font-size="25" font-weight="bold" lengthAdjust="spacing" textLength="118.75" x="127.6042" y="307.9875">Checkbox</text><text fill="#000000" font-family="sans-serif" font-size="25" lengthAdjust="spacing" textLength="166.6667" x="65.1042" y="339.4328">phía cuối cùng</text><rect fill="#FEFECE" filter="url(#fbszgyedwq6jq)" height="73.112" rx="26.0417" ry="26.0417" style="stroke:#A80036;stroke-width:3.125;" width="191.6667" x="105.7292" y="407.4259"/><text fill="#000000" font-family="sans-serif" font-size="25" lengthAdjust="spacing" textLength="97.9167" x="126.5625" y="454.2114">Click nút</text><text fill="#000000" font-family="sans-serif" font-size="25" font-weight="bold" lengthAdjust="spacing" textLength="45.8333" x="230.7292" y="454.2114">Xóa</text><line style="stroke:#000000;stroke-width:4.166666666666667;" x1="31.25" x2="31.25" y1="25.9481" y2="1032.7189"/><polygon fill="#FEFECE" filter="url(#fbszgyedwq6jq)" points="575,522.2046,837.5,522.2046,862.5,551.0295,837.5,579.8543,575,579.8543,550,551.0295,575,522.2046" style="stroke:#A80036;stroke-width:3.125;"/><text fill="#000000" font-family="sans-serif" font-size="22.9167" lengthAdjust="spacing" textLength="262.5" x="575" y="545.9941">Hệ thống không có xe nào</text><text fill="#000000" font-family="sans-serif" font-size="22.9167" lengthAdjust="spacing" textLength="222.9167" x="575" y="574.8189">thuộc những loại này?</text><text fill="#000000" font-family="sans-serif" font-size="22.9167" lengthAdjust="spacing" textLength="54.1667" x="495.8333" y="545.9941">Đúng</text><text fill="#000000" font-family="sans-serif" font-size="22.9167" lengthAdjust="spacing" textLength="31.25" x="862.5" y="545.9941">Sai</text><rect fill="#FEFECE" filter="url(#fbszgyedwq6jq)" height="104.5573" rx="26.0417" ry="26.0417" style="stroke:#A80036;stroke-width:3.125;" width="258.3333" x="400" y="600.6877"/><text fill="#000000" font-family="sans-serif" font-size="25" lengthAdjust="spacing" textLength="110.4167" x="420.8333" y="647.4731">Xóa tất cả</text><text fill="#000000" font-family="sans-serif" font-size="25" font-weight="bold" lengthAdjust="spacing" textLength="87.5" x="420.8333" y="678.9185">Loại Xe</text><text fill="#000000" font-family="sans-serif" font-size="25" lengthAdjust="spacing" textLength="122.9167" x="514.5833" y="678.9185">được chọn</text><rect fill="#FEFECE" filter="url(#fbszgyedwq6jq)" height="104.5573" rx="26.0417" ry="26.0417" style="stroke:#A80036;stroke-width:3.125;" width="231.25" x="413.5417" y="778.1616"/><text fill="#000000" font-family="sans-serif" font-size="25" lengthAdjust="spacing" textLength="152.0833" x="434.375" y="824.9471">Hiện tin nhắn</text><text fill="#000000" font-family="sans-serif" font-size="25" font-weight="bold" lengthAdjust="spacing" textLength="189.5833" x="434.375" y="856.3924">Xóa thành công!</text><rect fill="#FEFECE" filter="url(#fbszgyedwq6jq)" height="136.0026" rx="26.0417" ry="26.0417" style="stroke:#A80036;stroke-width:3.125;" width="256.25" x="755.2083" y="600.6877"/><text fill="#000000" font-family="sans-serif" font-size="25" lengthAdjust="spacing" textLength="214.5833" x="776.0417" y="647.4731">Hiển thị danh sách</text><text fill="#000000" font-family="sans-serif" font-size="25" lengthAdjust="spacing" textLength="187.5" x="776.0417" y="678.9185">xe thuộc loại này</text><text fill="#000000" font-family="sans-serif" font-size="25" lengthAdjust="spacing" textLength="108.3333" x="776.0417" y="710.3638">và báo lỗi</text><polygon fill="#FEFECE" filter="url(#fbszgyedwq6jq)" points="706.25,895.2189,731.25,920.2189,706.25,945.2189,681.25,920.2189,706.25,895.2189" style="stroke:#A80036;stroke-width:3.125;"/><ellipse cx="706.25" cy="1009.8022" fill="#FFFFFF" filter="url(#fbszgyedwq6jq)" rx="22.9167" ry="22.9167" style="stroke:#000000;stroke-width:2.0833333333333335;"/><ellipse cx="706.25" cy="1009.8022" fill="#000000" rx="12.5" ry="12.5" style="stroke:#7F7F7F;stroke-width:2.0833333333333335;"/><line style="stroke:#000000;stroke-width:4.166666666666667;" x1="387.5" x2="387.5" y1="25.9481" y2="1032.7189"/><line style="stroke:#000000;stroke-width:4.166666666666667;" x1="1032.2917" x2="1032.2917" y1="25.9481" y2="1032.7189"/><line style="stroke:#A80036;stroke-width:3.125;" x1="201.5625" x2="201.5625" y1="188.09" y2="229.7567"/><polygon fill="#A80036" points="193.2292,208.9233,201.5625,229.7567,209.8958,208.9233,201.5625,217.2567" style="stroke:#A80036;stroke-width:2.0833333333333335;"/><line style="stroke:#A80036;stroke-width:3.125;" x1="201.5625" x2="201.5625" y1="365.7593" y2="407.4259"/><polygon fill="#A80036" points="193.2292,386.5926,201.5625,407.4259,209.8958,386.5926,201.5625,394.9259" style="stroke:#A80036;stroke-width:2.0833333333333335;"/><line style="stroke:#A80036;stroke-width:3.125;" x1="529.1667" x2="529.1667" y1="705.245" y2="778.1616"/><polygon fill="#A80036" points="520.8333,757.3283,529.1667,778.1616,537.5,757.3283,529.1667,765.6616" style="stroke:#A80036;stroke-width:2.0833333333333335;"/><line style="stroke:#A80036;stroke-width:3.125;" x1="550" x2="529.1667" y1="551.0295" y2="551.0295"/><line style="stroke:#A80036;stroke-width:3.125;" x1="529.1667" x2="529.1667" y1="551.0295" y2="600.6877"/><polygon fill="#A80036" points="520.8333,579.8543,529.1667,600.6877,537.5,579.8543,529.1667,588.1877" style="stroke:#A80036;stroke-width:2.0833333333333335;"/><line style="stroke:#A80036;stroke-width:3.125;" x1="862.5" x2="883.3333" y1="551.0295" y2="551.0295"/><line style="stroke:#A80036;stroke-width:3.125;" x1="883.3333" x2="883.3333" y1="551.0295" y2="600.6877"/><polygon fill="#A80036" points="875,579.8543,883.3333,600.6877,891.6667,579.8543,883.3333,588.1877" style="stroke:#A80036;stroke-width:2.0833333333333335;"/><line style="stroke:#A80036;stroke-width:3.125;" x1="529.1667" x2="529.1667" y1="882.7189" y2="920.2189"/><line style="stroke:#A80036;stroke-width:3.125;" x1="529.1667" x2="681.25" y1="920.2189" y2="920.2189"/><polygon fill="#A80036" points="660.4167,911.8856,681.25,920.2189,660.4167,928.5522,668.75,920.2189" style="stroke:#A80036;stroke-width:2.0833333333333335;"/><line style="stroke:#A80036;stroke-width:3.125;" x1="883.3333" x2="883.3333" y1="736.6903" y2="920.2189"/><line style="stroke:#A80036;stroke-width:3.125;" x1="883.3333" x2="731.25" y1="920.2189" y2="920.2189"/><polygon fill="#A80036" points="752.0833,911.8856,731.25,920.2189,752.0833,928.5522,743.75,920.2189" style="stroke:#A80036;stroke-width:2.0833333333333335;"/><line style="stroke:#A80036;stroke-width:3.125;" x1="706.25" x2="706.25" y1="945.2189" y2="986.8856"/><polygon fill="#A80036" points="697.9167,966.0522,706.25,986.8856,714.5833,966.0522,706.25,974.3856" style="stroke:#A80036;stroke-width:2.0833333333333335;"/><line style="stroke:#A80036;stroke-width:3.125;" x1="201.5625" x2="201.5625" y1="480.5379" y2="490.9546"/><line style="stroke:#A80036;stroke-width:3.125;" x1="201.5625" x2="706.25" y1="490.9546" y2="490.9546"/><line style="stroke:#A80036;stroke-width:3.125;" x1="706.25" x2="706.25" y1="490.9546" y2="522.2046"/><polygon fill="#A80036" points="697.9167,501.3713,706.25,522.2046,714.5833,501.3713,706.25,509.7046" style="stroke:#A80036;stroke-width:2.0833333333333335;"/><text fill="#000000" font-family="sans-serif" font-size="37.5" lengthAdjust="spacing" textLength="325" x="52.0833" y="64.8763">Quản Trị Hệ Thống</text><text fill="#000000" font-family="sans-serif" font-size="37.5" lengthAdjust="spacing" textLength="166.6667" x="631.7708" y="64.8763">Hệ Thống</text><!--MD5=[05e2b00c2a84bda6b3dce43d80d72245]
@startuml
skinparam dpi 200

|Sys Admin| Quản Trị Hệ Thống
	#lightgreen:Từ màn hình
	<b>Danh sách Loại Xe</b> >

	:Chọn Loại Xe muốn xóa
	ở cột <b>Checkbox</b>
	phía cuối cùng;

	:Click nút <b>Xóa</b>;

|System| Hệ Thống

	if (Hệ thống không có xe nào\nthuộc những loại này?) then (Đúng)
		:Xóa tất cả
		<b>Loại Xe</b> được chọn;

		:Hiện tin nhắn
		<b>Xóa thành công!</b>;

	else (Sai)
		:Hiển thị danh sách
		xe thuộc loại này
		và báo lỗi;

	endif

	stop
@enduml

PlantUML version 1.2021.2(Sun Mar 07 18:10:27 ICT 2021)
(GPL source distribution)
Java Runtime: OpenJDK Runtime Environment
JVM: Eclipse OpenJ9 VM
Default Encoding: UTF-8
Language: en
Country: US
--></g></svg>