<?xml version="1.0" encoding="UTF-8" standalone="no"?><svg xmlns="http://www.w3.org/2000/svg" xmlns:xlink="http://www.w3.org/1999/xlink" contentScriptType="application/ecmascript" contentStyleType="text/css" height="1950px" preserveAspectRatio="none" style="width:1139px;height:1950px;" version="1.1" viewBox="0 0 1139 1950" width="1139.5833px" zoomAndPan="magnify"><defs><filter height="300%" id="f16raja8h9isco" width="300%" x="-1" y="-1"><feGaussianBlur result="blurOut" stdDeviation="4.166666666666667"/><feColorMatrix in="blurOut" result="blurOut2" type="matrix" values="0 0 0 0 0 0 0 0 0 0 0 0 0 0 0 0 0 0 .4 0"/><feOffset dx="8.333333333333334" dy="8.333333333333334" in="blurOut2" result="blurOut3"/><feBlend in="SourceGraphic" in2="blurOut3" mode="normal"/></filter></defs><g><polygon fill="#90EE90" filter="url(#f16raja8h9isco)" points="90.625,83.5327,394.7917,83.5327,415.625,135.8114,394.7917,188.09,90.625,188.09" style="stroke:#A80036;stroke-width:3.125;"/><text fill="#000000" font-family="sans-serif" font-size="25" lengthAdjust="spacing" textLength="145.8333" x="111.4583" y="130.3182">Từ màn hình</text><text fill="#000000" font-family="sans-serif" font-size="25" font-weight="bold" lengthAdjust="spacing" textLength="256.25" x="111.4583" y="161.7635">Danh sách Chuyến Xe</text><text fill="#000000" font-family="sans-serif" font-size="25" lengthAdjust="spacing" textLength="0" x="373.9583" y="161.7635"/><rect fill="#FEFECE" filter="url(#f16raja8h9isco)" height="136.0026" rx="26.0417" ry="26.0417" style="stroke:#A80036;stroke-width:3.125;" width="397.9167" x="43.75" y="229.7567"/><text fill="#000000" font-family="sans-serif" font-size="25" lengthAdjust="spacing" textLength="356.25" x="64.5833" y="276.5422">Chọn các Chuyến Xe muốn xóa</text><text fill="#000000" font-family="sans-serif" font-size="25" lengthAdjust="spacing" textLength="56.25" x="64.5833" y="307.9875">ở cột</text><text fill="#000000" font-family="sans-serif" font-size="25" font-weight="bold" lengthAdjust="spacing" textLength="118.75" x="127.0833" y="307.9875">Checkbox</text><text fill="#000000" font-family="sans-serif" font-size="25" lengthAdjust="spacing" textLength="166.6667" x="64.5833" y="339.4328">phía cuối cùng</text><rect fill="#FEFECE" filter="url(#f16raja8h9isco)" height="104.5573" rx="26.0417" ry="26.0417" style="stroke:#A80036;stroke-width:3.125;" width="139.5833" x="172.9167" y="407.4259"/><text fill="#000000" font-family="sans-serif" font-size="25" lengthAdjust="spacing" textLength="97.9167" x="193.75" y="454.2114">Click nút</text><text fill="#000000" font-family="sans-serif" font-size="25" font-weight="bold" lengthAdjust="spacing" textLength="45.8333" x="193.75" y="485.6567">Xóa</text><polygon fill="#FEFECE" filter="url(#f16raja8h9isco)" points="162.5,872.3267,322.9167,872.3267,347.9167,897.3267,322.9167,922.3267,162.5,922.3267,137.5,897.3267,162.5,872.3267" style="stroke:#A80036;stroke-width:3.125;"/><text fill="#000000" font-family="sans-serif" font-size="22.9167" lengthAdjust="spacing" textLength="160.4167" x="162.5" y="906.7037">Click hoặc Chọn</text><text fill="#000000" font-family="sans-serif" font-size="22.9167" lengthAdjust="spacing" textLength="52.0833" x="85.4167" y="892.2913">Khác</text><text fill="#000000" font-family="sans-serif" font-size="22.9167" lengthAdjust="spacing" textLength="72.9167" x="347.9167" y="892.2913">Đồng ý</text><line style="stroke:#000000;stroke-width:4.166666666666667;" x1="31.25" x2="31.25" y1="25.9481" y2="1915.9465"/><rect fill="#FEFECE" filter="url(#f16raja8h9isco)" height="167.4479" rx="26.0417" ry="26.0417" style="stroke:#A80036;stroke-width:3.125;" width="327.0833" x="543.2292" y="663.2121"/><text fill="#000000" font-family="sans-serif" font-size="25" lengthAdjust="spacing" textLength="229.1667" x="564.0625" y="709.9976">Hiện yes/no pop-up:</text><text fill="#000000" font-family="sans-serif" font-size="25" font-weight="bold" lengthAdjust="spacing" textLength="283.3333" x="564.0625" y="741.4429">Đã có khách đặt chuyến</text><text fill="#000000" font-family="sans-serif" font-size="25" lengthAdjust="spacing" textLength="262.5" x="564.0625" y="772.8882">+ Danh sách khách đặt</text><text fill="#000000" font-family="sans-serif" font-size="25" font-weight="bold" lengthAdjust="spacing" textLength="285.4167" x="564.0625" y="804.3335">Bạn vẫn muốn xóa chứ?</text><rect fill="#FEFECE" filter="url(#f16raja8h9isco)" height="73.112" rx="26.0417" ry="26.0417" style="stroke:#A80036;stroke-width:3.125;" width="164.5833" x="475" y="963.9933"/><text fill="#000000" font-family="sans-serif" font-size="25" lengthAdjust="spacing" textLength="122.9167" x="495.8333" y="1010.7788">Tắt pop-up</text><ellipse cx="557.2917" cy="1099.6053" fill="#FFFFFF" filter="url(#f16raja8h9isco)" rx="20.8333" ry="20.8333" style="stroke:#000000;stroke-width:3.125;"/><line style="stroke:#000000;stroke-width:5.208333333333334;" x1="544.4017" x2="570.1816" y1="1086.7153" y2="1112.4953"/><line style="stroke:#000000;stroke-width:5.208333333333334;" x1="570.1816" x2="544.4017" y1="1086.7153" y2="1112.4953"/><rect fill="#FEFECE" filter="url(#f16raja8h9isco)" height="73.112" rx="26.0417" ry="26.0417" style="stroke:#A80036;stroke-width:3.125;" width="345.8333" x="683.3333" y="963.9933"/><text fill="#000000" font-family="sans-serif" font-size="25" lengthAdjust="spacing" textLength="304.1667" x="704.1667" y="1010.7788">Xóa các chuyến tương ứng</text><rect fill="#FEFECE" filter="url(#f16raja8h9isco)" height="104.5573" rx="26.0417" ry="26.0417" style="stroke:#A80036;stroke-width:3.125;" width="350" x="681.25" y="1078.772"/><text fill="#000000" font-family="sans-serif" font-size="25" lengthAdjust="spacing" textLength="308.3333" x="702.0833" y="1125.5575">Gửi email thông báo khách</text><text fill="#000000" font-family="sans-serif" font-size="25" font-weight="bold" lengthAdjust="spacing" textLength="304.1667" x="702.0833" y="1157.0028">Chuyến của bạn đã bị hủy!</text><rect fill="#FEFECE" filter="url(#f16raja8h9isco)" height="73.112" rx="26.0417" ry="26.0417" style="stroke:#A80036;stroke-width:3.125;" width="164.5833" x="773.9583" y="1224.9959"/><text fill="#000000" font-family="sans-serif" font-size="25" lengthAdjust="spacing" textLength="122.9167" x="794.7917" y="1271.7814">Tắt pop-up</text><polygon fill="#FEFECE" filter="url(#f16raja8h9isco)" points="599.4792,553.6499,814.0625,553.6499,839.0625,582.4748,814.0625,611.2996,599.4792,611.2996,574.4792,582.4748,599.4792,553.6499" style="stroke:#A80036;stroke-width:3.125;"/><text fill="#000000" font-family="sans-serif" font-size="22.9167" lengthAdjust="spacing" textLength="31.25" x="715.1042" y="635.0891">Sai</text><text fill="#000000" font-family="sans-serif" font-size="22.9167" lengthAdjust="spacing" textLength="214.5833" x="599.4792" y="577.4394">Chưa Chuyến Xe nào</text><text fill="#000000" font-family="sans-serif" font-size="22.9167" lengthAdjust="spacing" textLength="206.25" x="599.4792" y="606.2642">có khách đang chờ?</text><text fill="#000000" font-family="sans-serif" font-size="22.9167" lengthAdjust="spacing" textLength="54.1667" x="839.0625" y="577.4394">Đúng</text><polygon fill="#FEFECE" filter="url(#f16raja8h9isco)" points="706.7708,1339.7746,731.7708,1364.7746,706.7708,1389.7746,681.7708,1364.7746,706.7708,1339.7746" style="stroke:#A80036;stroke-width:3.125;"/><rect fill="#FEFECE" filter="url(#f16raja8h9isco)" height="104.5573" rx="26.0417" ry="26.0417" style="stroke:#A80036;stroke-width:3.125;" width="260.4167" x="576.5625" y="1431.4412"/><text fill="#000000" font-family="sans-serif" font-size="25" lengthAdjust="spacing" textLength="218.75" x="597.3958" y="1478.2267">Xóa các Chuyến Xe</text><text fill="#000000" font-family="sans-serif" font-size="25" lengthAdjust="spacing" textLength="122.9167" x="597.3958" y="1509.672">được chọn</text><rect fill="#FEFECE" filter="url(#f16raja8h9isco)" height="104.5573" rx="26.0417" ry="26.0417" style="stroke:#A80036;stroke-width:3.125;" width="268.75" x="572.3958" y="1577.6652"/><text fill="#000000" font-family="sans-serif" font-size="25" lengthAdjust="spacing" textLength="152.0833" x="593.2292" y="1624.4507">Hiện tin nhắn</text><text fill="#000000" font-family="sans-serif" font-size="25" font-weight="bold" lengthAdjust="spacing" textLength="227.0833" x="593.2292" y="1655.896">Đã xóa thành công!</text><rect fill="#FEFECE" filter="url(#f16raja8h9isco)" height="104.5573" rx="26.0417" ry="26.0417" style="stroke:#A80036;stroke-width:3.125;" width="258.3333" x="577.6042" y="1723.8892"/><text fill="#000000" font-family="sans-serif" font-size="25" lengthAdjust="spacing" textLength="137.5" x="598.4375" y="1770.6746">Cập nhật lại</text><text fill="#000000" font-family="sans-serif" font-size="25" font-weight="bold" lengthAdjust="spacing" textLength="216.6667" x="598.4375" y="1802.12">Danh sách hiển thị</text><ellipse cx="706.7708" cy="1893.0298" fill="#FFFFFF" filter="url(#f16raja8h9isco)" rx="22.9167" ry="22.9167" style="stroke:#000000;stroke-width:2.0833333333333335;"/><ellipse cx="706.7708" cy="1893.0298" fill="#000000" rx="12.5" ry="12.5" style="stroke:#7F7F7F;stroke-width:2.0833333333333335;"/><line style="stroke:#000000;stroke-width:4.166666666666667;" x1="462.5" x2="462.5" y1="25.9481" y2="1915.9465"/><line style="stroke:#000000;stroke-width:4.166666666666667;" x1="1100" x2="1100" y1="25.9481" y2="1915.9465"/><line style="stroke:#A80036;stroke-width:3.125;" x1="242.7083" x2="242.7083" y1="188.09" y2="229.7567"/><polygon fill="#A80036" points="234.375,208.9233,242.7083,229.7567,251.0417,208.9233,242.7083,217.2567" style="stroke:#A80036;stroke-width:2.0833333333333335;"/><line style="stroke:#A80036;stroke-width:3.125;" x1="242.7083" x2="242.7083" y1="365.7593" y2="407.4259"/><polygon fill="#A80036" points="234.375,386.5926,242.7083,407.4259,251.0417,386.5926,242.7083,394.9259" style="stroke:#A80036;stroke-width:2.0833333333333335;"/><line style="stroke:#A80036;stroke-width:3.125;" x1="557.2917" x2="557.2917" y1="1037.1053" y2="1078.772"/><polygon fill="#A80036" points="548.9583,1057.9386,557.2917,1078.772,565.625,1057.9386,557.2917,1066.272" style="stroke:#A80036;stroke-width:2.0833333333333335;"/><line style="stroke:#A80036;stroke-width:3.125;" x1="856.25" x2="856.25" y1="1037.1053" y2="1078.772"/><polygon fill="#A80036" points="847.9167,1057.9386,856.25,1078.772,864.5833,1057.9386,856.25,1066.272" style="stroke:#A80036;stroke-width:2.0833333333333335;"/><line style="stroke:#A80036;stroke-width:3.125;" x1="856.25" x2="856.25" y1="1183.3293" y2="1224.9959"/><polygon fill="#A80036" points="847.9167,1204.1626,856.25,1224.9959,864.5833,1204.1626,856.25,1212.4959" style="stroke:#A80036;stroke-width:2.0833333333333335;"/><line style="stroke:#A80036;stroke-width:3.125;" x1="706.7708" x2="706.7708" y1="611.2996" y2="663.2121"/><polygon fill="#A80036" points="698.4375,642.3787,706.7708,663.2121,715.1042,642.3787,706.7708,650.7121" style="stroke:#A80036;stroke-width:2.0833333333333335;"/><line style="stroke:#A80036;stroke-width:3.125;" x1="839.0625" x2="1060.4167" y1="582.4748" y2="582.4748"/><polygon fill="#A80036" points="1052.0833,990.2059,1060.4167,1011.0392,1068.75,990.2059,1060.4167,998.5392" style="stroke:#A80036;stroke-width:3.125;"/><line style="stroke:#A80036;stroke-width:3.125;" x1="1060.4167" x2="1060.4167" y1="582.4748" y2="1364.7746"/><line style="stroke:#A80036;stroke-width:3.125;" x1="1060.4167" x2="731.7708" y1="1364.7746" y2="1364.7746"/><polygon fill="#A80036" points="752.6042,1356.4412,731.7708,1364.7746,752.6042,1373.1079,744.2708,1364.7746" style="stroke:#A80036;stroke-width:2.0833333333333335;"/><line style="stroke:#A80036;stroke-width:3.125;" x1="706.7708" x2="706.7708" y1="1389.7746" y2="1431.4412"/><polygon fill="#A80036" points="698.4375,1410.6079,706.7708,1431.4412,715.1042,1410.6079,706.7708,1418.9412" style="stroke:#A80036;stroke-width:2.0833333333333335;"/><line style="stroke:#A80036;stroke-width:3.125;" x1="706.7708" x2="706.7708" y1="1535.9985" y2="1577.6652"/><polygon fill="#A80036" points="698.4375,1556.8319,706.7708,1577.6652,715.1042,1556.8319,706.7708,1565.1652" style="stroke:#A80036;stroke-width:2.0833333333333335;"/><line style="stroke:#A80036;stroke-width:3.125;" x1="706.7708" x2="706.7708" y1="1682.2225" y2="1723.8892"/><polygon fill="#A80036" points="698.4375,1703.0558,706.7708,1723.8892,715.1042,1703.0558,706.7708,1711.3892" style="stroke:#A80036;stroke-width:2.0833333333333335;"/><line style="stroke:#A80036;stroke-width:3.125;" x1="706.7708" x2="706.7708" y1="1828.4465" y2="1870.1131"/><polygon fill="#A80036" points="698.4375,1849.2798,706.7708,1870.1131,715.1042,1849.2798,706.7708,1857.6131" style="stroke:#A80036;stroke-width:2.0833333333333335;"/><line style="stroke:#A80036;stroke-width:3.125;" x1="137.5" x2="112.5" y1="897.3267" y2="897.3267"/><line style="stroke:#A80036;stroke-width:3.125;" x1="112.5" x2="112.5" y1="897.3267" y2="934.8267"/><line style="stroke:#A80036;stroke-width:3.125;" x1="112.5" x2="557.2917" y1="934.8267" y2="934.8267"/><line style="stroke:#A80036;stroke-width:3.125;" x1="557.2917" x2="557.2917" y1="934.8267" y2="963.9933"/><polygon fill="#A80036" points="548.9583,943.16,557.2917,963.9933,565.625,943.16,557.2917,951.4933" style="stroke:#A80036;stroke-width:2.0833333333333335;"/><line style="stroke:#A80036;stroke-width:3.125;" x1="347.9167" x2="856.25" y1="897.3267" y2="897.3267"/><line style="stroke:#A80036;stroke-width:3.125;" x1="856.25" x2="856.25" y1="897.3267" y2="963.9933"/><polygon fill="#A80036" points="847.9167,943.16,856.25,963.9933,864.5833,943.16,856.25,951.4933" style="stroke:#A80036;stroke-width:2.0833333333333335;"/><line style="stroke:#A80036;stroke-width:3.125;" x1="856.25" x2="856.25" y1="1298.1079" y2="1313.8184"/><line style="stroke:#A80036;stroke-width:3.125;" x1="856.25" x2="706.7708" y1="1313.8184" y2="1313.8184"/><line style="stroke:#A80036;stroke-width:3.125;" x1="706.7708" x2="706.7708" y1="1313.8184" y2="1339.7746"/><polygon fill="#A80036" points="698.4375,1318.9412,706.7708,1339.7746,715.1042,1318.9412,706.7708,1327.2746" style="stroke:#A80036;stroke-width:2.0833333333333335;"/><line style="stroke:#A80036;stroke-width:3.125;" x1="706.7708" x2="706.7708" y1="830.66" y2="841.0767"/><line style="stroke:#A80036;stroke-width:3.125;" x1="706.7708" x2="242.7083" y1="841.0767" y2="841.0767"/><line style="stroke:#A80036;stroke-width:3.125;" x1="242.7083" x2="242.7083" y1="841.0767" y2="872.3267"/><polygon fill="#A80036" points="234.375,851.4933,242.7083,872.3267,251.0417,851.4933,242.7083,859.8267" style="stroke:#A80036;stroke-width:2.0833333333333335;"/><line style="stroke:#A80036;stroke-width:3.125;" x1="242.7083" x2="242.7083" y1="511.9832" y2="522.3999"/><line style="stroke:#A80036;stroke-width:3.125;" x1="242.7083" x2="706.7708" y1="522.3999" y2="522.3999"/><line style="stroke:#A80036;stroke-width:3.125;" x1="706.7708" x2="706.7708" y1="522.3999" y2="553.6499"/><polygon fill="#A80036" points="698.4375,532.8166,706.7708,553.6499,715.1042,532.8166,706.7708,541.1499" style="stroke:#A80036;stroke-width:2.0833333333333335;"/><text fill="#000000" font-family="sans-serif" font-size="37.5" lengthAdjust="spacing" textLength="281.25" x="111.4583" y="64.8763">Quản Trị Nhà Xe</text><text fill="#000000" font-family="sans-serif" font-size="37.5" lengthAdjust="spacing" textLength="152.0833" x="710.4167" y="64.8763">Hệ thống</text><!--MD5=[ec3f542e47302d297867b8147ee3a68e]
@startuml
skinparam dpi 200

|Buss Admin| Quản Trị Nhà Xe
	#lightgreen:Từ màn hình
	<b>Danh sách Chuyến Xe</b> >

	:Chọn các Chuyến Xe muốn xóa
	ở cột <b>Checkbox</b>
	phía cuối cùng;

	:Click nút
	<b>Xóa</b>;

|System| Hệ thống
	if (Chưa Chuyến Xe nào\ncó khách đang chờ?) then (Sai)

		:Hiện yes/no pop-up:
		<b>Đã có khách đặt chuyến</b>
		+ Danh sách khách đặt
		<b>Bạn vẫn muốn xóa chứ?</b>;

		|Buss Admin|
		if (Click hoặc Chọn) is (Khác) then
			|System|
				:Tắt pop-up;
				end
		else (Đồng ý)
			|System|

				:Xóa các chuyến tương ứng;

				:Gửi email thông báo khách
				<b>Chuyến của bạn đã bị hủy!</b>;

				:Tắt pop-up;
		endif
	else (Đúng)

	endif

|System|
	:Xóa các Chuyến Xe
	được chọn;

	:Hiện tin nhắn
	<b>Đã xóa thành công!</b>;

	:Cập nhật lại
	<b>Danh sách hiển thị</b>;

	stop
@enduml

PlantUML version 1.2021.2(Sun Mar 07 18:10:27 ICT 2021)
(GPL source distribution)
Java Runtime: OpenJDK Runtime Environment
JVM: Eclipse OpenJ9 VM
Default Encoding: UTF-8
Language: en
Country: US
--></g></svg>