<?xml version="1.0" encoding="UTF-8" standalone="no"?><svg xmlns="http://www.w3.org/2000/svg" xmlns:xlink="http://www.w3.org/1999/xlink" contentScriptType="application/ecmascript" contentStyleType="text/css" height="1066.6667px" preserveAspectRatio="none" style="width:1147px;height:1066px;" version="1.1" viewBox="0 0 1147 1066" width="1147.9167px" zoomAndPan="magnify"><defs><filter height="300%" id="fns0lms0eu3wc" width="300%" x="-1" y="-1"><feGaussianBlur result="blurOut" stdDeviation="4.166666666666667"/><feColorMatrix in="blurOut" result="blurOut2" type="matrix" values="0 0 0 0 0 0 0 0 0 0 0 0 0 0 0 0 0 0 .4 0"/><feOffset dx="8.333333333333334" dy="8.333333333333334" in="blurOut2" result="blurOut3"/><feBlend in="SourceGraphic" in2="blurOut3" mode="normal"/></filter></defs><g><polygon fill="#90EE90" filter="url(#fns0lms0eu3wc)" points="90.625,83.5327,301.0417,83.5327,321.875,135.8114,301.0417,188.09,90.625,188.09" style="stroke:#A80036;stroke-width:3.125;"/><text fill="#000000" font-family="sans-serif" font-size="25" lengthAdjust="spacing" textLength="145.8333" x="117.7083" y="130.3182">Từ màn hình</text><text fill="#000000" font-family="sans-serif" font-size="25" font-weight="bold" lengthAdjust="spacing" textLength="162.5" x="111.4583" y="161.7635">Danh sách Xe</text><text fill="#000000" font-family="sans-serif" font-size="25" lengthAdjust="spacing" textLength="0" x="280.2083" y="161.7635"/><rect fill="#FEFECE" filter="url(#fns0lms0eu3wc)" height="136.0026" rx="26.0417" ry="26.0417" style="stroke:#A80036;stroke-width:3.125;" width="304.1667" x="43.75" y="229.7567"/><text fill="#000000" font-family="sans-serif" font-size="25" lengthAdjust="spacing" textLength="262.5" x="64.5833" y="276.5422">Chọn các Xe muốn xóa</text><text fill="#000000" font-family="sans-serif" font-size="25" lengthAdjust="spacing" textLength="56.25" x="64.5833" y="307.9875">ở cột</text><text fill="#000000" font-family="sans-serif" font-size="25" font-weight="bold" lengthAdjust="spacing" textLength="118.75" x="127.0833" y="307.9875">Checkbox</text><text fill="#000000" font-family="sans-serif" font-size="25" lengthAdjust="spacing" textLength="166.6667" x="64.5833" y="339.4328">phía cuối cùng</text><rect fill="#FEFECE" filter="url(#fns0lms0eu3wc)" height="104.5573" rx="26.0417" ry="26.0417" style="stroke:#A80036;stroke-width:3.125;" width="139.5833" x="126.0417" y="407.4259"/><text fill="#000000" font-family="sans-serif" font-size="25" lengthAdjust="spacing" textLength="97.9167" x="146.875" y="454.2114">Click nút</text><text fill="#000000" font-family="sans-serif" font-size="25" font-weight="bold" lengthAdjust="spacing" textLength="45.8333" x="146.875" y="485.6567">Xóa</text><line style="stroke:#000000;stroke-width:4.166666666666667;" x1="31.25" x2="31.25" y1="25.9481" y2="1032.9142"/><polygon fill="#FEFECE" filter="url(#fns0lms0eu3wc)" points="609.8958,553.6499,795.3125,553.6499,820.3125,582.4748,795.3125,611.2996,609.8958,611.2996,584.8958,582.4748,609.8958,553.6499" style="stroke:#A80036;stroke-width:3.125;"/><text fill="#000000" font-family="sans-serif" font-size="22.9167" lengthAdjust="spacing" textLength="131.25" x="609.8958" y="577.4394">Chưa Xe nào</text><text fill="#000000" font-family="sans-serif" font-size="22.9167" lengthAdjust="spacing" textLength="185.4167" x="609.8958" y="606.2642">được đặt chuyến?</text><text fill="#000000" font-family="sans-serif" font-size="22.9167" lengthAdjust="spacing" textLength="54.1667" x="530.7292" y="577.4394">Đúng</text><text fill="#000000" font-family="sans-serif" font-size="22.9167" lengthAdjust="spacing" textLength="31.25" x="820.3125" y="577.4394">Sai</text><rect fill="#FEFECE" filter="url(#fns0lms0eu3wc)" height="104.5573" rx="26.0417" ry="26.0417" style="stroke:#A80036;stroke-width:3.125;" width="164.5833" x="433.3333" y="632.133"/><text fill="#000000" font-family="sans-serif" font-size="25" lengthAdjust="spacing" textLength="120.8333" x="454.1667" y="678.9185">Xóa các xe</text><text fill="#000000" font-family="sans-serif" font-size="25" lengthAdjust="spacing" textLength="122.9167" x="454.1667" y="710.3638">được chọn</text><rect fill="#FEFECE" filter="url(#fns0lms0eu3wc)" height="104.5573" rx="26.0417" ry="26.0417" style="stroke:#A80036;stroke-width:3.125;" width="268.75" x="381.25" y="778.3569"/><text fill="#000000" font-family="sans-serif" font-size="25" lengthAdjust="spacing" textLength="152.0833" x="402.0833" y="825.1424">Hiện tin nhắn</text><text fill="#000000" font-family="sans-serif" font-size="25" font-weight="bold" lengthAdjust="spacing" textLength="227.0833" x="402.0833" y="856.5877">Đã xóa thành công!</text><rect fill="#FEFECE" filter="url(#fns0lms0eu3wc)" height="104.5573" rx="26.0417" ry="26.0417" style="stroke:#A80036;stroke-width:3.125;" width="395.8333" x="691.6667" y="632.133"/><text fill="#000000" font-family="sans-serif" font-size="25" lengthAdjust="spacing" textLength="185.4167" x="712.5" y="678.9185">Hiện tin nhắn lỗi</text><text fill="#000000" font-family="sans-serif" font-size="25" lengthAdjust="spacing" textLength="354.1667" x="712.5" y="710.3638">và danh sách chuyến tìm được!</text><polygon fill="#FEFECE" filter="url(#fns0lms0eu3wc)" points="702.6042,895.4142,727.6042,920.4142,702.6042,945.4142,677.6042,920.4142,702.6042,895.4142" style="stroke:#A80036;stroke-width:3.125;"/><ellipse cx="702.6042" cy="1009.9976" fill="#FFFFFF" filter="url(#fns0lms0eu3wc)" rx="22.9167" ry="22.9167" style="stroke:#000000;stroke-width:2.0833333333333335;"/><ellipse cx="702.6042" cy="1009.9976" fill="#000000" rx="12.5" ry="12.5" style="stroke:#7F7F7F;stroke-width:2.0833333333333335;"/><line style="stroke:#000000;stroke-width:4.166666666666667;" x1="368.75" x2="368.75" y1="25.9481" y2="1032.9142"/><line style="stroke:#000000;stroke-width:4.166666666666667;" x1="1108.3333" x2="1108.3333" y1="25.9481" y2="1032.9142"/><line style="stroke:#A80036;stroke-width:3.125;" x1="195.8333" x2="195.8333" y1="188.09" y2="229.7567"/><polygon fill="#A80036" points="187.5,208.9233,195.8333,229.7567,204.1667,208.9233,195.8333,217.2567" style="stroke:#A80036;stroke-width:2.0833333333333335;"/><line style="stroke:#A80036;stroke-width:3.125;" x1="195.8333" x2="195.8333" y1="365.7593" y2="407.4259"/><polygon fill="#A80036" points="187.5,386.5926,195.8333,407.4259,204.1667,386.5926,195.8333,394.9259" style="stroke:#A80036;stroke-width:2.0833333333333335;"/><line style="stroke:#A80036;stroke-width:3.125;" x1="515.625" x2="515.625" y1="736.6903" y2="778.3569"/><polygon fill="#A80036" points="507.2917,757.5236,515.625,778.3569,523.9583,757.5236,515.625,765.8569" style="stroke:#A80036;stroke-width:2.0833333333333335;"/><line style="stroke:#A80036;stroke-width:3.125;" x1="584.8958" x2="515.625" y1="582.4748" y2="582.4748"/><line style="stroke:#A80036;stroke-width:3.125;" x1="515.625" x2="515.625" y1="582.4748" y2="632.133"/><polygon fill="#A80036" points="507.2917,611.2996,515.625,632.133,523.9583,611.2996,515.625,619.633" style="stroke:#A80036;stroke-width:2.0833333333333335;"/><line style="stroke:#A80036;stroke-width:3.125;" x1="820.3125" x2="889.5833" y1="582.4748" y2="582.4748"/><line style="stroke:#A80036;stroke-width:3.125;" x1="889.5833" x2="889.5833" y1="582.4748" y2="632.133"/><polygon fill="#A80036" points="881.25,611.2996,889.5833,632.133,897.9167,611.2996,889.5833,619.633" style="stroke:#A80036;stroke-width:2.0833333333333335;"/><line style="stroke:#A80036;stroke-width:3.125;" x1="515.625" x2="515.625" y1="882.9142" y2="920.4142"/><line style="stroke:#A80036;stroke-width:3.125;" x1="515.625" x2="677.6042" y1="920.4142" y2="920.4142"/><polygon fill="#A80036" points="656.7708,912.0809,677.6042,920.4142,656.7708,928.7476,665.1042,920.4142" style="stroke:#A80036;stroke-width:2.0833333333333335;"/><line style="stroke:#A80036;stroke-width:3.125;" x1="889.5833" x2="889.5833" y1="736.6903" y2="920.4142"/><line style="stroke:#A80036;stroke-width:3.125;" x1="889.5833" x2="727.6042" y1="920.4142" y2="920.4142"/><polygon fill="#A80036" points="748.4375,912.0809,727.6042,920.4142,748.4375,928.7476,740.1042,920.4142" style="stroke:#A80036;stroke-width:2.0833333333333335;"/><line style="stroke:#A80036;stroke-width:3.125;" x1="702.6042" x2="702.6042" y1="945.4142" y2="987.0809"/><polygon fill="#A80036" points="694.2708,966.2476,702.6042,987.0809,710.9375,966.2476,702.6042,974.5809" style="stroke:#A80036;stroke-width:2.0833333333333335;"/><line style="stroke:#A80036;stroke-width:3.125;" x1="195.8333" x2="195.8333" y1="511.9832" y2="522.3999"/><line style="stroke:#A80036;stroke-width:3.125;" x1="195.8333" x2="702.6042" y1="522.3999" y2="522.3999"/><line style="stroke:#A80036;stroke-width:3.125;" x1="702.6042" x2="702.6042" y1="522.3999" y2="553.6499"/><polygon fill="#A80036" points="694.2708,532.8166,702.6042,553.6499,710.9375,532.8166,702.6042,541.1499" style="stroke:#A80036;stroke-width:2.0833333333333335;"/><text fill="#000000" font-family="sans-serif" font-size="37.5" lengthAdjust="spacing" textLength="281.25" x="64.5833" y="64.8763">Quản Trị Nhà Xe</text><text fill="#000000" font-family="sans-serif" font-size="37.5" lengthAdjust="spacing" textLength="152.0833" x="667.7083" y="64.8763">Hệ thống</text><!--MD5=[7a0c0dd5ef0debbdda9af8e1800f385a]
@startuml
skinparam dpi 200

|Buss Admin| Quản Trị Nhà Xe
	#lightgreen: Từ màn hình
	<b>Danh sách Xe</b> >

	:Chọn các Xe muốn xóa
	ở cột <b>Checkbox</b>
	phía cuối cùng;

	:Click nút
	<b>Xóa</b>;
|System| Hệ thống
	if (Chưa Xe nào\nđược đặt chuyến?) then (Đúng)

		:Xóa các xe
		được chọn;

		:Hiện tin nhắn
		<b>Đã xóa thành công!</b>;

	else (Sai)
		:Hiện tin nhắn lỗi
		và danh sách chuyến tìm được!;
	endif

	stop
@enduml

PlantUML version 1.2021.2(Sun Mar 07 18:10:27 ICT 2021)
(GPL source distribution)
Java Runtime: OpenJDK Runtime Environment
JVM: Eclipse OpenJ9 VM
Default Encoding: UTF-8
Language: en
Country: US
--></g></svg>