<?xml version="1.0" encoding="UTF-8" standalone="no"?><svg xmlns="http://www.w3.org/2000/svg" xmlns:xlink="http://www.w3.org/1999/xlink" contentScriptType="application/ecmascript" contentStyleType="text/css" height="1581.25px" preserveAspectRatio="none" style="width:1060px;height:1581px;" version="1.1" viewBox="0 0 1060 1581" width="1060.4167px" zoomAndPan="magnify"><defs><filter height="300%" id="f1tldtz32uastn" width="300%" x="-1" y="-1"><feGaussianBlur result="blurOut" stdDeviation="4.166666666666667"/><feColorMatrix in="blurOut" result="blurOut2" type="matrix" values="0 0 0 0 0 0 0 0 0 0 0 0 0 0 0 0 0 0 .4 0"/><feOffset dx="8.333333333333334" dy="8.333333333333334" in="blurOut2" result="blurOut3"/><feBlend in="SourceGraphic" in2="blurOut3" mode="normal"/></filter></defs><g><polygon fill="#90EE90" filter="url(#f1tldtz32uastn)" points="62.5,83.5327,470.8333,83.5327,491.6667,135.8114,470.8333,188.09,62.5,188.09" style="stroke:#A80036;stroke-width:3.125;"/><text fill="#000000" font-family="sans-serif" font-size="25" lengthAdjust="spacing" textLength="145.8333" x="83.3333" y="130.3182">Từ màn hình</text><text fill="#000000" font-family="sans-serif" font-size="25" font-weight="bold" lengthAdjust="spacing" textLength="360.4167" x="83.3333" y="161.7635">Danh sách Nhân Viên Tổng Đài</text><text fill="#000000" font-family="sans-serif" font-size="25" lengthAdjust="spacing" textLength="0" x="450" y="161.7635"/><rect fill="#FEFECE" filter="url(#f1tldtz32uastn)" height="167.4479" rx="26.0417" ry="26.0417" style="stroke:#A80036;stroke-width:3.125;" width="347.9167" x="92.7083" y="229.7567"/><text fill="#000000" font-family="sans-serif" font-size="25" lengthAdjust="spacing" textLength="143.75" x="113.5417" y="276.5422">Click vào tab</text><text fill="#000000" font-family="sans-serif" font-size="25" font-weight="bold" lengthAdjust="spacing" textLength="200" x="113.5417" y="307.9875">- Đang hoạt động</text><text fill="#000000" font-family="sans-serif" font-size="25" lengthAdjust="spacing" textLength="56.25" x="113.5417" y="339.4328">hoặc</text><text fill="#000000" font-family="sans-serif" font-size="25" font-weight="bold" lengthAdjust="spacing" textLength="141.6667" x="182.2917" y="339.4328">- Đang khóa</text><text fill="#000000" font-family="sans-serif" font-size="25" lengthAdjust="spacing" textLength="306.25" x="113.5417" y="370.8781">để tìm nhân viên muốn xóa</text><rect fill="#FEFECE" filter="url(#f1tldtz32uastn)" height="136.0026" rx="26.0417" ry="26.0417" style="stroke:#A80036;stroke-width:3.125;" width="393.75" x="69.7917" y="438.8713"/><text fill="#000000" font-family="sans-serif" font-size="25" lengthAdjust="spacing" textLength="352.0833" x="90.625" y="485.6567">Chọn các Nhân Viên muốn xóa</text><text fill="#000000" font-family="sans-serif" font-size="25" lengthAdjust="spacing" textLength="56.25" x="90.625" y="517.1021">ở cột</text><text fill="#000000" font-family="sans-serif" font-size="25" font-weight="bold" lengthAdjust="spacing" textLength="118.75" x="153.125" y="517.1021">Checkbox</text><text fill="#000000" font-family="sans-serif" font-size="25" lengthAdjust="spacing" textLength="166.6667" x="90.625" y="548.5474">phía cuối cùng</text><rect fill="#FEFECE" filter="url(#f1tldtz32uastn)" height="104.5573" rx="26.0417" ry="26.0417" style="stroke:#A80036;stroke-width:3.125;" width="139.5833" x="196.875" y="616.5405"/><text fill="#000000" font-family="sans-serif" font-size="25" lengthAdjust="spacing" textLength="97.9167" x="217.7083" y="663.326">Click nút</text><text fill="#000000" font-family="sans-serif" font-size="25" font-weight="bold" lengthAdjust="spacing" textLength="45.8333" x="217.7083" y="694.7713">Xóa</text><polygon fill="#FEFECE" filter="url(#f1tldtz32uastn)" points="187.5,940.4338,345.8333,940.4338,370.8333,965.4338,345.8333,990.4338,187.5,990.4338,162.5,965.4338,187.5,940.4338" style="stroke:#A80036;stroke-width:3.125;"/><text fill="#000000" font-family="sans-serif" font-size="22.9167" lengthAdjust="spacing" textLength="158.3333" x="187.5" y="974.8108">Click hoặc chọn</text><text fill="#000000" font-family="sans-serif" font-size="22.9167" lengthAdjust="spacing" textLength="52.0833" x="110.4167" y="960.3984">Khác</text><text fill="#000000" font-family="sans-serif" font-size="22.9167" lengthAdjust="spacing" textLength="31.25" x="370.8333" y="960.3984">nút</text><text fill="#000000" font-family="sans-serif" font-size="22.9167" font-weight="bold" lengthAdjust="spacing" textLength="79.1667" x="408.3333" y="960.3984">Đồng ý</text><line style="stroke:#000000;stroke-width:4.166666666666667;" x1="31.25" x2="31.25" y1="25.9481" y2="1547.8556"/><rect fill="#FEFECE" filter="url(#f1tldtz32uastn)" height="136.0026" rx="26.0417" ry="26.0417" style="stroke:#A80036;stroke-width:3.125;" width="387.5" x="550.5208" y="762.7645"/><text fill="#000000" font-family="sans-serif" font-size="25" lengthAdjust="spacing" textLength="222.9167" x="571.3542" y="809.55">Hiện yes/no pop-up</text><text fill="#000000" font-family="sans-serif" font-size="25" font-weight="bold" lengthAdjust="spacing" textLength="297.9167" x="571.3542" y="840.9953">Bạn chắc chắn muốn xóa</text><text fill="#000000" font-family="sans-serif" font-size="25" font-weight="bold" lengthAdjust="spacing" textLength="345.8333" x="571.3542" y="872.4406">Nhân Viên Tổng Đài này chứ?</text><rect fill="#FEFECE" filter="url(#f1tldtz32uastn)" height="73.112" rx="26.0417" ry="26.0417" style="stroke:#A80036;stroke-width:3.125;" width="164.5833" x="535.4167" y="1032.1004"/><text fill="#000000" font-family="sans-serif" font-size="25" lengthAdjust="spacing" textLength="122.9167" x="556.25" y="1078.8859">Tắt pop-up</text><ellipse cx="617.7083" cy="1198.9624" fill="#FFFFFF" filter="url(#f1tldtz32uastn)" rx="20.8333" ry="20.8333" style="stroke:#000000;stroke-width:3.125;"/><line style="stroke:#000000;stroke-width:5.208333333333334;" x1="604.8184" x2="630.5983" y1="1186.0724" y2="1211.8524"/><line style="stroke:#000000;stroke-width:5.208333333333334;" x1="630.5983" x2="604.8184" y1="1186.0724" y2="1211.8524"/><rect fill="#FEFECE" filter="url(#f1tldtz32uastn)" height="104.5573" rx="26.0417" ry="26.0417" style="stroke:#A80036;stroke-width:3.125;" width="256.25" x="742.7083" y="1032.1004"/><text fill="#000000" font-family="sans-serif" font-size="25" lengthAdjust="spacing" textLength="214.5833" x="763.5417" y="1078.8859">Xóa các Nhân Viên</text><text fill="#000000" font-family="sans-serif" font-size="25" lengthAdjust="spacing" textLength="122.9167" x="763.5417" y="1110.3312">được chọn</text><rect fill="#FEFECE" filter="url(#f1tldtz32uastn)" height="104.5573" rx="26.0417" ry="26.0417" style="stroke:#A80036;stroke-width:3.125;" width="258.3333" x="741.6667" y="1209.5744"/><text fill="#000000" font-family="sans-serif" font-size="25" lengthAdjust="spacing" textLength="137.5" x="762.5" y="1256.3599">Cập nhật lại</text><text fill="#000000" font-family="sans-serif" font-size="25" font-weight="bold" lengthAdjust="spacing" textLength="216.6667" x="762.5" y="1287.8052">Danh sách hiển thị</text><rect fill="#FEFECE" filter="url(#f1tldtz32uastn)" height="104.5573" rx="26.0417" ry="26.0417" style="stroke:#A80036;stroke-width:3.125;" width="402.0833" x="543.2292" y="1355.7983"/><text fill="#000000" font-family="sans-serif" font-size="25" lengthAdjust="spacing" textLength="237.5" x="564.0625" y="1402.5838">Chuyển tới màn hình</text><text fill="#000000" font-family="sans-serif" font-size="25" font-weight="bold" lengthAdjust="spacing" textLength="360.4167" x="564.0625" y="1434.0291">Danh sách Nhân Viên Tổng Đài</text><ellipse cx="744.2708" cy="1524.939" fill="#FFFFFF" filter="url(#f1tldtz32uastn)" rx="22.9167" ry="22.9167" style="stroke:#000000;stroke-width:2.0833333333333335;"/><ellipse cx="744.2708" cy="1524.939" fill="#000000" rx="12.5" ry="12.5" style="stroke:#7F7F7F;stroke-width:2.0833333333333335;"/><line style="stroke:#000000;stroke-width:4.166666666666667;" x1="522.9167" x2="522.9167" y1="25.9481" y2="1547.8556"/><line style="stroke:#000000;stroke-width:4.166666666666667;" x1="1020.8333" x2="1020.8333" y1="25.9481" y2="1547.8556"/><line style="stroke:#A80036;stroke-width:3.125;" x1="266.6667" x2="266.6667" y1="188.09" y2="229.7567"/><polygon fill="#A80036" points="258.3333,208.9233,266.6667,229.7567,275,208.9233,266.6667,217.2567" style="stroke:#A80036;stroke-width:2.0833333333333335;"/><line style="stroke:#A80036;stroke-width:3.125;" x1="266.6667" x2="266.6667" y1="397.2046" y2="438.8713"/><polygon fill="#A80036" points="258.3333,418.0379,266.6667,438.8713,275,418.0379,266.6667,426.3713" style="stroke:#A80036;stroke-width:2.0833333333333335;"/><line style="stroke:#A80036;stroke-width:3.125;" x1="266.6667" x2="266.6667" y1="574.8739" y2="616.5405"/><polygon fill="#A80036" points="258.3333,595.7072,266.6667,616.5405,275,595.7072,266.6667,604.0405" style="stroke:#A80036;stroke-width:2.0833333333333335;"/><line style="stroke:#A80036;stroke-width:3.125;" x1="617.7083" x2="617.7083" y1="1105.2124" y2="1178.1291"/><polygon fill="#A80036" points="609.375,1157.2957,617.7083,1178.1291,626.0417,1157.2957,617.7083,1165.6291" style="stroke:#A80036;stroke-width:2.0833333333333335;"/><line style="stroke:#A80036;stroke-width:3.125;" x1="870.8333" x2="870.8333" y1="1136.6577" y2="1209.5744"/><polygon fill="#A80036" points="862.5,1188.741,870.8333,1209.5744,879.1667,1188.741,870.8333,1197.0744" style="stroke:#A80036;stroke-width:2.0833333333333335;"/><line style="stroke:#A80036;stroke-width:3.125;" x1="744.2708" x2="744.2708" y1="1460.3556" y2="1502.0223"/><polygon fill="#A80036" points="735.9375,1481.189,744.2708,1502.0223,752.6042,1481.189,744.2708,1489.5223" style="stroke:#A80036;stroke-width:2.0833333333333335;"/><line style="stroke:#A80036;stroke-width:3.125;" x1="266.6667" x2="266.6667" y1="721.0978" y2="731.5145"/><line style="stroke:#A80036;stroke-width:3.125;" x1="266.6667" x2="744.2708" y1="731.5145" y2="731.5145"/><line style="stroke:#A80036;stroke-width:3.125;" x1="744.2708" x2="744.2708" y1="731.5145" y2="762.7645"/><polygon fill="#A80036" points="735.9375,741.9312,744.2708,762.7645,752.6042,741.9312,744.2708,750.2645" style="stroke:#A80036;stroke-width:2.0833333333333335;"/><line style="stroke:#A80036;stroke-width:3.125;" x1="162.5" x2="137.5" y1="965.4338" y2="965.4338"/><line style="stroke:#A80036;stroke-width:3.125;" x1="137.5" x2="137.5" y1="965.4338" y2="1002.9338"/><line style="stroke:#A80036;stroke-width:3.125;" x1="137.5" x2="617.7083" y1="1002.9338" y2="1002.9338"/><line style="stroke:#A80036;stroke-width:3.125;" x1="617.7083" x2="617.7083" y1="1002.9338" y2="1032.1004"/><polygon fill="#A80036" points="609.375,1011.2671,617.7083,1032.1004,626.0417,1011.2671,617.7083,1019.6004" style="stroke:#A80036;stroke-width:2.0833333333333335;"/><line style="stroke:#A80036;stroke-width:3.125;" x1="370.8333" x2="870.8333" y1="965.4338" y2="965.4338"/><line style="stroke:#A80036;stroke-width:3.125;" x1="870.8333" x2="870.8333" y1="965.4338" y2="1032.1004"/><polygon fill="#A80036" points="862.5,1011.2671,870.8333,1032.1004,879.1667,1011.2671,870.8333,1019.6004" style="stroke:#A80036;stroke-width:2.0833333333333335;"/><line style="stroke:#A80036;stroke-width:3.125;" x1="870.8333" x2="870.8333" y1="1314.1317" y2="1324.5483"/><line style="stroke:#A80036;stroke-width:3.125;" x1="870.8333" x2="744.2708" y1="1324.5483" y2="1324.5483"/><line style="stroke:#A80036;stroke-width:3.125;" x1="744.2708" x2="744.2708" y1="1324.5483" y2="1355.7983"/><polygon fill="#A80036" points="735.9375,1334.965,744.2708,1355.7983,752.6042,1334.965,744.2708,1343.2983" style="stroke:#A80036;stroke-width:2.0833333333333335;"/><line style="stroke:#A80036;stroke-width:3.125;" x1="744.2708" x2="744.2708" y1="898.7671" y2="909.1838"/><line style="stroke:#A80036;stroke-width:3.125;" x1="744.2708" x2="266.6667" y1="909.1838" y2="909.1838"/><line style="stroke:#A80036;stroke-width:3.125;" x1="266.6667" x2="266.6667" y1="909.1838" y2="940.4338"/><polygon fill="#A80036" points="258.3333,919.6004,266.6667,940.4338,275,919.6004,266.6667,927.9338" style="stroke:#A80036;stroke-width:2.0833333333333335;"/><text fill="#000000" font-family="sans-serif" font-size="37.5" lengthAdjust="spacing" textLength="281.25" x="141.6667" y="64.8763">Quản Trị Nhà Xe</text><text fill="#000000" font-family="sans-serif" font-size="37.5" lengthAdjust="spacing" textLength="152.0833" x="701.0417" y="64.8763">Hệ thống</text><!--MD5=[afb52d8bb9823cc5ea2bc9812eb9cd52]
@startuml
skinparam dpi 200

|Buss Admin| Quản Trị Nhà Xe
	#lightgreen:Từ màn hình
	<b>Danh sách Nhân Viên Tổng Đài</b> >

	:Click vào tab
	<b>- Đang hoạt động</b>
	hoặc <b> - Đang khóa</b>
	để tìm nhân viên muốn xóa;

	:Chọn các Nhân Viên muốn xóa
	ở cột <b>Checkbox</b>
	phía cuối cùng;

	:Click nút
	<b>Xóa</b>;

|System| Hệ thống
	:Hiện yes/no pop-up
	<b>Bạn chắc chắn muốn xóa</b>
	<b>Nhân Viên Tổng Đài này chứ?</b>;


|Buss Admin|
	if (Click hoặc chọn) is (Khác) then
		|System|
		:Tắt pop-up;
		end
	else (nút <b>Đồng ý</b>)
		|System|
			:Xóa các Nhân Viên
			được chọn;

			:Cập nhật lại
			<b>Danh sách hiển thị</b>;
	endif

	:Chuyển tới màn hình
	<b>Danh sách Nhân Viên Tổng Đài</b>;

	stop
@enduml

PlantUML version 1.2021.2(Sun Mar 07 18:10:27 ICT 2021)
(GPL source distribution)
Java Runtime: OpenJDK Runtime Environment
JVM: Eclipse OpenJ9 VM
Default Encoding: UTF-8
Language: en
Country: US
--></g></svg>