<?xml version="1.0" encoding="UTF-8" standalone="no"?><svg xmlns="http://www.w3.org/2000/svg" xmlns:xlink="http://www.w3.org/1999/xlink" contentScriptType="application/ecmascript" contentStyleType="text/css" height="1372.9167px" preserveAspectRatio="none" style="width:1143px;height:1372px;" version="1.1" viewBox="0 0 1143 1372" width="1143.75px" zoomAndPan="magnify"><defs><filter height="300%" id="fod68j10y91nt" width="300%" x="-1" y="-1"><feGaussianBlur result="blurOut" stdDeviation="4.166666666666667"/><feColorMatrix in="blurOut" result="blurOut2" type="matrix" values="0 0 0 0 0 0 0 0 0 0 0 0 0 0 0 0 0 0 .4 0"/><feOffset dx="8.333333333333334" dy="8.333333333333334" in="blurOut2" result="blurOut3"/><feBlend in="SourceGraphic" in2="blurOut3" mode="normal"/></filter></defs><g><polygon fill="#90EE90" filter="url(#fod68j10y91nt)" points="91.6667,83.5327,404.1667,83.5327,425,135.8114,404.1667,188.09,91.6667,188.09" style="stroke:#A80036;stroke-width:3.125;"/><text fill="#000000" font-family="sans-serif" font-size="25" lengthAdjust="spacing" textLength="145.8333" x="112.5" y="130.3182">Từ màn hình</text><text fill="#000000" font-family="sans-serif" font-size="25" font-weight="bold" lengthAdjust="spacing" textLength="264.5833" x="112.5" y="161.7635">Danh sách Điểm Dừng</text><text fill="#000000" font-family="sans-serif" font-size="25" lengthAdjust="spacing" textLength="0" x="383.3333" y="161.7635"/><rect fill="#FEFECE" filter="url(#fod68j10y91nt)" height="136.0026" rx="26.0417" ry="26.0417" style="stroke:#A80036;stroke-width:3.125;" width="408.3333" x="43.75" y="229.7567"/><text fill="#000000" font-family="sans-serif" font-size="25" lengthAdjust="spacing" textLength="366.6667" x="64.5833" y="276.5422">Chọn các Điểm Dừng muốn xóa</text><text fill="#000000" font-family="sans-serif" font-size="25" lengthAdjust="spacing" textLength="56.25" x="64.5833" y="307.9875">ở cột</text><text fill="#000000" font-family="sans-serif" font-size="25" font-weight="bold" lengthAdjust="spacing" textLength="118.75" x="127.0833" y="307.9875">Checkbox</text><text fill="#000000" font-family="sans-serif" font-size="25" lengthAdjust="spacing" textLength="166.6667" x="64.5833" y="339.4328">phía cuối cùng</text><rect fill="#FEFECE" filter="url(#fod68j10y91nt)" height="104.5573" rx="26.0417" ry="26.0417" style="stroke:#A80036;stroke-width:3.125;" width="139.5833" x="178.125" y="407.4259"/><text fill="#000000" font-family="sans-serif" font-size="25" lengthAdjust="spacing" textLength="97.9167" x="198.9583" y="454.2114">Click nút</text><text fill="#000000" font-family="sans-serif" font-size="25" font-weight="bold" lengthAdjust="spacing" textLength="45.8333" x="198.9583" y="485.6567">Xóa</text><polygon fill="#FEFECE" filter="url(#fod68j10y91nt)" points="168.75,731.3192,327.0833,731.3192,352.0833,756.3192,327.0833,781.3192,168.75,781.3192,143.75,756.3192,168.75,731.3192" style="stroke:#A80036;stroke-width:3.125;"/><text fill="#000000" font-family="sans-serif" font-size="22.9167" lengthAdjust="spacing" textLength="158.3333" x="168.75" y="765.6962">Click hoặc chọn</text><text fill="#000000" font-family="sans-serif" font-size="22.9167" lengthAdjust="spacing" textLength="52.0833" x="91.6667" y="751.2838">Khác</text><text fill="#000000" font-family="sans-serif" font-size="22.9167" lengthAdjust="spacing" textLength="31.25" x="352.0833" y="751.2838">nút</text><text fill="#000000" font-family="sans-serif" font-size="22.9167" font-weight="bold" lengthAdjust="spacing" textLength="79.1667" x="389.5833" y="751.2838">Đồng ý</text><line style="stroke:#000000;stroke-width:4.166666666666667;" x1="31.25" x2="31.25" y1="25.9481" y2="1338.741"/><rect fill="#FEFECE" filter="url(#fod68j10y91nt)" height="136.0026" rx="26.0417" ry="26.0417" style="stroke:#A80036;stroke-width:3.125;" width="572.9167" x="491.6667" y="553.6499"/><text fill="#000000" font-family="sans-serif" font-size="25" lengthAdjust="spacing" textLength="222.9167" x="512.5" y="600.4354">Hiện yes/no pop-up</text><text fill="#000000" font-family="sans-serif" font-size="25" font-weight="bold" lengthAdjust="spacing" textLength="525" x="512.5" y="631.8807">Điểm dừng này sẽ bị xóa khỏi mọi chuyến xe</text><text fill="#000000" font-family="sans-serif" font-size="25" lengthAdjust="spacing" textLength="6.25" x="1037.5" y="631.8807">,</text><text fill="#000000" font-family="sans-serif" font-size="25" font-weight="bold" lengthAdjust="spacing" textLength="300" x="512.5" y="663.326">Bạn vẫn muốn xhóa chứ?</text><rect fill="#FEFECE" filter="url(#fod68j10y91nt)" height="73.112" rx="26.0417" ry="26.0417" style="stroke:#A80036;stroke-width:3.125;" width="164.5833" x="553.125" y="822.9858"/><text fill="#000000" font-family="sans-serif" font-size="25" lengthAdjust="spacing" textLength="122.9167" x="573.9583" y="869.7713">Tắt pop-up</text><ellipse cx="635.4167" cy="989.8478" fill="#FFFFFF" filter="url(#fod68j10y91nt)" rx="20.8333" ry="20.8333" style="stroke:#000000;stroke-width:3.125;"/><line style="stroke:#000000;stroke-width:5.208333333333334;" x1="622.5267" x2="648.3066" y1="976.9579" y2="1002.7378"/><line style="stroke:#000000;stroke-width:5.208333333333334;" x1="648.3066" x2="622.5267" y1="976.9579" y2="1002.7378"/><rect fill="#FEFECE" filter="url(#fod68j10y91nt)" height="104.5573" rx="26.0417" ry="26.0417" style="stroke:#A80036;stroke-width:3.125;" width="322.9167" x="759.375" y="822.9858"/><text fill="#000000" font-family="sans-serif" font-size="25" lengthAdjust="spacing" textLength="220.8333" x="780.2083" y="869.7713">Gỡ các Điểm Dừng</text><text fill="#000000" font-family="sans-serif" font-size="25" lengthAdjust="spacing" textLength="281.25" x="780.2083" y="901.2166">khỏi các chuyến (nếu có)</text><rect fill="#FEFECE" filter="url(#fod68j10y91nt)" height="104.5573" rx="26.0417" ry="26.0417" style="stroke:#A80036;stroke-width:3.125;" width="270.8333" x="785.4167" y="1000.4598"/><text fill="#000000" font-family="sans-serif" font-size="25" lengthAdjust="spacing" textLength="229.1667" x="806.25" y="1047.2453">Xóa các Điểm Dừng</text><text fill="#000000" font-family="sans-serif" font-size="25" lengthAdjust="spacing" textLength="154.1667" x="806.25" y="1078.6906">khỏi hệ thống</text><rect fill="#FEFECE" filter="url(#fod68j10y91nt)" height="104.5573" rx="26.0417" ry="26.0417" style="stroke:#A80036;stroke-width:3.125;" width="306.25" x="625" y="1146.6838"/><text fill="#000000" font-family="sans-serif" font-size="25" lengthAdjust="spacing" textLength="137.5" x="645.8333" y="1193.4692">Cập nhật lại</text><text fill="#000000" font-family="sans-serif" font-size="25" font-weight="bold" lengthAdjust="spacing" textLength="264.5833" x="645.8333" y="1224.9146">Danh sách Điểm Dừng</text><ellipse cx="778.125" cy="1315.8244" fill="#FFFFFF" filter="url(#fod68j10y91nt)" rx="22.9167" ry="22.9167" style="stroke:#000000;stroke-width:2.0833333333333335;"/><ellipse cx="778.125" cy="1315.8244" fill="#000000" rx="12.5" ry="12.5" style="stroke:#7F7F7F;stroke-width:2.0833333333333335;"/><line style="stroke:#000000;stroke-width:4.166666666666667;" x1="479.1667" x2="479.1667" y1="25.9481" y2="1338.741"/><line style="stroke:#000000;stroke-width:4.166666666666667;" x1="1103.125" x2="1103.125" y1="25.9481" y2="1338.741"/><line style="stroke:#A80036;stroke-width:3.125;" x1="247.9167" x2="247.9167" y1="188.09" y2="229.7567"/><polygon fill="#A80036" points="239.5833,208.9233,247.9167,229.7567,256.25,208.9233,247.9167,217.2567" style="stroke:#A80036;stroke-width:2.0833333333333335;"/><line style="stroke:#A80036;stroke-width:3.125;" x1="247.9167" x2="247.9167" y1="365.7593" y2="407.4259"/><polygon fill="#A80036" points="239.5833,386.5926,247.9167,407.4259,256.25,386.5926,247.9167,394.9259" style="stroke:#A80036;stroke-width:2.0833333333333335;"/><line style="stroke:#A80036;stroke-width:3.125;" x1="635.4167" x2="635.4167" y1="896.0978" y2="969.0145"/><polygon fill="#A80036" points="627.0833,948.1812,635.4167,969.0145,643.75,948.1812,635.4167,956.5145" style="stroke:#A80036;stroke-width:2.0833333333333335;"/><line style="stroke:#A80036;stroke-width:3.125;" x1="920.8333" x2="920.8333" y1="927.5431" y2="1000.4598"/><polygon fill="#A80036" points="912.5,979.6265,920.8333,1000.4598,929.1667,979.6265,920.8333,987.9598" style="stroke:#A80036;stroke-width:2.0833333333333335;"/><line style="stroke:#A80036;stroke-width:3.125;" x1="778.125" x2="778.125" y1="1251.241" y2="1292.9077"/><polygon fill="#A80036" points="769.7917,1272.0744,778.125,1292.9077,786.4583,1272.0744,778.125,1280.4077" style="stroke:#A80036;stroke-width:2.0833333333333335;"/><line style="stroke:#A80036;stroke-width:3.125;" x1="247.9167" x2="247.9167" y1="511.9832" y2="522.3999"/><line style="stroke:#A80036;stroke-width:3.125;" x1="247.9167" x2="778.125" y1="522.3999" y2="522.3999"/><line style="stroke:#A80036;stroke-width:3.125;" x1="778.125" x2="778.125" y1="522.3999" y2="553.6499"/><polygon fill="#A80036" points="769.7917,532.8166,778.125,553.6499,786.4583,532.8166,778.125,541.1499" style="stroke:#A80036;stroke-width:2.0833333333333335;"/><line style="stroke:#A80036;stroke-width:3.125;" x1="143.75" x2="118.75" y1="756.3192" y2="756.3192"/><line style="stroke:#A80036;stroke-width:3.125;" x1="118.75" x2="118.75" y1="756.3192" y2="793.8192"/><line style="stroke:#A80036;stroke-width:3.125;" x1="118.75" x2="635.4167" y1="793.8192" y2="793.8192"/><line style="stroke:#A80036;stroke-width:3.125;" x1="635.4167" x2="635.4167" y1="793.8192" y2="822.9858"/><polygon fill="#A80036" points="627.0833,802.1525,635.4167,822.9858,643.75,802.1525,635.4167,810.4858" style="stroke:#A80036;stroke-width:2.0833333333333335;"/><line style="stroke:#A80036;stroke-width:3.125;" x1="352.0833" x2="920.8333" y1="756.3192" y2="756.3192"/><line style="stroke:#A80036;stroke-width:3.125;" x1="920.8333" x2="920.8333" y1="756.3192" y2="822.9858"/><polygon fill="#A80036" points="912.5,802.1525,920.8333,822.9858,929.1667,802.1525,920.8333,810.4858" style="stroke:#A80036;stroke-width:2.0833333333333335;"/><line style="stroke:#A80036;stroke-width:3.125;" x1="920.8333" x2="920.8333" y1="1105.0171" y2="1115.4338"/><line style="stroke:#A80036;stroke-width:3.125;" x1="920.8333" x2="778.125" y1="1115.4338" y2="1115.4338"/><line style="stroke:#A80036;stroke-width:3.125;" x1="778.125" x2="778.125" y1="1115.4338" y2="1146.6838"/><polygon fill="#A80036" points="769.7917,1125.8504,778.125,1146.6838,786.4583,1125.8504,778.125,1134.1838" style="stroke:#A80036;stroke-width:2.0833333333333335;"/><line style="stroke:#A80036;stroke-width:3.125;" x1="778.125" x2="778.125" y1="689.6525" y2="700.0692"/><line style="stroke:#A80036;stroke-width:3.125;" x1="778.125" x2="247.9167" y1="700.0692" y2="700.0692"/><line style="stroke:#A80036;stroke-width:3.125;" x1="247.9167" x2="247.9167" y1="700.0692" y2="731.3192"/><polygon fill="#A80036" points="239.5833,710.4858,247.9167,731.3192,256.25,710.4858,247.9167,718.8192" style="stroke:#A80036;stroke-width:2.0833333333333335;"/><text fill="#000000" font-family="sans-serif" font-size="37.5" lengthAdjust="spacing" textLength="281.25" x="119.7917" y="64.8763">Quản Trị Nhà Xe</text><text fill="#000000" font-family="sans-serif" font-size="37.5" lengthAdjust="spacing" textLength="152.0833" x="720.3125" y="64.8763">Hệ thống</text><!--MD5=[a58bab4621ea1b01970b88e51feb476d]
@startuml
skinparam dpi 200

|Buss Admin| Quản Trị Nhà Xe

	#lightgreen:Từ màn hình
	<b>Danh sách Điểm Dừng</b> >

	:Chọn các Điểm Dừng muốn xóa
	ở cột <b>Checkbox</b>
	phía cuối cùng;

	:Click nút
	<b>Xóa</b>;

|System| Hệ thống

	:Hiện yes/no pop-up
	<b>Điểm dừng này sẽ bị xóa khỏi mọi chuyến xe</b>,
	<b>Bạn vẫn muốn xhóa chứ?</b>;


|Buss Admin|
	if (Click hoặc chọn) is (Khác) then
		|System|
		:Tắt pop-up;
		end
	else (nút <b>Đồng ý</b>)
		|System|
			:Gỡ các Điểm Dừng
			khỏi các chuyến (nếu có);

			:Xóa các Điểm Dừng
			khỏi hệ thống;
	endif

	:Cập nhật lại
	<b>Danh sách Điểm Dừng</b>;

	stop
@enduml

PlantUML version 1.2021.2(Sun Mar 07 18:10:27 ICT 2021)
(GPL source distribution)
Java Runtime: OpenJDK Runtime Environment
JVM: Eclipse OpenJ9 VM
Default Encoding: UTF-8
Language: en
Country: US
--></g></svg>