<?xml version="1.0" encoding="UTF-8" standalone="no"?><svg xmlns="http://www.w3.org/2000/svg" xmlns:xlink="http://www.w3.org/1999/xlink" contentScriptType="application/ecmascript" contentStyleType="text/css" height="1581.25px" preserveAspectRatio="none" style="width:1010px;height:1581px;" version="1.1" viewBox="0 0 1010 1581" width="1010.4167px" zoomAndPan="magnify"><defs><filter height="300%" id="fzje2didc0fyf" width="300%" x="-1" y="-1"><feGaussianBlur result="blurOut" stdDeviation="4.166666666666667"/><feColorMatrix in="blurOut" result="blurOut2" type="matrix" values="0 0 0 0 0 0 0 0 0 0 0 0 0 0 0 0 0 0 .4 0"/><feOffset dx="8.333333333333334" dy="8.333333333333334" in="blurOut2" result="blurOut3"/><feBlend in="SourceGraphic" in2="blurOut3" mode="normal"/></filter></defs><g><polygon fill="#90EE90" filter="url(#fzje2didc0fyf)" points="72.9167,83.5327,408.3333,83.5327,429.1667,135.8114,408.3333,188.09,72.9167,188.09" style="stroke:#A80036;stroke-width:3.125;"/><text fill="#000000" font-family="sans-serif" font-size="25" lengthAdjust="spacing" textLength="145.8333" x="93.75" y="130.3182">Từ màn hình</text><text fill="#000000" font-family="sans-serif" font-size="25" font-weight="bold" lengthAdjust="spacing" textLength="287.5" x="93.75" y="161.7635">Danh sách Nhân Viên Xe</text><text fill="#000000" font-family="sans-serif" font-size="25" lengthAdjust="spacing" textLength="0" x="387.5" y="161.7635"/><rect fill="#FEFECE" filter="url(#fzje2didc0fyf)" height="167.4479" rx="26.0417" ry="26.0417" style="stroke:#A80036;stroke-width:3.125;" width="347.9167" x="66.6667" y="229.7567"/><text fill="#000000" font-family="sans-serif" font-size="25" lengthAdjust="spacing" textLength="143.75" x="87.5" y="276.5422">Click vào tab</text><text fill="#000000" font-family="sans-serif" font-size="25" font-weight="bold" lengthAdjust="spacing" textLength="200" x="87.5" y="307.9875">- Đang hoạt động</text><text fill="#000000" font-family="sans-serif" font-size="25" lengthAdjust="spacing" textLength="56.25" x="87.5" y="339.4328">hoặc</text><text fill="#000000" font-family="sans-serif" font-size="25" font-weight="bold" lengthAdjust="spacing" textLength="141.6667" x="156.25" y="339.4328">- Đang khóa</text><text fill="#000000" font-family="sans-serif" font-size="25" lengthAdjust="spacing" textLength="306.25" x="87.5" y="370.8781">để tìm nhân viên muốn xóa</text><rect fill="#FEFECE" filter="url(#fzje2didc0fyf)" height="136.0026" rx="26.0417" ry="26.0417" style="stroke:#A80036;stroke-width:3.125;" width="393.75" x="43.75" y="438.8713"/><text fill="#000000" font-family="sans-serif" font-size="25" lengthAdjust="spacing" textLength="352.0833" x="64.5833" y="485.6567">Chọn các Nhân Viên muốn xóa</text><text fill="#000000" font-family="sans-serif" font-size="25" lengthAdjust="spacing" textLength="56.25" x="64.5833" y="517.1021">ở cột</text><text fill="#000000" font-family="sans-serif" font-size="25" font-weight="bold" lengthAdjust="spacing" textLength="118.75" x="127.0833" y="517.1021">Checkbox</text><text fill="#000000" font-family="sans-serif" font-size="25" lengthAdjust="spacing" textLength="166.6667" x="64.5833" y="548.5474">phía cuối cùng</text><rect fill="#FEFECE" filter="url(#fzje2didc0fyf)" height="104.5573" rx="26.0417" ry="26.0417" style="stroke:#A80036;stroke-width:3.125;" width="139.5833" x="170.8333" y="616.5405"/><text fill="#000000" font-family="sans-serif" font-size="25" lengthAdjust="spacing" textLength="97.9167" x="191.6667" y="663.326">Click nút</text><text fill="#000000" font-family="sans-serif" font-size="25" font-weight="bold" lengthAdjust="spacing" textLength="45.8333" x="191.6667" y="694.7713">Xóa</text><polygon fill="#FEFECE" filter="url(#fzje2didc0fyf)" points="161.4583,940.4338,319.7917,940.4338,344.7917,965.4338,319.7917,990.4338,161.4583,990.4338,136.4583,965.4338,161.4583,940.4338" style="stroke:#A80036;stroke-width:3.125;"/><text fill="#000000" font-family="sans-serif" font-size="22.9167" lengthAdjust="spacing" textLength="158.3333" x="161.4583" y="974.8108">Click hoặc chọn</text><text fill="#000000" font-family="sans-serif" font-size="22.9167" lengthAdjust="spacing" textLength="52.0833" x="84.375" y="960.3984">Khác</text><text fill="#000000" font-family="sans-serif" font-size="22.9167" lengthAdjust="spacing" textLength="31.25" x="344.7917" y="960.3984">nút</text><text fill="#000000" font-family="sans-serif" font-size="22.9167" font-weight="bold" lengthAdjust="spacing" textLength="79.1667" x="382.2917" y="960.3984">Đồng ý</text><line style="stroke:#000000;stroke-width:4.166666666666667;" x1="31.25" x2="31.25" y1="25.9481" y2="1547.8556"/><rect fill="#FEFECE" filter="url(#fzje2didc0fyf)" height="136.0026" rx="26.0417" ry="26.0417" style="stroke:#A80036;stroke-width:3.125;" width="339.5833" x="523.4375" y="762.7645"/><text fill="#000000" font-family="sans-serif" font-size="25" lengthAdjust="spacing" textLength="222.9167" x="544.2708" y="809.55">Hiện yes/no pop-up</text><text fill="#000000" font-family="sans-serif" font-size="25" font-weight="bold" lengthAdjust="spacing" textLength="297.9167" x="544.2708" y="840.9953">Bạn chắc chắn muốn xóa</text><text fill="#000000" font-family="sans-serif" font-size="25" font-weight="bold" lengthAdjust="spacing" textLength="272.9167" x="544.2708" y="872.4406">Nhân Viên Xe này chứ?</text><rect fill="#FEFECE" filter="url(#fzje2didc0fyf)" height="73.112" rx="26.0417" ry="26.0417" style="stroke:#A80036;stroke-width:3.125;" width="164.5833" x="484.375" y="1032.1004"/><text fill="#000000" font-family="sans-serif" font-size="25" lengthAdjust="spacing" textLength="122.9167" x="505.2083" y="1078.8859">Tắt pop-up</text><ellipse cx="566.6667" cy="1198.9624" fill="#FFFFFF" filter="url(#fzje2didc0fyf)" rx="20.8333" ry="20.8333" style="stroke:#000000;stroke-width:3.125;"/><line style="stroke:#000000;stroke-width:5.208333333333334;" x1="553.7767" x2="579.5566" y1="1186.0724" y2="1211.8524"/><line style="stroke:#000000;stroke-width:5.208333333333334;" x1="579.5566" x2="553.7767" y1="1186.0724" y2="1211.8524"/><rect fill="#FEFECE" filter="url(#fzje2didc0fyf)" height="104.5573" rx="26.0417" ry="26.0417" style="stroke:#A80036;stroke-width:3.125;" width="256.25" x="691.6667" y="1032.1004"/><text fill="#000000" font-family="sans-serif" font-size="25" lengthAdjust="spacing" textLength="214.5833" x="712.5" y="1078.8859">Xóa các Nhân Viên</text><text fill="#000000" font-family="sans-serif" font-size="25" lengthAdjust="spacing" textLength="122.9167" x="712.5" y="1110.3312">được chọn</text><rect fill="#FEFECE" filter="url(#fzje2didc0fyf)" height="104.5573" rx="26.0417" ry="26.0417" style="stroke:#A80036;stroke-width:3.125;" width="258.3333" x="690.625" y="1209.5744"/><text fill="#000000" font-family="sans-serif" font-size="25" lengthAdjust="spacing" textLength="137.5" x="711.4583" y="1256.3599">Cập nhật lại</text><text fill="#000000" font-family="sans-serif" font-size="25" font-weight="bold" lengthAdjust="spacing" textLength="216.6667" x="711.4583" y="1287.8052">Danh sách hiển thị</text><rect fill="#FEFECE" filter="url(#fzje2didc0fyf)" height="104.5573" rx="26.0417" ry="26.0417" style="stroke:#A80036;stroke-width:3.125;" width="329.1667" x="528.6458" y="1355.7983"/><text fill="#000000" font-family="sans-serif" font-size="25" lengthAdjust="spacing" textLength="237.5" x="549.4792" y="1402.5838">Chuyển tới màn hình</text><text fill="#000000" font-family="sans-serif" font-size="25" font-weight="bold" lengthAdjust="spacing" textLength="287.5" x="549.4792" y="1434.0291">Danh sách Nhân Viên Xe</text><ellipse cx="693.2292" cy="1524.939" fill="#FFFFFF" filter="url(#fzje2didc0fyf)" rx="22.9167" ry="22.9167" style="stroke:#000000;stroke-width:2.0833333333333335;"/><ellipse cx="693.2292" cy="1524.939" fill="#000000" rx="12.5" ry="12.5" style="stroke:#7F7F7F;stroke-width:2.0833333333333335;"/><line style="stroke:#000000;stroke-width:4.166666666666667;" x1="471.875" x2="471.875" y1="25.9481" y2="1547.8556"/><line style="stroke:#000000;stroke-width:4.166666666666667;" x1="969.7917" x2="969.7917" y1="25.9481" y2="1547.8556"/><line style="stroke:#A80036;stroke-width:3.125;" x1="240.625" x2="240.625" y1="188.09" y2="229.7567"/><polygon fill="#A80036" points="232.2917,208.9233,240.625,229.7567,248.9583,208.9233,240.625,217.2567" style="stroke:#A80036;stroke-width:2.0833333333333335;"/><line style="stroke:#A80036;stroke-width:3.125;" x1="240.625" x2="240.625" y1="397.2046" y2="438.8713"/><polygon fill="#A80036" points="232.2917,418.0379,240.625,438.8713,248.9583,418.0379,240.625,426.3713" style="stroke:#A80036;stroke-width:2.0833333333333335;"/><line style="stroke:#A80036;stroke-width:3.125;" x1="240.625" x2="240.625" y1="574.8739" y2="616.5405"/><polygon fill="#A80036" points="232.2917,595.7072,240.625,616.5405,248.9583,595.7072,240.625,604.0405" style="stroke:#A80036;stroke-width:2.0833333333333335;"/><line style="stroke:#A80036;stroke-width:3.125;" x1="566.6667" x2="566.6667" y1="1105.2124" y2="1178.1291"/><polygon fill="#A80036" points="558.3333,1157.2957,566.6667,1178.1291,575,1157.2957,566.6667,1165.6291" style="stroke:#A80036;stroke-width:2.0833333333333335;"/><line style="stroke:#A80036;stroke-width:3.125;" x1="819.7917" x2="819.7917" y1="1136.6577" y2="1209.5744"/><polygon fill="#A80036" points="811.4583,1188.741,819.7917,1209.5744,828.125,1188.741,819.7917,1197.0744" style="stroke:#A80036;stroke-width:2.0833333333333335;"/><line style="stroke:#A80036;stroke-width:3.125;" x1="693.2292" x2="693.2292" y1="1460.3556" y2="1502.0223"/><polygon fill="#A80036" points="684.8958,1481.189,693.2292,1502.0223,701.5625,1481.189,693.2292,1489.5223" style="stroke:#A80036;stroke-width:2.0833333333333335;"/><line style="stroke:#A80036;stroke-width:3.125;" x1="240.625" x2="240.625" y1="721.0978" y2="731.5145"/><line style="stroke:#A80036;stroke-width:3.125;" x1="240.625" x2="693.2292" y1="731.5145" y2="731.5145"/><line style="stroke:#A80036;stroke-width:3.125;" x1="693.2292" x2="693.2292" y1="731.5145" y2="762.7645"/><polygon fill="#A80036" points="684.8958,741.9312,693.2292,762.7645,701.5625,741.9312,693.2292,750.2645" style="stroke:#A80036;stroke-width:2.0833333333333335;"/><line style="stroke:#A80036;stroke-width:3.125;" x1="136.4583" x2="111.4583" y1="965.4338" y2="965.4338"/><line style="stroke:#A80036;stroke-width:3.125;" x1="111.4583" x2="111.4583" y1="965.4338" y2="1002.9338"/><line style="stroke:#A80036;stroke-width:3.125;" x1="111.4583" x2="566.6667" y1="1002.9338" y2="1002.9338"/><line style="stroke:#A80036;stroke-width:3.125;" x1="566.6667" x2="566.6667" y1="1002.9338" y2="1032.1004"/><polygon fill="#A80036" points="558.3333,1011.2671,566.6667,1032.1004,575,1011.2671,566.6667,1019.6004" style="stroke:#A80036;stroke-width:2.0833333333333335;"/><line style="stroke:#A80036;stroke-width:3.125;" x1="344.7917" x2="819.7917" y1="965.4338" y2="965.4338"/><line style="stroke:#A80036;stroke-width:3.125;" x1="819.7917" x2="819.7917" y1="965.4338" y2="1032.1004"/><polygon fill="#A80036" points="811.4583,1011.2671,819.7917,1032.1004,828.125,1011.2671,819.7917,1019.6004" style="stroke:#A80036;stroke-width:2.0833333333333335;"/><line style="stroke:#A80036;stroke-width:3.125;" x1="819.7917" x2="819.7917" y1="1314.1317" y2="1324.5483"/><line style="stroke:#A80036;stroke-width:3.125;" x1="819.7917" x2="693.2292" y1="1324.5483" y2="1324.5483"/><line style="stroke:#A80036;stroke-width:3.125;" x1="693.2292" x2="693.2292" y1="1324.5483" y2="1355.7983"/><polygon fill="#A80036" points="684.8958,1334.965,693.2292,1355.7983,701.5625,1334.965,693.2292,1343.2983" style="stroke:#A80036;stroke-width:2.0833333333333335;"/><line style="stroke:#A80036;stroke-width:3.125;" x1="693.2292" x2="693.2292" y1="898.7671" y2="909.1838"/><line style="stroke:#A80036;stroke-width:3.125;" x1="693.2292" x2="240.625" y1="909.1838" y2="909.1838"/><line style="stroke:#A80036;stroke-width:3.125;" x1="240.625" x2="240.625" y1="909.1838" y2="940.4338"/><polygon fill="#A80036" points="232.2917,919.6004,240.625,940.4338,248.9583,919.6004,240.625,927.9338" style="stroke:#A80036;stroke-width:2.0833333333333335;"/><text fill="#000000" font-family="sans-serif" font-size="37.5" lengthAdjust="spacing" textLength="281.25" x="116.1458" y="64.8763">Quản Trị Nhà Xe</text><text fill="#000000" font-family="sans-serif" font-size="37.5" lengthAdjust="spacing" textLength="152.0833" x="650" y="64.8763">Hệ thống</text><!--MD5=[1e7e1a552926dec3b4cc1de30b735ef9]
@startuml
skinparam dpi 200

|Buss Admin| Quản Trị Nhà Xe
	#lightgreen:Từ màn hình
	<b>Danh sách Nhân Viên Xe</b> >

	:Click vào tab
	<b>- Đang hoạt động</b>
	hoặc <b> - Đang khóa</b>
	để tìm nhân viên muốn xóa;

	:Chọn các Nhân Viên muốn xóa
	ở cột <b>Checkbox</b>
	phía cuối cùng;

	:Click nút
	<b>Xóa</b>;

|System| Hệ thống
	:Hiện yes/no pop-up
	<b>Bạn chắc chắn muốn xóa</b>
	<b>Nhân Viên Xe này chứ?</b>;


|Buss Admin|
	if (Click hoặc chọn) is (Khác) then
		|System|
		:Tắt pop-up;
		end
	else (nút <b>Đồng ý</b>)
		|System|
			:Xóa các Nhân Viên
			được chọn;

			:Cập nhật lại
			<b>Danh sách hiển thị</b>;
	endif

	:Chuyển tới màn hình
	<b>Danh sách Nhân Viên Xe</b>;

	stop
@enduml

PlantUML version 1.2021.2(Sun Mar 07 18:10:27 ICT 2021)
(GPL source distribution)
Java Runtime: OpenJDK Runtime Environment
JVM: Eclipse OpenJ9 VM
Default Encoding: UTF-8
Language: en
Country: US
--></g></svg>