<?xml version="1.0" encoding="UTF-8" standalone="no"?><svg xmlns="http://www.w3.org/2000/svg" xmlns:xlink="http://www.w3.org/1999/xlink" contentScriptType="application/ecmascript" contentStyleType="text/css" height="1764.5833px" preserveAspectRatio="none" style="width:1095px;height:1764px;" version="1.1" viewBox="0 0 1095 1764" width="1095.8333px" zoomAndPan="magnify"><defs><filter height="300%" id="f1cok3sgyhl1gi" width="300%" x="-1" y="-1"><feGaussianBlur result="blurOut" stdDeviation="4.166666666666667"/><feColorMatrix in="blurOut" result="blurOut2" type="matrix" values="0 0 0 0 0 0 0 0 0 0 0 0 0 0 0 0 0 0 .4 0"/><feOffset dx="8.333333333333334" dy="8.333333333333334" in="blurOut2" result="blurOut3"/><feBlend in="SourceGraphic" in2="blurOut3" mode="normal"/></filter></defs><g><polygon fill="#90EE90" filter="url(#f1cok3sgyhl1gi)" points="62.5,83.5327,366.6667,83.5327,387.5,135.8114,366.6667,188.09,62.5,188.09" style="stroke:#A80036;stroke-width:3.125;"/><text fill="#000000" font-family="sans-serif" font-size="25" lengthAdjust="spacing" textLength="145.8333" x="83.3333" y="130.3182">Từ màn hình</text><text fill="#000000" font-family="sans-serif" font-size="25" font-weight="bold" lengthAdjust="spacing" textLength="256.25" x="83.3333" y="161.7635">Danh sách Chuyến Xe</text><text fill="#000000" font-family="sans-serif" font-size="25" lengthAdjust="spacing" textLength="0" x="345.8333" y="161.7635"/><rect fill="#FEFECE" filter="url(#f1cok3sgyhl1gi)" height="104.5573" rx="26.0417" ry="26.0417" style="stroke:#A80036;stroke-width:3.125;" width="293.75" x="67.7083" y="229.7567"/><text fill="#000000" font-family="sans-serif" font-size="25" lengthAdjust="spacing" textLength="102.0833" x="88.5417" y="276.5422">Click vào</text><text fill="#000000" font-family="sans-serif" font-size="25" font-weight="bold" lengthAdjust="spacing" textLength="252.0833" x="88.5417" y="307.9875">Chuyến Xe muốn sửa</text><rect fill="#FEFECE" filter="url(#f1cok3sgyhl1gi)" height="73.112" rx="26.0417" ry="26.0417" style="stroke:#A80036;stroke-width:3.125;" width="208.3333" x="110.4167" y="522.2046"/><text fill="#000000" font-family="sans-serif" font-size="25" lengthAdjust="spacing" textLength="166.6667" x="131.25" y="568.9901">Sửa ngày chạy</text><polygon fill="#FEFECE" filter="url(#f1cok3sgyhl1gi)" points="134.375,948.0103,294.7917,948.0103,319.7917,973.0103,294.7917,998.0103,134.375,998.0103,109.375,973.0103,134.375,948.0103" style="stroke:#A80036;stroke-width:3.125;"/><text fill="#000000" font-family="sans-serif" font-size="22.9167" lengthAdjust="spacing" textLength="160.4167" x="134.375" y="982.3873">Click hoặc Chọn</text><text fill="#000000" font-family="sans-serif" font-size="22.9167" lengthAdjust="spacing" textLength="52.0833" x="57.2917" y="967.9749">Khác</text><text fill="#000000" font-family="sans-serif" font-size="22.9167" lengthAdjust="spacing" textLength="72.9167" x="319.7917" y="967.9749">Đồng ý</text><line style="stroke:#000000;stroke-width:4.166666666666667;" x1="31.25" x2="31.25" y1="25.9481" y2="1730.4321"/><rect fill="#FEFECE" filter="url(#f1cok3sgyhl1gi)" height="104.5573" rx="26.0417" ry="26.0417" style="stroke:#A80036;stroke-width:3.125;" width="279.1667" x="523.4375" y="375.9806"/><text fill="#000000" font-family="sans-serif" font-size="25" lengthAdjust="spacing" textLength="237.5" x="544.2708" y="422.7661">Chuyển tới màn hình</text><text fill="#000000" font-family="sans-serif" font-size="25" font-weight="bold" lengthAdjust="spacing" textLength="181.25" x="544.2708" y="454.2114">Sửa Chuyến Xe</text><rect fill="#FEFECE" filter="url(#f1cok3sgyhl1gi)" height="167.4479" rx="26.0417" ry="26.0417" style="stroke:#A80036;stroke-width:3.125;" width="331.25" x="497.3958" y="738.8957"/><text fill="#000000" font-family="sans-serif" font-size="25" lengthAdjust="spacing" textLength="222.9167" x="518.2292" y="785.6812">Hiện yes/no pop-up</text><text fill="#000000" font-family="sans-serif" font-size="25" font-weight="bold" lengthAdjust="spacing" textLength="283.3333" x="518.2292" y="817.1265">Đã có khách đặt chuyến</text><text fill="#000000" font-family="sans-serif" font-size="25" lengthAdjust="spacing" textLength="262.5" x="518.2292" y="848.5718">+ Danh sách khách đặt</text><text fill="#000000" font-family="sans-serif" font-size="25" font-weight="bold" lengthAdjust="spacing" textLength="289.5833" x="518.2292" y="880.0171">Bạn vẫn muốn sửa chứ?</text><rect fill="#FEFECE" filter="url(#f1cok3sgyhl1gi)" height="73.112" rx="26.0417" ry="26.0417" style="stroke:#A80036;stroke-width:3.125;" width="164.5833" x="431.25" y="1039.6769"/><text fill="#000000" font-family="sans-serif" font-size="25" lengthAdjust="spacing" textLength="122.9167" x="452.0833" y="1086.4624">Tắt pop-up</text><ellipse cx="513.5417" cy="1206.5389" fill="#FFFFFF" filter="url(#f1cok3sgyhl1gi)" rx="20.8333" ry="20.8333" style="stroke:#000000;stroke-width:3.125;"/><line style="stroke:#000000;stroke-width:5.208333333333334;" x1="500.6517" x2="526.4316" y1="1193.6489" y2="1219.4289"/><line style="stroke:#000000;stroke-width:5.208333333333334;" x1="526.4316" x2="500.6517" y1="1193.6489" y2="1219.4289"/><rect fill="#FEFECE" filter="url(#f1cok3sgyhl1gi)" height="104.5573" rx="26.0417" ry="26.0417" style="stroke:#A80036;stroke-width:3.125;" width="350" x="637.5" y="1039.6769"/><text fill="#000000" font-family="sans-serif" font-size="25" lengthAdjust="spacing" textLength="308.3333" x="658.3333" y="1086.4624">Gửi email thông báo khách</text><text fill="#000000" font-family="sans-serif" font-size="25" font-weight="bold" lengthAdjust="spacing" textLength="304.1667" x="658.3333" y="1117.9077">Chuyến của bạn đã bị hủy!</text><rect fill="#FEFECE" filter="url(#f1cok3sgyhl1gi)" height="73.112" rx="26.0417" ry="26.0417" style="stroke:#A80036;stroke-width:3.125;" width="164.5833" x="730.2083" y="1217.1509"/><text fill="#000000" font-family="sans-serif" font-size="25" lengthAdjust="spacing" textLength="122.9167" x="751.0417" y="1263.9364">Tắt pop-up</text><polygon fill="#FEFECE" filter="url(#f1cok3sgyhl1gi)" points="526.5625,636.9832,799.4792,636.9832,824.4792,661.9832,799.4792,686.9832,526.5625,686.9832,501.5625,661.9832,526.5625,636.9832" style="stroke:#A80036;stroke-width:3.125;"/><text fill="#000000" font-family="sans-serif" font-size="22.9167" lengthAdjust="spacing" textLength="27.0833" x="671.3542" y="710.7727">Có</text><text fill="#000000" font-family="sans-serif" font-size="22.9167" lengthAdjust="spacing" textLength="272.9167" x="526.5625" y="671.3603">Có vé nào phải hủy không?</text><text fill="#000000" font-family="sans-serif" font-size="22.9167" lengthAdjust="spacing" textLength="64.5833" x="824.4792" y="656.9478">Không</text><polygon fill="#FEFECE" filter="url(#f1cok3sgyhl1gi)" points="663.0208,1331.9295,688.0208,1356.9295,663.0208,1381.9295,638.0208,1356.9295,663.0208,1331.9295" style="stroke:#A80036;stroke-width:3.125;"/><rect fill="#FEFECE" filter="url(#f1cok3sgyhl1gi)" height="73.112" rx="26.0417" ry="26.0417" style="stroke:#A80036;stroke-width:3.125;" width="250" x="538.0208" y="1423.5962"/><text fill="#000000" font-family="sans-serif" font-size="25" lengthAdjust="spacing" textLength="208.3333" x="558.8542" y="1470.3817">Cập nhật thông tin</text><rect fill="#FEFECE" filter="url(#f1cok3sgyhl1gi)" height="104.5573" rx="26.0417" ry="26.0417" style="stroke:#A80036;stroke-width:3.125;" width="297.9167" x="514.0625" y="1538.3748"/><text fill="#000000" font-family="sans-serif" font-size="25" lengthAdjust="spacing" textLength="185.4167" x="534.8958" y="1585.1603">Trở về màn hình</text><text fill="#000000" font-family="sans-serif" font-size="25" font-weight="bold" lengthAdjust="spacing" textLength="256.25" x="534.8958" y="1616.6056">Danh sách Chuyến Xe</text><ellipse cx="663.0208" cy="1707.5155" fill="#FFFFFF" filter="url(#f1cok3sgyhl1gi)" rx="22.9167" ry="22.9167" style="stroke:#000000;stroke-width:2.0833333333333335;"/><ellipse cx="663.0208" cy="1707.5155" fill="#000000" rx="12.5" ry="12.5" style="stroke:#7F7F7F;stroke-width:2.0833333333333335;"/><line style="stroke:#000000;stroke-width:4.166666666666667;" x1="418.75" x2="418.75" y1="25.9481" y2="1730.4321"/><line style="stroke:#000000;stroke-width:4.166666666666667;" x1="1056.25" x2="1056.25" y1="25.9481" y2="1730.4321"/><line style="stroke:#A80036;stroke-width:3.125;" x1="214.5833" x2="214.5833" y1="188.09" y2="229.7567"/><polygon fill="#A80036" points="206.25,208.9233,214.5833,229.7567,222.9167,208.9233,214.5833,217.2567" style="stroke:#A80036;stroke-width:2.0833333333333335;"/><line style="stroke:#A80036;stroke-width:3.125;" x1="513.5417" x2="513.5417" y1="1112.7889" y2="1185.7056"/><polygon fill="#A80036" points="505.2083,1164.8722,513.5417,1185.7056,521.875,1164.8722,513.5417,1173.2056" style="stroke:#A80036;stroke-width:2.0833333333333335;"/><line style="stroke:#A80036;stroke-width:3.125;" x1="812.5" x2="812.5" y1="1144.2342" y2="1217.1509"/><polygon fill="#A80036" points="804.1667,1196.3175,812.5,1217.1509,820.8333,1196.3175,812.5,1204.6509" style="stroke:#A80036;stroke-width:2.0833333333333335;"/><line style="stroke:#A80036;stroke-width:3.125;" x1="663.0208" x2="663.0208" y1="686.9832" y2="738.8957"/><polygon fill="#A80036" points="654.6875,718.0623,663.0208,738.8957,671.3542,718.0623,663.0208,726.3957" style="stroke:#A80036;stroke-width:2.0833333333333335;"/><line style="stroke:#A80036;stroke-width:3.125;" x1="824.4792" x2="1016.6667" y1="661.9832" y2="661.9832"/><polygon fill="#A80036" points="1008.3333,994.7876,1016.6667,1015.6209,1025,994.7876,1016.6667,1003.1209" style="stroke:#A80036;stroke-width:3.125;"/><line style="stroke:#A80036;stroke-width:3.125;" x1="1016.6667" x2="1016.6667" y1="661.9832" y2="1356.9295"/><line style="stroke:#A80036;stroke-width:3.125;" x1="1016.6667" x2="688.0208" y1="1356.9295" y2="1356.9295"/><polygon fill="#A80036" points="708.8542,1348.5962,688.0208,1356.9295,708.8542,1365.2629,700.5208,1356.9295" style="stroke:#A80036;stroke-width:2.0833333333333335;"/><line style="stroke:#A80036;stroke-width:3.125;" x1="663.0208" x2="663.0208" y1="1381.9295" y2="1423.5962"/><polygon fill="#A80036" points="654.6875,1402.7629,663.0208,1423.5962,671.3542,1402.7629,663.0208,1411.0962" style="stroke:#A80036;stroke-width:2.0833333333333335;"/><line style="stroke:#A80036;stroke-width:3.125;" x1="663.0208" x2="663.0208" y1="1496.7082" y2="1538.3748"/><polygon fill="#A80036" points="654.6875,1517.5415,663.0208,1538.3748,671.3542,1517.5415,663.0208,1525.8748" style="stroke:#A80036;stroke-width:2.0833333333333335;"/><line style="stroke:#A80036;stroke-width:3.125;" x1="663.0208" x2="663.0208" y1="1642.9321" y2="1684.5988"/><polygon fill="#A80036" points="654.6875,1663.7655,663.0208,1684.5988,671.3542,1663.7655,663.0208,1672.0988" style="stroke:#A80036;stroke-width:2.0833333333333335;"/><line style="stroke:#A80036;stroke-width:3.125;" x1="214.5833" x2="214.5833" y1="334.314" y2="344.7306"/><line style="stroke:#A80036;stroke-width:3.125;" x1="214.5833" x2="663.0208" y1="344.7306" y2="344.7306"/><line style="stroke:#A80036;stroke-width:3.125;" x1="663.0208" x2="663.0208" y1="344.7306" y2="375.9806"/><polygon fill="#A80036" points="654.6875,355.1473,663.0208,375.9806,671.3542,355.1473,663.0208,363.4806" style="stroke:#A80036;stroke-width:2.0833333333333335;"/><line style="stroke:#A80036;stroke-width:3.125;" x1="663.0208" x2="663.0208" y1="480.5379" y2="490.9546"/><line style="stroke:#A80036;stroke-width:3.125;" x1="663.0208" x2="214.5833" y1="490.9546" y2="490.9546"/><line style="stroke:#A80036;stroke-width:3.125;" x1="214.5833" x2="214.5833" y1="490.9546" y2="522.2046"/><polygon fill="#A80036" points="206.25,501.3713,214.5833,522.2046,222.9167,501.3713,214.5833,509.7046" style="stroke:#A80036;stroke-width:2.0833333333333335;"/><line style="stroke:#A80036;stroke-width:3.125;" x1="109.375" x2="84.375" y1="973.0103" y2="973.0103"/><line style="stroke:#A80036;stroke-width:3.125;" x1="84.375" x2="84.375" y1="973.0103" y2="1010.5103"/><line style="stroke:#A80036;stroke-width:3.125;" x1="84.375" x2="513.5417" y1="1010.5103" y2="1010.5103"/><line style="stroke:#A80036;stroke-width:3.125;" x1="513.5417" x2="513.5417" y1="1010.5103" y2="1039.6769"/><polygon fill="#A80036" points="505.2083,1018.8436,513.5417,1039.6769,521.875,1018.8436,513.5417,1027.1769" style="stroke:#A80036;stroke-width:2.0833333333333335;"/><line style="stroke:#A80036;stroke-width:3.125;" x1="319.7917" x2="812.5" y1="973.0103" y2="973.0103"/><line style="stroke:#A80036;stroke-width:3.125;" x1="812.5" x2="812.5" y1="973.0103" y2="1039.6769"/><polygon fill="#A80036" points="804.1667,1018.8436,812.5,1039.6769,820.8333,1018.8436,812.5,1027.1769" style="stroke:#A80036;stroke-width:2.0833333333333335;"/><line style="stroke:#A80036;stroke-width:3.125;" x1="812.5" x2="812.5" y1="1290.2629" y2="1305.9733"/><line style="stroke:#A80036;stroke-width:3.125;" x1="812.5" x2="663.0208" y1="1305.9733" y2="1305.9733"/><line style="stroke:#A80036;stroke-width:3.125;" x1="663.0208" x2="663.0208" y1="1305.9733" y2="1331.9295"/><polygon fill="#A80036" points="654.6875,1311.0962,663.0208,1331.9295,671.3542,1311.0962,663.0208,1319.4295" style="stroke:#A80036;stroke-width:2.0833333333333335;"/><line style="stroke:#A80036;stroke-width:3.125;" x1="663.0208" x2="663.0208" y1="906.3436" y2="916.7603"/><line style="stroke:#A80036;stroke-width:3.125;" x1="663.0208" x2="214.5833" y1="916.7603" y2="916.7603"/><line style="stroke:#A80036;stroke-width:3.125;" x1="214.5833" x2="214.5833" y1="916.7603" y2="948.0103"/><polygon fill="#A80036" points="206.25,927.1769,214.5833,948.0103,222.9167,927.1769,214.5833,935.5103" style="stroke:#A80036;stroke-width:2.0833333333333335;"/><line style="stroke:#A80036;stroke-width:3.125;" x1="214.5833" x2="214.5833" y1="595.3166" y2="605.7332"/><line style="stroke:#A80036;stroke-width:3.125;" x1="214.5833" x2="663.0208" y1="605.7332" y2="605.7332"/><line style="stroke:#A80036;stroke-width:3.125;" x1="663.0208" x2="663.0208" y1="605.7332" y2="636.9832"/><polygon fill="#A80036" points="654.6875,616.1499,663.0208,636.9832,671.3542,616.1499,663.0208,624.4832" style="stroke:#A80036;stroke-width:2.0833333333333335;"/><text fill="#000000" font-family="sans-serif" font-size="37.5" lengthAdjust="spacing" textLength="281.25" x="89.5833" y="64.8763">Quản Trị Nhà Xe</text><text fill="#000000" font-family="sans-serif" font-size="37.5" lengthAdjust="spacing" textLength="166.6667" x="659.375" y="64.8763">Hệ Thống</text><!--MD5=[8a862cc40e7a9e07e6db57f0bec5a2e4]
@startuml
skinparam dpi 200

|Buss Admin| Quản Trị Nhà Xe
	#lightgreen:Từ màn hình
	<b>Danh sách Chuyến Xe</b> >

	:Click vào
	<b>Chuyến Xe muốn sửa</b>;

|System| Hệ Thống
	:Chuyển tới màn hình
	<b>Sửa Chuyến Xe</b>;

|Buss Admin|
	:Sửa ngày chạy;

|System|
	if (Có vé nào phải hủy không?) is (Có) then
		:Hiện yes/no pop-up
		<b>Đã có khách đặt chuyến</b>
		+ Danh sách khách đặt
		<b>Bạn vẫn muốn sửa chứ?</b>;

		|Buss Admin|
		if (Click hoặc Chọn) is (Khác) then
			|System|
				:Tắt pop-up;
				end
		else (Đồng ý)
			|System|

				:Gửi email thông báo khách
				<b>Chuyến của bạn đã bị hủy!</b>;

				:Tắt pop-up;
		endif
	else (Không)
	endif

	:Cập nhật thông tin;

	:Trở về màn hình
	<b>Danh sách Chuyến Xe</b>;

	stop
@enduml

PlantUML version 1.2021.2(Sun Mar 07 18:10:27 ICT 2021)
(GPL source distribution)
Java Runtime: OpenJDK Runtime Environment
JVM: Eclipse OpenJ9 VM
Default Encoding: UTF-8
Language: en
Country: US
--></g></svg>