<?xml version="1.0" encoding="UTF-8" standalone="no"?><svg xmlns="http://www.w3.org/2000/svg" xmlns:xlink="http://www.w3.org/1999/xlink" contentScriptType="application/ecmascript" contentStyleType="text/css" height="972.9167px" preserveAspectRatio="none" style="width:1110px;height:972px;" version="1.1" viewBox="0 0 1110 972" width="1110.4167px" zoomAndPan="magnify"><defs><filter height="300%" id="fgk8u2oav0zu1" width="300%" x="-1" y="-1"><feGaussianBlur result="blurOut" stdDeviation="4.166666666666667"/><feColorMatrix in="blurOut" result="blurOut2" type="matrix" values="0 0 0 0 0 0 0 0 0 0 0 0 0 0 0 0 0 0 .4 0"/><feOffset dx="8.333333333333334" dy="8.333333333333334" in="blurOut2" result="blurOut3"/><feBlend in="SourceGraphic" in2="blurOut3" mode="normal"/></filter></defs><g><ellipse cx="411.4583" cy="104.366" fill="#000000" filter="url(#fgk8u2oav0zu1)" rx="20.8333" ry="20.8333" style="stroke:none;stroke-width:2.0833333333333335;"/><rect fill="#FEFECE" filter="url(#fgk8u2oav0zu1)" height="104.5573" rx="26.0417" ry="26.0417" style="stroke:#A80036;stroke-width:3.125;" width="202.0833" x="310.4167" y="166.866"/><text fill="#000000" font-family="sans-serif" font-size="25" lengthAdjust="spacing" textLength="147.9167" x="331.25" y="213.6515">Mở trang chủ</text><text fill="#000000" font-family="sans-serif" font-size="25" lengthAdjust="spacing" textLength="160.4167" x="331.25" y="245.0968">của Hệ Thống</text><rect fill="#000000" filter="url(#fgk8u2oav0zu1)" height="12.5" rx="5.2083" ry="5.2083" style="stroke:#000000;stroke-width:2.0833333333333335;" width="722.9167" x="43.75" y="313.09"/><rect fill="#FEFECE" filter="url(#fgk8u2oav0zu1)" height="104.5573" rx="26.0417" ry="26.0417" style="stroke:#A80036;stroke-width:3.125;" width="220.8333" x="68.75" y="367.2567"/><text fill="#000000" font-family="sans-serif" font-size="25" lengthAdjust="spacing" textLength="62.5" x="89.5833" y="414.0422">Chọn</text><text fill="#000000" font-family="sans-serif" font-size="25" font-weight="bold" lengthAdjust="spacing" textLength="179.1667" x="89.5833" y="445.4875">Điểm xuất phát</text><rect fill="#FEFECE" filter="url(#fgk8u2oav0zu1)" height="104.5573" rx="26.0417" ry="26.0417" style="stroke:#A80036;stroke-width:3.125;" width="172.9167" x="331.25" y="367.2567"/><text fill="#000000" font-family="sans-serif" font-size="25" lengthAdjust="spacing" textLength="62.5" x="352.0833" y="414.0422">Chọn</text><text fill="#000000" font-family="sans-serif" font-size="25" font-weight="bold" lengthAdjust="spacing" textLength="131.25" x="352.0833" y="445.4875">Điểm dừng</text><rect fill="#FEFECE" filter="url(#fgk8u2oav0zu1)" height="104.5573" rx="26.0417" ry="26.0417" style="stroke:#A80036;stroke-width:3.125;" width="208.3333" x="533.3333" y="367.2567"/><text fill="#000000" font-family="sans-serif" font-size="25" lengthAdjust="spacing" textLength="62.5" x="554.1667" y="414.0422">Chọn</text><text fill="#000000" font-family="sans-serif" font-size="25" font-weight="bold" lengthAdjust="spacing" textLength="166.6667" x="554.1667" y="445.4875">Giờ khởi hành</text><polygon fill="#FEFECE" filter="url(#fgk8u2oav0zu1)" points="411.4583,492.6473,436.4583,517.6473,411.4583,542.6473,386.4583,517.6473,411.4583,492.6473" style="stroke:#A80036;stroke-width:3.125;"/><rect fill="#FEFECE" filter="url(#fgk8u2oav0zu1)" height="104.5573" rx="26.0417" ry="26.0417" style="stroke:#A80036;stroke-width:3.125;" width="154.1667" x="334.375" y="584.314"/><text fill="#000000" font-family="sans-serif" font-size="25" lengthAdjust="spacing" textLength="97.9167" x="355.2083" y="631.0994">Click nút</text><text fill="#000000" font-family="sans-serif" font-size="25" font-weight="bold" lengthAdjust="spacing" textLength="112.5" x="355.2083" y="662.5448">Tìm ngay!</text><line style="stroke:#000000;stroke-width:4.166666666666667;" x1="31.25" x2="31.25" y1="25.9481" y2="949.8739"/><rect fill="#FEFECE" filter="url(#fgk8u2oav0zu1)" height="73.112" rx="26.0417" ry="26.0417" style="stroke:#A80036;stroke-width:3.125;" width="218.75" x="809.375" y="730.5379"/><text fill="#000000" font-family="sans-serif" font-size="25" lengthAdjust="spacing" textLength="177.0833" x="830.2083" y="777.3234">Hiển thị kết quả</text><polygon fill="#90EE90" filter="url(#fgk8u2oav0zu1)" points="818.75,845.3166,1018.75,845.3166,1039.5833,897.5952,1018.75,949.8739,818.75,949.8739" style="stroke:#A80036;stroke-width:3.125;"/><text fill="#000000" font-family="sans-serif" font-size="25" lengthAdjust="spacing" textLength="158.3333" x="839.5833" y="892.1021">Sẵn sàng cho</text><text fill="#000000" font-family="sans-serif" font-size="25" lengthAdjust="spacing" textLength="150" x="839.5833" y="923.5474">flow tiếp theo</text><line style="stroke:#000000;stroke-width:4.166666666666667;" x1="787.5" x2="787.5" y1="25.9481" y2="949.8739"/><line style="stroke:#000000;stroke-width:4.166666666666667;" x1="1070.8333" x2="1070.8333" y1="25.9481" y2="949.8739"/><line style="stroke:#A80036;stroke-width:3.125;" x1="411.4583" x2="411.4583" y1="125.1994" y2="166.866"/><polygon fill="#A80036" points="403.125,146.0327,411.4583,166.866,419.7917,146.0327,411.4583,154.366" style="stroke:#A80036;stroke-width:2.0833333333333335;"/><line style="stroke:#A80036;stroke-width:3.125;" x1="179.1667" x2="179.1667" y1="325.59" y2="367.2567"/><polygon fill="#A80036" points="170.8333,346.4233,179.1667,367.2567,187.5,346.4233,179.1667,354.7567" style="stroke:#A80036;stroke-width:2.0833333333333335;"/><line style="stroke:#A80036;stroke-width:3.125;" x1="417.7083" x2="417.7083" y1="325.59" y2="367.2567"/><polygon fill="#A80036" points="409.375,346.4233,417.7083,367.2567,426.0417,346.4233,417.7083,354.7567" style="stroke:#A80036;stroke-width:2.0833333333333335;"/><line style="stroke:#A80036;stroke-width:3.125;" x1="637.5" x2="637.5" y1="325.59" y2="367.2567"/><polygon fill="#A80036" points="629.1667,346.4233,637.5,367.2567,645.8333,346.4233,637.5,354.7567" style="stroke:#A80036;stroke-width:2.0833333333333335;"/><line style="stroke:#A80036;stroke-width:3.125;" x1="179.1667" x2="179.1667" y1="471.814" y2="517.6473"/><line style="stroke:#A80036;stroke-width:3.125;" x1="179.1667" x2="386.4583" y1="517.6473" y2="517.6473"/><polygon fill="#A80036" points="365.625,509.314,386.4583,517.6473,365.625,525.9806,373.9583,517.6473" style="stroke:#A80036;stroke-width:2.0833333333333335;"/><line style="stroke:#A80036;stroke-width:3.125;" x1="417.7083" x2="417.7083" y1="471.814" y2="517.6473"/><line style="stroke:#A80036;stroke-width:3.125;" x1="417.7083" x2="436.4583" y1="517.6473" y2="517.6473"/><polygon fill="#A80036" points="457.2917,509.314,436.4583,517.6473,457.2917,525.9806,448.9583,517.6473" style="stroke:#A80036;stroke-width:2.0833333333333335;"/><line style="stroke:#A80036;stroke-width:3.125;" x1="637.5" x2="637.5" y1="471.814" y2="542.6473"/><line style="stroke:#A80036;stroke-width:3.125;" x1="637.5" x2="411.4583" y1="542.6473" y2="542.6473"/><line style="stroke:#A80036;stroke-width:3.125;" x1="411.4583" x2="411.4583" y1="542.6473" y2="584.314"/><polygon fill="#A80036" points="403.125,563.4806,411.4583,584.314,419.7917,563.4806,411.4583,571.814" style="stroke:#A80036;stroke-width:2.0833333333333335;"/><line style="stroke:#A80036;stroke-width:3.125;" x1="411.4583" x2="411.4583" y1="271.4233" y2="313.09"/><polygon fill="#A80036" points="403.125,292.2567,411.4583,313.09,419.7917,292.2567,411.4583,300.59" style="stroke:#A80036;stroke-width:2.0833333333333335;"/><line style="stroke:#A80036;stroke-width:3.125;" x1="918.75" x2="918.75" y1="803.6499" y2="845.3166"/><polygon fill="#A80036" points="910.4167,824.4832,918.75,845.3166,927.0833,824.4832,918.75,832.8166" style="stroke:#A80036;stroke-width:2.0833333333333335;"/><line style="stroke:#A80036;stroke-width:3.125;" x1="411.4583" x2="411.4583" y1="688.8713" y2="699.2879"/><line style="stroke:#A80036;stroke-width:3.125;" x1="411.4583" x2="918.75" y1="699.2879" y2="699.2879"/><line style="stroke:#A80036;stroke-width:3.125;" x1="918.75" x2="918.75" y1="699.2879" y2="730.5379"/><polygon fill="#A80036" points="910.4167,709.7046,918.75,730.5379,927.0833,709.7046,918.75,718.0379" style="stroke:#A80036;stroke-width:2.0833333333333335;"/><text fill="#000000" font-family="sans-serif" font-size="37.5" lengthAdjust="spacing" textLength="262.5" x="283.3333" y="64.8763">Khách Vãng Lai</text><text fill="#000000" font-family="sans-serif" font-size="37.5" lengthAdjust="spacing" textLength="166.6667" x="851.0417" y="64.8763">Hệ Thống</text><!--MD5=[bf034332dccc886eeb699b46061a48b5]
@startuml
skinparam dpi 200

|User| Khách Vãng Lai
	start
	:Mở trang chủ
	của Hệ Thống;
	fork
		:Chọn
		<b>Điểm xuất phát</b>;
	fork again
		:Chọn
		<b>Điểm dừng</b>;
	fork again
		:Chọn
		<b>Giờ khởi hành</b>;
	end merge
		:Click nút
		<b>Tìm ngay!</b>;

|System| Hệ Thống

	:Hiển thị kết quả;

	#lightgreen:Sẵn sàng cho
	flow tiếp theo>
@enduml

PlantUML version 1.2021.2(Sun Mar 07 18:10:27 ICT 2021)
(GPL source distribution)
Java Runtime: OpenJDK Runtime Environment
JVM: Eclipse OpenJ9 VM
Default Encoding: UTF-8
Language: en
Country: US
--></g></svg>