<?xml version="1.0" encoding="UTF-8" standalone="no"?><svg xmlns="http://www.w3.org/2000/svg" xmlns:xlink="http://www.w3.org/1999/xlink" contentScriptType="application/ecmascript" contentStyleType="text/css" height="847.9167px" preserveAspectRatio="none" style="width:1514px;height:847px;" version="1.1" viewBox="0 0 1514 847" width="1514.5833px" zoomAndPan="magnify"><defs><filter height="300%" id="fdovgol1w65m3" width="300%" x="-1" y="-1"><feGaussianBlur result="blurOut" stdDeviation="4.166666666666667"/><feColorMatrix in="blurOut" result="blurOut2" type="matrix" values="0 0 0 0 0 0 0 0 0 0 0 0 0 0 0 0 0 0 .4 0"/><feOffset dx="8.333333333333334" dy="8.333333333333334" in="blurOut2" result="blurOut3"/><feBlend in="SourceGraphic" in2="blurOut3" mode="normal"/></filter></defs><g><ellipse cx="521.875" cy="104.366" fill="#000000" filter="url(#fdovgol1w65m3)" rx="20.8333" ry="20.8333" style="stroke:none;stroke-width:2.0833333333333335;"/><rect fill="#FEFECE" filter="url(#fdovgol1w65m3)" height="73.112" rx="26.0417" ry="26.0417" style="stroke:#A80036;stroke-width:3.125;" width="404.1667" x="319.7917" y="166.866"/><text fill="#000000" font-family="sans-serif" font-size="25" lengthAdjust="spacing" textLength="362.5" x="340.625" y="213.6515">Truy cập trang chủ của hệ thống</text><rect fill="#000000" filter="url(#fdovgol1w65m3)" height="12.5" rx="5.2083" ry="5.2083" style="stroke:#000000;stroke-width:2.0833333333333335;" width="956.25" x="43.75" y="281.6447"/><rect fill="#FEFECE" filter="url(#fdovgol1w65m3)" height="73.112" rx="26.0417" ry="26.0417" style="stroke:#A80036;stroke-width:3.125;" width="283.3333" x="68.75" y="335.8114"/><text fill="#000000" font-family="sans-serif" font-size="25" lengthAdjust="spacing" textLength="56.25" x="89.5833" y="382.5968">chọn</text><text fill="#000000" font-family="sans-serif" font-size="25" font-weight="bold" lengthAdjust="spacing" textLength="179.1667" x="152.0833" y="382.5968">Điểm xuất phát</text><rect fill="#FEFECE" filter="url(#fdovgol1w65m3)" height="73.112" rx="26.0417" ry="26.0417" style="stroke:#A80036;stroke-width:3.125;" width="235.4167" x="410.4167" y="335.8114"/><text fill="#000000" font-family="sans-serif" font-size="25" lengthAdjust="spacing" textLength="56.25" x="431.25" y="382.5968">chọn</text><text fill="#000000" font-family="sans-serif" font-size="25" font-weight="bold" lengthAdjust="spacing" textLength="131.25" x="493.75" y="382.5968">Điểm dừng</text><rect fill="#FEFECE" filter="url(#fdovgol1w65m3)" height="73.112" rx="26.0417" ry="26.0417" style="stroke:#A80036;stroke-width:3.125;" width="270.8333" x="704.1667" y="335.8114"/><text fill="#000000" font-family="sans-serif" font-size="25" lengthAdjust="spacing" textLength="56.25" x="725" y="382.5968">chọn</text><text fill="#000000" font-family="sans-serif" font-size="25" font-weight="bold" lengthAdjust="spacing" textLength="166.6667" x="787.5" y="382.5968">Giờ khởi hành</text><polygon fill="#FEFECE" filter="url(#fdovgol1w65m3)" points="521.875,429.7567,546.875,454.7567,521.875,479.7567,496.875,454.7567,521.875,429.7567" style="stroke:#A80036;stroke-width:3.125;"/><rect fill="#FEFECE" filter="url(#fdovgol1w65m3)" height="73.112" rx="26.0417" ry="26.0417" style="stroke:#A80036;stroke-width:3.125;" width="252.0833" x="395.8333" y="521.4233"/><text fill="#000000" font-family="sans-serif" font-size="25" lengthAdjust="spacing" textLength="91.6667" x="416.6667" y="568.2088">click nút</text><text fill="#000000" font-family="sans-serif" font-size="25" font-weight="bold" lengthAdjust="spacing" textLength="112.5" x="514.5833" y="568.2088">Tìm ngay!</text><line style="stroke:#000000;stroke-width:4.166666666666667;" x1="31.25" x2="31.25" y1="25.9481" y2="824.0926"/><rect fill="#FEFECE" filter="url(#fdovgol1w65m3)" height="73.112" rx="26.0417" ry="26.0417" style="stroke:#A80036;stroke-width:3.125;" width="218.75" x="1128.125" y="636.202"/><text fill="#000000" font-family="sans-serif" font-size="25" lengthAdjust="spacing" textLength="177.0833" x="1148.9583" y="682.9875">Hiển thị kết quả</text><polygon fill="#90EE90" filter="url(#fdovgol1w65m3)" points="1052.0833,750.9806,1422.9167,750.9806,1443.75,787.5366,1422.9167,824.0926,1052.0833,824.0926" style="stroke:#A80036;stroke-width:3.125;"/><text fill="#000000" font-family="sans-serif" font-size="25" lengthAdjust="spacing" textLength="329.1667" x="1072.9167" y="797.7661">Sẵn sàng đi tới flow tiếp theo</text><line style="stroke:#000000;stroke-width:4.166666666666667;" x1="1020.8333" x2="1020.8333" y1="25.9481" y2="824.0926"/><line style="stroke:#000000;stroke-width:4.166666666666667;" x1="1475" x2="1475" y1="25.9481" y2="824.0926"/><line style="stroke:#A80036;stroke-width:3.125;" x1="521.875" x2="521.875" y1="125.1994" y2="166.866"/><polygon fill="#A80036" points="513.5417,146.0327,521.875,166.866,530.2083,146.0327,521.875,154.366" style="stroke:#A80036;stroke-width:2.0833333333333335;"/><line style="stroke:#A80036;stroke-width:3.125;" x1="210.4167" x2="210.4167" y1="294.1447" y2="335.8114"/><polygon fill="#A80036" points="202.0833,314.978,210.4167,335.8114,218.75,314.978,210.4167,323.3114" style="stroke:#A80036;stroke-width:2.0833333333333335;"/><line style="stroke:#A80036;stroke-width:3.125;" x1="528.125" x2="528.125" y1="294.1447" y2="335.8114"/><polygon fill="#A80036" points="519.7917,314.978,528.125,335.8114,536.4583,314.978,528.125,323.3114" style="stroke:#A80036;stroke-width:2.0833333333333335;"/><line style="stroke:#A80036;stroke-width:3.125;" x1="839.5833" x2="839.5833" y1="294.1447" y2="335.8114"/><polygon fill="#A80036" points="831.25,314.978,839.5833,335.8114,847.9167,314.978,839.5833,323.3114" style="stroke:#A80036;stroke-width:2.0833333333333335;"/><line style="stroke:#A80036;stroke-width:3.125;" x1="210.4167" x2="210.4167" y1="408.9233" y2="454.7567"/><line style="stroke:#A80036;stroke-width:3.125;" x1="210.4167" x2="496.875" y1="454.7567" y2="454.7567"/><polygon fill="#A80036" points="476.0417,446.4233,496.875,454.7567,476.0417,463.09,484.375,454.7567" style="stroke:#A80036;stroke-width:2.0833333333333335;"/><line style="stroke:#A80036;stroke-width:3.125;" x1="528.125" x2="528.125" y1="408.9233" y2="454.7567"/><line style="stroke:#A80036;stroke-width:3.125;" x1="528.125" x2="546.875" y1="454.7567" y2="454.7567"/><polygon fill="#A80036" points="567.7083,446.4233,546.875,454.7567,567.7083,463.09,559.375,454.7567" style="stroke:#A80036;stroke-width:2.0833333333333335;"/><line style="stroke:#A80036;stroke-width:3.125;" x1="839.5833" x2="839.5833" y1="408.9233" y2="479.7567"/><line style="stroke:#A80036;stroke-width:3.125;" x1="839.5833" x2="521.875" y1="479.7567" y2="479.7567"/><line style="stroke:#A80036;stroke-width:3.125;" x1="521.875" x2="521.875" y1="479.7567" y2="521.4233"/><polygon fill="#A80036" points="513.5417,500.59,521.875,521.4233,530.2083,500.59,521.875,508.9233" style="stroke:#A80036;stroke-width:2.0833333333333335;"/><line style="stroke:#A80036;stroke-width:3.125;" x1="521.875" x2="521.875" y1="239.978" y2="281.6447"/><polygon fill="#A80036" points="513.5417,260.8114,521.875,281.6447,530.2083,260.8114,521.875,269.1447" style="stroke:#A80036;stroke-width:2.0833333333333335;"/><line style="stroke:#A80036;stroke-width:3.125;" x1="1237.5" x2="1237.5" y1="709.314" y2="750.9806"/><polygon fill="#A80036" points="1229.1667,730.1473,1237.5,750.9806,1245.8333,730.1473,1237.5,738.4806" style="stroke:#A80036;stroke-width:2.0833333333333335;"/><line style="stroke:#A80036;stroke-width:3.125;" x1="521.875" x2="521.875" y1="594.5353" y2="604.952"/><line style="stroke:#A80036;stroke-width:3.125;" x1="521.875" x2="1237.5" y1="604.952" y2="604.952"/><line style="stroke:#A80036;stroke-width:3.125;" x1="1237.5" x2="1237.5" y1="604.952" y2="636.202"/><polygon fill="#A80036" points="1229.1667,615.3687,1237.5,636.202,1245.8333,615.3687,1237.5,623.702" style="stroke:#A80036;stroke-width:2.0833333333333335;"/><text fill="#000000" font-family="sans-serif" font-size="37.5" lengthAdjust="spacing" textLength="72.9167" x="489.5833" y="64.8763">user</text><text fill="#000000" font-family="sans-serif" font-size="37.5" lengthAdjust="spacing" textLength="116.6667" x="1189.5833" y="64.8763">system</text><!--MD5=[a95a071a5c8f771cff9cd71e2cbca7b2]
@startuml
skinparam dpi 200

|user|
start
:Truy cập trang chủ của hệ thống;
fork
	:chọn <b>Điểm xuất phát</b>;
fork again
	:chọn <b>Điểm dừng</b>;
fork again
	:chọn <b>Giờ khởi hành</b>;
end merge
:click nút <b>Tìm ngay!</b>;
|system|
:Hiển thị kết quả;
#lightgreen:Sẵn sàng đi tới flow tiếp theo>
@enduml

PlantUML version 1.2021.2(Sun Mar 07 18:10:27 ICT 2021)
(GPL source distribution)
Java Runtime: OpenJDK Runtime Environment
JVM: Eclipse OpenJ9 VM
Default Encoding: UTF-8
Language: en
Country: US
--></g></svg>