<?xml version="1.0" encoding="UTF-8" standalone="no"?><svg xmlns="http://www.w3.org/2000/svg" xmlns:xlink="http://www.w3.org/1999/xlink" contentScriptType="application/ecmascript" contentStyleType="text/css" height="2002.0833px" preserveAspectRatio="none" style="width:1856px;height:2002px;" version="1.1" viewBox="0 0 1856 2002" width="1856.25px" zoomAndPan="magnify"><defs><filter height="300%" id="f1c80rmq3vf7n6" width="300%" x="-1" y="-1"><feGaussianBlur result="blurOut" stdDeviation="4.166666666666667"/><feColorMatrix in="blurOut" result="blurOut2" type="matrix" values="0 0 0 0 0 0 0 0 0 0 0 0 0 0 0 0 0 0 .4 0"/><feOffset dx="8.333333333333334" dy="8.333333333333334" in="blurOut2" result="blurOut3"/><feBlend in="SourceGraphic" in2="blurOut3" mode="normal"/></filter></defs><g><ellipse cx="194.7917" cy="104.366" fill="#000000" filter="url(#f1c80rmq3vf7n6)" rx="20.8333" ry="20.8333" style="stroke:none;stroke-width:2.0833333333333335;"/><rect fill="#FEFECE" filter="url(#f1c80rmq3vf7n6)" height="104.5573" rx="26.0417" ry="26.0417" style="stroke:#A80036;stroke-width:3.125;" width="233.3333" x="78.125" y="166.866"/><text fill="#000000" font-family="sans-serif" font-size="25" lengthAdjust="spacing" textLength="150" x="98.9583" y="213.6515">Mở màn hình</text><text fill="#000000" font-family="sans-serif" font-size="25" font-weight="bold" lengthAdjust="spacing" textLength="191.6667" x="98.9583" y="245.0968">Lấy lại mật khẩu</text><rect fill="#FEFECE" filter="url(#f1c80rmq3vf7n6)" height="104.5573" rx="26.0417" ry="26.0417" style="stroke:#A80036;stroke-width:3.125;" width="106.25" x="141.6667" y="313.09"/><text fill="#000000" font-family="sans-serif" font-size="25" lengthAdjust="spacing" textLength="62.5" x="162.5" y="359.8755">Nhập</text><text fill="#000000" font-family="sans-serif" font-size="25" font-weight="bold" lengthAdjust="spacing" textLength="64.5833" x="162.5" y="391.3208">Email</text><rect fill="#FEFECE" filter="url(#f1c80rmq3vf7n6)" height="104.5573" rx="26.0417" ry="26.0417" style="stroke:#A80036;stroke-width:3.125;" width="152.0833" x="118.75" y="459.314"/><text fill="#000000" font-family="sans-serif" font-size="25" lengthAdjust="spacing" textLength="97.9167" x="139.5833" y="506.0994">Click nút</text><text fill="#000000" font-family="sans-serif" font-size="25" font-weight="bold" lengthAdjust="spacing" textLength="110.4167" x="139.5833" y="537.5448">Xác nhận</text><rect fill="#FEFECE" filter="url(#f1c80rmq3vf7n6)" height="136.0026" rx="26.0417" ry="26.0417" style="stroke:#A80036;stroke-width:3.125;" width="302.0833" x="343.75" y="989.2619"/><text fill="#000000" font-family="sans-serif" font-size="25" lengthAdjust="spacing" textLength="102.0833" x="364.5833" y="1036.0474">Click link</text><text fill="#000000" font-family="sans-serif" font-size="25" font-weight="bold" lengthAdjust="spacing" textLength="156.25" x="364.5833" y="1067.4927">Đổi mật khẩu</text><text fill="#000000" font-family="sans-serif" font-size="25" lengthAdjust="spacing" textLength="260.4167" x="364.5833" y="1098.938">nhận được trong email</text><rect fill="#FEFECE" filter="url(#f1c80rmq3vf7n6)" height="73.112" rx="26.0417" ry="26.0417" style="stroke:#A80036;stroke-width:3.125;" width="302.0833" x="43.75" y="1459.3791"/><text fill="#000000" font-family="sans-serif" font-size="25" lengthAdjust="spacing" textLength="97.9167" x="64.5833" y="1506.1646">Click nút</text><text fill="#000000" font-family="sans-serif" font-size="25" font-weight="bold" lengthAdjust="spacing" textLength="156.25" x="168.75" y="1506.1646">Đổi mật khẩu</text><rect fill="#FEFECE" filter="url(#f1c80rmq3vf7n6)" height="104.5573" rx="26.0417" ry="26.0417" style="stroke:#A80036;stroke-width:3.125;" width="222.9167" x="83.3333" y="1313.1551"/><text fill="#000000" font-family="sans-serif" font-size="25" lengthAdjust="spacing" textLength="175" x="104.1667" y="1359.9406">Nhập mật khẩu</text><text fill="#000000" font-family="sans-serif" font-size="25" font-weight="bold" lengthAdjust="spacing" textLength="56.25" x="104.1667" y="1391.3859">2 lần</text><line style="stroke:#000000;stroke-width:4.166666666666667;" x1="31.25" x2="31.25" y1="25.9481" y2="1967.1326"/><polygon fill="#FEFECE" filter="url(#f1c80rmq3vf7n6)" points="1050,605.5379,1179.1667,605.5379,1204.1667,630.5379,1179.1667,655.5379,1050,655.5379,1025,630.5379,1050,605.5379" style="stroke:#A80036;stroke-width:3.125;"/><text fill="#000000" font-family="sans-serif" font-size="22.9167" lengthAdjust="spacing" textLength="129.1667" x="1050" y="639.915">Email tồn tại?</text><text fill="#000000" font-family="sans-serif" font-size="22.9167" lengthAdjust="spacing" textLength="64.5833" x="960.4167" y="625.5025">Không</text><text fill="#000000" font-family="sans-serif" font-size="22.9167" lengthAdjust="spacing" textLength="25" x="1204.1667" y="625.5025">có</text><rect fill="#FEFECE" filter="url(#f1c80rmq3vf7n6)" height="104.5573" rx="26.0417" ry="26.0417" style="stroke:#A80036;stroke-width:3.125;" width="270.8333" x="679.1667" y="697.2046"/><text fill="#000000" font-family="sans-serif" font-size="25" lengthAdjust="spacing" textLength="87.5" x="700" y="743.9901">Hiển thị</text><text fill="#000000" font-family="sans-serif" font-size="25" font-weight="bold" lengthAdjust="spacing" textLength="229.1667" x="700" y="775.4354">Email không tồn tại!</text><ellipse cx="814.5833" cy="895.5119" fill="#FFFFFF" filter="url(#f1c80rmq3vf7n6)" rx="20.8333" ry="20.8333" style="stroke:#000000;stroke-width:3.125;"/><line style="stroke:#000000;stroke-width:5.208333333333334;" x1="801.6934" x2="827.4733" y1="882.6219" y2="908.4018"/><line style="stroke:#000000;stroke-width:5.208333333333334;" x1="827.4733" x2="801.6934" y1="882.6219" y2="908.4018"/><rect fill="#000000" filter="url(#f1c80rmq3vf7n6)" height="12.5" rx="5.2083" ry="5.2083" style="stroke:#000000;stroke-width:2.0833333333333335;" width="804.1667" x="991.6667" y="697.2046"/><rect fill="#FEFECE" filter="url(#f1c80rmq3vf7n6)" height="104.5573" rx="26.0417" ry="26.0417" style="stroke:#A80036;stroke-width:3.125;" width="283.3333" x="1020.8333" y="751.3713"/><text fill="#000000" font-family="sans-serif" font-size="25" lengthAdjust="spacing" textLength="241.6667" x="1041.6667" y="798.1567">Gửi link đổi mật khẩu</text><text fill="#000000" font-family="sans-serif" font-size="25" lengthAdjust="spacing" textLength="200" x="1041.6667" y="829.6021">tới email đã nhập</text><rect fill="#FEFECE" filter="url(#f1c80rmq3vf7n6)" height="104.5573" rx="26.0417" ry="26.0417" style="stroke:#A80036;stroke-width:3.125;" width="445.8333" x="1325" y="751.3713"/><text fill="#000000" font-family="sans-serif" font-size="25" lengthAdjust="spacing" textLength="87.5" x="1345.8333" y="798.1567">Hiển thị</text><text fill="#000000" font-family="sans-serif" font-size="25" font-weight="bold" lengthAdjust="spacing" textLength="404.1667" x="1345.8333" y="829.6021">Mở email để tiếp tục đổi mật khẩu!</text><polygon fill="#FEFECE" filter="url(#f1c80rmq3vf7n6)" points="1377.0833,897.5952,1402.0833,922.5952,1377.0833,947.5952,1352.0833,922.5952,1377.0833,897.5952" style="stroke:#A80036;stroke-width:3.125;"/><polygon fill="#90EE90" filter="url(#f1c80rmq3vf7n6)" points="1009.375,1166.9312,1219.7917,1166.9312,1240.625,1219.2098,1219.7917,1271.4884,1009.375,1271.4884" style="stroke:#A80036;stroke-width:3.125;"/><text fill="#000000" font-family="sans-serif" font-size="25" lengthAdjust="spacing" textLength="168.75" x="1030.2083" y="1213.7166">Hiện màn hình</text><text fill="#000000" font-family="sans-serif" font-size="25" font-weight="bold" lengthAdjust="spacing" textLength="156.25" x="1030.2083" y="1245.1619">Đổi mật khẩu</text><text fill="#000000" font-family="sans-serif" font-size="25" lengthAdjust="spacing" textLength="0" x="1192.7083" y="1245.1619"/><polygon fill="#FEFECE" filter="url(#f1c80rmq3vf7n6)" points="1035.4167,1574.1577,1193.75,1574.1577,1218.75,1599.1577,1193.75,1624.1577,1035.4167,1624.1577,1010.4167,1599.1577,1035.4167,1574.1577" style="stroke:#A80036;stroke-width:3.125;"/><text fill="#000000" font-family="sans-serif" font-size="22.9167" lengthAdjust="spacing" textLength="158.3333" x="1035.4167" y="1608.5347">Mật khẩu khớp?</text><text fill="#000000" font-family="sans-serif" font-size="22.9167" lengthAdjust="spacing" textLength="64.5833" x="1218.75" y="1594.1223">Không</text><rect fill="#FEFECE" filter="url(#f1c80rmq3vf7n6)" height="167.4479" rx="26.0417" ry="26.0417" style="stroke:#A80036;stroke-width:3.125;" width="341.6667" x="943.75" y="1712.1847"/><text fill="#000000" font-family="sans-serif" font-size="25" lengthAdjust="spacing" textLength="87.5" x="964.5833" y="1758.9701">Hiển thị</text><text fill="#000000" font-family="sans-serif" font-size="25" font-weight="bold" lengthAdjust="spacing" textLength="300" x="964.5833" y="1790.4154">Đổi mật khẩu thành công!</text><text fill="#000000" font-family="sans-serif" font-size="25" lengthAdjust="spacing" textLength="66.6667" x="964.5833" y="1821.8608">và nút</text><text fill="#000000" font-family="sans-serif" font-size="25" font-weight="bold" lengthAdjust="spacing" textLength="222.9167" x="964.5833" y="1853.3061">Click để đăng nhập</text><text fill="#000000" font-family="sans-serif" font-size="25" lengthAdjust="spacing" textLength="0" x="1193.75" y="1853.3061"/><ellipse cx="1114.5833" cy="1944.2159" fill="#FFFFFF" filter="url(#f1c80rmq3vf7n6)" rx="22.9167" ry="22.9167" style="stroke:#000000;stroke-width:2.0833333333333335;"/><ellipse cx="1114.5833" cy="1944.2159" fill="#000000" rx="12.5" ry="12.5" style="stroke:#7F7F7F;stroke-width:2.0833333333333335;"/><line style="stroke:#000000;stroke-width:4.166666666666667;" x1="666.6667" x2="666.6667" y1="25.9481" y2="1967.1326"/><line style="stroke:#000000;stroke-width:4.166666666666667;" x1="1816.6667" x2="1816.6667" y1="25.9481" y2="1967.1326"/><line style="stroke:#A80036;stroke-width:3.125;" x1="194.7917" x2="194.7917" y1="125.1994" y2="166.866"/><polygon fill="#A80036" points="186.4583,146.0327,194.7917,166.866,203.125,146.0327,194.7917,154.366" style="stroke:#A80036;stroke-width:2.0833333333333335;"/><line style="stroke:#A80036;stroke-width:3.125;" x1="194.7917" x2="194.7917" y1="271.4233" y2="313.09"/><polygon fill="#A80036" points="186.4583,292.2567,194.7917,313.09,203.125,292.2567,194.7917,300.59" style="stroke:#A80036;stroke-width:2.0833333333333335;"/><line style="stroke:#A80036;stroke-width:3.125;" x1="194.7917" x2="194.7917" y1="417.6473" y2="459.314"/><polygon fill="#A80036" points="186.4583,438.4806,194.7917,459.314,203.125,438.4806,194.7917,446.814" style="stroke:#A80036;stroke-width:2.0833333333333335;"/><line style="stroke:#A80036;stroke-width:3.125;" x1="194.7917" x2="194.7917" y1="1417.7124" y2="1459.3791"/><polygon fill="#A80036" points="186.4583,1438.5457,194.7917,1459.3791,203.125,1438.5457,194.7917,1446.8791" style="stroke:#A80036;stroke-width:2.0833333333333335;"/><line style="stroke:#A80036;stroke-width:3.125;" x1="814.5833" x2="814.5833" y1="801.7619" y2="874.6785"/><polygon fill="#A80036" points="806.25,853.8452,814.5833,874.6785,822.9167,853.8452,814.5833,862.1785" style="stroke:#A80036;stroke-width:2.0833333333333335;"/><line style="stroke:#A80036;stroke-width:3.125;" x1="1162.5" x2="1162.5" y1="709.7046" y2="751.3713"/><polygon fill="#A80036" points="1154.1667,730.5379,1162.5,751.3713,1170.8333,730.5379,1162.5,738.8713" style="stroke:#A80036;stroke-width:2.0833333333333335;"/><line style="stroke:#A80036;stroke-width:3.125;" x1="1547.9167" x2="1547.9167" y1="709.7046" y2="751.3713"/><polygon fill="#A80036" points="1539.5833,730.5379,1547.9167,751.3713,1556.25,730.5379,1547.9167,738.8713" style="stroke:#A80036;stroke-width:2.0833333333333335;"/><line style="stroke:#A80036;stroke-width:3.125;" x1="1162.5" x2="1162.5" y1="855.9285" y2="922.5952"/><line style="stroke:#A80036;stroke-width:3.125;" x1="1162.5" x2="1352.0833" y1="922.5952" y2="922.5952"/><polygon fill="#A80036" points="1331.25,914.2619,1352.0833,922.5952,1331.25,930.9285,1339.5833,922.5952" style="stroke:#A80036;stroke-width:2.0833333333333335;"/><line style="stroke:#A80036;stroke-width:3.125;" x1="1547.9167" x2="1547.9167" y1="855.9285" y2="922.5952"/><line style="stroke:#A80036;stroke-width:3.125;" x1="1547.9167" x2="1402.0833" y1="922.5952" y2="922.5952"/><polygon fill="#A80036" points="1422.9167,914.2619,1402.0833,922.5952,1422.9167,930.9285,1414.5833,922.5952" style="stroke:#A80036;stroke-width:2.0833333333333335;"/><line style="stroke:#A80036;stroke-width:3.125;" x1="1025" x2="814.5833" y1="630.5379" y2="630.5379"/><line style="stroke:#A80036;stroke-width:3.125;" x1="814.5833" x2="814.5833" y1="630.5379" y2="697.2046"/><polygon fill="#A80036" points="806.25,676.3713,814.5833,697.2046,822.9167,676.3713,814.5833,684.7046" style="stroke:#A80036;stroke-width:2.0833333333333335;"/><line style="stroke:#A80036;stroke-width:3.125;" x1="1204.1667" x2="1377.0833" y1="630.5379" y2="630.5379"/><line style="stroke:#A80036;stroke-width:3.125;" x1="1377.0833" x2="1377.0833" y1="630.5379" y2="697.2046"/><polygon fill="#A80036" points="1368.75,676.3713,1377.0833,697.2046,1385.4167,676.3713,1377.0833,684.7046" style="stroke:#A80036;stroke-width:2.0833333333333335;"/><line style="stroke:#A80036;stroke-width:3.125;" x1="494.7917" x2="494.7917" y1="1125.2645" y2="1133.5978"/><line style="stroke:#A80036;stroke-width:3.125;" x1="494.7917" x2="1114.5833" y1="1133.5978" y2="1133.5978"/><line style="stroke:#A80036;stroke-width:3.125;" x1="1114.5833" x2="1114.5833" y1="1133.5978" y2="1166.9312"/><polygon fill="#A80036" points="1106.25,1146.0978,1114.5833,1166.9312,1122.9167,1146.0978,1114.5833,1154.4312" style="stroke:#A80036;stroke-width:2.0833333333333335;"/><line style="stroke:#A80036;stroke-width:3.125;" x1="1114.5833" x2="1114.5833" y1="1624.1577" y2="1712.1847"/><polygon fill="#A80036" points="1106.25,1691.3513,1114.5833,1712.1847,1122.9167,1691.3513,1114.5833,1699.6847" style="stroke:#A80036;stroke-width:2.0833333333333335;"/><text fill="#000000" font-family="sans-serif" font-size="22.9167" lengthAdjust="spacing" textLength="27.0833" x="1122.9167" y="1670.6909">Có</text><line style="stroke:#A80036;stroke-width:3.125;" x1="1114.5833" x2="1114.5833" y1="1879.6326" y2="1921.2992"/><polygon fill="#A80036" points="1106.25,1900.4659,1114.5833,1921.2992,1122.9167,1900.4659,1114.5833,1908.7992" style="stroke:#A80036;stroke-width:2.0833333333333335;"/><line style="stroke:#A80036;stroke-width:3.125;" x1="1377.0833" x2="1377.0833" y1="947.5952" y2="958.0119"/><line style="stroke:#A80036;stroke-width:3.125;" x1="1377.0833" x2="494.7917" y1="958.0119" y2="958.0119"/><line style="stroke:#A80036;stroke-width:3.125;" x1="494.7917" x2="494.7917" y1="958.0119" y2="989.2619"/><polygon fill="#A80036" points="486.4583,968.4285,494.7917,989.2619,503.125,968.4285,494.7917,976.7619" style="stroke:#A80036;stroke-width:2.0833333333333335;"/><line style="stroke:#A80036;stroke-width:3.125;" x1="194.7917" x2="194.7917" y1="563.8713" y2="574.2879"/><line style="stroke:#A80036;stroke-width:3.125;" x1="194.7917" x2="1114.5833" y1="574.2879" y2="574.2879"/><line style="stroke:#A80036;stroke-width:3.125;" x1="1114.5833" x2="1114.5833" y1="574.2879" y2="605.5379"/><polygon fill="#A80036" points="1106.25,584.7046,1114.5833,605.5379,1122.9167,584.7046,1114.5833,593.0379" style="stroke:#A80036;stroke-width:2.0833333333333335;"/><line style="stroke:#A80036;stroke-width:3.125;" x1="1218.75" x2="1290.625" y1="1599.1577" y2="1599.1577"/><polygon fill="#A80036" points="1282.2917,1503.1291,1290.625,1482.2957,1298.9583,1503.1291,1290.625,1494.7957" style="stroke:#A80036;stroke-width:3.125;"/><line style="stroke:#A80036;stroke-width:3.125;" x1="1290.625" x2="1290.625" y1="1365.4338" y2="1599.1577"/><line style="stroke:#A80036;stroke-width:3.125;" x1="1290.625" x2="306.25" y1="1365.4338" y2="1365.4338"/><polygon fill="#A80036" points="327.0833,1357.1004,306.25,1365.4338,327.0833,1373.7671,318.75,1365.4338" style="stroke:#A80036;stroke-width:2.0833333333333335;"/><line style="stroke:#A80036;stroke-width:3.125;" x1="194.7917" x2="194.7917" y1="1532.491" y2="1542.9077"/><line style="stroke:#A80036;stroke-width:3.125;" x1="194.7917" x2="1114.5833" y1="1542.9077" y2="1542.9077"/><line style="stroke:#A80036;stroke-width:3.125;" x1="1114.5833" x2="1114.5833" y1="1542.9077" y2="1574.1577"/><polygon fill="#A80036" points="1106.25,1553.3244,1114.5833,1574.1577,1122.9167,1553.3244,1114.5833,1561.6577" style="stroke:#A80036;stroke-width:2.0833333333333335;"/><line style="stroke:#A80036;stroke-width:3.125;" x1="1114.5833" x2="1114.5833" y1="1271.4884" y2="1281.9051"/><line style="stroke:#A80036;stroke-width:3.125;" x1="1114.5833" x2="194.7917" y1="1281.9051" y2="1281.9051"/><line style="stroke:#A80036;stroke-width:3.125;" x1="194.7917" x2="194.7917" y1="1281.9051" y2="1313.1551"/><polygon fill="#A80036" points="186.4583,1292.3218,194.7917,1313.1551,203.125,1292.3218,194.7917,1300.6551" style="stroke:#A80036;stroke-width:2.0833333333333335;"/><text fill="#000000" font-family="sans-serif" font-size="37.5" lengthAdjust="spacing" textLength="262.5" x="222.9167" y="64.8763">Khách Vãng Lai</text><text fill="#000000" font-family="sans-serif" font-size="37.5" lengthAdjust="spacing" textLength="166.6667" x="1163.5417" y="64.8763">Hệ Thống</text><!--MD5=[5b63ed088be0ec75221e0fd5da579c85]
@startuml
skinparam dpi 200

|User| Khách Vãng Lai
	start

	:Mở màn hình
	<b>Lấy lại mật khẩu</b>;

	:Nhập
	<b>Email</b>;

	:Click nút
	<b>Xác nhận</b>;

|System| Hệ Thống

	if (Email tồn tại?) is (Không) then

		:Hiển thị
		<b>Email không tồn tại!</b>;

		end
	else (có)
		fork
			:Gửi link đổi mật khẩu
			tới email đã nhập;
		fork again
			:Hiển thị
			<b>Mở email để tiếp tục đổi mật khẩu!</b>;

		end merge

		|User|
			:Click link
			<b>Đổi mật khẩu</b>
			nhận được trong email;
	endif

|System|

	#lightgreen:Hiện màn hình
	<b>Đổi mật khẩu</b> >
|User|

	repeat :Nhập mật khẩu \n<b>2 lần</b>;
		:Click nút <b>Đổi mật khẩu</b>;

|System| Hệ Thống
		repeat while (Mật khẩu khớp?) is (Không)
	->Có;

	:Hiển thị
	<b>Đổi mật khẩu thành công!</b>
	và nút
	<b>Click để đăng nhập</b> ;

	stop
@enduml

PlantUML version 1.2021.2(Sun Mar 07 18:10:27 ICT 2021)
(GPL source distribution)
Java Runtime: OpenJDK Runtime Environment
JVM: Eclipse OpenJ9 VM
Default Encoding: UTF-8
Language: en
Country: US
--></g></svg>