<?xml version="1.0" encoding="UTF-8" standalone="no"?><svg xmlns="http://www.w3.org/2000/svg" xmlns:xlink="http://www.w3.org/1999/xlink" contentScriptType="application/ecmascript" contentStyleType="text/css" height="587.5px" preserveAspectRatio="none" style="width:1485px;height:587px;" version="1.1" viewBox="0 0 1485 587" width="1485.4167px" zoomAndPan="magnify"><defs><filter height="300%" id="f1mx5cqvogys2h" width="300%" x="-1" y="-1"><feGaussianBlur result="blurOut" stdDeviation="4.166666666666667"/><feColorMatrix in="blurOut" result="blurOut2" type="matrix" values="0 0 0 0 0 0 0 0 0 0 0 0 0 0 0 0 0 0 .4 0"/><feOffset dx="8.333333333333334" dy="8.333333333333334" in="blurOut2" result="blurOut3"/><feBlend in="SourceGraphic" in2="blurOut3" mode="normal"/></filter></defs><g><ellipse cx="257.2917" cy="104.366" fill="#000000" filter="url(#f1mx5cqvogys2h)" rx="20.8333" ry="20.8333" style="stroke:none;stroke-width:2.0833333333333335;"/><rect fill="#FEFECE" filter="url(#f1mx5cqvogys2h)" height="73.112" rx="26.0417" ry="26.0417" style="stroke:#A80036;stroke-width:3.125;" width="389.5833" x="62.5" y="166.866"/><text fill="#000000" font-family="sans-serif" font-size="25" lengthAdjust="spacing" textLength="150" x="83.3333" y="213.6515">Mở màn hình</text><text fill="#FF0000" font-family="sans-serif" font-size="25" font-weight="bold" lengthAdjust="spacing" textLength="191.6667" x="239.5833" y="213.6515">Lấy lại mật khẩu</text><polygon fill="#FEFECE" filter="url(#f1mx5cqvogys2h)" points="156.25,281.6447,358.3333,281.6447,383.3333,306.6447,358.3333,331.6447,156.25,331.6447,131.25,306.6447,156.25,281.6447" style="stroke:#A80036;stroke-width:3.125;"/><text fill="#000000" font-family="sans-serif" font-size="22.9167" lengthAdjust="spacing" textLength="202.0833" x="156.25" y="316.0217">Chọn phương thức?</text><text fill="#000000" font-family="sans-serif" font-size="22.9167" lengthAdjust="spacing" textLength="89.5833" x="41.6667" y="301.6093">qua SMS</text><text fill="#000000" font-family="sans-serif" font-size="22.9167" lengthAdjust="spacing" textLength="50" x="383.3333" y="301.6093">email</text><line style="stroke:#000000;stroke-width:4.166666666666667;" x1="31.25" x2="31.25" y1="25.9481" y2="563.09"/><polygon fill="#90EE90" filter="url(#f1mx5cqvogys2h)" points="504.1667,373.3114,922.9167,373.3114,943.75,409.8674,922.9167,446.4233,504.1667,446.4233" style="stroke:#A80036;stroke-width:3.125;"/><text fill="#000000" font-family="sans-serif" font-size="25" lengthAdjust="spacing" textLength="95.8333" x="525" y="420.0968">đến flow</text><text fill="#FF0000" font-family="sans-serif" font-size="25" font-weight="bold" lengthAdjust="spacing" textLength="268.75" x="627.0833" y="420.0968">Lấy mật khẩu qua SMS</text><text fill="#000000" font-family="sans-serif" font-size="25" lengthAdjust="spacing" textLength="0" x="902.0833" y="420.0968"/><ellipse cx="713.5417" cy="508.9233" fill="#FFFFFF" filter="url(#f1mx5cqvogys2h)" rx="20.8333" ry="20.8333" style="stroke:#000000;stroke-width:3.125;"/><line style="stroke:#000000;stroke-width:5.208333333333334;" x1="700.6517" x2="726.4316" y1="496.0334" y2="521.8133"/><line style="stroke:#000000;stroke-width:5.208333333333334;" x1="726.4316" x2="700.6517" y1="496.0334" y2="521.8133"/><polygon fill="#90EE90" filter="url(#f1mx5cqvogys2h)" points="964.5833,373.3114,1393.75,373.3114,1414.5833,409.8674,1393.75,446.4233,964.5833,446.4233" style="stroke:#A80036;stroke-width:3.125;"/><text fill="#000000" font-family="sans-serif" font-size="25" lengthAdjust="spacing" textLength="95.8333" x="985.4167" y="420.0968">đến flow</text><text fill="#FF0000" font-family="sans-serif" font-size="25" font-weight="bold" lengthAdjust="spacing" textLength="279.1667" x="1087.5" y="420.0968">Lấy mật khẩu qua email</text><text fill="#000000" font-family="sans-serif" font-size="25" lengthAdjust="spacing" textLength="0" x="1372.9167" y="420.0968"/><ellipse cx="1179.1667" cy="508.9233" fill="#FFFFFF" filter="url(#f1mx5cqvogys2h)" rx="20.8333" ry="20.8333" style="stroke:#000000;stroke-width:3.125;"/><line style="stroke:#000000;stroke-width:5.208333333333334;" x1="1166.2767" x2="1192.0566" y1="496.0334" y2="521.8133"/><line style="stroke:#000000;stroke-width:5.208333333333334;" x1="1192.0566" x2="1166.2767" y1="496.0334" y2="521.8133"/><line style="stroke:#000000;stroke-width:4.166666666666667;" x1="472.9167" x2="472.9167" y1="25.9481" y2="563.09"/><line style="stroke:#000000;stroke-width:4.166666666666667;" x1="1445.8333" x2="1445.8333" y1="25.9481" y2="563.09"/><line style="stroke:#A80036;stroke-width:3.125;" x1="257.2917" x2="257.2917" y1="125.1994" y2="166.866"/><polygon fill="#A80036" points="248.9583,146.0327,257.2917,166.866,265.625,146.0327,257.2917,154.366" style="stroke:#A80036;stroke-width:2.0833333333333335;"/><line style="stroke:#A80036;stroke-width:3.125;" x1="257.2917" x2="257.2917" y1="239.978" y2="281.6447"/><polygon fill="#A80036" points="248.9583,260.8114,257.2917,281.6447,265.625,260.8114,257.2917,269.1447" style="stroke:#A80036;stroke-width:2.0833333333333335;"/><line style="stroke:#A80036;stroke-width:3.125;" x1="713.5417" x2="713.5417" y1="446.4233" y2="488.09"/><polygon fill="#A80036" points="705.2083,467.2567,713.5417,488.09,721.875,467.2567,713.5417,475.59" style="stroke:#A80036;stroke-width:2.0833333333333335;"/><line style="stroke:#A80036;stroke-width:3.125;" x1="1179.1667" x2="1179.1667" y1="446.4233" y2="488.09"/><polygon fill="#A80036" points="1170.8333,467.2567,1179.1667,488.09,1187.5,467.2567,1179.1667,475.59" style="stroke:#A80036;stroke-width:2.0833333333333335;"/><line style="stroke:#A80036;stroke-width:3.125;" x1="131.25" x2="106.25" y1="306.6447" y2="306.6447"/><line style="stroke:#A80036;stroke-width:3.125;" x1="106.25" x2="106.25" y1="306.6447" y2="344.1447"/><line style="stroke:#A80036;stroke-width:3.125;" x1="106.25" x2="713.5417" y1="344.1447" y2="344.1447"/><line style="stroke:#A80036;stroke-width:3.125;" x1="713.5417" x2="713.5417" y1="344.1447" y2="373.3114"/><polygon fill="#A80036" points="705.2083,352.478,713.5417,373.3114,721.875,352.478,713.5417,360.8114" style="stroke:#A80036;stroke-width:2.0833333333333335;"/><line style="stroke:#A80036;stroke-width:3.125;" x1="383.3333" x2="1179.1667" y1="306.6447" y2="306.6447"/><line style="stroke:#A80036;stroke-width:3.125;" x1="1179.1667" x2="1179.1667" y1="306.6447" y2="373.3114"/><polygon fill="#A80036" points="1170.8333,352.478,1179.1667,373.3114,1187.5,352.478,1179.1667,360.8114" style="stroke:#A80036;stroke-width:2.0833333333333335;"/><text fill="#000000" font-family="sans-serif" font-size="37.5" lengthAdjust="spacing" textLength="245.8333" x="134.375" y="64.8763">Khách vãng lai</text><text fill="#000000" font-family="sans-serif" font-size="37.5" lengthAdjust="spacing" textLength="152.0833" x="888.5417" y="64.8763">Hệ thống</text><!--MD5=[cba9c68e2f0064520c8a00f48621aa5e]
@startuml
skinparam dpi 200

|User| Khách vãng lai
start
:Mở màn hình <b><color:red>Lấy lại mật khẩu</color></b>;
if (Chọn phương thức?) is (qua SMS) then
	|system| Hệ thống
	#lightgreen:đến flow <b><color:red>Lấy mật khẩu qua SMS</color></b> >
	end
else (email)
	|system|
	#lightgreen:đến flow <b><color:red>Lấy mật khẩu qua email</color></b> >
	end
endif

@enduml

PlantUML version 1.2021.2(Sun Mar 07 18:10:27 ICT 2021)
(GPL source distribution)
Java Runtime: OpenJDK Runtime Environment
JVM: Eclipse OpenJ9 VM
Default Encoding: UTF-8
Language: en
Country: US
--></g></svg>