<?xml version="1.0" encoding="UTF-8" standalone="no"?><svg xmlns="http://www.w3.org/2000/svg" xmlns:xlink="http://www.w3.org/1999/xlink" contentScriptType="application/ecmascript" contentStyleType="text/css" height="259px" preserveAspectRatio="none" style="width:330px;height:259px;" version="1.1" viewBox="0 0 330 259" width="330px" zoomAndPan="magnify"><defs><filter height="300%" id="f1sdvnj9wtgj7s" width="300%" x="-1" y="-1"><feGaussianBlur result="blurOut" stdDeviation="2.0"/><feColorMatrix in="blurOut" result="blurOut2" type="matrix" values="0 0 0 0 0 0 0 0 0 0 0 0 0 0 0 0 0 0 .4 0"/><feOffset dx="4.0" dy="4.0" in="blurOut2" result="blurOut3"/><feBlend in="SourceGraphic" in2="blurOut3" mode="normal"/></filter></defs><g><!--MD5=[338e9af232e5abde8a6bc8ae9f528414]
entity g--><ellipse cx="52.5" cy="106.5" fill="#FEFECE" filter="url(#f1sdvnj9wtgj7s)" rx="4.5" ry="4.5" style="stroke:#A80036;stroke-width:1.5;"/><path d="M40,113 L40,118 L49.5,118 L49.5,120.2574 L40,129.7574 L44.2426,134 L52.5,125.7426 L60.7574,134 L65,129.7574 L55.5,120.2574 L55.5,118 L65,118 L65,113 L40,113 " fill="#FEFECE" filter="url(#f1sdvnj9wtgj7s)" style="stroke:#A80036;stroke-width:1.5;"/><text fill="#000000" font-family="sans-serif" font-size="14" lengthAdjust="spacing" textLength="93" x="6" y="153.0332">Khách vãng lai</text><ellipse cx="239.1531" cy="22.4306" fill="#FEFECE" filter="url(#f1sdvnj9wtgj7s)" rx="70.1531" ry="16.4306" style="stroke:#A80036;stroke-width:1.5;"/><text fill="#000000" font-family="sans-serif" font-size="14" lengthAdjust="spacing" textLength="88" x="192.1531" y="26.9472">Tìm chuyến đi</text><ellipse cx="238.8789" cy="92.3758" fill="#FEFECE" filter="url(#f1sdvnj9wtgj7s)" rx="79.8789" ry="18.3758" style="stroke:#A80036;stroke-width:1.5;"/><text fill="#000000" font-family="sans-serif" font-size="14" lengthAdjust="spacing" textLength="114" x="180.8373" y="96.4024">Đăng ký tài khoản</text><ellipse cx="239.1002" cy="163.52" fill="#FEFECE" filter="url(#f1sdvnj9wtgj7s)" rx="75.6002" ry="17.52" style="stroke:#A80036;stroke-width:1.5;"/><text fill="#000000" font-family="sans-serif" font-size="14" lengthAdjust="spacing" textLength="103" x="184.6002" y="168.0366">Lấy lại mật khẩu</text><ellipse cx="239.1463" cy="231.5942" fill="#FEFECE" filter="url(#f1sdvnj9wtgj7s)" rx="61.6463" ry="15.5942" style="stroke:#A80036;stroke-width:1.5;"/><text fill="#000000" font-family="sans-serif" font-size="14" lengthAdjust="spacing" textLength="70" x="201.1463" y="236.1108">Đăng nhập</text><!--MD5=[e2f46a1c35e3170542ad66552c52ebda]
link g to Tìm chuyến đi--><path d="M90.96,100.33 C110.63,86.22 135.49,69.43 159,56.5 C170.9,49.96 184.31,43.78 196.66,38.52 " fill="none" id="g-to-Tìm chuyến đi" style="stroke:#0000FF;stroke-width:1.0;"/><polygon fill="#0000FF" points="201.52,36.48,191.6731,36.286,196.9118,38.4203,194.7775,43.6591,201.52,36.48" style="stroke:#0000FF;stroke-width:1.0;"/><!--MD5=[94c80110004b62366711ee15228d6eef]
link g to Đăng ký tài khoản--><path d="M99.11,119.6 C121.12,115.31 147.95,110.07 172.14,105.35 " fill="none" id="g-to-Đăng ký tài khoản" style="stroke:#0000FF;stroke-width:1.0;"/><polygon fill="#0000FF" points="177.25,104.35,167.6513,102.1444,172.3422,105.3059,169.1807,109.9968,177.25,104.35" style="stroke:#0000FF;stroke-width:1.0;"/><!--MD5=[4e77e25d5f096b4c4bdf58517557d23a]
link g to Lấy lại mật khẩu--><path d="M99.11,137.15 C122.02,141.5 150.13,146.83 175.06,151.56 " fill="none" id="g-to-Lấy lại mật khẩu" style="stroke:#0000FF;stroke-width:1.0;"/><polygon fill="#0000FF" points="180,152.5,171.8992,146.8985,175.0869,151.5717,170.4138,154.7594,180,152.5" style="stroke:#0000FF;stroke-width:1.0;"/><!--MD5=[23a30ef04013b246110a83529dee2554]
link g to Đăng nhập--><path d="M91.98,156.59 C111.51,170.18 135.93,186.17 159,198.5 C171.61,205.24 185.9,211.57 198.82,216.85 " fill="none" id="g-to-Đăng nhập" style="stroke:#0000FF;stroke-width:1.0;"/><polygon fill="#0000FF" points="203.51,218.75,196.658,211.6754,198.8726,216.8808,193.6672,219.0953,203.51,218.75" style="stroke:#0000FF;stroke-width:1.0;"/><!--MD5=[9ab4bece2e67bae3e93423dc420ffa54]
@startuml
left to right direction
skinparam actorStyle Hollow
:Khách vãng lai: as g
g - -> (Tìm chuyến đi)#blue
g - -> (Đăng ký tài khoản)#blue
g - -> (Lấy lại mật khẩu)#blue
g - -> (Đăng nhập)#blue
@enduml

PlantUML version 1.2021.2(Sun Mar 07 18:10:27 ICT 2021)
(GPL source distribution)
Java Runtime: OpenJDK Runtime Environment
JVM: Eclipse OpenJ9 VM
Default Encoding: UTF-8
Language: en
Country: US
--></g></svg>