<?xml version="1.0" encoding="UTF-8" standalone="no"?><svg xmlns="http://www.w3.org/2000/svg" xmlns:xlink="http://www.w3.org/1999/xlink" contentScriptType="application/ecmascript" contentStyleType="text/css" height="259px" preserveAspectRatio="none" style="width:337px;height:259px;" version="1.1" viewBox="0 0 337 259" width="337px" zoomAndPan="magnify"><defs><filter height="300%" id="fnjhre542tnig" width="300%" x="-1" y="-1"><feGaussianBlur result="blurOut" stdDeviation="2.0"/><feColorMatrix in="blurOut" result="blurOut2" type="matrix" values="0 0 0 0 0 0 0 0 0 0 0 0 0 0 0 0 0 0 .4 0"/><feOffset dx="4.0" dy="4.0" in="blurOut2" result="blurOut3"/><feBlend in="SourceGraphic" in2="blurOut3" mode="normal"/></filter></defs><g><!--MD5=[338e9af232e5abde8a6bc8ae9f528414]
entity g--><ellipse cx="56" cy="106.5" fill="#FEFECE" filter="url(#fnjhre542tnig)" rx="4.5" ry="4.5" style="stroke:#A80036;stroke-width:1.5;"/><path d="M43.5,113 L43.5,118 L53,118 L53,120.2574 L43.5,129.7574 L47.7426,134 L56,125.7426 L64.2574,134 L68.5,129.7574 L59,120.2574 L59,118 L68.5,118 L68.5,113 L43.5,113 " fill="#FEFECE" filter="url(#fnjhre542tnig)" style="stroke:#A80036;stroke-width:1.5;"/><text fill="#000000" font-family="sans-serif" font-size="14" lengthAdjust="spacing" textLength="100" x="6" y="153.0332">Khách Vãng Lai</text><ellipse cx="246.1531" cy="22.4306" fill="#FEFECE" filter="url(#fnjhre542tnig)" rx="70.1531" ry="16.4306" style="stroke:#A80036;stroke-width:1.5;"/><text fill="#000000" font-family="sans-serif" font-size="14" lengthAdjust="spacing" textLength="88" x="199.1531" y="26.9472">Tìm chuyến đi</text><ellipse cx="245.8789" cy="92.3758" fill="#FEFECE" filter="url(#fnjhre542tnig)" rx="79.8789" ry="18.3758" style="stroke:#A80036;stroke-width:1.5;"/><text fill="#000000" font-family="sans-serif" font-size="14" lengthAdjust="spacing" textLength="114" x="187.8373" y="96.4024">Đăng ký tài khoản</text><ellipse cx="246.1002" cy="163.52" fill="#FEFECE" filter="url(#fnjhre542tnig)" rx="75.6002" ry="17.52" style="stroke:#A80036;stroke-width:1.5;"/><text fill="#000000" font-family="sans-serif" font-size="14" lengthAdjust="spacing" textLength="103" x="191.6002" y="168.0366">Lấy lại mật khẩu</text><ellipse cx="246.1463" cy="231.5942" fill="#FEFECE" filter="url(#fnjhre542tnig)" rx="61.6463" ry="15.5942" style="stroke:#A80036;stroke-width:1.5;"/><text fill="#000000" font-family="sans-serif" font-size="14" lengthAdjust="spacing" textLength="70" x="208.1463" y="236.1108">Đăng nhập</text><!--MD5=[e2f46a1c35e3170542ad66552c52ebda]
link g to Tìm chuyến đi--><path d="M95.82,100.43 C116.18,86.34 141.85,69.54 166,56.5 C177.95,50.05 191.37,43.89 203.72,38.63 " fill="none" id="g-to-Tìm chuyến đi" style="stroke:#0000FF;stroke-width:1.0;"/><polygon fill="#0000FF" points="208.58,36.59,198.7328,36.4069,203.974,38.5354,201.8455,43.7765,208.58,36.59" style="stroke:#0000FF;stroke-width:1.0;"/><!--MD5=[94c80110004b62366711ee15228d6eef]
link g to Đăng ký tài khoản--><path d="M106.39,119.04 C128.54,114.8 154.98,109.74 178.8,105.18 " fill="none" id="g-to-Đăng ký tài khoản" style="stroke:#0000FF;stroke-width:1.0;"/><polygon fill="#0000FF" points="183.84,104.21,174.2475,101.9775,178.9296,105.1521,175.7549,109.8342,183.84,104.21" style="stroke:#0000FF;stroke-width:1.0;"/><!--MD5=[4e77e25d5f096b4c4bdf58517557d23a]
link g to Lấy lại mật khẩu--><path d="M106.39,137.7 C129.35,141.97 156.92,147.1 181.41,151.66 " fill="none" id="g-to-Lấy lại mật khẩu" style="stroke:#0000FF;stroke-width:1.0;"/><polygon fill="#0000FF" points="186.59,152.63,178.4735,147.0513,181.6743,151.7155,177.0102,154.9163,186.59,152.63" style="stroke:#0000FF;stroke-width:1.0;"/><!--MD5=[23a30ef04013b246110a83529dee2554]
link g to Đăng nhập--><path d="M96.88,156.5 C117.08,170.06 142.3,186.06 166,198.5 C178.66,205.14 192.96,211.45 205.88,216.74 " fill="none" id="g-to-Đăng nhập" style="stroke:#0000FF;stroke-width:1.0;"/><polygon fill="#0000FF" points="210.57,218.64,203.718,211.5654,205.9326,216.7708,200.7272,218.9853,210.57,218.64" style="stroke:#0000FF;stroke-width:1.0;"/><!--MD5=[33d396fa27db2f37688d80ae1dffbeee]
@startuml
left to right direction
skinparam actorStyle Hollow
:Khách Vãng Lai: as g
g - -> (Tìm chuyến đi)#blue
g - -> (Đăng ký tài khoản)#blue
g - -> (Lấy lại mật khẩu)#blue
g - -> (Đăng nhập)#blue
@enduml

PlantUML version 1.2021.2(Sun Mar 07 18:10:27 ICT 2021)
(GPL source distribution)
Java Runtime: OpenJDK Runtime Environment
JVM: Eclipse OpenJ9 VM
Default Encoding: UTF-8
Language: en
Country: US
--></g></svg>