<?xml version="1.0" encoding="UTF-8" standalone="no"?><svg xmlns="http://www.w3.org/2000/svg" xmlns:xlink="http://www.w3.org/1999/xlink" contentScriptType="application/ecmascript" contentStyleType="text/css" height="1341.6667px" preserveAspectRatio="none" style="width:1033px;height:1341px;" version="1.1" viewBox="0 0 1033 1341" width="1033.3333px" zoomAndPan="magnify"><defs><filter height="300%" id="f945qfll5bag5" width="300%" x="-1" y="-1"><feGaussianBlur result="blurOut" stdDeviation="4.166666666666667"/><feColorMatrix in="blurOut" result="blurOut2" type="matrix" values="0 0 0 0 0 0 0 0 0 0 0 0 0 0 0 0 0 0 .4 0"/><feOffset dx="8.333333333333334" dy="8.333333333333334" in="blurOut2" result="blurOut3"/><feBlend in="SourceGraphic" in2="blurOut3" mode="normal"/></filter></defs><g><polygon fill="#90EE90" filter="url(#f945qfll5bag5)" points="81.25,83.5327,416.6667,83.5327,437.5,135.8114,416.6667,188.09,81.25,188.09" style="stroke:#A80036;stroke-width:3.125;"/><text fill="#000000" font-family="sans-serif" font-size="25" lengthAdjust="spacing" textLength="145.8333" x="102.0833" y="130.3182">Từ màn hình</text><text fill="#000000" font-family="sans-serif" font-size="25" font-weight="bold" lengthAdjust="spacing" textLength="287.5" x="102.0833" y="161.7635">Danh sách Nhân Viên Xe</text><text fill="#000000" font-family="sans-serif" font-size="25" lengthAdjust="spacing" textLength="0" x="395.8333" y="161.7635"/><rect fill="#FEFECE" filter="url(#f945qfll5bag5)" height="136.0026" rx="26.0417" ry="26.0417" style="stroke:#A80036;stroke-width:3.125;" width="410.4167" x="43.75" y="229.7567"/><text fill="#000000" font-family="sans-serif" font-size="25" lengthAdjust="spacing" textLength="368.75" x="64.5833" y="276.5422">Chọn các Nhân Viên muốn khóa</text><text fill="#000000" font-family="sans-serif" font-size="25" lengthAdjust="spacing" textLength="56.25" x="64.5833" y="307.9875">ở cột</text><text fill="#000000" font-family="sans-serif" font-size="25" font-weight="bold" lengthAdjust="spacing" textLength="118.75" x="127.0833" y="307.9875">Checkbox</text><text fill="#000000" font-family="sans-serif" font-size="25" lengthAdjust="spacing" textLength="166.6667" x="64.5833" y="339.4328">phía cuối cùng</text><rect fill="#FEFECE" filter="url(#f945qfll5bag5)" height="104.5573" rx="26.0417" ry="26.0417" style="stroke:#A80036;stroke-width:3.125;" width="139.5833" x="179.1667" y="407.4259"/><text fill="#000000" font-family="sans-serif" font-size="25" lengthAdjust="spacing" textLength="97.9167" x="200" y="454.2114">Click nút</text><text fill="#000000" font-family="sans-serif" font-size="25" font-weight="bold" lengthAdjust="spacing" textLength="60.4167" x="200" y="485.6567">Khóa</text><polygon fill="#FEFECE" filter="url(#f945qfll5bag5)" points="169.7917,699.8739,328.125,699.8739,353.125,724.8739,328.125,749.8739,169.7917,749.8739,144.7917,724.8739,169.7917,699.8739" style="stroke:#A80036;stroke-width:3.125;"/><text fill="#000000" font-family="sans-serif" font-size="22.9167" lengthAdjust="spacing" textLength="158.3333" x="169.7917" y="734.2509">Click hoặc chọn</text><text fill="#000000" font-family="sans-serif" font-size="22.9167" lengthAdjust="spacing" textLength="52.0833" x="92.7083" y="719.8385">Khác</text><text fill="#000000" font-family="sans-serif" font-size="22.9167" lengthAdjust="spacing" textLength="31.25" x="353.125" y="719.8385">nút</text><text fill="#000000" font-family="sans-serif" font-size="22.9167" font-weight="bold" lengthAdjust="spacing" textLength="79.1667" x="390.625" y="719.8385">Đồng ý</text><line style="stroke:#000000;stroke-width:4.166666666666667;" x1="31.25" x2="31.25" y1="25.9481" y2="1307.2957"/><rect fill="#FEFECE" filter="url(#f945qfll5bag5)" height="104.5573" rx="26.0417" ry="26.0417" style="stroke:#A80036;stroke-width:3.125;" width="422.9167" x="493.75" y="553.6499"/><text fill="#000000" font-family="sans-serif" font-size="25" lengthAdjust="spacing" textLength="222.9167" x="514.5833" y="600.4354">Hiện yes/no pop-up</text><text fill="#000000" font-family="sans-serif" font-size="25" font-weight="bold" lengthAdjust="spacing" textLength="381.25" x="514.5833" y="631.8807">Bạn chắc chắn muốn khóa chứ?</text><rect fill="#FEFECE" filter="url(#f945qfll5bag5)" height="73.112" rx="26.0417" ry="26.0417" style="stroke:#A80036;stroke-width:3.125;" width="164.5833" x="492.7083" y="791.5405"/><text fill="#000000" font-family="sans-serif" font-size="25" lengthAdjust="spacing" textLength="122.9167" x="513.5417" y="838.326">Tắt pop-up</text><ellipse cx="575" cy="958.4025" fill="#FFFFFF" filter="url(#f945qfll5bag5)" rx="20.8333" ry="20.8333" style="stroke:#000000;stroke-width:3.125;"/><line style="stroke:#000000;stroke-width:5.208333333333334;" x1="562.11" x2="587.89" y1="945.5125" y2="971.2925"/><line style="stroke:#000000;stroke-width:5.208333333333334;" x1="587.89" x2="562.11" y1="945.5125" y2="971.2925"/><rect fill="#FEFECE" filter="url(#f945qfll5bag5)" height="104.5573" rx="26.0417" ry="26.0417" style="stroke:#A80036;stroke-width:3.125;" width="272.9167" x="698.9583" y="791.5405"/><text fill="#000000" font-family="sans-serif" font-size="25" lengthAdjust="spacing" textLength="231.25" x="719.7917" y="838.326">Khóa các Nhân Viên</text><text fill="#000000" font-family="sans-serif" font-size="25" lengthAdjust="spacing" textLength="122.9167" x="719.7917" y="869.7713">được chọn</text><rect fill="#FEFECE" filter="url(#f945qfll5bag5)" height="104.5573" rx="26.0417" ry="26.0417" style="stroke:#A80036;stroke-width:3.125;" width="258.3333" x="706.25" y="969.0145"/><text fill="#000000" font-family="sans-serif" font-size="25" lengthAdjust="spacing" textLength="137.5" x="727.0833" y="1015.8">Cập nhật lại</text><text fill="#000000" font-family="sans-serif" font-size="25" font-weight="bold" lengthAdjust="spacing" textLength="216.6667" x="727.0833" y="1047.2453">Danh sách hiển thị</text><rect fill="#FEFECE" filter="url(#f945qfll5bag5)" height="104.5573" rx="26.0417" ry="26.0417" style="stroke:#A80036;stroke-width:3.125;" width="329.1667" x="540.625" y="1115.2384"/><text fill="#000000" font-family="sans-serif" font-size="25" lengthAdjust="spacing" textLength="237.5" x="561.4583" y="1162.0239">Chuyển tới màn hình</text><text fill="#000000" font-family="sans-serif" font-size="25" font-weight="bold" lengthAdjust="spacing" textLength="287.5" x="561.4583" y="1193.4692">Danh sách Nhân Viên Xe</text><ellipse cx="705.2083" cy="1284.3791" fill="#FFFFFF" filter="url(#f945qfll5bag5)" rx="22.9167" ry="22.9167" style="stroke:#000000;stroke-width:2.0833333333333335;"/><ellipse cx="705.2083" cy="1284.3791" fill="#000000" rx="12.5" ry="12.5" style="stroke:#7F7F7F;stroke-width:2.0833333333333335;"/><line style="stroke:#000000;stroke-width:4.166666666666667;" x1="480.2083" x2="480.2083" y1="25.9481" y2="1307.2957"/><line style="stroke:#000000;stroke-width:4.166666666666667;" x1="992.7083" x2="992.7083" y1="25.9481" y2="1307.2957"/><line style="stroke:#A80036;stroke-width:3.125;" x1="248.9583" x2="248.9583" y1="188.09" y2="229.7567"/><polygon fill="#A80036" points="240.625,208.9233,248.9583,229.7567,257.2917,208.9233,248.9583,217.2567" style="stroke:#A80036;stroke-width:2.0833333333333335;"/><line style="stroke:#A80036;stroke-width:3.125;" x1="248.9583" x2="248.9583" y1="365.7593" y2="407.4259"/><polygon fill="#A80036" points="240.625,386.5926,248.9583,407.4259,257.2917,386.5926,248.9583,394.9259" style="stroke:#A80036;stroke-width:2.0833333333333335;"/><line style="stroke:#A80036;stroke-width:3.125;" x1="575" x2="575" y1="864.6525" y2="937.5692"/><polygon fill="#A80036" points="566.6667,916.7358,575,937.5692,583.3333,916.7358,575,925.0692" style="stroke:#A80036;stroke-width:2.0833333333333335;"/><line style="stroke:#A80036;stroke-width:3.125;" x1="835.4167" x2="835.4167" y1="896.0978" y2="969.0145"/><polygon fill="#A80036" points="827.0833,948.1812,835.4167,969.0145,843.75,948.1812,835.4167,956.5145" style="stroke:#A80036;stroke-width:2.0833333333333335;"/><line style="stroke:#A80036;stroke-width:3.125;" x1="705.2083" x2="705.2083" y1="1219.7957" y2="1261.4624"/><polygon fill="#A80036" points="696.875,1240.6291,705.2083,1261.4624,713.5417,1240.6291,705.2083,1248.9624" style="stroke:#A80036;stroke-width:2.0833333333333335;"/><line style="stroke:#A80036;stroke-width:3.125;" x1="248.9583" x2="248.9583" y1="511.9832" y2="522.3999"/><line style="stroke:#A80036;stroke-width:3.125;" x1="248.9583" x2="705.2083" y1="522.3999" y2="522.3999"/><line style="stroke:#A80036;stroke-width:3.125;" x1="705.2083" x2="705.2083" y1="522.3999" y2="553.6499"/><polygon fill="#A80036" points="696.875,532.8166,705.2083,553.6499,713.5417,532.8166,705.2083,541.1499" style="stroke:#A80036;stroke-width:2.0833333333333335;"/><line style="stroke:#A80036;stroke-width:3.125;" x1="144.7917" x2="119.7917" y1="724.8739" y2="724.8739"/><line style="stroke:#A80036;stroke-width:3.125;" x1="119.7917" x2="119.7917" y1="724.8739" y2="762.3739"/><line style="stroke:#A80036;stroke-width:3.125;" x1="119.7917" x2="575" y1="762.3739" y2="762.3739"/><line style="stroke:#A80036;stroke-width:3.125;" x1="575" x2="575" y1="762.3739" y2="791.5405"/><polygon fill="#A80036" points="566.6667,770.7072,575,791.5405,583.3333,770.7072,575,779.0405" style="stroke:#A80036;stroke-width:2.0833333333333335;"/><line style="stroke:#A80036;stroke-width:3.125;" x1="353.125" x2="835.4167" y1="724.8739" y2="724.8739"/><line style="stroke:#A80036;stroke-width:3.125;" x1="835.4167" x2="835.4167" y1="724.8739" y2="791.5405"/><polygon fill="#A80036" points="827.0833,770.7072,835.4167,791.5405,843.75,770.7072,835.4167,779.0405" style="stroke:#A80036;stroke-width:2.0833333333333335;"/><line style="stroke:#A80036;stroke-width:3.125;" x1="835.4167" x2="835.4167" y1="1073.5718" y2="1083.9884"/><line style="stroke:#A80036;stroke-width:3.125;" x1="835.4167" x2="705.2083" y1="1083.9884" y2="1083.9884"/><line style="stroke:#A80036;stroke-width:3.125;" x1="705.2083" x2="705.2083" y1="1083.9884" y2="1115.2384"/><polygon fill="#A80036" points="696.875,1094.4051,705.2083,1115.2384,713.5417,1094.4051,705.2083,1102.7384" style="stroke:#A80036;stroke-width:2.0833333333333335;"/><line style="stroke:#A80036;stroke-width:3.125;" x1="705.2083" x2="705.2083" y1="658.2072" y2="668.6239"/><line style="stroke:#A80036;stroke-width:3.125;" x1="705.2083" x2="248.9583" y1="668.6239" y2="668.6239"/><line style="stroke:#A80036;stroke-width:3.125;" x1="248.9583" x2="248.9583" y1="668.6239" y2="699.8739"/><polygon fill="#A80036" points="240.625,679.0405,248.9583,699.8739,257.2917,679.0405,248.9583,687.3739" style="stroke:#A80036;stroke-width:2.0833333333333335;"/><text fill="#000000" font-family="sans-serif" font-size="37.5" lengthAdjust="spacing" textLength="281.25" x="120.3125" y="64.8763">Quản Trị Nhà Xe</text><text fill="#000000" font-family="sans-serif" font-size="37.5" lengthAdjust="spacing" textLength="152.0833" x="665.625" y="64.8763">Hệ thống</text><!--MD5=[6f4303780b72083c939cb47ade4bfcf7]
@startuml
skinparam dpi 200

|Buss Admin| Quản Trị Nhà Xe
	#lightgreen:Từ màn hình
	<b>Danh sách Nhân Viên Xe</b> >

	:Chọn các Nhân Viên muốn khóa
	ở cột <b>Checkbox</b>
	phía cuối cùng;

	:Click nút
	<b>Khóa</b>;

|System| Hệ thống
	:Hiện yes/no pop-up
	<b>Bạn chắc chắn muốn khóa chứ?</b>;


|Buss Admin|
	if (Click hoặc chọn) is (Khác) then
		|System|
		:Tắt pop-up;
		end
	else (nút <b>Đồng ý</b>)
		|System|
			:Khóa các Nhân Viên
			được chọn;

			:Cập nhật lại
			<b>Danh sách hiển thị</b>;
	endif

	:Chuyển tới màn hình
	<b>Danh sách Nhân Viên Xe</b>;

	stop
@enduml

PlantUML version 1.2021.2(Sun Mar 07 18:10:27 ICT 2021)
(GPL source distribution)
Java Runtime: OpenJDK Runtime Environment
JVM: Eclipse OpenJ9 VM
Default Encoding: UTF-8
Language: en
Country: US
--></g></svg>