<?xml version="1.0" encoding="UTF-8" standalone="no"?><svg xmlns="http://www.w3.org/2000/svg" xmlns:xlink="http://www.w3.org/1999/xlink" contentScriptType="application/ecmascript" contentStyleType="text/css" height="1414.5833px" preserveAspectRatio="none" style="width:1854px;height:1414px;" version="1.1" viewBox="0 0 1854 1414" width="1854.1667px" zoomAndPan="magnify"><defs><filter height="300%" id="f12617o3wxuu33" width="300%" x="-1" y="-1"><feGaussianBlur result="blurOut" stdDeviation="4.166666666666667"/><feColorMatrix in="blurOut" result="blurOut2" type="matrix" values="0 0 0 0 0 0 0 0 0 0 0 0 0 0 0 0 0 0 .4 0"/><feOffset dx="8.333333333333334" dy="8.333333333333334" in="blurOut2" result="blurOut3"/><feBlend in="SourceGraphic" in2="blurOut3" mode="normal"/></filter></defs><g><polygon fill="#90EE90" filter="url(#f12617o3wxuu33)" points="393.75,83.5327,604.1667,83.5327,625,135.8114,604.1667,188.09,393.75,188.09" style="stroke:#A80036;stroke-width:3.125;"/><text fill="#000000" font-family="sans-serif" font-size="25" lengthAdjust="spacing" textLength="145.8333" x="414.5833" y="130.3182">Từ màn hình</text><text fill="#000000" font-family="sans-serif" font-size="25" font-weight="bold" lengthAdjust="spacing" textLength="162.5" x="414.5833" y="161.7635">Danh sách Xe</text><text fill="#000000" font-family="sans-serif" font-size="25" lengthAdjust="spacing" textLength="0" x="583.3333" y="161.7635"/><rect fill="#000000" filter="url(#f12617o3wxuu33)" height="12.5" rx="5.2083" ry="5.2083" style="stroke:#000000;stroke-width:2.0833333333333335;" width="935.4167" x="43.75" y="229.7567"/><rect fill="#FEFECE" filter="url(#f12617o3wxuu33)" height="136.0026" rx="26.0417" ry="26.0417" style="stroke:#A80036;stroke-width:3.125;" width="304.1667" x="68.75" y="283.9233"/><text fill="#000000" font-family="sans-serif" font-size="25" lengthAdjust="spacing" textLength="262.5" x="89.5833" y="330.7088">Chọn các Xe muốn xóa</text><text fill="#000000" font-family="sans-serif" font-size="25" lengthAdjust="spacing" textLength="56.25" x="89.5833" y="362.1541">ở cột</text><text fill="#000000" font-family="sans-serif" font-size="25" font-weight="bold" lengthAdjust="spacing" textLength="116.6667" x="152.0833" y="362.1541">checkbox</text><text fill="#000000" font-family="sans-serif" font-size="25" lengthAdjust="spacing" textLength="166.6667" x="89.5833" y="393.5994">phía cuối cùng</text><rect fill="#FEFECE" filter="url(#f12617o3wxuu33)" height="104.5573" rx="26.0417" ry="26.0417" style="stroke:#A80036;stroke-width:3.125;" width="195.8333" x="398.9583" y="299.646"/><text fill="#000000" font-family="sans-serif" font-size="25" lengthAdjust="spacing" textLength="122.9167" x="419.7917" y="346.4315">Nhập ngày</text><text fill="#000000" font-family="sans-serif" font-size="25" font-weight="bold" lengthAdjust="spacing" textLength="154.1667" x="419.7917" y="377.8768">Bắt đầu khóa</text><rect fill="#FEFECE" filter="url(#f12617o3wxuu33)" height="136.0026" rx="26.0417" ry="26.0417" style="stroke:#A80036;stroke-width:3.125;" width="308.3333" x="645.8333" y="283.9233"/><text fill="#000000" font-family="sans-serif" font-size="25" lengthAdjust="spacing" textLength="122.9167" x="666.6667" y="330.7088">Nhập ngày</text><text fill="#000000" font-family="sans-serif" font-size="25" font-weight="bold" lengthAdjust="spacing" textLength="162.5" x="666.6667" y="362.1541">Kết thúc khóa</text><text fill="#000000" font-family="sans-serif" font-size="25" lengthAdjust="spacing" textLength="266.6667" x="666.6667" y="393.5994">(Để trống = vô thời hạn)</text><polygon fill="#FEFECE" filter="url(#f12617o3wxuu33)" points="498.9583,440.7593,523.9583,465.7593,498.9583,490.7593,473.9583,465.7593,498.9583,440.7593" style="stroke:#A80036;stroke-width:3.125;"/><rect fill="#FEFECE" filter="url(#f12617o3wxuu33)" height="104.5573" rx="26.0417" ry="26.0417" style="stroke:#A80036;stroke-width:3.125;" width="139.5833" x="429.1667" y="532.4259"/><text fill="#000000" font-family="sans-serif" font-size="25" lengthAdjust="spacing" textLength="97.9167" x="450" y="579.2114">Click nút</text><text fill="#000000" font-family="sans-serif" font-size="25" font-weight="bold" lengthAdjust="spacing" textLength="60.4167" x="450" y="610.6567">Khóa</text><line style="stroke:#000000;stroke-width:4.166666666666667;" x1="31.25" x2="31.25" y1="25.9481" y2="1379.8218"/><polygon fill="#FEFECE" filter="url(#f12617o3wxuu33)" points="1280.7292,678.6499,1595.3125,678.6499,1620.3125,703.6499,1595.3125,728.6499,1280.7292,728.6499,1255.7292,703.6499,1280.7292,678.6499" style="stroke:#A80036;stroke-width:3.125;"/><text fill="#000000" font-family="sans-serif" font-size="22.9167" lengthAdjust="spacing" textLength="314.5833" x="1280.7292" y="713.0269">Có bất cứ khách nào đang đặt?</text><text fill="#000000" font-family="sans-serif" font-size="22.9167" lengthAdjust="spacing" textLength="58.3333" x="1197.3958" y="698.6145">Đúng!</text><text fill="#000000" font-family="sans-serif" font-size="22.9167" lengthAdjust="spacing" textLength="54.1667" x="1620.3125" y="698.6145">Đúng</text><rect fill="#FEFECE" filter="url(#f12617o3wxuu33)" height="136.0026" rx="26.0417" ry="26.0417" style="stroke:#A80036;stroke-width:3.125;" width="341.6667" x="1061.4583" y="749.4832"/><text fill="#000000" font-family="sans-serif" font-size="25" lengthAdjust="spacing" textLength="222.9167" x="1082.2917" y="796.2687">Hiện yes/no pop-up</text><text fill="#000000" font-family="sans-serif" font-size="25" font-weight="bold" lengthAdjust="spacing" textLength="250" x="1082.2917" y="827.714">Có Xe đang được đặt</text><text fill="#000000" font-family="sans-serif" font-size="25" lengthAdjust="spacing" textLength="6.25" x="1332.2917" y="827.714">,</text><text fill="#000000" font-family="sans-serif" font-size="25" font-weight="bold" lengthAdjust="spacing" textLength="300" x="1082.2917" y="859.1593">Bạn vẫn muốn khóa chứ?</text><rect fill="#FEFECE" filter="url(#f12617o3wxuu33)" height="73.112" rx="26.0417" ry="26.0417" style="stroke:#A80036;stroke-width:3.125;" width="318.75" x="1072.9167" y="927.1525"/><text fill="#000000" font-family="sans-serif" font-size="25" lengthAdjust="spacing" textLength="277.0833" x="1093.75" y="973.938">lock all selected busses</text><rect fill="#FEFECE" filter="url(#f12617o3wxuu33)" height="73.112" rx="26.0417" ry="26.0417" style="stroke:#A80036;stroke-width:3.125;" width="437.5" x="1013.5417" y="1041.9312"/><text fill="#000000" font-family="sans-serif" font-size="25" lengthAdjust="spacing" textLength="254.1667" x="1034.375" y="1088.7166">move those busses to</text><text fill="#000000" font-family="sans-serif" font-size="25" font-weight="bold" lengthAdjust="spacing" textLength="93.75" x="1294.7917" y="1088.7166">Locking</text><text fill="#000000" font-family="sans-serif" font-size="25" lengthAdjust="spacing" textLength="35.4167" x="1394.7917" y="1088.7166">tab</text><rect fill="#FEFECE" filter="url(#f12617o3wxuu33)" height="73.112" rx="26.0417" ry="26.0417" style="stroke:#A80036;stroke-width:3.125;" width="439.5833" x="1012.5" y="1156.7098"/><text fill="#000000" font-family="sans-serif" font-size="25" lengthAdjust="spacing" textLength="397.9167" x="1033.3333" y="1203.4953">display lock successfully message</text><rect fill="#FEFECE" filter="url(#f12617o3wxuu33)" height="73.112" rx="26.0417" ry="26.0417" style="stroke:#A80036;stroke-width:3.125;" width="300" x="1493.75" y="749.4832"/><text fill="#000000" font-family="sans-serif" font-size="25" lengthAdjust="spacing" textLength="258.3333" x="1514.5833" y="796.2687">display error message</text><polygon fill="#FEFECE" filter="url(#f12617o3wxuu33)" points="1438.0208,1242.3218,1463.0208,1267.3218,1438.0208,1292.3218,1413.0208,1267.3218,1438.0208,1242.3218" style="stroke:#A80036;stroke-width:3.125;"/><ellipse cx="1438.0208" cy="1356.9051" fill="#FFFFFF" filter="url(#f12617o3wxuu33)" rx="22.9167" ry="22.9167" style="stroke:#000000;stroke-width:2.0833333333333335;"/><ellipse cx="1438.0208" cy="1356.9051" fill="#000000" rx="12.5" ry="12.5" style="stroke:#7F7F7F;stroke-width:2.0833333333333335;"/><line style="stroke:#000000;stroke-width:4.166666666666667;" x1="1000" x2="1000" y1="25.9481" y2="1379.8218"/><line style="stroke:#000000;stroke-width:4.166666666666667;" x1="1814.5833" x2="1814.5833" y1="25.9481" y2="1379.8218"/><line style="stroke:#A80036;stroke-width:3.125;" x1="220.8333" x2="220.8333" y1="242.2567" y2="283.9233"/><polygon fill="#A80036" points="212.5,263.09,220.8333,283.9233,229.1667,263.09,220.8333,271.4233" style="stroke:#A80036;stroke-width:2.0833333333333335;"/><line style="stroke:#A80036;stroke-width:3.125;" x1="496.875" x2="496.875" y1="242.2567" y2="299.646"/><polygon fill="#A80036" points="488.5417,278.8127,496.875,299.646,505.2083,278.8127,496.875,287.146" style="stroke:#A80036;stroke-width:2.0833333333333335;"/><line style="stroke:#A80036;stroke-width:3.125;" x1="800" x2="800" y1="242.2567" y2="283.9233"/><polygon fill="#A80036" points="791.6667,263.09,800,283.9233,808.3333,263.09,800,271.4233" style="stroke:#A80036;stroke-width:2.0833333333333335;"/><line style="stroke:#A80036;stroke-width:3.125;" x1="220.8333" x2="220.8333" y1="419.9259" y2="465.7593"/><line style="stroke:#A80036;stroke-width:3.125;" x1="220.8333" x2="473.9583" y1="465.7593" y2="465.7593"/><polygon fill="#A80036" points="453.125,457.4259,473.9583,465.7593,453.125,474.0926,461.4583,465.7593" style="stroke:#A80036;stroke-width:2.0833333333333335;"/><line style="stroke:#A80036;stroke-width:3.125;" x1="496.875" x2="496.875" y1="404.2033" y2="465.7593"/><line style="stroke:#A80036;stroke-width:3.125;" x1="496.875" x2="523.9583" y1="465.7593" y2="465.7593"/><polygon fill="#A80036" points="544.7917,457.4259,523.9583,465.7593,544.7917,474.0926,536.4583,465.7593" style="stroke:#A80036;stroke-width:2.0833333333333335;"/><line style="stroke:#A80036;stroke-width:3.125;" x1="800" x2="800" y1="419.9259" y2="490.7593"/><line style="stroke:#A80036;stroke-width:3.125;" x1="800" x2="498.9583" y1="490.7593" y2="490.7593"/><line style="stroke:#A80036;stroke-width:3.125;" x1="498.9583" x2="498.9583" y1="490.7593" y2="532.4259"/><polygon fill="#A80036" points="490.625,511.5926,498.9583,532.4259,507.2917,511.5926,498.9583,519.9259" style="stroke:#A80036;stroke-width:2.0833333333333335;"/><line style="stroke:#A80036;stroke-width:3.125;" x1="498.9583" x2="498.9583" y1="188.09" y2="229.7567"/><polygon fill="#A80036" points="490.625,208.9233,498.9583,229.7567,507.2917,208.9233,498.9583,217.2567" style="stroke:#A80036;stroke-width:2.0833333333333335;"/><line style="stroke:#A80036;stroke-width:3.125;" x1="1232.2917" x2="1232.2917" y1="885.4858" y2="927.1525"/><polygon fill="#A80036" points="1223.9583,906.3192,1232.2917,927.1525,1240.625,906.3192,1232.2917,914.6525" style="stroke:#A80036;stroke-width:2.0833333333333335;"/><line style="stroke:#A80036;stroke-width:3.125;" x1="1232.2917" x2="1232.2917" y1="1000.2645" y2="1041.9312"/><polygon fill="#A80036" points="1223.9583,1021.0978,1232.2917,1041.9312,1240.625,1021.0978,1232.2917,1029.4312" style="stroke:#A80036;stroke-width:2.0833333333333335;"/><line style="stroke:#A80036;stroke-width:3.125;" x1="1232.2917" x2="1232.2917" y1="1115.0431" y2="1156.7098"/><polygon fill="#A80036" points="1223.9583,1135.8765,1232.2917,1156.7098,1240.625,1135.8765,1232.2917,1144.2098" style="stroke:#A80036;stroke-width:2.0833333333333335;"/><line style="stroke:#A80036;stroke-width:3.125;" x1="1255.7292" x2="1232.2917" y1="703.6499" y2="703.6499"/><line style="stroke:#A80036;stroke-width:3.125;" x1="1232.2917" x2="1232.2917" y1="703.6499" y2="749.4832"/><polygon fill="#A80036" points="1223.9583,728.6499,1232.2917,749.4832,1240.625,728.6499,1232.2917,736.9832" style="stroke:#A80036;stroke-width:2.0833333333333335;"/><line style="stroke:#A80036;stroke-width:3.125;" x1="1620.3125" x2="1643.75" y1="703.6499" y2="703.6499"/><line style="stroke:#A80036;stroke-width:3.125;" x1="1643.75" x2="1643.75" y1="703.6499" y2="749.4832"/><polygon fill="#A80036" points="1635.4167,728.6499,1643.75,749.4832,1652.0833,728.6499,1643.75,736.9832" style="stroke:#A80036;stroke-width:2.0833333333333335;"/><line style="stroke:#A80036;stroke-width:3.125;" x1="1232.2917" x2="1232.2917" y1="1229.8218" y2="1267.3218"/><line style="stroke:#A80036;stroke-width:3.125;" x1="1232.2917" x2="1413.0208" y1="1267.3218" y2="1267.3218"/><polygon fill="#A80036" points="1392.1875,1258.9884,1413.0208,1267.3218,1392.1875,1275.6551,1400.5208,1267.3218" style="stroke:#A80036;stroke-width:2.0833333333333335;"/><line style="stroke:#A80036;stroke-width:3.125;" x1="1643.75" x2="1643.75" y1="822.5952" y2="1267.3218"/><line style="stroke:#A80036;stroke-width:3.125;" x1="1643.75" x2="1463.0208" y1="1267.3218" y2="1267.3218"/><polygon fill="#A80036" points="1483.8542,1258.9884,1463.0208,1267.3218,1483.8542,1275.6551,1475.5208,1267.3218" style="stroke:#A80036;stroke-width:2.0833333333333335;"/><line style="stroke:#A80036;stroke-width:3.125;" x1="1438.0208" x2="1438.0208" y1="1292.3218" y2="1333.9884"/><polygon fill="#A80036" points="1429.6875,1313.1551,1438.0208,1333.9884,1446.3542,1313.1551,1438.0208,1321.4884" style="stroke:#A80036;stroke-width:2.0833333333333335;"/><line style="stroke:#A80036;stroke-width:3.125;" x1="498.9583" x2="498.9583" y1="636.9832" y2="647.3999"/><line style="stroke:#A80036;stroke-width:3.125;" x1="498.9583" x2="1438.0208" y1="647.3999" y2="647.3999"/><line style="stroke:#A80036;stroke-width:3.125;" x1="1438.0208" x2="1438.0208" y1="647.3999" y2="678.6499"/><polygon fill="#A80036" points="1429.6875,657.8166,1438.0208,678.6499,1446.3542,657.8166,1438.0208,666.1499" style="stroke:#A80036;stroke-width:2.0833333333333335;"/><text fill="#000000" font-family="sans-serif" font-size="37.5" lengthAdjust="spacing" textLength="281.25" x="380.2083" y="64.8763">Quản Trị Nhà Xe</text><text fill="#000000" font-family="sans-serif" font-size="37.5" lengthAdjust="spacing" textLength="152.0833" x="1336.4583" y="64.8763">Hệ thống</text><!--MD5=[40acfbe23a7e15ea52360ace8fbf5043]
@startuml
skinparam dpi 200

|Buss Admin| Quản Trị Nhà Xe

	#lightgreen:Từ màn hình
	<b>Danh sách Xe</b> >

	fork
		:Chọn các Xe muốn xóa
		ở cột <b>checkbox</b>
		phía cuối cùng;
	fork again
		:Nhập ngày
		<b>Bắt đầu khóa</b>;
	fork again
		:Nhập ngày
		<b>Kết thúc khóa</b>
		(Để trống = vô thời hạn);
	end merge

	:Click nút
	<b>Khóa</b>;
|System| Hệ thống

if (Có bất cứ khách nào đang đặt?) then (Đúng!)

	:Hiện yes/no pop-up
	<b>Có Xe đang được đặt</b>,
	<b>Bạn vẫn muốn khóa chứ?</b>;

	:lock all selected busses;

	:move those busses to <b>Locking</b> tab;
	:display lock successfully message;
else (Đúng)
	:display error message;
endif
	stop
@enduml

PlantUML version 1.2021.2(Sun Mar 07 18:10:27 ICT 2021)
(GPL source distribution)
Java Runtime: OpenJDK Runtime Environment
JVM: Eclipse OpenJ9 VM
Default Encoding: UTF-8
Language: en
Country: US
--></g></svg>