<?xml version="1.0" encoding="UTF-8" standalone="no"?><svg xmlns="http://www.w3.org/2000/svg" xmlns:xlink="http://www.w3.org/1999/xlink" contentScriptType="application/ecmascript" contentStyleType="text/css" height="2014.5833px" preserveAspectRatio="none" style="width:1652px;height:2014px;" version="1.1" viewBox="0 0 1652 2014" width="1652.0833px" zoomAndPan="magnify"><defs><filter height="300%" id="f1ll31619mp71g" width="300%" x="-1" y="-1"><feGaussianBlur result="blurOut" stdDeviation="4.166666666666667"/><feColorMatrix in="blurOut" result="blurOut2" type="matrix" values="0 0 0 0 0 0 0 0 0 0 0 0 0 0 0 0 0 0 .4 0"/><feOffset dx="8.333333333333334" dy="8.333333333333334" in="blurOut2" result="blurOut3"/><feBlend in="SourceGraphic" in2="blurOut3" mode="normal"/></filter></defs><g><polygon fill="#90EE90" filter="url(#f1ll31619mp71g)" points="419.7917,83.5327,630.2083,83.5327,651.0417,135.8114,630.2083,188.09,419.7917,188.09" style="stroke:#A80036;stroke-width:3.125;"/><text fill="#000000" font-family="sans-serif" font-size="25" lengthAdjust="spacing" textLength="145.8333" x="440.625" y="130.3182">Từ màn hình</text><text fill="#000000" font-family="sans-serif" font-size="25" font-weight="bold" lengthAdjust="spacing" textLength="162.5" x="440.625" y="161.7635">Danh sách Xe</text><text fill="#000000" font-family="sans-serif" font-size="25" lengthAdjust="spacing" textLength="0" x="609.375" y="161.7635"/><rect fill="#000000" filter="url(#f1ll31619mp71g)" height="12.5" rx="5.2083" ry="5.2083" style="stroke:#000000;stroke-width:2.0833333333333335;" width="962.5" x="43.75" y="229.7567"/><rect fill="#FEFECE" filter="url(#f1ll31619mp71g)" height="136.0026" rx="26.0417" ry="26.0417" style="stroke:#A80036;stroke-width:3.125;" width="304.1667" x="68.75" y="299.646"/><text fill="#000000" font-family="sans-serif" font-size="25" lengthAdjust="spacing" textLength="262.5" x="89.5833" y="346.4315">Chọn các Xe muốn xóa</text><text fill="#000000" font-family="sans-serif" font-size="25" lengthAdjust="spacing" textLength="56.25" x="89.5833" y="377.8768">ở cột</text><text fill="#000000" font-family="sans-serif" font-size="25" font-weight="bold" lengthAdjust="spacing" textLength="118.75" x="152.0833" y="377.8768">Checkbox</text><text fill="#000000" font-family="sans-serif" font-size="25" lengthAdjust="spacing" textLength="166.6667" x="89.5833" y="409.3221">phía cuối cùng</text><rect fill="#FEFECE" filter="url(#f1ll31619mp71g)" height="167.4479" rx="26.0417" ry="26.0417" style="stroke:#A80036;stroke-width:3.125;" width="550" x="431.25" y="283.9233"/><text fill="#000000" font-family="sans-serif" font-size="25" lengthAdjust="spacing" textLength="62.5" x="452.0833" y="330.7088">Nhập</text><text fill="#000000" font-family="sans-serif" font-size="25" font-weight="bold" lengthAdjust="spacing" textLength="231.25" x="452.0833" y="362.1541">- Ngày bắt đầu khóa</text><text fill="#000000" font-family="sans-serif" font-size="25" lengthAdjust="spacing" textLength="0" x="689.5833" y="362.1541"/><text fill="#FF0000" font-family="sans-serif" font-size="25" lengthAdjust="spacing" textLength="10.4167" x="689.5833" y="362.1541">*</text><text fill="#000000" font-family="sans-serif" font-size="25" font-weight="bold" lengthAdjust="spacing" textLength="239.5833" x="452.0833" y="393.5994">- Ngày kết thúc khóa</text><text fill="#000000" font-family="sans-serif" font-size="25" lengthAdjust="spacing" textLength="262.5" x="697.9167" y="393.5994">(để trống = vô thời hạn)</text><text fill="#000000" font-family="sans-serif" font-size="25" font-weight="bold" lengthAdjust="spacing" textLength="77.0833" x="452.0833" y="425.0448">- Lý do</text><polygon fill="#FEFECE" filter="url(#f1ll31619mp71g)" points="525,472.2046,550,497.2046,525,522.2046,500,497.2046,525,472.2046" style="stroke:#A80036;stroke-width:3.125;"/><rect fill="#FEFECE" filter="url(#f1ll31619mp71g)" height="104.5573" rx="26.0417" ry="26.0417" style="stroke:#A80036;stroke-width:3.125;" width="139.5833" x="455.2083" y="563.8713"/><text fill="#000000" font-family="sans-serif" font-size="25" lengthAdjust="spacing" textLength="97.9167" x="476.0417" y="610.6567">Click nút</text><text fill="#000000" font-family="sans-serif" font-size="25" font-weight="bold" lengthAdjust="spacing" textLength="60.4167" x="476.0417" y="642.1021">Khóa</text><polygon fill="#FEFECE" filter="url(#f1ll31619mp71g)" points="445.8333,989.6769,604.1667,989.6769,629.1667,1014.6769,604.1667,1039.6769,445.8333,1039.6769,420.8333,1014.6769,445.8333,989.6769" style="stroke:#A80036;stroke-width:3.125;"/><text fill="#000000" font-family="sans-serif" font-size="22.9167" lengthAdjust="spacing" textLength="158.3333" x="445.8333" y="1024.054">Click hoặc chọn</text><text fill="#000000" font-family="sans-serif" font-size="22.9167" lengthAdjust="spacing" textLength="52.0833" x="368.75" y="1009.6415">Khác</text><text fill="#000000" font-family="sans-serif" font-size="22.9167" lengthAdjust="spacing" textLength="31.25" x="629.1667" y="1009.6415">nút</text><text fill="#000000" font-family="sans-serif" font-size="22.9167" font-weight="bold" lengthAdjust="spacing" textLength="79.1667" x="666.6667" y="1009.6415">Đồng ý</text><line style="stroke:#000000;stroke-width:4.166666666666667;" x1="31.25" x2="31.25" y1="25.9481" y2="1981.2134"/><rect fill="#FEFECE" filter="url(#f1ll31619mp71g)" height="136.0026" rx="26.0417" ry="26.0417" style="stroke:#A80036;stroke-width:3.125;" width="341.6667" x="1087.5" y="812.0076"/><text fill="#000000" font-family="sans-serif" font-size="25" lengthAdjust="spacing" textLength="222.9167" x="1108.3333" y="858.7931">Hiện yes/no pop-up</text><text fill="#000000" font-family="sans-serif" font-size="25" font-weight="bold" lengthAdjust="spacing" textLength="250" x="1108.3333" y="890.2384">Có Xe đang được đặt</text><text fill="#000000" font-family="sans-serif" font-size="25" lengthAdjust="spacing" textLength="6.25" x="1358.3333" y="890.2384">,</text><text fill="#000000" font-family="sans-serif" font-size="25" font-weight="bold" lengthAdjust="spacing" textLength="300" x="1108.3333" y="921.6838">Bạn vẫn muốn khóa chứ?</text><rect fill="#FEFECE" filter="url(#f1ll31619mp71g)" height="73.112" rx="26.0417" ry="26.0417" style="stroke:#A80036;stroke-width:3.125;" width="164.5833" x="1039.5833" y="1081.3436"/><text fill="#000000" font-family="sans-serif" font-size="25" lengthAdjust="spacing" textLength="122.9167" x="1060.4167" y="1128.1291">Tắt pop-up</text><ellipse cx="1121.875" cy="1248.2056" fill="#FFFFFF" filter="url(#f1ll31619mp71g)" rx="20.8333" ry="20.8333" style="stroke:#000000;stroke-width:3.125;"/><line style="stroke:#000000;stroke-width:5.208333333333334;" x1="1108.985" x2="1134.765" y1="1235.3156" y2="1261.0955"/><line style="stroke:#000000;stroke-width:5.208333333333334;" x1="1134.765" x2="1108.985" y1="1235.3156" y2="1261.0955"/><rect fill="#FEFECE" filter="url(#f1ll31619mp71g)" height="104.5573" rx="26.0417" ry="26.0417" style="stroke:#A80036;stroke-width:3.125;" width="297.9167" x="1245.8333" y="1081.3436"/><text fill="#000000" font-family="sans-serif" font-size="25" lengthAdjust="spacing" textLength="256.25" x="1266.6667" y="1128.1291">Khóa chuyến đặt trước</text><text fill="#000000" font-family="sans-serif" font-size="25" font-weight="bold" lengthAdjust="spacing" textLength="177.0833" x="1266.6667" y="1159.5744">của các xe này</text><rect fill="#FEFECE" filter="url(#f1ll31619mp71g)" height="104.5573" rx="26.0417" ry="26.0417" style="stroke:#A80036;stroke-width:3.125;" width="293.75" x="1247.9167" y="1258.8175"/><text fill="#000000" font-family="sans-serif" font-size="25" lengthAdjust="spacing" textLength="206.25" x="1268.75" y="1305.603">Gửi email cho các</text><text fill="#000000" font-family="sans-serif" font-size="25" font-weight="bold" lengthAdjust="spacing" textLength="252.0833" x="1268.75" y="1337.0483">Khách hàng liên quan</text><polygon fill="#FEFECE" filter="url(#f1ll31619mp71g)" points="1101.0417,710.0952,1415.625,710.0952,1440.625,735.0952,1415.625,760.0952,1101.0417,760.0952,1076.0417,735.0952,1101.0417,710.0952" style="stroke:#A80036;stroke-width:3.125;"/><text fill="#000000" font-family="sans-serif" font-size="22.9167" lengthAdjust="spacing" textLength="54.1667" x="1266.6667" y="783.8847">Đúng</text><text fill="#000000" font-family="sans-serif" font-size="22.9167" lengthAdjust="spacing" textLength="314.5833" x="1101.0417" y="744.4722">Có bất cứ khách nào đang đặt?</text><text fill="#000000" font-family="sans-serif" font-size="22.9167" lengthAdjust="spacing" textLength="31.25" x="1440.625" y="730.0598">Sai</text><polygon fill="#FEFECE" filter="url(#f1ll31619mp71g)" points="1258.3333,1405.0415,1283.3333,1430.0415,1258.3333,1455.0415,1233.3333,1430.0415,1258.3333,1405.0415" style="stroke:#A80036;stroke-width:3.125;"/><rect fill="#FEFECE" filter="url(#f1ll31619mp71g)" height="104.5573" rx="26.0417" ry="26.0417" style="stroke:#A80036;stroke-width:3.125;" width="210.4167" x="1153.125" y="1496.7082"/><text fill="#000000" font-family="sans-serif" font-size="25" lengthAdjust="spacing" textLength="106.25" x="1173.9583" y="1543.4937">Khóa các</text><text fill="#000000" font-family="sans-serif" font-size="25" font-weight="bold" lengthAdjust="spacing" textLength="168.75" x="1173.9583" y="1574.939">Xe được chọn</text><rect fill="#FEFECE" filter="url(#f1ll31619mp71g)" height="104.5573" rx="26.0417" ry="26.0417" style="stroke:#A80036;stroke-width:3.125;" width="245.8333" x="1135.4167" y="1642.9321"/><text fill="#000000" font-family="sans-serif" font-size="25" lengthAdjust="spacing" textLength="185.4167" x="1156.25" y="1689.7176">Hiển thị tin nhắn</text><text fill="#000000" font-family="sans-serif" font-size="25" font-weight="bold" lengthAdjust="spacing" textLength="204.1667" x="1156.25" y="1721.1629">Khóa thành công!</text><rect fill="#FEFECE" filter="url(#f1ll31619mp71g)" height="104.5573" rx="26.0417" ry="26.0417" style="stroke:#A80036;stroke-width:3.125;" width="258.3333" x="1129.1667" y="1789.1561"/><text fill="#000000" font-family="sans-serif" font-size="25" lengthAdjust="spacing" textLength="137.5" x="1150" y="1835.9416">Cập nhật lại</text><text fill="#000000" font-family="sans-serif" font-size="25" font-weight="bold" lengthAdjust="spacing" textLength="216.6667" x="1150" y="1867.3869">Danh sách hiển thị</text><ellipse cx="1258.3333" cy="1958.2967" fill="#FFFFFF" filter="url(#f1ll31619mp71g)" rx="22.9167" ry="22.9167" style="stroke:#000000;stroke-width:2.0833333333333335;"/><ellipse cx="1258.3333" cy="1958.2967" fill="#000000" rx="12.5" ry="12.5" style="stroke:#7F7F7F;stroke-width:2.0833333333333335;"/><line style="stroke:#000000;stroke-width:4.166666666666667;" x1="1027.0833" x2="1027.0833" y1="25.9481" y2="1981.2134"/><line style="stroke:#000000;stroke-width:4.166666666666667;" x1="1612.5" x2="1612.5" y1="25.9481" y2="1981.2134"/><line style="stroke:#A80036;stroke-width:3.125;" x1="220.8333" x2="220.8333" y1="242.2567" y2="299.646"/><polygon fill="#A80036" points="212.5,278.8127,220.8333,299.646,229.1667,278.8127,220.8333,287.146" style="stroke:#A80036;stroke-width:2.0833333333333335;"/><line style="stroke:#A80036;stroke-width:3.125;" x1="706.25" x2="706.25" y1="242.2567" y2="283.9233"/><polygon fill="#A80036" points="697.9167,263.09,706.25,283.9233,714.5833,263.09,706.25,271.4233" style="stroke:#A80036;stroke-width:2.0833333333333335;"/><line style="stroke:#A80036;stroke-width:3.125;" x1="220.8333" x2="220.8333" y1="435.6486" y2="497.2046"/><line style="stroke:#A80036;stroke-width:3.125;" x1="220.8333" x2="500" y1="497.2046" y2="497.2046"/><polygon fill="#A80036" points="479.1667,488.8713,500,497.2046,479.1667,505.5379,487.5,497.2046" style="stroke:#A80036;stroke-width:2.0833333333333335;"/><line style="stroke:#A80036;stroke-width:3.125;" x1="706.25" x2="706.25" y1="451.3713" y2="497.2046"/><line style="stroke:#A80036;stroke-width:3.125;" x1="706.25" x2="550" y1="497.2046" y2="497.2046"/><polygon fill="#A80036" points="570.8333,488.8713,550,497.2046,570.8333,505.5379,562.5,497.2046" style="stroke:#A80036;stroke-width:2.0833333333333335;"/><line style="stroke:#A80036;stroke-width:3.125;" x1="525" x2="525" y1="188.09" y2="229.7567"/><polygon fill="#A80036" points="516.6667,208.9233,525,229.7567,533.3333,208.9233,525,217.2567" style="stroke:#A80036;stroke-width:2.0833333333333335;"/><line style="stroke:#A80036;stroke-width:3.125;" x1="525" x2="525" y1="522.2046" y2="563.8713"/><polygon fill="#A80036" points="516.6667,543.0379,525,563.8713,533.3333,543.0379,525,551.3713" style="stroke:#A80036;stroke-width:2.0833333333333335;"/><line style="stroke:#A80036;stroke-width:3.125;" x1="1121.875" x2="1121.875" y1="1154.4556" y2="1227.3722"/><polygon fill="#A80036" points="1113.5417,1206.5389,1121.875,1227.3722,1130.2083,1206.5389,1121.875,1214.8722" style="stroke:#A80036;stroke-width:2.0833333333333335;"/><line style="stroke:#A80036;stroke-width:3.125;" x1="1394.7917" x2="1394.7917" y1="1185.9009" y2="1258.8175"/><polygon fill="#A80036" points="1386.4583,1237.9842,1394.7917,1258.8175,1403.125,1237.9842,1394.7917,1246.3175" style="stroke:#A80036;stroke-width:2.0833333333333335;"/><line style="stroke:#A80036;stroke-width:3.125;" x1="1258.3333" x2="1258.3333" y1="760.0952" y2="812.0076"/><polygon fill="#A80036" points="1250,791.1743,1258.3333,812.0076,1266.6667,791.1743,1258.3333,799.5076" style="stroke:#A80036;stroke-width:2.0833333333333335;"/><line style="stroke:#A80036;stroke-width:3.125;" x1="1440.625" x2="1572.9167" y1="735.0952" y2="735.0952"/><polygon fill="#A80036" points="1564.5833,1067.8996,1572.9167,1088.7329,1581.25,1067.8996,1572.9167,1076.2329" style="stroke:#A80036;stroke-width:3.125;"/><line style="stroke:#A80036;stroke-width:3.125;" x1="1572.9167" x2="1572.9167" y1="735.0952" y2="1430.0415"/><line style="stroke:#A80036;stroke-width:3.125;" x1="1572.9167" x2="1283.3333" y1="1430.0415" y2="1430.0415"/><polygon fill="#A80036" points="1304.1667,1421.7082,1283.3333,1430.0415,1304.1667,1438.3748,1295.8333,1430.0415" style="stroke:#A80036;stroke-width:2.0833333333333335;"/><line style="stroke:#A80036;stroke-width:3.125;" x1="1258.3333" x2="1258.3333" y1="1455.0415" y2="1496.7082"/><polygon fill="#A80036" points="1250,1475.8748,1258.3333,1496.7082,1266.6667,1475.8748,1258.3333,1484.2082" style="stroke:#A80036;stroke-width:2.0833333333333335;"/><line style="stroke:#A80036;stroke-width:3.125;" x1="1258.3333" x2="1258.3333" y1="1601.2655" y2="1642.9321"/><polygon fill="#A80036" points="1250,1622.0988,1258.3333,1642.9321,1266.6667,1622.0988,1258.3333,1630.4321" style="stroke:#A80036;stroke-width:2.0833333333333335;"/><line style="stroke:#A80036;stroke-width:3.125;" x1="1258.3333" x2="1258.3333" y1="1747.4894" y2="1789.1561"/><polygon fill="#A80036" points="1250,1768.3228,1258.3333,1789.1561,1266.6667,1768.3228,1258.3333,1776.6561" style="stroke:#A80036;stroke-width:2.0833333333333335;"/><line style="stroke:#A80036;stroke-width:3.125;" x1="1258.3333" x2="1258.3333" y1="1893.7134" y2="1935.38"/><polygon fill="#A80036" points="1250,1914.5467,1258.3333,1935.38,1266.6667,1914.5467,1258.3333,1922.88" style="stroke:#A80036;stroke-width:2.0833333333333335;"/><line style="stroke:#A80036;stroke-width:3.125;" x1="420.8333" x2="395.8333" y1="1014.6769" y2="1014.6769"/><line style="stroke:#A80036;stroke-width:3.125;" x1="395.8333" x2="395.8333" y1="1014.6769" y2="1052.1769"/><line style="stroke:#A80036;stroke-width:3.125;" x1="395.8333" x2="1121.875" y1="1052.1769" y2="1052.1769"/><line style="stroke:#A80036;stroke-width:3.125;" x1="1121.875" x2="1121.875" y1="1052.1769" y2="1081.3436"/><polygon fill="#A80036" points="1113.5417,1060.5103,1121.875,1081.3436,1130.2083,1060.5103,1121.875,1068.8436" style="stroke:#A80036;stroke-width:2.0833333333333335;"/><line style="stroke:#A80036;stroke-width:3.125;" x1="629.1667" x2="1394.7917" y1="1014.6769" y2="1014.6769"/><line style="stroke:#A80036;stroke-width:3.125;" x1="1394.7917" x2="1394.7917" y1="1014.6769" y2="1081.3436"/><polygon fill="#A80036" points="1386.4583,1060.5103,1394.7917,1081.3436,1403.125,1060.5103,1394.7917,1068.8436" style="stroke:#A80036;stroke-width:2.0833333333333335;"/><line style="stroke:#A80036;stroke-width:3.125;" x1="1394.7917" x2="1394.7917" y1="1363.3748" y2="1379.0853"/><line style="stroke:#A80036;stroke-width:3.125;" x1="1394.7917" x2="1258.3333" y1="1379.0853" y2="1379.0853"/><line style="stroke:#A80036;stroke-width:3.125;" x1="1258.3333" x2="1258.3333" y1="1379.0853" y2="1405.0415"/><polygon fill="#A80036" points="1250,1384.2082,1258.3333,1405.0415,1266.6667,1384.2082,1258.3333,1392.5415" style="stroke:#A80036;stroke-width:2.0833333333333335;"/><line style="stroke:#A80036;stroke-width:3.125;" x1="1258.3333" x2="1258.3333" y1="948.0103" y2="958.4269"/><line style="stroke:#A80036;stroke-width:3.125;" x1="1258.3333" x2="525" y1="958.4269" y2="958.4269"/><line style="stroke:#A80036;stroke-width:3.125;" x1="525" x2="525" y1="958.4269" y2="989.6769"/><polygon fill="#A80036" points="516.6667,968.8436,525,989.6769,533.3333,968.8436,525,977.1769" style="stroke:#A80036;stroke-width:2.0833333333333335;"/><line style="stroke:#A80036;stroke-width:3.125;" x1="525" x2="525" y1="668.4285" y2="678.8452"/><line style="stroke:#A80036;stroke-width:3.125;" x1="525" x2="1258.3333" y1="678.8452" y2="678.8452"/><line style="stroke:#A80036;stroke-width:3.125;" x1="1258.3333" x2="1258.3333" y1="678.8452" y2="710.0952"/><polygon fill="#A80036" points="1250,689.2619,1258.3333,710.0952,1266.6667,689.2619,1258.3333,697.5952" style="stroke:#A80036;stroke-width:2.0833333333333335;"/><text fill="#000000" font-family="sans-serif" font-size="37.5" lengthAdjust="spacing" textLength="281.25" x="393.75" y="64.8763">Quản Trị Nhà Xe</text><text fill="#000000" font-family="sans-serif" font-size="37.5" lengthAdjust="spacing" textLength="152.0833" x="1248.9583" y="64.8763">Hệ thống</text><!--MD5=[e282c111e2193d6eac56e7de0d0607d6]
@startuml
skinparam dpi 200

|Buss Admin| Quản Trị Nhà Xe

	#lightgreen:Từ màn hình
	<b>Danh sách Xe</b> >

	fork
		:Chọn các Xe muốn xóa
		ở cột <b>Checkbox</b>
		phía cuối cùng;
	fork again
		:Nhập
		<b>- Ngày bắt đầu khóa</b> <color:red>*</color>
		<b>- Ngày kết thúc khóa</b> (để trống = vô thời hạn)
		<b>- Lý do</b>;
	end merge

	:Click nút
	<b>Khóa</b>;
|System| Hệ thống

	if (Có bất cứ khách nào đang đặt?) then (Đúng)

		:Hiện yes/no pop-up
		<b>Có Xe đang được đặt</b>,
		<b>Bạn vẫn muốn khóa chứ?</b>;

		|Buss Admin|
		if (Click hoặc chọn) is (Khác) then
			|System|
			:Tắt pop-up;
			end
		else (nút <b>Đồng ý</b>)
			|System|
				:Khóa chuyến đặt trước
				<b>của các xe này</b>;

				:Gửi email cho các
				<b>Khách hàng liên quan</b>;
		endif
	else (Sai)
	endif

	|System|
		:Khóa các
		<b>Xe được chọn</b>;

	 	:Hiển thị tin nhắn
	 	<b>Khóa thành công!</b>;

	 	:Cập nhật lại
	 	<b>Danh sách hiển thị</b>;

	stop
@enduml

PlantUML version 1.2021.2(Sun Mar 07 18:10:27 ICT 2021)
(GPL source distribution)
Java Runtime: OpenJDK Runtime Environment
JVM: Eclipse OpenJ9 VM
Default Encoding: UTF-8
Language: en
Country: US
--></g></svg>