<?xml version="1.0" encoding="UTF-8" standalone="no"?><svg xmlns="http://www.w3.org/2000/svg" xmlns:xlink="http://www.w3.org/1999/xlink" contentScriptType="application/ecmascript" contentStyleType="text/css" height="1137.5px" preserveAspectRatio="none" style="width:1935px;height:1137px;" version="1.1" viewBox="0 0 1935 1137" width="1935.4167px" zoomAndPan="magnify"><defs><filter height="300%" id="fovenrcvxrski" width="300%" x="-1" y="-1"><feGaussianBlur result="blurOut" stdDeviation="4.166666666666667"/><feColorMatrix in="blurOut" result="blurOut2" type="matrix" values="0 0 0 0 0 0 0 0 0 0 0 0 0 0 0 0 0 0 .4 0"/><feOffset dx="8.333333333333334" dy="8.333333333333334" in="blurOut2" result="blurOut3"/><feBlend in="SourceGraphic" in2="blurOut3" mode="normal"/></filter></defs><g><polygon fill="#90EE90" filter="url(#fovenrcvxrski)" points="410.4167,83.5327,731.25,83.5327,752.0833,120.0887,731.25,156.6447,410.4167,156.6447" style="stroke:#A80036;stroke-width:3.125;"/><text fill="#000000" font-family="sans-serif" font-size="25" lengthAdjust="spacing" textLength="52.0833" x="431.25" y="130.3182">from</text><text fill="#000000" font-family="sans-serif" font-size="25" font-weight="bold" lengthAdjust="spacing" textLength="168.75" x="489.5833" y="130.3182">List of Busses</text><text fill="#000000" font-family="sans-serif" font-size="25" lengthAdjust="spacing" textLength="45.8333" x="664.5833" y="130.3182">flow</text><rect fill="#000000" filter="url(#fovenrcvxrski)" height="12.5" rx="5.2083" ry="5.2083" style="stroke:#000000;stroke-width:2.0833333333333335;" width="1016.6667" x="43.75" y="198.3114"/><rect fill="#FEFECE" filter="url(#fovenrcvxrski)" height="104.5573" rx="26.0417" ry="26.0417" style="stroke:#A80036;stroke-width:3.125;" width="370.8333" x="68.75" y="252.478"/><text fill="#000000" font-family="sans-serif" font-size="25" lengthAdjust="spacing" textLength="68.75" x="89.5833" y="299.2635">select</text><text fill="#000000" font-family="sans-serif" font-size="25" font-weight="bold" lengthAdjust="spacing" textLength="87.5" x="164.5833" y="299.2635">busses</text><text fill="#000000" font-family="sans-serif" font-size="25" lengthAdjust="spacing" textLength="81.25" x="258.3333" y="299.2635">want to</text><text fill="#000000" font-family="sans-serif" font-size="25" font-weight="bold" lengthAdjust="spacing" textLength="50" x="345.8333" y="299.2635">lock</text><text fill="#000000" font-family="sans-serif" font-size="25" lengthAdjust="spacing" textLength="29.1667" x="139.5833" y="330.7088">on</text><text fill="#FF0000" font-family="sans-serif" font-size="25" font-weight="bold" lengthAdjust="spacing" textLength="152.0833" x="175" y="330.7088">check boxes</text><text fill="#000000" font-family="sans-serif" font-size="25" lengthAdjust="spacing" textLength="85.4167" x="333.3333" y="330.7088">column</text><rect fill="#FEFECE" filter="url(#fovenrcvxrski)" height="73.112" rx="26.0417" ry="26.0417" style="stroke:#A80036;stroke-width:3.125;" width="275" x="497.9167" y="268.2007"/><text fill="#000000" font-family="sans-serif" font-size="25" lengthAdjust="spacing" textLength="56.25" x="518.75" y="314.9862">input</text><text fill="#000000" font-family="sans-serif" font-size="25" font-weight="bold" lengthAdjust="spacing" textLength="116.6667" x="581.25" y="314.9862">Date from</text><text fill="#000000" font-family="sans-serif" font-size="25" lengthAdjust="spacing" textLength="47.9167" x="704.1667" y="314.9862">field</text><rect fill="#FEFECE" filter="url(#fovenrcvxrski)" height="73.112" rx="26.0417" ry="26.0417" style="stroke:#A80036;stroke-width:3.125;" width="241.6667" x="793.75" y="268.2007"/><text fill="#000000" font-family="sans-serif" font-size="25" lengthAdjust="spacing" textLength="56.25" x="814.5833" y="314.9862">input</text><text fill="#000000" font-family="sans-serif" font-size="25" font-weight="bold" lengthAdjust="spacing" textLength="83.3333" x="877.0833" y="314.9862">Date to</text><text fill="#000000" font-family="sans-serif" font-size="25" lengthAdjust="spacing" textLength="47.9167" x="966.6667" y="314.9862">field</text><polygon fill="#FEFECE" filter="url(#fovenrcvxrski)" points="570.8333,377.8687,595.8333,402.8687,570.8333,427.8687,545.8333,402.8687,570.8333,377.8687" style="stroke:#A80036;stroke-width:3.125;"/><rect fill="#FEFECE" filter="url(#fovenrcvxrski)" height="73.112" rx="26.0417" ry="26.0417" style="stroke:#A80036;stroke-width:3.125;" width="233.3333" x="454.1667" y="469.5353"/><text fill="#000000" font-family="sans-serif" font-size="25" lengthAdjust="spacing" textLength="50" x="475" y="516.3208">click</text><text fill="#FF0000" font-family="sans-serif" font-size="25" font-weight="bold" lengthAdjust="spacing" textLength="58.3333" x="531.25" y="516.3208">Lock</text><text fill="#000000" font-family="sans-serif" font-size="25" lengthAdjust="spacing" textLength="70.8333" x="595.8333" y="516.3208">button</text><line style="stroke:#000000;stroke-width:4.166666666666667;" x1="31.25" x2="31.25" y1="25.9481" y2="1103.6499"/><polygon fill="#FEFECE" filter="url(#fovenrcvxrski)" points="1484.8958,584.314,1553.6458,584.314,1578.6458,609.314,1553.6458,634.314,1484.8958,634.314,1459.8958,609.314,1484.8958,584.314" style="stroke:#A80036;stroke-width:3.125;"/><text fill="#000000" font-family="sans-serif" font-size="22.9167" lengthAdjust="spacing" textLength="68.75" x="1484.8958" y="618.691">is valid</text><text fill="#000000" font-family="sans-serif" font-size="22.9167" lengthAdjust="spacing" textLength="37.5" x="1422.3958" y="604.2786">yes</text><text fill="#000000" font-family="sans-serif" font-size="22.9167" lengthAdjust="spacing" textLength="25" x="1578.6458" y="604.2786">no</text><rect fill="#FEFECE" filter="url(#fovenrcvxrski)" height="73.112" rx="26.0417" ry="26.0417" style="stroke:#A80036;stroke-width:3.125;" width="318.75" x="1154.1667" y="655.1473"/><text fill="#000000" font-family="sans-serif" font-size="25" lengthAdjust="spacing" textLength="277.0833" x="1175" y="701.9328">lock all selected busses</text><rect fill="#FEFECE" filter="url(#fovenrcvxrski)" height="73.112" rx="26.0417" ry="26.0417" style="stroke:#A80036;stroke-width:3.125;" width="437.5" x="1094.7917" y="769.9259"/><text fill="#000000" font-family="sans-serif" font-size="25" lengthAdjust="spacing" textLength="254.1667" x="1115.625" y="816.7114">move those busses to</text><text fill="#000000" font-family="sans-serif" font-size="25" font-weight="bold" lengthAdjust="spacing" textLength="93.75" x="1376.0417" y="816.7114">Locking</text><text fill="#000000" font-family="sans-serif" font-size="25" lengthAdjust="spacing" textLength="35.4167" x="1476.0417" y="816.7114">tab</text><rect fill="#FEFECE" filter="url(#fovenrcvxrski)" height="73.112" rx="26.0417" ry="26.0417" style="stroke:#A80036;stroke-width:3.125;" width="439.5833" x="1093.75" y="884.7046"/><text fill="#000000" font-family="sans-serif" font-size="25" lengthAdjust="spacing" textLength="397.9167" x="1114.5833" y="931.4901">display lock successfully message</text><rect fill="#FEFECE" filter="url(#fovenrcvxrski)" height="73.112" rx="26.0417" ry="26.0417" style="stroke:#A80036;stroke-width:3.125;" width="300" x="1575" y="655.1473"/><text fill="#000000" font-family="sans-serif" font-size="25" lengthAdjust="spacing" textLength="258.3333" x="1595.8333" y="701.9328">display error message</text><polygon fill="#FEFECE" filter="url(#fovenrcvxrski)" points="1519.2708,970.3166,1544.2708,995.3166,1519.2708,1020.3166,1494.2708,995.3166,1519.2708,970.3166" style="stroke:#A80036;stroke-width:3.125;"/><ellipse cx="1519.2708" cy="1082.8166" fill="#FFFFFF" filter="url(#fovenrcvxrski)" rx="20.8333" ry="20.8333" style="stroke:#000000;stroke-width:3.125;"/><line style="stroke:#000000;stroke-width:5.208333333333334;" x1="1506.3809" x2="1532.1608" y1="1069.9266" y2="1095.7065"/><line style="stroke:#000000;stroke-width:5.208333333333334;" x1="1532.1608" x2="1506.3809" y1="1069.9266" y2="1095.7065"/><line style="stroke:#000000;stroke-width:4.166666666666667;" x1="1081.25" x2="1081.25" y1="25.9481" y2="1103.6499"/><line style="stroke:#000000;stroke-width:4.166666666666667;" x1="1895.8333" x2="1895.8333" y1="25.9481" y2="1103.6499"/><line style="stroke:#A80036;stroke-width:3.125;" x1="254.1667" x2="254.1667" y1="210.8114" y2="252.478"/><polygon fill="#A80036" points="245.8333,231.6447,254.1667,252.478,262.5,231.6447,254.1667,239.978" style="stroke:#A80036;stroke-width:2.0833333333333335;"/><line style="stroke:#A80036;stroke-width:3.125;" x1="635.4167" x2="635.4167" y1="210.8114" y2="268.2007"/><polygon fill="#A80036" points="627.0833,247.3674,635.4167,268.2007,643.75,247.3674,635.4167,255.7007" style="stroke:#A80036;stroke-width:2.0833333333333335;"/><line style="stroke:#A80036;stroke-width:3.125;" x1="914.5833" x2="914.5833" y1="210.8114" y2="268.2007"/><polygon fill="#A80036" points="906.25,247.3674,914.5833,268.2007,922.9167,247.3674,914.5833,255.7007" style="stroke:#A80036;stroke-width:2.0833333333333335;"/><line style="stroke:#A80036;stroke-width:3.125;" x1="254.1667" x2="254.1667" y1="357.0353" y2="402.8687"/><line style="stroke:#A80036;stroke-width:3.125;" x1="254.1667" x2="545.8333" y1="402.8687" y2="402.8687"/><polygon fill="#A80036" points="525,394.5353,545.8333,402.8687,525,411.202,533.3333,402.8687" style="stroke:#A80036;stroke-width:2.0833333333333335;"/><line style="stroke:#A80036;stroke-width:3.125;" x1="635.4167" x2="635.4167" y1="341.3127" y2="402.8687"/><line style="stroke:#A80036;stroke-width:3.125;" x1="635.4167" x2="595.8333" y1="402.8687" y2="402.8687"/><polygon fill="#A80036" points="616.6667,394.5353,595.8333,402.8687,616.6667,411.202,608.3333,402.8687" style="stroke:#A80036;stroke-width:2.0833333333333335;"/><line style="stroke:#A80036;stroke-width:3.125;" x1="914.5833" x2="914.5833" y1="341.3127" y2="427.8687"/><line style="stroke:#A80036;stroke-width:3.125;" x1="914.5833" x2="570.8333" y1="427.8687" y2="427.8687"/><line style="stroke:#A80036;stroke-width:3.125;" x1="570.8333" x2="570.8333" y1="427.8687" y2="469.5353"/><polygon fill="#A80036" points="562.5,448.702,570.8333,469.5353,579.1667,448.702,570.8333,457.0353" style="stroke:#A80036;stroke-width:2.0833333333333335;"/><line style="stroke:#A80036;stroke-width:3.125;" x1="570.8333" x2="570.8333" y1="156.6447" y2="198.3114"/><polygon fill="#A80036" points="562.5,177.478,570.8333,198.3114,579.1667,177.478,570.8333,185.8114" style="stroke:#A80036;stroke-width:2.0833333333333335;"/><line style="stroke:#A80036;stroke-width:3.125;" x1="1313.5417" x2="1313.5417" y1="728.2593" y2="769.9259"/><polygon fill="#A80036" points="1305.2083,749.0926,1313.5417,769.9259,1321.875,749.0926,1313.5417,757.4259" style="stroke:#A80036;stroke-width:2.0833333333333335;"/><line style="stroke:#A80036;stroke-width:3.125;" x1="1313.5417" x2="1313.5417" y1="843.0379" y2="884.7046"/><polygon fill="#A80036" points="1305.2083,863.8713,1313.5417,884.7046,1321.875,863.8713,1313.5417,872.2046" style="stroke:#A80036;stroke-width:2.0833333333333335;"/><line style="stroke:#A80036;stroke-width:3.125;" x1="1459.8958" x2="1313.5417" y1="609.314" y2="609.314"/><line style="stroke:#A80036;stroke-width:3.125;" x1="1313.5417" x2="1313.5417" y1="609.314" y2="655.1473"/><polygon fill="#A80036" points="1305.2083,634.314,1313.5417,655.1473,1321.875,634.314,1313.5417,642.6473" style="stroke:#A80036;stroke-width:2.0833333333333335;"/><line style="stroke:#A80036;stroke-width:3.125;" x1="1578.6458" x2="1725" y1="609.314" y2="609.314"/><line style="stroke:#A80036;stroke-width:3.125;" x1="1725" x2="1725" y1="609.314" y2="655.1473"/><polygon fill="#A80036" points="1716.6667,634.314,1725,655.1473,1733.3333,634.314,1725,642.6473" style="stroke:#A80036;stroke-width:2.0833333333333335;"/><line style="stroke:#A80036;stroke-width:3.125;" x1="1313.5417" x2="1313.5417" y1="957.8166" y2="995.3166"/><line style="stroke:#A80036;stroke-width:3.125;" x1="1313.5417" x2="1494.2708" y1="995.3166" y2="995.3166"/><polygon fill="#A80036" points="1473.4375,986.9832,1494.2708,995.3166,1473.4375,1003.6499,1481.7708,995.3166" style="stroke:#A80036;stroke-width:2.0833333333333335;"/><line style="stroke:#A80036;stroke-width:3.125;" x1="1725" x2="1725" y1="728.2593" y2="995.3166"/><line style="stroke:#A80036;stroke-width:3.125;" x1="1725" x2="1544.2708" y1="995.3166" y2="995.3166"/><polygon fill="#A80036" points="1565.1042,986.9832,1544.2708,995.3166,1565.1042,1003.6499,1556.7708,995.3166" style="stroke:#A80036;stroke-width:2.0833333333333335;"/><line style="stroke:#A80036;stroke-width:3.125;" x1="1519.2708" x2="1519.2708" y1="1020.3166" y2="1061.9832"/><polygon fill="#A80036" points="1510.9375,1041.1499,1519.2708,1061.9832,1527.6042,1041.1499,1519.2708,1049.4832" style="stroke:#A80036;stroke-width:2.0833333333333335;"/><line style="stroke:#A80036;stroke-width:3.125;" x1="570.8333" x2="570.8333" y1="542.6473" y2="553.064"/><line style="stroke:#A80036;stroke-width:3.125;" x1="570.8333" x2="1519.2708" y1="553.064" y2="553.064"/><line style="stroke:#A80036;stroke-width:3.125;" x1="1519.2708" x2="1519.2708" y1="553.064" y2="584.314"/><polygon fill="#A80036" points="1510.9375,563.4806,1519.2708,584.314,1527.6042,563.4806,1519.2708,571.814" style="stroke:#A80036;stroke-width:2.0833333333333335;"/><text fill="#000000" font-family="sans-serif" font-size="37.5" lengthAdjust="spacing" textLength="195.8333" x="458.3333" y="64.8763">Buss Admin</text><text fill="#000000" font-family="sans-serif" font-size="37.5" lengthAdjust="spacing" textLength="122.9167" x="1427.0833" y="64.8763">System</text><!--MD5=[e5cab141284513f8613f7172dbe7f291]
@startuml
skinparam dpi 200

|Buss Admin|
#lightgreen:from <b>List of Busses</b> flow>
fork
:select <b>busses</b> want to <b>lock</b>
	on <b><color:red>check boxes</color></b> column;
fork again
:input <b>Date from</b> field;
fork again
:input <b>Date to</b> field;
end merge
:click <b><color:red>Lock</color></b> button;
|System|
if (is valid) then (yes)
	:lock all selected busses;
	:move those busses to <b>Locking</b> tab;
	:display lock successfully message;
else (no)
	:display error message;
endif
end
@enduml

PlantUML version 1.2021.2(Sun Mar 07 18:10:27 ICT 2021)
(GPL source distribution)
Java Runtime: OpenJDK Runtime Environment
JVM: Eclipse OpenJ9 VM
Default Encoding: UTF-8
Language: en
Country: US
--></g></svg>