<?xml version="1.0" encoding="UTF-8" standalone="no"?><svg xmlns="http://www.w3.org/2000/svg" xmlns:xlink="http://www.w3.org/1999/xlink" contentScriptType="application/ecmascript" contentStyleType="text/css" height="1225px" preserveAspectRatio="none" style="width:1014px;height:1225px;" version="1.1" viewBox="0 0 1014 1225" width="1014.5833px" zoomAndPan="magnify"><defs><filter height="300%" id="f111g4kjinuy09" width="300%" x="-1" y="-1"><feGaussianBlur result="blurOut" stdDeviation="4.166666666666667"/><feColorMatrix in="blurOut" result="blurOut2" type="matrix" values="0 0 0 0 0 0 0 0 0 0 0 0 0 0 0 0 0 0 .4 0"/><feOffset dx="8.333333333333334" dy="8.333333333333334" in="blurOut2" result="blurOut3"/><feBlend in="SourceGraphic" in2="blurOut3" mode="normal"/></filter></defs><g><ellipse cx="212.5" cy="104.366" fill="#000000" filter="url(#f111g4kjinuy09)" rx="20.8333" ry="20.8333" style="stroke:none;stroke-width:2.0833333333333335;"/><rect fill="#FEFECE" filter="url(#f111g4kjinuy09)" height="104.5573" rx="26.0417" ry="26.0417" style="stroke:#A80036;stroke-width:3.125;" width="191.6667" x="116.6667" y="166.866"/><text fill="#000000" font-family="sans-serif" font-size="25" lengthAdjust="spacing" textLength="150" x="137.5" y="213.6515">Mở màn hình</text><text fill="#000000" font-family="sans-serif" font-size="25" font-weight="bold" lengthAdjust="spacing" textLength="127.0833" x="137.5" y="245.0968">Đăng nhập</text><rect fill="#FEFECE" filter="url(#f111g4kjinuy09)" height="104.5573" rx="26.0417" ry="26.0417" style="stroke:#A80036;stroke-width:3.125;" width="262.5" x="81.25" y="427.8687"/><text fill="#000000" font-family="sans-serif" font-size="25" lengthAdjust="spacing" textLength="220.8333" x="102.0833" y="474.6541">Enter hoặc click nút</text><text fill="#000000" font-family="sans-serif" font-size="25" font-weight="bold" lengthAdjust="spacing" textLength="127.0833" x="102.0833" y="506.0994">Đăng nhập</text><rect fill="#FEFECE" filter="url(#f111g4kjinuy09)" height="73.112" rx="26.0417" ry="26.0417" style="stroke:#A80036;stroke-width:3.125;" width="337.5" x="43.75" y="313.09"/><text fill="#000000" font-family="sans-serif" font-size="25" lengthAdjust="spacing" textLength="295.8333" x="64.5833" y="359.8755">Nhập thông tin đăng nhập</text><line style="stroke:#000000;stroke-width:4.166666666666667;" x1="31.25" x2="31.25" y1="25.9481" y2="1191.3839"/><polygon fill="#FEFECE" filter="url(#f111g4kjinuy09)" points="582.8125,574.0926,755.7292,574.0926,780.7292,599.0926,755.7292,624.0926,582.8125,624.0926,557.8125,599.0926,582.8125,574.0926" style="stroke:#A80036;stroke-width:3.125;"/><text fill="#000000" font-family="sans-serif" font-size="22.9167" lengthAdjust="spacing" textLength="172.9167" x="582.8125" y="608.4696">Thông tin hợp lệ?</text><text fill="#000000" font-family="sans-serif" font-size="22.9167" lengthAdjust="spacing" textLength="64.5833" x="780.7292" y="594.0572">Không</text><rect fill="#FEFECE" filter="url(#f111g4kjinuy09)" height="104.5573" rx="26.0417" ry="26.0417" style="stroke:#A80036;stroke-width:3.125;" width="304.1667" x="517.1875" y="712.1195"/><text fill="#000000" font-family="sans-serif" font-size="25" lengthAdjust="spacing" textLength="262.5" x="538.0208" y="758.905">Lưu thông tin liên quan</text><text fill="#000000" font-family="sans-serif" font-size="25" lengthAdjust="spacing" textLength="229.1667" x="538.0208" y="790.3503">vào session hiện tại</text><polygon fill="#FEFECE" filter="url(#f111g4kjinuy09)" points="595.3125,858.3435,743.2292,858.3435,768.2292,887.1684,743.2292,915.9932,595.3125,915.9932,570.3125,887.1684,595.3125,858.3435" style="stroke:#A80036;stroke-width:3.125;"/><text fill="#000000" font-family="sans-serif" font-size="22.9167" lengthAdjust="spacing" textLength="137.5" x="595.3125" y="882.133">Đăng nhập từ</text><text fill="#000000" font-family="sans-serif" font-size="22.9167" lengthAdjust="spacing" textLength="147.9167" x="595.3125" y="910.9578">flow dở dang?</text><text fill="#000000" font-family="sans-serif" font-size="22.9167" lengthAdjust="spacing" textLength="25" x="545.3125" y="882.133">có</text><text fill="#000000" font-family="sans-serif" font-size="22.9167" lengthAdjust="spacing" textLength="60.4167" x="768.2292" y="882.133">không</text><rect fill="#FEFECE" filter="url(#f111g4kjinuy09)" height="73.112" rx="26.0417" ry="26.0417" style="stroke:#A80036;stroke-width:3.125;" width="218.75" x="414.5833" y="936.8266"/><text fill="#000000" font-family="sans-serif" font-size="25" lengthAdjust="spacing" textLength="177.0833" x="435.4167" y="983.6121">Tiếp tục flow đó</text><rect fill="#FEFECE" filter="url(#f111g4kjinuy09)" height="104.5573" rx="26.0417" ry="26.0417" style="stroke:#A80036;stroke-width:3.125;" width="279.1667" x="675" y="936.8266"/><text fill="#000000" font-family="sans-serif" font-size="25" lengthAdjust="spacing" textLength="237.5" x="695.8333" y="983.6121">Chuyển tới màn hình</text><text fill="#000000" font-family="sans-serif" font-size="25" font-weight="bold" lengthAdjust="spacing" textLength="208.3333" x="695.8333" y="1015.0574">Quản trị tài khoản</text><polygon fill="#FEFECE" filter="url(#f111g4kjinuy09)" points="669.2708,1053.8839,694.2708,1078.8839,669.2708,1103.8839,644.2708,1078.8839,669.2708,1053.8839" style="stroke:#A80036;stroke-width:3.125;"/><ellipse cx="669.2708" cy="1168.4672" fill="#FFFFFF" filter="url(#f111g4kjinuy09)" rx="22.9167" ry="22.9167" style="stroke:#000000;stroke-width:2.0833333333333335;"/><ellipse cx="669.2708" cy="1168.4672" fill="#000000" rx="12.5" ry="12.5" style="stroke:#7F7F7F;stroke-width:2.0833333333333335;"/><line style="stroke:#000000;stroke-width:4.166666666666667;" x1="402.0833" x2="402.0833" y1="25.9481" y2="1191.3839"/><line style="stroke:#000000;stroke-width:4.166666666666667;" x1="975" x2="975" y1="25.9481" y2="1191.3839"/><line style="stroke:#A80036;stroke-width:3.125;" x1="212.5" x2="212.5" y1="125.1994" y2="166.866"/><polygon fill="#A80036" points="204.1667,146.0327,212.5,166.866,220.8333,146.0327,212.5,154.366" style="stroke:#A80036;stroke-width:2.0833333333333335;"/><line style="stroke:#A80036;stroke-width:3.125;" x1="212.5" x2="212.5" y1="386.202" y2="427.8687"/><polygon fill="#A80036" points="204.1667,407.0353,212.5,427.8687,220.8333,407.0353,212.5,415.3687" style="stroke:#A80036;stroke-width:2.0833333333333335;"/><line style="stroke:#A80036;stroke-width:3.125;" x1="212.5" x2="212.5" y1="271.4233" y2="313.09"/><polygon fill="#A80036" points="204.1667,292.2567,212.5,313.09,220.8333,292.2567,212.5,300.59" style="stroke:#A80036;stroke-width:2.0833333333333335;"/><line style="stroke:#A80036;stroke-width:3.125;" x1="669.2708" x2="669.2708" y1="624.0926" y2="712.1195"/><polygon fill="#A80036" points="660.9375,691.2862,669.2708,712.1195,677.6042,691.2862,669.2708,699.6195" style="stroke:#A80036;stroke-width:2.0833333333333335;"/><text fill="#000000" font-family="sans-serif" font-size="22.9167" lengthAdjust="spacing" textLength="54.1667" x="677.6042" y="670.6258">Đúng</text><line style="stroke:#A80036;stroke-width:3.125;" x1="570.3125" x2="523.9583" y1="887.1684" y2="887.1684"/><line style="stroke:#A80036;stroke-width:3.125;" x1="523.9583" x2="523.9583" y1="887.1684" y2="936.8266"/><polygon fill="#A80036" points="515.625,915.9932,523.9583,936.8266,532.2917,915.9932,523.9583,924.3266" style="stroke:#A80036;stroke-width:2.0833333333333335;"/><line style="stroke:#A80036;stroke-width:3.125;" x1="768.2292" x2="814.5833" y1="887.1684" y2="887.1684"/><line style="stroke:#A80036;stroke-width:3.125;" x1="814.5833" x2="814.5833" y1="887.1684" y2="936.8266"/><polygon fill="#A80036" points="806.25,915.9932,814.5833,936.8266,822.9167,915.9932,814.5833,924.3266" style="stroke:#A80036;stroke-width:2.0833333333333335;"/><line style="stroke:#A80036;stroke-width:3.125;" x1="523.9583" x2="523.9583" y1="1009.9386" y2="1078.8839"/><line style="stroke:#A80036;stroke-width:3.125;" x1="523.9583" x2="644.2708" y1="1078.8839" y2="1078.8839"/><polygon fill="#A80036" points="623.4375,1070.5505,644.2708,1078.8839,623.4375,1087.2172,631.7708,1078.8839" style="stroke:#A80036;stroke-width:2.0833333333333335;"/><line style="stroke:#A80036;stroke-width:3.125;" x1="814.5833" x2="814.5833" y1="1041.3839" y2="1078.8839"/><line style="stroke:#A80036;stroke-width:3.125;" x1="814.5833" x2="694.2708" y1="1078.8839" y2="1078.8839"/><polygon fill="#A80036" points="715.1042,1070.5505,694.2708,1078.8839,715.1042,1087.2172,706.7708,1078.8839" style="stroke:#A80036;stroke-width:2.0833333333333335;"/><line style="stroke:#A80036;stroke-width:3.125;" x1="669.2708" x2="669.2708" y1="816.6768" y2="858.3435"/><polygon fill="#A80036" points="660.9375,837.5102,669.2708,858.3435,677.6042,837.5102,669.2708,845.8435" style="stroke:#A80036;stroke-width:2.0833333333333335;"/><line style="stroke:#A80036;stroke-width:3.125;" x1="669.2708" x2="669.2708" y1="1103.8839" y2="1145.5505"/><polygon fill="#A80036" points="660.9375,1124.7172,669.2708,1145.5505,677.6042,1124.7172,669.2708,1133.0505" style="stroke:#A80036;stroke-width:2.0833333333333335;"/><line style="stroke:#A80036;stroke-width:3.125;" x1="780.7292" x2="825.5208" y1="599.0926" y2="599.0926"/><polygon fill="#A80036" points="817.1875,495.2026,825.5208,474.3693,833.8542,495.2026,825.5208,486.8693" style="stroke:#A80036;stroke-width:3.125;"/><line style="stroke:#A80036;stroke-width:3.125;" x1="825.5208" x2="825.5208" y1="349.646" y2="599.0926"/><line style="stroke:#A80036;stroke-width:3.125;" x1="825.5208" x2="381.25" y1="349.646" y2="349.646"/><polygon fill="#A80036" points="402.0833,341.3127,381.25,349.646,402.0833,357.9793,393.75,349.646" style="stroke:#A80036;stroke-width:2.0833333333333335;"/><line style="stroke:#A80036;stroke-width:3.125;" x1="212.5" x2="212.5" y1="532.4259" y2="542.8426"/><line style="stroke:#A80036;stroke-width:3.125;" x1="212.5" x2="669.2708" y1="542.8426" y2="542.8426"/><line style="stroke:#A80036;stroke-width:3.125;" x1="669.2708" x2="669.2708" y1="542.8426" y2="574.0926"/><polygon fill="#A80036" points="660.9375,553.2593,669.2708,574.0926,677.6042,553.2593,669.2708,561.5926" style="stroke:#A80036;stroke-width:2.0833333333333335;"/><text fill="#000000" font-family="sans-serif" font-size="37.5" lengthAdjust="spacing" textLength="262.5" x="90.625" y="64.8763">Khách Vãng Lai</text><text fill="#000000" font-family="sans-serif" font-size="37.5" lengthAdjust="spacing" textLength="166.6667" x="610.4167" y="64.8763">Hệ Thống</text><!--MD5=[789c12692a3f95b081e6a26b816b3451]
@startuml
skinparam dpi 200

|Guest| Khách Vãng Lai
	start

	:Mở màn hình
	<b>Đăng nhập</b>;

	repeat :Nhập thông tin đăng nhập;

		:Enter hoặc click nút
		<b>Đăng nhập</b>;

|System| Hệ Thống
		repeat while (Thông tin hợp lệ?) is (Không)
	->Đúng;

	:Lưu thông tin liên quan
	vào session hiện tại;

	if (Đăng nhập từ\nflow dở dang?) then (có)
		:Tiếp tục flow đó;

	else (không)
		:Chuyển tới màn hình
		<b>Quản trị tài khoản</b>;

	endif

	stop
@enduml

PlantUML version 1.2021.2(Sun Mar 07 18:10:27 ICT 2021)
(GPL source distribution)
Java Runtime: OpenJDK Runtime Environment
JVM: Eclipse OpenJ9 VM
Default Encoding: UTF-8
Language: en
Country: US
--></g></svg>