<?xml version="1.0" encoding="UTF-8" standalone="no"?><svg xmlns="http://www.w3.org/2000/svg" xmlns:xlink="http://www.w3.org/1999/xlink" contentScriptType="application/ecmascript" contentStyleType="text/css" height="1152.0833px" preserveAspectRatio="none" style="width:1168px;height:1152px;" version="1.1" viewBox="0 0 1168 1152" width="1168.75px" zoomAndPan="magnify"><defs><filter height="300%" id="fcde8ekb26poa" width="300%" x="-1" y="-1"><feGaussianBlur result="blurOut" stdDeviation="4.166666666666667"/><feColorMatrix in="blurOut" result="blurOut2" type="matrix" values="0 0 0 0 0 0 0 0 0 0 0 0 0 0 0 0 0 0 .4 0"/><feOffset dx="8.333333333333334" dy="8.333333333333334" in="blurOut2" result="blurOut3"/><feBlend in="SourceGraphic" in2="blurOut3" mode="normal"/></filter></defs><g><ellipse cx="241.6667" cy="104.366" fill="#000000" filter="url(#fcde8ekb26poa)" rx="20.8333" ry="20.8333" style="stroke:none;stroke-width:2.0833333333333335;"/><rect fill="#FEFECE" filter="url(#fcde8ekb26poa)" height="73.112" rx="26.0417" ry="26.0417" style="stroke:#A80036;stroke-width:3.125;" width="316.6667" x="83.3333" y="166.866"/><text fill="#000000" font-family="sans-serif" font-size="25" lengthAdjust="spacing" textLength="141.6667" x="104.1667" y="213.6515">tại màn hình</text><text fill="#FF0000" font-family="sans-serif" font-size="25" font-weight="bold" lengthAdjust="spacing" textLength="127.0833" x="252.0833" y="213.6515">Đăng nhập</text><rect fill="#FEFECE" filter="url(#fcde8ekb26poa)" height="73.112" rx="26.0417" ry="26.0417" style="stroke:#A80036;stroke-width:3.125;" width="395.8333" x="43.75" y="396.4233"/><text fill="#000000" font-family="sans-serif" font-size="25" lengthAdjust="spacing" textLength="220.8333" x="64.5833" y="443.2088">Enter hoặc click nút</text><text fill="#000000" font-family="sans-serif" font-size="25" font-weight="bold" lengthAdjust="spacing" textLength="127.0833" x="291.6667" y="443.2088">Đăng nhập</text><rect fill="#FEFECE" filter="url(#fcde8ekb26poa)" height="73.112" rx="26.0417" ry="26.0417" style="stroke:#A80036;stroke-width:3.125;" width="337.5" x="72.9167" y="281.6447"/><text fill="#000000" font-family="sans-serif" font-size="25" lengthAdjust="spacing" textLength="295.8333" x="93.75" y="328.4302">Nhập thông tin đăng nhập</text><line style="stroke:#000000;stroke-width:4.166666666666667;" x1="31.25" x2="31.25" y1="25.9481" y2="1116.6768"/><polygon fill="#FEFECE" filter="url(#fcde8ekb26poa)" points="685.4167,511.202,858.3333,511.202,883.3333,536.202,858.3333,561.202,685.4167,561.202,660.4167,536.202,685.4167,511.202" style="stroke:#A80036;stroke-width:3.125;"/><text fill="#000000" font-family="sans-serif" font-size="22.9167" lengthAdjust="spacing" textLength="172.9167" x="685.4167" y="545.579">Thông tin hợp lệ?</text><text fill="#000000" font-family="sans-serif" font-size="22.9167" lengthAdjust="spacing" textLength="64.5833" x="883.3333" y="531.1666">Không</text><rect fill="#FEFECE" filter="url(#fcde8ekb26poa)" height="104.5573" rx="26.0417" ry="26.0417" style="stroke:#A80036;stroke-width:3.125;" width="304.1667" x="619.7917" y="649.2289"/><text fill="#000000" font-family="sans-serif" font-size="25" lengthAdjust="spacing" textLength="262.5" x="640.625" y="696.0144">Lưu thông tin liên quan</text><text fill="#000000" font-family="sans-serif" font-size="25" lengthAdjust="spacing" textLength="229.1667" x="640.625" y="727.4597">vào session hiện tại</text><polygon fill="#FEFECE" filter="url(#fcde8ekb26poa)" points="628.125,795.4529,915.625,795.4529,940.625,820.4529,915.625,845.4529,628.125,845.4529,603.125,820.4529,628.125,795.4529" style="stroke:#A80036;stroke-width:3.125;"/><text fill="#000000" font-family="sans-serif" font-size="22.9167" lengthAdjust="spacing" textLength="287.5" x="628.125" y="829.8299">đăng nhập từ flow dở dang?</text><text fill="#000000" font-family="sans-serif" font-size="22.9167" lengthAdjust="spacing" textLength="25" x="578.125" y="815.4175">có</text><text fill="#000000" font-family="sans-serif" font-size="22.9167" lengthAdjust="spacing" textLength="60.4167" x="940.625" y="815.4175">không</text><rect fill="#FEFECE" filter="url(#fcde8ekb26poa)" height="73.112" rx="26.0417" ry="26.0417" style="stroke:#A80036;stroke-width:3.125;" width="218.75" x="472.9167" y="866.2862"/><text fill="#000000" font-family="sans-serif" font-size="25" lengthAdjust="spacing" textLength="177.0833" x="493.75" y="913.0717">Tiếp tục flow đó</text><rect fill="#FEFECE" filter="url(#fcde8ekb26poa)" height="104.5573" rx="26.0417" ry="26.0417" style="stroke:#A80036;stroke-width:3.125;" width="293.75" x="814.5833" y="866.2862"/><text fill="#000000" font-family="sans-serif" font-size="25" lengthAdjust="spacing" textLength="252.0833" x="835.4167" y="913.0717">Điều hướng đến trang</text><text fill="#000000" font-family="sans-serif" font-size="25" lengthAdjust="spacing" textLength="195.8333" x="835.4167" y="944.517">quản trị tài khoản</text><polygon fill="#FEFECE" filter="url(#fcde8ekb26poa)" points="771.875,983.3435,796.875,1008.3435,771.875,1033.3435,746.875,1008.3435,771.875,983.3435" style="stroke:#A80036;stroke-width:3.125;"/><ellipse cx="771.875" cy="1095.8435" fill="#FFFFFF" filter="url(#fcde8ekb26poa)" rx="20.8333" ry="20.8333" style="stroke:#000000;stroke-width:3.125;"/><line style="stroke:#000000;stroke-width:5.208333333333334;" x1="758.985" x2="784.765" y1="1082.9535" y2="1108.7335"/><line style="stroke:#000000;stroke-width:5.208333333333334;" x1="784.765" x2="758.985" y1="1082.9535" y2="1108.7335"/><line style="stroke:#000000;stroke-width:4.166666666666667;" x1="460.4167" x2="460.4167" y1="25.9481" y2="1116.6768"/><line style="stroke:#000000;stroke-width:4.166666666666667;" x1="1129.1667" x2="1129.1667" y1="25.9481" y2="1116.6768"/><line style="stroke:#A80036;stroke-width:3.125;" x1="241.6667" x2="241.6667" y1="125.1994" y2="166.866"/><polygon fill="#A80036" points="233.3333,146.0327,241.6667,166.866,250,146.0327,241.6667,154.366" style="stroke:#A80036;stroke-width:2.0833333333333335;"/><line style="stroke:#A80036;stroke-width:3.125;" x1="241.6667" x2="241.6667" y1="354.7567" y2="396.4233"/><polygon fill="#A80036" points="233.3333,375.59,241.6667,396.4233,250,375.59,241.6667,383.9233" style="stroke:#A80036;stroke-width:2.0833333333333335;"/><line style="stroke:#A80036;stroke-width:3.125;" x1="241.6667" x2="241.6667" y1="239.978" y2="281.6447"/><polygon fill="#A80036" points="233.3333,260.8114,241.6667,281.6447,250,260.8114,241.6667,269.1447" style="stroke:#A80036;stroke-width:2.0833333333333335;"/><line style="stroke:#A80036;stroke-width:3.125;" x1="771.875" x2="771.875" y1="561.202" y2="649.2289"/><polygon fill="#A80036" points="763.5417,628.3956,771.875,649.2289,780.2083,628.3956,771.875,636.7289" style="stroke:#A80036;stroke-width:2.0833333333333335;"/><text fill="#000000" font-family="sans-serif" font-size="22.9167" lengthAdjust="spacing" textLength="54.1667" x="780.2083" y="607.7352">Đúng</text><line style="stroke:#A80036;stroke-width:3.125;" x1="603.125" x2="582.2917" y1="820.4529" y2="820.4529"/><line style="stroke:#A80036;stroke-width:3.125;" x1="582.2917" x2="582.2917" y1="820.4529" y2="866.2862"/><polygon fill="#A80036" points="573.9583,845.4529,582.2917,866.2862,590.625,845.4529,582.2917,853.7862" style="stroke:#A80036;stroke-width:2.0833333333333335;"/><line style="stroke:#A80036;stroke-width:3.125;" x1="940.625" x2="961.4583" y1="820.4529" y2="820.4529"/><line style="stroke:#A80036;stroke-width:3.125;" x1="961.4583" x2="961.4583" y1="820.4529" y2="866.2862"/><polygon fill="#A80036" points="953.125,845.4529,961.4583,866.2862,969.7917,845.4529,961.4583,853.7862" style="stroke:#A80036;stroke-width:2.0833333333333335;"/><line style="stroke:#A80036;stroke-width:3.125;" x1="582.2917" x2="582.2917" y1="939.3982" y2="1008.3435"/><line style="stroke:#A80036;stroke-width:3.125;" x1="582.2917" x2="746.875" y1="1008.3435" y2="1008.3435"/><polygon fill="#A80036" points="726.0417,1000.0102,746.875,1008.3435,726.0417,1016.6768,734.375,1008.3435" style="stroke:#A80036;stroke-width:2.0833333333333335;"/><line style="stroke:#A80036;stroke-width:3.125;" x1="961.4583" x2="961.4583" y1="970.8435" y2="1008.3435"/><line style="stroke:#A80036;stroke-width:3.125;" x1="961.4583" x2="796.875" y1="1008.3435" y2="1008.3435"/><polygon fill="#A80036" points="817.7083,1000.0102,796.875,1008.3435,817.7083,1016.6768,809.375,1008.3435" style="stroke:#A80036;stroke-width:2.0833333333333335;"/><line style="stroke:#A80036;stroke-width:3.125;" x1="771.875" x2="771.875" y1="753.7862" y2="795.4529"/><polygon fill="#A80036" points="763.5417,774.6195,771.875,795.4529,780.2083,774.6195,771.875,782.9529" style="stroke:#A80036;stroke-width:2.0833333333333335;"/><line style="stroke:#A80036;stroke-width:3.125;" x1="771.875" x2="771.875" y1="1033.3435" y2="1075.0102"/><polygon fill="#A80036" points="763.5417,1054.1768,771.875,1075.0102,780.2083,1054.1768,771.875,1062.5102" style="stroke:#A80036;stroke-width:2.0833333333333335;"/><line style="stroke:#A80036;stroke-width:3.125;" x1="883.3333" x2="994.7917" y1="536.202" y2="536.202"/><polygon fill="#A80036" points="986.4583,448.0347,994.7917,427.2013,1003.125,448.0347,994.7917,439.7013" style="stroke:#A80036;stroke-width:3.125;"/><line style="stroke:#A80036;stroke-width:3.125;" x1="994.7917" x2="994.7917" y1="318.2007" y2="536.202"/><line style="stroke:#A80036;stroke-width:3.125;" x1="994.7917" x2="410.4167" y1="318.2007" y2="318.2007"/><polygon fill="#A80036" points="431.25,309.8674,410.4167,318.2007,431.25,326.534,422.9167,318.2007" style="stroke:#A80036;stroke-width:2.0833333333333335;"/><line style="stroke:#A80036;stroke-width:3.125;" x1="241.6667" x2="241.6667" y1="469.5353" y2="479.952"/><line style="stroke:#A80036;stroke-width:3.125;" x1="241.6667" x2="771.875" y1="479.952" y2="479.952"/><line style="stroke:#A80036;stroke-width:3.125;" x1="771.875" x2="771.875" y1="479.952" y2="511.202"/><polygon fill="#A80036" points="763.5417,490.3687,771.875,511.202,780.2083,490.3687,771.875,498.702" style="stroke:#A80036;stroke-width:2.0833333333333335;"/><text fill="#000000" font-family="sans-serif" font-size="37.5" lengthAdjust="spacing" textLength="245.8333" x="128.125" y="64.8763">Khách vãng lai</text><text fill="#000000" font-family="sans-serif" font-size="37.5" lengthAdjust="spacing" textLength="152.0833" x="723.9583" y="64.8763">Hệ thống</text><!--MD5=[e66404135935f8bd81bf8ac4516e0412]
@startuml
skinparam dpi 200

|Guest| Khách vãng lai
start
:tại màn hình <b><color:red>Đăng nhập</color></b>;
repeat :Nhập thông tin đăng nhập;
	:Enter hoặc click nút <b>Đăng nhập</b>;
|System| Hệ thống
repeat while (Thông tin hợp lệ?) is (Không)
->Đúng;
:Lưu thông tin liên quan
vào session hiện tại;
if (đăng nhập từ flow dở dang?) then (có)
	:Tiếp tục flow đó;
else (không)
	:Điều hướng đến trang
	quản trị tài khoản;
endif
end
@enduml

PlantUML version 1.2021.2(Sun Mar 07 18:10:27 ICT 2021)
(GPL source distribution)
Java Runtime: OpenJDK Runtime Environment
JVM: Eclipse OpenJ9 VM
Default Encoding: UTF-8
Language: en
Country: US
--></g></svg>