<?xml version="1.0" encoding="UTF-8" standalone="no"?><svg xmlns="http://www.w3.org/2000/svg" xmlns:xlink="http://www.w3.org/1999/xlink" contentScriptType="application/ecmascript" contentStyleType="text/css" height="1235.4167px" preserveAspectRatio="none" style="width:864px;height:1235px;" version="1.1" viewBox="0 0 864 1235" width="864.5833px" zoomAndPan="magnify"><defs><filter height="300%" id="fdudvoxwrjk9e" width="300%" x="-1" y="-1"><feGaussianBlur result="blurOut" stdDeviation="4.166666666666667"/><feColorMatrix in="blurOut" result="blurOut2" type="matrix" values="0 0 0 0 0 0 0 0 0 0 0 0 0 0 0 0 0 0 .4 0"/><feOffset dx="8.333333333333334" dy="8.333333333333334" in="blurOut2" result="blurOut3"/><feBlend in="SourceGraphic" in2="blurOut3" mode="normal"/></filter></defs><g><polygon fill="#90EE90" filter="url(#fdudvoxwrjk9e)" points="73.9583,83.5327,284.375,83.5327,305.2083,135.8114,284.375,188.09,73.9583,188.09" style="stroke:#A80036;stroke-width:3.125;"/><text fill="#000000" font-family="sans-serif" font-size="25" lengthAdjust="spacing" textLength="83.3333" x="94.7917" y="130.3182">Từ flow</text><text fill="#000000" font-family="sans-serif" font-size="25" font-weight="bold" lengthAdjust="spacing" textLength="162.5" x="94.7917" y="161.7635">Danh sách Vé</text><text fill="#000000" font-family="sans-serif" font-size="25" lengthAdjust="spacing" textLength="0" x="263.5417" y="161.7635"/><rect fill="#FEFECE" filter="url(#fdudvoxwrjk9e)" height="104.5573" rx="26.0417" ry="26.0417" style="stroke:#A80036;stroke-width:3.125;" width="270.8333" x="43.75" y="229.7567"/><text fill="#000000" font-family="sans-serif" font-size="25" lengthAdjust="spacing" textLength="189.5833" x="64.5833" y="276.5422">Chọn Ghế muốn</text><text fill="#000000" font-family="sans-serif" font-size="25" lengthAdjust="spacing" textLength="229.1667" x="64.5833" y="307.9875">xác nhận thanh toán</text><rect fill="#FEFECE" filter="url(#fdudvoxwrjk9e)" height="167.4479" rx="26.0417" ry="26.0417" style="stroke:#A80036;stroke-width:3.125;" width="229.1667" x="64.5833" y="375.9806"/><text fill="#000000" font-family="sans-serif" font-size="25" lengthAdjust="spacing" textLength="97.9167" x="85.4167" y="422.7661">Click nút</text><text fill="#000000" font-family="sans-serif" font-size="25" font-weight="bold" lengthAdjust="spacing" textLength="137.5" x="85.4167" y="454.2114">Thanh Toán</text><text fill="#000000" font-family="sans-serif" font-size="25" lengthAdjust="spacing" textLength="56.25" x="85.4167" y="485.6567">hoặc</text><text fill="#000000" font-family="sans-serif" font-size="25" font-weight="bold" lengthAdjust="spacing" textLength="187.5" x="85.4167" y="517.1021">Hủy Thanh Toán</text><polygon fill="#FEFECE" filter="url(#fdudvoxwrjk9e)" points="98.9583,731.3192,259.375,731.3192,284.375,756.3192,259.375,781.3192,98.9583,781.3192,73.9583,756.3192,98.9583,731.3192" style="stroke:#A80036;stroke-width:3.125;"/><text fill="#000000" font-family="sans-serif" font-size="22.9167" lengthAdjust="spacing" textLength="72.9167" x="187.5" y="805.1086">Đồng ý</text><text fill="#000000" font-family="sans-serif" font-size="22.9167" lengthAdjust="spacing" textLength="160.4167" x="98.9583" y="765.6962">Click hoặc Chọn</text><text fill="#000000" font-family="sans-serif" font-size="22.9167" lengthAdjust="spacing" textLength="52.0833" x="284.375" y="751.2838">Khác</text><polygon fill="#FEFECE" filter="url(#fdudvoxwrjk9e)" points="179.1667,948.0103,204.1667,973.0103,179.1667,998.0103,154.1667,973.0103,179.1667,948.0103" style="stroke:#A80036;stroke-width:3.125;"/><line style="stroke:#000000;stroke-width:4.166666666666667;" x1="31.25" x2="31.25" y1="25.9481" y2="1200.2889"/><rect fill="#FEFECE" filter="url(#fdudvoxwrjk9e)" height="104.5573" rx="26.0417" ry="26.0417" style="stroke:#A80036;stroke-width:3.125;" width="270.8333" x="475" y="585.0952"/><text fill="#000000" font-family="sans-serif" font-size="25" lengthAdjust="spacing" textLength="141.6667" x="495.8333" y="631.8807">Hiện pop-up</text><text fill="#000000" font-family="sans-serif" font-size="25" font-weight="bold" lengthAdjust="spacing" textLength="229.1667" x="495.8333" y="663.326">Bạn chắc chắn chứ</text><rect fill="#FEFECE" filter="url(#fdudvoxwrjk9e)" height="73.112" rx="26.0417" ry="26.0417" style="stroke:#A80036;stroke-width:3.125;" width="385.4167" x="417.7083" y="833.2316"/><text fill="#000000" font-family="sans-serif" font-size="25" lengthAdjust="spacing" textLength="343.75" x="438.5417" y="880.0171">Cập nhật trạng thái thanh toán</text><rect fill="#FEFECE" filter="url(#fdudvoxwrjk9e)" height="73.112" rx="26.0417" ry="26.0417" style="stroke:#A80036;stroke-width:3.125;" width="164.5833" x="528.125" y="1039.6769"/><text fill="#000000" font-family="sans-serif" font-size="25" lengthAdjust="spacing" textLength="122.9167" x="548.9583" y="1086.4624">Tắt pop-up</text><ellipse cx="610.4167" cy="1177.3722" fill="#FFFFFF" filter="url(#fdudvoxwrjk9e)" rx="22.9167" ry="22.9167" style="stroke:#000000;stroke-width:2.0833333333333335;"/><ellipse cx="610.4167" cy="1177.3722" fill="#000000" rx="12.5" ry="12.5" style="stroke:#7F7F7F;stroke-width:2.0833333333333335;"/><line style="stroke:#000000;stroke-width:4.166666666666667;" x1="405.2083" x2="405.2083" y1="25.9481" y2="1200.2889"/><line style="stroke:#000000;stroke-width:4.166666666666667;" x1="823.9583" x2="823.9583" y1="25.9481" y2="1200.2889"/><line style="stroke:#A80036;stroke-width:3.125;" x1="179.1667" x2="179.1667" y1="188.09" y2="229.7567"/><polygon fill="#A80036" points="170.8333,208.9233,179.1667,229.7567,187.5,208.9233,179.1667,217.2567" style="stroke:#A80036;stroke-width:2.0833333333333335;"/><line style="stroke:#A80036;stroke-width:3.125;" x1="179.1667" x2="179.1667" y1="334.314" y2="375.9806"/><polygon fill="#A80036" points="170.8333,355.1473,179.1667,375.9806,187.5,355.1473,179.1667,363.4806" style="stroke:#A80036;stroke-width:2.0833333333333335;"/><line style="stroke:#A80036;stroke-width:3.125;" x1="284.375" x2="365.625" y1="756.3192" y2="756.3192"/><polygon fill="#A80036" points="357.2917,848.9543,365.625,869.7876,373.9583,848.9543,365.625,857.2876" style="stroke:#A80036;stroke-width:3.125;"/><line style="stroke:#A80036;stroke-width:3.125;" x1="365.625" x2="365.625" y1="756.3192" y2="973.0103"/><line style="stroke:#A80036;stroke-width:3.125;" x1="365.625" x2="204.1667" y1="973.0103" y2="973.0103"/><polygon fill="#A80036" points="225,964.6769,204.1667,973.0103,225,981.3436,216.6667,973.0103" style="stroke:#A80036;stroke-width:2.0833333333333335;"/><line style="stroke:#A80036;stroke-width:3.125;" x1="610.4167" x2="610.4167" y1="1112.7889" y2="1154.4556"/><polygon fill="#A80036" points="602.0833,1133.6222,610.4167,1154.4556,618.75,1133.6222,610.4167,1141.9556" style="stroke:#A80036;stroke-width:2.0833333333333335;"/><line style="stroke:#A80036;stroke-width:3.125;" x1="179.1667" x2="179.1667" y1="543.4285" y2="553.8452"/><line style="stroke:#A80036;stroke-width:3.125;" x1="179.1667" x2="610.4167" y1="553.8452" y2="553.8452"/><line style="stroke:#A80036;stroke-width:3.125;" x1="610.4167" x2="610.4167" y1="553.8452" y2="585.0952"/><polygon fill="#A80036" points="602.0833,564.2619,610.4167,585.0952,618.75,564.2619,610.4167,572.5952" style="stroke:#A80036;stroke-width:2.0833333333333335;"/><line style="stroke:#A80036;stroke-width:3.125;" x1="179.1667" x2="179.1667" y1="781.3192" y2="807.2754"/><line style="stroke:#A80036;stroke-width:3.125;" x1="179.1667" x2="610.4167" y1="807.2754" y2="807.2754"/><line style="stroke:#A80036;stroke-width:3.125;" x1="610.4167" x2="610.4167" y1="807.2754" y2="833.2316"/><polygon fill="#A80036" points="602.0833,812.3983,610.4167,833.2316,618.75,812.3983,610.4167,820.7316" style="stroke:#A80036;stroke-width:2.0833333333333335;"/><line style="stroke:#A80036;stroke-width:3.125;" x1="610.4167" x2="610.4167" y1="906.3436" y2="922.054"/><line style="stroke:#A80036;stroke-width:3.125;" x1="610.4167" x2="179.1667" y1="922.054" y2="922.054"/><line style="stroke:#A80036;stroke-width:3.125;" x1="179.1667" x2="179.1667" y1="922.054" y2="948.0103"/><polygon fill="#A80036" points="170.8333,927.1769,179.1667,948.0103,187.5,927.1769,179.1667,935.5103" style="stroke:#A80036;stroke-width:2.0833333333333335;"/><line style="stroke:#A80036;stroke-width:3.125;" x1="610.4167" x2="610.4167" y1="689.6525" y2="700.0692"/><line style="stroke:#A80036;stroke-width:3.125;" x1="610.4167" x2="179.1667" y1="700.0692" y2="700.0692"/><line style="stroke:#A80036;stroke-width:3.125;" x1="179.1667" x2="179.1667" y1="700.0692" y2="731.3192"/><polygon fill="#A80036" points="170.8333,710.4858,179.1667,731.3192,187.5,710.4858,179.1667,718.8192" style="stroke:#A80036;stroke-width:2.0833333333333335;"/><line style="stroke:#A80036;stroke-width:3.125;" x1="179.1667" x2="179.1667" y1="998.0103" y2="1008.4269"/><line style="stroke:#A80036;stroke-width:3.125;" x1="179.1667" x2="610.4167" y1="1008.4269" y2="1008.4269"/><line style="stroke:#A80036;stroke-width:3.125;" x1="610.4167" x2="610.4167" y1="1008.4269" y2="1039.6769"/><polygon fill="#A80036" points="602.0833,1018.8436,610.4167,1039.6769,618.75,1018.8436,610.4167,1027.1769" style="stroke:#A80036;stroke-width:2.0833333333333335;"/><text fill="#000000" font-family="sans-serif" font-size="37.5" lengthAdjust="spacing" textLength="172.9167" x="136.9792" y="64.8763">Nhân Viên</text><text fill="#000000" font-family="sans-serif" font-size="37.5" lengthAdjust="spacing" textLength="166.6667" x="536.4583" y="64.8763">Hệ Thống</text><!--MD5=[f1e3415f9416a5bd312efb01e1356fe9]
@startuml
skinparam dpi 200

|Staff| Nhân Viên

	#lightgreen:Từ flow
	<b>Danh sách Vé</b> >

	:Chọn Ghế muốn
	xác nhận thanh toán;

	:Click nút
	<b>Thanh Toán</b>
	hoặc
	<b>Hủy Thanh Toán</b>;

|System| Hệ Thống

	:Hiện pop-up
	<b>Bạn chắc chắn chứ</b>;

|Staff|

	if (Click hoặc Chọn) then (Đồng ý)
		|System|
			:Cập nhật trạng thái thanh toán;

	else (Khác)
	endif

|System|

	:Tắt pop-up;

	stop

@enduml

PlantUML version 1.2021.2(Sun Mar 07 18:10:27 ICT 2021)
(GPL source distribution)
Java Runtime: OpenJDK Runtime Environment
JVM: Eclipse OpenJ9 VM
Default Encoding: UTF-8
Language: en
Country: US
--></g></svg>