<?xml version="1.0" encoding="UTF-8" standalone="no"?><svg xmlns="http://www.w3.org/2000/svg" xmlns:xlink="http://www.w3.org/1999/xlink" contentScriptType="application/ecmascript" contentStyleType="text/css" height="1352.0833px" preserveAspectRatio="none" style="width:956px;height:1352px;" version="1.1" viewBox="0 0 956 1352" width="956.25px" zoomAndPan="magnify"><defs><filter height="300%" id="f1jjis4lwzancl" width="300%" x="-1" y="-1"><feGaussianBlur result="blurOut" stdDeviation="4.166666666666667"/><feColorMatrix in="blurOut" result="blurOut2" type="matrix" values="0 0 0 0 0 0 0 0 0 0 0 0 0 0 0 0 0 0 .4 0"/><feOffset dx="8.333333333333334" dy="8.333333333333334" in="blurOut2" result="blurOut3"/><feBlend in="SourceGraphic" in2="blurOut3" mode="normal"/></filter></defs><g><ellipse cx="173.9583" cy="104.366" fill="#000000" filter="url(#f1jjis4lwzancl)" rx="20.8333" ry="20.8333" style="stroke:none;stroke-width:2.0833333333333335;"/><rect fill="#FEFECE" filter="url(#f1jjis4lwzancl)" height="104.5573" rx="26.0417" ry="26.0417" style="stroke:#A80036;stroke-width:3.125;" width="191.6667" x="78.125" y="166.866"/><text fill="#000000" font-family="sans-serif" font-size="25" lengthAdjust="spacing" textLength="150" x="98.9583" y="213.6515">Mở màn hình</text><text fill="#000000" font-family="sans-serif" font-size="25" font-weight="bold" lengthAdjust="spacing" textLength="95.8333" x="98.9583" y="245.0968">Đăng ký</text><rect fill="#FEFECE" filter="url(#f1jjis4lwzancl)" height="73.112" rx="26.0417" ry="26.0417" style="stroke:#A80036;stroke-width:3.125;" width="241.6667" x="53.125" y="585.0952"/><text fill="#000000" font-family="sans-serif" font-size="25" lengthAdjust="spacing" textLength="97.9167" x="73.9583" y="631.8807">Click nút</text><text fill="#000000" font-family="sans-serif" font-size="25" font-weight="bold" lengthAdjust="spacing" textLength="95.8333" x="178.125" y="631.8807">Đăng ký</text><rect fill="#FEFECE" filter="url(#f1jjis4lwzancl)" height="230.3385" rx="26.0417" ry="26.0417" style="stroke:#A80036;stroke-width:3.125;" width="252.0833" x="47.9167" y="313.09"/><text fill="#000000" font-family="sans-serif" font-size="25" lengthAdjust="spacing" textLength="62.5" x="68.75" y="359.8755">Nhập</text><text fill="#000000" font-family="sans-serif" font-size="25" font-weight="bold" lengthAdjust="spacing" textLength="114.5833" x="68.75" y="391.3208">Họ và Tên</text><text fill="#000000" font-family="sans-serif" font-size="25" lengthAdjust="spacing" textLength="6.25" x="183.3333" y="391.3208">,</text><text fill="#000000" font-family="sans-serif" font-size="25" font-weight="bold" lengthAdjust="spacing" textLength="152.0833" x="68.75" y="422.7661">Số điện thoại</text><text fill="#000000" font-family="sans-serif" font-size="25" lengthAdjust="spacing" textLength="6.25" x="220.8333" y="422.7661">,</text><text fill="#000000" font-family="sans-serif" font-size="25" font-weight="bold" lengthAdjust="spacing" textLength="64.5833" x="68.75" y="454.2114">Email</text><text fill="#000000" font-family="sans-serif" font-size="25" lengthAdjust="spacing" textLength="6.25" x="133.3333" y="454.2114">,</text><text fill="#000000" font-family="sans-serif" font-size="25" font-weight="bold" lengthAdjust="spacing" textLength="108.3333" x="68.75" y="485.6567">Mật khẩu</text><text fill="#000000" font-family="sans-serif" font-size="25" lengthAdjust="spacing" textLength="6.25" x="177.0833" y="485.6567">,</text><text fill="#000000" font-family="sans-serif" font-size="25" font-weight="bold" lengthAdjust="spacing" textLength="210.4167" x="68.75" y="517.1021">Nhập lại mật khẩu</text><line style="stroke:#000000;stroke-width:4.166666666666667;" x1="31.25" x2="31.25" y1="25.9481" y2="1317.1651"/><polygon fill="#FEFECE" filter="url(#f1jjis4lwzancl)" points="544.7917,699.8739,717.7083,699.8739,742.7083,724.8739,717.7083,749.8739,544.7917,749.8739,519.7917,724.8739,544.7917,699.8739" style="stroke:#A80036;stroke-width:3.125;"/><text fill="#000000" font-family="sans-serif" font-size="22.9167" lengthAdjust="spacing" textLength="172.9167" x="544.7917" y="734.2509">Thông tin hợp lệ?</text><text fill="#000000" font-family="sans-serif" font-size="22.9167" lengthAdjust="spacing" textLength="64.5833" x="742.7083" y="719.8385">Không</text><polygon fill="#FEFECE" filter="url(#f1jjis4lwzancl)" points="544.7917,837.9008,717.7083,837.9008,742.7083,866.7257,717.7083,895.5505,544.7917,895.5505,519.7917,866.7257,544.7917,837.9008" style="stroke:#A80036;stroke-width:3.125;"/><text fill="#000000" font-family="sans-serif" font-size="22.9167" lengthAdjust="spacing" textLength="172.9167" x="544.7917" y="861.6903">Số điện thoại của</text><text fill="#000000" font-family="sans-serif" font-size="22.9167" font-weight="bold" lengthAdjust="spacing" textLength="150" x="544.7917" y="890.5151">tài khoản trôi</text><text fill="#000000" font-family="sans-serif" font-size="22.9167" lengthAdjust="spacing" textLength="12.5" x="694.7917" y="890.5151">?</text><text fill="#000000" font-family="sans-serif" font-size="22.9167" lengthAdjust="spacing" textLength="54.1667" x="465.625" y="861.6903">Đúng</text><text fill="#000000" font-family="sans-serif" font-size="22.9167" lengthAdjust="spacing" textLength="31.25" x="742.7083" y="861.6903">Sai</text><rect fill="#FEFECE" filter="url(#f1jjis4lwzancl)" height="104.5573" rx="26.0417" ry="26.0417" style="stroke:#A80036;stroke-width:3.125;" width="287.5" x="337.5" y="916.3839"/><text fill="#000000" font-family="sans-serif" font-size="25" lengthAdjust="spacing" textLength="245.8333" x="358.3333" y="963.1694">Gán thông tin đăng ký</text><text fill="#000000" font-family="sans-serif" font-size="25" lengthAdjust="spacing" textLength="185.4167" x="358.3333" y="994.6147">vào tài khoản đó</text><rect fill="#FEFECE" filter="url(#f1jjis4lwzancl)" height="104.5573" rx="26.0417" ry="26.0417" style="stroke:#A80036;stroke-width:3.125;" width="229.1667" x="666.6667" y="916.3839"/><text fill="#000000" font-family="sans-serif" font-size="25" lengthAdjust="spacing" textLength="187.5" x="687.5" y="963.1694">Tạo mới bản ghi</text><text fill="#000000" font-family="sans-serif" font-size="25" lengthAdjust="spacing" textLength="114.5833" x="687.5" y="994.6147">vào CSDL</text><polygon fill="#FEFECE" filter="url(#f1jjis4lwzancl)" points="631.25,1033.4412,656.25,1058.4412,631.25,1083.4412,606.25,1058.4412,631.25,1033.4412" style="stroke:#A80036;stroke-width:3.125;"/><rect fill="#FEFECE" filter="url(#f1jjis4lwzancl)" height="104.5573" rx="26.0417" ry="26.0417" style="stroke:#A80036;stroke-width:3.125;" width="279.1667" x="491.6667" y="1125.1078"/><text fill="#000000" font-family="sans-serif" font-size="25" lengthAdjust="spacing" textLength="237.5" x="512.5" y="1171.8933">Chuyển tới màn hình</text><text fill="#000000" font-family="sans-serif" font-size="25" font-weight="bold" lengthAdjust="spacing" textLength="127.0833" x="512.5" y="1203.3386">Đăng nhập</text><ellipse cx="631.25" cy="1294.2485" fill="#FFFFFF" filter="url(#f1jjis4lwzancl)" rx="22.9167" ry="22.9167" style="stroke:#000000;stroke-width:2.0833333333333335;"/><ellipse cx="631.25" cy="1294.2485" fill="#000000" rx="12.5" ry="12.5" style="stroke:#7F7F7F;stroke-width:2.0833333333333335;"/><line style="stroke:#000000;stroke-width:4.166666666666667;" x1="325" x2="325" y1="25.9481" y2="1317.1651"/><line style="stroke:#000000;stroke-width:4.166666666666667;" x1="916.6667" x2="916.6667" y1="25.9481" y2="1317.1651"/><line style="stroke:#A80036;stroke-width:3.125;" x1="173.9583" x2="173.9583" y1="125.1994" y2="166.866"/><polygon fill="#A80036" points="165.625,146.0327,173.9583,166.866,182.2917,146.0327,173.9583,154.366" style="stroke:#A80036;stroke-width:2.0833333333333335;"/><line style="stroke:#A80036;stroke-width:3.125;" x1="173.9583" x2="173.9583" y1="543.4285" y2="585.0952"/><polygon fill="#A80036" points="165.625,564.2619,173.9583,585.0952,182.2917,564.2619,173.9583,572.5952" style="stroke:#A80036;stroke-width:2.0833333333333335;"/><line style="stroke:#A80036;stroke-width:3.125;" x1="173.9583" x2="173.9583" y1="271.4233" y2="313.09"/><polygon fill="#A80036" points="165.625,292.2567,173.9583,313.09,182.2917,292.2567,173.9583,300.59" style="stroke:#A80036;stroke-width:2.0833333333333335;"/><line style="stroke:#A80036;stroke-width:3.125;" x1="519.7917" x2="481.25" y1="866.7257" y2="866.7257"/><line style="stroke:#A80036;stroke-width:3.125;" x1="481.25" x2="481.25" y1="866.7257" y2="916.3839"/><polygon fill="#A80036" points="472.9167,895.5505,481.25,916.3839,489.5833,895.5505,481.25,903.8839" style="stroke:#A80036;stroke-width:2.0833333333333335;"/><line style="stroke:#A80036;stroke-width:3.125;" x1="742.7083" x2="781.25" y1="866.7257" y2="866.7257"/><line style="stroke:#A80036;stroke-width:3.125;" x1="781.25" x2="781.25" y1="866.7257" y2="916.3839"/><polygon fill="#A80036" points="772.9167,895.5505,781.25,916.3839,789.5833,895.5505,781.25,903.8839" style="stroke:#A80036;stroke-width:2.0833333333333335;"/><line style="stroke:#A80036;stroke-width:3.125;" x1="481.25" x2="481.25" y1="1020.9412" y2="1058.4412"/><line style="stroke:#A80036;stroke-width:3.125;" x1="481.25" x2="606.25" y1="1058.4412" y2="1058.4412"/><polygon fill="#A80036" points="585.4167,1050.1078,606.25,1058.4412,585.4167,1066.7745,593.75,1058.4412" style="stroke:#A80036;stroke-width:2.0833333333333335;"/><line style="stroke:#A80036;stroke-width:3.125;" x1="781.25" x2="781.25" y1="1020.9412" y2="1058.4412"/><line style="stroke:#A80036;stroke-width:3.125;" x1="781.25" x2="656.25" y1="1058.4412" y2="1058.4412"/><polygon fill="#A80036" points="677.0833,1050.1078,656.25,1058.4412,677.0833,1066.7745,668.75,1058.4412" style="stroke:#A80036;stroke-width:2.0833333333333335;"/><line style="stroke:#A80036;stroke-width:3.125;" x1="631.25" x2="631.25" y1="749.8739" y2="837.9008"/><polygon fill="#A80036" points="622.9167,817.0675,631.25,837.9008,639.5833,817.0675,631.25,825.4008" style="stroke:#A80036;stroke-width:2.0833333333333335;"/><text fill="#000000" font-family="sans-serif" font-size="22.9167" lengthAdjust="spacing" textLength="27.0833" x="639.5833" y="796.4071">Có</text><line style="stroke:#A80036;stroke-width:3.125;" x1="631.25" x2="631.25" y1="1083.4412" y2="1125.1078"/><polygon fill="#A80036" points="622.9167,1104.2745,631.25,1125.1078,639.5833,1104.2745,631.25,1112.6078" style="stroke:#A80036;stroke-width:2.0833333333333335;"/><line style="stroke:#A80036;stroke-width:3.125;" x1="631.25" x2="631.25" y1="1229.6651" y2="1271.3318"/><polygon fill="#A80036" points="622.9167,1250.4985,631.25,1271.3318,639.5833,1250.4985,631.25,1258.8318" style="stroke:#A80036;stroke-width:2.0833333333333335;"/><line style="stroke:#A80036;stroke-width:3.125;" x1="742.7083" x2="777.0833" y1="724.8739" y2="724.8739"/><polygon fill="#A80036" points="768.75,597.3999,777.0833,576.5666,785.4167,597.3999,777.0833,589.0666" style="stroke:#A80036;stroke-width:3.125;"/><line style="stroke:#A80036;stroke-width:3.125;" x1="777.0833" x2="777.0833" y1="428.2593" y2="724.8739"/><line style="stroke:#A80036;stroke-width:3.125;" x1="777.0833" x2="300" y1="428.2593" y2="428.2593"/><polygon fill="#A80036" points="320.8333,419.9259,300,428.2593,320.8333,436.5926,312.5,428.2593" style="stroke:#A80036;stroke-width:2.0833333333333335;"/><line style="stroke:#A80036;stroke-width:3.125;" x1="173.9583" x2="173.9583" y1="658.2072" y2="668.6239"/><line style="stroke:#A80036;stroke-width:3.125;" x1="173.9583" x2="631.25" y1="668.6239" y2="668.6239"/><line style="stroke:#A80036;stroke-width:3.125;" x1="631.25" x2="631.25" y1="668.6239" y2="699.8739"/><polygon fill="#A80036" points="622.9167,679.0405,631.25,699.8739,639.5833,679.0405,631.25,687.3739" style="stroke:#A80036;stroke-width:2.0833333333333335;"/><text fill="#000000" font-family="sans-serif" font-size="37.5" lengthAdjust="spacing" textLength="262.5" x="52.0833" y="64.8763">Khách Vãng Lai</text><text fill="#000000" font-family="sans-serif" font-size="37.5" lengthAdjust="spacing" textLength="166.6667" x="542.7083" y="64.8763">Hệ Thống</text><!--MD5=[9d26ebe697dfc204703cd2ff87b80d87]
@startuml
skinparam dpi 200

|User| Khách Vãng Lai
	start

	:Mở màn hình
	<b>Đăng ký</b>;

	repeat :Nhập\n<b>Họ và Tên</b>,\n<b>Số điện thoại</b>,\n<b>Email</b>,\n<b>Mật khẩu</b>,\n<b>Nhập lại mật khẩu</b>;

		:Click nút <b>Đăng ký</b>;

|System| Hệ Thống
		repeat while (Thông tin hợp lệ?) is (Không)
	->Có;

	if (Số điện thoại của\n<b>tài khoản trôi</b>?) is (Đúng) then

		:Gán thông tin đăng ký
		vào tài khoản đó;

	else (Sai)

		:Tạo mới bản ghi
		vào CSDL;

	endif

	:Chuyển tới màn hình
	<b>Đăng nhập</b>;

	stop
@enduml

PlantUML version 1.2021.2(Sun Mar 07 18:10:27 ICT 2021)
(GPL source distribution)
Java Runtime: OpenJDK Runtime Environment
JVM: Eclipse OpenJ9 VM
Default Encoding: UTF-8
Language: en
Country: US
--></g></svg>