<?xml version="1.0" encoding="UTF-8" standalone="no"?><svg xmlns="http://www.w3.org/2000/svg" xmlns:xlink="http://www.w3.org/1999/xlink" contentScriptType="application/ecmascript" contentStyleType="text/css" height="1245.8333px" preserveAspectRatio="none" style="width:1285px;height:1245px;" version="1.1" viewBox="0 0 1285 1245" width="1285.4167px" zoomAndPan="magnify"><defs><filter height="300%" id="frgl12zha0lcf" width="300%" x="-1" y="-1"><feGaussianBlur result="blurOut" stdDeviation="4.166666666666667"/><feColorMatrix in="blurOut" result="blurOut2" type="matrix" values="0 0 0 0 0 0 0 0 0 0 0 0 0 0 0 0 0 0 .4 0"/><feOffset dx="8.333333333333334" dy="8.333333333333334" in="blurOut2" result="blurOut3"/><feBlend in="SourceGraphic" in2="blurOut3" mode="normal"/></filter></defs><g><ellipse cx="182.2917" cy="104.366" fill="#000000" filter="url(#frgl12zha0lcf)" rx="20.8333" ry="20.8333" style="stroke:none;stroke-width:2.0833333333333335;"/><rect fill="#FEFECE" filter="url(#frgl12zha0lcf)" height="104.5573" rx="26.0417" ry="26.0417" style="stroke:#A80036;stroke-width:3.125;" width="277.0833" x="43.75" y="166.866"/><text fill="#000000" font-family="sans-serif" font-size="25" lengthAdjust="spacing" textLength="100" x="64.5833" y="213.6515">Mở trang</text><text fill="#FF0000" font-family="sans-serif" font-size="25" font-weight="bold" lengthAdjust="spacing" textLength="95.8333" x="170.8333" y="213.6515">Đăng ký</text><text fill="#000000" font-family="sans-serif" font-size="25" lengthAdjust="spacing" textLength="235.4167" x="64.5833" y="245.0968">từ menu điều hướng</text><rect fill="#FEFECE" filter="url(#frgl12zha0lcf)" height="73.112" rx="26.0417" ry="26.0417" style="stroke:#A80036;stroke-width:3.125;" width="241.6667" x="61.4583" y="553.6499"/><text fill="#000000" font-family="sans-serif" font-size="25" lengthAdjust="spacing" textLength="97.9167" x="82.2917" y="600.4354">Click nút</text><text fill="#000000" font-family="sans-serif" font-size="25" font-weight="bold" lengthAdjust="spacing" textLength="95.8333" x="186.4583" y="600.4354">Đăng ký</text><rect fill="#FEFECE" filter="url(#frgl12zha0lcf)" height="198.8932" rx="26.0417" ry="26.0417" style="stroke:#A80036;stroke-width:3.125;" width="252.0833" x="56.25" y="313.09"/><text fill="#000000" font-family="sans-serif" font-size="25" lengthAdjust="spacing" textLength="62.5" x="77.0833" y="359.8755">Nhập</text><text fill="#000000" font-family="sans-serif" font-size="25" font-weight="bold" lengthAdjust="spacing" textLength="114.5833" x="145.8333" y="359.8755">Họ và Tên</text><text fill="#000000" font-family="sans-serif" font-size="25" lengthAdjust="spacing" textLength="6.25" x="260.4167" y="359.8755">,</text><text fill="#000000" font-family="sans-serif" font-size="25" font-weight="bold" lengthAdjust="spacing" textLength="152.0833" x="77.0833" y="391.3208">Số điện thoại</text><text fill="#000000" font-family="sans-serif" font-size="25" lengthAdjust="spacing" textLength="6.25" x="229.1667" y="391.3208">,</text><text fill="#000000" font-family="sans-serif" font-size="25" font-weight="bold" lengthAdjust="spacing" textLength="64.5833" x="77.0833" y="422.7661">Email</text><text fill="#000000" font-family="sans-serif" font-size="25" lengthAdjust="spacing" textLength="6.25" x="141.6667" y="422.7661">,</text><text fill="#000000" font-family="sans-serif" font-size="25" font-weight="bold" lengthAdjust="spacing" textLength="108.3333" x="77.0833" y="454.2114">Mật khẩu</text><text fill="#000000" font-family="sans-serif" font-size="25" lengthAdjust="spacing" textLength="6.25" x="185.4167" y="454.2114">,</text><text fill="#000000" font-family="sans-serif" font-size="25" font-weight="bold" lengthAdjust="spacing" textLength="210.4167" x="77.0833" y="485.6567">Nhập lại mật khẩu</text><line style="stroke:#000000;stroke-width:4.166666666666667;" x1="31.25" x2="31.25" y1="25.9481" y2="1211.0128"/><polygon fill="#FEFECE" filter="url(#frgl12zha0lcf)" points="735.4167,668.4285,908.3333,668.4285,933.3333,693.4285,908.3333,718.4285,735.4167,718.4285,710.4167,693.4285,735.4167,668.4285" style="stroke:#A80036;stroke-width:3.125;"/><text fill="#000000" font-family="sans-serif" font-size="22.9167" lengthAdjust="spacing" textLength="172.9167" x="735.4167" y="702.8056">Thông tin hợp lệ?</text><text fill="#000000" font-family="sans-serif" font-size="22.9167" lengthAdjust="spacing" textLength="64.5833" x="933.3333" y="688.3931">Không</text><polygon fill="#FEFECE" filter="url(#frgl12zha0lcf)" points="651.0417,806.4555,992.7083,806.4555,1017.7083,831.4555,992.7083,856.4555,651.0417,856.4555,626.0417,831.4555,651.0417,806.4555" style="stroke:#A80036;stroke-width:3.125;"/><text fill="#000000" font-family="sans-serif" font-size="22.9167" lengthAdjust="spacing" textLength="172.9167" x="651.0417" y="840.8325">Số điện thoại của</text><text fill="#000000" font-family="sans-serif" font-size="22.9167" font-weight="bold" lengthAdjust="spacing" textLength="150" x="830.2083" y="840.8325">tài khoản trôi</text><text fill="#000000" font-family="sans-serif" font-size="22.9167" lengthAdjust="spacing" textLength="12.5" x="980.2083" y="840.8325">?</text><text fill="#000000" font-family="sans-serif" font-size="22.9167" lengthAdjust="spacing" textLength="54.1667" x="571.875" y="826.4201">Đúng</text><text fill="#000000" font-family="sans-serif" font-size="22.9167" lengthAdjust="spacing" textLength="31.25" x="1017.7083" y="826.4201">Sai</text><rect fill="#FEFECE" filter="url(#frgl12zha0lcf)" height="73.112" rx="26.0417" ry="26.0417" style="stroke:#A80036;stroke-width:3.125;" width="479.1667" x="354.1667" y="877.2888"/><text fill="#000000" font-family="sans-serif" font-size="25" lengthAdjust="spacing" textLength="437.5" x="375" y="924.0743">Gán thông tin đăng ký vào tài khoản đó</text><rect fill="#FEFECE" filter="url(#frgl12zha0lcf)" height="73.112" rx="26.0417" ry="26.0417" style="stroke:#A80036;stroke-width:3.125;" width="350" x="875" y="877.2888"/><text fill="#000000" font-family="sans-serif" font-size="25" lengthAdjust="spacing" textLength="308.3333" x="895.8333" y="924.0743">Tạo mới bản ghi vào CSDL</text><polygon fill="#FEFECE" filter="url(#frgl12zha0lcf)" points="821.875,962.9008,846.875,987.9008,821.875,1012.9008,796.875,987.9008,821.875,962.9008" style="stroke:#A80036;stroke-width:3.125;"/><rect fill="#FEFECE" filter="url(#frgl12zha0lcf)" height="73.112" rx="26.0417" ry="26.0417" style="stroke:#A80036;stroke-width:3.125;" width="462.5" x="590.625" y="1054.5675"/><text fill="#000000" font-family="sans-serif" font-size="25" lengthAdjust="spacing" textLength="287.5" x="611.4583" y="1101.3529">Điều hướng tới màn hình</text><text fill="#000000" font-family="sans-serif" font-size="25" font-weight="bold" lengthAdjust="spacing" textLength="127.0833" x="905.2083" y="1101.3529">Đăng nhập</text><ellipse cx="821.875" cy="1190.1794" fill="#FFFFFF" filter="url(#frgl12zha0lcf)" rx="20.8333" ry="20.8333" style="stroke:#000000;stroke-width:3.125;"/><line style="stroke:#000000;stroke-width:5.208333333333334;" x1="808.985" x2="834.765" y1="1177.2895" y2="1203.0694"/><line style="stroke:#000000;stroke-width:5.208333333333334;" x1="834.765" x2="808.985" y1="1177.2895" y2="1203.0694"/><line style="stroke:#000000;stroke-width:4.166666666666667;" x1="341.6667" x2="341.6667" y1="25.9481" y2="1211.0128"/><line style="stroke:#000000;stroke-width:4.166666666666667;" x1="1245.8333" x2="1245.8333" y1="25.9481" y2="1211.0128"/><line style="stroke:#A80036;stroke-width:3.125;" x1="182.2917" x2="182.2917" y1="125.1994" y2="166.866"/><polygon fill="#A80036" points="173.9583,146.0327,182.2917,166.866,190.625,146.0327,182.2917,154.366" style="stroke:#A80036;stroke-width:2.0833333333333335;"/><line style="stroke:#A80036;stroke-width:3.125;" x1="182.2917" x2="182.2917" y1="511.9832" y2="553.6499"/><polygon fill="#A80036" points="173.9583,532.8166,182.2917,553.6499,190.625,532.8166,182.2917,541.1499" style="stroke:#A80036;stroke-width:2.0833333333333335;"/><line style="stroke:#A80036;stroke-width:3.125;" x1="182.2917" x2="182.2917" y1="271.4233" y2="313.09"/><polygon fill="#A80036" points="173.9583,292.2567,182.2917,313.09,190.625,292.2567,182.2917,300.59" style="stroke:#A80036;stroke-width:2.0833333333333335;"/><line style="stroke:#A80036;stroke-width:3.125;" x1="626.0417" x2="593.75" y1="831.4555" y2="831.4555"/><line style="stroke:#A80036;stroke-width:3.125;" x1="593.75" x2="593.75" y1="831.4555" y2="877.2888"/><polygon fill="#A80036" points="585.4167,856.4555,593.75,877.2888,602.0833,856.4555,593.75,864.7888" style="stroke:#A80036;stroke-width:2.0833333333333335;"/><line style="stroke:#A80036;stroke-width:3.125;" x1="1017.7083" x2="1050" y1="831.4555" y2="831.4555"/><line style="stroke:#A80036;stroke-width:3.125;" x1="1050" x2="1050" y1="831.4555" y2="877.2888"/><polygon fill="#A80036" points="1041.6667,856.4555,1050,877.2888,1058.3333,856.4555,1050,864.7888" style="stroke:#A80036;stroke-width:2.0833333333333335;"/><line style="stroke:#A80036;stroke-width:3.125;" x1="593.75" x2="593.75" y1="950.4008" y2="987.9008"/><line style="stroke:#A80036;stroke-width:3.125;" x1="593.75" x2="796.875" y1="987.9008" y2="987.9008"/><polygon fill="#A80036" points="776.0417,979.5675,796.875,987.9008,776.0417,996.2341,784.375,987.9008" style="stroke:#A80036;stroke-width:2.0833333333333335;"/><line style="stroke:#A80036;stroke-width:3.125;" x1="1050" x2="1050" y1="950.4008" y2="987.9008"/><line style="stroke:#A80036;stroke-width:3.125;" x1="1050" x2="846.875" y1="987.9008" y2="987.9008"/><polygon fill="#A80036" points="867.7083,979.5675,846.875,987.9008,867.7083,996.2341,859.375,987.9008" style="stroke:#A80036;stroke-width:2.0833333333333335;"/><line style="stroke:#A80036;stroke-width:3.125;" x1="821.875" x2="821.875" y1="718.4285" y2="806.4555"/><polygon fill="#A80036" points="813.5417,785.6222,821.875,806.4555,830.2083,785.6222,821.875,793.9555" style="stroke:#A80036;stroke-width:2.0833333333333335;"/><text fill="#000000" font-family="sans-serif" font-size="22.9167" lengthAdjust="spacing" textLength="27.0833" x="830.2083" y="764.9618">Có</text><line style="stroke:#A80036;stroke-width:3.125;" x1="821.875" x2="821.875" y1="1012.9008" y2="1054.5675"/><polygon fill="#A80036" points="813.5417,1033.7341,821.875,1054.5675,830.2083,1033.7341,821.875,1042.0675" style="stroke:#A80036;stroke-width:2.0833333333333335;"/><line style="stroke:#A80036;stroke-width:3.125;" x1="821.875" x2="821.875" y1="1127.6794" y2="1169.3461"/><polygon fill="#A80036" points="813.5417,1148.5128,821.875,1169.3461,830.2083,1148.5128,821.875,1156.8461" style="stroke:#A80036;stroke-width:2.0833333333333335;"/><line style="stroke:#A80036;stroke-width:3.125;" x1="933.3333" x2="967.7083" y1="693.4285" y2="693.4285"/><polygon fill="#A80036" points="959.375,573.8159,967.7083,552.9826,976.0417,573.8159,967.7083,565.4826" style="stroke:#A80036;stroke-width:3.125;"/><line style="stroke:#A80036;stroke-width:3.125;" x1="967.7083" x2="967.7083" y1="412.5366" y2="693.4285"/><line style="stroke:#A80036;stroke-width:3.125;" x1="967.7083" x2="308.3333" y1="412.5366" y2="412.5366"/><polygon fill="#A80036" points="329.1667,404.2033,308.3333,412.5366,329.1667,420.87,320.8333,412.5366" style="stroke:#A80036;stroke-width:2.0833333333333335;"/><line style="stroke:#A80036;stroke-width:3.125;" x1="182.2917" x2="182.2917" y1="626.7619" y2="637.1785"/><line style="stroke:#A80036;stroke-width:3.125;" x1="182.2917" x2="821.875" y1="637.1785" y2="637.1785"/><line style="stroke:#A80036;stroke-width:3.125;" x1="821.875" x2="821.875" y1="637.1785" y2="668.4285"/><polygon fill="#A80036" points="813.5417,647.5952,821.875,668.4285,830.2083,647.5952,821.875,655.9285" style="stroke:#A80036;stroke-width:2.0833333333333335;"/><text fill="#000000" font-family="sans-serif" font-size="37.5" lengthAdjust="spacing" textLength="245.8333" x="68.75" y="64.8763">Khách vãng lai</text><text fill="#000000" font-family="sans-serif" font-size="37.5" lengthAdjust="spacing" textLength="152.0833" x="722.9167" y="64.8763">Hệ thống</text><!--MD5=[89aa401a773bdccc2989bb7850c7a3cf]
@startuml
skinparam dpi 200

|User| Khách vãng lai
start
:Mở trang <b><color:red>Đăng ký</color></b>
từ menu điều hướng;
repeat :Nhập <b>Họ và Tên</b>,\n<b>Số điện thoại</b>,\n<b>Email</b>,\n<b>Mật khẩu</b>,\n<b>Nhập lại mật khẩu</b>;
	:Click nút <b>Đăng ký</b>;
|System| Hệ thống
repeat while (Thông tin hợp lệ?) is (Không)
->Có;
if (Số điện thoại của <b>tài khoản trôi</b>?) is (Đúng) then
	:Gán thông tin đăng ký vào tài khoản đó;
else (Sai)
	:Tạo mới bản ghi vào CSDL;
endif
:Điều hướng tới màn hình <b>Đăng nhập</b>;
end;
@enduml

PlantUML version 1.2021.2(Sun Mar 07 18:10:27 ICT 2021)
(GPL source distribution)
Java Runtime: OpenJDK Runtime Environment
JVM: Eclipse OpenJ9 VM
Default Encoding: UTF-8
Language: en
Country: US
--></g></svg>