<?xml version="1.0" encoding="UTF-8" standalone="no"?><svg xmlns="http://www.w3.org/2000/svg" xmlns:xlink="http://www.w3.org/1999/xlink" contentScriptType="application/ecmascript" contentStyleType="text/css" height="679.1667px" preserveAspectRatio="none" style="width:1079px;height:679px;" version="1.1" viewBox="0 0 1079 679" width="1079.1667px" zoomAndPan="magnify"><defs><filter height="300%" id="fqlrggmowgjwp" width="300%" x="-1" y="-1"><feGaussianBlur result="blurOut" stdDeviation="4.166666666666667"/><feColorMatrix in="blurOut" result="blurOut2" type="matrix" values="0 0 0 0 0 0 0 0 0 0 0 0 0 0 0 0 0 0 .4 0"/><feOffset dx="8.333333333333334" dy="8.333333333333334" in="blurOut2" result="blurOut3"/><feBlend in="SourceGraphic" in2="blurOut3" mode="normal"/></filter></defs><g><ellipse cx="246.875" cy="104.366" fill="#000000" filter="url(#fqlrggmowgjwp)" rx="20.8333" ry="20.8333" style="stroke:none;stroke-width:2.0833333333333335;"/><rect fill="#FEFECE" filter="url(#fqlrggmowgjwp)" height="73.112" rx="26.0417" ry="26.0417" style="stroke:#A80036;stroke-width:3.125;" width="406.25" x="43.75" y="281.6447"/><text fill="#000000" font-family="sans-serif" font-size="25" lengthAdjust="spacing" textLength="85.4167" x="64.5833" y="328.4302">click on</text><text fill="#000000" font-family="sans-serif" font-size="25" font-weight="bold" lengthAdjust="spacing" textLength="231.25" x="156.25" y="328.4302">My Scheduled Trips</text><text fill="#000000" font-family="sans-serif" font-size="25" lengthAdjust="spacing" textLength="35.4167" x="393.75" y="328.4302">tab</text><line style="stroke:#000000;stroke-width:4.166666666666667;" x1="31.25" x2="31.25" y1="25.9481" y2="655.1473"/><polygon fill="#90EE90" filter="url(#fqlrggmowgjwp)" points="684.375,166.866,976.0417,166.866,996.875,203.422,976.0417,239.978,684.375,239.978" style="stroke:#A80036;stroke-width:3.125;"/><text fill="#000000" font-family="sans-serif" font-size="25" lengthAdjust="spacing" textLength="52.0833" x="705.2083" y="213.6515">from</text><text fill="#FF0000" font-family="sans-serif" font-size="25" font-weight="bold" lengthAdjust="spacing" textLength="135.4167" x="763.5417" y="213.6515">Trip History</text><text fill="#000000" font-family="sans-serif" font-size="25" lengthAdjust="spacing" textLength="50" x="905.2083" y="213.6515">view</text><polygon fill="#FEFECE" filter="url(#fqlrggmowgjwp)" points="709.375,396.4233,951.0417,396.4233,976.0417,421.4233,951.0417,446.4233,709.375,446.4233,684.375,421.4233,709.375,396.4233" style="stroke:#A80036;stroke-width:3.125;"/><text fill="#000000" font-family="sans-serif" font-size="22.9167" lengthAdjust="spacing" textLength="241.6667" x="709.375" y="430.8004">has any scheduled trip?</text><text fill="#000000" font-family="sans-serif" font-size="22.9167" lengthAdjust="spacing" textLength="37.5" x="646.875" y="416.3879">yes</text><text fill="#000000" font-family="sans-serif" font-size="22.9167" lengthAdjust="spacing" textLength="25" x="976.0417" y="416.3879">no</text><rect fill="#FEFECE" filter="url(#fqlrggmowgjwp)" height="73.112" rx="26.0417" ry="26.0417" style="stroke:#A80036;stroke-width:3.125;" width="360.4167" x="483.3333" y="467.2567"/><text fill="#000000" font-family="sans-serif" font-size="25" lengthAdjust="spacing" textLength="129.1667" x="504.1667" y="514.0422">show list of</text><text fill="#000000" font-family="sans-serif" font-size="25" font-weight="bold" lengthAdjust="spacing" textLength="183.3333" x="639.5833" y="514.0422">scheduled trips</text><ellipse cx="996.875" cy="488.09" fill="#FFFFFF" filter="url(#fqlrggmowgjwp)" rx="20.8333" ry="20.8333" style="stroke:#000000;stroke-width:3.125;"/><line style="stroke:#000000;stroke-width:5.208333333333334;" x1="983.985" x2="1009.765" y1="475.2" y2="500.98"/><line style="stroke:#000000;stroke-width:5.208333333333334;" x1="1009.765" x2="983.985" y1="475.2" y2="500.98"/><polygon fill="#90EE90" filter="url(#fqlrggmowgjwp)" points="729.1667,582.0353,931.25,582.0353,952.0833,618.5913,931.25,655.1473,729.1667,655.1473" style="stroke:#A80036;stroke-width:3.125;"/><text fill="#000000" font-family="sans-serif" font-size="25" lengthAdjust="spacing" textLength="160.4167" x="750" y="628.8208">go to next flow</text><line style="stroke:#000000;stroke-width:4.166666666666667;" x1="470.8333" x2="470.8333" y1="25.9481" y2="655.1473"/><line style="stroke:#000000;stroke-width:4.166666666666667;" x1="1038.5417" x2="1038.5417" y1="25.9481" y2="655.1473"/><line style="stroke:#A80036;stroke-width:3.125;" x1="684.375" x2="663.5417" y1="421.4233" y2="421.4233"/><line style="stroke:#A80036;stroke-width:3.125;" x1="663.5417" x2="663.5417" y1="421.4233" y2="467.2567"/><polygon fill="#A80036" points="655.2083,446.4233,663.5417,467.2567,671.875,446.4233,663.5417,454.7567" style="stroke:#A80036;stroke-width:2.0833333333333335;"/><line style="stroke:#A80036;stroke-width:3.125;" x1="976.0417" x2="996.875" y1="421.4233" y2="421.4233"/><line style="stroke:#A80036;stroke-width:3.125;" x1="996.875" x2="996.875" y1="421.4233" y2="467.2567"/><polygon fill="#A80036" points="988.5417,446.4233,996.875,467.2567,1005.2083,446.4233,996.875,454.7567" style="stroke:#A80036;stroke-width:2.0833333333333335;"/><line style="stroke:#A80036;stroke-width:3.125;" x1="663.5417" x2="663.5417" y1="540.3687" y2="550.7853"/><line style="stroke:#A80036;stroke-width:3.125;" x1="663.5417" x2="830.2083" y1="550.7853" y2="550.7853"/><line style="stroke:#A80036;stroke-width:3.125;" x1="830.2083" x2="830.2083" y1="550.7853" y2="582.0353"/><polygon fill="#A80036" points="821.875,561.202,830.2083,582.0353,838.5417,561.202,830.2083,569.5353" style="stroke:#A80036;stroke-width:2.0833333333333335;"/><line style="stroke:#A80036;stroke-width:3.125;" x1="246.875" x2="246.875" y1="125.1994" y2="135.616"/><line style="stroke:#A80036;stroke-width:3.125;" x1="246.875" x2="830.2083" y1="135.616" y2="135.616"/><line style="stroke:#A80036;stroke-width:3.125;" x1="830.2083" x2="830.2083" y1="135.616" y2="166.866"/><polygon fill="#A80036" points="821.875,146.0327,830.2083,166.866,838.5417,146.0327,830.2083,154.366" style="stroke:#A80036;stroke-width:2.0833333333333335;"/><line style="stroke:#A80036;stroke-width:3.125;" x1="830.2083" x2="830.2083" y1="239.978" y2="250.3947"/><line style="stroke:#A80036;stroke-width:3.125;" x1="830.2083" x2="246.875" y1="250.3947" y2="250.3947"/><line style="stroke:#A80036;stroke-width:3.125;" x1="246.875" x2="246.875" y1="250.3947" y2="281.6447"/><polygon fill="#A80036" points="238.5417,260.8114,246.875,281.6447,255.2083,260.8114,246.875,269.1447" style="stroke:#A80036;stroke-width:2.0833333333333335;"/><line style="stroke:#A80036;stroke-width:3.125;" x1="246.875" x2="246.875" y1="354.7567" y2="365.1733"/><line style="stroke:#A80036;stroke-width:3.125;" x1="246.875" x2="830.2083" y1="365.1733" y2="365.1733"/><line style="stroke:#A80036;stroke-width:3.125;" x1="830.2083" x2="830.2083" y1="365.1733" y2="396.4233"/><polygon fill="#A80036" points="821.875,375.59,830.2083,396.4233,838.5417,375.59,830.2083,383.9233" style="stroke:#A80036;stroke-width:2.0833333333333335;"/><text fill="#000000" font-family="sans-serif" font-size="37.5" lengthAdjust="spacing" textLength="79.1667" x="211.4583" y="64.8763">User</text><text fill="#000000" font-family="sans-serif" font-size="37.5" lengthAdjust="spacing" textLength="122.9167" x="693.2292" y="64.8763">System</text><!--MD5=[baeaeb7f111a1fa61f0e88c7403422b2]
@startuml
skinparam dpi 200


|User|
start
|System|
#lightgreen:from <b><color:red>Trip History</color></b> view>
|User|
:click on <b>My Scheduled Trips</b> tab;
|System|
if (has any scheduled trip?) is (yes) then
	:show list of <b>scheduled trips</b>;
else (no)
	end
endif

#lightgreen:go to next flow>
@enduml

PlantUML version 1.2021.2(Sun Mar 07 18:10:27 ICT 2021)
(GPL source distribution)
Java Runtime: OpenJDK Runtime Environment
JVM: Eclipse OpenJ9 VM
Default Encoding: UTF-8
Language: en
Country: US
--></g></svg>