<?xml version="1.0" encoding="UTF-8" standalone="no"?><svg xmlns="http://www.w3.org/2000/svg" xmlns:xlink="http://www.w3.org/1999/xlink" contentScriptType="application/ecmascript" contentStyleType="text/css" height="560px" preserveAspectRatio="none" style="width:950px;height:560px;" version="1.1" viewBox="0 0 950 560" width="950px" zoomAndPan="magnify"><defs><filter height="300%" id="f1gbqc336ciq7j" width="300%" x="-1" y="-1"><feGaussianBlur result="blurOut" stdDeviation="2.0"/><feColorMatrix in="blurOut" result="blurOut2" type="matrix" values="0 0 0 0 0 0 0 0 0 0 0 0 0 0 0 0 0 0 .4 0"/><feOffset dx="4.0" dy="4.0" in="blurOut2" result="blurOut3"/><feBlend in="SourceGraphic" in2="blurOut3" mode="normal"/></filter></defs><g><!--MD5=[04af8f2839917e0b787bd17a9e1b3174]
cluster Quản Trị Hệ Thống--><polygon fill="#FFFFFF" filter="url(#f1gbqc336ciq7j)" points="358,6,494,6,501,29.6094,625,29.6094,625,205,358,205,358,6" style="stroke:#000000;stroke-width:1.5;"/><line style="stroke:#000000;stroke-width:1.5;" x1="358" x2="501" y1="29.6094" y2="29.6094"/><text fill="#000000" font-family="sans-serif" font-size="14" font-weight="bold" lengthAdjust="spacing" textLength="130" x="362" y="22.5332">Quản Trị Hệ Thống</text><!--MD5=[42a30e2893710bb34a9c43cd7a78d375]
cluster Quản lý Xe--><polygon fill="#FFFFFF" filter="url(#f1gbqc336ciq7j)" points="358,229,438,229,445,252.6094,625,252.6094,625,446,358,446,358,229" style="stroke:#000000;stroke-width:1.5;"/><line style="stroke:#000000;stroke-width:1.5;" x1="358" x2="445" y1="252.6094" y2="252.6094"/><text fill="#000000" font-family="sans-serif" font-size="14" font-weight="bold" lengthAdjust="spacing" textLength="74" x="362" y="245.5332">Quản lý Xe</text><!--MD5=[58d49f837e747703cd328f076925a4ce]
cluster Quản lý Điểm Dừng--><polygon fill="#FFFFFF" filter="url(#f1gbqc336ciq7j)" points="700,336,839,336,846,359.6094,933,359.6094,933,553,700,553,700,336" style="stroke:#000000;stroke-width:1.5;"/><line style="stroke:#000000;stroke-width:1.5;" x1="700" x2="846" y1="359.6094" y2="359.6094"/><text fill="#000000" font-family="sans-serif" font-size="14" font-weight="bold" lengthAdjust="spacing" textLength="133" x="704" y="352.5332">Quản lý Điểm Dừng</text><!--MD5=[dcf9e1929eef115b7af78c8efc93ffbe]
cluster Quản lý Nhân Viên--><polygon fill="#FFFFFF" filter="url(#f1gbqc336ciq7j)" points="16,260,149,260,156,283.6094,283,283.6094,283,459,16,459,16,260" style="stroke:#000000;stroke-width:1.5;"/><line style="stroke:#000000;stroke-width:1.5;" x1="16" x2="156" y1="283.6094" y2="283.6094"/><text fill="#000000" font-family="sans-serif" font-size="14" font-weight="bold" lengthAdjust="spacing" textLength="127" x="20" y="276.5332">Quản lý Nhân Viên</text><ellipse cx="491.3657" cy="161.0175" fill="#FEFECE" filter="url(#f1gbqc336ciq7j)" rx="117.3657" ry="28.0175" style="stroke:#A80036;stroke-width:1.5;"/><text fill="#000000" font-family="sans-serif" font-size="14" lengthAdjust="spacing" textLength="149" x="413.8657" y="156.7294">Xem-Tạo-Xóa-Khóa-Mở</text><text fill="#000000" font-family="sans-serif" font-size="14" lengthAdjust="spacing" textLength="45" x="465.8657" y="174.3388">Nhà Xe</text><ellipse cx="491.2965" cy="69.9034" fill="#FEFECE" filter="url(#f1gbqc336ciq7j)" rx="72.2965" ry="27.9034" style="stroke:#A80036;stroke-width:1.5;"/><text fill="#000000" font-family="sans-serif" font-size="14" lengthAdjust="spacing" textLength="86" x="448.2965" y="64.8272">Xem-Tạo-Xóa</text><text fill="#000000" font-family="sans-serif" font-size="14" lengthAdjust="spacing" textLength="47" x="467.7965" y="82.4366">Loại Xe</text><ellipse cx="491.7485" cy="401.9121" fill="#FEFECE" filter="url(#f1gbqc336ciq7j)" rx="94.2485" ry="27.9121" style="stroke:#A80036;stroke-width:1.5;"/><text fill="#000000" font-family="sans-serif" font-size="14" lengthAdjust="spacing" textLength="117" x="431.5465" y="397.3006">Xem-Tạo-Xóa-Sửa</text><text fill="#000000" font-family="sans-serif" font-size="14" lengthAdjust="spacing" textLength="69" x="455.5465" y="414.91">Chuyến Xe</text><ellipse cx="491.3657" cy="293.0175" fill="#FEFECE" filter="url(#f1gbqc336ciq7j)" rx="117.3657" ry="28.0175" style="stroke:#A80036;stroke-width:1.5;"/><text fill="#000000" font-family="sans-serif" font-size="14" lengthAdjust="spacing" textLength="149" x="413.8657" y="288.7294">Xem-Tạo-Xóa-Khóa-Mở</text><text fill="#000000" font-family="sans-serif" font-size="14" lengthAdjust="spacing" textLength="16" x="480.3657" y="306.3388">Xe</text><ellipse cx="816.2965" cy="508.9034" fill="#FEFECE" filter="url(#f1gbqc336ciq7j)" rx="72.2965" ry="27.9034" style="stroke:#A80036;stroke-width:1.5;"/><text fill="#000000" font-family="sans-serif" font-size="14" lengthAdjust="spacing" textLength="86" x="773.2965" y="503.8272">Xem-Tạo-Xóa</text><text fill="#000000" font-family="sans-serif" font-size="14" lengthAdjust="spacing" textLength="71" x="780.7965" y="521.4366">Điểm Dừng</text><ellipse cx="816.7378" cy="399.9435" fill="#FEFECE" filter="url(#f1gbqc336ciq7j)" rx="100.7378" ry="27.9435" style="stroke:#A80036;stroke-width:1.5;"/><text fill="#000000" font-family="sans-serif" font-size="14" lengthAdjust="spacing" textLength="126" x="750.7378" y="395.6554">Gán/Gỡ Điểm Dừng</text><text fill="#000000" font-family="sans-serif" font-size="14" lengthAdjust="spacing" textLength="92" x="767.7378" y="413.2648">với Chuyến Xe</text><ellipse cx="149.3657" cy="324.0175" fill="#FEFECE" filter="url(#f1gbqc336ciq7j)" rx="117.3657" ry="28.0175" style="stroke:#A80036;stroke-width:1.5;"/><text fill="#000000" font-family="sans-serif" font-size="14" lengthAdjust="spacing" textLength="149" x="71.8657" y="319.7294">Xem-Tạo-Xóa-Khóa-Mở</text><text fill="#000000" font-family="sans-serif" font-size="14" lengthAdjust="spacing" textLength="85" x="103.8657" y="337.3388">Nhân Viên Xe</text><ellipse cx="149.3657" cy="415.0175" fill="#FEFECE" filter="url(#f1gbqc336ciq7j)" rx="117.3657" ry="28.0175" style="stroke:#A80036;stroke-width:1.5;"/><text fill="#000000" font-family="sans-serif" font-size="14" lengthAdjust="spacing" textLength="149" x="71.8657" y="410.7294">Xem-Tạo-Xóa-Khóa-Mở</text><text fill="#000000" font-family="sans-serif" font-size="14" lengthAdjust="spacing" textLength="127" x="82.8657" y="428.3388">Nhân Viên Tổng Đài</text><!--MD5=[e74ef3b3a003784962dd3667b8672065]
entity sa--><ellipse cx="149.5" cy="93" fill="#FEFECE" filter="url(#f1gbqc336ciq7j)" rx="16" ry="16" style="stroke:#A80036;stroke-width:1.5;"/><path d="M149.5,113 C153.5,113 156.5,113 160.5,109 C168.5,109 176.5,117 176.5,125 L176.5,129 C176.5,133 172.5,137 168.5,137 L130.5,137 C126.5,137 122.5,133 122.5,129 L122.5,125 C122.5,117 130.5,109 138.5,109 C142.5,113 145.5,113 149.5,113 " fill="#FEFECE" filter="url(#f1gbqc336ciq7j)" style="stroke:#A80036;stroke-width:1.5;"/><text fill="#000000" font-family="sans-serif" font-size="14" lengthAdjust="spacing" textLength="122" x="88.5" y="153.0332">Quản Trị Hệ Thống</text><!--MD5=[109725bb0ebac319695aaff0c635708f]
entity ba--><ellipse cx="491.5" cy="483" fill="#FEFECE" filter="url(#f1gbqc336ciq7j)" rx="16" ry="16" style="stroke:#A80036;stroke-width:1.5;"/><path d="M491.5,503 C495.5,503 498.5,503 502.5,499 C510.5,499 518.5,507 518.5,515 L518.5,519 C518.5,523 514.5,527 510.5,527 L472.5,527 C468.5,527 464.5,523 464.5,519 L464.5,515 C464.5,507 472.5,499 480.5,499 C484.5,503 487.5,503 491.5,503 " fill="#FEFECE" filter="url(#f1gbqc336ciq7j)" style="stroke:#A80036;stroke-width:1.5;"/><text fill="#000000" font-family="sans-serif" font-size="14" lengthAdjust="spacing" textLength="105" x="439" y="543.0332">Quản Trị Nhà Xe</text><!--MD5=[cca3dcbc92ba4d9a5fe629990b083e9a]
link sa to buss_type--><path d="M210.5,107.88 C268.36,100.05 355.99,88.2 417.78,79.84 " fill="none" id="sa-to-buss_type" style="stroke:#A80036;stroke-width:1.0;"/><polygon fill="#A80036" points="422.93,79.14,413.4746,76.3842,417.9752,79.8111,414.5483,84.3118,422.93,79.14" style="stroke:#A80036;stroke-width:1.0;"/><!--MD5=[5521907ad180377e995e953020384958]
link sa to buss_operation--><path d="M210.5,123.94 C258.25,130.26 326.28,139.26 383.32,146.81 " fill="none" id="sa-to-buss_operation" style="stroke:#A80036;stroke-width:1.0;"/><polygon fill="#A80036" points="388.46,147.49,380.0637,142.342,383.5034,146.8329,379.0124,150.2726,388.46,147.49" style="stroke:#A80036;stroke-width:1.0;"/><!--MD5=[04d82872aba915ab95435995c973e662]
reverse link buss to ba--><path d="M398.75,313.59 C367.88,325.54 337.15,344.27 320.5,373.5 C308.4,394.74 308.4,407.26 320.5,428.5 C344.37,470.42 397.8,489.77 438.62,498.64 " fill="none" id="buss-backto-ba" style="stroke:#A80036;stroke-width:1.0;"/><polygon fill="#A80036" points="403.71,311.73,393.8785,311.1448,399.0284,313.4856,396.6875,318.6354,403.71,311.73" style="stroke:#A80036;stroke-width:1.0;"/><!--MD5=[4592cb06f7098e21de5f2e9d3ab9f268]
reverse link caller_staff to ba--><path d="M233.47,437.21 C297.65,454.38 384.48,477.63 438.99,492.21 " fill="none" id="caller_staff-backto-ba" style="stroke:#A80036;stroke-width:1.0;"/><polygon fill="#A80036" points="228.5,435.88,236.1506,442.0822,233.3281,437.1799,238.2304,434.3573,228.5,435.88" style="stroke:#A80036;stroke-width:1.0;"/><!--MD5=[1eac7b97173792197521c8caa95e9c19]
link ba to buss_stop--><path d="M544.04,506.48 C596.62,506.97 678.81,507.73 738.98,508.29 " fill="none" id="ba-to-buss_stop" style="stroke:#A80036;stroke-width:1.0;"/><polygon fill="#A80036" points="744,508.34,735.0346,504.263,739.0002,508.2971,734.966,512.2627,744,508.34" style="stroke:#A80036;stroke-width:1.0;"/><!--MD5=[91be6676b6f562cd99abc2b385df04ac]
link buss to buss_type--><path d="M396.32,276.38 C369.44,266.81 343.15,251.74 327,228 C307.69,199.61 277.68,192.59 350,115 C367.31,96.43 392.25,85.48 416.38,79.05 " fill="none" id="buss-to-buss_type" style="stroke:#A80036;stroke-width:1.0;stroke-dasharray:7.0,7.0;"/><polygon fill="#A80036" points="421.51,77.74,411.8027,76.0759,416.6635,78.9695,413.7699,83.8303,421.51,77.74" style="stroke:#A80036;stroke-width:1.0;"/><text fill="#000000" font-family="sans-serif" font-size="13" lengthAdjust="spacing" textLength="41" x="300" y="224.4951">include</text><!--MD5=[e57714322a0a709983ddd72e3d1aa70d]
link buss_trip to buss--><path d="M491.5,373.93 C491.5,359.42 491.5,341.62 491.5,326.4 " fill="none" id="buss_trip-to-buss" style="stroke:#A80036;stroke-width:1.0;stroke-dasharray:7.0,7.0;"/><polygon fill="#A80036" points="491.5,321.35,487.5,330.35,491.5,326.35,495.5,330.35,491.5,321.35" style="stroke:#A80036;stroke-width:1.0;"/><text fill="#000000" font-family="sans-serif" font-size="13" lengthAdjust="spacing" textLength="41" x="459" y="352.9951">include</text><!--MD5=[4e3f391b230049ecb3128fda3952037a]
link buss_staff to buss--><path d="M259.48,314.06 C296.84,310.66 338.74,306.84 376.49,303.39 " fill="none" id="buss_staff-to-buss" style="stroke:#A80036;stroke-width:1.0;stroke-dasharray:7.0,7.0;"/><polygon fill="#A80036" points="381.55,302.93,372.2224,299.7685,376.5709,303.3865,372.9528,307.7351,381.55,302.93" style="stroke:#A80036;stroke-width:1.0;"/><text fill="#000000" font-family="sans-serif" font-size="13" lengthAdjust="spacing" textLength="41" x="300" y="303.4951">include</text><!--MD5=[65196397a6eff4ffad58fac1b31bb4fd]
link buss_stop_trip to buss_trip--><path d="M715.84,400.62 C676.07,400.86 630.42,401.15 590.79,401.39 " fill="none" id="buss_stop_trip-to-buss_trip" style="stroke:#A80036;stroke-width:1.0;stroke-dasharray:7.0,7.0;"/><polygon fill="#A80036" points="585.49,401.42,594.5127,405.3685,590.4899,401.3914,594.467,397.3686,585.49,401.42" style="stroke:#A80036;stroke-width:1.0;"/><text fill="#000000" font-family="sans-serif" font-size="13" lengthAdjust="spacing" textLength="41" x="642" y="397.4951">include</text><!--MD5=[a4bcdf210f6ed22c4cb751ab6d93f4f8]
link buss_stop_trip to buss_stop--><path d="M816.5,428.35 C816.5,442.9 816.5,460.71 816.5,475.89 " fill="none" id="buss_stop_trip-to-buss_stop" style="stroke:#A80036;stroke-width:1.0;stroke-dasharray:7.0,7.0;"/><polygon fill="#A80036" points="816.5,480.93,820.5,471.93,816.5,475.93,812.5,471.93,816.5,480.93" style="stroke:#A80036;stroke-width:1.0;"/><text fill="#000000" font-family="sans-serif" font-size="13" lengthAdjust="spacing" textLength="41" x="784" y="459.9951">include</text><!--MD5=[ace6230cf43f523487a6f7b7152357df]
@startuml
left to right direction
skinparam actorStyle awesome

:Quản Trị Hệ Thống: as sa
:Quản Trị Nhà Xe: as ba

package "Quản Trị Hệ Thống" {
	(Xem-Tạo-Xóa-Khóa-Mở\nNhà Xe) as (buss_operation)
	(Xem-Tạo-Xóa\nLoại Xe) as (buss_type)
}

package "Quản lý Xe" {
	(Xem-Tạo-Xóa-Sửa\nChuyến Xe) as (buss_trip)
	(Xem-Tạo-Xóa-Khóa-Mở\nXe) as (buss)
}

package "Quản lý Điểm Dừng" {
	(Xem-Tạo-Xóa\nĐiểm Dừng) as (buss_stop)
	(Gán/Gỡ Điểm Dừng\nvới Chuyến Xe) as (buss_stop_trip)
}

package "Quản lý Nhân Viên" {
	(Xem-Tạo-Xóa-Khóa-Mở\nNhân Viên Xe) as (buss_staff)
	(Xem-Tạo-Xóa-Khóa-Mở\nNhân Viên Tổng Đài) as (caller_staff)
}

sa - -> (buss_type)
sa - -> (buss_operation)

ba -left-> (buss)
ba -up-> (caller_staff)
ba -down-> (buss_stop)



(buss) .> (buss_type) : include
(buss_trip) .> (buss) : include
(buss_staff) .> (buss) : include
(buss_stop_trip) .> (buss_trip) : include
(buss_stop_trip) .> (buss_stop) : include

@enduml

PlantUML version 1.2021.2(Sun Mar 07 18:10:27 ICT 2021)
(GPL source distribution)
Java Runtime: OpenJDK Runtime Environment
JVM: Eclipse OpenJ9 VM
Default Encoding: UTF-8
Language: en
Country: US
--></g></svg>