<?xml version="1.0" encoding="UTF-8" standalone="no"?><svg xmlns="http://www.w3.org/2000/svg" xmlns:xlink="http://www.w3.org/1999/xlink" contentScriptType="application/ecmascript" contentStyleType="text/css" height="705px" preserveAspectRatio="none" style="width:802px;height:705px;" version="1.1" viewBox="0 0 802 705" width="802px" zoomAndPan="magnify"><defs><filter height="300%" id="f1aecrizhqf0ps" width="300%" x="-1" y="-1"><feGaussianBlur result="blurOut" stdDeviation="2.0"/><feColorMatrix in="blurOut" result="blurOut2" type="matrix" values="0 0 0 0 0 0 0 0 0 0 0 0 0 0 0 0 0 0 .4 0"/><feOffset dx="4.0" dy="4.0" in="blurOut2" result="blurOut3"/><feBlend in="SourceGraphic" in2="blurOut3" mode="normal"/></filter></defs><g><!--MD5=[e74ef3b3a003784962dd3667b8672065]
entity sa--><ellipse cx="673.5" cy="609" fill="#FEFECE" filter="url(#f1aecrizhqf0ps)" rx="16" ry="16" style="stroke:#A80036;stroke-width:1.5;"/><path d="M673.5,629 C677.5,629 680.5,629 684.5,625 C692.5,625 700.5,633 700.5,641 L700.5,645 C700.5,649 696.5,653 692.5,653 L654.5,653 C650.5,653 646.5,649 646.5,645 L646.5,641 C646.5,633 654.5,625 662.5,625 C666.5,629 669.5,629 673.5,629 " fill="#FEFECE" filter="url(#f1aecrizhqf0ps)" style="stroke:#A80036;stroke-width:1.5;"/><text fill="#000000" font-family="sans-serif" font-size="14" lengthAdjust="spacing" textLength="111" x="618" y="669.0332">Quản trị hệ thống</text><ellipse cx="377.3657" cy="665.0175" fill="#FEFECE" filter="url(#f1aecrizhqf0ps)" rx="117.3657" ry="28.0175" style="stroke:#A80036;stroke-width:1.5;"/><text fill="#000000" font-family="sans-serif" font-size="14" lengthAdjust="spacing" textLength="149" x="299.8657" y="660.7294">Xem-Tạo-Xóa-Khóa-Mở</text><text fill="#000000" font-family="sans-serif" font-size="14" lengthAdjust="spacing" textLength="43" x="352.8657" y="678.3388">Nhà xe</text><ellipse cx="377.2965" cy="573.9034" fill="#FEFECE" filter="url(#f1aecrizhqf0ps)" rx="72.2965" ry="27.9034" style="stroke:#A80036;stroke-width:1.5;"/><text fill="#000000" font-family="sans-serif" font-size="14" lengthAdjust="spacing" textLength="86" x="334.2965" y="568.8272">Xem-Tạo-Xóa</text><text fill="#000000" font-family="sans-serif" font-size="14" lengthAdjust="spacing" textLength="45" x="354.7965" y="586.4366">Loại xe</text><!--MD5=[109725bb0ebac319695aaff0c635708f]
entity ba--><ellipse cx="377.5" cy="338" fill="#FEFECE" filter="url(#f1aecrizhqf0ps)" rx="16" ry="16" style="stroke:#A80036;stroke-width:1.5;"/><path d="M377.5,358 C381.5,358 384.5,358 388.5,354 C396.5,354 404.5,362 404.5,370 L404.5,374 C404.5,378 400.5,382 396.5,382 L358.5,382 C354.5,382 350.5,378 350.5,374 L350.5,370 C350.5,362 358.5,354 366.5,354 C370.5,358 373.5,358 377.5,358 " fill="#FEFECE" filter="url(#f1aecrizhqf0ps)" style="stroke:#A80036;stroke-width:1.5;"/><text fill="#000000" font-family="sans-serif" font-size="14" lengthAdjust="spacing" textLength="69" x="343" y="398.0332">Quản trị xe</text><ellipse cx="102.2965" cy="142.9034" fill="#FEFECE" filter="url(#f1aecrizhqf0ps)" rx="72.2965" ry="27.9034" style="stroke:#A80036;stroke-width:1.5;"/><text fill="#000000" font-family="sans-serif" font-size="14" lengthAdjust="spacing" textLength="86" x="59.2965" y="137.8272">Xem-Tạo-Xóa</text><text fill="#000000" font-family="sans-serif" font-size="14" lengthAdjust="spacing" textLength="70" x="67.2965" y="155.4366">Hành Trình</text><ellipse cx="102.2965" cy="360.9034" fill="#FEFECE" filter="url(#f1aecrizhqf0ps)" rx="72.2965" ry="27.9034" style="stroke:#A80036;stroke-width:1.5;"/><text fill="#000000" font-family="sans-serif" font-size="14" lengthAdjust="spacing" textLength="86" x="59.2965" y="355.8272">Xem-Tạo-Xóa</text><text fill="#000000" font-family="sans-serif" font-size="14" lengthAdjust="spacing" textLength="71" x="66.7965" y="373.4366">Điểm Dừng</text><ellipse cx="102.2965" cy="251.9034" fill="#FEFECE" filter="url(#f1aecrizhqf0ps)" rx="72.2965" ry="27.9034" style="stroke:#A80036;stroke-width:1.5;"/><text fill="#000000" font-family="sans-serif" font-size="14" lengthAdjust="spacing" textLength="86" x="59.2965" y="246.8272">Xem-Tạo-Xóa</text><text fill="#000000" font-family="sans-serif" font-size="14" lengthAdjust="spacing" textLength="61" x="71.7965" y="264.4366">Đường Đi</text><ellipse cx="102.3381" cy="33.9034" fill="#FEFECE" filter="url(#f1aecrizhqf0ps)" rx="96.3381" ry="27.9034" style="stroke:#A80036;stroke-width:1.5;"/><text fill="#000000" font-family="sans-serif" font-size="14" lengthAdjust="spacing" textLength="117" x="43.8381" y="28.8272">Xem-Tạo-Xóa-Sửa</text><text fill="#000000" font-family="sans-serif" font-size="14" lengthAdjust="spacing" textLength="120" x="42.3381" y="46.4366">Hành Trình Của Xe</text><ellipse cx="377.3657" cy="465.0175" fill="#FEFECE" filter="url(#f1aecrizhqf0ps)" rx="117.3657" ry="28.0175" style="stroke:#A80036;stroke-width:1.5;"/><text fill="#000000" font-family="sans-serif" font-size="14" lengthAdjust="spacing" textLength="149" x="299.8657" y="460.7294">Xem-Tạo-Xóa-Khóa-Mở</text><text fill="#000000" font-family="sans-serif" font-size="14" lengthAdjust="spacing" textLength="16" x="366.3657" y="478.3388">Xe</text><ellipse cx="673.3657" cy="316.0175" fill="#FEFECE" filter="url(#f1aecrizhqf0ps)" rx="117.3657" ry="28.0175" style="stroke:#A80036;stroke-width:1.5;"/><text fill="#000000" font-family="sans-serif" font-size="14" lengthAdjust="spacing" textLength="149" x="595.8657" y="311.7294">Xem-Tạo-Xóa-Khóa-Mở</text><text fill="#000000" font-family="sans-serif" font-size="14" lengthAdjust="spacing" textLength="83" x="628.8657" y="329.3388">Nhân viên Xe</text><ellipse cx="673.3657" cy="407.0175" fill="#FEFECE" filter="url(#f1aecrizhqf0ps)" rx="117.3657" ry="28.0175" style="stroke:#A80036;stroke-width:1.5;"/><text fill="#000000" font-family="sans-serif" font-size="14" lengthAdjust="spacing" textLength="149" x="595.8657" y="402.7294">Xem-Tạo-Xóa-Khóa-Mở</text><text fill="#000000" font-family="sans-serif" font-size="14" lengthAdjust="spacing" textLength="123" x="608.8657" y="420.3388">Nhân viên Tổng đài</text><!--MD5=[8d6e4436a1e2e1125f13068d7affa792]
reverse link buss_operation to sa--><path d="M489.29,652.56 C533.26,647.63 581.84,642.18 617.92,638.13 " fill="none" id="buss_operation-backto-sa" style="stroke:#0000FF;stroke-width:1.0;"/><polygon fill="#0000FF" points="484.23,653.13,493.6204,656.0998,489.1987,652.5716,492.7269,648.1498,484.23,653.13" style="stroke:#0000FF;stroke-width:1.0;"/><!--MD5=[f9ccdf7481b775f92bacbc9f8da2e6ab]
reverse link buss_type to sa--><path d="M447.26,587.57 C499.21,597.81 569.55,611.69 617.72,621.19 " fill="none" id="buss_type-backto-sa" style="stroke:#0000FF;stroke-width:1.0;"/><polygon fill="#0000FF" points="442.29,586.59,450.3403,592.2638,447.1945,587.5623,451.896,584.4166,442.29,586.59" style="stroke:#0000FF;stroke-width:1.0;"/><!--MD5=[e110b3bd702fce0b10a3564850d42c56]
link ba to buss--><path d="M377.5,401.66 C377.5,411.68 377.5,421.7 377.5,431.73 " fill="none" id="ba-to-buss" style="stroke:#0000FF;stroke-width:1.0;"/><polygon fill="#0000FF" points="377.5,436.97,381.5,427.97,377.5,431.97,373.5,427.97,377.5,436.97" style="stroke:#0000FF;stroke-width:1.0;"/><!--MD5=[91be6676b6f562cd99abc2b385df04ac]
link buss to buss_type--><path d="M377.5,493.35 C377.5,507.9 377.5,525.71 377.5,540.89 " fill="none" id="buss-to-buss_type" style="stroke:#A80036;stroke-width:1.0;stroke-dasharray:7.0,7.0;"/><polygon fill="#A80036" points="377.5,545.93,381.5,536.93,377.5,540.93,373.5,536.93,377.5,545.93" style="stroke:#A80036;stroke-width:1.0;"/><text fill="#000000" font-family="sans-serif" font-size="13" lengthAdjust="spacing" textLength="41" x="345" y="524.9951">include</text><!--MD5=[0532a8939dd072d1410b7d518abb8fcc]
link ba to buss_staff--><path d="M412.23,355.84 C450.37,350 514.32,340.21 569.28,331.8 " fill="none" id="ba-to-buss_staff" style="stroke:#A80036;stroke-width:1.0;"/><polygon fill="#A80036" points="574.24,331.04,564.7381,328.4488,569.2976,331.7971,565.9494,336.3566,574.24,331.04" style="stroke:#A80036;stroke-width:1.0;"/><!--MD5=[95a8d17f050702e0fe50a7913bdd0c6d]
link ba to caller_staff--><path d="M412.23,366.28 C450.51,372.27 514.81,382.33 569.92,390.95 " fill="none" id="ba-to-caller_staff" style="stroke:#A80036;stroke-width:1.0;"/><polygon fill="#A80036" points="574.88,391.73,566.6045,386.39,569.9398,390.959,565.3708,394.2943,574.88,391.73" style="stroke:#A80036;stroke-width:1.0;"/><!--MD5=[112ae7cbee53e47774198bd172267be6]
reverse link buss_stop to ba--><path d="M180.36,361 C233.88,361 302.63,361 342.9,361 " fill="none" id="buss_stop-backto-ba" style="stroke:#A80036;stroke-width:1.0;"/><polygon fill="#A80036" points="175.23,361,184.23,365,180.23,361,184.23,357,175.23,361" style="stroke:#A80036;stroke-width:1.0;"/><!--MD5=[71f5ad2627097d71800c4de0a8775283]
link buss_trip to trip--><path d="M102.5,62.35 C102.5,76.9 102.5,94.71 102.5,109.89 " fill="none" id="buss_trip-to-trip" style="stroke:#A80036;stroke-width:1.0;stroke-dasharray:7.0,7.0;"/><polygon fill="#A80036" points="102.5,114.93,106.5,105.93,102.5,109.93,98.5,105.93,102.5,114.93" style="stroke:#A80036;stroke-width:1.0;"/><text fill="#000000" font-family="sans-serif" font-size="13" lengthAdjust="spacing" textLength="41" x="70" y="93.9951">include</text><!--MD5=[bed5a3792f86f807280402a43165921b]
link trip to path--><path d="M102.5,171.35 C102.5,185.9 102.5,203.71 102.5,218.89 " fill="none" id="trip-to-path" style="stroke:#A80036;stroke-width:1.0;stroke-dasharray:7.0,7.0;"/><polygon fill="#A80036" points="102.5,223.93,106.5,214.93,102.5,218.93,98.5,214.93,102.5,223.93" style="stroke:#A80036;stroke-width:1.0;"/><text fill="#000000" font-family="sans-serif" font-size="13" lengthAdjust="spacing" textLength="41" x="70" y="202.9951">include</text><!--MD5=[3e099d07a601a228d22010cb6ac78c92]
link path to buss_stop--><path d="M102.5,280.35 C102.5,294.9 102.5,312.71 102.5,327.89 " fill="none" id="path-to-buss_stop" style="stroke:#A80036;stroke-width:1.0;stroke-dasharray:7.0,7.0;"/><polygon fill="#A80036" points="102.5,332.93,106.5,323.93,102.5,327.93,98.5,323.93,102.5,332.93" style="stroke:#A80036;stroke-width:1.0;"/><text fill="#000000" font-family="sans-serif" font-size="13" lengthAdjust="spacing" textLength="41" x="70" y="311.9951">include</text><!--MD5=[069515efbef83f5ec06115647b2a4747]
@startuml
left to right direction
skinparam actorStyle awesome

:Quản trị hệ thống: as sa
(Xem-Tạo-Xóa-Khóa-Mở\nNhà xe) as (buss_operation)
(Xem-Tạo-Xóa\nLoại xe) as (buss_type)

sa -up-> (buss_operation)#blue
sa -up-> (buss_type)#blue

:Quản trị xe: as ba
(Xem-Tạo-Xóa\nHành Trình) as (trip)
(Xem-Tạo-Xóa\nĐiểm Dừng) as (buss_stop)
(Xem-Tạo-Xóa\nĐường Đi) as (path)
(Xem-Tạo-Xóa-Sửa\nHành Trình Của Xe) as (buss_trip)
(Xem-Tạo-Xóa-Khóa-Mở\nXe) as (buss)
(Xem-Tạo-Xóa-Khóa-Mở\nNhân viên Xe) as (buss_staff)
(Xem-Tạo-Xóa-Khóa-Mở\nNhân viên Tổng đài) as (caller_staff)

ba -right-> (buss)#blue
(buss) .> (buss_type) : include

ba - -> (buss_staff)
ba - -> (caller_staff)


ba -up-> (buss_stop)
(buss_trip) .> (trip) : include
(trip) .> (path) : include
(path) .> (buss_stop) : include

@enduml

PlantUML version 1.2021.2(Sun Mar 07 18:10:27 ICT 2021)
(GPL source distribution)
Java Runtime: OpenJDK Runtime Environment
JVM: Eclipse OpenJ9 VM
Default Encoding: UTF-8
Language: en
Country: US
--></g></svg>