<?xml version="1.0" encoding="UTF-8" standalone="no"?><svg xmlns="http://www.w3.org/2000/svg" xmlns:xlink="http://www.w3.org/1999/xlink" contentScriptType="application/ecmascript" contentStyleType="text/css" height="705px" preserveAspectRatio="none" style="width:797px;height:705px;" version="1.1" viewBox="0 0 797 705" width="797px" zoomAndPan="magnify"><defs><filter height="300%" id="f1x4wdzbxhkmfz" width="300%" x="-1" y="-1"><feGaussianBlur result="blurOut" stdDeviation="2.0"/><feColorMatrix in="blurOut" result="blurOut2" type="matrix" values="0 0 0 0 0 0 0 0 0 0 0 0 0 0 0 0 0 0 .4 0"/><feOffset dx="4.0" dy="4.0" in="blurOut2" result="blurOut3"/><feBlend in="SourceGraphic" in2="blurOut3" mode="normal"/></filter></defs><g><!--MD5=[e74ef3b3a003784962dd3667b8672065]
entity sa--><ellipse cx="668.5" cy="609" fill="#FEFECE" filter="url(#f1x4wdzbxhkmfz)" rx="16" ry="16" style="stroke:#A80036;stroke-width:1.5;"/><path d="M668.5,629 C672.5,629 675.5,629 679.5,625 C687.5,625 695.5,633 695.5,641 L695.5,645 C695.5,649 691.5,653 687.5,653 L649.5,653 C645.5,653 641.5,649 641.5,645 L641.5,641 C641.5,633 649.5,625 657.5,625 C661.5,629 664.5,629 668.5,629 " fill="#FEFECE" filter="url(#f1x4wdzbxhkmfz)" style="stroke:#A80036;stroke-width:1.5;"/><text fill="#000000" font-family="sans-serif" font-size="14" lengthAdjust="spacing" textLength="122" x="607.5" y="669.0332">Quản Trị Hệ Thống</text><ellipse cx="372.3657" cy="665.0175" fill="#FEFECE" filter="url(#f1x4wdzbxhkmfz)" rx="117.3657" ry="28.0175" style="stroke:#A80036;stroke-width:1.5;"/><text fill="#000000" font-family="sans-serif" font-size="14" lengthAdjust="spacing" textLength="149" x="294.8657" y="660.7294">Xem-Tạo-Xóa-Khóa-Mở</text><text fill="#000000" font-family="sans-serif" font-size="14" lengthAdjust="spacing" textLength="45" x="346.8657" y="678.3388">Nhà Xe</text><ellipse cx="372.2965" cy="573.9034" fill="#FEFECE" filter="url(#f1x4wdzbxhkmfz)" rx="72.2965" ry="27.9034" style="stroke:#A80036;stroke-width:1.5;"/><text fill="#000000" font-family="sans-serif" font-size="14" lengthAdjust="spacing" textLength="86" x="329.2965" y="568.8272">Xem-Tạo-Xóa</text><text fill="#000000" font-family="sans-serif" font-size="14" lengthAdjust="spacing" textLength="47" x="348.7965" y="586.4366">Loại Xe</text><!--MD5=[109725bb0ebac319695aaff0c635708f]
entity ba--><ellipse cx="372.5" cy="338" fill="#FEFECE" filter="url(#f1x4wdzbxhkmfz)" rx="16" ry="16" style="stroke:#A80036;stroke-width:1.5;"/><path d="M372.5,358 C376.5,358 379.5,358 383.5,354 C391.5,354 399.5,362 399.5,370 L399.5,374 C399.5,378 395.5,382 391.5,382 L353.5,382 C349.5,382 345.5,378 345.5,374 L345.5,370 C345.5,362 353.5,354 361.5,354 C365.5,358 368.5,358 372.5,358 " fill="#FEFECE" filter="url(#f1x4wdzbxhkmfz)" style="stroke:#A80036;stroke-width:1.5;"/><text fill="#000000" font-family="sans-serif" font-size="14" lengthAdjust="spacing" textLength="76" x="334.5" y="398.0332">Quản Trị Xe</text><ellipse cx="99.7965" cy="142.9034" fill="#FEFECE" filter="url(#f1x4wdzbxhkmfz)" rx="72.2965" ry="27.9034" style="stroke:#A80036;stroke-width:1.5;"/><text fill="#000000" font-family="sans-serif" font-size="14" lengthAdjust="spacing" textLength="86" x="56.7965" y="137.8272">Xem-Tạo-Xóa</text><text fill="#000000" font-family="sans-serif" font-size="14" lengthAdjust="spacing" textLength="70" x="64.7965" y="155.4366">Hành Trình</text><ellipse cx="99.7965" cy="360.9034" fill="#FEFECE" filter="url(#f1x4wdzbxhkmfz)" rx="72.2965" ry="27.9034" style="stroke:#A80036;stroke-width:1.5;"/><text fill="#000000" font-family="sans-serif" font-size="14" lengthAdjust="spacing" textLength="86" x="56.7965" y="355.8272">Xem-Tạo-Xóa</text><text fill="#000000" font-family="sans-serif" font-size="14" lengthAdjust="spacing" textLength="71" x="64.2965" y="373.4366">Điểm Dừng</text><ellipse cx="99.7965" cy="251.9034" fill="#FEFECE" filter="url(#f1x4wdzbxhkmfz)" rx="72.2965" ry="27.9034" style="stroke:#A80036;stroke-width:1.5;"/><text fill="#000000" font-family="sans-serif" font-size="14" lengthAdjust="spacing" textLength="86" x="56.7965" y="246.8272">Xem-Tạo-Xóa</text><text fill="#000000" font-family="sans-serif" font-size="14" lengthAdjust="spacing" textLength="61" x="69.2965" y="264.4366">Đường Đi</text><ellipse cx="100.2485" cy="33.9121" fill="#FEFECE" filter="url(#f1x4wdzbxhkmfz)" rx="94.2485" ry="27.9121" style="stroke:#A80036;stroke-width:1.5;"/><text fill="#000000" font-family="sans-serif" font-size="14" lengthAdjust="spacing" textLength="117" x="40.0465" y="29.3006">Xem-Tạo-Xóa-Sửa</text><text fill="#000000" font-family="sans-serif" font-size="14" lengthAdjust="spacing" textLength="117" x="40.0465" y="46.91">Hành Trình của Xe</text><ellipse cx="372.3657" cy="465.0175" fill="#FEFECE" filter="url(#f1x4wdzbxhkmfz)" rx="117.3657" ry="28.0175" style="stroke:#A80036;stroke-width:1.5;"/><text fill="#000000" font-family="sans-serif" font-size="14" lengthAdjust="spacing" textLength="149" x="294.8657" y="460.7294">Xem-Tạo-Xóa-Khóa-Mở</text><text fill="#000000" font-family="sans-serif" font-size="14" lengthAdjust="spacing" textLength="16" x="361.3657" y="478.3388">Xe</text><ellipse cx="668.3657" cy="316.0175" fill="#FEFECE" filter="url(#f1x4wdzbxhkmfz)" rx="117.3657" ry="28.0175" style="stroke:#A80036;stroke-width:1.5;"/><text fill="#000000" font-family="sans-serif" font-size="14" lengthAdjust="spacing" textLength="149" x="590.8657" y="311.7294">Xem-Tạo-Xóa-Khóa-Mở</text><text fill="#000000" font-family="sans-serif" font-size="14" lengthAdjust="spacing" textLength="85" x="622.8657" y="329.3388">Nhân Viên Xe</text><ellipse cx="668.3657" cy="407.0175" fill="#FEFECE" filter="url(#f1x4wdzbxhkmfz)" rx="117.3657" ry="28.0175" style="stroke:#A80036;stroke-width:1.5;"/><text fill="#000000" font-family="sans-serif" font-size="14" lengthAdjust="spacing" textLength="149" x="590.8657" y="402.7294">Xem-Tạo-Xóa-Khóa-Mở</text><text fill="#000000" font-family="sans-serif" font-size="14" lengthAdjust="spacing" textLength="127" x="601.8657" y="420.3388">Nhân Viên Tổng Đài</text><!--MD5=[8d6e4436a1e2e1125f13068d7affa792]
reverse link buss_operation to sa--><path d="M484.28,652.57 C525.93,647.89 571.72,642.75 607.1,638.78 " fill="none" id="buss_operation-backto-sa" style="stroke:#0000FF;stroke-width:1.0;"/><polygon fill="#0000FF" points="479.23,653.13,488.6204,656.0998,484.1987,652.5716,487.7269,648.1498,479.23,653.13" style="stroke:#0000FF;stroke-width:1.0;"/><!--MD5=[f9ccdf7481b775f92bacbc9f8da2e6ab]
reverse link buss_type to sa--><path d="M442.39,587.59 C492.42,597.46 559.46,610.69 607.34,620.13 " fill="none" id="buss_type-backto-sa" style="stroke:#0000FF;stroke-width:1.0;"/><polygon fill="#0000FF" points="437.29,586.59,445.3403,592.2638,442.1945,587.5623,446.896,584.4166,437.29,586.59" style="stroke:#0000FF;stroke-width:1.0;"/><!--MD5=[e110b3bd702fce0b10a3564850d42c56]
link ba to buss--><path d="M372.5,401.66 C372.5,411.68 372.5,421.7 372.5,431.73 " fill="none" id="ba-to-buss" style="stroke:#0000FF;stroke-width:1.0;"/><polygon fill="#0000FF" points="372.5,436.97,376.5,427.97,372.5,431.97,368.5,427.97,372.5,436.97" style="stroke:#0000FF;stroke-width:1.0;"/><!--MD5=[91be6676b6f562cd99abc2b385df04ac]
link buss to buss_type--><path d="M372.5,493.35 C372.5,507.9 372.5,525.71 372.5,540.89 " fill="none" id="buss-to-buss_type" style="stroke:#A80036;stroke-width:1.0;stroke-dasharray:7.0,7.0;"/><polygon fill="#A80036" points="372.5,545.93,376.5,536.93,372.5,540.93,368.5,536.93,372.5,545.93" style="stroke:#A80036;stroke-width:1.0;"/><text fill="#000000" font-family="sans-serif" font-size="13" lengthAdjust="spacing" textLength="41" x="340" y="524.9951">include</text><!--MD5=[0532a8939dd072d1410b7d518abb8fcc]
link ba to buss_staff--><path d="M410.74,355.3 C449.13,349.42 510.73,339.99 563.98,331.85 " fill="none" id="ba-to-buss_staff" style="stroke:#A80036;stroke-width:1.0;"/><polygon fill="#A80036" points="569.1,331.06,559.6055,328.442,564.1555,331.8031,560.7944,336.3532,569.1,331.06" style="stroke:#A80036;stroke-width:1.0;"/><!--MD5=[95a8d17f050702e0fe50a7913bdd0c6d]
link ba to caller_staff--><path d="M410.74,366.83 C449.28,372.86 511.22,382.55 564.6,390.9 " fill="none" id="ba-to-caller_staff" style="stroke:#A80036;stroke-width:1.0;"/><polygon fill="#A80036" points="569.74,391.7,561.4645,386.36,564.7998,390.929,560.2308,394.2643,569.74,391.7" style="stroke:#A80036;stroke-width:1.0;"/><!--MD5=[112ae7cbee53e47774198bd172267be6]
reverse link buss_stop to ba--><path d="M178.01,361 C229.24,361 294.25,361 334.35,361 " fill="none" id="buss_stop-backto-ba" style="stroke:#A80036;stroke-width:1.0;"/><polygon fill="#A80036" points="172.78,361,181.78,365,177.78,361,181.78,357,172.78,361" style="stroke:#A80036;stroke-width:1.0;"/><!--MD5=[71f5ad2627097d71800c4de0a8775283]
link buss_trip to trip--><path d="M100,62.35 C100,76.9 100,94.71 100,109.89 " fill="none" id="buss_trip-to-trip" style="stroke:#A80036;stroke-width:1.0;stroke-dasharray:7.0,7.0;"/><polygon fill="#A80036" points="100,114.93,104,105.93,100,109.93,96,105.93,100,114.93" style="stroke:#A80036;stroke-width:1.0;"/><text fill="#000000" font-family="sans-serif" font-size="13" lengthAdjust="spacing" textLength="41" x="67.5" y="93.9951">include</text><!--MD5=[bed5a3792f86f807280402a43165921b]
link trip to path--><path d="M100,171.35 C100,185.9 100,203.71 100,218.89 " fill="none" id="trip-to-path" style="stroke:#A80036;stroke-width:1.0;stroke-dasharray:7.0,7.0;"/><polygon fill="#A80036" points="100,223.93,104,214.93,100,218.93,96,214.93,100,223.93" style="stroke:#A80036;stroke-width:1.0;"/><text fill="#000000" font-family="sans-serif" font-size="13" lengthAdjust="spacing" textLength="41" x="67.5" y="202.9951">include</text><!--MD5=[3e099d07a601a228d22010cb6ac78c92]
link path to buss_stop--><path d="M100,280.35 C100,294.9 100,312.71 100,327.89 " fill="none" id="path-to-buss_stop" style="stroke:#A80036;stroke-width:1.0;stroke-dasharray:7.0,7.0;"/><polygon fill="#A80036" points="100,332.93,104,323.93,100,327.93,96,323.93,100,332.93" style="stroke:#A80036;stroke-width:1.0;"/><text fill="#000000" font-family="sans-serif" font-size="13" lengthAdjust="spacing" textLength="41" x="67.5" y="311.9951">include</text><!--MD5=[0f08084117e0d94e1a7f20a8e99c4442]
@startuml
left to right direction
skinparam actorStyle awesome

:Quản Trị Hệ Thống: as sa
(Xem-Tạo-Xóa-Khóa-Mở\nNhà Xe) as (buss_operation)
(Xem-Tạo-Xóa\nLoại Xe) as (buss_type)

sa -up-> (buss_operation)#blue
sa -up-> (buss_type)#blue

:Quản Trị Xe: as ba
(Xem-Tạo-Xóa\nHành Trình) as (trip)
(Xem-Tạo-Xóa\nĐiểm Dừng) as (buss_stop)
(Xem-Tạo-Xóa\nĐường Đi) as (path)
(Xem-Tạo-Xóa-Sửa\nHành Trình của Xe) as (buss_trip)
(Xem-Tạo-Xóa-Khóa-Mở\nXe) as (buss)
(Xem-Tạo-Xóa-Khóa-Mở\nNhân Viên Xe) as (buss_staff)
(Xem-Tạo-Xóa-Khóa-Mở\nNhân Viên Tổng Đài) as (caller_staff)

ba -right-> (buss)#blue
(buss) .> (buss_type) : include

ba - -> (buss_staff)
ba - -> (caller_staff)


ba -up-> (buss_stop)
(buss_trip) .> (trip) : include
(trip) .> (path) : include
(path) .> (buss_stop) : include

@enduml

PlantUML version 1.2021.2(Sun Mar 07 18:10:27 ICT 2021)
(GPL source distribution)
Java Runtime: OpenJDK Runtime Environment
JVM: Eclipse OpenJ9 VM
Default Encoding: UTF-8
Language: en
Country: US
--></g></svg>