<?xml version="1.0" encoding="UTF-8" standalone="no"?><svg xmlns="http://www.w3.org/2000/svg" xmlns:xlink="http://www.w3.org/1999/xlink" contentScriptType="application/ecmascript" contentStyleType="text/css" height="1587.5px" preserveAspectRatio="none" style="width:1308px;height:1587px;" version="1.1" viewBox="0 0 1308 1587" width="1308.3333px" zoomAndPan="magnify"><defs><filter height="300%" id="fga10wgi6y9qh" width="300%" x="-1" y="-1"><feGaussianBlur result="blurOut" stdDeviation="4.166666666666667"/><feColorMatrix in="blurOut" result="blurOut2" type="matrix" values="0 0 0 0 0 0 0 0 0 0 0 0 0 0 0 0 0 0 .4 0"/><feOffset dx="8.333333333333334" dy="8.333333333333334" in="blurOut2" result="blurOut3"/><feBlend in="SourceGraphic" in2="blurOut3" mode="normal"/></filter></defs><g><polygon fill="#90EE90" filter="url(#fga10wgi6y9qh)" points="257.2917,83.5327,665.625,83.5327,686.4583,135.8114,665.625,188.09,257.2917,188.09" style="stroke:#A80036;stroke-width:3.125;"/><text fill="#000000" font-family="sans-serif" font-size="25" lengthAdjust="spacing" textLength="145.8333" x="278.125" y="130.3182">Từ màn hình</text><text fill="#000000" font-family="sans-serif" font-size="25" font-weight="bold" lengthAdjust="spacing" textLength="360.4167" x="278.125" y="161.7635">Danh sách Nhân Viên Tổng Đài</text><text fill="#000000" font-family="sans-serif" font-size="25" lengthAdjust="spacing" textLength="0" x="644.7917" y="161.7635"/><rect fill="#FEFECE" filter="url(#fga10wgi6y9qh)" height="104.5573" rx="26.0417" ry="26.0417" style="stroke:#A80036;stroke-width:3.125;" width="185.4167" x="368.75" y="229.7567"/><text fill="#000000" font-family="sans-serif" font-size="25" lengthAdjust="spacing" textLength="143.75" x="389.5833" y="276.5422">Click vào tab</text><text fill="#000000" font-family="sans-serif" font-size="25" font-weight="bold" lengthAdjust="spacing" textLength="127.0833" x="389.5833" y="307.9875">Đang khóa</text><rect fill="#FEFECE" filter="url(#fga10wgi6y9qh)" height="136.0026" rx="26.0417" ry="26.0417" style="stroke:#A80036;stroke-width:3.125;" width="466.6667" x="43.75" y="475.297"/><text fill="#000000" font-family="sans-serif" font-size="25" lengthAdjust="spacing" textLength="62.5" x="64.5833" y="522.0825">Chọn</text><text fill="#000000" font-family="sans-serif" font-size="25" font-weight="bold" lengthAdjust="spacing" textLength="356.25" x="133.3333" y="522.0825">Các Nhân Viên muốn mở khóa</text><text fill="#000000" font-family="sans-serif" font-size="25" lengthAdjust="spacing" textLength="56.25" x="64.5833" y="553.5278">ở cột</text><text fill="#000000" font-family="sans-serif" font-size="25" font-weight="bold" lengthAdjust="spacing" textLength="118.75" x="127.0833" y="553.5278">Checkbox</text><text fill="#000000" font-family="sans-serif" font-size="25" lengthAdjust="spacing" textLength="166.6667" x="64.5833" y="584.9731">phía cuối cùng</text><rect fill="#FEFECE" filter="url(#fga10wgi6y9qh)" height="104.5573" rx="26.0417" ry="26.0417" style="stroke:#A80036;stroke-width:3.125;" width="145.8333" x="388.5417" y="652.9663"/><text fill="#000000" font-family="sans-serif" font-size="25" lengthAdjust="spacing" textLength="97.9167" x="409.375" y="699.7518">Click nút</text><text fill="#000000" font-family="sans-serif" font-size="25" font-weight="bold" lengthAdjust="spacing" textLength="104.1667" x="409.375" y="731.1971">Mở khóa</text><rect fill="#FEFECE" filter="url(#fga10wgi6y9qh)" height="104.5573" rx="26.0417" ry="26.0417" style="stroke:#A80036;stroke-width:3.125;" width="470.8333" x="226.0417" y="799.1903"/><text fill="#000000" font-family="sans-serif" font-size="25" lengthAdjust="spacing" textLength="222.9167" x="246.875" y="845.9757">Hiện yes/no pop-up</text><text fill="#000000" font-family="sans-serif" font-size="25" font-weight="bold" lengthAdjust="spacing" textLength="429.1667" x="246.875" y="877.4211">Bạn chắc chắn muốn mở khóa chứ?</text><polygon fill="#FEFECE" filter="url(#fga10wgi6y9qh)" points="382.2917,945.4142,540.625,945.4142,565.625,970.4142,540.625,995.4142,382.2917,995.4142,357.2917,970.4142,382.2917,945.4142" style="stroke:#A80036;stroke-width:3.125;"/><text fill="#000000" font-family="sans-serif" font-size="22.9167" lengthAdjust="spacing" textLength="158.3333" x="382.2917" y="979.7913">Click hoặc chọn</text><text fill="#000000" font-family="sans-serif" font-size="22.9167" lengthAdjust="spacing" textLength="52.0833" x="305.2083" y="965.3788">Khác</text><text fill="#000000" font-family="sans-serif" font-size="22.9167" lengthAdjust="spacing" textLength="31.25" x="565.625" y="965.3788">nút</text><text fill="#000000" font-family="sans-serif" font-size="22.9167" font-weight="bold" lengthAdjust="spacing" textLength="79.1667" x="603.125" y="965.3788">Đồng ý</text><line style="stroke:#000000;stroke-width:4.166666666666667;" x1="31.25" x2="31.25" y1="25.9481" y2="1552.8361"/><polygon fill="#FEFECE" filter="url(#fga10wgi6y9qh)" points="813.5417,375.9806,1090.625,375.9806,1115.625,404.8055,1090.625,433.6304,813.5417,433.6304,788.5417,404.8055,813.5417,375.9806" style="stroke:#A80036;stroke-width:3.125;"/><text fill="#000000" font-family="sans-serif" font-size="22.9167" lengthAdjust="spacing" textLength="277.0833" x="813.5417" y="399.7701">Có Nhân Viên Tổng Đài nào</text><text fill="#000000" font-family="sans-serif" font-size="22.9167" lengthAdjust="spacing" textLength="206.25" x="813.5417" y="428.595">đang bị khóa không?</text><text fill="#000000" font-family="sans-serif" font-size="22.9167" lengthAdjust="spacing" textLength="27.0833" x="761.4583" y="399.7701">Có</text><text fill="#000000" font-family="sans-serif" font-size="22.9167" lengthAdjust="spacing" textLength="64.5833" x="1115.625" y="399.7701">Không</text><ellipse cx="1136.4583" cy="496.1304" fill="#FFFFFF" filter="url(#fga10wgi6y9qh)" rx="20.8333" ry="20.8333" style="stroke:#000000;stroke-width:3.125;"/><line style="stroke:#000000;stroke-width:5.208333333333334;" x1="1123.5684" x2="1149.3483" y1="483.2404" y2="509.0203"/><line style="stroke:#000000;stroke-width:5.208333333333334;" x1="1149.3483" x2="1123.5684" y1="483.2404" y2="509.0203"/><rect fill="#FEFECE" filter="url(#fga10wgi6y9qh)" height="73.112" rx="26.0417" ry="26.0417" style="stroke:#A80036;stroke-width:3.125;" width="164.5833" x="730.2083" y="1037.0809"/><text fill="#000000" font-family="sans-serif" font-size="25" lengthAdjust="spacing" textLength="122.9167" x="751.0417" y="1083.8664">Tắt pop-up</text><ellipse cx="812.5" cy="1203.9429" fill="#FFFFFF" filter="url(#fga10wgi6y9qh)" rx="20.8333" ry="20.8333" style="stroke:#000000;stroke-width:3.125;"/><line style="stroke:#000000;stroke-width:5.208333333333334;" x1="799.61" x2="825.39" y1="1191.0529" y2="1216.8328"/><line style="stroke:#000000;stroke-width:5.208333333333334;" x1="825.39" x2="799.61" y1="1191.0529" y2="1216.8328"/><rect fill="#FEFECE" filter="url(#fga10wgi6y9qh)" height="104.5573" rx="26.0417" ry="26.0417" style="stroke:#A80036;stroke-width:3.125;" width="310.4167" x="936.4583" y="1037.0809"/><text fill="#000000" font-family="sans-serif" font-size="25" lengthAdjust="spacing" textLength="268.75" x="957.2917" y="1083.8664">Mở khóa các Nhân Viên</text><text fill="#000000" font-family="sans-serif" font-size="25" lengthAdjust="spacing" textLength="122.9167" x="957.2917" y="1115.3117">được chọn</text><rect fill="#FEFECE" filter="url(#fga10wgi6y9qh)" height="104.5573" rx="26.0417" ry="26.0417" style="stroke:#A80036;stroke-width:3.125;" width="258.3333" x="962.5" y="1214.5549"/><text fill="#000000" font-family="sans-serif" font-size="25" lengthAdjust="spacing" textLength="137.5" x="983.3333" y="1261.3403">Cập nhật lại</text><text fill="#000000" font-family="sans-serif" font-size="25" font-weight="bold" lengthAdjust="spacing" textLength="216.6667" x="983.3333" y="1292.7856">Danh sách hiển thị</text><rect fill="#FEFECE" filter="url(#fga10wgi6y9qh)" height="104.5573" rx="26.0417" ry="26.0417" style="stroke:#A80036;stroke-width:3.125;" width="402.0833" x="751.0417" y="1360.7788"/><text fill="#000000" font-family="sans-serif" font-size="25" lengthAdjust="spacing" textLength="237.5" x="771.875" y="1407.5643">Chuyển tới màn hình</text><text fill="#000000" font-family="sans-serif" font-size="25" font-weight="bold" lengthAdjust="spacing" textLength="360.4167" x="771.875" y="1439.0096">Danh sách Nhân Viên Tổng Đài</text><ellipse cx="952.0833" cy="1529.9194" fill="#FFFFFF" filter="url(#fga10wgi6y9qh)" rx="22.9167" ry="22.9167" style="stroke:#000000;stroke-width:2.0833333333333335;"/><ellipse cx="952.0833" cy="1529.9194" fill="#000000" rx="12.5" ry="12.5" style="stroke:#7F7F7F;stroke-width:2.0833333333333335;"/><line style="stroke:#000000;stroke-width:4.166666666666667;" x1="717.7083" x2="717.7083" y1="25.9481" y2="1552.8361"/><line style="stroke:#000000;stroke-width:4.166666666666667;" x1="1267.7083" x2="1267.7083" y1="25.9481" y2="1552.8361"/><line style="stroke:#A80036;stroke-width:3.125;" x1="461.4583" x2="461.4583" y1="188.09" y2="229.7567"/><polygon fill="#A80036" points="453.125,208.9233,461.4583,229.7567,469.7917,208.9233,461.4583,217.2567" style="stroke:#A80036;stroke-width:2.0833333333333335;"/><line style="stroke:#A80036;stroke-width:3.125;" x1="461.4583" x2="461.4583" y1="757.5236" y2="799.1903"/><polygon fill="#A80036" points="453.125,778.3569,461.4583,799.1903,469.7917,778.3569,461.4583,786.6903" style="stroke:#A80036;stroke-width:2.0833333333333335;"/><line style="stroke:#A80036;stroke-width:3.125;" x1="461.4583" x2="461.4583" y1="903.7476" y2="945.4142"/><polygon fill="#A80036" points="453.125,924.5809,461.4583,945.4142,469.7917,924.5809,461.4583,932.9142" style="stroke:#A80036;stroke-width:2.0833333333333335;"/><line style="stroke:#A80036;stroke-width:3.125;" x1="1115.625" x2="1136.4583" y1="404.8055" y2="404.8055"/><line style="stroke:#A80036;stroke-width:3.125;" x1="1136.4583" x2="1136.4583" y1="404.8055" y2="475.297"/><polygon fill="#A80036" points="1128.125,454.4637,1136.4583,475.297,1144.7917,454.4637,1136.4583,462.797" style="stroke:#A80036;stroke-width:2.0833333333333335;"/><line style="stroke:#A80036;stroke-width:3.125;" x1="812.5" x2="812.5" y1="1110.1929" y2="1183.1095"/><polygon fill="#A80036" points="804.1667,1162.2762,812.5,1183.1095,820.8333,1162.2762,812.5,1170.6095" style="stroke:#A80036;stroke-width:2.0833333333333335;"/><line style="stroke:#A80036;stroke-width:3.125;" x1="1091.6667" x2="1091.6667" y1="1141.6382" y2="1214.5549"/><polygon fill="#A80036" points="1083.3333,1193.7215,1091.6667,1214.5549,1100,1193.7215,1091.6667,1202.0549" style="stroke:#A80036;stroke-width:2.0833333333333335;"/><line style="stroke:#A80036;stroke-width:3.125;" x1="952.0833" x2="952.0833" y1="1465.3361" y2="1507.0028"/><polygon fill="#A80036" points="943.75,1486.1694,952.0833,1507.0028,960.4167,1486.1694,952.0833,1494.5028" style="stroke:#A80036;stroke-width:2.0833333333333335;"/><line style="stroke:#A80036;stroke-width:3.125;" x1="788.5417" x2="277.0833" y1="404.8055" y2="404.8055"/><line style="stroke:#A80036;stroke-width:3.125;" x1="277.0833" x2="277.0833" y1="404.8055" y2="475.297"/><polygon fill="#A80036" points="268.75,454.4637,277.0833,475.297,285.4167,454.4637,277.0833,462.797" style="stroke:#A80036;stroke-width:2.0833333333333335;"/><line style="stroke:#A80036;stroke-width:3.125;" x1="277.0833" x2="277.0833" y1="611.2996" y2="621.7163"/><line style="stroke:#A80036;stroke-width:3.125;" x1="277.0833" x2="461.4583" y1="621.7163" y2="621.7163"/><line style="stroke:#A80036;stroke-width:3.125;" x1="461.4583" x2="461.4583" y1="621.7163" y2="652.9663"/><polygon fill="#A80036" points="453.125,632.133,461.4583,652.9663,469.7917,632.133,461.4583,640.4663" style="stroke:#A80036;stroke-width:2.0833333333333335;"/><line style="stroke:#A80036;stroke-width:3.125;" x1="461.4583" x2="461.4583" y1="334.314" y2="344.7306"/><line style="stroke:#A80036;stroke-width:3.125;" x1="461.4583" x2="952.0833" y1="344.7306" y2="344.7306"/><line style="stroke:#A80036;stroke-width:3.125;" x1="952.0833" x2="952.0833" y1="344.7306" y2="375.9806"/><polygon fill="#A80036" points="943.75,355.1473,952.0833,375.9806,960.4167,355.1473,952.0833,363.4806" style="stroke:#A80036;stroke-width:2.0833333333333335;"/><line style="stroke:#A80036;stroke-width:3.125;" x1="357.2917" x2="332.2917" y1="970.4142" y2="970.4142"/><line style="stroke:#A80036;stroke-width:3.125;" x1="332.2917" x2="332.2917" y1="970.4142" y2="1007.9142"/><line style="stroke:#A80036;stroke-width:3.125;" x1="332.2917" x2="812.5" y1="1007.9142" y2="1007.9142"/><line style="stroke:#A80036;stroke-width:3.125;" x1="812.5" x2="812.5" y1="1007.9142" y2="1037.0809"/><polygon fill="#A80036" points="804.1667,1016.2476,812.5,1037.0809,820.8333,1016.2476,812.5,1024.5809" style="stroke:#A80036;stroke-width:2.0833333333333335;"/><line style="stroke:#A80036;stroke-width:3.125;" x1="565.625" x2="1091.6667" y1="970.4142" y2="970.4142"/><line style="stroke:#A80036;stroke-width:3.125;" x1="1091.6667" x2="1091.6667" y1="970.4142" y2="1037.0809"/><polygon fill="#A80036" points="1083.3333,1016.2476,1091.6667,1037.0809,1100,1016.2476,1091.6667,1024.5809" style="stroke:#A80036;stroke-width:2.0833333333333335;"/><line style="stroke:#A80036;stroke-width:3.125;" x1="1091.6667" x2="1091.6667" y1="1319.1121" y2="1329.5288"/><line style="stroke:#A80036;stroke-width:3.125;" x1="1091.6667" x2="952.0833" y1="1329.5288" y2="1329.5288"/><line style="stroke:#A80036;stroke-width:3.125;" x1="952.0833" x2="952.0833" y1="1329.5288" y2="1360.7788"/><polygon fill="#A80036" points="943.75,1339.9455,952.0833,1360.7788,960.4167,1339.9455,952.0833,1348.2788" style="stroke:#A80036;stroke-width:2.0833333333333335;"/><text fill="#000000" font-family="sans-serif" font-size="37.5" lengthAdjust="spacing" textLength="281.25" x="239.0625" y="64.8763">Quản Trị Nhà Xe</text><text fill="#000000" font-family="sans-serif" font-size="37.5" lengthAdjust="spacing" textLength="152.0833" x="921.875" y="64.8763">Hệ thống</text><!--MD5=[d153c10a51317a34f26ccd8d0044cd5e]
@startuml
skinparam dpi 200

|Buss Admin| Quản Trị Nhà Xe
	#lightgreen:Từ màn hình
	<b>Danh sách Nhân Viên Tổng Đài</b> >

	:Click vào tab
	<b>Đang khóa</b>;

|System| Hệ thống
	if (Có Nhân Viên Tổng Đài nào\nđang bị khóa không?) is (Có) then
		|Buss Admin|
			:Chọn <b>Các Nhân Viên muốn mở khóa</b>
			ở cột <b>Checkbox</b>
			phía cuối cùng;
	else (Không)
		|System|
		end
	endif


|Buss Admin|
	:Click nút
	<b>Mở khóa</b>;

	:Hiện yes/no pop-up
	<b>Bạn chắc chắn muốn mở khóa chứ?</b>;


	if (Click hoặc chọn) is (Khác) then
		|System|
		:Tắt pop-up;
		end
	else (nút <b>Đồng ý</b>)
		|System|
			:Mở khóa các Nhân Viên
			được chọn;

			:Cập nhật lại
			<b>Danh sách hiển thị</b>;
	endif

	:Chuyển tới màn hình
	<b>Danh sách Nhân Viên Tổng Đài</b>;

	stop
@enduml

PlantUML version 1.2021.2(Sun Mar 07 18:10:27 ICT 2021)
(GPL source distribution)
Java Runtime: OpenJDK Runtime Environment
JVM: Eclipse OpenJ9 VM
Default Encoding: UTF-8
Language: en
Country: US
--></g></svg>