<?xml version="1.0" encoding="UTF-8" standalone="no"?><svg xmlns="http://www.w3.org/2000/svg" xmlns:xlink="http://www.w3.org/1999/xlink" contentScriptType="application/ecmascript" contentStyleType="text/css" height="1197.9167px" preserveAspectRatio="none" style="width:1470px;height:1197px;" version="1.1" viewBox="0 0 1470 1197" width="1470.8333px" zoomAndPan="magnify"><defs><filter height="300%" id="f1f19x35ww2te6" width="300%" x="-1" y="-1"><feGaussianBlur result="blurOut" stdDeviation="4.166666666666667"/><feColorMatrix in="blurOut" result="blurOut2" type="matrix" values="0 0 0 0 0 0 0 0 0 0 0 0 0 0 0 0 0 0 .4 0"/><feOffset dx="8.333333333333334" dy="8.333333333333334" in="blurOut2" result="blurOut3"/><feBlend in="SourceGraphic" in2="blurOut3" mode="normal"/></filter></defs><g><polygon fill="#90EE90" filter="url(#f1f19x35ww2te6)" points="62.5,83.5327,525,83.5327,545.8333,120.0887,525,156.6447,62.5,156.6447" style="stroke:#A80036;stroke-width:3.125;"/><text fill="#000000" font-family="sans-serif" font-size="25" lengthAdjust="spacing" textLength="52.0833" x="83.3333" y="130.3182">from</text><text fill="#000000" font-family="sans-serif" font-size="25" font-weight="bold" lengthAdjust="spacing" textLength="310.4167" x="141.6667" y="130.3182">List of Buss Organizations</text><text fill="#000000" font-family="sans-serif" font-size="25" lengthAdjust="spacing" textLength="45.8333" x="458.3333" y="130.3182">flow</text><rect fill="#FEFECE" filter="url(#f1f19x35ww2te6)" height="73.112" rx="26.0417" ry="26.0417" style="stroke:#A80036;stroke-width:3.125;" width="268.75" x="159.375" y="198.3114"/><text fill="#000000" font-family="sans-serif" font-size="25" lengthAdjust="spacing" textLength="85.4167" x="180.2083" y="245.0968">click on</text><text fill="#000000" font-family="sans-serif" font-size="25" font-weight="bold" lengthAdjust="spacing" textLength="93.75" x="271.875" y="245.0968">Locking</text><text fill="#000000" font-family="sans-serif" font-size="25" lengthAdjust="spacing" textLength="35.4167" x="371.875" y="245.0968">tab</text><rect fill="#FEFECE" filter="url(#f1f19x35ww2te6)" height="73.112" rx="26.0417" ry="26.0417" style="stroke:#A80036;stroke-width:3.125;" width="256.25" x="165.625" y="530.1473"/><text fill="#000000" font-family="sans-serif" font-size="25" lengthAdjust="spacing" textLength="50" x="186.4583" y="576.9328">click</text><text fill="#FF0000" font-family="sans-serif" font-size="25" font-weight="bold" lengthAdjust="spacing" textLength="81.25" x="242.7083" y="576.9328">Unlock</text><text fill="#000000" font-family="sans-serif" font-size="25" lengthAdjust="spacing" textLength="70.8333" x="330.2083" y="576.9328">button</text><line style="stroke:#000000;stroke-width:4.166666666666667;" x1="31.25" x2="31.25" y1="25.9481" y2="1164.2619"/><polygon fill="#FEFECE" filter="url(#f1f19x35ww2te6)" points="928.125,313.09,1161.4583,313.09,1186.4583,338.09,1161.4583,363.09,928.125,363.09,903.125,338.09,928.125,313.09" style="stroke:#A80036;stroke-width:3.125;"/><text fill="#000000" font-family="sans-serif" font-size="22.9167" lengthAdjust="spacing" textLength="233.3333" x="928.125" y="347.467">has any locking admin?</text><text fill="#000000" font-family="sans-serif" font-size="22.9167" lengthAdjust="spacing" textLength="25" x="878.125" y="333.0546">no</text><text fill="#000000" font-family="sans-serif" font-size="22.9167" lengthAdjust="spacing" textLength="37.5" x="1186.4583" y="333.0546">yes</text><ellipse cx="882.2917" cy="404.7567" fill="#FFFFFF" filter="url(#f1f19x35ww2te6)" rx="20.8333" ry="20.8333" style="stroke:#000000;stroke-width:3.125;"/><line style="stroke:#000000;stroke-width:5.208333333333334;" x1="869.4017" x2="895.1816" y1="391.8667" y2="417.6466"/><line style="stroke:#000000;stroke-width:5.208333333333334;" x1="895.1816" x2="869.4017" y1="391.8667" y2="417.6466"/><rect fill="#FEFECE" filter="url(#f1f19x35ww2te6)" height="104.5573" rx="26.0417" ry="26.0417" style="stroke:#A80036;stroke-width:3.125;" width="372.9167" x="1020.8333" y="383.9233"/><text fill="#000000" font-family="sans-serif" font-size="25" lengthAdjust="spacing" textLength="331.25" x="1041.6667" y="430.7088">select admins want to unlock</text><text fill="#000000" font-family="sans-serif" font-size="25" lengthAdjust="spacing" textLength="29.1667" x="1091.6667" y="462.1541">on</text><text fill="#FF0000" font-family="sans-serif" font-size="25" font-weight="bold" lengthAdjust="spacing" textLength="152.0833" x="1127.0833" y="462.1541">check boxes</text><text fill="#000000" font-family="sans-serif" font-size="25" lengthAdjust="spacing" textLength="85.4167" x="1285.4167" y="462.1541">column</text><polygon fill="#FEFECE" filter="url(#f1f19x35ww2te6)" points="1010.4167,644.9259,1079.1667,644.9259,1104.1667,669.9259,1079.1667,694.9259,1010.4167,694.9259,985.4167,669.9259,1010.4167,644.9259" style="stroke:#A80036;stroke-width:3.125;"/><text fill="#000000" font-family="sans-serif" font-size="22.9167" lengthAdjust="spacing" textLength="68.75" x="1010.4167" y="679.303">is valid</text><text fill="#000000" font-family="sans-serif" font-size="22.9167" lengthAdjust="spacing" textLength="37.5" x="947.9167" y="664.8905">yes</text><text fill="#000000" font-family="sans-serif" font-size="22.9167" lengthAdjust="spacing" textLength="25" x="1104.1667" y="664.8905">no</text><rect fill="#FEFECE" filter="url(#f1f19x35ww2te6)" height="73.112" rx="26.0417" ry="26.0417" style="stroke:#A80036;stroke-width:3.125;" width="347.9167" x="655.2083" y="715.7593"/><text fill="#000000" font-family="sans-serif" font-size="25" lengthAdjust="spacing" textLength="306.25" x="676.0417" y="762.5448">unlock all selected admins</text><rect fill="#FEFECE" filter="url(#f1f19x35ww2te6)" height="73.112" rx="26.0417" ry="26.0417" style="stroke:#A80036;stroke-width:3.125;" width="479.1667" x="589.5833" y="830.5379"/><text fill="#000000" font-family="sans-serif" font-size="25" lengthAdjust="spacing" textLength="295.8333" x="610.4167" y="877.3234">move those admins out of</text><text fill="#000000" font-family="sans-serif" font-size="25" font-weight="bold" lengthAdjust="spacing" textLength="93.75" x="912.5" y="877.3234">Locking</text><text fill="#000000" font-family="sans-serif" font-size="25" lengthAdjust="spacing" textLength="35.4167" x="1012.5" y="877.3234">tab</text><rect fill="#FEFECE" filter="url(#f1f19x35ww2te6)" height="73.112" rx="26.0417" ry="26.0417" style="stroke:#A80036;stroke-width:3.125;" width="439.5833" x="609.375" y="945.3166"/><text fill="#000000" font-family="sans-serif" font-size="25" lengthAdjust="spacing" textLength="397.9167" x="630.2083" y="992.1021">display lock successfully message</text><rect fill="#FEFECE" filter="url(#f1f19x35ww2te6)" height="73.112" rx="26.0417" ry="26.0417" style="stroke:#A80036;stroke-width:3.125;" width="300" x="1110.4167" y="715.7593"/><text fill="#000000" font-family="sans-serif" font-size="25" lengthAdjust="spacing" textLength="258.3333" x="1131.25" y="762.5448">display error message</text><polygon fill="#FEFECE" filter="url(#f1f19x35ww2te6)" points="1044.7917,1030.9285,1069.7917,1055.9285,1044.7917,1080.9285,1019.7917,1055.9285,1044.7917,1030.9285" style="stroke:#A80036;stroke-width:3.125;"/><ellipse cx="1044.7917" cy="1143.4285" fill="#FFFFFF" filter="url(#f1f19x35ww2te6)" rx="20.8333" ry="20.8333" style="stroke:#000000;stroke-width:3.125;"/><line style="stroke:#000000;stroke-width:5.208333333333334;" x1="1031.9017" x2="1057.6816" y1="1130.5386" y2="1156.3185"/><line style="stroke:#000000;stroke-width:5.208333333333334;" x1="1057.6816" x2="1031.9017" y1="1130.5386" y2="1156.3185"/><line style="stroke:#000000;stroke-width:4.166666666666667;" x1="577.0833" x2="577.0833" y1="25.9481" y2="1164.2619"/><line style="stroke:#000000;stroke-width:4.166666666666667;" x1="1431.25" x2="1431.25" y1="25.9481" y2="1164.2619"/><line style="stroke:#A80036;stroke-width:3.125;" x1="293.75" x2="293.75" y1="156.6447" y2="198.3114"/><polygon fill="#A80036" points="285.4167,177.478,293.75,198.3114,302.0833,177.478,293.75,185.8114" style="stroke:#A80036;stroke-width:2.0833333333333335;"/><line style="stroke:#A80036;stroke-width:3.125;" x1="903.125" x2="882.2917" y1="338.09" y2="338.09"/><line style="stroke:#A80036;stroke-width:3.125;" x1="882.2917" x2="882.2917" y1="338.09" y2="383.9233"/><polygon fill="#A80036" points="873.9583,363.09,882.2917,383.9233,890.625,363.09,882.2917,371.4233" style="stroke:#A80036;stroke-width:2.0833333333333335;"/><line style="stroke:#A80036;stroke-width:3.125;" x1="1186.4583" x2="1207.2917" y1="338.09" y2="338.09"/><line style="stroke:#A80036;stroke-width:3.125;" x1="1207.2917" x2="1207.2917" y1="338.09" y2="383.9233"/><polygon fill="#A80036" points="1198.9583,363.09,1207.2917,383.9233,1215.625,363.09,1207.2917,371.4233" style="stroke:#A80036;stroke-width:2.0833333333333335;"/><line style="stroke:#A80036;stroke-width:3.125;" x1="1207.2917" x2="1207.2917" y1="488.4806" y2="498.8973"/><line style="stroke:#A80036;stroke-width:3.125;" x1="1207.2917" x2="293.75" y1="498.8973" y2="498.8973"/><line style="stroke:#A80036;stroke-width:3.125;" x1="293.75" x2="293.75" y1="498.8973" y2="530.1473"/><polygon fill="#A80036" points="285.4167,509.314,293.75,530.1473,302.0833,509.314,293.75,517.6473" style="stroke:#A80036;stroke-width:2.0833333333333335;"/><line style="stroke:#A80036;stroke-width:3.125;" x1="829.1667" x2="829.1667" y1="788.8713" y2="830.5379"/><polygon fill="#A80036" points="820.8333,809.7046,829.1667,830.5379,837.5,809.7046,829.1667,818.0379" style="stroke:#A80036;stroke-width:2.0833333333333335;"/><line style="stroke:#A80036;stroke-width:3.125;" x1="829.1667" x2="829.1667" y1="903.6499" y2="945.3166"/><polygon fill="#A80036" points="820.8333,924.4832,829.1667,945.3166,837.5,924.4832,829.1667,932.8166" style="stroke:#A80036;stroke-width:2.0833333333333335;"/><line style="stroke:#A80036;stroke-width:3.125;" x1="985.4167" x2="829.1667" y1="669.9259" y2="669.9259"/><line style="stroke:#A80036;stroke-width:3.125;" x1="829.1667" x2="829.1667" y1="669.9259" y2="715.7593"/><polygon fill="#A80036" points="820.8333,694.9259,829.1667,715.7593,837.5,694.9259,829.1667,703.2593" style="stroke:#A80036;stroke-width:2.0833333333333335;"/><line style="stroke:#A80036;stroke-width:3.125;" x1="1104.1667" x2="1260.4167" y1="669.9259" y2="669.9259"/><line style="stroke:#A80036;stroke-width:3.125;" x1="1260.4167" x2="1260.4167" y1="669.9259" y2="715.7593"/><polygon fill="#A80036" points="1252.0833,694.9259,1260.4167,715.7593,1268.75,694.9259,1260.4167,703.2593" style="stroke:#A80036;stroke-width:2.0833333333333335;"/><line style="stroke:#A80036;stroke-width:3.125;" x1="829.1667" x2="829.1667" y1="1018.4285" y2="1055.9285"/><line style="stroke:#A80036;stroke-width:3.125;" x1="829.1667" x2="1019.7917" y1="1055.9285" y2="1055.9285"/><polygon fill="#A80036" points="998.9583,1047.5952,1019.7917,1055.9285,998.9583,1064.2619,1007.2917,1055.9285" style="stroke:#A80036;stroke-width:2.0833333333333335;"/><line style="stroke:#A80036;stroke-width:3.125;" x1="1260.4167" x2="1260.4167" y1="788.8713" y2="1055.9285"/><line style="stroke:#A80036;stroke-width:3.125;" x1="1260.4167" x2="1069.7917" y1="1055.9285" y2="1055.9285"/><polygon fill="#A80036" points="1090.625,1047.5952,1069.7917,1055.9285,1090.625,1064.2619,1082.2917,1055.9285" style="stroke:#A80036;stroke-width:2.0833333333333335;"/><line style="stroke:#A80036;stroke-width:3.125;" x1="1044.7917" x2="1044.7917" y1="1080.9285" y2="1122.5952"/><polygon fill="#A80036" points="1036.4583,1101.7619,1044.7917,1122.5952,1053.125,1101.7619,1044.7917,1110.0952" style="stroke:#A80036;stroke-width:2.0833333333333335;"/><line style="stroke:#A80036;stroke-width:3.125;" x1="293.75" x2="293.75" y1="271.4233" y2="281.84"/><line style="stroke:#A80036;stroke-width:3.125;" x1="293.75" x2="1044.7917" y1="281.84" y2="281.84"/><line style="stroke:#A80036;stroke-width:3.125;" x1="1044.7917" x2="1044.7917" y1="281.84" y2="313.09"/><polygon fill="#A80036" points="1036.4583,292.2567,1044.7917,313.09,1053.125,292.2567,1044.7917,300.59" style="stroke:#A80036;stroke-width:2.0833333333333335;"/><line style="stroke:#A80036;stroke-width:3.125;" x1="293.75" x2="293.75" y1="603.2593" y2="613.6759"/><line style="stroke:#A80036;stroke-width:3.125;" x1="293.75" x2="1044.7917" y1="613.6759" y2="613.6759"/><line style="stroke:#A80036;stroke-width:3.125;" x1="1044.7917" x2="1044.7917" y1="613.6759" y2="644.9259"/><polygon fill="#A80036" points="1036.4583,624.0926,1044.7917,644.9259,1053.125,624.0926,1044.7917,632.4259" style="stroke:#A80036;stroke-width:2.0833333333333335;"/><text fill="#000000" font-family="sans-serif" font-size="37.5" lengthAdjust="spacing" textLength="175" x="216.6667" y="64.8763">Sys Admin</text><text fill="#000000" font-family="sans-serif" font-size="37.5" lengthAdjust="spacing" textLength="122.9167" x="942.7083" y="64.8763">System</text><!--MD5=[449533891da4f3676d6bf74fa9033013]
@startuml
skinparam dpi 200

|Sys Admin|
#lightgreen:from <b>List of Buss Organizations</b> flow>
:click on <b>Locking</b> tab;
|System|
if (has any locking admin?) is (no) then
	end
else (yes)
	:select admins want to unlock
		on <b><color:red>check boxes</color></b> column;
endif

|Sys Admin|
:click <b><color:red>Unlock</color></b> button;

|System|
if (is valid) then (yes)
	:unlock all selected admins;
	:move those admins out of <b>Locking</b> tab;
	:display lock successfully message;
else (no)
	:display error message;
endif
end
@enduml

PlantUML version 1.2021.2(Sun Mar 07 18:10:27 ICT 2021)
(GPL source distribution)
Java Runtime: OpenJDK Runtime Environment
JVM: Eclipse OpenJ9 VM
Default Encoding: UTF-8
Language: en
Country: US
--></g></svg>