<?xml version="1.0" encoding="UTF-8" standalone="no"?><svg xmlns="http://www.w3.org/2000/svg" xmlns:xlink="http://www.w3.org/1999/xlink" contentScriptType="application/ecmascript" contentStyleType="text/css" height="1310.4167px" preserveAspectRatio="none" style="width:1191px;height:1310px;" version="1.1" viewBox="0 0 1191 1310" width="1191.6667px" zoomAndPan="magnify"><defs><filter height="300%" id="f14f45v2eivn3w" width="300%" x="-1" y="-1"><feGaussianBlur result="blurOut" stdDeviation="4.166666666666667"/><feColorMatrix in="blurOut" result="blurOut2" type="matrix" values="0 0 0 0 0 0 0 0 0 0 0 0 0 0 0 0 0 0 .4 0"/><feOffset dx="8.333333333333334" dy="8.333333333333334" in="blurOut2" result="blurOut3"/><feBlend in="SourceGraphic" in2="blurOut3" mode="normal"/></filter></defs><g><polygon fill="#90EE90" filter="url(#f14f45v2eivn3w)" points="339.5833,83.5327,602.0833,83.5327,622.9167,135.8114,602.0833,188.09,339.5833,188.09" style="stroke:#A80036;stroke-width:3.125;"/><text fill="#000000" font-family="sans-serif" font-size="25" lengthAdjust="spacing" textLength="145.8333" x="360.4167" y="130.3182">Từ màn hình</text><text fill="#000000" font-family="sans-serif" font-size="25" font-weight="bold" lengthAdjust="spacing" textLength="214.5833" x="360.4167" y="161.7635">Danh sách Nhà Xe</text><text fill="#000000" font-family="sans-serif" font-size="25" lengthAdjust="spacing" textLength="0" x="581.25" y="161.7635"/><rect fill="#FEFECE" filter="url(#f14f45v2eivn3w)" height="104.5573" rx="26.0417" ry="26.0417" style="stroke:#A80036;stroke-width:3.125;" width="185.4167" x="378.125" y="229.7567"/><text fill="#000000" font-family="sans-serif" font-size="25" lengthAdjust="spacing" textLength="143.75" x="398.9583" y="276.5422">Click vào tab</text><text fill="#000000" font-family="sans-serif" font-size="25" font-weight="bold" lengthAdjust="spacing" textLength="127.0833" x="398.9583" y="307.9875">Đang khóa</text><rect fill="#FEFECE" filter="url(#f14f45v2eivn3w)" height="136.0026" rx="26.0417" ry="26.0417" style="stroke:#A80036;stroke-width:3.125;" width="427.0833" x="43.75" y="467.6473"/><text fill="#000000" font-family="sans-serif" font-size="25" lengthAdjust="spacing" textLength="62.5" x="64.5833" y="514.4328">Chọn</text><text fill="#000000" font-family="sans-serif" font-size="25" font-weight="bold" lengthAdjust="spacing" textLength="316.6667" x="133.3333" y="514.4328">Các nhà xe muốn mở khóa</text><text fill="#000000" font-family="sans-serif" font-size="25" lengthAdjust="spacing" textLength="56.25" x="64.5833" y="545.8781">ở cột</text><text fill="#000000" font-family="sans-serif" font-size="25" font-weight="bold" lengthAdjust="spacing" textLength="118.75" x="127.0833" y="545.8781">Checkbox</text><text fill="#000000" font-family="sans-serif" font-size="25" lengthAdjust="spacing" textLength="166.6667" x="64.5833" y="577.3234">phía cuối cùng</text><rect fill="#FEFECE" filter="url(#f14f45v2eivn3w)" height="104.5573" rx="26.0417" ry="26.0417" style="stroke:#A80036;stroke-width:3.125;" width="145.8333" x="397.9167" y="645.3166"/><text fill="#000000" font-family="sans-serif" font-size="25" lengthAdjust="spacing" textLength="97.9167" x="418.75" y="692.1021">Click nút</text><text fill="#000000" font-family="sans-serif" font-size="25" font-weight="bold" lengthAdjust="spacing" textLength="104.1667" x="418.75" y="723.5474">Mở khóa</text><line style="stroke:#000000;stroke-width:4.166666666666667;" x1="31.25" x2="31.25" y1="25.9481" y2="1276.0457"/><polygon fill="#FEFECE" filter="url(#f14f45v2eivn3w)" points="716.6667,375.9806,1052.0833,375.9806,1077.0833,400.9806,1052.0833,425.9806,716.6667,425.9806,691.6667,400.9806,716.6667,375.9806" style="stroke:#A80036;stroke-width:3.125;"/><text fill="#000000" font-family="sans-serif" font-size="22.9167" lengthAdjust="spacing" textLength="335.4167" x="716.6667" y="410.3577">Có nhà xe nào đang khóa không?</text><text fill="#000000" font-family="sans-serif" font-size="22.9167" lengthAdjust="spacing" textLength="27.0833" x="664.5833" y="395.9452">Có</text><text fill="#000000" font-family="sans-serif" font-size="22.9167" lengthAdjust="spacing" textLength="64.5833" x="1077.0833" y="395.9452">Không</text><ellipse cx="1097.9167" cy="488.4806" fill="#FFFFFF" filter="url(#f14f45v2eivn3w)" rx="20.8333" ry="20.8333" style="stroke:#000000;stroke-width:3.125;"/><line style="stroke:#000000;stroke-width:5.208333333333334;" x1="1085.0267" x2="1110.8066" y1="475.5907" y2="501.3706"/><line style="stroke:#000000;stroke-width:5.208333333333334;" x1="1110.8066" x2="1085.0267" y1="475.5907" y2="501.3706"/><rect fill="#FEFECE" filter="url(#f14f45v2eivn3w)" height="104.5573" rx="26.0417" ry="26.0417" style="stroke:#A80036;stroke-width:3.125;" width="260.4167" x="754.1667" y="791.5405"/><text fill="#000000" font-family="sans-serif" font-size="25" lengthAdjust="spacing" textLength="164.5833" x="775" y="838.326">Mở khóa tất cả</text><text fill="#000000" font-family="sans-serif" font-size="25" font-weight="bold" lengthAdjust="spacing" textLength="218.75" x="775" y="869.7713">Nhà xe được chọn</text><rect fill="#FEFECE" filter="url(#f14f45v2eivn3w)" height="104.5573" rx="26.0417" ry="26.0417" style="stroke:#A80036;stroke-width:3.125;" width="252.0833" x="758.3333" y="937.7645"/><text fill="#000000" font-family="sans-serif" font-size="25" lengthAdjust="spacing" textLength="137.5" x="779.1667" y="984.55">Cập nhật lại</text><text fill="#000000" font-family="sans-serif" font-size="25" lengthAdjust="spacing" textLength="210.4167" x="779.1667" y="1015.9953">danh sách hiển thị</text><rect fill="#FEFECE" filter="url(#f14f45v2eivn3w)" height="104.5573" rx="26.0417" ry="26.0417" style="stroke:#A80036;stroke-width:3.125;" width="283.3333" x="742.7083" y="1083.9884"/><text fill="#000000" font-family="sans-serif" font-size="25" lengthAdjust="spacing" textLength="185.4167" x="763.5417" y="1130.7739">Hiển thị tin nhắn</text><text fill="#000000" font-family="sans-serif" font-size="25" font-weight="bold" lengthAdjust="spacing" textLength="241.6667" x="763.5417" y="1162.2192">Mở khóa thành công</text><ellipse cx="884.375" cy="1253.1291" fill="#FFFFFF" filter="url(#f14f45v2eivn3w)" rx="22.9167" ry="22.9167" style="stroke:#000000;stroke-width:2.0833333333333335;"/><ellipse cx="884.375" cy="1253.1291" fill="#000000" rx="12.5" ry="12.5" style="stroke:#7F7F7F;stroke-width:2.0833333333333335;"/><line style="stroke:#000000;stroke-width:4.166666666666667;" x1="654.1667" x2="654.1667" y1="25.9481" y2="1276.0457"/><line style="stroke:#000000;stroke-width:4.166666666666667;" x1="1152.0833" x2="1152.0833" y1="25.9481" y2="1276.0457"/><line style="stroke:#A80036;stroke-width:3.125;" x1="470.8333" x2="470.8333" y1="188.09" y2="229.7567"/><polygon fill="#A80036" points="462.5,208.9233,470.8333,229.7567,479.1667,208.9233,470.8333,217.2567" style="stroke:#A80036;stroke-width:2.0833333333333335;"/><line style="stroke:#A80036;stroke-width:3.125;" x1="1077.0833" x2="1097.9167" y1="400.9806" y2="400.9806"/><line style="stroke:#A80036;stroke-width:3.125;" x1="1097.9167" x2="1097.9167" y1="400.9806" y2="467.6473"/><polygon fill="#A80036" points="1089.5833,446.814,1097.9167,467.6473,1106.25,446.814,1097.9167,455.1473" style="stroke:#A80036;stroke-width:2.0833333333333335;"/><line style="stroke:#A80036;stroke-width:3.125;" x1="884.375" x2="884.375" y1="896.0978" y2="937.7645"/><polygon fill="#A80036" points="876.0417,916.9312,884.375,937.7645,892.7083,916.9312,884.375,925.2645" style="stroke:#A80036;stroke-width:2.0833333333333335;"/><line style="stroke:#A80036;stroke-width:3.125;" x1="884.375" x2="884.375" y1="1042.3218" y2="1083.9884"/><polygon fill="#A80036" points="876.0417,1063.1551,884.375,1083.9884,892.7083,1063.1551,884.375,1071.4884" style="stroke:#A80036;stroke-width:2.0833333333333335;"/><line style="stroke:#A80036;stroke-width:3.125;" x1="884.375" x2="884.375" y1="1188.5457" y2="1230.2124"/><polygon fill="#A80036" points="876.0417,1209.3791,884.375,1230.2124,892.7083,1209.3791,884.375,1217.7124" style="stroke:#A80036;stroke-width:2.0833333333333335;"/><line style="stroke:#A80036;stroke-width:3.125;" x1="691.6667" x2="257.2917" y1="400.9806" y2="400.9806"/><line style="stroke:#A80036;stroke-width:3.125;" x1="257.2917" x2="257.2917" y1="400.9806" y2="467.6473"/><polygon fill="#A80036" points="248.9583,446.814,257.2917,467.6473,265.625,446.814,257.2917,455.1473" style="stroke:#A80036;stroke-width:2.0833333333333335;"/><line style="stroke:#A80036;stroke-width:3.125;" x1="257.2917" x2="257.2917" y1="603.6499" y2="614.0666"/><line style="stroke:#A80036;stroke-width:3.125;" x1="257.2917" x2="470.8333" y1="614.0666" y2="614.0666"/><line style="stroke:#A80036;stroke-width:3.125;" x1="470.8333" x2="470.8333" y1="614.0666" y2="645.3166"/><polygon fill="#A80036" points="462.5,624.4832,470.8333,645.3166,479.1667,624.4832,470.8333,632.8166" style="stroke:#A80036;stroke-width:2.0833333333333335;"/><line style="stroke:#A80036;stroke-width:3.125;" x1="470.8333" x2="470.8333" y1="334.314" y2="344.7306"/><line style="stroke:#A80036;stroke-width:3.125;" x1="470.8333" x2="884.375" y1="344.7306" y2="344.7306"/><line style="stroke:#A80036;stroke-width:3.125;" x1="884.375" x2="884.375" y1="344.7306" y2="375.9806"/><polygon fill="#A80036" points="876.0417,355.1473,884.375,375.9806,892.7083,355.1473,884.375,363.4806" style="stroke:#A80036;stroke-width:2.0833333333333335;"/><line style="stroke:#A80036;stroke-width:3.125;" x1="470.8333" x2="470.8333" y1="749.8739" y2="760.2905"/><line style="stroke:#A80036;stroke-width:3.125;" x1="470.8333" x2="884.375" y1="760.2905" y2="760.2905"/><line style="stroke:#A80036;stroke-width:3.125;" x1="884.375" x2="884.375" y1="760.2905" y2="791.5405"/><polygon fill="#A80036" points="876.0417,770.7072,884.375,791.5405,892.7083,770.7072,884.375,779.0405" style="stroke:#A80036;stroke-width:2.0833333333333335;"/><text fill="#000000" font-family="sans-serif" font-size="37.5" lengthAdjust="spacing" textLength="325" x="185.4167" y="64.8763">Quản Trị Hệ Thống</text><text fill="#000000" font-family="sans-serif" font-size="37.5" lengthAdjust="spacing" textLength="166.6667" x="825" y="64.8763">Hệ Thống</text><!--MD5=[8268a83841ce4ac270dce2d634721bda]
@startuml
skinparam dpi 200

|Sys Admin| Quản Trị Hệ Thống

	#lightgreen:Từ màn hình
	<b>Danh sách Nhà Xe</b> >

	:Click vào tab
	<b>Đang khóa</b>;

|System| Hệ Thống
	if (Có nhà xe nào đang khóa không?) is (Có) then
		|Sys Admin|
			:Chọn <b>Các nhà xe muốn mở khóa</b>
			ở cột <b>Checkbox</b>
			phía cuối cùng;

	else (Không)
		|System|
		end
	endif

|Sys Admin|
	:Click nút
	<b>Mở khóa</b>;

|System|

	:Mở khóa tất cả
	<b>Nhà xe được chọn</b>;

	:Cập nhật lại
	danh sách hiển thị;

	:Hiển thị tin nhắn
	<b>Mở khóa thành công</b>;

	stop
@enduml

PlantUML version 1.2021.2(Sun Mar 07 18:10:27 ICT 2021)
(GPL source distribution)
Java Runtime: OpenJDK Runtime Environment
JVM: Eclipse OpenJ9 VM
Default Encoding: UTF-8
Language: en
Country: US
--></g></svg>