<?xml version="1.0" encoding="UTF-8" standalone="no"?><svg xmlns="http://www.w3.org/2000/svg" xmlns:xlink="http://www.w3.org/1999/xlink" contentScriptType="application/ecmascript" contentStyleType="text/css" height="1587.5px" preserveAspectRatio="none" style="width:1277px;height:1587px;" version="1.1" viewBox="0 0 1277 1587" width="1277.0833px" zoomAndPan="magnify"><defs><filter height="300%" id="fhfn1xavz3ju1" width="300%" x="-1" y="-1"><feGaussianBlur result="blurOut" stdDeviation="4.166666666666667"/><feColorMatrix in="blurOut" result="blurOut2" type="matrix" values="0 0 0 0 0 0 0 0 0 0 0 0 0 0 0 0 0 0 .4 0"/><feOffset dx="8.333333333333334" dy="8.333333333333334" in="blurOut2" result="blurOut3"/><feBlend in="SourceGraphic" in2="blurOut3" mode="normal"/></filter></defs><g><polygon fill="#90EE90" filter="url(#fhfn1xavz3ju1)" points="262.5,83.5327,597.9167,83.5327,618.75,135.8114,597.9167,188.09,262.5,188.09" style="stroke:#A80036;stroke-width:3.125;"/><text fill="#000000" font-family="sans-serif" font-size="25" lengthAdjust="spacing" textLength="145.8333" x="283.3333" y="130.3182">Từ màn hình</text><text fill="#000000" font-family="sans-serif" font-size="25" font-weight="bold" lengthAdjust="spacing" textLength="287.5" x="283.3333" y="161.7635">Danh sách Nhân Viên Xe</text><text fill="#000000" font-family="sans-serif" font-size="25" lengthAdjust="spacing" textLength="0" x="577.0833" y="161.7635"/><rect fill="#FEFECE" filter="url(#fhfn1xavz3ju1)" height="104.5573" rx="26.0417" ry="26.0417" style="stroke:#A80036;stroke-width:3.125;" width="185.4167" x="337.5" y="229.7567"/><text fill="#000000" font-family="sans-serif" font-size="25" lengthAdjust="spacing" textLength="143.75" x="358.3333" y="276.5422">Click vào tab</text><text fill="#000000" font-family="sans-serif" font-size="25" font-weight="bold" lengthAdjust="spacing" textLength="127.0833" x="358.3333" y="307.9875">Đang khóa</text><rect fill="#FEFECE" filter="url(#fhfn1xavz3ju1)" height="136.0026" rx="26.0417" ry="26.0417" style="stroke:#A80036;stroke-width:3.125;" width="466.6667" x="43.75" y="475.297"/><text fill="#000000" font-family="sans-serif" font-size="25" lengthAdjust="spacing" textLength="62.5" x="64.5833" y="522.0825">Chọn</text><text fill="#000000" font-family="sans-serif" font-size="25" font-weight="bold" lengthAdjust="spacing" textLength="356.25" x="133.3333" y="522.0825">Các Nhân Viên muốn mở khóa</text><text fill="#000000" font-family="sans-serif" font-size="25" lengthAdjust="spacing" textLength="56.25" x="64.5833" y="553.5278">ở cột</text><text fill="#000000" font-family="sans-serif" font-size="25" font-weight="bold" lengthAdjust="spacing" textLength="118.75" x="127.0833" y="553.5278">Checkbox</text><text fill="#000000" font-family="sans-serif" font-size="25" lengthAdjust="spacing" textLength="166.6667" x="64.5833" y="584.9731">phía cuối cùng</text><rect fill="#FEFECE" filter="url(#fhfn1xavz3ju1)" height="104.5573" rx="26.0417" ry="26.0417" style="stroke:#A80036;stroke-width:3.125;" width="145.8333" x="357.2917" y="652.9663"/><text fill="#000000" font-family="sans-serif" font-size="25" lengthAdjust="spacing" textLength="97.9167" x="378.125" y="699.7518">Click nút</text><text fill="#000000" font-family="sans-serif" font-size="25" font-weight="bold" lengthAdjust="spacing" textLength="104.1667" x="378.125" y="731.1971">Mở khóa</text><rect fill="#FEFECE" filter="url(#fhfn1xavz3ju1)" height="104.5573" rx="26.0417" ry="26.0417" style="stroke:#A80036;stroke-width:3.125;" width="470.8333" x="194.7917" y="799.1903"/><text fill="#000000" font-family="sans-serif" font-size="25" lengthAdjust="spacing" textLength="222.9167" x="215.625" y="845.9757">Hiện yes/no pop-up</text><text fill="#000000" font-family="sans-serif" font-size="25" font-weight="bold" lengthAdjust="spacing" textLength="429.1667" x="215.625" y="877.4211">Bạn chắc chắn muốn mở khóa chứ?</text><polygon fill="#FEFECE" filter="url(#fhfn1xavz3ju1)" points="351.0417,945.4142,509.375,945.4142,534.375,970.4142,509.375,995.4142,351.0417,995.4142,326.0417,970.4142,351.0417,945.4142" style="stroke:#A80036;stroke-width:3.125;"/><text fill="#000000" font-family="sans-serif" font-size="22.9167" lengthAdjust="spacing" textLength="158.3333" x="351.0417" y="979.7913">Click hoặc chọn</text><text fill="#000000" font-family="sans-serif" font-size="22.9167" lengthAdjust="spacing" textLength="52.0833" x="273.9583" y="965.3788">Khác</text><text fill="#000000" font-family="sans-serif" font-size="22.9167" lengthAdjust="spacing" textLength="31.25" x="534.375" y="965.3788">nút</text><text fill="#000000" font-family="sans-serif" font-size="22.9167" font-weight="bold" lengthAdjust="spacing" textLength="79.1667" x="571.875" y="965.3788">Đồng ý</text><line style="stroke:#000000;stroke-width:4.166666666666667;" x1="31.25" x2="31.25" y1="25.9481" y2="1552.8361"/><polygon fill="#FEFECE" filter="url(#fhfn1xavz3ju1)" points="813.5417,375.9806,1028.125,375.9806,1053.125,404.8055,1028.125,433.6304,813.5417,433.6304,788.5417,404.8055,813.5417,375.9806" style="stroke:#A80036;stroke-width:3.125;"/><text fill="#000000" font-family="sans-serif" font-size="22.9167" lengthAdjust="spacing" textLength="214.5833" x="813.5417" y="399.7701">Có Nhân Viên Xe nào</text><text fill="#000000" font-family="sans-serif" font-size="22.9167" lengthAdjust="spacing" textLength="206.25" x="813.5417" y="428.595">đang bị khóa không?</text><text fill="#000000" font-family="sans-serif" font-size="22.9167" lengthAdjust="spacing" textLength="27.0833" x="761.4583" y="399.7701">Có</text><text fill="#000000" font-family="sans-serif" font-size="22.9167" lengthAdjust="spacing" textLength="64.5833" x="1053.125" y="399.7701">Không</text><ellipse cx="1073.9583" cy="496.1304" fill="#FFFFFF" filter="url(#fhfn1xavz3ju1)" rx="20.8333" ry="20.8333" style="stroke:#000000;stroke-width:3.125;"/><line style="stroke:#000000;stroke-width:5.208333333333334;" x1="1061.0684" x2="1086.8483" y1="483.2404" y2="509.0203"/><line style="stroke:#000000;stroke-width:5.208333333333334;" x1="1086.8483" x2="1061.0684" y1="483.2404" y2="509.0203"/><rect fill="#FEFECE" filter="url(#fhfn1xavz3ju1)" height="73.112" rx="26.0417" ry="26.0417" style="stroke:#A80036;stroke-width:3.125;" width="164.5833" x="698.9583" y="1037.0809"/><text fill="#000000" font-family="sans-serif" font-size="25" lengthAdjust="spacing" textLength="122.9167" x="719.7917" y="1083.8664">Tắt pop-up</text><ellipse cx="781.25" cy="1203.9429" fill="#FFFFFF" filter="url(#fhfn1xavz3ju1)" rx="20.8333" ry="20.8333" style="stroke:#000000;stroke-width:3.125;"/><line style="stroke:#000000;stroke-width:5.208333333333334;" x1="768.36" x2="794.14" y1="1191.0529" y2="1216.8328"/><line style="stroke:#000000;stroke-width:5.208333333333334;" x1="794.14" x2="768.36" y1="1191.0529" y2="1216.8328"/><rect fill="#FEFECE" filter="url(#fhfn1xavz3ju1)" height="104.5573" rx="26.0417" ry="26.0417" style="stroke:#A80036;stroke-width:3.125;" width="310.4167" x="905.2083" y="1037.0809"/><text fill="#000000" font-family="sans-serif" font-size="25" lengthAdjust="spacing" textLength="268.75" x="926.0417" y="1083.8664">Mở khóa các Nhân Viên</text><text fill="#000000" font-family="sans-serif" font-size="25" lengthAdjust="spacing" textLength="122.9167" x="926.0417" y="1115.3117">được chọn</text><rect fill="#FEFECE" filter="url(#fhfn1xavz3ju1)" height="104.5573" rx="26.0417" ry="26.0417" style="stroke:#A80036;stroke-width:3.125;" width="258.3333" x="931.25" y="1214.5549"/><text fill="#000000" font-family="sans-serif" font-size="25" lengthAdjust="spacing" textLength="137.5" x="952.0833" y="1261.3403">Cập nhật lại</text><text fill="#000000" font-family="sans-serif" font-size="25" font-weight="bold" lengthAdjust="spacing" textLength="216.6667" x="952.0833" y="1292.7856">Danh sách hiển thị</text><rect fill="#FEFECE" filter="url(#fhfn1xavz3ju1)" height="104.5573" rx="26.0417" ry="26.0417" style="stroke:#A80036;stroke-width:3.125;" width="329.1667" x="756.25" y="1360.7788"/><text fill="#000000" font-family="sans-serif" font-size="25" lengthAdjust="spacing" textLength="237.5" x="777.0833" y="1407.5643">Chuyển tới màn hình</text><text fill="#000000" font-family="sans-serif" font-size="25" font-weight="bold" lengthAdjust="spacing" textLength="287.5" x="777.0833" y="1439.0096">Danh sách Nhân Viên Xe</text><ellipse cx="920.8333" cy="1529.9194" fill="#FFFFFF" filter="url(#fhfn1xavz3ju1)" rx="22.9167" ry="22.9167" style="stroke:#000000;stroke-width:2.0833333333333335;"/><ellipse cx="920.8333" cy="1529.9194" fill="#000000" rx="12.5" ry="12.5" style="stroke:#7F7F7F;stroke-width:2.0833333333333335;"/><line style="stroke:#000000;stroke-width:4.166666666666667;" x1="686.4583" x2="686.4583" y1="25.9481" y2="1552.8361"/><line style="stroke:#000000;stroke-width:4.166666666666667;" x1="1236.4583" x2="1236.4583" y1="25.9481" y2="1552.8361"/><line style="stroke:#A80036;stroke-width:3.125;" x1="430.2083" x2="430.2083" y1="188.09" y2="229.7567"/><polygon fill="#A80036" points="421.875,208.9233,430.2083,229.7567,438.5417,208.9233,430.2083,217.2567" style="stroke:#A80036;stroke-width:2.0833333333333335;"/><line style="stroke:#A80036;stroke-width:3.125;" x1="430.2083" x2="430.2083" y1="757.5236" y2="799.1903"/><polygon fill="#A80036" points="421.875,778.3569,430.2083,799.1903,438.5417,778.3569,430.2083,786.6903" style="stroke:#A80036;stroke-width:2.0833333333333335;"/><line style="stroke:#A80036;stroke-width:3.125;" x1="430.2083" x2="430.2083" y1="903.7476" y2="945.4142"/><polygon fill="#A80036" points="421.875,924.5809,430.2083,945.4142,438.5417,924.5809,430.2083,932.9142" style="stroke:#A80036;stroke-width:2.0833333333333335;"/><line style="stroke:#A80036;stroke-width:3.125;" x1="1053.125" x2="1073.9583" y1="404.8055" y2="404.8055"/><line style="stroke:#A80036;stroke-width:3.125;" x1="1073.9583" x2="1073.9583" y1="404.8055" y2="475.297"/><polygon fill="#A80036" points="1065.625,454.4637,1073.9583,475.297,1082.2917,454.4637,1073.9583,462.797" style="stroke:#A80036;stroke-width:2.0833333333333335;"/><line style="stroke:#A80036;stroke-width:3.125;" x1="781.25" x2="781.25" y1="1110.1929" y2="1183.1095"/><polygon fill="#A80036" points="772.9167,1162.2762,781.25,1183.1095,789.5833,1162.2762,781.25,1170.6095" style="stroke:#A80036;stroke-width:2.0833333333333335;"/><line style="stroke:#A80036;stroke-width:3.125;" x1="1060.4167" x2="1060.4167" y1="1141.6382" y2="1214.5549"/><polygon fill="#A80036" points="1052.0833,1193.7215,1060.4167,1214.5549,1068.75,1193.7215,1060.4167,1202.0549" style="stroke:#A80036;stroke-width:2.0833333333333335;"/><line style="stroke:#A80036;stroke-width:3.125;" x1="920.8333" x2="920.8333" y1="1465.3361" y2="1507.0028"/><polygon fill="#A80036" points="912.5,1486.1694,920.8333,1507.0028,929.1667,1486.1694,920.8333,1494.5028" style="stroke:#A80036;stroke-width:2.0833333333333335;"/><line style="stroke:#A80036;stroke-width:3.125;" x1="788.5417" x2="277.0833" y1="404.8055" y2="404.8055"/><line style="stroke:#A80036;stroke-width:3.125;" x1="277.0833" x2="277.0833" y1="404.8055" y2="475.297"/><polygon fill="#A80036" points="268.75,454.4637,277.0833,475.297,285.4167,454.4637,277.0833,462.797" style="stroke:#A80036;stroke-width:2.0833333333333335;"/><line style="stroke:#A80036;stroke-width:3.125;" x1="277.0833" x2="277.0833" y1="611.2996" y2="621.7163"/><line style="stroke:#A80036;stroke-width:3.125;" x1="277.0833" x2="430.2083" y1="621.7163" y2="621.7163"/><line style="stroke:#A80036;stroke-width:3.125;" x1="430.2083" x2="430.2083" y1="621.7163" y2="652.9663"/><polygon fill="#A80036" points="421.875,632.133,430.2083,652.9663,438.5417,632.133,430.2083,640.4663" style="stroke:#A80036;stroke-width:2.0833333333333335;"/><line style="stroke:#A80036;stroke-width:3.125;" x1="430.2083" x2="430.2083" y1="334.314" y2="344.7306"/><line style="stroke:#A80036;stroke-width:3.125;" x1="430.2083" x2="920.8333" y1="344.7306" y2="344.7306"/><line style="stroke:#A80036;stroke-width:3.125;" x1="920.8333" x2="920.8333" y1="344.7306" y2="375.9806"/><polygon fill="#A80036" points="912.5,355.1473,920.8333,375.9806,929.1667,355.1473,920.8333,363.4806" style="stroke:#A80036;stroke-width:2.0833333333333335;"/><line style="stroke:#A80036;stroke-width:3.125;" x1="326.0417" x2="301.0417" y1="970.4142" y2="970.4142"/><line style="stroke:#A80036;stroke-width:3.125;" x1="301.0417" x2="301.0417" y1="970.4142" y2="1007.9142"/><line style="stroke:#A80036;stroke-width:3.125;" x1="301.0417" x2="781.25" y1="1007.9142" y2="1007.9142"/><line style="stroke:#A80036;stroke-width:3.125;" x1="781.25" x2="781.25" y1="1007.9142" y2="1037.0809"/><polygon fill="#A80036" points="772.9167,1016.2476,781.25,1037.0809,789.5833,1016.2476,781.25,1024.5809" style="stroke:#A80036;stroke-width:2.0833333333333335;"/><line style="stroke:#A80036;stroke-width:3.125;" x1="534.375" x2="1060.4167" y1="970.4142" y2="970.4142"/><line style="stroke:#A80036;stroke-width:3.125;" x1="1060.4167" x2="1060.4167" y1="970.4142" y2="1037.0809"/><polygon fill="#A80036" points="1052.0833,1016.2476,1060.4167,1037.0809,1068.75,1016.2476,1060.4167,1024.5809" style="stroke:#A80036;stroke-width:2.0833333333333335;"/><line style="stroke:#A80036;stroke-width:3.125;" x1="1060.4167" x2="1060.4167" y1="1319.1121" y2="1329.5288"/><line style="stroke:#A80036;stroke-width:3.125;" x1="1060.4167" x2="920.8333" y1="1329.5288" y2="1329.5288"/><line style="stroke:#A80036;stroke-width:3.125;" x1="920.8333" x2="920.8333" y1="1329.5288" y2="1360.7788"/><polygon fill="#A80036" points="912.5,1339.9455,920.8333,1360.7788,929.1667,1339.9455,920.8333,1348.2788" style="stroke:#A80036;stroke-width:2.0833333333333335;"/><text fill="#000000" font-family="sans-serif" font-size="37.5" lengthAdjust="spacing" textLength="281.25" x="223.4375" y="64.8763">Quản Trị Nhà Xe</text><text fill="#000000" font-family="sans-serif" font-size="37.5" lengthAdjust="spacing" textLength="152.0833" x="890.625" y="64.8763">Hệ thống</text><!--MD5=[8ce8db534e475d690c760f17110d3c84]
@startuml
skinparam dpi 200

|Buss Admin| Quản Trị Nhà Xe
	#lightgreen:Từ màn hình
	<b>Danh sách Nhân Viên Xe</b> >

	:Click vào tab
	<b>Đang khóa</b>;

|System| Hệ thống
	if (Có Nhân Viên Xe nào\nđang bị khóa không?) is (Có) then
		|Buss Admin|
			:Chọn <b>Các Nhân Viên muốn mở khóa</b>
			ở cột <b>Checkbox</b>
			phía cuối cùng;
	else (Không)
		|System|
		end
	endif


|Buss Admin|
	:Click nút
	<b>Mở khóa</b>;

	:Hiện yes/no pop-up
	<b>Bạn chắc chắn muốn mở khóa chứ?</b>;


	if (Click hoặc chọn) is (Khác) then
		|System|
		:Tắt pop-up;
		end
	else (nút <b>Đồng ý</b>)
		|System|
			:Mở khóa các Nhân Viên
			được chọn;

			:Cập nhật lại
			<b>Danh sách hiển thị</b>;
	endif

	:Chuyển tới màn hình
	<b>Danh sách Nhân Viên Xe</b>;

	stop
@enduml

PlantUML version 1.2021.2(Sun Mar 07 18:10:27 ICT 2021)
(GPL source distribution)
Java Runtime: OpenJDK Runtime Environment
JVM: Eclipse OpenJ9 VM
Default Encoding: UTF-8
Language: en
Country: US
--></g></svg>