<?xml version="1.0" encoding="UTF-8" standalone="no"?><svg xmlns="http://www.w3.org/2000/svg" xmlns:xlink="http://www.w3.org/1999/xlink" contentScriptType="application/ecmascript" contentStyleType="text/css" height="1202.0833px" preserveAspectRatio="none" style="width:1329px;height:1202px;" version="1.1" viewBox="0 0 1329 1202" width="1329.1667px" zoomAndPan="magnify"><defs><filter height="300%" id="f1k111gtwhyyf9" width="300%" x="-1" y="-1"><feGaussianBlur result="blurOut" stdDeviation="4.166666666666667"/><feColorMatrix in="blurOut" result="blurOut2" type="matrix" values="0 0 0 0 0 0 0 0 0 0 0 0 0 0 0 0 0 0 .4 0"/><feOffset dx="8.333333333333334" dy="8.333333333333334" in="blurOut2" result="blurOut3"/><feBlend in="SourceGraphic" in2="blurOut3" mode="normal"/></filter></defs><g><polygon fill="#90EE90" filter="url(#f1k111gtwhyyf9)" points="62.5,83.5327,383.3333,83.5327,404.1667,120.0887,383.3333,156.6447,62.5,156.6447" style="stroke:#A80036;stroke-width:3.125;"/><text fill="#000000" font-family="sans-serif" font-size="25" lengthAdjust="spacing" textLength="52.0833" x="83.3333" y="130.3182">from</text><text fill="#000000" font-family="sans-serif" font-size="25" font-weight="bold" lengthAdjust="spacing" textLength="168.75" x="141.6667" y="130.3182">List of Busses</text><text fill="#000000" font-family="sans-serif" font-size="25" lengthAdjust="spacing" textLength="45.8333" x="316.6667" y="130.3182">flow</text><rect fill="#FEFECE" filter="url(#f1k111gtwhyyf9)" height="73.112" rx="26.0417" ry="26.0417" style="stroke:#A80036;stroke-width:3.125;" width="268.75" x="88.5417" y="198.3114"/><text fill="#000000" font-family="sans-serif" font-size="25" lengthAdjust="spacing" textLength="85.4167" x="109.375" y="245.0968">click on</text><text fill="#000000" font-family="sans-serif" font-size="25" font-weight="bold" lengthAdjust="spacing" textLength="93.75" x="201.0417" y="245.0968">Locking</text><text fill="#000000" font-family="sans-serif" font-size="25" lengthAdjust="spacing" textLength="35.4167" x="301.0417" y="245.0968">tab</text><rect fill="#FEFECE" filter="url(#f1k111gtwhyyf9)" height="73.112" rx="26.0417" ry="26.0417" style="stroke:#A80036;stroke-width:3.125;" width="256.25" x="94.7917" y="530.1473"/><text fill="#000000" font-family="sans-serif" font-size="25" lengthAdjust="spacing" textLength="50" x="115.625" y="576.9328">click</text><text fill="#FF0000" font-family="sans-serif" font-size="25" font-weight="bold" lengthAdjust="spacing" textLength="81.25" x="171.875" y="576.9328">Unlock</text><text fill="#000000" font-family="sans-serif" font-size="25" lengthAdjust="spacing" textLength="70.8333" x="259.375" y="576.9328">button</text><line style="stroke:#000000;stroke-width:4.166666666666667;" x1="31.25" x2="31.25" y1="25.9481" y2="1168.4285"/><polygon fill="#FEFECE" filter="url(#f1k111gtwhyyf9)" points="790.625,313.09,1015.625,313.09,1040.625,338.09,1015.625,363.09,790.625,363.09,765.625,338.09,790.625,313.09" style="stroke:#A80036;stroke-width:3.125;"/><text fill="#000000" font-family="sans-serif" font-size="22.9167" lengthAdjust="spacing" textLength="225" x="790.625" y="347.467">has any locking buss?</text><text fill="#000000" font-family="sans-serif" font-size="22.9167" lengthAdjust="spacing" textLength="25" x="740.625" y="333.0546">no</text><text fill="#000000" font-family="sans-serif" font-size="22.9167" lengthAdjust="spacing" textLength="37.5" x="1040.625" y="333.0546">yes</text><ellipse cx="744.7917" cy="404.7567" fill="#FFFFFF" filter="url(#f1k111gtwhyyf9)" rx="20.8333" ry="20.8333" style="stroke:#000000;stroke-width:3.125;"/><line style="stroke:#000000;stroke-width:5.208333333333334;" x1="731.9017" x2="757.6816" y1="391.8667" y2="417.6466"/><line style="stroke:#000000;stroke-width:5.208333333333334;" x1="757.6816" x2="731.9017" y1="391.8667" y2="417.6466"/><rect fill="#FEFECE" filter="url(#f1k111gtwhyyf9)" height="104.5573" rx="26.0417" ry="26.0417" style="stroke:#A80036;stroke-width:3.125;" width="372.9167" x="875" y="383.9233"/><text fill="#000000" font-family="sans-serif" font-size="25" lengthAdjust="spacing" textLength="68.75" x="895.8333" y="430.7088">select</text><text fill="#000000" font-family="sans-serif" font-size="25" font-weight="bold" lengthAdjust="spacing" textLength="87.5" x="970.8333" y="430.7088">busses</text><text fill="#000000" font-family="sans-serif" font-size="25" lengthAdjust="spacing" textLength="162.5" x="1064.5833" y="430.7088">want to unlock</text><text fill="#000000" font-family="sans-serif" font-size="25" lengthAdjust="spacing" textLength="29.1667" x="945.8333" y="462.1541">on</text><text fill="#FF0000" font-family="sans-serif" font-size="25" font-weight="bold" lengthAdjust="spacing" textLength="152.0833" x="981.25" y="462.1541">check boxes</text><text fill="#000000" font-family="sans-serif" font-size="25" lengthAdjust="spacing" textLength="85.4167" x="1139.5833" y="462.1541">column</text><polygon fill="#FEFECE" filter="url(#f1k111gtwhyyf9)" points="868.75,644.9259,937.5,644.9259,962.5,669.9259,937.5,694.9259,868.75,694.9259,843.75,669.9259,868.75,644.9259" style="stroke:#A80036;stroke-width:3.125;"/><text fill="#000000" font-family="sans-serif" font-size="22.9167" lengthAdjust="spacing" textLength="68.75" x="868.75" y="679.303">is valid</text><text fill="#000000" font-family="sans-serif" font-size="22.9167" lengthAdjust="spacing" textLength="37.5" x="806.25" y="664.8905">yes</text><text fill="#000000" font-family="sans-serif" font-size="22.9167" lengthAdjust="spacing" textLength="25" x="962.5" y="664.8905">no</text><rect fill="#FEFECE" filter="url(#f1k111gtwhyyf9)" height="73.112" rx="26.0417" ry="26.0417" style="stroke:#A80036;stroke-width:3.125;" width="347.9167" x="513.5417" y="715.7593"/><text fill="#000000" font-family="sans-serif" font-size="25" lengthAdjust="spacing" textLength="306.25" x="534.375" y="762.5448">unlock all selected busses</text><rect fill="#FEFECE" filter="url(#f1k111gtwhyyf9)" height="73.112" rx="26.0417" ry="26.0417" style="stroke:#A80036;stroke-width:3.125;" width="479.1667" x="447.9167" y="830.5379"/><text fill="#000000" font-family="sans-serif" font-size="25" lengthAdjust="spacing" textLength="295.8333" x="468.75" y="877.3234">move those busses out of</text><text fill="#000000" font-family="sans-serif" font-size="25" font-weight="bold" lengthAdjust="spacing" textLength="93.75" x="770.8333" y="877.3234">Locking</text><text fill="#000000" font-family="sans-serif" font-size="25" lengthAdjust="spacing" textLength="35.4167" x="870.8333" y="877.3234">tab</text><rect fill="#FEFECE" filter="url(#f1k111gtwhyyf9)" height="73.112" rx="26.0417" ry="26.0417" style="stroke:#A80036;stroke-width:3.125;" width="439.5833" x="467.7083" y="945.3166"/><text fill="#000000" font-family="sans-serif" font-size="25" lengthAdjust="spacing" textLength="397.9167" x="488.5417" y="992.1021">display lock successfully message</text><rect fill="#FEFECE" filter="url(#f1k111gtwhyyf9)" height="73.112" rx="26.0417" ry="26.0417" style="stroke:#A80036;stroke-width:3.125;" width="300" x="968.75" y="715.7593"/><text fill="#000000" font-family="sans-serif" font-size="25" lengthAdjust="spacing" textLength="258.3333" x="989.5833" y="762.5448">display error message</text><polygon fill="#FEFECE" filter="url(#f1k111gtwhyyf9)" points="903.125,1030.9285,928.125,1055.9285,903.125,1080.9285,878.125,1055.9285,903.125,1030.9285" style="stroke:#A80036;stroke-width:3.125;"/><ellipse cx="903.125" cy="1145.5119" fill="#FFFFFF" filter="url(#f1k111gtwhyyf9)" rx="22.9167" ry="22.9167" style="stroke:#000000;stroke-width:2.0833333333333335;"/><ellipse cx="903.125" cy="1145.5119" fill="#000000" rx="12.5" ry="12.5" style="stroke:#7F7F7F;stroke-width:2.0833333333333335;"/><line style="stroke:#000000;stroke-width:4.166666666666667;" x1="435.4167" x2="435.4167" y1="25.9481" y2="1168.4285"/><line style="stroke:#000000;stroke-width:4.166666666666667;" x1="1289.5833" x2="1289.5833" y1="25.9481" y2="1168.4285"/><line style="stroke:#A80036;stroke-width:3.125;" x1="222.9167" x2="222.9167" y1="156.6447" y2="198.3114"/><polygon fill="#A80036" points="214.5833,177.478,222.9167,198.3114,231.25,177.478,222.9167,185.8114" style="stroke:#A80036;stroke-width:2.0833333333333335;"/><line style="stroke:#A80036;stroke-width:3.125;" x1="765.625" x2="744.7917" y1="338.09" y2="338.09"/><line style="stroke:#A80036;stroke-width:3.125;" x1="744.7917" x2="744.7917" y1="338.09" y2="383.9233"/><polygon fill="#A80036" points="736.4583,363.09,744.7917,383.9233,753.125,363.09,744.7917,371.4233" style="stroke:#A80036;stroke-width:2.0833333333333335;"/><line style="stroke:#A80036;stroke-width:3.125;" x1="1040.625" x2="1061.4583" y1="338.09" y2="338.09"/><line style="stroke:#A80036;stroke-width:3.125;" x1="1061.4583" x2="1061.4583" y1="338.09" y2="383.9233"/><polygon fill="#A80036" points="1053.125,363.09,1061.4583,383.9233,1069.7917,363.09,1061.4583,371.4233" style="stroke:#A80036;stroke-width:2.0833333333333335;"/><line style="stroke:#A80036;stroke-width:3.125;" x1="1061.4583" x2="1061.4583" y1="488.4806" y2="498.8973"/><line style="stroke:#A80036;stroke-width:3.125;" x1="1061.4583" x2="222.9167" y1="498.8973" y2="498.8973"/><line style="stroke:#A80036;stroke-width:3.125;" x1="222.9167" x2="222.9167" y1="498.8973" y2="530.1473"/><polygon fill="#A80036" points="214.5833,509.314,222.9167,530.1473,231.25,509.314,222.9167,517.6473" style="stroke:#A80036;stroke-width:2.0833333333333335;"/><line style="stroke:#A80036;stroke-width:3.125;" x1="687.5" x2="687.5" y1="788.8713" y2="830.5379"/><polygon fill="#A80036" points="679.1667,809.7046,687.5,830.5379,695.8333,809.7046,687.5,818.0379" style="stroke:#A80036;stroke-width:2.0833333333333335;"/><line style="stroke:#A80036;stroke-width:3.125;" x1="687.5" x2="687.5" y1="903.6499" y2="945.3166"/><polygon fill="#A80036" points="679.1667,924.4832,687.5,945.3166,695.8333,924.4832,687.5,932.8166" style="stroke:#A80036;stroke-width:2.0833333333333335;"/><line style="stroke:#A80036;stroke-width:3.125;" x1="843.75" x2="687.5" y1="669.9259" y2="669.9259"/><line style="stroke:#A80036;stroke-width:3.125;" x1="687.5" x2="687.5" y1="669.9259" y2="715.7593"/><polygon fill="#A80036" points="679.1667,694.9259,687.5,715.7593,695.8333,694.9259,687.5,703.2593" style="stroke:#A80036;stroke-width:2.0833333333333335;"/><line style="stroke:#A80036;stroke-width:3.125;" x1="962.5" x2="1118.75" y1="669.9259" y2="669.9259"/><line style="stroke:#A80036;stroke-width:3.125;" x1="1118.75" x2="1118.75" y1="669.9259" y2="715.7593"/><polygon fill="#A80036" points="1110.4167,694.9259,1118.75,715.7593,1127.0833,694.9259,1118.75,703.2593" style="stroke:#A80036;stroke-width:2.0833333333333335;"/><line style="stroke:#A80036;stroke-width:3.125;" x1="687.5" x2="687.5" y1="1018.4285" y2="1055.9285"/><line style="stroke:#A80036;stroke-width:3.125;" x1="687.5" x2="878.125" y1="1055.9285" y2="1055.9285"/><polygon fill="#A80036" points="857.2917,1047.5952,878.125,1055.9285,857.2917,1064.2619,865.625,1055.9285" style="stroke:#A80036;stroke-width:2.0833333333333335;"/><line style="stroke:#A80036;stroke-width:3.125;" x1="1118.75" x2="1118.75" y1="788.8713" y2="1055.9285"/><line style="stroke:#A80036;stroke-width:3.125;" x1="1118.75" x2="928.125" y1="1055.9285" y2="1055.9285"/><polygon fill="#A80036" points="948.9583,1047.5952,928.125,1055.9285,948.9583,1064.2619,940.625,1055.9285" style="stroke:#A80036;stroke-width:2.0833333333333335;"/><line style="stroke:#A80036;stroke-width:3.125;" x1="903.125" x2="903.125" y1="1080.9285" y2="1122.5952"/><polygon fill="#A80036" points="894.7917,1101.7619,903.125,1122.5952,911.4583,1101.7619,903.125,1110.0952" style="stroke:#A80036;stroke-width:2.0833333333333335;"/><line style="stroke:#A80036;stroke-width:3.125;" x1="222.9167" x2="222.9167" y1="271.4233" y2="281.84"/><line style="stroke:#A80036;stroke-width:3.125;" x1="222.9167" x2="903.125" y1="281.84" y2="281.84"/><line style="stroke:#A80036;stroke-width:3.125;" x1="903.125" x2="903.125" y1="281.84" y2="313.09"/><polygon fill="#A80036" points="894.7917,292.2567,903.125,313.09,911.4583,292.2567,903.125,300.59" style="stroke:#A80036;stroke-width:2.0833333333333335;"/><line style="stroke:#A80036;stroke-width:3.125;" x1="222.9167" x2="222.9167" y1="603.2593" y2="613.6759"/><line style="stroke:#A80036;stroke-width:3.125;" x1="222.9167" x2="903.125" y1="613.6759" y2="613.6759"/><line style="stroke:#A80036;stroke-width:3.125;" x1="903.125" x2="903.125" y1="613.6759" y2="644.9259"/><polygon fill="#A80036" points="894.7917,624.0926,903.125,644.9259,911.4583,624.0926,903.125,632.4259" style="stroke:#A80036;stroke-width:2.0833333333333335;"/><text fill="#000000" font-family="sans-serif" font-size="37.5" lengthAdjust="spacing" textLength="195.8333" x="135.4167" y="64.8763">Buss Admin</text><text fill="#000000" font-family="sans-serif" font-size="37.5" lengthAdjust="spacing" textLength="122.9167" x="801.0417" y="64.8763">System</text><!--MD5=[9e58c41af4da70c91dae19e88f660c26]
@startuml
skinparam dpi 200

|Buss Admin|
#lightgreen:from <b>List of Busses</b> flow>
:click on <b>Locking</b> tab;
|System|
if (has any locking buss?) is (no) then
	end
else (yes)
	:select <b>busses</b> want to unlock
		on <b><color:red>check boxes</color></b> column;
endif

|Buss Admin|
:click <b><color:red>Unlock</color></b> button;

|System|
if (is valid) then (yes)
	:unlock all selected busses;
	:move those busses out of <b>Locking</b> tab;
	:display lock successfully message;
else (no)
	:display error message;
endif
stop
@enduml

PlantUML version 1.2021.2(Sun Mar 07 18:10:27 ICT 2021)
(GPL source distribution)
Java Runtime: OpenJDK Runtime Environment
JVM: Eclipse OpenJ9 VM
Default Encoding: UTF-8
Language: en
Country: US
--></g></svg>