<?xml version="1.0" encoding="UTF-8" standalone="no"?><svg xmlns="http://www.w3.org/2000/svg" xmlns:xlink="http://www.w3.org/1999/xlink" contentScriptType="application/ecmascript" contentStyleType="text/css" height="1847.9167px" preserveAspectRatio="none" style="width:1114px;height:1847px;" version="1.1" viewBox="0 0 1114 1847" width="1114.5833px" zoomAndPan="magnify"><defs><filter height="300%" id="f1c9mzi9gjpd2n" width="300%" x="-1" y="-1"><feGaussianBlur result="blurOut" stdDeviation="4.166666666666667"/><feColorMatrix in="blurOut" result="blurOut2" type="matrix" values="0 0 0 0 0 0 0 0 0 0 0 0 0 0 0 0 0 0 .4 0"/><feOffset dx="8.333333333333334" dy="8.333333333333334" in="blurOut2" result="blurOut3"/><feBlend in="SourceGraphic" in2="blurOut3" mode="normal"/></filter></defs><g><polygon fill="#90EE90" filter="url(#f1c9mzi9gjpd2n)" points="332.2917,83.5327,542.7083,83.5327,563.5417,135.8114,542.7083,188.09,332.2917,188.09" style="stroke:#A80036;stroke-width:3.125;"/><text fill="#000000" font-family="sans-serif" font-size="25" lengthAdjust="spacing" textLength="145.8333" x="353.125" y="130.3182">Từ màn hình</text><text fill="#000000" font-family="sans-serif" font-size="25" font-weight="bold" lengthAdjust="spacing" textLength="162.5" x="353.125" y="161.7635">Danh sách Xe</text><text fill="#000000" font-family="sans-serif" font-size="25" lengthAdjust="spacing" textLength="0" x="521.875" y="161.7635"/><rect fill="#FEFECE" filter="url(#f1c9mzi9gjpd2n)" height="104.5573" rx="26.0417" ry="26.0417" style="stroke:#A80036;stroke-width:3.125;" width="185.4167" x="344.7917" y="229.7567"/><text fill="#000000" font-family="sans-serif" font-size="25" lengthAdjust="spacing" textLength="143.75" x="365.625" y="276.5422">Click vào tab</text><text fill="#000000" font-family="sans-serif" font-size="25" font-weight="bold" lengthAdjust="spacing" textLength="127.0833" x="365.625" y="307.9875">Đang khóa</text><rect fill="#FEFECE" filter="url(#f1c9mzi9gjpd2n)" height="136.0026" rx="26.0417" ry="26.0417" style="stroke:#A80036;stroke-width:3.125;" width="379.1667" x="43.75" y="467.6473"/><text fill="#000000" font-family="sans-serif" font-size="25" lengthAdjust="spacing" textLength="62.5" x="64.5833" y="514.4328">Chọn</text><text fill="#000000" font-family="sans-serif" font-size="25" font-weight="bold" lengthAdjust="spacing" textLength="268.75" x="133.3333" y="514.4328">Các Xe muốn mở khóa</text><text fill="#000000" font-family="sans-serif" font-size="25" lengthAdjust="spacing" textLength="56.25" x="64.5833" y="545.8781">ở cột</text><text fill="#000000" font-family="sans-serif" font-size="25" font-weight="bold" lengthAdjust="spacing" textLength="118.75" x="127.0833" y="545.8781">Checkbox</text><text fill="#000000" font-family="sans-serif" font-size="25" lengthAdjust="spacing" textLength="166.6667" x="64.5833" y="577.3234">phía cuối cùng</text><rect fill="#FEFECE" filter="url(#f1c9mzi9gjpd2n)" height="104.5573" rx="26.0417" ry="26.0417" style="stroke:#A80036;stroke-width:3.125;" width="145.8333" x="364.5833" y="645.3166"/><text fill="#000000" font-family="sans-serif" font-size="25" lengthAdjust="spacing" textLength="97.9167" x="385.4167" y="692.1021">Click nút</text><text fill="#000000" font-family="sans-serif" font-size="25" font-weight="bold" lengthAdjust="spacing" textLength="104.1667" x="385.4167" y="723.5474">Mở khóa</text><line style="stroke:#000000;stroke-width:4.166666666666667;" x1="31.25" x2="31.25" y1="25.9481" y2="1814.2537"/><polygon fill="#FEFECE" filter="url(#f1c9mzi9gjpd2n)" points="657.2917,375.9806,973.9583,375.9806,998.9583,400.9806,973.9583,425.9806,657.2917,425.9806,632.2917,400.9806,657.2917,375.9806" style="stroke:#A80036;stroke-width:3.125;"/><text fill="#000000" font-family="sans-serif" font-size="22.9167" lengthAdjust="spacing" textLength="316.6667" x="657.2917" y="410.3577">Có Xe nào đang bị khóa không?</text><text fill="#000000" font-family="sans-serif" font-size="22.9167" lengthAdjust="spacing" textLength="27.0833" x="605.2083" y="395.9452">Có</text><text fill="#000000" font-family="sans-serif" font-size="22.9167" lengthAdjust="spacing" textLength="64.5833" x="998.9583" y="395.9452">Không</text><ellipse cx="1019.7917" cy="488.4806" fill="#FFFFFF" filter="url(#f1c9mzi9gjpd2n)" rx="20.8333" ry="20.8333" style="stroke:#000000;stroke-width:3.125;"/><line style="stroke:#000000;stroke-width:5.208333333333334;" x1="1006.9017" x2="1032.6816" y1="475.5907" y2="501.3706"/><line style="stroke:#000000;stroke-width:5.208333333333334;" x1="1032.6816" x2="1006.9017" y1="475.5907" y2="501.3706"/><rect fill="#FEFECE" filter="url(#f1c9mzi9gjpd2n)" height="104.5573" rx="26.0417" ry="26.0417" style="stroke:#A80036;stroke-width:3.125;" width="260.4167" x="685.4167" y="791.5405"/><text fill="#000000" font-family="sans-serif" font-size="25" lengthAdjust="spacing" textLength="164.5833" x="706.25" y="838.326">Mở khóa tất cả</text><text fill="#000000" font-family="sans-serif" font-size="25" font-weight="bold" lengthAdjust="spacing" textLength="218.75" x="706.25" y="869.7713">Nhà xe được chọn</text><rect fill="#FEFECE" filter="url(#f1c9mzi9gjpd2n)" height="104.5573" rx="26.0417" ry="26.0417" style="stroke:#A80036;stroke-width:3.125;" width="168.75" x="731.25" y="1039.6769"/><text fill="#000000" font-family="sans-serif" font-size="25" lengthAdjust="spacing" textLength="97.9167" x="752.0833" y="1086.4624">Mở khóa</text><text fill="#000000" font-family="sans-serif" font-size="25" font-weight="bold" lengthAdjust="spacing" textLength="127.0833" x="752.0833" y="1117.9077">Các vé này</text><rect fill="#FEFECE" filter="url(#f1c9mzi9gjpd2n)" height="136.0026" rx="26.0417" ry="26.0417" style="stroke:#A80036;stroke-width:3.125;" width="356.25" x="637.5" y="1206.6366"/><text fill="#000000" font-family="sans-serif" font-size="25" lengthAdjust="spacing" textLength="293.75" x="658.3333" y="1253.422">Gửi mail thông báo khách</text><text fill="#000000" font-family="sans-serif" font-size="25" lengthAdjust="spacing" textLength="314.5833" x="658.3333" y="1284.8674">xác nhận lại việc đặt chuyến</text><text fill="#000000" font-family="sans-serif" font-size="25" lengthAdjust="spacing" textLength="164.5833" x="658.3333" y="1316.3127">trong 1 giờ tới!</text><polygon fill="#FEFECE" filter="url(#f1c9mzi9gjpd2n)" points="657.2917,937.7645,973.9583,937.7645,998.9583,962.7645,973.9583,987.7645,657.2917,987.7645,632.2917,962.7645,657.2917,937.7645" style="stroke:#A80036;stroke-width:3.125;"/><text fill="#000000" font-family="sans-serif" font-size="22.9167" lengthAdjust="spacing" textLength="27.0833" x="823.9583" y="1011.554">Có</text><text fill="#000000" font-family="sans-serif" font-size="22.9167" lengthAdjust="spacing" textLength="316.6667" x="657.2917" y="972.1415">Có vé đặt xe nào đang bị khóa?</text><text fill="#000000" font-family="sans-serif" font-size="22.9167" lengthAdjust="spacing" textLength="64.5833" x="998.9583" y="957.7291">Không</text><polygon fill="#FEFECE" filter="url(#f1c9mzi9gjpd2n)" points="815.625,1384.3058,840.625,1409.3058,815.625,1434.3058,790.625,1409.3058,815.625,1384.3058" style="stroke:#A80036;stroke-width:3.125;"/><rect fill="#FEFECE" filter="url(#f1c9mzi9gjpd2n)" height="104.5573" rx="26.0417" ry="26.0417" style="stroke:#A80036;stroke-width:3.125;" width="252.0833" x="689.5833" y="1475.9725"/><text fill="#000000" font-family="sans-serif" font-size="25" lengthAdjust="spacing" textLength="137.5" x="710.4167" y="1522.758">Cập nhật lại</text><text fill="#000000" font-family="sans-serif" font-size="25" lengthAdjust="spacing" textLength="210.4167" x="710.4167" y="1554.2033">danh sách hiển thị</text><rect fill="#FEFECE" filter="url(#f1c9mzi9gjpd2n)" height="104.5573" rx="26.0417" ry="26.0417" style="stroke:#A80036;stroke-width:3.125;" width="283.3333" x="673.9583" y="1622.1965"/><text fill="#000000" font-family="sans-serif" font-size="25" lengthAdjust="spacing" textLength="185.4167" x="694.7917" y="1668.9819">Hiển thị tin nhắn</text><text fill="#000000" font-family="sans-serif" font-size="25" font-weight="bold" lengthAdjust="spacing" textLength="241.6667" x="694.7917" y="1700.4272">Mở khóa thành công</text><ellipse cx="815.625" cy="1791.3371" fill="#FFFFFF" filter="url(#f1c9mzi9gjpd2n)" rx="22.9167" ry="22.9167" style="stroke:#000000;stroke-width:2.0833333333333335;"/><ellipse cx="815.625" cy="1791.3371" fill="#000000" rx="12.5" ry="12.5" style="stroke:#7F7F7F;stroke-width:2.0833333333333335;"/><line style="stroke:#000000;stroke-width:4.166666666666667;" x1="594.7917" x2="594.7917" y1="25.9481" y2="1814.2537"/><line style="stroke:#000000;stroke-width:4.166666666666667;" x1="1073.9583" x2="1073.9583" y1="25.9481" y2="1814.2537"/><line style="stroke:#A80036;stroke-width:3.125;" x1="437.5" x2="437.5" y1="188.09" y2="229.7567"/><polygon fill="#A80036" points="429.1667,208.9233,437.5,229.7567,445.8333,208.9233,437.5,217.2567" style="stroke:#A80036;stroke-width:2.0833333333333335;"/><line style="stroke:#A80036;stroke-width:3.125;" x1="998.9583" x2="1019.7917" y1="400.9806" y2="400.9806"/><line style="stroke:#A80036;stroke-width:3.125;" x1="1019.7917" x2="1019.7917" y1="400.9806" y2="467.6473"/><polygon fill="#A80036" points="1011.4583,446.814,1019.7917,467.6473,1028.125,446.814,1019.7917,455.1473" style="stroke:#A80036;stroke-width:2.0833333333333335;"/><line style="stroke:#A80036;stroke-width:3.125;" x1="815.625" x2="815.625" y1="1144.2342" y2="1206.6366"/><polygon fill="#A80036" points="807.2917,1185.8032,815.625,1206.6366,823.9583,1185.8032,815.625,1194.1366" style="stroke:#A80036;stroke-width:2.0833333333333335;"/><line style="stroke:#A80036;stroke-width:3.125;" x1="815.625" x2="815.625" y1="987.7645" y2="1039.6769"/><polygon fill="#A80036" points="807.2917,1018.8436,815.625,1039.6769,823.9583,1018.8436,815.625,1027.1769" style="stroke:#A80036;stroke-width:2.0833333333333335;"/><line style="stroke:#A80036;stroke-width:3.125;" x1="998.9583" x2="1023.9583" y1="962.7645" y2="962.7645"/><polygon fill="#A80036" points="1015.625,1165.0675,1023.9583,1185.9009,1032.2917,1165.0675,1023.9583,1173.4009" style="stroke:#A80036;stroke-width:3.125;"/><line style="stroke:#A80036;stroke-width:3.125;" x1="1023.9583" x2="1023.9583" y1="962.7645" y2="1409.3058"/><line style="stroke:#A80036;stroke-width:3.125;" x1="1023.9583" x2="840.625" y1="1409.3058" y2="1409.3058"/><polygon fill="#A80036" points="861.4583,1400.9725,840.625,1409.3058,861.4583,1417.6392,853.125,1409.3058" style="stroke:#A80036;stroke-width:2.0833333333333335;"/><line style="stroke:#A80036;stroke-width:3.125;" x1="815.625" x2="815.625" y1="1342.6392" y2="1384.3058"/><polygon fill="#A80036" points="807.2917,1363.4725,815.625,1384.3058,823.9583,1363.4725,815.625,1371.8058" style="stroke:#A80036;stroke-width:2.0833333333333335;"/><line style="stroke:#A80036;stroke-width:3.125;" x1="815.625" x2="815.625" y1="896.0978" y2="937.7645"/><polygon fill="#A80036" points="807.2917,916.9312,815.625,937.7645,823.9583,916.9312,815.625,925.2645" style="stroke:#A80036;stroke-width:2.0833333333333335;"/><line style="stroke:#A80036;stroke-width:3.125;" x1="815.625" x2="815.625" y1="1434.3058" y2="1475.9725"/><polygon fill="#A80036" points="807.2917,1455.1392,815.625,1475.9725,823.9583,1455.1392,815.625,1463.4725" style="stroke:#A80036;stroke-width:2.0833333333333335;"/><line style="stroke:#A80036;stroke-width:3.125;" x1="815.625" x2="815.625" y1="1580.5298" y2="1622.1965"/><polygon fill="#A80036" points="807.2917,1601.3631,815.625,1622.1965,823.9583,1601.3631,815.625,1609.6965" style="stroke:#A80036;stroke-width:2.0833333333333335;"/><line style="stroke:#A80036;stroke-width:3.125;" x1="815.625" x2="815.625" y1="1726.7537" y2="1768.4204"/><polygon fill="#A80036" points="807.2917,1747.5871,815.625,1768.4204,823.9583,1747.5871,815.625,1755.9204" style="stroke:#A80036;stroke-width:2.0833333333333335;"/><line style="stroke:#A80036;stroke-width:3.125;" x1="632.2917" x2="233.3333" y1="400.9806" y2="400.9806"/><line style="stroke:#A80036;stroke-width:3.125;" x1="233.3333" x2="233.3333" y1="400.9806" y2="467.6473"/><polygon fill="#A80036" points="225,446.814,233.3333,467.6473,241.6667,446.814,233.3333,455.1473" style="stroke:#A80036;stroke-width:2.0833333333333335;"/><line style="stroke:#A80036;stroke-width:3.125;" x1="233.3333" x2="233.3333" y1="603.6499" y2="614.0666"/><line style="stroke:#A80036;stroke-width:3.125;" x1="233.3333" x2="437.5" y1="614.0666" y2="614.0666"/><line style="stroke:#A80036;stroke-width:3.125;" x1="437.5" x2="437.5" y1="614.0666" y2="645.3166"/><polygon fill="#A80036" points="429.1667,624.4832,437.5,645.3166,445.8333,624.4832,437.5,632.8166" style="stroke:#A80036;stroke-width:2.0833333333333335;"/><line style="stroke:#A80036;stroke-width:3.125;" x1="437.5" x2="437.5" y1="334.314" y2="344.7306"/><line style="stroke:#A80036;stroke-width:3.125;" x1="437.5" x2="815.625" y1="344.7306" y2="344.7306"/><line style="stroke:#A80036;stroke-width:3.125;" x1="815.625" x2="815.625" y1="344.7306" y2="375.9806"/><polygon fill="#A80036" points="807.2917,355.1473,815.625,375.9806,823.9583,355.1473,815.625,363.4806" style="stroke:#A80036;stroke-width:2.0833333333333335;"/><line style="stroke:#A80036;stroke-width:3.125;" x1="437.5" x2="437.5" y1="749.8739" y2="760.2905"/><line style="stroke:#A80036;stroke-width:3.125;" x1="437.5" x2="815.625" y1="760.2905" y2="760.2905"/><line style="stroke:#A80036;stroke-width:3.125;" x1="815.625" x2="815.625" y1="760.2905" y2="791.5405"/><polygon fill="#A80036" points="807.2917,770.7072,815.625,791.5405,823.9583,770.7072,815.625,779.0405" style="stroke:#A80036;stroke-width:2.0833333333333335;"/><text fill="#000000" font-family="sans-serif" font-size="37.5" lengthAdjust="spacing" textLength="325" x="155.7292" y="64.8763">Quản Trị Hệ Thống</text><text fill="#000000" font-family="sans-serif" font-size="37.5" lengthAdjust="spacing" textLength="166.6667" x="756.25" y="64.8763">Hệ Thống</text><!--MD5=[65178fae4c2de2c4369763349129589d]
@startuml
skinparam dpi 200

|Sys Admin| Quản Trị Hệ Thống

	#lightgreen:Từ màn hình
	<b>Danh sách Xe</b> >

	:Click vào tab
	<b>Đang khóa</b>;

|System| Hệ Thống
	if (Có Xe nào đang bị khóa không?) is (Có) then
		|Sys Admin|
			:Chọn <b>Các Xe muốn mở khóa</b>
			ở cột <b>Checkbox</b>
			phía cuối cùng;

	else (Không)
		|System|
		end
	endif

|Sys Admin|
	:Click nút
	<b>Mở khóa</b>;

|System|

	:Mở khóa tất cả
	<b>Nhà xe được chọn</b>;

	if (Có vé đặt xe nào đang bị khóa?) then (Có)
		:Mở khóa
		<b>Các vé này</b>;

		:Gửi mail thông báo khách
		xác nhận lại việc đặt chuyến
		trong 1 giờ tới!;

	else (Không)
	endif


	:Cập nhật lại
	danh sách hiển thị;

	:Hiển thị tin nhắn
	<b>Mở khóa thành công</b>;

	stop
@enduml

PlantUML version 1.2021.2(Sun Mar 07 18:10:27 ICT 2021)
(GPL source distribution)
Java Runtime: OpenJDK Runtime Environment
JVM: Eclipse OpenJ9 VM
Default Encoding: UTF-8
Language: en
Country: US
--></g></svg>