<?xml version="1.0" encoding="UTF-8" standalone="no"?><svg xmlns="http://www.w3.org/2000/svg" xmlns:xlink="http://www.w3.org/1999/xlink" contentScriptType="application/ecmascript" contentStyleType="text/css" height="339px" preserveAspectRatio="none" style="width:356px;height:339px;" version="1.1" viewBox="0 0 356 339" width="356px" zoomAndPan="magnify"><defs><filter height="300%" id="f1jvhta8a9ptxu" width="300%" x="-1" y="-1"><feGaussianBlur result="blurOut" stdDeviation="2.0"/><feColorMatrix in="blurOut" result="blurOut2" type="matrix" values="0 0 0 0 0 0 0 0 0 0 0 0 0 0 0 0 0 0 .4 0"/><feOffset dx="4.0" dy="4.0" in="blurOut2" result="blurOut3"/><feBlend in="SourceGraphic" in2="blurOut3" mode="normal"/></filter></defs><g><!--MD5=[7d46d6cd919e02e6168a09ad91eae8b4]
entity u--><ellipse cx="41.5" cy="218.5" fill="#FEFECE" filter="url(#f1jvhta8a9ptxu)" rx="16" ry="16" style="stroke:#A80036;stroke-width:1.5;"/><path d="M41.5,238.5 C45.5,238.5 48.5,238.5 52.5,234.5 C60.5,234.5 68.5,242.5 68.5,250.5 L68.5,254.5 C68.5,258.5 64.5,262.5 60.5,262.5 L22.5,262.5 C18.5,262.5 14.5,258.5 14.5,254.5 L14.5,250.5 C14.5,242.5 22.5,234.5 30.5,234.5 C34.5,238.5 37.5,238.5 41.5,238.5 " fill="#FEFECE" filter="url(#f1jvhta8a9ptxu)" style="stroke:#A80036;stroke-width:1.5;"/><text fill="#000000" font-family="sans-serif" font-size="14" lengthAdjust="spacing" textLength="71" x="6" y="278.5332">Thành viên</text><ellipse cx="262.6242" cy="171.6042" fill="#FEFECE" filter="url(#f1jvhta8a9ptxu)" rx="63.1242" ry="15.6042" style="stroke:#A80036;stroke-width:1.5;"/><text fill="#000000" font-family="sans-serif" font-size="14" lengthAdjust="spacing" textLength="72" x="223.6242" y="176.1208">Đặt chuyến</text><ellipse cx="262.602" cy="87.6136" fill="#FEFECE" filter="url(#f1jvhta8a9ptxu)" rx="64.602" ry="15.6136" style="stroke:#A80036;stroke-width:1.5;"/><text fill="#000000" font-family="sans-serif" font-size="14" lengthAdjust="spacing" textLength="74" x="222.602" y="92.1302">Hủy chuyến</text><ellipse cx="262.3351" cy="241.367" fill="#FEFECE" filter="url(#f1jvhta8a9ptxu)" rx="82.3351" ry="18.867" style="stroke:#A80036;stroke-width:1.5;"/><text fill="#000000" font-family="sans-serif" font-size="14" lengthAdjust="spacing" textLength="120" x="202.3351" y="245.0955">Lịch sử đặt chuyến</text><ellipse cx="262.58" cy="21.6227" fill="#FEFECE" filter="url(#f1jvhta8a9ptxu)" rx="66.08" ry="15.6227" style="stroke:#A80036;stroke-width:1.5;"/><text fill="#000000" font-family="sans-serif" font-size="14" lengthAdjust="spacing" textLength="76" x="221.58" y="26.1393">Sửa chuyến</text><ellipse cx="262.7132" cy="311.5613" fill="#FEFECE" filter="url(#f1jvhta8a9ptxu)" rx="57.2132" ry="15.5613" style="stroke:#A80036;stroke-width:1.5;"/><text fill="#000000" font-family="sans-serif" font-size="14" lengthAdjust="spacing" textLength="64" x="227.7132" y="316.0779">Đăng xuất</text><!--MD5=[9ebee74fb413ed68a28b5c6dc921c41b]
link u to Đăng xuất--><path d="M77.2,252.59 C115.91,264.96 178.51,284.97 219.84,298.18 " fill="none" id="u-to-Đăng xuất" style="stroke:#0000FF;stroke-width:1.0;"/><polygon fill="#0000FF" points="224.77,299.76,217.4251,293.1985,220.0097,298.2304,214.9778,300.815,224.77,299.76" style="stroke:#0000FF;stroke-width:1.0;"/><!--MD5=[d62f0ec4f2c959847091e6d7f01befe4]
link u to reserve_trip--><path d="M77.06,226.79 C86.68,222.91 97.18,218.87 107,215.5 C142.18,203.44 182.64,192 213.33,183.81 " fill="none" id="u-to-reserve_trip" style="stroke:#0000FF;stroke-width:1.0;"/><polygon fill="#0000FF" points="218.17,182.53,208.4438,180.9804,213.3384,183.8165,210.5023,188.7111,218.17,182.53" style="stroke:#0000FF;stroke-width:1.0;"/><!--MD5=[a380742aaef705510a3b8795d0aef24d]
link u to trip_history--><path d="M77.2,241.5 C103.41,241.5 140.57,241.5 174.67,241.5 " fill="none" id="u-to-trip_history" style="stroke:#0000FF;stroke-width:1.0;"/><polygon fill="#0000FF" points="179.68,241.5,170.68,237.5,174.68,241.5,170.68,245.5,179.68,241.5" style="stroke:#0000FF;stroke-width:1.0;"/><!--MD5=[bacce0d168c3287ce1ec8aae64cf6c0e]
link cancel_trip to reserve_trip--><path d="M262.5,103.23 C262.5,116.58 262.5,135.86 262.5,150.52 " fill="none" id="cancel_trip-to-reserve_trip" style="stroke:#A80036;stroke-width:1.0;stroke-dasharray:7.0,7.0;"/><polygon fill="#A80036" points="262.5,155.7,266.5,146.7,262.5,150.7,258.5,146.7,262.5,155.7" style="stroke:#A80036;stroke-width:1.0;"/><text fill="#000000" font-family="sans-serif" font-size="13" lengthAdjust="spacing" textLength="41" x="230" y="134.9951">include</text><!--MD5=[b69b9bd368c547fb151980d4646d9700]
link edit_trip to reserve_trip--><path d="M211.72,31.45 C181.36,40.41 145.56,57.07 129,87.5 C108.48,125.21 163.17,148.24 208.64,160.42 " fill="none" id="edit_trip-to-reserve_trip" style="stroke:#A80036;stroke-width:1.0;stroke-dasharray:7.0,7.0;"/><polygon fill="#A80036" points="213.57,161.71,205.8807,155.5557,208.7339,160.4403,203.8493,163.2935,213.57,161.71" style="stroke:#A80036;stroke-width:1.0;"/><text fill="#000000" font-family="sans-serif" font-size="13" lengthAdjust="spacing" textLength="41" x="108" y="101.9951">include</text><!--MD5=[2731514293e021b43b788817af2ea258]
@startuml
left to right direction
skinparam actorStyle awesome
:Thành viên: as u

(Đặt chuyến) as (reserve_trip)
(Hủy chuyến) as (cancel_trip)
(Lịch sử đặt chuyến) as (trip_history)
(Sửa chuyến) as (edit_trip)


u - -> (Đăng xuất)#blue
u - -> (reserve_trip) #blue
u - -> (trip_history)#blue
(cancel_trip) .> (reserve_trip) : include
(edit_trip) .> (reserve_trip) : include
@enduml

PlantUML version 1.2021.2(Sun Mar 07 18:10:27 ICT 2021)
(GPL source distribution)
Java Runtime: OpenJDK Runtime Environment
JVM: Eclipse OpenJ9 VM
Default Encoding: UTF-8
Language: en
Country: US
--></g></svg>