<?xml version="1.0" encoding="UTF-8" standalone="no"?><svg xmlns="http://www.w3.org/2000/svg" xmlns:xlink="http://www.w3.org/1999/xlink" contentScriptType="application/ecmascript" contentStyleType="text/css" height="339px" preserveAspectRatio="none" style="width:358px;height:339px;" version="1.1" viewBox="0 0 358 339" width="358px" zoomAndPan="magnify"><defs><filter height="300%" id="fm5opzoi8xcsu" width="300%" x="-1" y="-1"><feGaussianBlur result="blurOut" stdDeviation="2.0"/><feColorMatrix in="blurOut" result="blurOut2" type="matrix" values="0 0 0 0 0 0 0 0 0 0 0 0 0 0 0 0 0 0 .4 0"/><feOffset dx="4.0" dy="4.0" in="blurOut2" result="blurOut3"/><feBlend in="SourceGraphic" in2="blurOut3" mode="normal"/></filter></defs><g><!--MD5=[7d46d6cd919e02e6168a09ad91eae8b4]
entity u--><ellipse cx="42.5" cy="218.5" fill="#FEFECE" filter="url(#fm5opzoi8xcsu)" rx="16" ry="16" style="stroke:#A80036;stroke-width:1.5;"/><path d="M42.5,238.5 C46.5,238.5 49.5,238.5 53.5,234.5 C61.5,234.5 69.5,242.5 69.5,250.5 L69.5,254.5 C69.5,258.5 65.5,262.5 61.5,262.5 L23.5,262.5 C19.5,262.5 15.5,258.5 15.5,254.5 L15.5,250.5 C15.5,242.5 23.5,234.5 31.5,234.5 C35.5,238.5 38.5,238.5 42.5,238.5 " fill="#FEFECE" filter="url(#fm5opzoi8xcsu)" style="stroke:#A80036;stroke-width:1.5;"/><text fill="#000000" font-family="sans-serif" font-size="14" lengthAdjust="spacing" textLength="73" x="6" y="278.5332">Thành Viên</text><ellipse cx="264.6242" cy="171.6042" fill="#FEFECE" filter="url(#fm5opzoi8xcsu)" rx="63.1242" ry="15.6042" style="stroke:#A80036;stroke-width:1.5;"/><text fill="#000000" font-family="sans-serif" font-size="14" lengthAdjust="spacing" textLength="72" x="225.6242" y="176.1208">Đặt chuyến</text><ellipse cx="264.602" cy="87.6136" fill="#FEFECE" filter="url(#fm5opzoi8xcsu)" rx="64.602" ry="15.6136" style="stroke:#A80036;stroke-width:1.5;"/><text fill="#000000" font-family="sans-serif" font-size="14" lengthAdjust="spacing" textLength="74" x="224.602" y="92.1302">Hủy chuyến</text><ellipse cx="264.3351" cy="241.367" fill="#FEFECE" filter="url(#fm5opzoi8xcsu)" rx="82.3351" ry="18.867" style="stroke:#A80036;stroke-width:1.5;"/><text fill="#000000" font-family="sans-serif" font-size="14" lengthAdjust="spacing" textLength="120" x="204.3351" y="245.0955">Lịch sử đặt chuyến</text><ellipse cx="264.58" cy="21.6227" fill="#FEFECE" filter="url(#fm5opzoi8xcsu)" rx="66.08" ry="15.6227" style="stroke:#A80036;stroke-width:1.5;"/><text fill="#000000" font-family="sans-serif" font-size="14" lengthAdjust="spacing" textLength="76" x="223.58" y="26.1393">Sửa chuyến</text><ellipse cx="264.7132" cy="311.5613" fill="#FEFECE" filter="url(#fm5opzoi8xcsu)" rx="57.2132" ry="15.5613" style="stroke:#A80036;stroke-width:1.5;"/><text fill="#000000" font-family="sans-serif" font-size="14" lengthAdjust="spacing" textLength="64" x="229.7132" y="316.0779">Đăng xuất</text><!--MD5=[9ebee74fb413ed68a28b5c6dc921c41b]
link u to Đăng xuất--><path d="M79.34,252.9 C118.3,265.3 180.49,285.09 221.66,298.19 " fill="none" id="u-to-Đăng xuất" style="stroke:#0000FF;stroke-width:1.0;"/><polygon fill="#0000FF" points="226.58,299.75,219.2173,293.2086,221.8156,298.2334,216.7907,300.8317,226.58,299.75" style="stroke:#0000FF;stroke-width:1.0;"/><!--MD5=[d62f0ec4f2c959847091e6d7f01befe4]
link u to reserve_trip--><path d="M79.29,226.54 C88.87,222.74 99.27,218.81 109,215.5 C144.22,203.53 184.67,192.09 215.35,183.88 " fill="none" id="u-to-reserve_trip" style="stroke:#0000FF;stroke-width:1.0;"/><polygon fill="#0000FF" points="220.19,182.59,210.4607,181.0601,215.361,183.8863,212.5348,188.7866,220.19,182.59" style="stroke:#0000FF;stroke-width:1.0;"/><!--MD5=[a380742aaef705510a3b8795d0aef24d]
link u to trip_history--><path d="M79.34,241.5 C105.69,241.5 142.67,241.5 176.58,241.5 " fill="none" id="u-to-trip_history" style="stroke:#0000FF;stroke-width:1.0;"/><polygon fill="#0000FF" points="182,241.5,173,237.5,177,241.5,173,245.5,182,241.5" style="stroke:#0000FF;stroke-width:1.0;"/><!--MD5=[bacce0d168c3287ce1ec8aae64cf6c0e]
link cancel_trip to reserve_trip--><path d="M264.5,103.23 C264.5,116.58 264.5,135.86 264.5,150.52 " fill="none" id="cancel_trip-to-reserve_trip" style="stroke:#A80036;stroke-width:1.0;stroke-dasharray:7.0,7.0;"/><polygon fill="#A80036" points="264.5,155.7,268.5,146.7,264.5,150.7,260.5,146.7,264.5,155.7" style="stroke:#A80036;stroke-width:1.0;"/><text fill="#000000" font-family="sans-serif" font-size="13" lengthAdjust="spacing" textLength="41" x="232" y="134.9951">include</text><!--MD5=[b69b9bd368c547fb151980d4646d9700]
link edit_trip to reserve_trip--><path d="M213.72,31.45 C183.36,40.41 147.56,57.07 131,87.5 C110.48,125.21 165.17,148.24 210.64,160.42 " fill="none" id="edit_trip-to-reserve_trip" style="stroke:#A80036;stroke-width:1.0;stroke-dasharray:7.0,7.0;"/><polygon fill="#A80036" points="215.57,161.71,207.8807,155.5557,210.7339,160.4403,205.8493,163.2935,215.57,161.71" style="stroke:#A80036;stroke-width:1.0;"/><text fill="#000000" font-family="sans-serif" font-size="13" lengthAdjust="spacing" textLength="41" x="110" y="101.9951">include</text><!--MD5=[db06ab28c255897dc58a784495fe92fb]
@startuml
left to right direction
skinparam actorStyle awesome
:Thành Viên: as u

(Đặt chuyến) as (reserve_trip)
(Hủy chuyến) as (cancel_trip)
(Lịch sử đặt chuyến) as (trip_history)
(Sửa chuyến) as (edit_trip)


u - -> (Đăng xuất)#blue
u - -> (reserve_trip) #blue
u - -> (trip_history)#blue
(cancel_trip) .> (reserve_trip) : include
(edit_trip) .> (reserve_trip) : include
@enduml

PlantUML version 1.2021.2(Sun Mar 07 18:10:27 ICT 2021)
(GPL source distribution)
Java Runtime: OpenJDK Runtime Environment
JVM: Eclipse OpenJ9 VM
Default Encoding: UTF-8
Language: en
Country: US
--></g></svg>